<svg width="36" height="36" viewBox="0 0 36 36" fill="none" xmlns="http://www.w3.org/2000/svg">
<path d="M28.2893 13.4906C26.5772 14.741 24.1535 14.4351 22.8675 12.7984C21.5729 11.1642 21.8998 8.81755 23.5955 7.55022C25.2618 6.30719 27.6855 6.62825 28.9846 8.26309C30.2684 9.88865 29.9556 12.2702 28.2893 13.4906ZM32.2213 10.9784C31.8181 10.4932 31.4345 9.99257 31.0443 9.50159C29.7431 7.85227 28.4473 6.2058 27.1352 4.56145C27.0524 4.4569 26.8824 4.34284 26.7647 4.35974C25.4743 4.49387 24.2254 4.8033 23.0147 5.2606C21.1271 5.9703 19.5644 7.16158 18.1237 8.51128C16.5859 9.93892 15.1888 11.4953 13.9595 13.1798C12.7161 14.8765 11.5315 16.6121 10.3392 18.3388C10.2662 18.4362 10.2128 18.6318 10.2651 18.7105C10.5768 19.1445 10.9212 19.5584 11.2786 20.0103C12.3205 19.2363 13.3155 18.4963 14.3181 17.753C15.6629 16.7525 17.0077 15.756 18.3558 14.7596C18.8397 14.4075 19.39 14.4026 19.8085 14.7345C20.4079 15.2075 20.3806 16.0263 19.7322 16.5026C17.4916 18.1725 15.2411 19.8336 13.0016 21.5002C12.8937 21.5806 12.7858 21.6575 12.6856 21.7355C12.7128 21.8029 12.7193 21.8369 12.739 21.858C13.0288 22.2305 13.3362 22.594 13.6097 22.9712C13.7361 23.1417 13.8538 23.1514 14.0456 23.0979C17.9711 21.9554 21.8104 20.6044 25.3915 18.6447C26.7124 17.9218 27.9678 17.1087 29.074 16.0953C30.506 14.7742 31.5107 13.1789 32.2769 11.4271C32.3543 11.2494 32.3401 11.1252 32.2213 10.9784Z" fill="#E1E1E1"/>
<path d="M31.625 9.75C27.6875 17.0694 18.6458 20.2269 12.8125 22.6667L13.25 23.9583C14.5625 23.5278 18.5 22.15 23.75 20.0833C29 18.0167 32.0625 13.4815 32.9375 11.4722L31.625 9.75Z" fill="#C5C5C5"/>
<path d="M27.25 4.58328C20.95 5.61661 13.5417 14.7731 10.625 19.2222L9.3125 18.7916C10.625 16.6388 14.0375 11.4722 17.1875 8.02772C20.3375 4.58328 25.2083 3.72217 27.25 3.72217V4.58328Z" fill="#F0F0F0"/>
<path d="M33.0576 9.12769C31.7597 7.48485 30.4937 5.88129 29.2266 4.27347C29.231 4.23516 29.2386 4.19579 29.2452 4.15429C30.721 4.32773 32.2011 4.50224 33.6977 4.67569C33.6692 6.2335 33.4298 7.66362 33.0576 9.12769Z" fill="#F79174"/>
<path d="M13.7966 9.69137C12.3161 11.6444 10.8346 13.6012 9.32578 15.5911C7.63936 15.0567 5.89437 14.5072 4.10156 13.9416C5.95585 12.0312 7.91652 10.3638 10.5574 9.663C11.6973 9.35752 13.0158 9.384 13.7966 9.69137Z" fill="#F79174"/>
<path d="M13.6875 10.1803C9.4875 10.1803 6.10417 13.0507 4.9375 14.4859L2.75 14.4859C3.04167 14.3424 4.0625 13.4526 5.8125 11.0415C7.5625 8.63034 12.375 8.60164 14.5625 8.88868V10.1803H13.6875Z" fill="#FDAF99"/>
<path d="M21.2364 27.3397C19.9864 28.5211 18.5309 29.4031 16.9552 30.2048C16.8598 28.3312 16.7643 26.4983 16.6699 24.7009C19.0507 23.8043 21.3764 22.9296 23.7198 22.0452C23.809 22.6715 23.6959 23.332 23.4906 23.9788C23.0632 25.3022 22.2457 26.3789 21.2364 27.3397Z" fill="#F79174"/>
<path d="M23.75 21.375C22.35 25.5083 18.2083 27.9769 16.3125 28.6944V31.2778C17.3333 30.8472 19.9 29.7278 22 28.6944C24.1 27.6611 24.625 23.3843 24.625 21.375H23.75Z" fill="#DE7659"/>
<path d="M27.1354 12.11C26.2684 12.7461 24.9943 12.5789 24.318 11.7392C23.619 10.8734 23.8096 9.60062 24.7348 8.93473C25.6017 8.30642 26.9006 8.48803 27.5522 9.33134C28.235 10.2096 28.0466 11.4422 27.1354 12.11ZM28.9846 8.26259C27.6868 6.62815 25.2625 6.30668 23.5974 7.54974C21.9001 8.81679 21.5738 11.1639 22.8683 12.7981C24.1543 14.4347 26.5775 14.7407 28.29 13.4903C29.9561 12.2699 30.2695 9.88869 28.9846 8.26259Z" fill="#1B1F2C"/>
<path d="M27.136 12.1096C26.2673 12.7457 24.9942 12.5778 24.3161 11.7371C23.6209 10.8734 23.8094 9.6004 24.7344 8.93502C25.6031 8.30678 26.8996 8.48834 27.5522 9.33012C28.2335 10.209 28.0482 11.4434 27.136 12.1096Z" fill="#E9E9E9"/>
<path d="M33.0562 9.12837C31.7597 7.48281 30.4945 5.88158 29.227 4.27366C29.2281 4.237 29.2381 4.19386 29.2448 4.15396C30.7215 4.32543 32.2004 4.50121 33.6961 4.67483C33.6671 6.2353 33.429 7.66377 33.0562 9.12837ZM32.2783 11.4271C31.5116 13.179 30.5067 14.7742 29.0745 16.0953C27.9684 17.1088 26.7131 17.9218 25.3933 18.6448C21.8111 20.6044 17.9718 21.9553 14.0458 23.0979C13.8544 23.1514 13.7375 23.1416 13.6107 22.9713C13.3369 22.5939 13.0298 22.2304 12.7404 21.858C12.7204 21.8369 12.7137 21.8028 12.687 21.7355C12.7861 21.6575 12.894 21.5805 13.002 21.5002C15.2421 19.8335 17.4922 18.1725 19.7334 16.5026C20.3811 16.0262 20.4089 15.2075 19.8091 14.7345C19.3907 14.4026 18.8398 14.4074 18.3569 14.7597C17.0092 15.7561 15.6638 16.7526 14.3195 17.753C13.3158 18.4963 12.3209 19.2363 11.2793 20.0104C10.9221 19.5584 10.5771 19.1446 10.2655 18.7104C10.2132 18.6317 10.2666 18.4362 10.339 18.3388C11.533 16.6122 12.7171 14.8764 13.9601 13.1798C15.1898 11.4953 16.5864 9.93902 18.1243 8.51087C19.5654 7.16145 21.1278 5.97001 23.0152 5.26041C24.2259 4.80316 25.4756 4.49366 26.7654 4.35993C26.8833 4.34376 27.0536 4.457 27.136 4.5616C28.448 6.20511 29.7444 7.85196 31.0442 9.50161C31.4348 9.99251 31.8187 10.4932 32.2216 10.9784C32.3406 11.1253 32.3551 11.2494 32.2783 11.4271ZM23.4881 23.9766C23.0608 25.3001 22.244 26.3775 21.2369 27.3392C19.986 28.5198 18.5305 29.4001 16.9558 30.2043C16.8612 28.3299 16.7644 26.4969 16.6687 24.7004C19.049 23.8029 21.376 22.9275 23.7162 22.0462C23.8064 22.671 23.6951 23.3323 23.4881 23.9766ZM9.32518 15.5897C7.64037 15.0583 5.89545 14.5064 4.10158 13.9409C5.95554 12.0324 7.91524 10.3658 10.5571 9.6623C11.6977 9.35797 13.0175 9.38396 13.7954 9.69066C12.3176 11.6462 10.8353 13.6018 9.32518 15.5897ZM35.8294 6.7688C35.9584 5.66482 36.1087 4.54973 35.8861 3.4271C35.7859 3.30524 35.6947 3.18015 35.5957 3.05937C35.2652 2.94398 34.9435 2.79299 34.6019 2.70996C32.1871 2.10496 29.7389 1.86664 27.2517 2.07262C24.0089 2.34438 21.0321 3.31387 18.4726 5.3111C17.5467 6.03256 16.701 6.84665 15.8352 7.6353C15.6037 7.84958 15.4257 7.93877 15.0996 7.79523C14.334 7.45682 13.5083 7.30671 12.6692 7.2653C10.4202 7.16716 8.41489 7.87062 6.54423 9.0091C4.51555 10.2473 2.88192 11.9019 1.35958 13.6732C0.710802 14.4237 0.963409 15.2611 1.92823 15.5759C2.53694 15.7691 3.14566 15.9581 3.75437 16.1504C5.21217 16.6081 6.66775 17.0616 8.12221 17.5185C8.11999 17.5623 8.12444 17.5859 8.11665 17.6069C8.10441 17.6345 8.09217 17.6662 8.07214 17.693C7.46453 18.4492 7.61254 19.1486 8.25241 19.8059C8.32141 19.8789 8.38039 19.965 8.4416 20.0444C8.77656 20.4713 9.1182 20.903 9.47319 21.3476C8.98911 21.7103 8.51282 22.0186 8.09105 22.3911C7.87851 22.5785 7.69155 22.8511 7.61031 23.1214C7.47455 23.5571 7.70713 24.0026 8.10775 24.2314C8.53062 24.4789 8.96907 24.4683 9.36301 24.1925C9.8649 23.8468 10.3434 23.4719 10.8531 23.0946C11.3349 23.7097 11.7912 24.2915 12.2497 24.8659C12.7749 25.5207 13.1355 25.6327 13.9501 25.4145C14.0981 25.3698 14.2439 25.3389 14.4186 25.2976C14.4319 25.4664 14.4442 25.6018 14.452 25.7284C14.5544 27.7676 14.6512 29.8083 14.7669 31.8409C14.8192 32.8049 15.6049 33.2609 16.5029 32.8471C17.313 32.4763 18.1243 32.0836 18.92 31.6657C20.7528 30.7001 22.4198 29.5162 23.7507 27.9436C25.4166 25.963 26.3381 23.7518 25.9063 21.1399C25.8885 21.0368 25.9775 20.8607 26.0688 20.8072C26.8878 20.2968 27.7269 19.8188 28.5448 19.3053C30.3932 18.1376 31.8799 16.6202 33.0406 14.8075C34.6208 12.344 35.4933 9.64041 35.8294 6.7688Z" fill="#1B1F2C"/>
</svg>
