<svg width="36" height="36" viewBox="0 0 36 36" fill="none" xmlns="http://www.w3.org/2000/svg">
<path d="M5.94241 27.7149C3.47906 25.3345 1.79823 22.2114 1.34832 18.6691C0.259936 10.073 6.83182 2.27922 16.0289 1.26179C25.2245 0.24297 33.5618 6.38641 34.6517 14.9839C35.7401 23.58 29.1682 31.3738 19.9726 32.3912C17.4142 32.6744 14.9227 32.4023 12.636 31.6792L5.44349 34.8508L5.94241 27.7149Z" fill="#F79174"/>
<path d="M2.69922 14.2625C3.14111 11.9399 4.19173 9.74037 5.79835 7.83497C8.36633 4.78879 12.0507 2.85876 16.1727 2.4019C16.7902 2.33488 17.4047 2.30069 18.0119 2.30069C24.2234 2.30069 29.7734 5.79005 32.2185 10.9673C29.1632 6.80088 24.039 4.14454 18.3997 4.14454C17.7412 4.14454 17.0769 4.1801 16.4068 4.25396C9.98759 4.96524 4.84724 8.97849 2.69922 14.2625Z" fill="#FDAF99"/>
<path d="M18.0119 2.30157C17.4044 2.30157 16.7908 2.33498 16.1729 2.40319C12.051 2.85978 8.36691 4.78914 5.79819 7.83492C3.22946 10.8821 2.08284 14.681 2.57127 18.5341C2.97482 21.7163 4.44607 24.6145 6.82568 26.9156C7.06692 27.148 7.192 27.4654 7.16966 27.7884L6.80781 32.9779L12.1105 30.6379C12.3994 30.5112 12.7285 30.4945 13.0308 30.5891C15.2258 31.2838 17.5116 31.5065 19.8271 31.249C28.3345 30.308 34.4369 23.0708 33.4287 15.118C32.4951 7.74303 25.7687 2.30157 18.0119 2.30157ZM5.44377 36C5.20104 36 4.9598 35.9332 4.75133 35.8009C4.39245 35.5713 4.18845 35.1815 4.21674 34.775L4.67985 28.1378C2.14389 25.5361 0.572868 22.3205 0.127622 18.8042C-0.438243 14.3427 0.89005 9.94107 3.8653 6.41225C6.84205 2.88205 11.1099 0.64782 15.884 0.118847C20.6581 -0.408733 25.3652 0.83157 29.1416 3.61286C32.9165 6.39554 35.3065 10.3851 35.8724 14.848C36.4382 19.3109 35.11 23.7125 32.1347 27.2413C29.158 30.7701 24.8902 33.0043 20.116 33.5333C17.6039 33.8117 15.1186 33.6029 12.7211 32.9125L5.96794 35.89C5.80265 35.9638 5.62246 36 5.44377 36Z" fill="#1B1F2C"/>
<path d="M6.80859 32.9771L7.14452 28.1771C9.55936 29.1481 12.1775 29.6605 14.8325 29.6605C17.7439 29.6605 20.7009 29.0448 23.4826 27.7433C28.6453 25.3261 32.146 21.0468 33.5251 16.2124C33.8713 23.7243 27.9454 30.3505 19.8302 31.2485C19.2084 31.3174 18.5881 31.3518 17.9723 31.3518C16.2926 31.3518 14.638 31.097 13.0321 30.5888C12.9039 30.5475 12.7698 30.5282 12.6372 30.5282C12.4575 30.5282 12.2777 30.5654 12.1127 30.6384L6.80859 32.9771Z" fill="#DE7659"/>
<path d="M5.44336 34.8503L5.94227 27.7145C5.89773 27.6728 5.85763 27.6284 5.81457 27.5868C6.24962 27.7991 6.69211 27.9962 7.14202 28.1767L6.80645 32.9765L12.1103 30.6377C12.2766 30.5655 12.4562 30.528 12.6359 30.528C12.7681 30.528 12.9017 30.5474 13.0294 30.5891C14.636 31.0971 16.2916 31.3525 17.9709 31.3525C18.5871 31.3525 19.2063 31.3178 19.827 31.2498C27.9431 30.3503 33.8691 23.7239 33.5231 16.2118C33.8601 15.0348 34.0695 13.823 34.1467 12.5988C34.3769 13.3677 34.5476 14.1645 34.6516 14.9834C35.7399 23.5795 29.1681 31.3733 19.971 32.3908C19.3043 32.4643 18.6406 32.5018 17.9828 32.5018C16.1267 32.5018 14.3256 32.2131 12.6359 31.6787L5.44336 34.8503Z" fill="#1B1F2C"/>
<path d="M12.6995 12.4233C14.1503 11.067 16.5026 11.3099 17.9535 12.6661L18.1792 12.8785L18.4049 12.6661C19.8558 11.3099 22.2081 11.067 23.6604 12.4233C25.1112 13.7809 25.1112 15.9798 23.6604 17.3361L23.4332 17.5471L18.872 21.8123C18.4901 22.1693 17.8697 22.1693 17.4864 21.8123L12.9252 17.5471L12.6995 17.3361C11.2486 15.9798 11.2486 13.7809 12.6995 12.4233Z" fill="#E9E9E9"/>
</svg>
