<svg width="36" height="36" viewBox="0 0 36 36" fill="none" xmlns="http://www.w3.org/2000/svg">
<path d="M18.03 3.87505C25.8453 3.87505 32.1811 10.207 32.1811 18.0179C32.1811 25.8288 25.8453 32.1608 18.03 32.1608C10.2147 32.1608 3.87891 25.8288 3.87891 18.0179C3.87891 10.207 10.2147 3.87505 18.03 3.87505Z" fill="#F79174"/>
<path d="M18.2718 24.0612H17.4186C17.0665 24.0612 16.7804 23.7757 16.7804 23.4236V22.6433C16.0907 22.5443 15.4338 22.3069 14.9763 21.9801C14.7442 21.8144 14.6503 21.5145 14.7462 21.2463L15.0711 20.3397C15.1377 20.1547 15.2855 20.0109 15.4717 19.9493C15.6584 19.8879 15.8627 19.9152 16.0256 20.0238C16.4726 20.3214 17.069 20.4987 17.6219 20.4987C18.071 20.4987 18.5951 20.3185 18.5951 19.8105C18.5951 19.5391 18.5079 19.2143 17.4635 18.791C16.1649 18.2823 14.831 17.5335 14.831 15.859C14.831 14.603 15.6326 13.5787 16.8758 13.179V12.3134C16.8758 11.9613 17.1613 11.6759 17.5135 11.6759H18.353C18.7056 11.6759 18.9912 11.9613 18.9912 12.3134V13.045C19.523 13.1266 19.9992 13.2936 20.4361 13.5494C20.7045 13.7068 20.8206 14.0347 20.7101 14.3255L20.3715 15.2186C20.3055 15.3931 20.1662 15.5299 19.9901 15.593C19.8146 15.6563 19.6203 15.6391 19.4579 15.5466C19.2445 15.4244 18.8 15.1705 18.0684 15.1705C17.5624 15.1705 17.2718 15.3622 17.2718 15.6966C17.2718 15.9434 17.3636 16.1565 18.5553 16.6494C19.7167 17.1232 21.0496 17.8998 21.0496 19.7156C21.0496 21.0316 20.2096 22.1043 18.91 22.5175V23.4236C18.91 23.7757 18.6244 24.0612 18.2718 24.0612Z" fill="#E9E9E9"/>
<path d="M32.647 16.7926C28.1042 31.7479 14.4571 30.5784 8.2014 28.1242L7.52807 28.7452C7.60399 29.0075 8.48908 30.002 11.4221 31.8823C15.0884 34.2326 22.5149 33.3641 28.2433 29.5762C32.8259 26.5459 33.0885 19.7912 32.647 16.7926Z" fill="#DE7659"/>
<path d="M3.79154 20.0704C7.7613 4.95308 21.443 5.60242 27.7877 7.81676L28.4369 7.17059C28.351 6.91142 27.4287 5.95126 24.4261 4.18399C20.673 1.97491 13.2849 3.12541 7.70506 7.12853C3.24119 10.331 3.2361 17.0908 3.79154 20.0704Z" fill="#FDAF99"/>
<mask id="path-5-outside-1_596_8032" maskUnits="userSpaceOnUse" x="0.876953" y="1.16077" width="34" height="34" fill="black">
<rect fill="white" x="0.876953" y="1.16077" width="34" height="34"/>
<path d="M18.028 3.87505C25.8433 3.87505 32.1791 10.207 32.1791 18.0179C32.1791 25.8288 25.8433 32.1608 18.028 32.1608C10.2127 32.1608 3.87695 25.8288 3.87695 18.0179C3.87695 10.207 10.2127 3.87505 18.028 3.87505Z"/>
</mask>
<path d="M18.028 1.37505C27.2227 1.37505 34.6791 8.82493 34.6791 18.0179H29.6791C29.6791 11.5891 24.464 6.37505 18.028 6.37505V1.37505ZM34.6791 18.0179C34.6791 27.2109 27.2227 34.6608 18.028 34.6608V29.6608C24.464 29.6608 29.6791 24.4467 29.6791 18.0179H34.6791ZM18.028 34.6608C8.83339 34.6608 1.37695 27.2109 1.37695 18.0179H6.37695C6.37695 24.4467 11.592 29.6608 18.028 29.6608V34.6608ZM1.37695 18.0179C1.37695 8.82493 8.83339 1.37505 18.028 1.37505V6.37505C11.592 6.37505 6.37695 11.5891 6.37695 18.0179H1.37695Z" fill="#1B1F2C" mask="url(#path-5-outside-1_596_8032)"/>
</svg>
