<svg width="123" height="122" viewBox="0 0 123 122" fill="none" xmlns="http://www.w3.org/2000/svg">
<path d="M27.7089 109.467C54.557 128.034 91.5347 121.557 110.308 94.9962C113.561 90.392 116.052 85.489 117.807 80.4273C118.574 78.2267 119.201 75.9957 119.69 73.7484C124.394 52.1271 116.434 28.898 97.7201 14.7701C97.0549 14.2614 96.3731 13.769 95.6796 13.2883C93.6626 11.8951 91.589 10.6419 89.4729 9.53342C82.1175 5.65956 74.2101 3.47061 66.2672 2.86853C65.7529 2.82886 65.2387 2.79852 64.7244 2.77051C56.2531 2.34579 47.7724 3.7273 39.8909 6.80305C29.4216 10.8823 20.0114 17.9509 13.0806 27.7569C9.25661 33.1686 6.48477 38.9934 4.72022 45.0025C-2.17757 68.4767 6.32908 94.6812 27.7089 109.467Z" fill="url(#paint0_linear_596_7218)"/>
<path d="M85.4696 36.707C91.4505 36.707 95.8143 33.8359 95.5725 29.734C95.3019 25.1151 89.2922 20.6848 82.1512 19.8392C81.3518 19.746 80.5729 19.6993 79.8186 19.6993C73.8377 19.6993 69.4719 22.5704 69.7138 26.6723C69.9864 31.2913 75.996 35.7216 83.135 36.5651C83.9344 36.6604 84.7153 36.707 85.4696 36.707Z" fill="#E06C57"/>
<path d="M83.0569 36.1379C89.2516 37.0812 93.8703 35.4303 93.3713 32.4522C92.8743 29.4741 87.4473 26.2962 81.2526 25.3528C75.0579 24.4114 70.4412 26.0623 70.9402 29.0404C71.4372 32.0185 76.8642 35.1965 83.0569 36.1379Z" fill="#F78971"/>
<path d="M72.2667 21.0006C71.7259 21.2945 71.2137 21.6593 70.7486 22.091C70.5192 22.3119 70.302 22.547 70.1033 22.8024C69.9066 23.0597 69.7263 23.3313 69.5686 23.6171C69.4129 23.9049 69.2818 24.2089 69.1752 24.521L69.0994 24.7581C69.0769 24.8371 69.0605 24.9182 69.04 24.9993L68.9826 25.2405C68.9663 25.3215 68.956 25.4046 68.9417 25.4857C68.8413 26.1423 68.8515 26.8132 68.9581 27.4637C69.0666 28.1123 69.2674 28.7385 69.5276 29.3283C69.7898 29.918 70.1136 30.4734 70.4762 30.9942C70.8388 31.5171 71.2506 31.9954 71.6808 32.4474C71.8959 32.6784 72.1233 32.8912 72.3528 33.106L72.7031 33.4141C72.8199 33.5174 72.9428 33.6127 73.0637 33.712C73.5472 34.1011 74.0491 34.47 74.5736 34.7983C74.8318 34.9706 75.1001 35.1205 75.3644 35.2807C75.6369 35.4286 75.9032 35.5847 76.1798 35.7204C77.2779 36.2859 78.4293 36.7358 79.6073 37.1006C79.9003 37.1898 80.1994 37.2688 80.4965 37.3499C80.7956 37.4208 81.0927 37.5019 81.3959 37.5607C81.9982 37.6965 82.6087 37.7917 83.2213 37.8748C84.4505 38.0187 85.6961 38.0775 86.9479 37.9843C88.1956 37.8971 89.4514 37.6843 90.6704 37.2871C91.8874 36.8817 93.0859 36.3082 94.1287 35.4408C94.649 35.0111 95.1264 34.5065 95.5218 33.9329C95.9152 33.3573 96.2204 32.7108 96.4068 32.0339C96.5933 31.357 96.665 30.6517 96.6158 29.9647C96.5728 29.2776 96.4191 28.6108 96.1897 27.9886C95.9602 27.3665 95.655 26.7868 95.3067 26.2498C95.2165 26.118 95.1325 25.9822 95.0383 25.8546L94.7515 25.4735L94.4483 25.1108C94.3479 24.9892 94.2372 24.8777 94.1328 24.7601C93.7046 24.3062 93.2498 23.8826 92.7704 23.4955C92.2889 23.1124 91.7911 22.7558 91.2768 22.4295C90.7585 22.1092 90.2299 21.8133 89.687 21.5458C89.1421 21.2844 88.593 21.0371 88.0276 20.8324C86.9049 20.4068 85.7473 20.0988 84.5775 19.888C84.3706 19.8515 84.176 19.9873 84.137 20.19C84.1043 20.3724 84.2108 20.5467 84.3808 20.6075L84.389 20.6115C84.9299 20.8041 85.4687 20.9905 85.9911 21.2195C86.2554 21.3249 86.5136 21.4445 86.7717 21.56C86.9008 21.6188 87.0278 21.6816 87.1548 21.7424C87.2818 21.8032 87.4089 21.866 87.5338 21.9329L87.9087 22.1295L88.2755 22.3342L88.4599 22.4376L88.6401 22.545C88.759 22.6179 88.8798 22.6889 88.9987 22.7639C89.4719 23.0638 89.9308 23.3759 90.3713 23.7103C90.8077 24.0508 91.2297 24.4034 91.6251 24.7784C92.0164 25.1574 92.3852 25.5526 92.7212 25.966C93.3911 26.7949 93.9197 27.709 94.2045 28.6493C94.3479 29.1175 94.4257 29.5918 94.4298 30.0559C94.4339 30.52 94.3684 30.9719 94.229 31.4036C93.9504 32.2629 93.3768 33.0128 92.6126 33.6066C91.8443 34.2004 90.9081 34.6423 89.9124 34.9503C88.9126 35.2482 87.8555 35.4327 86.7799 35.4955C85.7064 35.5603 84.6144 35.5218 83.5306 35.3942C82.4489 35.2563 81.3672 35.0537 80.3141 34.7476C80.0519 34.6686 79.7876 34.5956 79.5274 34.5085C79.2652 34.4274 79.0091 34.3322 78.7509 34.239C78.2408 34.0464 77.7348 33.8377 77.2431 33.6046C76.9932 33.4951 76.7534 33.3654 76.5076 33.2459C76.2699 33.1141 76.0282 32.9905 75.7967 32.8486C75.3275 32.5771 74.8727 32.2812 74.4384 31.965C74.002 31.6488 73.5861 31.3084 73.1948 30.9476C72.8056 30.5869 72.4368 30.2038 72.111 29.7965C71.7812 29.3891 71.4882 28.9615 71.2465 28.5115C71.0027 28.0657 70.8101 27.5975 70.6872 27.1172C70.5602 26.6369 70.5028 26.1464 70.5294 25.658L70.5397 25.4735L70.5622 25.2911C70.5704 25.2283 70.5765 25.1675 70.5868 25.1067L70.6237 24.9243C70.679 24.6852 70.7486 24.446 70.8388 24.2109C70.933 23.9799 71.0457 23.7509 71.1748 23.5299C71.3079 23.309 71.4596 23.0983 71.6235 22.8956C71.7853 22.6889 71.9697 22.4943 72.1623 22.3079C72.3569 22.1214 72.5638 21.9471 72.7789 21.7748L72.7871 21.7687C72.99 21.6086 73.0207 21.3148 72.8588 21.1162C72.7134 20.9378 72.4634 20.8932 72.2667 21.0006Z" fill="#1B1F2C"/>
<path d="M78.3937 40.6223C78.8212 40.9672 79.2822 41.2674 79.7668 41.5344C80.2495 41.8033 80.7558 42.0333 81.2759 42.2321C82.3181 42.6297 83.4174 42.8811 84.5286 43.0077C85.6417 43.1383 86.7666 43.1325 87.8817 43.0233C88.9928 42.9025 90.0941 42.6764 91.1619 42.3354C92.2277 41.9963 93.262 41.5519 94.2372 40.9926C94.4815 40.8523 94.7219 40.7061 94.9583 40.5521C95.1927 40.3962 95.4232 40.2345 95.6498 40.0668C96.1029 39.7316 96.5304 39.3574 96.9363 38.9618C97.7401 38.1628 98.4395 37.237 98.9123 36.1924C99.3891 35.1556 99.6255 33.996 99.5033 32.8871C99.4797 32.6805 99.2906 32.5304 99.0817 32.5538C98.9162 32.5714 98.7882 32.6902 98.7508 32.8403L98.7488 32.8481C98.2878 34.7736 97.0486 36.2665 95.5414 37.4124C94.0304 38.5662 92.2553 39.3925 90.4074 39.9538C88.5515 40.5112 86.6149 40.8016 84.6704 40.7977C83.6952 40.7977 82.722 40.7178 81.7527 40.5541C81.2661 40.4742 80.7834 40.3689 80.3007 40.2462C79.818 40.1214 79.3373 39.9752 78.8507 39.8154L78.8448 39.8115C78.5946 39.7297 78.3247 39.8642 78.2439 40.1097C78.1789 40.3007 78.2459 40.5034 78.3937 40.6223Z" fill="#1B1F2C"/>
<path d="M27.2251 34.0813C27.8378 34.4764 28.4051 34.9254 28.9157 35.4147C29.4194 35.913 29.8801 36.4451 30.2658 37.0197C31.0442 38.1668 31.557 39.453 31.7998 40.7887C32.0426 42.1265 32.0313 43.5048 31.7862 44.8472C31.5457 46.1918 31.0759 47.4982 30.4179 48.7104C29.7621 49.9248 28.9202 51.0495 27.9331 52.0416C27.4294 52.5265 26.912 53.0001 26.347 53.4154L25.9226 53.7319L25.4824 54.0193C25.1942 54.2235 24.8834 54.3874 24.5747 54.5625C24.4227 54.6545 24.2639 54.7309 24.105 54.8072L23.6308 55.0429L23.1384 55.2471L22.8933 55.3526C22.8116 55.3886 22.7254 55.4133 22.6437 55.4424L22.1377 55.6175C22.056 55.6512 21.9697 55.6736 21.8835 55.6961L21.6248 55.7702L21.3684 55.8443C21.2822 55.869 21.1959 55.8936 21.1074 55.9093C20.9327 55.9453 20.758 55.9834 20.5833 56.0216C20.4063 56.0665 20.2293 56.0867 20.0523 56.1136C19.8753 56.1383 19.696 56.1697 19.5168 56.1922L18.9767 56.2371C18.8882 56.2438 18.7951 56.2551 18.7044 56.2595L18.4344 56.264L17.8875 56.2752L17.3406 56.2483L17.0638 56.2393L16.7915 56.2057C16.6099 56.1855 16.4239 56.1653 16.2378 56.1473L16.206 56.1428C15.9995 56.1226 15.8134 56.273 15.793 56.4795C15.7749 56.6524 15.8815 56.8095 16.0404 56.8679C16.2264 56.933 16.4148 56.998 16.6031 57.0609L16.889 57.1552L17.1772 57.2315L17.7627 57.3729C17.9601 57.4088 18.1575 57.4358 18.3572 57.4695L18.6567 57.5143C18.7566 57.5278 18.8564 57.5323 18.9563 57.5413L19.5621 57.5862C19.7641 57.5952 19.966 57.5907 20.168 57.5907C20.37 57.5884 20.5742 57.5929 20.7762 57.5727C20.9781 57.5593 21.1801 57.5435 21.382 57.5256C21.4841 57.5188 21.5862 57.5054 21.6861 57.4897L21.9879 57.4448L22.2897 57.3999C22.3918 57.3842 22.4916 57.3684 22.5892 57.3438L23.186 57.2091C23.2859 57.1844 23.3857 57.1664 23.4833 57.1372L23.776 57.0497L24.3637 56.8701L24.9356 56.6546C25.1262 56.5805 25.319 56.5132 25.5029 56.4234C26.996 55.7567 28.3892 54.8521 29.5987 53.7454C30.8105 52.6432 31.8384 51.339 32.6371 49.9001C33.0388 49.1818 33.3724 48.4253 33.6447 47.6441C33.9147 46.8652 34.1076 46.0571 34.2346 45.24C34.4752 43.6058 34.4162 41.911 33.9828 40.3016C33.5584 38.6943 32.762 37.1724 31.6523 35.9445C31.5207 35.7874 31.3687 35.6437 31.2234 35.4978C31.0828 35.3496 30.9239 35.2149 30.7719 35.078C30.6199 34.9411 30.4565 34.8154 30.2931 34.6919C30.1342 34.5639 29.9709 34.4427 29.7984 34.3305C29.4603 34.1015 29.1086 33.8973 28.7455 33.7154C28.3824 33.5381 28.0126 33.3765 27.6313 33.2485C27.384 33.1655 27.1162 33.2957 27.0323 33.5403C26.9619 33.7469 27.0459 33.9669 27.2229 34.0813H27.2251Z" fill="#1B1F2C"/>
<path d="M19.7554 53.5714C22.8168 53.5714 25.9884 51.5411 27.6876 48.1654C29.9488 43.6691 28.7471 38.49 24.9977 36.5958C24.0643 36.1239 23.0622 35.9016 22.0463 35.9016C18.9848 35.9016 15.8133 37.9319 14.114 41.3075C11.8506 45.8038 13.0545 50.9807 16.804 52.875C17.7373 53.3468 18.7395 53.5714 19.7554 53.5714Z" fill="#D5624D"/>
<path d="M18.5876 52.1596C21.1964 52.8905 24.3377 51.8412 26.5135 49.2471C29.4101 45.792 29.4985 40.902 26.7107 38.3236C26.3164 37.9604 25.8857 37.6622 25.4279 37.429C23.2951 37.6891 21.1306 38.855 19.467 40.8325C16.5251 44.3436 16.2123 49.1978 18.5876 52.1596Z" fill="#F77A6A"/>
<path d="M15.2419 40.1476C15.8601 39.6107 16.5265 39.1509 17.2295 38.7794C17.9325 38.4124 18.6722 38.1338 19.4255 37.9639C20.9323 37.6218 22.4986 37.7192 23.8061 38.3037L24.0489 38.4192L24.1702 38.4736L24.2893 38.5393C24.4427 38.6253 24.5916 38.7182 24.7358 38.8156C24.8801 38.9153 25.0198 39.0218 25.1526 39.1328C25.2877 39.2437 25.4114 39.3706 25.5373 39.4907C26.0205 39.989 26.4052 40.5735 26.6662 41.2145C26.9319 41.8533 27.0624 42.5511 27.0944 43.2578C27.1196 43.9668 27.0212 44.6849 26.8288 45.3826C26.4372 46.7803 25.622 48.0806 24.5343 49.109L24.3305 49.3038C24.2595 49.365 24.1863 49.4216 24.1153 49.4828L23.8977 49.6617L23.671 49.8271L23.4443 49.9947L23.2085 50.1465C23.1283 50.1963 23.0527 50.2507 22.9703 50.296L22.723 50.4319C22.0635 50.7876 21.3582 51.0685 20.6232 51.2316C19.8904 51.4037 19.1347 51.4513 18.3882 51.3878C18.2943 51.3788 18.2004 51.3743 18.1088 51.3629L17.8318 51.3154C17.6463 51.2882 17.4631 51.2474 17.2822 51.1976C16.9204 51.1024 16.5677 50.9688 16.2265 50.8057C15.5464 50.4818 14.919 50.0196 14.3946 49.4488C13.8702 48.8802 13.4535 48.1961 13.1535 47.4463L13.1512 47.4395C13.0756 47.2469 12.8535 47.1518 12.6589 47.2288C12.4894 47.2945 12.3955 47.4689 12.4253 47.6388C12.5741 48.5245 12.9062 49.4035 13.426 50.1805C13.9412 50.962 14.6305 51.6393 15.4365 52.1603C15.8395 52.4231 16.2723 52.6406 16.7212 52.8172C16.9479 52.9056 17.1746 52.9894 17.4081 53.0483L17.7608 53.1434C17.8776 53.1706 17.9966 53.191 18.1157 53.2159C19.066 53.3994 20.0461 53.4107 21.001 53.2726C22.9085 52.9871 24.7152 52.1241 26.1533 50.8578C26.2426 50.7785 26.3365 50.7015 26.4235 50.6177L26.6777 50.3662C26.7624 50.2824 26.8494 50.1986 26.9319 50.1102L27.1723 49.843C27.4837 49.4782 27.7791 49.0977 28.0402 48.6922C28.3035 48.289 28.5417 47.8676 28.7455 47.4282C28.9447 46.9864 29.1164 46.5334 29.2538 46.0667C29.3958 45.6001 29.492 45.1199 29.5538 44.6328C29.6133 44.1481 29.6385 43.6542 29.6179 43.1604C29.5744 42.1728 29.3546 41.1828 28.9516 40.2563C28.5417 39.3366 27.944 38.4894 27.2021 37.8008C26.4647 37.1167 25.5739 36.5707 24.6374 36.2468C23.6985 35.9025 22.7047 35.7575 21.7338 35.7756C21.6124 35.7711 21.491 35.7824 21.372 35.7915L21.0102 35.8209C20.8888 35.8255 20.7697 35.8459 20.6529 35.8663L20.298 35.9229C19.8286 36.0135 19.3683 36.1358 18.9218 36.2944C17.1425 36.9286 15.6128 38.0862 14.5435 39.5292C14.39 39.7353 14.4358 40.0275 14.6465 40.1793C14.8274 40.3107 15.0724 40.2948 15.235 40.1544L15.2419 40.1476Z" fill="#1B1F2C"/>
<path d="M5.64572 49.5645C35.0005 139.723 101.049 104.787 118.549 70.4137C118.549 72.1042 115.726 83.374 108.387 95.7708C101.049 108.168 79.0327 121.128 57.0166 120.001C35.0006 118.874 23.1457 108.168 10.1618 91.2629C-0.22523 77.7391 2.82315 57.829 5.64572 49.5645Z" fill="#DD6954"/>
<path d="M42.037 101.87C41.3879 102.202 40.7147 102.468 40.0349 102.665C39.3506 102.851 38.6588 102.984 37.9673 103.03C36.5829 103.129 35.2106 102.929 33.9304 102.471C32.6482 102.012 31.4581 101.313 30.416 100.43C29.3697 99.5501 28.4711 98.4908 27.7485 97.3158C27.0228 96.1417 26.468 94.8517 26.1007 93.5023C25.9319 92.8244 25.7796 92.1403 25.7019 91.4442L25.6394 90.9191L25.6103 90.3949C25.5771 90.0437 25.5904 89.693 25.5928 89.3387C25.589 89.1612 25.6022 88.9857 25.6154 88.8103L25.648 88.2824L25.717 87.7546L25.748 87.49C25.7577 87.4015 25.7794 87.3146 25.7949 87.2294L25.896 86.7044C25.9076 86.6169 25.9313 86.5312 25.9549 86.4454L26.02 86.1847L26.0839 85.926C26.1056 85.8391 26.1273 85.7523 26.1579 85.6679C26.2141 85.4989 26.2684 85.3288 26.3226 85.1587C26.3722 84.9832 26.4431 84.8201 26.5083 84.6536C26.5753 84.4883 26.6377 84.3176 26.7079 84.1514L26.9389 83.6621C26.9774 83.5822 27.0141 83.4962 27.0556 83.4154L27.1868 83.1798L27.4505 82.7014L27.7472 82.2421L27.8935 82.0073L28.0588 81.7888C28.1671 81.6419 28.2777 81.4912 28.3863 81.3393L28.4061 81.3141C28.5269 81.1457 28.4894 80.9096 28.3204 80.7887C28.1796 80.6866 27.9899 80.7002 27.8598 80.8084C27.7103 80.9367 27.5597 81.0669 27.411 81.1983L27.1862 81.3983L26.9759 81.6093L26.5605 82.0447C26.4306 82.1974 26.3086 82.3546 26.1795 82.5104L25.9908 82.7469C25.9292 82.8264 25.8754 82.9105 25.8176 82.9923L25.4758 83.4936C25.367 83.6637 25.2699 83.8405 25.1689 84.0151C25.0699 84.1908 24.9639 84.3651 24.8804 84.5498C24.7911 84.7311 24.7038 84.9136 24.6184 85.0971C24.5732 85.1888 24.5338 85.2838 24.4975 85.3779L24.3856 85.6613L24.2736 85.9446C24.2362 86.0408 24.1999 86.1349 24.1725 86.2316L23.991 86.8149C23.9625 86.9135 23.9282 87.0088 23.9047 87.1078L23.8343 87.4046L23.6962 88.0024L23.5973 88.6045C23.5662 88.8063 23.5282 89.0067 23.5142 89.2105C23.3461 90.8346 23.4343 92.4913 23.7897 94.0902C24.1401 95.6888 24.7577 97.2295 25.6067 98.6394C26.029 99.3458 26.5186 100.012 27.0602 100.638C27.601 101.261 28.2056 101.832 28.851 102.35C30.1485 103.375 31.6484 104.172 33.2615 104.602C34.8681 105.039 36.5868 105.111 38.2069 104.766C38.4091 104.731 38.6097 104.671 38.8089 104.619C39.0078 104.571 39.2041 104.501 39.3989 104.438C39.5937 104.375 39.7845 104.297 39.9733 104.217C40.1637 104.144 40.3506 104.063 40.5342 103.97C40.9019 103.792 41.255 103.591 41.5943 103.368C41.9297 103.142 42.2548 102.904 42.5564 102.638C42.7522 102.466 42.7731 102.169 42.6028 101.974C42.4588 101.81 42.2259 101.773 42.0381 101.868L42.037 101.87Z" fill="#1B1F2C"/>
<path d="M28.8621 85.6688C27.3313 88.3153 27.5071 92.0722 29.5861 95.2289C32.3565 99.4317 37.4508 100.983 40.9689 98.6884C41.845 98.1175 42.539 97.3624 43.0469 96.4842C44.5776 93.8377 44.4019 90.0808 42.3228 86.9241C39.5536 82.7193 34.4602 81.1716 30.942 83.4657C30.0659 84.0366 29.37 84.7906 28.8621 85.6688Z" fill="#E06C57"/>
<path d="M30.6713 85.3651C28.7328 87.2548 28.0725 90.495 29.2352 93.6729C30.7845 97.9044 34.9829 100.426 38.6138 99.3051C39.1261 99.1458 39.6001 98.9227 40.0314 98.6435C40.8721 96.6697 40.9428 94.2157 40.0589 91.7888C38.4837 87.4901 34.4286 84.7927 30.6713 85.3651Z" fill="#F7816D"/>
<path d="M42.7654 88.4794C42.9221 89.2823 42.9879 90.0883 42.9587 90.8818C42.9256 91.673 42.7975 92.4517 42.5682 93.1879C42.1116 94.6614 41.2439 95.9667 40.0831 96.8048L39.8615 96.9569L39.7537 97.0346L39.6371 97.1047C39.4857 97.1943 39.3307 97.2765 39.1741 97.3525C39.0155 97.4274 38.8533 97.4949 38.6906 97.5542C38.5267 97.6155 38.3548 97.659 38.1877 97.7078C37.5137 97.8763 36.8143 97.9167 36.1276 97.8218C35.4406 97.732 34.77 97.496 34.1408 97.1704C33.513 96.8376 32.9392 96.3934 32.4301 95.8783C31.4133 94.841 30.6928 93.4861 30.3444 92.0316L30.2772 91.7581C30.2597 91.6661 30.2472 91.5745 30.2296 91.4825L30.1831 91.205L30.153 90.9263L30.1209 90.6465L30.1072 90.3668C30.104 90.2726 30.0946 90.18 30.0965 90.0861L30.1022 89.8044C30.1234 89.0565 30.2324 88.3063 30.4584 87.5893C30.6754 86.8698 31.012 86.1928 31.4403 85.5792C31.4951 85.5025 31.546 85.4236 31.6016 85.3501L31.7814 85.1344C31.8977 84.9876 32.0247 84.8497 32.1584 84.7182C32.4218 84.453 32.7141 84.215 33.0262 84.0016C33.6473 83.5756 34.3619 83.2643 35.1194 83.0964C35.8749 82.9274 36.6768 82.9092 37.4773 83.0248L37.4844 83.0262C37.6892 83.0571 37.8828 82.9127 37.9133 82.7059C37.941 82.5266 37.8367 82.3582 37.6744 82.299C36.8315 81.9848 35.9029 81.8324 34.9689 81.8932C34.0333 81.9479 33.101 82.205 32.2459 82.6413C31.8165 82.8583 31.4114 83.1237 31.0337 83.4234C30.8437 83.5752 30.6576 83.7293 30.4897 83.9017L30.2309 84.159C30.1489 84.2464 30.0717 84.3391 29.9905 84.4296C29.3562 85.1593 28.8563 86.0009 28.4987 86.8955C27.7926 88.6871 27.638 90.6805 28.0176 92.5568C28.0418 92.6736 28.0617 92.7933 28.0909 92.9104L28.1819 93.2559C28.2123 93.371 28.2415 93.4881 28.2769 93.6036L28.3886 93.9451C28.5493 94.3966 28.7318 94.8423 28.9531 95.2707C29.1712 95.7 29.4177 96.1165 29.6971 96.5124C29.9807 96.9055 30.2879 97.2805 30.624 97.6326C30.9579 97.9886 31.3265 98.3119 31.7181 98.6088C32.1089 98.9027 32.5248 99.1714 32.9635 99.4005C33.8422 99.8567 34.8109 100.162 35.8163 100.276C36.8191 100.382 37.853 100.289 38.8215 99.9919C39.7837 99.6965 40.7027 99.1995 41.452 98.5518C42.2202 97.9124 42.8429 97.1257 43.3126 96.2774C43.3772 96.1747 43.4281 96.0641 43.4798 95.9567L43.6351 95.6292C43.6919 95.522 43.7337 95.4089 43.7744 95.2977L43.9027 94.9626C44.0588 94.5115 44.1829 94.0524 44.2686 93.5871C44.6079 91.7319 44.3684 89.8308 43.6512 88.1849C43.5491 87.9492 43.2726 87.8427 43.0356 87.9489C42.8312 88.0396 42.7224 88.2593 42.763 88.4701L42.7654 88.4794Z" fill="#1B1F2C"/>
<path d="M94.2357 92.6641C94.4864 92.7768 94.7509 92.8722 95.026 92.9488C99.5407 94.2018 105.705 90.0067 108.794 83.579C111.695 77.5451 110.855 71.6885 107.007 69.9577C106.754 69.8442 106.491 69.7495 106.216 69.6729C101.702 68.4199 95.5375 72.615 92.4502 79.0418C89.5477 85.0767 90.3871 90.9333 94.2357 92.6641Z" fill="#E06C57"/>
<path d="M92.9234 79.0956C90.0486 84.592 90.1573 89.4562 93.1643 89.9606C96.1712 90.465 100.94 86.4158 103.815 80.921C106.689 75.4246 106.582 70.5611 103.573 70.0576C100.566 69.5532 95.7974 73.6007 92.9234 79.0956Z" fill="#F78D73"/>
<path d="M110.84 73.9206C110.732 73.3186 110.546 72.7195 110.279 72.1426C110.142 71.8563 109.986 71.5756 109.805 71.307C109.623 71.0401 109.421 70.7819 109.196 70.5391C108.97 70.2995 108.723 70.0784 108.456 69.8757L108.254 69.7295C108.185 69.6829 108.114 69.6389 108.044 69.5956L107.831 69.4625C107.758 69.4218 107.683 69.3843 107.608 69.3444C107.014 69.0362 106.368 68.8282 105.712 68.7163C105.055 68.606 104.394 68.5884 103.746 68.6395C103.097 68.6939 102.464 68.817 101.851 68.9859C101.236 69.1566 100.647 69.3858 100.075 69.6426C99.7882 69.7674 99.51 69.912 99.2342 70.0557L98.8267 70.2839C98.6906 70.3605 98.5613 70.4442 98.4278 70.5239C97.8998 70.8515 97.3881 71.2002 96.9064 71.584C96.6609 71.7709 96.4306 71.9725 96.192 72.1704C95.9643 72.3751 95.7306 72.5752 95.5123 72.79C94.6219 73.6339 93.8254 74.5652 93.1018 75.5511C92.9213 75.7967 92.7516 76.0492 92.5786 76.3002C92.4164 76.558 92.2443 76.8114 92.0897 77.0746C91.7689 77.5957 91.483 78.1366 91.2096 78.685C90.6794 79.7892 90.2265 80.9381 89.917 82.1397C89.6016 83.3367 89.4076 84.5823 89.3988 85.8541C89.3981 87.1256 89.5669 88.436 90.0611 89.6958C90.3076 90.3225 90.6379 90.9356 91.063 91.493C91.4872 92.048 92.0093 92.5447 92.5951 92.94C93.1826 93.3361 93.8353 93.6317 94.5081 93.8122C95.1809 93.9927 95.8661 94.0665 96.5337 94.0557C97.2045 94.0424 97.8546 93.9469 98.4803 93.7951C98.6342 93.7541 98.7915 93.7185 98.9443 93.6711L99.3993 93.5272L99.8421 93.3621C99.9904 93.3068 100.132 93.2404 100.277 93.1796C100.85 92.9276 101.398 92.6403 101.922 92.3169C102.441 91.9912 102.941 91.6413 103.418 91.2649C103.889 90.8822 104.341 90.485 104.768 90.0629C105.193 89.6377 105.604 89.2042 105.98 88.7413C106.745 87.8272 107.41 86.8427 107.983 85.815C108.084 85.6358 108.016 85.4066 107.834 85.307C107.671 85.2156 107.469 85.2568 107.356 85.397L107.351 85.4044C106.993 85.8481 106.644 86.2915 106.259 86.7071C106.074 86.9191 105.877 87.1219 105.686 87.3277C105.587 87.4287 105.485 87.5266 105.388 87.6267C105.288 87.7254 105.189 87.8248 105.085 87.9195L104.778 88.2068L104.464 88.4831L104.308 88.6232L104.146 88.7571C104.038 88.8448 103.932 88.9348 103.825 89.0224C103.387 89.3668 102.94 89.6955 102.481 89.9988C102.015 90.2975 101.544 90.5756 101.059 90.8243C100.573 91.0683 100.077 91.2845 99.5744 91.4639C98.5686 91.8227 97.5264 92.0195 96.5355 91.9794C96.0417 91.9621 95.563 91.8807 95.1162 91.7329C94.6728 91.5867 94.2605 91.3756 93.8934 91.1042C93.1594 90.5654 92.6246 89.7836 92.2991 88.8733C91.9767 87.9605 91.853 86.9381 91.8749 85.9065C91.9079 84.872 92.0676 83.8215 92.3523 82.7939C92.6321 81.764 93.0157 80.7553 93.4828 79.7821C93.9582 78.8126 94.4987 77.8665 95.1261 76.9792C95.285 76.7593 95.4397 76.5355 95.6062 76.321C95.7669 76.1019 95.9402 75.8943 96.11 75.6813C96.4565 75.2662 96.8172 74.8594 97.1983 74.4736C97.3834 74.2753 97.5829 74.0934 97.7757 73.9044C97.9769 73.7232 98.1746 73.5365 98.3828 73.3663C98.7922 73.0149 99.2188 72.687 99.661 72.3819C100.102 72.0743 100.561 71.7984 101.03 71.5502C101.499 71.3028 101.983 71.0814 102.478 70.908C102.969 70.7314 103.473 70.5978 103.98 70.5165C104.485 70.4344 104.995 70.406 105.492 70.4465C105.992 70.4861 106.479 70.5929 106.939 70.7764L107.112 70.8441L107.28 70.9257C107.335 70.9542 107.393 70.9786 107.448 71.0088L107.611 71.1018C107.823 71.2309 108.028 71.3762 108.224 71.5372C108.415 71.7 108.598 71.8808 108.768 72.0733C108.937 72.2691 109.09 72.48 109.234 72.7C109.379 72.9209 109.506 73.1552 109.624 73.3971C109.739 73.6399 109.84 73.8921 109.936 74.1501L109.94 74.1597C110.029 74.4003 110.298 74.5255 110.541 74.4378C110.759 74.3606 110.881 74.1396 110.84 73.9206Z" fill="#1B1F2C"/>
<path d="M90.1192 73.2619C89.6545 73.5497 89.2203 73.8847 88.8102 74.2503C88.3994 74.6174 88.0167 75.015 87.6602 75.4382C86.9498 76.2838 86.3584 77.2321 85.8829 78.2326C85.4041 79.2316 85.0505 80.2888 84.8009 81.3672C84.5619 82.4484 84.4272 83.5549 84.4144 84.6649C84.3976 85.775 84.4939 86.8907 84.7191 87.9855C84.775 88.259 84.839 88.5322 84.9101 88.8027C84.9854 89.0731 85.0647 89.3434 85.1559 89.6091C85.3313 90.1434 85.5524 90.6646 85.8005 91.1744C86.3103 92.1863 86.9719 93.1442 87.8216 93.9285C88.6614 94.7123 89.6961 95.3116 90.7941 95.559C91.0007 95.6046 91.2037 95.4771 91.2499 95.2731C91.2843 95.1131 91.2114 94.9522 91.0795 94.8693L91.0712 94.8655C89.3773 93.8061 88.3435 92.1584 87.7266 90.3729C87.1062 88.5819 86.8805 86.6492 86.9317 84.7344C86.9885 82.8162 87.3305 80.9061 87.9516 79.0841C88.263 78.1734 88.6501 77.285 89.1157 76.4299C89.3469 76.0016 89.5996 75.583 89.8729 75.1717C90.1446 74.7597 90.4385 74.3557 90.7472 73.9543L90.7518 73.9486C90.9091 73.7413 90.8669 73.4464 90.6594 73.288C90.4973 73.1658 90.2803 73.1609 90.1192 73.2619Z" fill="#1B1F2C"/>
<path d="M118.539 57.7734C118.402 55.6485 118.143 53.5192 117.762 51.3921C115.096 36.4958 106.726 23.5199 94.1919 14.8521C84.4657 8.12624 73.1377 4.62122 61.5115 4.62122C58.1599 4.62122 54.7778 4.91188 51.4066 5.50179C42.6575 7.03685 34.5614 10.4751 27.5949 15.5195C37.0664 9.88305 47.9004 6.95287 58.8367 6.95287C62.0208 6.95287 65.2179 7.20261 68.3888 7.70641L68.3845 7.71502C67.1766 10.9983 70.3759 15.1643 75.5295 17.0201C77.1945 17.6186 78.8615 17.905 80.3959 17.905C83.6039 17.905 86.2264 16.6562 87.0447 14.4344C87.1013 14.2815 87.1492 14.1244 87.1862 13.9672C89.3125 15.0867 91.391 16.3441 93.4128 17.7435C107.531 27.5093 116.141 42.1602 118.539 57.7734Z" fill="#FDA594"/>
<path d="M61.5104 4.62147C73.1371 4.62147 84.4655 8.12701 94.1924 14.8547C106.723 23.5221 115.095 36.4988 117.76 51.3945C120.428 66.2901 117.072 81.3205 108.311 93.7188C99.549 106.117 86.4311 114.397 71.3735 117.036C68.0012 117.626 64.622 117.918 61.2685 117.918C49.6442 117.918 38.3157 114.413 28.5889 107.685C16.0557 99.0177 7.68387 86.041 5.01849 71.1453C2.35076 56.2497 5.7089 41.2193 14.4706 28.821C23.2323 16.4227 36.3478 8.14326 51.4054 5.50424C54.7777 4.91418 58.1593 4.62147 61.5104 4.62147ZM61.3272 122C64.9155 122 68.5108 121.686 72.092 121.058C79.9426 119.683 87.3305 116.87 94.0515 112.696C101.012 108.375 106.949 102.776 111.695 96.0604C116.441 89.3421 119.719 81.9059 121.431 73.954C123.084 66.2762 123.218 58.445 121.828 50.6813C120.438 42.9175 117.594 35.6091 113.374 28.9604C109.006 22.0748 103.349 16.202 96.5572 11.5071C89.7681 6.80981 82.2487 3.56911 74.2126 1.87558C66.449 0.240128 58.535 0.107712 50.6868 1.48065C42.8387 2.85592 35.4484 5.66917 28.7274 9.84377C21.7669 14.1647 15.8303 19.7633 11.0843 26.4794C6.33826 33.1977 3.06231 40.6339 1.35036 48.5859C-0.305222 56.2637 -0.439079 64.0948 0.951141 71.8585C2.34136 79.6223 5.18522 86.9307 9.4052 93.5794C13.7731 100.465 19.4303 106.338 26.2217 111.035C33.0108 115.73 40.5302 118.97 48.5686 120.665C52.7863 121.555 57.0532 121.999 61.3272 122Z" fill="#1B1F2C"/>
<path d="M78.9531 64.7257C78.0745 61.4073 75.6072 58.9253 72.5837 57.8745C72.3266 57.7851 72.1952 57.5035 72.2912 57.2492C72.9992 55.373 73.1498 53.2681 72.5915 51.1881C71.3807 46.6775 67.2305 43.7209 62.7483 43.8209C62.5281 43.8258 62.3345 43.6758 62.2775 43.4635L61.2423 39.6072C60.8794 38.2553 59.5265 37.3705 58.1567 37.6687C56.6941 37.9871 55.8101 39.4549 56.1931 40.8817L57.1699 44.5205C57.2391 44.7782 57.0859 45.043 56.8279 45.112L53.487 46.0056C53.2289 46.0746 52.9636 45.9218 52.8944 45.664L51.9366 42.0961C51.5737 40.7442 50.2208 39.8594 48.851 40.1577C47.3884 40.476 46.5045 41.9438 46.8875 43.3706L47.8643 47.0094C47.9335 47.2672 47.7803 47.5319 47.5223 47.6009L44.3455 48.4506C42.9912 48.8128 42.1048 50.1634 42.4035 51.5306C42.7225 52.9905 44.1929 53.8729 45.6223 53.4906L46.5637 53.2388C46.8218 53.1698 47.0872 53.3226 47.1563 53.5803L53.1734 75.9956C53.2425 76.2532 53.0893 76.5181 52.8313 76.5871L51.961 76.8199C50.6067 77.1821 49.7202 78.5326 50.019 79.8999C50.338 81.3598 51.8084 82.2422 53.2378 81.8599L56.4856 80.9912C56.7436 80.9222 57.0089 81.075 57.078 81.3328L58.0358 84.9007C58.3987 86.2526 59.7516 87.1374 61.1214 86.8391C62.584 86.5208 63.4679 85.053 63.0849 83.6262L62.1081 79.9872C62.0389 79.7295 62.1922 79.4647 62.4503 79.3957L65.7912 78.5021C66.0493 78.4331 66.3145 78.5859 66.3837 78.8437L67.3414 82.4116C67.7043 83.7635 69.0572 84.6483 70.427 84.3501C71.8896 84.0317 72.7736 82.5639 72.3906 81.1371L71.4137 77.4982C71.3445 77.2404 71.4978 76.9756 71.7557 76.9067C77.0795 75.4831 80.3613 70.0449 78.9531 64.7257ZM52.246 52.4579C52.1438 52.0772 52.3701 51.686 52.7515 51.5839L61.6437 49.2056C64.1413 48.5376 66.7789 49.9232 67.522 52.3955C68.294 54.9643 66.7783 57.6537 64.2011 58.343L55.2113 60.7474C54.8299 60.8495 54.4379 60.6236 54.3357 60.2428L52.246 52.4579ZM73.9492 66.1767C74.544 68.6885 72.9538 71.2049 70.4562 71.8729L59.0189 74.932C58.6375 75.034 58.2456 74.8081 58.1434 74.4274L56.0536 66.6423C55.9514 66.2617 56.1777 65.8703 56.5591 65.7683L68.094 62.6831C70.6713 61.994 73.331 63.5666 73.9492 66.1767Z" fill="#CF654E" stroke="#1B1F2C" stroke-width="2"/>
<defs>
<linearGradient id="paint0_linear_596_7218" x1="2.37448" y1="61.377" x2="121.013" y2="61.377" gradientUnits="userSpaceOnUse">
<stop stop-color="#F67668"/>
<stop offset="1" stop-color="#F79576"/>
</linearGradient>
</defs>
</svg>
