<svg width="131" height="171" viewBox="0 0 131 171" fill="none" xmlns="http://www.w3.org/2000/svg">
<path d="M80.3977 41.6673L80.2619 41.0831C80.6447 40.9946 81.0211 40.9035 81.3954 40.8101L81.2415 40.9424L80.4204 41.648C80.4127 41.6538 80.4056 41.6607 80.3977 41.6673Z" fill="#B2B2D4"/>
<path d="M80.3974 41.6664L80.262 41.082L80.3974 41.6664Z" fill="#7C7CB6"/>
<path d="M44.7821 96.8725L39.6271 104.361C39.6271 104.361 40.8656 113.049 53.7629 121.912C66.6594 130.774 75.2245 128.822 75.2245 128.822L80.3802 121.334L44.7821 96.8725Z" fill="white"/>
<path d="M66.8282 127.131C65.9943 126.908 65.1055 126.631 64.165 126.29C65.3036 124.604 66.3592 122.986 67.3368 121.433L67.9574 121.667L68.9899 122.017C69.7666 122.281 70.5518 122.52 71.3457 122.733C71.9582 122.897 72.5759 123.045 73.1983 123.179C74.6216 123.48 76.0765 123.685 77.5557 123.715L74.6577 127.925C73.7159 128.044 70.9463 128.235 66.8282 127.131ZM45.951 113.774C42.06 109.285 40.9402 105.674 40.6711 104.571L43.4789 100.494C43.9597 101.646 44.5536 102.734 45.2053 103.772C45.9874 105.016 46.8519 106.193 47.7647 107.326C48.2661 107.942 48.7827 108.546 49.3139 109.136C48.56 110.14 47.7917 111.189 47.0074 112.285C46.6581 112.772 46.3062 113.268 45.951 113.774Z" fill="#C5C5C5"/>
<path d="M40.6717 104.571C41.0772 106.236 43.423 113.62 54.3189 121.107C65.2097 128.591 72.9484 128.142 74.6577 127.925L79.0228 121.585L45.0367 98.2318L40.6717 104.571ZM66.361 129.053C62.8041 128.1 58.34 126.241 53.211 122.717C40.1112 113.715 38.7138 104.87 38.661 104.498C38.6259 104.255 38.6842 104.009 38.8228 103.807L43.9785 96.3187C44.2846 95.8747 44.8932 95.762 45.3388 96.0683L80.9375 120.53C81.3823 120.836 81.4952 121.444 81.189 121.888L76.0334 129.376C75.8948 129.578 75.6843 129.72 75.4455 129.775C75.2224 129.826 71.8878 130.534 66.361 129.053Z" fill="#1B1F2C"/>
<path d="M100.929 100.623C100.929 100.623 85.8937 122.656 78.8118 123.086C76.0245 123.259 72.8225 122.59 69.7637 121.611C69.0296 121.376 68.3031 121.124 67.584 120.849C63.9629 119.48 60.5451 117.656 57.4079 115.429C54.0134 113.027 50.9513 110.15 48.324 106.876C46.314 104.375 44.5435 101.625 43.7086 98.9639C41.9231 93.297 52.332 76.9807 55.7394 71.8547C56.3977 70.8667 56.7955 70.2951 56.7955 70.2951C69.0058 52.5588 80.9033 41.4701 91.111 34.534C105.686 24.6379 116.822 23.214 120.529 23.0298C121.337 22.9897 122.068 23.4926 122.319 24.2602C123.473 27.7838 126.124 38.6805 122.084 55.8175C119.252 67.8235 113.143 82.8876 100.929 100.623Z" fill="#E1E1E1"/>
<path d="M122.083 55.8176C122.083 55.8176 114.375 57.4625 103.352 49.8894C92.3302 42.3153 91.1118 34.5357 91.1118 34.5357C105.471 24.783 116.492 23.2563 120.359 23.0372C121.266 22.9857 122.094 23.5555 122.371 24.4193C123.549 28.1056 126.063 38.9332 122.083 55.8176Z" fill="#29BAAC"/>
<path d="M92.6078 36.1058C92.43 35.6457 92.3068 35.266 92.225 34.982C92.958 34.4944 93.6977 34.017 94.4415 33.548C96.839 32.0466 99.3059 30.6536 101.852 29.4301C104.395 28.2016 107.006 27.1177 109.682 26.2433C111.017 25.795 112.373 25.4179 113.734 25.0745C115.099 24.749 116.474 24.4731 117.856 24.2764C118.546 24.172 119.237 24.1036 119.928 24.0443L120.444 24.0123L120.571 24.0037L120.636 24.0033C120.678 24.005 120.718 24.0064 120.758 24.015C120.782 24.0193 120.805 24.0246 120.829 24.0309C120.961 24.0664 121.085 24.137 121.186 24.2301C121.246 24.2856 121.295 24.3511 121.334 24.4222C121.354 24.4588 121.373 24.4941 121.386 24.5332L121.399 24.566L121.419 24.6275L121.459 24.7501C121.486 24.8347 121.514 24.9203 121.54 25.0047C121.451 24.9975 121.361 24.9962 121.27 25.0013C117.455 25.2174 106.681 26.7069 92.6078 36.1058Z" fill="#1B9286"/>
<path d="M71.8958 121.58C71.0549 121.355 70.2193 121.098 69.394 120.811L68.3924 120.465L68.0284 120.325C71.3762 114.909 73.7577 110.31 75.427 106.418C75.4279 106.418 75.4279 106.418 75.4279 106.418C75.5181 106.208 75.6068 106 75.6929 105.794C76.5387 106.192 77.3712 106.557 78.1888 106.892C78.0091 107.611 77.8024 108.337 77.5683 109.07C77.2703 109.999 77.8708 110.786 78.6371 110.991C79.1154 111.119 79.6583 111.021 80.088 110.588C80.9703 109.921 81.8418 109.227 82.704 108.508C83.3262 108.699 83.934 108.873 84.526 109.032C86.9416 109.679 89.0864 110.065 90.8465 110.295C90.4214 110.8 89.9841 111.328 89.5365 111.88C89.5375 111.88 89.5366 111.88 89.5375 111.88C87.6352 114.225 85.5474 116.993 83.3388 120.224C82.707 120.709 82.0557 121.16 81.379 121.549C80.7868 121.883 80.1747 122.183 79.5568 122.345C79.4026 122.391 79.2494 122.418 79.097 122.446C78.9411 122.465 78.81 122.485 78.6282 122.488C78.2861 122.504 77.9416 122.507 77.5971 122.499C76.2166 122.464 74.8288 122.262 73.4582 121.962C72.9355 121.847 72.4151 121.719 71.8958 121.58ZM78.6181 104.957C77.8966 104.656 77.1633 104.331 76.4202 103.979C77.9189 100.071 78.6382 96.9804 78.9139 94.5679C78.972 94.0638 79.0094 93.5886 79.0311 93.1424C79.3953 96.2954 79.4922 100.428 78.6181 104.957Z" fill="#C5C5C5"/>
<path d="M115.449 56.0145C105.979 85.6673 90.8125 102.459 84.413 107.149C84.4073 108.525 89.5438 109.339 92.1128 109.575C93.243 108.518 96.5466 105.289 100.72 100.824C104.893 96.36 113.693 78.714 117.572 70.449C119.277 65.8913 122.519 56.6583 121.847 56.1881C121.174 55.7178 117.301 55.8764 115.449 56.0145Z" fill="#C5C5C5"/>
<path d="M50.1881 107.98C49.7423 107.473 49.3082 106.955 48.885 106.427C48.0081 105.326 47.183 104.186 46.4485 103C45.7145 101.815 45.0726 100.579 44.6099 99.2991C44.5501 99.1397 44.5015 98.9781 44.4465 98.8176C44.4158 98.7326 44.4041 98.6692 44.3841 98.5978C44.3656 98.5287 44.3466 98.459 44.3359 98.3838C44.2755 98.0944 44.2618 97.7769 44.2573 97.4589C44.2628 96.8169 44.3522 96.1484 44.4898 95.4831C44.6487 94.7241 44.8617 93.9684 45.1099 93.2168C47.1861 90.1966 48.9144 87.4287 50.3474 84.9498C50.348 84.9506 50.348 84.9506 50.348 84.9506C50.7033 84.3361 51.0403 83.7393 51.3608 83.1621C51.8408 84.0486 52.4121 85.0333 53.0862 86.09C52.6197 87.5019 52.1035 88.9388 51.5364 90.3606C50.9299 91.8817 51.8964 93.3433 53.234 93.7017C53.8148 93.8574 54.4641 93.8056 55.0862 93.4612C55.8804 93.0207 56.7209 92.5731 57.601 92.1293C58.5413 93.2137 59.5775 94.3199 60.7129 95.4242C60.5771 95.5542 60.44 95.686 60.3031 95.8202C60.3031 95.8202 60.365 95.9436 60.4945 96.1635C57.468 99.1013 54.0348 102.949 50.1881 107.98ZM62.1463 94.0946C61.1608 93.1396 60.2537 92.1846 59.421 91.2442C63.5434 89.3165 68.3244 87.6059 73.034 87.0924C70.4931 87.9198 66.8749 89.8396 62.1463 94.0946ZM53.8626 83.6202C53.3127 82.6849 52.8557 81.8309 52.4813 81.0818C52.5356 80.9775 52.5891 80.8736 52.6421 80.7712C54.4035 77.3762 55.48 74.7934 56.0845 73.1844C56.1857 72.9165 56.273 72.675 56.3491 72.4613C56.4336 72.3342 56.518 72.2078 56.604 72.0811C56.29 73.8687 55.4199 78.4102 53.8626 83.6202Z" fill="#C5C5C5"/>
<path d="M47.7638 107.326C46.8513 106.194 45.9863 105.016 45.2045 103.773C44.4244 102.53 43.7278 101.218 43.2078 99.8077C43.1409 99.6327 43.0848 99.4519 43.0228 99.274C42.9666 99.0955 42.8993 98.8687 42.8651 98.6703C42.7786 98.2582 42.7591 97.8572 42.7521 97.4613C42.7531 96.6724 42.8552 95.9163 43.0007 95.1804C43.3 93.7119 43.7649 92.3176 44.2858 90.9568C45.336 88.2379 46.6227 85.6483 47.9819 83.1074C49.3467 80.5691 50.8041 78.0884 52.3162 75.6435C53.0733 74.4215 53.8446 73.2087 54.6318 72.0052C55.0256 71.4036 55.4227 70.8046 55.8264 70.2068C56.2329 69.6055 56.6501 69.0282 57.0613 68.4366C58.695 66.0736 60.4018 63.7598 62.147 61.4742C65.6498 56.9128 69.387 52.5209 73.399 48.3833L74.9088 46.8369C75.4147 46.3235 75.9413 45.8315 76.4575 45.3272C76.9792 44.8297 77.4851 44.3164 78.0203 43.832L79.6177 42.3735C79.8855 42.1324 80.1478 41.8845 80.4207 41.648L81.2415 40.9431L82.8842 39.5327L84.5684 38.1693C84.8501 37.9436 85.1269 37.7123 85.4127 37.4909L86.2743 36.835C88.5578 35.0636 90.9427 33.4197 93.3961 31.883C95.8494 30.3473 98.3781 28.9207 100.994 27.6641C103.608 26.4031 106.297 25.2868 109.066 24.3831C110.447 23.9214 111.853 23.5297 113.268 23.1734C114.689 22.8355 116.124 22.5478 117.579 22.3415C118.304 22.2326 119.039 22.1587 119.776 22.0964L120.333 22.0606L120.472 22.0523L120.676 22.0499C120.813 22.054 120.952 22.0658 121.088 22.0897C121.634 22.1842 122.151 22.4452 122.547 22.8334C122.745 23.026 122.912 23.2505 123.044 23.494C123.107 23.6157 123.166 23.7413 123.212 23.8708L123.245 23.9655L123.265 24.032L123.306 24.1647C123.419 24.5193 123.517 24.8744 123.616 25.2305C123.714 25.5866 123.798 25.9431 123.888 26.3001L124.125 27.374C124.699 30.2483 124.95 33.1573 124.994 36.0566C125.032 38.9573 124.866 41.8488 124.534 44.714C124.193 47.5787 123.746 50.4255 123.144 53.2394C121.961 58.8696 120.3 64.3916 118.198 69.7375C116.114 75.0912 113.654 80.2914 110.914 85.3342C108.183 90.3819 105.167 95.2733 101.947 100.019C100.356 102.413 98.6562 104.725 96.9267 107.016C95.1904 109.301 93.4026 111.549 91.5223 113.727C89.6382 115.901 87.6801 118.022 85.504 119.949C84.4111 120.907 83.2678 121.824 81.975 122.58C81.3243 122.951 80.6443 123.296 79.8757 123.506C79.6868 123.563 79.488 123.603 79.2877 123.639C79.0897 123.667 78.8655 123.694 78.6887 123.698C78.315 123.718 77.9431 123.723 77.5714 123.716C76.0865 123.688 74.6261 123.482 73.1968 123.179C71.7674 122.873 70.3629 122.486 68.9886 122.017L67.9561 121.668L66.9374 121.282L66.4282 121.089L65.9259 120.878L64.9214 120.455C63.5992 119.852 62.2861 119.226 61.0247 118.503C55.9449 115.672 51.4312 111.842 47.7638 107.326ZM48.885 106.428C52.4096 110.825 56.7623 114.569 61.678 117.348C62.8974 118.059 64.1698 118.674 65.4501 119.269L66.4232 119.686L66.9094 119.894L67.4035 120.084L68.3914 120.466L69.3932 120.812C70.7272 121.276 72.0872 121.66 73.4572 121.963C74.827 122.262 76.2155 122.464 77.5958 122.499C77.9407 122.508 78.2845 122.505 78.6265 122.488C78.8084 122.485 78.9395 122.466 79.0959 122.447C79.2484 122.419 79.4018 122.392 79.5559 122.346C80.173 122.184 80.7859 121.883 81.3781 121.549C82.5643 120.867 83.6733 119.995 84.736 119.075C86.8589 117.219 88.8074 115.138 90.6841 113C92.5571 110.857 94.349 108.637 96.0865 106.376C97.8161 104.108 99.5187 101.814 101.105 99.449C104.332 94.7403 107.353 89.8922 110.091 84.8864C112.818 79.8761 115.253 74.7072 117.318 69.397C119.39 64.0896 121.062 58.6224 122.188 53.0444C123.307 47.4659 123.72 41.7521 123.408 36.1146C123.312 34.7065 123.195 33.3 122.992 31.9087C122.806 30.5157 122.578 29.1294 122.264 27.7683L122.026 26.7493C121.938 26.4137 121.854 26.0752 121.757 25.7429C121.661 25.4097 121.565 25.0774 121.457 24.7504L121.418 24.6279L121.398 24.5666L121.386 24.5337C121.372 24.4951 121.353 24.4593 121.334 24.4226C121.294 24.3516 121.245 24.2866 121.186 24.2306C121.066 24.1203 120.916 24.0419 120.757 24.0152C120.716 24.0076 120.677 24.0054 120.636 24.003L120.571 24.0036L120.442 24.0123L119.926 24.0453C119.236 24.1045 118.544 24.1729 117.854 24.2764C116.473 24.4729 115.097 24.7489 113.733 25.0744C112.371 25.4188 111.016 25.7955 109.681 26.2432C107.005 27.1177 104.393 28.202 101.851 29.4305C99.3045 30.6538 96.8388 32.0467 94.4402 33.5484C92.0472 35.0569 89.7046 36.6539 87.4545 38.3793L86.6056 39.0196C86.3246 39.2349 86.0513 39.4608 85.7731 39.6811L84.1139 41.011L82.4922 42.3901L81.6819 43.0798C81.4127 43.31 81.1538 43.5534 80.8893 43.7901L79.3097 45.2175C78.7814 45.6921 78.2804 46.1951 77.7635 46.6823C77.2533 47.1765 76.7322 47.6594 76.2312 48.1625L74.7355 49.6799C70.7612 53.7441 67.0395 58.0588 63.5429 62.5521C61.8011 64.8037 60.0964 67.0843 58.4604 69.4192C58.051 69.9996 57.6268 70.5793 57.2287 71.1606C56.8277 71.7459 56.4305 72.3364 56.0372 72.9296C55.2508 74.1154 54.4786 75.3121 53.7213 76.5179C52.2082 78.9298 50.7508 81.3761 49.3896 83.8688C48.0345 86.3622 46.7558 88.9011 45.7273 91.5152C45.2173 92.8204 44.7693 94.1492 44.4892 95.484C44.3524 96.1493 44.2623 96.8175 44.2572 97.4602C44.2611 97.7779 44.2749 98.0954 44.3358 98.3847C44.3461 98.4597 44.3653 98.5297 44.3841 98.5989C44.4035 98.6701 44.4152 98.7335 44.4464 98.8187C44.5011 98.979 44.5497 99.1406 44.6098 99.3001C45.0721 100.58 45.7145 101.816 46.4482 103.001C47.1828 104.187 48.0077 105.327 48.885 106.428Z" fill="#1B1F2C"/>
<path d="M114.088 56.1044C110.984 55.2726 107.139 53.6768 102.799 50.6946C91.559 42.9714 90.1973 35.021 90.1442 34.6863L92.0781 34.3847C92.0885 34.4548 93.4218 41.8803 103.906 49.0846C114.391 56.2892 121.809 54.8773 121.882 54.8628L122.288 56.7736C122.084 56.8175 119.021 57.4263 114.088 56.1044Z" fill="#1B1F2C"/>
<path d="M84.5259 109.033C79.752 107.754 73.925 105.456 67.9311 101.337C56.5642 93.5265 51.5282 83.9236 49.8908 80.1578L51.6841 79.3805C53.255 82.9918 58.0896 92.2043 69.0391 99.7284C79.9894 107.253 90.3297 108.468 94.2676 108.642L94.1827 110.593C92.2415 110.508 88.8069 110.18 84.5259 109.033Z" fill="#1B1F2C"/>
<path d="M103.836 76.7826C98.9407 83.8922 89.197 85.6884 82.0751 80.7937C74.952 75.8995 73.1469 66.168 78.042 59.0575C82.9372 51.9471 92.6798 50.1514 99.8029 55.0456C106.925 59.9404 108.731 69.6713 103.836 76.7826Z" fill="#29BAAC"/>
<path d="M86.8934 83.0195C86.8934 83.0195 86.8934 83.0195 86.8926 83.0192C86.8934 83.0195 86.8934 83.0195 86.8934 83.0195ZM86.896 83.0202C93.0721 84.6732 99.8818 82.4155 103.752 76.9026C99.8809 82.4153 93.0727 84.6743 86.896 83.0202ZM82.0754 80.794C82.0692 80.7895 82.0636 80.7862 82.0574 80.7817C82.0627 80.7859 82.0689 80.7904 82.0754 80.794ZM82.0526 80.7786C82.0464 80.7742 82.0402 80.7697 82.0337 80.7661C82.0402 80.7697 82.0464 80.7742 82.0526 80.7786ZM82.0325 80.764C82.0269 80.7606 82.0207 80.7562 82.0151 80.7528C82.0207 80.7562 82.0269 80.7606 82.0325 80.764ZM82.0112 80.7499C82.005 80.7455 81.9988 80.741 81.9934 80.7368C81.9988 80.741 82.005 80.7455 82.0112 80.7499ZM81.9902 80.735C81.9846 80.7317 81.9792 80.7275 81.9736 80.7241C81.9792 80.7275 81.9846 80.7317 81.9902 80.735ZM81.9698 80.7212C81.9636 80.7168 81.9582 80.7126 81.952 80.7082C81.9582 80.7126 81.9644 80.717 81.9698 80.7212ZM81.9481 80.7053C81.9434 80.7022 81.938 80.6979 81.9324 80.6946C81.9378 80.6988 81.9434 80.7022 81.9481 80.7053ZM81.9284 80.6926C81.9221 80.6881 81.9168 80.6839 81.9106 80.6795C81.9168 80.6839 81.9221 80.6881 81.9284 80.6926ZM81.9067 80.6766C81.902 80.6735 81.8966 80.6693 81.8919 80.6661C81.8966 80.6693 81.902 80.6735 81.9067 80.6766ZM81.888 80.6633C81.8818 80.6588 81.8756 80.6544 81.87 80.651C81.8764 80.6546 81.8818 80.6588 81.888 80.6633ZM81.8655 80.647C81.8599 80.6437 81.8554 80.6397 81.8498 80.6364C81.8554 80.6397 81.8608 80.6439 81.8655 80.647ZM81.8466 80.6346C81.8415 80.6295 81.835 80.6259 81.8297 80.6217C81.8344 80.6248 81.8415 80.6295 81.8466 80.6346ZM81.8243 80.6175C81.8196 80.6144 81.8142 80.6102 81.8095 80.6071C81.8142 80.6102 81.8196 80.6144 81.8243 80.6175ZM81.8063 80.6053C81.8 80.6008 81.7947 80.5966 81.7891 80.5933C81.7947 80.5966 81.8 80.6008 81.8063 80.6053ZM81.7829 80.5888C81.7784 80.5848 81.7728 80.5815 81.7692 80.5777C81.7737 80.5817 81.7784 80.5848 81.7829 80.5888ZM81.7636 80.5744C81.7588 80.5713 81.7535 80.5671 81.7488 80.564C81.7535 80.5671 81.7588 80.5713 81.7636 80.5744ZM81.7419 80.5584C81.7372 80.5553 81.7325 80.5522 81.728 80.5482C81.7325 80.5522 81.7372 80.5553 81.7419 80.5584ZM81.7209 80.5435C81.717 80.5406 81.7132 80.5378 81.7084 80.5346C81.7132 80.5378 81.717 80.5406 81.7209 80.5435ZM81.7016 80.5291C81.6969 80.526 81.6915 80.5218 81.6868 80.5187C81.6915 80.5218 81.6969 80.526 81.7016 80.5291ZM81.6791 80.5129C81.6769 80.5105 81.6722 80.5073 81.669 80.5056C81.6722 80.5073 81.6761 80.5102 81.6791 80.5129ZM81.6612 80.4998C81.6559 80.4956 81.6512 80.4925 81.6467 80.4885C81.6512 80.4925 81.6559 80.4956 81.6612 80.4998ZM81.6381 80.4825C81.6349 80.4807 81.6319 80.478 81.6295 80.4765C81.6319 80.478 81.6349 80.4807 81.6381 80.4825ZM81.6203 80.4694C81.6164 80.4665 81.6126 80.4636 81.6087 80.4607C81.6126 80.4636 81.6164 80.4665 81.6203 80.4694ZM81.5971 80.4521C81.5948 80.4505 81.5924 80.449 81.59 80.4474C81.5933 80.4492 81.5948 80.4505 81.5971 80.4521ZM81.5562 80.4217C81.5547 80.4203 81.5529 80.4199 81.5517 80.4177C81.5529 80.4199 81.5547 80.4203 81.5562 80.4217ZM81.5161 80.3915C81.5152 80.3913 81.5137 80.3899 81.5128 80.3897C81.5137 80.3899 81.5152 80.3913 81.5161 80.3915ZM103.761 76.8919C103.764 76.8855 103.769 76.8801 103.773 76.8739C103.769 76.8801 103.764 76.8855 103.761 76.8919ZM103.822 76.8036C103.827 76.7957 103.832 76.7897 103.837 76.7826C103.84 76.7762 103.845 76.7702 103.849 76.7638C103.845 76.7702 103.84 76.7762 103.837 76.7826C103.832 76.7897 103.827 76.7957 103.822 76.8036ZM103.852 76.7599C103.855 76.7535 103.86 76.7481 103.864 76.7428C103.86 76.7473 103.855 76.7543 103.852 76.7599ZM103.867 76.7389C103.87 76.7325 103.875 76.7263 103.879 76.7201C103.875 76.7263 103.87 76.7325 103.867 76.7389ZM103.879 76.7192C103.884 76.713 103.887 76.7074 103.891 76.702C103.887 76.7074 103.884 76.713 103.879 76.7192ZM103.895 76.6973C103.899 76.6911 103.902 76.6855 103.907 76.6793C103.903 76.6847 103.898 76.6918 103.895 76.6973ZM103.909 76.6763C103.913 76.6699 103.917 76.6646 103.921 76.6581C103.917 76.6646 103.913 76.6699 103.909 76.6763ZM103.922 76.6558C103.927 76.6504 103.93 76.6448 103.934 76.6395C103.93 76.6448 103.927 76.6504 103.922 76.6558ZM103.938 76.6339C103.941 76.6292 103.945 76.623 103.948 76.6174C103.945 76.623 103.941 76.6292 103.938 76.6339ZM103.953 76.612C103.955 76.6071 103.959 76.6017 103.962 76.597C103.959 76.6017 103.955 76.6071 103.953 76.612ZM103.965 76.5923C103.969 76.5867 103.973 76.5814 103.975 76.5764C103.973 76.5814 103.969 76.5867 103.965 76.5923ZM103.979 76.5711C103.983 76.5655 103.987 76.5602 103.99 76.5546C103.987 76.5602 103.983 76.5655 103.979 76.5711ZM103.995 76.5484C103.997 76.5443 104 76.5404 104.003 76.5357C104 76.5404 103.998 76.5445 103.995 76.5484ZM104.009 76.5263C104.011 76.5222 104.014 76.5183 104.016 76.5151C104.014 76.5192 104.011 76.5222 104.009 76.5263ZM104.022 76.5066C104.025 76.5018 104.028 76.4971 104.031 76.4933C104.028 76.4971 104.025 76.5018 104.022 76.5066ZM104.037 76.483C104.039 76.4815 104.04 76.4782 104.042 76.4759C104.04 76.4791 104.039 76.4806 104.037 76.483ZM104.054 76.4587C104.054 76.457 104.055 76.4553 104.057 76.454C104.056 76.4555 104.054 76.457 104.054 76.4587ZM104.08 76.4176C104.08 76.4176 104.08 76.4167 104.081 76.4161C104.08 76.4167 104.08 76.4176 104.08 76.4176Z" fill="#7C7CB6"/>
<path d="M86.8931 83.0193C86.8931 83.0193 86.8931 83.0193 86.8923 83.0191C85.2165 82.5701 83.5862 81.8322 82.0757 80.7944C82.0694 80.7899 82.0631 80.7854 82.0568 80.7809C82.0553 80.7795 82.0544 80.7793 82.0529 80.778C82.0464 80.7744 82.0401 80.7699 82.0338 80.7654C82.033 80.7651 82.033 80.7651 82.0323 80.764C82.0267 80.7606 82.0204 80.7562 82.0156 80.753C82.0141 80.7517 82.0126 80.7503 82.0108 80.7499C82.0054 80.7456 81.9991 80.7411 81.9928 80.7366C81.992 80.7364 81.9911 80.7362 81.9905 80.7351C81.9848 80.7317 81.9794 80.7274 81.9737 80.724C81.9731 80.7229 81.9716 80.7216 81.9698 80.7211C81.9636 80.7166 81.9581 80.7124 81.9519 80.7079C81.9501 80.7074 81.9495 80.7063 81.948 80.705C81.9429 80.7027 81.9375 80.6984 81.9328 80.6953C81.9312 80.6939 81.9306 80.6928 81.9288 80.6924C81.9226 80.6879 81.9163 80.6834 81.9109 80.6791C81.9091 80.6787 81.9076 80.6773 81.907 80.6762C81.9013 80.6728 81.8965 80.6697 81.8911 80.6654C81.8905 80.6643 81.8887 80.6638 81.8881 80.6627C81.8816 80.6591 81.8762 80.6549 81.8699 80.6504C81.8681 80.6499 81.8668 80.6477 81.8651 80.6472C81.8606 80.6432 81.8549 80.6398 81.8504 80.6358C81.8486 80.6353 81.8477 80.6351 81.8462 80.6338C81.8417 80.6297 81.8345 80.625 81.8289 80.6216C81.8274 80.6203 81.8258 80.6189 81.8243 80.6176C81.8187 80.6142 81.8141 80.6102 81.8094 80.607C81.8076 80.6066 81.807 80.6055 81.8061 80.6052C81.8007 80.601 81.7944 80.5965 81.7888 80.5931C81.7866 80.5907 81.7851 80.5893 81.7825 80.5886C81.7779 80.5846 81.7732 80.5814 81.7686 80.5774C81.7669 80.577 81.7653 80.5756 81.7638 80.5743C81.7591 80.5711 81.7536 80.5669 81.748 80.5635C81.7465 80.5621 81.7441 80.5606 81.7419 80.5581C81.7372 80.555 81.7324 80.5518 81.7276 80.5487C81.7255 80.5462 81.7231 80.5446 81.7207 80.5431C81.7168 80.5402 81.7129 80.5372 81.7081 80.5341C81.7057 80.5325 81.7042 80.5312 81.7009 80.5294C81.6973 80.5256 81.6916 80.5222 81.6871 80.5182C81.6847 80.5166 81.6823 80.515 81.6791 80.5132C81.676 80.5105 81.6721 80.5076 81.6682 80.5047C81.6658 80.5031 81.6635 80.5016 81.6613 80.4991C81.6565 80.496 81.6509 80.4926 81.6463 80.4886C81.6439 80.487 81.6407 80.4852 81.6377 80.4825C81.6353 80.4809 81.6323 80.4782 81.6292 80.4756C81.626 80.4737 81.6229 80.4711 81.6205 80.4695C81.6166 80.4666 81.6127 80.4637 81.6088 80.4607C81.6049 80.4578 81.601 80.4549 81.5963 80.4518C81.5939 80.4502 81.5932 80.4491 81.59 80.4473C81.5792 80.4388 81.5674 80.43 81.5557 80.4213C81.5542 80.4199 81.5525 80.4195 81.551 80.4181C81.5395 80.4085 81.5276 80.4006 81.5161 80.391C81.5152 80.3908 81.5135 80.3903 81.5128 80.3892C78.7724 78.3252 76.8928 75.5157 75.9634 72.4418C76.0912 72.8632 76.2362 73.2798 76.399 73.689C76.0532 72.1311 75.9442 70.5216 76.0838 68.9207C77.2288 71.2071 78.95 73.2448 81.2085 74.7972C82.296 75.544 83.4438 76.1358 84.6274 76.5764C84.9026 76.811 85.1914 77.0333 85.4936 77.2405C86.4672 77.9091 87.527 78.396 88.6349 78.6928C90.0783 79.0796 91.6025 79.1439 93.1156 78.8648C95.7883 78.3719 98.1099 76.8686 99.6496 74.6311C99.8029 74.4085 99.947 74.1816 100.08 73.9507C101.159 73.0542 102.135 71.9971 102.969 70.7853C104.554 68.4842 105.434 65.9092 105.661 63.3118C105.863 63.7155 106.047 64.1258 106.213 64.5423C106.079 63.9351 105.907 63.3355 105.7 62.7471C107.251 67.1648 106.805 72.2153 104.081 76.4161C104.08 76.4167 104.08 76.4167 104.08 76.4176C104.072 76.4295 104.065 76.4416 104.057 76.4536C104.055 76.4557 104.054 76.4566 104.054 76.4583C104.05 76.4637 104.046 76.4702 104.042 76.4757C104.04 76.478 104.038 76.4813 104.037 76.4828C104.035 76.4861 104.032 76.4899 104.031 76.4923C104.028 76.4971 104.024 76.5019 104.022 76.5069C104.02 76.509 104.018 76.5123 104.016 76.5155C104.014 76.5188 104.012 76.5218 104.01 76.5259C104.007 76.529 104.004 76.5328 104.002 76.5352C103.999 76.54 103.997 76.5441 103.994 76.548C103.993 76.5504 103.992 76.5522 103.99 76.5543C103.987 76.5591 103.983 76.5656 103.98 76.5712C103.978 76.5727 103.977 76.5742 103.976 76.5757C103.972 76.5814 103.969 76.587 103.965 76.5916C103.964 76.5933 103.963 76.5948 103.962 76.5963C103.959 76.6013 103.955 76.6067 103.952 76.6115C103.95 76.6139 103.95 76.6156 103.949 76.6171C103.944 76.6225 103.941 76.6291 103.938 76.6338C103.936 76.6362 103.935 76.6377 103.934 76.6386C103.93 76.6449 103.927 76.6505 103.922 76.6559C103.922 76.6568 103.921 76.6574 103.921 76.6583C103.917 76.6639 103.913 76.6702 103.909 76.6758C103.908 76.6765 103.908 76.6773 103.907 76.6789C103.902 76.6851 103.899 76.6908 103.894 76.6971C103.893 76.6986 103.893 76.7003 103.891 76.7018C103.888 76.7075 103.884 76.7129 103.879 76.7191L103.879 76.72C103.874 76.7263 103.871 76.7319 103.867 76.7382C103.866 76.7399 103.865 76.7406 103.864 76.7421C103.859 76.7475 103.856 76.754 103.851 76.7594C103.851 76.7612 103.85 76.7627 103.849 76.7635C103.845 76.7698 103.84 76.7761 103.837 76.7826C103.831 76.7895 103.827 76.7958 103.822 76.803C103.805 76.8266 103.789 76.8502 103.773 76.8731C103.769 76.8794 103.764 76.8857 103.761 76.8913C103.758 76.8952 103.755 76.8991 103.752 76.903C99.8816 82.4152 93.0717 84.673 86.8958 83.02C86.8949 83.0198 86.894 83.0196 86.8931 83.0193Z" fill="#1B9286"/>
<path d="M77.6104 59.7214C77.6107 59.72 77.6118 59.7188 77.6129 59.7176C77.6118 59.7188 77.6107 59.72 77.6104 59.7214ZM77.6199 59.7058C77.6201 59.7051 77.621 59.7045 77.6213 59.7031C77.621 59.7045 77.6208 59.7052 77.6199 59.7058ZM77.6349 59.6809C77.636 59.6797 77.6373 59.6778 77.6383 59.6766C77.6371 59.6785 77.6362 59.679 77.6349 59.6809ZM77.6504 59.657C77.6517 59.6551 77.6521 59.6537 77.6534 59.6517C77.6523 59.653 77.651 59.6549 77.6504 59.657ZM77.6601 59.6406C77.6614 59.6387 77.6627 59.6368 77.6642 59.6341C77.6627 59.6368 77.6614 59.6387 77.6601 59.6406ZM77.6744 59.6186C77.676 59.6153 77.6782 59.6128 77.6797 59.6102C77.6782 59.6128 77.676 59.6153 77.6744 59.6186ZM77.6861 59.6005C77.6877 59.5972 77.6892 59.5945 77.6916 59.5914C77.6892 59.5945 77.6877 59.5972 77.6861 59.6005ZM77.7 59.5769C77.7022 59.5745 77.704 59.5704 77.7062 59.568C77.704 59.5704 77.7022 59.5745 77.7 59.5769ZM77.7115 59.5595C77.7145 59.5542 77.7179 59.5498 77.7208 59.5446C77.7179 59.5498 77.7152 59.5544 77.7115 59.5595ZM77.7262 59.5361C77.7287 59.5322 77.7311 59.5291 77.7329 59.525C77.7313 59.5284 77.7285 59.5329 77.7262 59.5361ZM77.7391 59.516C77.7417 59.5122 77.7444 59.5076 77.7479 59.5032C77.7444 59.5076 77.7417 59.5122 77.7391 59.516ZM77.7523 59.4953C77.7559 59.4902 77.7587 59.4856 77.7616 59.4803C77.7587 59.4856 77.7559 59.4902 77.7523 59.4953ZM77.7666 59.4733C77.7693 59.4687 77.7719 59.4648 77.7744 59.461C77.7717 59.4656 77.7693 59.4687 77.7666 59.4733ZM77.7784 59.4545C77.7823 59.4487 77.7859 59.4436 77.7891 59.4376C77.7861 59.4429 77.7823 59.4487 77.7784 59.4545ZM77.7927 59.4325C77.7965 59.4267 77.8 59.4223 77.8029 59.417C77.8 59.4223 77.7963 59.4274 77.7927 59.4325ZM77.8046 59.4136C77.8084 59.4078 77.813 59.4022 77.8168 59.3964C77.8132 59.4015 77.8084 59.4078 77.8046 59.4136ZM77.8197 59.3911C77.8236 59.3853 77.8276 59.3788 77.8314 59.373C77.8276 59.3788 77.8236 59.3853 77.8197 59.3911ZM77.8338 59.3698C77.8367 59.3646 77.8404 59.3595 77.844 59.3544C77.8404 59.3595 77.8367 59.3646 77.8338 59.3698ZM77.8468 59.3498C77.8506 59.344 77.8546 59.3375 77.8583 59.3324C77.8545 59.3382 77.8508 59.3433 77.8468 59.3498ZM77.861 59.3278C77.8649 59.322 77.8687 59.3162 77.8725 59.3104C77.8687 59.3162 77.8649 59.322 77.861 59.3278ZM77.8738 59.3085C77.8777 59.3026 77.8817 59.2961 77.8862 59.2905C77.8817 59.2961 77.8777 59.3026 77.8738 59.3085ZM77.889 59.2859C77.8928 59.2801 77.8968 59.2736 77.9007 59.2678C77.8968 59.2736 77.8928 59.2801 77.889 59.2859ZM77.9027 59.2661C77.9065 59.2603 77.9103 59.2545 77.9142 59.2487C77.9103 59.2545 77.9058 59.2601 77.9027 59.2661ZM77.916 59.2446C77.9199 59.2388 77.9246 59.2325 77.9286 59.226C77.9246 59.2325 77.9199 59.2388 77.916 59.2446ZM77.9306 59.2242C77.9344 59.2184 77.9385 59.2119 77.9432 59.2056C77.9385 59.2119 77.9346 59.2177 77.9306 59.2242ZM77.9436 59.2042C77.9476 59.1976 77.9523 59.1913 77.9564 59.1848C77.9516 59.1911 77.9478 59.1969 77.9436 59.2042ZM77.9587 59.1816C77.9628 59.1751 77.9666 59.1693 77.9713 59.163C77.9666 59.1693 77.9628 59.1751 77.9587 59.1816ZM77.9717 59.1616C77.9764 59.1553 77.9801 59.1502 77.9848 59.1438C77.9803 59.1495 77.9763 59.156 77.9717 59.1616ZM77.9865 59.1405C77.9905 59.134 77.9953 59.1277 77.9993 59.1211C77.9953 59.1277 77.9905 59.134 77.9865 59.1405ZM78.0015 59.1187C78.0053 59.1129 78.0089 59.1078 78.013 59.1013C78.0089 59.1078 78.0051 59.1136 78.0015 59.1187ZM78.015 59.0995C78.0188 59.0937 78.0237 59.0867 78.0275 59.0809C78.0228 59.0872 78.019 59.093 78.015 59.0995ZM78.0301 59.077C78.0341 59.0705 78.0389 59.0642 78.0429 59.0577C78.0389 59.0642 78.0341 59.0705 78.0301 59.077ZM78.0429 59.0577C78.0476 59.0514 78.0526 59.0443 78.0575 59.0373C78.0526 59.0443 78.0476 59.0514 78.0429 59.0577Z" fill="#D9D9EA"/>
<path d="M80.3379 56.4093C84.2956 52.7688 89.8582 51.4466 94.9845 52.8202C95.5805 52.9799 96.171 53.176 96.7515 53.4091C96.171 53.176 95.5805 52.9799 94.9845 52.8202C89.859 51.4468 84.2956 52.7688 80.3389 56.4087L80.3379 56.4093Z" fill="white"/>
<path d="M78.1143 58.9541C78.7759 58.0094 79.5224 57.1606 80.3384 56.4104L80.3396 56.409C79.5232 57.1608 78.7761 58.0086 78.1143 58.9541ZM100.584 55.6183C100.581 55.6158 100.578 55.6141 100.575 55.6116C100.578 55.6141 100.581 55.6158 100.584 55.6183ZM100.57 55.6077C100.564 55.6027 100.559 55.5995 100.554 55.5956C100.559 55.5995 100.565 55.6037 100.57 55.6077Z" fill="#D9D9EA"/>
<path d="M99.1027 54.592L99.1019 54.5918C98.7775 54.393 98.4473 54.2065 98.1134 54.0336C98.4473 54.2065 98.7775 54.393 99.1027 54.592Z" fill="white"/>
<path d="M100.554 55.5939C100.31 55.4051 100.06 55.2226 99.8031 55.0458C99.5731 54.8868 99.34 54.7365 99.1037 54.5914L99.1045 54.5917C99.34 54.7365 99.5731 54.8868 99.8031 55.0458C100.06 55.2226 100.311 55.4054 100.554 55.5939Z" fill="#D9D9EA"/>
<path d="M75.9651 72.442C74.7106 68.2985 75.1805 63.6735 77.5963 59.7444C77.6022 59.736 77.6071 59.7281 77.6119 59.7203C77.6122 59.7195 77.6126 59.7177 77.6137 59.7171C77.6157 59.7131 77.6185 59.7093 77.6214 59.7055C77.6219 59.7038 77.6219 59.7038 77.6223 59.7021C77.6269 59.6951 77.6315 59.6881 77.6364 59.6803C77.6377 59.6788 77.6381 59.6771 77.6395 59.6756C77.643 59.6692 77.6476 59.6623 77.6511 59.6559C77.6527 59.6536 77.654 59.6521 77.6544 59.6504C77.6562 59.6472 77.6591 59.6434 77.6617 59.6405C77.6624 59.6379 77.6648 59.6358 77.6655 59.6332C77.6696 59.628 77.6727 59.6233 77.6751 59.6176C77.6778 59.6146 77.6795 59.6114 77.6811 59.6091C77.6828 59.6059 77.6857 59.6021 77.6872 59.5998C77.689 59.5966 77.6908 59.5934 77.6925 59.5903C77.6956 59.5856 77.6987 59.5809 77.7018 59.5763C77.7035 59.5731 77.7053 59.5699 77.7071 59.5667C77.7097 59.5638 77.7112 59.5615 77.713 59.5583C77.7161 59.5536 77.7191 59.549 77.7224 59.5435C77.724 59.5411 77.7257 59.538 77.7273 59.5356C77.7293 59.5316 77.7321 59.5278 77.7341 59.5238C77.7365 59.5217 77.7383 59.5185 77.7401 59.5153C77.7431 59.5106 77.746 59.5068 77.7491 59.5022C77.75 59.4988 77.7524 59.4967 77.7539 59.4943C77.757 59.4897 77.7601 59.485 77.7634 59.4795C77.7649 59.4772 77.7664 59.4749 77.768 59.4725C77.771 59.4679 77.7728 59.4647 77.7759 59.46C77.7774 59.4577 77.7787 59.4562 77.7797 59.4528C77.7836 59.4484 77.7871 59.442 77.7904 59.4365C77.7917 59.4351 77.7933 59.4327 77.7946 59.4313C77.7977 59.4266 77.801 59.4211 77.804 59.4164C77.8054 59.415 77.8056 59.4141 77.806 59.4124C77.8102 59.4071 77.8137 59.4008 77.8179 59.3955C77.8186 59.3929 77.8199 59.3914 77.8212 59.39C77.8245 59.3845 77.8289 59.3783 77.8324 59.372C77.8335 59.3714 77.8346 59.3707 77.835 59.369C77.8383 59.3635 77.8423 59.3591 77.8447 59.3534C77.846 59.3519 77.8474 59.3504 77.8478 59.3487C77.8522 59.3426 77.8555 59.3371 77.8599 59.3309C77.8603 59.3292 77.8614 59.3286 77.8627 59.3271C77.8663 59.3208 77.8704 59.3155 77.8737 59.31C77.874 59.3091 77.874 59.3091 77.8753 59.3076C77.8788 59.3013 77.883 59.296 77.8874 59.2899C77.8878 59.2882 77.8891 59.2867 77.8904 59.2852C77.894 59.2788 77.8984 59.2727 77.9017 59.2672C77.903 59.2657 77.903 59.2657 77.9041 59.2651C77.9074 59.2596 77.9117 59.2535 77.9153 59.2471C77.9155 59.2463 77.9168 59.2448 77.917 59.2439C77.9214 59.2378 77.9258 59.2317 77.9302 59.2255C77.9307 59.2238 77.9307 59.2238 77.9317 59.2232C77.9353 59.2168 77.9397 59.2107 77.9441 59.2046C77.9441 59.2046 77.9443 59.2037 77.9454 59.2031C77.9489 59.1967 77.9533 59.1906 77.9577 59.1845C77.9579 59.1836 77.9592 59.1821 77.9597 59.1804C77.9641 59.1743 77.9684 59.1682 77.9728 59.1621C77.9731 59.1612 77.9731 59.1612 77.9731 59.1612C77.9775 59.1551 77.9818 59.1489 77.9862 59.1428C77.9865 59.142 77.9869 59.1402 77.988 59.1396C77.9915 59.1333 77.9968 59.1274 78.0003 59.121C78.0016 59.1195 78.0018 59.1187 78.0021 59.1178C78.0071 59.1128 78.0106 59.1064 78.0148 59.1011C78.015 59.1003 78.0152 59.0994 78.0163 59.0988C78.0198 59.0924 78.0242 59.0863 78.0286 59.0802C78.0299 59.0787 78.0302 59.0778 78.0315 59.0764C78.035 59.07 78.0405 59.0633 78.044 59.0569C78.0484 59.0508 78.0541 59.0432 78.0587 59.0362C78.0778 59.0093 78.0973 58.9807 78.1167 58.953C78.778 58.0076 79.5256 57.1602 80.3417 56.4088C84.2976 52.7681 89.8613 51.4473 94.9867 52.8206C95.5825 52.9802 96.1731 53.1759 96.7537 53.4092C97.2147 53.5939 97.6695 53.8016 98.1168 54.0338C98.4511 54.2065 98.7809 54.3926 99.1064 54.5913C99.3419 54.7366 99.5752 54.8868 99.8053 55.0453C100.063 55.222 100.313 55.405 100.556 55.5944L100.556 55.5946C100.562 55.5987 100.566 55.6027 100.572 55.6071C100.573 55.6081 100.576 55.6099 100.577 55.611C100.58 55.6136 100.583 55.6154 100.586 55.618C103.016 57.5151 104.743 60.0093 105.702 62.7465C105.693 62.9358 105.68 63.1233 105.663 63.3116C104.518 61.0271 102.796 58.9889 100.538 57.4385C99.0264 56.3986 97.3971 55.6615 95.7208 55.2123C89.4986 53.5451 82.6341 55.8492 78.7776 61.4503C77.1934 63.7507 76.3126 66.3245 76.0852 68.9208C75.7896 68.3273 75.5311 67.7182 75.3118 67.0958C75.2199 68.9036 75.4427 70.7144 75.9651 72.442Z" fill="#48D7C9"/>
<path d="M76.3995 73.6889C76.2368 73.2796 76.0916 72.8631 75.9643 72.4421C75.4415 70.7152 75.2191 68.9043 75.3107 67.0957C75.5297 67.7176 75.7878 68.3271 76.0842 68.921C75.9442 70.5219 76.0541 72.1308 76.3995 73.6889ZM106.213 64.5427C106.047 64.1252 105.864 63.7149 105.662 63.3116C105.679 63.1233 105.691 62.9353 105.701 62.7469C105.908 63.3352 106.079 63.9352 106.213 64.5427Z" fill="#D980A2"/>
<path d="M94.7443 53.7711C88.9091 52.2076 82.4598 54.3665 78.8477 59.6123C74.2657 66.2667 75.9618 75.4087 82.6289 79.99C89.2961 84.5713 98.4476 82.8839 103.03 76.2285C107.612 69.5741 105.916 60.4321 99.2486 55.8508C97.8365 54.8808 96.3123 54.1913 94.7443 53.7711ZM86.6257 83.9565C84.8484 83.4802 83.1213 82.6993 81.5206 81.599C73.9651 76.4074 72.0423 66.0461 77.2358 58.5042C82.4285 50.9621 92.8005 49.0499 100.357 54.2418C107.912 59.4343 109.834 69.7945 104.642 77.3366C100.549 83.2807 93.2383 85.7283 86.6257 83.9565Z" fill="#1B1F2C"/>
<path d="M98.5922 73.1798C95.6868 77.3997 89.9048 78.4659 85.6774 75.5611C81.4508 72.6566 80.379 66.8811 83.2835 62.6609C86.1897 58.4412 91.9718 57.3751 96.1984 60.2797C100.426 63.1844 101.497 68.9599 98.5922 73.1798Z" fill="#313131"/>
<path d="M96.2969 68.0044C96.2382 68.047 96.1763 68.0858 96.1118 68.1209C94.9875 68.7354 93.3912 67.9782 92.5463 66.4296C91.75 64.9701 91.9056 63.3286 92.8674 62.6305C92.9264 62.5877 92.9877 62.5488 93.0522 62.5137C93.961 62.017 95.1778 62.4162 96.0573 63.4052C96.442 64.0987 96.7832 64.8092 97.0808 65.5329C97.2493 66.562 96.971 67.5151 96.2969 68.0044Z" fill="#4D4D4D"/>
<path d="M94.0421 73.289C93.963 73.2344 93.8902 73.1691 93.8263 73.0932C93.3773 72.5608 93.5161 71.7069 94.1357 71.1856C94.6671 70.7389 95.3795 70.6815 95.8549 71.0098C95.934 71.0645 96.0068 71.1298 96.0705 71.206C96.5195 71.7384 96.381 72.5925 95.7613 73.1133C95.2297 73.5603 94.5176 73.6173 94.0421 73.289Z" fill="#4D4D4D"/>
<path d="M93.1047 59.8174C91.914 59.4984 90.6582 59.4455 89.4102 59.6756C87.2051 60.0827 85.2913 61.3217 84.0213 63.1667C82.7513 65.0117 82.2764 67.2403 82.6857 69.4428C83.0933 71.6449 84.3372 73.5568 86.1846 74.8263C88.0326 76.0969 90.2644 76.5728 92.4694 76.1657C94.6742 75.7594 96.5882 74.5195 97.8582 72.6745C99.1283 70.8295 99.6023 68.6008 99.1939 66.3985C98.7855 64.1962 97.5424 62.2845 95.695 61.015C94.8927 60.4635 94.0179 60.0621 93.1047 59.8174ZM88.3139 77.7473C87.207 77.4507 86.1456 76.9643 85.1735 76.2955C82.9321 74.7553 81.4252 72.4364 80.9301 69.7657C80.4342 67.0949 81.0098 64.3934 82.5503 62.156C84.09 59.9184 86.4108 58.4151 89.0844 57.9226C91.7583 57.4293 94.4645 58.0064 96.7061 59.5457C98.9466 61.0857 100.454 63.4047 100.949 66.0755C101.445 68.7453 100.87 71.4487 99.3292 73.6852C97.7887 75.9226 95.4679 77.4259 92.7941 77.9192C91.2814 78.1978 89.7579 78.1342 88.3139 77.7473Z" fill="#1B1F2C"/>
<path d="M32.3614 152.999C32.3614 152.999 32.3584 152.989 32.3544 152.972C24.1906 124.508 44.9202 115.259 44.9202 115.259L44.9208 115.257L47.0814 115.739L56.5571 117.855L63.1486 127.78C63.1486 127.78 61.9138 150.445 32.3614 152.999Z" fill="#ED6F78"/>
<path d="M61.8889 118.207L60.0054 112.848L54.3219 113.007C33.0375 124.071 38.637 143.884 38.637 143.884C38.637 143.884 59.1597 142.021 61.8889 118.207Z" fill="#FEBF10"/>
<path d="M35.0967 151.705C43.4219 147.515 49.5224 142.084 53.4649 137.827C54.2489 136.98 54.783 135.997 55.0736 134.967C56.8762 132.873 58.5044 130.294 59.7472 127.117C59.7967 127.131 59.8455 127.144 59.8944 127.157C60.6605 127.362 61.3272 127.502 61.8544 127.597L62.146 128.035C62.0146 129.262 61.3157 133.969 58.0258 138.889C53.3707 145.848 45.4803 150.247 35.0967 151.705ZM45.5266 119.382C45.1954 118.505 45.0249 117.728 44.9425 117.093C45.1837 116.926 45.4314 116.761 45.6812 116.599C45.9608 117.051 46.3207 117.594 46.7612 118.193C46.3288 118.586 45.9185 118.981 45.5266 119.382Z" fill="#C7515A"/>
<path d="M55.0724 134.967C55.8512 132.209 54.8957 129.107 52.358 127.343C48.2434 124.482 46.3653 121.609 45.5251 119.382C45.9174 118.982 46.3267 118.586 46.7596 118.193C47.9984 119.877 49.8835 122.003 52.4748 123.784C55.0675 125.565 57.7285 126.563 59.7454 127.117C58.5022 130.294 56.8748 132.873 55.0724 134.967Z" fill="#D9A30F"/>
<path d="M31.6224 144.332C30.7997 136.49 32.3674 129.705 36.3148 124.089C39.5811 119.444 43.5644 117.069 44.8785 116.371C44.8874 116.585 44.9066 116.826 44.9412 117.093C34.0009 124.624 31.732 136.346 31.6224 144.332Z" fill="#F79BA2"/>
<path d="M44.9413 117.093C44.9067 116.827 44.8876 116.585 44.8784 116.371C44.9397 116.339 44.9957 116.31 45.045 116.284L45.558 116.399C45.5972 116.463 45.6376 116.53 45.6801 116.599C45.4299 116.761 45.1826 116.926 44.9413 117.093Z" fill="#D9A194"/>
<path d="M45.044 116.284C43.9381 116.851 39.7329 119.226 36.3147 124.089C31.1401 131.451 30.0538 140.82 33.0834 151.948C44.4612 150.796 53.0731 146.29 58.0241 138.888C61.3144 133.968 62.0132 129.261 62.1439 128.035L55.9599 118.721L45.044 116.284ZM32.1085 153.941C31.7844 153.854 31.5182 153.603 31.4213 153.265C27.0866 138.18 30.8518 128.415 34.7741 122.881C39.0426 116.856 44.3004 114.463 44.5219 114.364C44.7142 114.278 44.9296 114.257 45.1347 114.302L56.8849 116.927L57.0447 116.821L57.1542 116.987L57.3491 117.03L57.3077 117.217L63.9634 127.241C64.0804 127.416 64.1362 127.624 64.1247 127.834C64.1117 128.076 63.7547 133.838 59.6509 139.975C55.8795 145.613 48.0989 152.618 32.4456 153.97C32.33 153.98 32.216 153.969 32.1085 153.941Z" fill="#1B1F2C"/>
<path d="M75.4281 106.416C73.0394 111.982 69.1949 118.995 63.1494 127.779C63.1494 127.779 57.6741 127.356 52.4762 123.783C47.2776 120.211 44.9222 115.253 44.9222 115.253C45.6291 114.227 46.3227 113.237 47.0075 112.285C52.1697 105.073 56.6608 99.8856 60.4988 96.1598C72.1704 84.8284 77.7879 87.0203 77.7879 87.0203L77.7871 87.0233L77.7894 87.0239C77.8884 87.135 81.766 91.6661 75.4281 106.416Z" fill="#E1E1E1"/>
<path d="M75.4269 106.418C64.5289 104.182 60.4983 96.1596 60.4983 96.1596C72.168 84.8277 77.7854 87.0221 77.7854 87.0221C77.7854 87.0221 81.8458 91.4776 75.4269 106.418Z" fill="#29BAAC"/>
<path d="M73.0342 87.0931C75.5771 86.2649 77.0413 86.5304 77.4619 86.6431C77.5483 86.6663 77.5901 86.683 77.5901 86.683C77.5901 86.683 77.7465 86.8541 77.9488 87.2434C77.8607 87.107 77.8003 87.0368 77.7887 87.0243C77.7875 87.0232 77.7869 87.0223 77.7869 87.0223L77.7871 87.0215C77.7871 87.0215 77.7446 87.0047 77.6597 86.9819C77.3686 86.9039 76.5741 86.7521 75.2652 86.9432C74.5251 86.9602 73.7804 87.012 73.0342 87.0931Z" fill="white"/>
<path d="M60.4943 96.1641C60.3653 95.9441 60.3026 95.8201 60.3026 95.8201C60.4404 95.687 60.577 95.555 60.713 95.4253C60.8043 95.5141 60.8951 95.602 60.9872 95.6902C60.8255 95.8445 60.6631 96.001 60.4985 96.1599C60.4972 96.1618 60.4963 96.1623 60.4943 96.1641ZM62.4242 94.3616C62.3315 94.2724 62.2386 94.184 62.1466 94.095C66.8747 89.8402 70.4933 87.9196 73.0339 87.0928C73.7801 87.0108 74.5256 86.96 75.2651 86.9429C75.0273 86.9773 74.7726 87.0232 74.5011 87.0829C72.0684 87.6185 68.2714 89.26 63.0594 93.8003C62.8503 93.9825 62.6382 94.17 62.4242 94.3616Z" fill="#D9D9EA"/>
<path d="M60.9873 95.69C60.8947 95.6015 60.8041 95.5136 60.713 95.4248C61.2017 94.9577 61.6789 94.5154 62.1461 94.0949C62.238 94.1832 62.3311 94.2725 62.4235 94.3616C61.9562 94.78 61.4764 95.2243 60.9873 95.69Z" fill="#8080B9"/>
<path d="M60.562 96.2767C60.5373 96.2372 60.5147 96.1991 60.4943 96.164C60.4964 96.1622 60.4966 96.1614 60.4984 96.1604C60.6626 96.0004 60.8257 95.8447 60.9876 95.6904C61.4765 95.2242 61.9564 94.7799 62.4238 94.3619C62.6382 94.1692 62.8502 93.9829 63.0589 93.7997C62.2408 94.513 61.3872 95.2972 60.4994 96.1598C60.4994 96.1598 60.5198 96.2005 60.562 96.2767ZM74.5009 87.0828C74.7727 87.0235 75.0269 86.9775 75.2648 86.9428C76.574 86.7512 77.3685 86.9031 77.6599 86.9812C77.7447 87.0039 77.7871 87.0207 77.7871 87.0207L77.7869 87.0214C77.7862 87.0212 77.7862 87.0212 77.7862 87.0212C77.7862 87.0212 77.7445 87.0046 77.659 86.9817C77.3136 86.8891 76.2676 86.6941 74.5009 87.0828Z" fill="white"/>
<path d="M62.83 99.2408C61.6509 97.9681 60.9189 96.8669 60.5635 96.2769C60.5213 96.2007 60.5009 96.16 60.5009 96.16C61.3888 95.2974 62.2424 94.5131 63.0612 93.8C68.2731 89.26 72.0703 87.6184 74.5025 87.0835C76.2693 86.6948 77.3155 86.8891 77.6609 86.9817C77.7464 87.0046 77.7879 87.022 77.7879 87.022C77.7879 87.022 77.7879 87.022 77.7886 87.0222C77.7886 87.0222 77.7901 87.0226 77.7904 87.0242L77.7882 87.0236C77.7882 87.0236 77.6084 87.5108 77.2668 88.3706C74.7537 88.5445 69.6493 90.0602 61.8217 97.6606C61.8217 97.6606 62.138 98.2886 62.83 99.2408Z" fill="#48D7C9"/>
<path d="M59.8927 127.156C59.8441 127.143 59.7954 127.13 59.7454 127.116C57.7289 126.563 55.0672 125.565 52.475 123.783C49.8835 122.002 47.9986 119.876 46.7598 118.193C46.2519 117.502 45.8523 116.885 45.5578 116.398C45.1291 115.69 44.9221 115.253 44.9221 115.253C45.6287 114.227 46.3222 113.237 47.0066 112.284C47.7393 113.214 48.5091 114.014 49.2855 114.702C50.4449 115.731 51.7842 116.429 53.1858 116.805C56.6889 117.743 60.5874 116.67 63.0887 113.717C65.4431 110.935 67.6103 107.675 69.5167 104.407C70.825 105.054 72.2952 105.625 73.9371 106.065C74.4183 106.194 74.9153 106.312 75.4261 106.417C73.7569 110.309 71.3752 114.908 68.0278 120.324C67.8015 120.69 67.5709 121.059 67.3362 121.432C66.2388 123.175 65.045 124.999 63.7446 126.91C63.548 127.197 63.3491 127.488 63.1491 127.779C63.1491 127.779 62.6666 127.742 61.8531 127.596C61.3257 127.502 60.659 127.362 59.8927 127.156ZM78.9133 94.5672C79.4304 90.03 78.3729 87.8942 77.9503 87.2443C77.9503 87.2443 77.9499 87.2426 77.9492 87.2424C78.3703 87.8887 79.4313 90.0239 78.9133 94.5672Z" fill="#C5C5C5"/>
<path d="M73.9357 106.066C72.2934 105.626 70.8233 105.054 69.5149 104.408C73.3731 97.7922 76.1609 91.1444 77.2624 88.3706C77.7325 88.3381 78.1111 88.3527 78.4004 88.382C78.2513 87.8894 78.089 87.5154 77.9488 87.2455C78.3707 87.8948 79.4291 90.0301 78.9114 94.5677C78.5811 97.4622 77.6103 101.332 75.4249 106.416C75.4248 106.417 75.4246 106.417 75.4245 106.418C74.914 106.313 74.4165 106.195 73.9357 106.066Z" fill="#1B9286"/>
<path d="M77.9512 87.2457C77.8615 87.1075 77.8004 87.0361 77.7888 87.0235C77.8006 87.0354 77.8612 87.1059 77.9496 87.2429C77.9508 87.244 77.9506 87.2447 77.9512 87.2457Z" fill="#B2B2D4"/>
<path d="M77.2656 88.3701C77.6071 87.5109 77.7873 87.0237 77.7873 87.0237L77.7895 87.0242C77.8011 87.0368 77.8619 87.1074 77.9513 87.2448C78.0912 87.5146 78.2543 87.8891 78.403 88.3819C78.1136 88.3524 77.735 88.3376 77.2656 88.3701Z" fill="#B2598D"/>
<path d="M53.0285 122.98C57.0053 125.713 61.2042 126.527 62.6764 126.74C73.8117 110.466 77.081 100.575 77.8551 95.1267C78.4999 90.5934 77.5675 88.5022 77.1999 87.8843C75.5812 87.6305 65.4115 87.3941 46.0633 115.324C46.7881 116.62 49.0512 120.247 53.0285 122.98ZM59.633 128.104C57.5177 127.537 54.6912 126.493 51.92 124.589C46.5671 120.91 44.1387 115.886 44.0381 115.675C43.8877 115.36 43.9177 114.989 44.1153 114.702C53.4439 101.155 61.8944 92.2201 69.2351 88.1484C74.9032 85.0034 77.8268 85.9919 78.1417 86.1129C78.2819 86.1676 78.4079 86.2543 78.5086 86.3651C78.7368 86.6151 80.7047 88.9887 79.7922 95.4032C78.6108 103.707 73.2826 114.787 63.9545 128.335C63.7571 128.622 63.4215 128.782 63.0733 128.755C62.9607 128.746 61.6053 128.632 59.633 128.104Z" fill="#1B1F2C"/>
<path d="M73.6661 107.006C63.6036 104.31 59.7892 96.9268 59.6243 96.598L61.3727 95.7228L60.4988 96.1609L61.3723 95.7211C61.4105 95.7968 65.3583 103.354 75.6241 105.462L75.2314 107.376C74.6941 107.266 74.171 107.142 73.6661 107.006Z" fill="#1B1F2C"/>
<path d="M62.6355 124.233C50.985 121.112 46.9032 112.244 46.7223 111.838L48.5092 111.045L47.6157 111.441L48.5081 111.043C48.5522 111.14 53.0623 120.844 65.9089 122.939L65.5947 124.868C64.5587 124.699 63.5718 124.484 62.6355 124.233Z" fill="#1B1F2C"/>
<path d="M11.8596 125.478L11.8562 125.48L11.8542 125.477L11.8526 125.476C6.20385 102.439 23.5727 94.416 23.5727 94.416L23.5754 94.4167L23.5748 94.4189L25.5412 95.7692L36.7017 103.438C36.7017 103.438 35.4178 122.51 11.8596 125.478Z" fill="#ED6F78"/>
<path d="M17.203 117.715C17.203 117.715 13.52 104.689 26.0268 96.103L34.251 101.754C30.6962 116.492 17.203 117.715 17.203 117.715Z" fill="#FEBF10"/>
<path d="M14.7119 124.029C22.6595 119.728 27.3892 114.856 30.0427 111.326C30.5112 110.703 30.8135 110.01 30.9584 109.297C32.0512 107.716 33.0079 105.842 33.7258 103.619C33.792 103.638 33.8583 103.656 33.9232 103.674C34.5877 103.852 35.1744 103.954 35.647 104.012C35.4329 105.448 34.68 109.092 32.2383 112.9C28.5144 118.71 22.627 122.446 14.7119 124.029ZM23.668 97.9317C23.563 97.6076 23.4874 97.3 23.436 97.0115C23.8066 96.7649 24.1893 96.5262 24.5839 96.297L24.6173 96.3203C24.7325 96.5077 24.8484 96.6902 24.9659 96.8691C24.5095 97.2177 24.0773 97.5722 23.668 97.9317Z" fill="#C7515A"/>
<path d="M30.9589 109.298C31.3596 107.338 30.575 105.228 28.8109 104.004C25.6071 101.783 24.2213 99.6315 23.6685 97.9324C24.0779 97.5729 24.51 97.2184 24.9665 96.8698C27.7954 101.176 31.2588 102.918 33.7263 103.62C33.0084 105.843 32.0517 107.717 30.9589 109.298Z" fill="#D9A30F"/>
<path d="M11.8779 120.029C11.1338 113.042 12.6223 106.983 16.3263 101.966C18.9658 98.3895 22.0401 96.3913 23.3467 95.6459C23.3271 96.0278 23.3437 96.4888 23.4374 97.0117C14.5051 102.947 12.3323 113.572 11.8779 120.029Z" fill="#F79BA2"/>
<path d="M23.4368 97.0124C23.3431 96.4894 23.3265 96.0284 23.3461 95.6465C23.4025 95.614 23.4559 95.5841 23.5057 95.5568L24.5847 96.2978C24.1901 96.5271 23.8073 96.7658 23.4368 97.0124Z" fill="#D9A194"/>
<path d="M23.5055 95.5564C22.3067 96.2211 19.0796 98.2346 16.3255 101.966C11.8709 108.001 10.6205 115.542 12.6051 124.393C21.5888 123.079 28.1913 119.215 32.2389 112.901C34.7414 108.998 35.4698 105.268 35.6624 103.91L23.5055 95.5564ZM11.604 126.425C11.268 126.335 10.9936 126.069 10.9062 125.713C7.8957 113.44 11.3672 105.351 14.8106 100.725C18.5517 95.6985 22.9772 93.6179 23.1634 93.5318C23.4767 93.3875 23.8437 93.4176 24.1283 93.6137L37.2559 102.634C37.5402 102.829 37.7006 103.161 37.6773 103.505C37.6639 103.71 37.3015 108.582 33.9406 113.871C30.8485 118.737 24.5279 124.87 11.9792 126.45C11.8502 126.467 11.723 126.457 11.604 126.425Z" fill="#1B1F2C"/>
<path d="M56.7387 71.2706L56.738 71.273C56.6958 71.4207 55.2442 76.489 50.3466 84.9496C47.3333 90.1622 43.0087 96.6564 36.9093 104.084C36.9093 104.084 28.5296 104.536 23.5713 94.4157C23.5713 94.4157 24.5121 92.8452 26.2349 90.5178C29.4042 86.2388 35.2232 79.4122 42.6991 75.1397C46.8988 72.7406 51.6225 71.1491 56.694 71.2722C56.7088 71.2704 56.7245 71.2726 56.7387 71.2706Z" fill="#E1E1E1"/>
<path d="M50.3493 84.9508C44.2319 80.3884 42.7019 75.141 42.7019 75.141C46.9025 72.7409 51.6247 71.1497 56.697 71.2724C56.7108 71.2716 56.7268 71.2726 56.7413 71.2719C56.7413 71.2719 55.3187 76.3629 50.3493 84.9508Z" fill="#29BAAC"/>
<path d="M56.6953 71.2721C56.6983 71.2721 56.702 71.2724 56.7059 71.2719C56.7059 71.2719 56.7052 71.2717 56.705 71.2724C56.702 71.2724 56.6983 71.2721 56.6953 71.2721Z" fill="#8080B9"/>
<path d="M42.7012 75.1417C44.8011 73.9416 47.032 72.9441 49.3716 72.2612C47.032 72.9441 44.8011 73.9416 42.7012 75.1417ZM56.7055 71.2733C56.7057 71.2727 56.7057 71.2727 56.7057 71.2727C56.7134 71.2728 56.7218 71.2731 56.7302 71.2734C56.7218 71.2731 56.7134 71.2728 56.7055 71.2733Z" fill="white"/>
<path d="M43.5037 77.0371C42.9151 75.8791 42.7006 75.1441 42.6994 75.1412C44.7994 73.941 47.0297 72.9433 49.37 72.2606C51.7096 71.5783 54.1584 71.2109 56.6945 71.2726C56.6978 71.2722 56.7004 71.2722 56.703 71.2723C56.7115 71.2719 56.7199 71.2722 56.7277 71.2724C56.7315 71.2727 56.7348 71.2723 56.7382 71.2719C56.7382 71.2719 56.738 71.2725 56.7377 71.2738C56.7246 71.2839 55.9479 71.8975 54.6665 72.9996C50.6293 73.3853 46.8465 74.8037 43.4126 76.766C43.4126 76.766 43.4411 76.8632 43.5037 77.0371Z" fill="#48D7C9"/>
<path d="M33.9216 103.674C33.8567 103.657 33.7907 103.638 33.7243 103.619C31.257 102.918 27.7933 101.176 24.9646 96.8698C24.4784 96.13 24.0117 95.315 23.5713 94.4163C23.5713 94.4163 24.5121 92.8458 26.235 90.5179C26.2948 90.6345 26.3572 90.7486 26.4216 90.86C27.3421 92.4579 28.7823 93.4702 30.3694 93.8954C32.9831 94.5964 35.9945 93.7061 37.7425 91.2239C40.3747 87.4865 43.3705 84.0179 46.1934 81.056C47.2582 82.3194 48.6194 83.6629 50.347 84.9513C48.9134 87.4295 47.1845 90.1971 45.109 93.2172C44.3832 94.2741 43.6148 95.3611 42.8021 96.4778C41.2501 98.6094 39.5352 100.849 37.6437 103.183C37.4018 103.482 37.1576 103.782 36.909 104.084C36.909 104.084 36.4346 104.11 35.6456 104.013C35.1731 103.954 34.5862 103.852 33.9216 103.674ZM52.6413 80.7723C54.4021 77.3764 55.4789 74.7936 56.0835 73.1851C55.4788 74.7942 54.4025 77.3772 52.6413 80.7723ZM56.7253 71.3184C56.7326 71.2937 56.7368 71.278 56.738 71.2738C56.7386 71.2739 56.7386 71.2739 56.7386 71.2739C56.7363 71.2798 56.7323 71.295 56.7253 71.3184Z" fill="#C5C5C5"/>
<path d="M50.3502 84.9506C48.6226 83.6621 47.2614 82.3186 46.1966 81.0552C49.5788 77.5051 52.7122 74.6822 54.6698 72.9994C55.1721 72.9516 55.6799 72.9195 56.191 72.904C56.5719 71.8683 56.7325 71.3051 56.7411 71.273C56.74 71.2772 56.7358 71.293 56.7285 71.3177C56.6775 71.4909 56.4838 72.1289 56.0867 73.1843C55.4821 74.7929 54.4052 77.3757 52.6445 80.7715C51.9806 82.0507 51.2192 83.4466 50.3499 84.9492C50.3497 84.9498 50.3497 84.9498 50.3497 84.9498" fill="#1B9286"/>
<path d="M54.6699 73.0002C55.9513 71.8982 56.7281 71.284 56.7412 71.2739C56.7326 71.306 56.572 71.8691 56.1911 72.9048C55.68 72.9204 55.1722 72.9524 54.6699 73.0002Z" fill="#B2598D"/>
<path d="M24.6966 94.4707C28.7363 102.256 34.8049 103.04 36.4495 103.106C49.2676 87.4187 54.0623 75.9243 55.3835 72.2553C39.2191 72.8386 26.7056 91.3315 24.6966 94.4707ZM33.627 104.619C30.5277 103.788 25.9259 101.437 22.6973 94.8462C22.5516 94.5496 22.5666 94.1996 22.7357 93.9165C22.883 93.6708 26.4013 87.8339 32.3339 81.9668C40.2632 74.124 48.712 70.0875 56.7668 70.2949C57.0683 70.3016 57.3494 70.4483 57.5286 70.691C57.7079 70.9331 57.7657 71.2443 57.6846 71.5346C57.5321 72.0791 53.7747 85.1002 37.6686 104.704C37.495 104.916 37.2403 105.045 36.966 105.06C36.8268 105.067 35.502 105.121 33.627 104.619Z" fill="#1B1F2C"/>
<path d="M36.7637 101.761C28.616 99.5778 25.0506 91.8991 24.8905 91.5447L26.6721 90.7396C26.7109 90.824 30.6334 99.2172 39.3164 100.269L39.0822 102.208C38.2715 102.11 37.499 101.958 36.7637 101.761Z" fill="#1B1F2C"/>
<path d="M49.763 85.7337C43.456 81.0281 41.8279 75.641 41.7618 75.4138L43.6388 74.8658C43.6538 74.9151 45.1816 79.878 50.933 84.1689L49.763 85.7337Z" fill="#1B1F2C"/>
<path d="M65.4168 162.286L65.4175 162.283L65.415 162.275L65.4164 162.269C60.3271 141.507 73.9408 132.947 76.6694 131.466C76.9667 131.301 77.1361 131.223 77.1361 131.223L88.2622 138.871L90.2618 140.244C90.2618 140.244 88.9776 159.318 65.4168 162.286Z" fill="#ED6F78"/>
<path d="M70.7658 154.521C70.7658 154.521 84.2591 153.298 87.8116 138.559L79.5879 132.907C67.0832 141.495 70.7658 154.521 70.7658 154.521Z" fill="#FEBF10"/>
<path d="M65.6503 158.467C64.4786 150.787 65.8975 144.175 69.8871 138.771C72.5744 135.13 75.7122 133.124 76.9765 132.412C77.2215 132.873 77.5654 133.443 78.0318 134.064C75.869 135.803 74.2849 137.681 73.1348 139.57C73.1286 139.576 73.1222 139.582 73.1159 139.589C67.8176 144.756 66.165 153.474 65.6503 158.467ZM87.1672 140.788C87.2747 140.474 87.377 140.151 87.4736 139.822C87.6772 139.867 87.8835 139.909 88.0933 139.948C88.0437 140.223 87.9907 140.494 87.9325 140.764C87.6805 140.781 87.4246 140.789 87.1672 140.788Z" fill="#C7515A"/>
<path d="M73.1348 139.569C74.2846 137.681 75.8684 135.802 78.0307 134.063C79.4735 135.987 82.0856 138.401 86.5607 139.6C86.8563 139.679 87.1606 139.753 87.4731 139.821C87.3765 140.151 87.2734 140.473 87.1669 140.787C85.8157 140.782 84.3962 140.532 83.0415 140.169C81.4085 139.732 79.8691 139.129 78.6569 138.591C78.4162 138.484 78.17 138.397 77.9204 138.33C76.2362 137.879 74.4132 138.335 73.1348 139.569Z" fill="#D9A30F"/>
<path d="M70.9971 160.182C76.8757 157.431 85.6006 151.628 87.9322 140.763C88.3208 140.736 88.7005 140.686 89.0695 140.609L89.2241 140.715C89.0312 142.072 88.3026 145.803 85.8003 149.706C82.5172 154.828 77.5511 158.338 70.9971 160.182Z" fill="#F79BA2"/>
<path d="M87.9334 140.763C87.9915 140.494 88.0443 140.223 88.0947 139.947C88.1001 139.948 88.1072 139.949 88.1125 139.951L89.0701 140.608C88.7015 140.686 88.3214 140.736 87.9334 140.763Z" fill="#D9A194"/>
<path d="M77.067 132.361C75.8686 133.026 72.6411 135.04 69.8874 138.771C65.4319 144.806 64.1822 152.347 66.1669 161.199C75.1504 159.884 81.7533 156.021 85.8004 149.706C88.3028 145.803 89.031 142.073 89.224 140.715L77.067 132.361ZM65.1651 163.23C64.8296 163.14 64.5557 162.874 64.4678 162.518C61.4571 150.246 64.9289 142.156 68.3719 137.53C72.1133 132.504 76.5384 130.422 76.7253 130.336C77.0383 130.192 77.405 130.223 77.69 130.419L90.8174 139.439C91.1016 139.635 91.2621 139.966 91.2389 140.31C91.2253 140.515 90.8633 145.387 87.5024 150.676C84.4101 155.542 78.0901 161.675 65.5409 163.256C65.4118 163.272 65.2841 163.262 65.1651 163.23Z" fill="#1B1F2C"/>
<path d="M91.6341 138.355C90.7981 139.567 90.265 140.244 90.265 140.244C79.0321 139.238 76.4587 131.258 76.4587 131.258C81.2195 122.909 85.7455 116.554 89.5383 111.88C95.7873 104.172 100.037 101.023 100.037 101.023C100.042 101.038 100.049 101.053 100.053 101.065C101.983 105.755 102.185 110.728 101.443 115.506C99.8999 125.461 94.2647 134.549 91.6341 138.355Z" fill="#E1E1E1"/>
<path d="M89.5363 111.879C95.9897 115.954 101.442 115.504 101.442 115.504C102.183 110.727 101.982 105.753 100.052 101.064C100.048 101.051 100.041 101.037 100.037 101.023C100.037 101.023 95.787 104.171 89.5363 111.879Z" fill="#29BAAC"/>
<path d="M86.5595 139.601C80.6406 138.015 77.9808 134.304 76.9749 132.412C76.6013 131.71 76.4557 131.258 76.4557 131.258C81.2167 122.91 85.7426 116.554 89.5352 111.88C91.0101 112.811 92.4327 113.506 93.7497 114.024C91.97 117.525 90.0052 121.223 88.1328 124.409C85.3519 129.138 86.7728 135.209 91.3823 138.196C91.4643 138.248 91.5471 138.302 91.6318 138.355C91.3257 138.798 91.0614 139.169 90.8476 139.463C90.4771 139.971 90.262 140.245 90.262 140.245C89.507 140.177 88.7892 140.077 88.1107 139.952C88.1045 139.95 88.0981 139.949 88.0918 139.948C87.5576 139.848 87.0472 139.731 86.5595 139.601ZM94.698 105.991C98.0089 102.524 100.035 101.023 100.035 101.023C100.035 101.023 100.034 101.023 100.034 101.025C99.9743 101.07 97.9595 102.577 94.698 105.991Z" fill="#C5C5C5"/>
<path d="M93.7501 114.024C92.4331 113.506 91.011 112.811 89.536 111.88C91.4701 109.494 93.2136 107.544 94.6986 105.99C97.9604 102.577 99.9746 101.07 100.035 101.025C99.9738 101.157 97.2091 107.22 93.7501 114.024Z" fill="#1B9286"/>
<path d="M77.5378 131.342C78.1839 132.847 81.087 138.232 89.8142 139.217C92.0294 136.22 104.841 117.933 99.6048 102.644C96.6437 105.197 87.5982 113.805 77.5378 131.342ZM86.2639 140.537C77.7923 138.267 75.626 131.866 75.5267 131.558C75.4425 131.298 75.4726 131.014 75.6074 130.776C88.1723 108.738 99.0006 100.576 99.4557 100.239C99.6951 100.061 100.003 100.003 100.291 100.08L100.299 100.083C100.589 100.163 100.827 100.373 100.942 100.652C104.016 108.092 103.266 117.417 98.7707 127.621C95.4081 135.254 91.2095 140.623 91.0333 140.848C90.8288 141.108 90.5068 141.246 90.1768 141.217C88.7438 141.089 87.4427 140.853 86.2639 140.537Z" fill="#1B1F2C"/>
<path d="M89.0434 137.374C85.598 136.451 80.3992 134.167 77.4341 128.562L79.1633 127.65C83.2507 135.375 92.5008 136.032 92.5939 136.038L92.4788 137.988C92.3273 137.979 90.9554 137.887 89.0434 137.374Z" fill="#1B1F2C"/>
<path d="M95.9754 115.788C93.9722 115.251 91.5703 114.318 89.0145 112.705L90.0587 111.053C96.1267 114.885 101.312 114.535 101.364 114.531L101.523 116.478C101.378 116.49 99.1898 116.65 95.9754 115.788Z" fill="#1B1F2C"/>
</svg>
