<svg width="125" height="124" viewBox="0 0 125 124" fill="none" xmlns="http://www.w3.org/2000/svg">
<path d="M12.4111 27.0521C-6.88746 54.6607 -0.154984 92.6859 27.4522 111.991C32.2379 115.336 37.3341 117.898 42.5952 119.703C44.8825 120.491 47.2014 121.136 49.5372 121.638C72.0104 126.476 96.1548 118.291 110.839 99.0465C111.368 98.3624 111.88 97.6613 112.38 96.9481C113.828 94.874 115.13 92.7417 116.282 90.5657C120.309 83.0019 122.584 74.8705 123.21 66.7026C123.251 66.1738 123.283 65.6449 123.312 65.1161C123.753 56.4049 122.317 47.6839 119.12 39.5792C114.88 28.8132 107.533 19.1365 97.3409 12.0094C91.7159 8.07706 85.6616 5.2267 79.4157 3.41217C55.0166 -3.68103 27.7796 5.0666 12.4111 27.0521Z" fill="#E1E1E1"/>
<path d="M88.0381 86.4501C88.0381 92.6005 91.0223 97.0879 95.2858 96.8391C100.087 96.5609 104.692 90.381 105.57 83.0377C105.667 82.2157 105.716 81.4147 105.716 80.6391C105.716 74.4887 102.732 69.9992 98.4682 70.2479C93.6672 70.5283 89.0623 76.7082 88.1856 84.0494C88.0866 84.8714 88.0381 85.6745 88.0381 86.4501Z" fill="#C5C5C5"/>
<path d="M88.6294 83.9679C87.6489 90.3381 89.3649 95.0877 92.4603 94.5745C95.5557 94.0634 98.8589 88.4827 99.8394 82.1125C100.818 75.7423 99.1019 70.9948 96.0065 71.508C92.9111 72.0191 89.6079 77.5998 88.6294 83.9679Z" fill="#E1E1E1"/>
<path d="M104.364 72.8717C104.058 72.3156 103.679 71.7889 103.23 71.3106C103.001 71.0747 102.756 70.8514 102.491 70.647C102.223 70.4448 101.941 70.2594 101.644 70.0971C101.345 69.937 101.029 69.8022 100.705 69.6927L100.458 69.6147C100.376 69.5915 100.292 69.5747 100.207 69.5536L99.9568 69.4946C99.8725 69.4778 99.7862 69.4672 99.7019 69.4525C99.0194 69.3492 98.3221 69.3598 97.6459 69.4693C96.9718 69.581 96.3209 69.7874 95.7079 70.055C95.0949 70.3247 94.5177 70.6576 93.9763 71.0304C93.4328 71.4033 92.9357 71.8268 92.4659 72.2692C92.2258 72.4904 92.0046 72.7243 91.7813 72.9602L91.4611 73.3205C91.3537 73.4406 91.2547 73.567 91.1515 73.6913C90.747 74.1885 90.3636 74.7046 90.0224 75.244C89.8433 75.5094 89.6874 75.7854 89.521 76.0572C89.3672 76.3374 89.205 76.6112 89.0639 76.8956C88.4762 78.0249 88.0085 79.2089 87.6293 80.4202C87.5366 80.7215 87.4545 81.0291 87.3702 81.3346C87.2965 81.6422 87.2122 81.9477 87.1511 82.2595C87.01 82.8788 86.911 83.5067 86.8246 84.1366C86.6751 85.4006 86.614 86.6815 86.7109 87.9688C86.8015 89.2518 87.0227 90.5432 87.4355 91.7967C87.8568 93.0481 88.453 94.2806 89.3546 95.353C89.8012 95.8881 90.3257 96.3789 90.9219 96.7856C91.5201 97.19 92.1921 97.5039 92.8957 97.6957C93.5993 97.8874 94.3323 97.9611 95.0465 97.9105C95.7606 97.8663 96.4536 97.7083 97.1003 97.4723C97.747 97.2364 98.3495 96.9225 98.9077 96.5643C99.0447 96.4716 99.1858 96.3853 99.3185 96.2883L99.7145 95.9934L100.092 95.6816C100.218 95.5784 100.334 95.4646 100.456 95.3572C100.928 94.9168 101.368 94.4491 101.771 93.9562C102.169 93.4611 102.539 92.9491 102.879 92.4203C103.211 91.8873 103.519 91.3438 103.797 90.7855C104.069 90.2251 104.326 89.6605 104.539 89.079C104.981 87.9245 105.301 86.7342 105.52 85.5312C105.558 85.3185 105.417 85.1183 105.206 85.0783C105.017 85.0446 104.836 85.1541 104.772 85.329L104.768 85.3374C104.568 85.8936 104.374 86.4477 104.136 86.9849C104.027 87.2567 103.902 87.5221 103.782 87.7876C103.721 87.9203 103.656 88.0509 103.593 88.1815C103.529 88.3122 103.464 88.4428 103.395 88.5713L103.19 88.9568L102.978 89.3339L102.87 89.5236L102.758 89.7089C102.683 89.8311 102.609 89.9554 102.531 90.0776C102.219 90.5643 101.895 91.0362 101.547 91.4892C101.193 91.9379 100.827 92.3719 100.437 92.7785C100.043 93.1809 99.6324 93.5601 99.2026 93.9056C98.3411 94.5945 97.391 95.138 96.4136 95.4309C95.927 95.5784 95.4341 95.6584 94.9517 95.6626C94.4693 95.6668 93.9995 95.5994 93.5508 95.4562C92.6576 95.1697 91.8782 94.5798 91.261 93.794C90.6438 93.0039 90.1846 92.0411 89.8644 91.0172C89.5547 89.9891 89.363 88.9021 89.2977 87.796C89.2303 86.6921 89.2703 85.5692 89.403 84.4547C89.5463 83.3423 89.7569 82.23 90.075 81.1471C90.1572 80.8774 90.233 80.6057 90.3236 80.3381C90.4078 80.0684 90.5069 79.8051 90.6038 79.5396C90.8039 79.015 91.0209 78.4947 91.2631 77.9891C91.3769 77.732 91.5117 77.4855 91.636 77.2327C91.7729 76.9883 91.9014 76.7397 92.0489 76.5017C92.3311 76.0192 92.6387 75.5515 92.9673 75.1049C93.2959 74.6562 93.6498 74.2285 94.0248 73.8261C94.3997 73.4258 94.7979 73.0466 95.2213 72.7116C95.6447 72.3724 96.0892 72.0712 96.5568 71.8226C97.0203 71.5719 97.5069 71.3738 98.0061 71.2474C98.5054 71.1168 99.0152 71.0578 99.5228 71.0852L99.7145 71.0957L99.9041 71.1189C99.9694 71.1273 100.033 71.1337 100.096 71.1442L100.285 71.1821C100.534 71.239 100.783 71.3106 101.027 71.4033C101.267 71.5002 101.505 71.6161 101.735 71.7488C101.964 71.8858 102.183 72.0417 102.394 72.2102C102.609 72.3767 102.811 72.5663 103.005 72.7643C103.199 72.9644 103.38 73.1772 103.559 73.3984L103.565 73.4069C103.732 73.6154 104.037 73.647 104.244 73.4806C104.429 73.331 104.475 73.074 104.364 72.8717Z" fill="#1B1F2C"/>
<path d="M83.9707 79.171C83.6121 79.6106 83.3002 80.0847 83.0226 80.583C82.7431 81.0794 82.5041 81.6001 82.2975 82.1349C81.8842 83.2066 81.6229 84.3371 81.4912 85.4797C81.3555 86.6243 81.3616 87.7811 81.475 88.9278C81.6006 90.0704 81.8356 91.2029 82.1901 92.3009C82.5426 93.397 83.0044 94.4606 83.5858 95.4634C83.7316 95.7146 83.8836 95.9618 84.0436 96.2049C84.2057 96.446 84.3738 96.683 84.548 96.916C84.8964 97.3819 85.2854 97.8215 85.6966 98.2389C86.5271 99.0654 87.4893 99.7847 88.5751 100.271C89.6527 100.761 90.858 101.004 92.0107 100.879C92.2254 100.854 92.3814 100.66 92.357 100.445C92.3388 100.275 92.2152 100.143 92.0593 100.105L92.0512 100.103C90.0498 99.6287 88.4981 98.3544 87.307 96.8045C86.1078 95.2507 85.2489 93.4253 84.6655 91.525C84.0861 89.6166 83.7843 87.6251 83.7884 85.6256C83.7884 84.6227 83.8714 83.6219 84.0416 82.6252C84.1246 82.1248 84.234 81.6284 84.3616 81.1321C84.4913 80.6357 84.6432 80.1414 84.8093 79.641L84.8134 79.6349C84.8985 79.3776 84.7587 79.1001 84.5034 79.017C84.3049 78.9502 84.0942 79.0191 83.9707 79.171Z" fill="#1B1F2C"/>
<path d="M90.7679 26.5536C90.3572 27.1836 89.8906 27.767 89.382 28.292C88.864 28.8101 88.311 29.2838 87.7137 29.6804C86.5214 30.4808 85.1845 31.0082 83.7963 31.2579C82.4057 31.5076 80.9731 31.4959 79.5778 31.2439C78.1802 30.9965 76.8223 30.5135 75.5624 29.8368C74.3001 29.1624 73.1312 28.2967 72.0999 27.2817C71.5959 26.7636 71.1036 26.2316 70.672 25.6506L70.343 25.2142L70.0444 24.7615C69.832 24.4652 69.6617 24.1455 69.4797 23.8281C69.3841 23.6718 69.3047 23.5085 69.2254 23.3451L68.9804 22.8574L68.7681 22.3511L68.6584 22.0991C68.6211 22.0151 68.5954 21.9264 68.5651 21.8424L68.3831 21.322C68.3481 21.238 68.3248 21.1493 68.3015 21.0607L68.2245 20.7946L68.1474 20.531C68.1218 20.4423 68.0961 20.3536 68.0798 20.2626C68.0425 20.0829 68.0028 19.9033 67.9631 19.7236C67.9165 19.5416 67.8955 19.3596 67.8675 19.1776C67.8418 18.9956 67.8091 18.8112 67.7858 18.6269L67.7391 18.0715C67.7321 17.9805 67.7205 17.8848 67.7158 17.7915L67.7112 17.5138L67.6995 16.9514L67.7275 16.3891L67.7368 16.1044L67.7718 15.8244C67.7928 15.6377 67.8138 15.4464 67.8325 15.255L67.8371 15.2224C67.8581 15.01 67.7018 14.8187 67.4872 14.7977C67.3075 14.779 67.1442 14.8887 67.0835 15.052C67.0159 15.2434 66.9482 15.437 66.8829 15.6307L66.7849 15.9247L66.7055 16.2211L66.5585 16.8231C66.5212 17.0261 66.4932 17.2291 66.4582 17.4345L66.4116 17.7425C66.3976 17.8452 66.3929 17.9478 66.3836 18.0505L66.3369 18.6735C66.3276 18.8812 66.3322 19.0889 66.3322 19.2966C66.3346 19.5042 66.3299 19.7143 66.3509 19.9219C66.3649 20.1296 66.3812 20.3373 66.3999 20.545C66.4069 20.65 66.4209 20.755 66.4372 20.8577L66.4839 21.168L66.5305 21.4783C66.5469 21.5833 66.5632 21.686 66.5889 21.7864L66.7289 22.4001C66.7545 22.5027 66.7732 22.6054 66.8035 22.7058L66.8945 23.0068L67.0812 23.6111L67.3052 24.1992C67.3822 24.3952 67.4522 24.5935 67.5455 24.7825C68.2384 26.3179 69.1787 27.7507 70.329 28.9944C71.4746 30.2405 72.8302 31.2975 74.3258 32.1189C75.0724 32.5319 75.8587 32.875 76.6707 33.155C77.4803 33.4327 78.3202 33.631 79.1695 33.7617C80.8681 34.009 82.6297 33.9484 84.3026 33.5027C85.9731 33.0663 87.555 32.2473 88.8313 31.1062C88.9946 30.9709 89.144 30.8145 89.2956 30.6652C89.4496 30.5205 89.5896 30.3572 89.7319 30.2008C89.8743 30.0445 90.0049 29.8765 90.1332 29.7085C90.2662 29.5451 90.3922 29.3771 90.5089 29.1998C90.7469 28.8521 90.9592 28.4904 91.1482 28.117C91.3325 27.7437 91.5005 27.3633 91.6335 26.9713C91.7198 26.717 91.5845 26.4416 91.3302 26.3553C91.1155 26.2829 90.8869 26.3693 90.7679 26.5513L90.7679 26.5536Z" fill="#1B1F2C"/>
<path d="M70.5098 18.8747C70.5098 22.0229 72.6201 25.2842 76.1288 27.0317C80.8022 29.3568 86.1854 28.1211 88.1543 24.2655C88.6447 23.3057 88.8758 22.2752 88.8758 21.2305C88.8758 18.0823 86.7655 14.8209 83.2568 13.0735C78.5834 10.746 73.2025 11.984 71.2337 15.8397C70.7432 16.7995 70.5098 17.83 70.5098 18.8747Z" fill="#C5C5C5"/>
<path d="M71.9773 17.6721C71.2176 20.3547 72.3082 23.5851 75.0046 25.8225C78.5958 28.8011 83.6784 28.892 86.3584 26.0253C86.736 25.6198 87.0459 25.1769 87.2883 24.7061C87.0179 22.5129 85.8061 20.2871 83.7507 18.5764C80.1012 15.5512 75.0558 15.2295 71.9773 17.6721Z" fill="#E1E1E1"/>
<path d="M84.4611 14.2332C85.0191 14.869 85.4971 15.5543 85.8833 16.2772C86.2647 17.0001 86.5543 17.7607 86.7309 18.5354C87.0864 20.0849 86.9852 21.6955 86.3777 23.0401L86.2576 23.2897L86.2011 23.4145L86.1328 23.537C86.0434 23.6947 85.9468 23.8478 85.8456 23.9962C85.742 24.1445 85.6313 24.2881 85.516 24.4247C85.4006 24.5636 85.2687 24.6908 85.1439 24.8203C84.6259 25.3172 84.0185 25.7128 83.3521 25.9812C82.6882 26.2544 81.963 26.3886 81.2284 26.4216C80.4914 26.4475 79.745 26.3462 79.0198 26.1484C77.5671 25.7457 76.2156 24.9074 75.1466 23.7889L74.9442 23.5794C74.8806 23.5064 74.8217 23.431 74.7581 23.358L74.5721 23.1343L74.4002 22.9012L74.226 22.668L74.0683 22.4255C74.0165 22.3431 73.9599 22.2654 73.9129 22.1806L73.7716 21.9263C73.4019 21.2481 73.11 20.5228 72.9404 19.767C72.7615 19.0134 72.7121 18.2364 72.778 17.4687C72.7874 17.3722 72.7921 17.2756 72.8039 17.1814L72.8533 16.8965C72.8816 16.7058 72.924 16.5174 72.9758 16.3314C73.0747 15.9593 73.2136 15.5967 73.3831 15.2458C73.7198 14.5464 74.2001 13.9012 74.7935 13.362C75.3844 12.8227 76.0955 12.3942 76.8749 12.0857L76.8819 12.0833C77.0821 12.0056 77.1809 11.7772 77.1009 11.5771C77.0326 11.4028 76.8513 11.3063 76.6747 11.3369C75.7541 11.4899 74.8406 11.8314 74.033 12.3659C73.2206 12.8957 72.5166 13.6045 71.9751 14.4334C71.702 14.8478 71.4759 15.2929 71.2923 15.7544C71.2005 15.9876 71.1133 16.2207 71.0521 16.4609L70.9532 16.8235C70.925 16.9436 70.9038 17.066 70.8779 17.1885C70.6872 18.1657 70.6754 19.1736 70.819 20.1555C71.1157 22.117 72.0128 23.9749 73.3289 25.4537C73.4113 25.5456 73.4914 25.6421 73.5785 25.7316L73.8399 25.993C73.927 26.0801 74.0141 26.1696 74.1059 26.2544L74.3838 26.5016C74.7628 26.8219 75.1584 27.1256 75.5799 27.3941C75.999 27.6649 76.4369 27.9098 76.8937 28.1194C77.3528 28.3242 77.8237 28.5008 78.3088 28.6421C78.7938 28.7881 79.2929 28.887 79.7992 28.9506C80.303 29.0118 80.8163 29.0377 81.3296 29.0165C82.3562 28.9718 83.3851 28.7457 84.3481 28.3313C85.304 27.9098 86.1846 27.2952 86.9004 26.5322C87.6115 25.774 88.1789 24.858 88.5156 23.8949C88.8735 22.9294 89.0242 21.9075 89.0053 20.909C89.01 20.7842 88.9983 20.6594 88.9889 20.537L88.9582 20.1649C88.9535 20.0401 88.9323 19.9177 88.9112 19.7976L88.8523 19.4326C88.7581 18.9499 88.631 18.4766 88.4662 18.0174C87.8069 16.1877 86.6037 14.6147 85.1039 13.515C84.8897 13.3573 84.5859 13.4044 84.4282 13.621C84.2916 13.807 84.3081 14.059 84.4541 14.2262L84.4611 14.2332Z" fill="#1B1F2C"/>
<path d="M74.6729 4.364C-19.0383 34.5503 17.2748 102.47 53.0021 120.465C51.2451 120.465 39.5312 117.563 26.6459 110.016C13.7606 102.47 0.289601 79.8299 1.46099 57.1901C2.63238 34.5504 13.7606 22.3597 31.3314 9.00805C45.3881 -1.67326 66.0827 1.46147 74.6729 4.364Z" fill="#C5C5C5"/>
<path d="M20.3065 41.7866C19.9613 41.1191 19.6849 40.4269 19.4804 39.7278C19.2868 39.0242 19.1494 38.3127 19.1014 37.6016C18.9982 36.1781 19.2059 34.7668 19.6818 33.4504C20.159 32.1319 20.8855 30.9081 21.8033 29.8365C22.7182 28.7605 23.8192 27.8365 25.0405 27.0934C26.2608 26.3471 27.6017 25.7766 29.0043 25.3989C29.7089 25.2253 30.4199 25.0687 31.1434 24.9888L31.6892 24.9246L32.2341 24.8946C32.5992 24.8605 32.9637 24.8741 33.332 24.8766C33.5164 24.8727 33.6988 24.8862 33.8812 24.8998L34.4298 24.9334L34.9784 25.0043L35.2534 25.0362C35.3455 25.0462 35.4358 25.0685 35.5244 25.0844L36.07 25.1884C36.1609 25.2004 36.2501 25.2247 36.3392 25.249L36.6102 25.3159L36.8791 25.3816C36.9694 25.4039 37.0597 25.4263 37.1474 25.4577C37.323 25.5155 37.4998 25.5713 37.6767 25.6271C37.859 25.6781 38.0286 25.751 38.2016 25.818C38.3735 25.887 38.5509 25.9511 38.7236 26.0233L39.2322 26.2609C39.3152 26.3004 39.4047 26.3382 39.4885 26.3809L39.7335 26.5157L40.2307 26.7869L40.7081 27.0921L40.9522 27.2425L41.1793 27.4125C41.3319 27.5239 41.4886 27.6375 41.6465 27.7492L41.6727 27.7696C41.8477 27.8938 42.0931 27.8553 42.2188 27.6815C42.3249 27.5367 42.3107 27.3416 42.1983 27.2079C42.065 27.0541 41.9296 26.8992 41.793 26.7463L41.5851 26.5152L41.3659 26.2989L40.9133 25.8717C40.7546 25.7382 40.5912 25.6126 40.4293 25.4799L40.1835 25.2859C40.1008 25.2225 40.0134 25.1672 39.9283 25.1078L39.4073 24.7562C39.2305 24.6444 39.0467 24.5446 38.8653 24.4407C38.6826 24.3389 38.5014 24.2299 38.3095 24.1441C38.121 24.0522 37.9314 23.9624 37.7406 23.8746C37.6454 23.8281 37.5466 23.7876 37.4487 23.7503L37.1542 23.6352L36.8597 23.5201C36.7598 23.4816 36.6619 23.4443 36.5614 23.4161L35.9552 23.2294C35.8526 23.2001 35.7536 23.1648 35.6508 23.1407L35.3422 23.0683L34.7208 22.9263L34.095 22.8246C33.8853 22.7926 33.677 22.7536 33.4652 22.7392C31.7771 22.5663 30.0551 22.657 28.3932 23.0224C26.7316 23.3827 25.1302 24.0178 23.6647 24.8909C22.9305 25.3252 22.2377 25.8286 21.587 26.3856C20.9396 26.9417 20.3463 27.5635 19.8075 28.2271C18.7421 29.5614 17.9143 31.1038 17.4673 32.7626C17.0132 34.4147 16.9379 36.182 17.2968 37.8481C17.3334 38.0559 17.3954 38.2623 17.45 38.4671C17.4995 38.6716 17.5722 38.8735 17.6376 39.0738C17.7031 39.2741 17.7845 39.4703 17.8672 39.6645C17.9434 39.8603 18.0272 40.0524 18.1238 40.2412C18.3086 40.6194 18.5185 40.9825 18.7502 41.3314C18.9843 41.6762 19.2326 42.0106 19.5087 42.3208C19.6878 42.522 19.996 42.5436 20.1986 42.3684C20.3691 42.2204 20.408 41.9809 20.3085 41.7878L20.3065 41.7866Z" fill="#1B1F2C"/>
<path d="M37.1471 28.2395C34.3963 26.6654 30.4914 26.8461 27.2103 28.9841C22.8419 31.833 21.23 37.0715 23.6145 40.6893C24.2079 41.5902 24.9928 42.3038 25.9056 42.8261C28.6564 44.4002 32.5612 44.2195 35.8424 42.0816C40.2128 39.2339 41.8215 33.9962 39.437 30.3783C38.8436 29.4775 38.0599 28.7618 37.1471 28.2395Z" fill="#C5C5C5"/>
<path d="M37.4627 30.1C35.4986 28.1065 32.1307 27.4275 28.8275 28.6232C24.4293 30.2164 21.8086 34.5337 22.9734 38.2674C23.139 38.7942 23.371 39.2817 23.6612 39.7251C25.7127 40.5897 28.2634 40.6624 30.7859 39.7535C35.254 38.1336 38.0577 33.9637 37.4627 30.1Z" fill="#E1E1E1"/>
<path d="M34.2276 42.5363C33.3931 42.6974 32.5553 42.7651 31.7306 42.7351C30.9082 42.701 30.0988 42.5693 29.3336 42.3335C27.802 41.864 26.4453 40.9717 25.5742 39.778L25.4161 39.5502L25.3353 39.4392L25.2625 39.3194C25.1693 39.1637 25.0839 39.0043 25.0049 38.8433C24.927 38.6802 24.8569 38.5134 24.7952 38.346C24.7315 38.1775 24.6863 38.0008 24.6356 37.8289C24.4604 37.1358 24.4185 36.4166 24.5171 35.7105C24.6104 35.004 24.8557 34.3144 25.1942 33.6673C25.5401 33.0218 26.0018 32.4318 26.5372 31.9082C27.6154 30.8626 29.0236 30.1217 30.5354 29.7634L30.8198 29.6944C30.9153 29.6763 31.0106 29.6635 31.1062 29.6454L31.3947 29.5976L31.6843 29.5666L31.9751 29.5336L32.2659 29.5195C32.3638 29.5162 32.46 29.5066 32.5576 29.5085L32.8504 29.5144C33.6278 29.5362 34.4075 29.6483 35.1528 29.8807C35.9006 30.1038 36.6043 30.45 37.2421 30.8904C37.3218 30.9467 37.4038 30.999 37.4802 31.0562L37.7044 31.2411C37.857 31.3607 38.0004 31.4913 38.137 31.6288C38.4127 31.8997 38.6601 32.2003 38.8819 32.5212C39.3246 33.1599 39.6482 33.8948 39.8227 34.6737C39.9984 35.4506 40.0173 36.2753 39.8972 37.0984L39.8957 37.1057C39.8635 37.3163 40.0137 37.5154 40.2286 37.5468C40.415 37.5753 40.59 37.4679 40.6516 37.3011C40.9781 36.4343 41.1366 35.4794 41.0733 34.519C41.0165 33.5568 40.7492 32.5981 40.2957 31.7188C40.0702 31.2772 39.7943 30.8606 39.4829 30.4722C39.3251 30.2769 39.1649 30.0855 38.9857 29.9129L38.7183 29.6467C38.6275 29.5624 38.5311 29.483 38.437 29.3995C37.6785 28.7472 36.8038 28.2332 35.874 27.8655C34.0117 27.1394 31.9398 26.9804 29.9896 27.3708C29.8682 27.3956 29.7438 27.416 29.622 27.4461L29.2629 27.5397C29.1433 27.5709 29.0215 27.6009 28.9015 27.6374L28.5466 27.7522C28.0772 27.9175 27.614 28.1051 27.1687 28.3327C26.7226 28.557 26.2896 28.8105 25.8781 29.0978C25.4695 29.3894 25.0798 29.7053 24.7138 30.051C24.3437 30.3943 24.0077 30.7733 23.6991 31.1761C23.3936 31.578 23.1144 32.0056 22.8762 32.4568C22.402 33.3603 22.0851 34.3565 21.9657 35.3903C21.856 36.4216 21.9528 37.4848 22.2615 38.4806C22.5685 39.4701 23.0852 40.4152 23.7583 41.1857C24.423 41.9756 25.2406 42.616 26.1224 43.099C26.2291 43.1654 26.344 43.2178 26.4557 43.2709L26.7961 43.4306C26.9075 43.489 27.0251 43.532 27.1407 43.5739L27.489 43.7059C27.9579 43.8664 28.435 43.9939 28.9186 44.082C30.847 44.431 32.823 44.1847 34.5337 43.4472C34.7787 43.3422 34.8895 43.0579 34.779 42.8142C34.6848 42.604 34.4564 42.4921 34.2373 42.5338L34.2276 42.5363Z" fill="#1B1F2C"/>
<path d="M29.8748 95.464C29.7576 95.7218 29.6585 95.9938 29.5789 96.2767C28.2765 100.919 32.6369 107.258 39.3178 110.435C45.5896 113.417 51.6769 112.554 53.4759 108.597C53.5939 108.337 53.6923 108.067 53.7719 107.784C55.0742 103.141 50.7139 96.8027 44.0338 93.6279C37.7612 90.6432 31.6738 91.5064 29.8748 95.464Z" fill="#C5C5C5"/>
<path d="M50.7697 56.0978C50.5712 56.2998 50.3847 56.5212 50.2129 56.7596C47.3965 60.6732 49.3169 68.1235 54.5019 73.4008C59.3694 78.3545 65.3832 79.6331 68.431 76.5333C68.6309 76.33 68.8161 76.1099 68.9879 75.8716C71.8042 71.9579 69.8838 64.5076 64.6989 59.2329C59.8313 54.2766 53.8175 52.998 50.7697 56.0978Z" fill="#C5C5C5"/>
<path d="M43.98 94.1171C38.267 91.1609 33.2111 91.2727 32.6869 94.3648C32.1626 97.4569 36.3713 102.361 42.0826 105.317C47.7957 108.273 52.8508 108.163 53.3741 105.068C53.8983 101.976 49.6913 97.0725 43.98 94.1171Z" fill="#E1E1E1"/>
<path d="M64.4812 59.675C60.1296 54.9375 55.3424 53.3072 53.7889 56.0316C52.2354 58.756 54.5056 64.807 58.8559 69.5432C63.2075 74.2807 67.9934 75.9123 69.5469 73.1853C71.1003 70.4609 68.8315 64.4112 64.4812 59.675Z" fill="#E1E1E1"/>
<path d="M12.4111 27.0532C-6.88746 54.6618 -0.154984 92.687 27.4522 111.992C32.2379 115.337 37.3341 117.899 42.5952 119.704C44.8825 120.492 47.2014 121.137 49.5372 121.64C72.0104 126.477 96.1548 118.292 110.839 99.0476C111.368 98.3635 111.88 97.6624 112.38 96.9492C113.828 94.8751 115.13 92.7428 116.282 90.5668C120.309 83.003 122.584 74.8716 123.21 66.7037C123.251 66.1749 123.283 65.646 123.312 65.1172C123.753 56.406 122.317 47.685 119.12 39.5803C114.88 28.8143 107.533 19.1376 97.3409 12.0105C91.7159 8.07816 85.6616 5.2278 79.4157 3.41326C55.0166 -3.67993 27.7796 5.06769 12.4111 27.0532" stroke="#1B1F2C" stroke-width="2"/>
<path d="M49.3571 112.536C49.9828 112.425 50.6056 112.234 51.2052 111.959C51.5027 111.818 51.7946 111.658 52.0737 111.471C52.3512 111.284 52.6195 111.077 52.8719 110.845C53.1209 110.613 53.3507 110.359 53.5614 110.085L53.7134 109.877C53.7618 109.806 53.8076 109.732 53.8526 109.66L53.9908 109.442C54.0332 109.366 54.0722 109.29 54.1137 109.212C54.434 108.602 54.6502 107.937 54.7665 107.263C54.8812 106.587 54.8994 105.908 54.8463 105.241C54.7897 104.573 54.6619 103.923 54.4862 103.292C54.3089 102.66 54.0706 102.054 53.8037 101.466C53.674 101.171 53.5237 100.885 53.3743 100.601L53.1371 100.182C53.0575 100.042 52.9705 99.9095 52.8877 99.7722C52.5472 99.2292 52.1847 98.7031 51.7857 98.2077C51.5915 97.9552 51.382 97.7183 51.1763 97.473C50.9635 97.2388 50.7555 96.9986 50.5322 96.774C49.6551 95.8584 48.6871 95.0393 47.6624 94.2953C47.4071 94.1096 47.1447 93.9351 46.8838 93.7572C46.6158 93.5905 46.3525 93.4135 46.0789 93.2545C45.5372 92.9246 44.9751 92.6307 44.405 92.3495C43.2573 91.8042 42.0631 91.3385 40.8142 91.0203C39.5701 90.696 38.2754 90.4965 36.9534 90.4874C35.6318 90.4867 34.2698 90.6603 32.9604 91.1684C32.309 91.4219 31.6717 91.7616 31.0923 92.1987C30.5155 92.6349 29.9992 93.1718 29.5883 93.7742C29.1766 94.3783 28.8694 95.0496 28.6818 95.7414C28.4942 96.4333 28.4174 97.1379 28.4287 97.8244C28.4425 98.5142 28.5418 99.1827 28.6995 99.8262C28.7422 99.9844 28.7791 100.146 28.8285 100.303L28.978 100.771L29.1496 101.226C29.2071 101.379 29.2761 101.524 29.3393 101.673C29.6013 102.263 29.8999 102.826 30.236 103.365C30.5745 103.899 30.9382 104.414 31.3295 104.903C31.7272 105.388 32.1401 105.853 32.5788 106.292C33.0207 106.729 33.4714 107.151 33.9525 107.538C34.9026 108.325 35.9258 109.009 36.9941 109.598C37.1803 109.702 37.4186 109.632 37.5221 109.445C37.617 109.277 37.5742 109.069 37.4285 108.953L37.4208 108.948C36.9597 108.58 36.4988 108.221 36.0668 107.825C35.8464 107.635 35.6356 107.432 35.4218 107.236C35.3168 107.134 35.215 107.029 35.1109 106.93C35.0084 106.827 34.9051 106.725 34.8066 106.618L34.508 106.302L34.2209 105.98L34.0752 105.818L33.936 105.652C33.8449 105.542 33.7514 105.432 33.6603 105.322C33.3023 104.872 32.9607 104.412 32.6454 103.94C32.3349 103.461 32.0459 102.976 31.7874 102.478C31.5338 101.978 31.3091 101.468 31.1226 100.951C30.7497 99.9169 30.5451 98.8452 30.5868 97.8262C30.6047 97.3185 30.6894 96.8262 30.843 96.3668C30.995 95.9107 31.2143 95.4868 31.4964 95.1093C32.0564 94.3545 32.8691 93.8046 33.8153 93.4699C34.7641 93.1384 35.8267 93.0112 36.899 93.0336C37.9743 93.0676 39.0661 93.2318 40.1342 93.5246C41.2047 93.8122 42.2531 94.2068 43.2647 94.6871C44.2723 95.176 45.2557 95.7317 46.178 96.3769C46.4066 96.5404 46.6392 96.6995 46.8621 96.8707C47.0899 97.0358 47.3056 97.214 47.5271 97.3886C47.9585 97.745 48.3813 98.116 48.7823 98.5079C48.9884 98.6982 49.1776 98.9034 49.374 99.1016C49.5623 99.3085 49.7564 99.5118 49.9333 99.7259C50.2985 100.147 50.6393 100.586 50.9565 101.04C51.2761 101.494 51.563 101.966 51.8209 102.448C52.0781 102.931 52.3082 103.429 52.4884 103.937C52.672 104.442 52.8108 104.961 52.8954 105.482C52.9807 106.001 53.0102 106.525 52.9681 107.037C52.927 107.55 52.8159 108.051 52.6252 108.525L52.5548 108.702L52.4701 108.875C52.4404 108.931 52.415 108.992 52.3836 109.047L52.2869 109.215C52.1529 109.433 52.0018 109.644 51.8344 109.846C51.6652 110.043 51.4773 110.231 51.2772 110.405C51.0737 110.579 50.8545 110.737 50.6258 110.884C50.3963 111.033 50.1527 111.164 49.9012 111.285C49.6488 111.404 49.3867 111.508 49.1185 111.607L49.1086 111.611C48.8586 111.702 48.7283 111.979 48.8196 112.229C48.8998 112.453 49.1295 112.578 49.3571 112.536Z" fill="#1B1F2C"/>
<path d="M63.2108 78.8206C63.8368 78.9307 64.4872 78.9654 65.1446 78.9133C65.4726 78.8826 65.8017 78.8322 66.1278 78.7529C66.4527 78.6723 66.776 78.5694 67.0923 78.4389C67.406 78.3059 67.7089 78.1467 68.0009 77.9613L68.2152 77.8177C68.2848 77.7682 68.3531 77.7146 68.4201 77.6625L68.625 77.5046C68.6906 77.4485 68.7536 77.3898 68.8191 77.331C69.3294 76.8679 69.7606 76.3177 70.1013 75.724C70.4407 75.129 70.6911 74.4971 70.8698 73.8529C71.0459 73.2062 71.149 72.5512 71.2006 71.8982C71.2508 71.244 71.2349 70.5932 71.1859 69.9494C71.1654 69.6275 71.1224 69.3072 71.0795 68.9895L71.0004 68.5145C70.9737 68.3557 70.9377 68.201 70.9069 68.0436C70.7734 67.4168 70.6135 66.7982 70.4088 66.196C70.313 65.8921 70.1974 65.5978 70.0884 65.2967C69.9689 65.0037 69.856 64.7067 69.7233 64.4191C69.2137 63.2581 68.5855 62.1565 67.8784 61.1059C67.7023 60.844 67.5157 60.59 67.3317 60.3334C67.1372 60.0848 66.9506 59.8282 66.7482 59.5849C66.3526 59.0891 65.9255 58.6201 65.4865 58.1604C64.5956 57.2543 63.6338 56.407 62.5699 55.6794C61.5126 54.9478 60.365 54.316 59.1265 53.8538C57.8854 53.3995 56.5465 53.0951 55.1422 53.123C54.4434 53.1375 53.7282 53.2378 53.0341 53.4495C52.3426 53.6612 51.6734 53.9884 51.0807 54.4131C50.4867 54.8392 49.9679 55.3643 49.5543 55.9497C49.1406 56.5352 48.8267 57.1706 48.6017 57.8193C48.3781 58.472 48.2419 59.134 48.1692 59.7925C48.155 59.9557 48.1342 60.1204 48.1266 60.2849L48.1065 60.7757L48.1115 61.2622C48.1131 61.4253 48.128 61.5855 48.1363 61.7472C48.18 62.391 48.2672 63.0224 48.398 63.644C48.5327 64.2616 48.6978 64.8696 48.8972 65.464C49.1045 66.0557 49.3328 66.634 49.5941 67.1973C49.8593 67.7593 50.1377 68.3105 50.4568 68.8389C51.0793 69.9038 51.8057 70.8975 52.6068 71.818C52.7461 71.9792 52.9938 71.9956 53.1552 71.8554C53.3022 71.7298 53.3332 71.5203 53.2362 71.3611L53.2308 71.3533C52.9238 70.8498 52.6143 70.3542 52.3442 69.8343C52.2026 69.5798 52.0741 69.3171 51.9404 69.0598C51.8769 68.9279 51.8172 68.7945 51.7537 68.6652C51.6928 68.5331 51.6305 68.4025 51.5749 68.2678L51.4027 67.8689L51.2437 67.4673L51.1622 67.2659L51.0886 67.0617C51.0409 66.9269 50.9905 66.7921 50.9428 66.6573C50.7611 66.1113 50.598 65.5624 50.4639 65.0106C50.3364 64.4546 50.2315 63.8997 50.1596 63.3431C50.093 62.7864 50.0568 62.2306 50.0591 61.6808C50.0637 60.5814 50.2393 59.5046 50.6282 58.5617C50.8193 58.091 51.0677 57.6577 51.3696 57.2789C51.6689 56.9027 52.0204 56.5798 52.4149 56.322C53.1999 55.8053 54.1519 55.5677 55.1555 55.5781C56.1604 55.5923 57.2021 55.8376 58.2016 56.2267C59.1999 56.6277 60.1691 57.1566 61.0719 57.7982C61.9786 58.4358 62.828 59.1662 63.6133 59.9646C64.392 60.7696 65.1249 61.6292 65.7698 62.5517C65.9284 62.7836 66.0923 63.0129 66.243 63.2503C66.4003 63.4836 66.5417 63.725 66.6898 63.965C66.9728 64.4478 67.2426 64.9414 67.4847 65.4471C67.613 65.6966 67.7203 65.9542 67.8367 66.2078C67.9426 66.4668 68.0552 66.7244 68.1479 66.9861C68.3465 67.5069 68.516 68.036 68.6579 68.5719C68.8024 69.1079 68.9099 69.6496 68.9869 70.1904C69.0626 70.7325 69.1079 71.279 69.1029 71.8183C69.1018 72.3562 69.0543 72.8907 68.955 73.4089C68.857 73.9257 68.7047 74.4288 68.4897 74.8946C68.2747 75.363 67.9985 75.7954 67.6569 76.1747L67.53 76.3171L67.391 76.4505C67.3438 76.4932 67.2993 76.5411 67.2507 76.5825L67.1024 76.7068C66.9015 76.866 66.6872 77.0122 66.4608 77.1441C66.2344 77.2707 65.9933 77.383 65.7454 77.4784C65.4949 77.5712 65.2348 77.6443 64.9693 77.7044C64.7026 77.7658 64.4289 77.8049 64.1512 77.8323C63.8735 77.857 63.5916 77.8648 63.3056 77.8659L63.295 77.8661C63.029 77.8656 62.8114 78.0816 62.8115 78.3472C62.81 78.5853 62.9827 78.7816 63.2108 78.8206Z" fill="#1B1F2C"/>
<path d="M50.0446 91.2325C49.7454 90.7547 49.3972 90.3082 49.0173 89.8865C48.6356 89.464 48.2224 89.0704 47.7825 88.7039C46.9036 87.9734 45.9179 87.3652 44.878 86.8762C43.8397 86.3839 42.7408 86.0202 41.6199 85.7635C40.4961 85.5178 39.3461 85.3793 38.1923 85.3662C37.0384 85.3489 35.8788 85.4478 34.7409 85.6794C34.4566 85.7369 34.1726 85.8027 33.8914 85.8759C33.6104 85.9533 33.3295 86.0348 33.0532 86.1287C32.498 86.309 31.9561 86.5363 31.4262 86.7915C30.3745 87.3157 29.3789 87.9961 28.5637 88.8698C27.749 89.7335 27.126 90.7975 26.8689 91.9265C26.8215 92.139 26.9541 92.3478 27.1661 92.3953C27.3324 92.4306 27.4996 92.3557 27.5858 92.22L27.5897 92.2115C28.6909 90.4696 30.4035 89.4065 32.2593 88.7721C34.1209 88.1342 36.1298 87.9021 38.12 87.9548C40.1138 88.0131 42.0992 88.3648 43.993 89.0036C44.9395 89.3238 45.863 89.7218 46.7517 90.2006C47.1969 90.4383 47.632 90.6982 48.0595 90.9793C48.4878 91.2586 48.9077 91.5609 49.3248 91.8783L49.3309 91.8831C49.5462 92.0448 49.8528 92.0014 50.0175 91.788C50.1444 91.6214 50.1495 91.3982 50.0446 91.2325Z" fill="#1B1F2C"/>
<path d="M71.1664 59.0471C71.0494 58.4956 70.8756 57.9567 70.6634 57.4302C70.4499 56.9024 70.1968 56.3909 69.9094 55.8957C69.3346 54.9078 68.6175 53.9983 67.8085 53.1821C67.0022 52.3633 66.0948 51.6445 65.1301 51.0187C64.1588 50.4022 63.1262 49.8774 62.047 49.4691C60.9691 49.0568 59.846 48.7517 58.6977 48.5787C58.4109 48.5351 58.1216 48.4995 57.8324 48.4717C57.5418 48.4479 57.25 48.4281 56.9584 48.4214C56.3749 48.4002 55.788 48.4278 55.2028 48.4856C54.035 48.617 52.8663 48.9143 51.8009 49.4552C50.7393 49.9868 49.7891 50.7724 49.1601 51.7446C49.0427 51.9279 49.0956 52.1695 49.2784 52.2869C49.4224 52.3771 49.6052 52.3641 49.7328 52.2663L49.7394 52.2596C51.3714 51.0015 53.3448 50.5908 55.3056 50.6319C57.273 50.6715 59.2396 51.1431 61.0908 51.8757C62.9435 52.6147 64.6876 53.6265 66.2472 54.8765C67.0264 55.5021 67.7572 56.1929 68.4277 56.9477C68.7642 57.3238 69.0837 57.7172 69.3888 58.1279C69.6952 58.5373 69.9859 58.9653 70.2688 59.4066L70.2728 59.4132C70.4196 59.639 70.7225 59.7034 70.9503 59.5595C71.1268 59.4466 71.2081 59.2388 71.1664 59.0471Z" fill="#1B1F2C"/>
<path d="M66.1426 120.456C68.3513 120.315 70.5644 120.049 72.7754 119.657C88.2586 116.916 101.746 108.308 110.755 95.4196C117.746 85.4179 121.389 73.769 121.389 61.8134C121.389 58.3669 121.087 54.8889 120.474 51.4222C118.878 42.4254 115.305 34.0999 110.061 26.936C115.92 36.6759 118.966 47.8168 118.966 59.0629C118.966 62.3371 118.706 65.6248 118.182 68.8856L118.173 68.8811C114.761 67.639 110.431 70.9289 108.502 76.2285C107.88 77.9406 107.582 79.6549 107.582 81.2328C107.582 84.5316 108.88 87.2284 111.189 88.0699C111.348 88.1281 111.511 88.1774 111.675 88.2154C110.511 90.4019 109.204 92.5393 107.75 94.6184C97.5992 109.136 82.371 117.99 66.1426 120.456Z" fill="#FDFDFD"/>
</svg>
