<svg width="460" height="421" viewBox="0 0 460 421" fill="none" xmlns="http://www.w3.org/2000/svg">
<g clip-path="url(#clip0_596_11460)">
<rect y="0.998047" width="460" height="420" rx="8" fill="#818BD5"/>
<path d="M29.0135 562.566C91.9661 636.157 204.263 645.239 279.857 582.847C292.958 572.03 304.09 559.782 313.217 546.526C317.195 540.765 320.794 534.812 324.003 528.708C354.895 469.986 350.386 397.138 307.453 342.428C305.932 340.464 304.35 338.535 302.725 336.631C297.994 331.108 292.987 325.944 287.742 321.166C269.527 304.497 248.367 292.264 225.838 284.574C224.379 284.075 222.914 283.602 221.446 283.135C197.244 275.56 171.573 273.177 146.284 276.122C112.697 280.015 79.7913 293.309 51.8825 316.344C36.483 329.057 23.8018 343.749 13.8915 359.726C-24.8359 422.138 -21.117 503.963 29.0135 562.566Z" fill="#E1E1E1"/>
<path d="M79.1269 381.358C38.9814 363.481 56.5097 334.541 70.292 322.306C148.669 340.426 306.984 380.022 313.231 393.454C321.041 410.243 287.397 425.477 272.113 426.052C226.877 427.755 219.16 403.552 162.892 394.363C106.623 385.174 103.913 392.396 79.1269 381.358Z" fill="#B4B4B4"/>
<path d="M254.228 397.144C271.55 401.605 286.503 396.558 289.109 384.517C292.048 370.961 278.214 353.668 258.214 345.898C255.974 345.032 253.756 344.316 251.572 343.753C234.25 339.292 219.291 344.337 216.686 356.378C213.752 369.936 227.586 387.228 247.581 394.992C249.82 395.864 252.044 396.581 254.228 397.144Z" fill="#C5C5C5"/>
<path d="M247.739 393.65C264.937 401.012 279.659 399.683 280.614 390.686C281.575 381.69 268.405 368.432 251.207 361.07C234.008 353.714 219.292 355.045 218.337 364.042C217.376 373.037 230.546 386.296 247.739 393.65Z" fill="#E1E1E1"/>
<path d="M228.665 341.863C226.862 342.31 225.085 342.982 223.39 343.884C222.547 344.351 221.729 344.869 220.947 345.459C220.17 346.057 219.429 346.707 218.742 347.416C218.059 348.132 217.434 348.913 216.874 349.736L216.463 350.365C216.334 350.577 216.222 350.799 216.097 351.018L215.736 351.673C215.623 351.895 215.527 352.128 215.42 352.351C214.6 354.175 214.089 356.122 213.873 358.083C213.665 360.039 213.741 362 214.02 363.899C214.304 365.8 214.794 367.647 215.424 369.424C216.053 371.206 216.86 372.896 217.742 374.524C218.178 375.352 218.665 376.137 219.157 376.93L219.923 378.082C220.178 378.468 220.457 378.835 220.727 379.212C221.814 380.698 222.97 382.139 224.225 383.479C224.833 384.17 225.49 384.804 226.126 385.464C226.796 386.095 227.442 386.745 228.133 387.344C230.858 389.798 233.83 391.957 236.948 393.891C237.724 394.367 238.527 394.819 239.322 395.275C240.131 395.703 240.926 396.159 241.757 396.555C243.392 397.397 245.083 398.128 246.79 398.825C250.234 400.158 253.795 401.257 257.495 401.921C261.179 402.6 264.988 402.921 268.838 402.682C272.69 402.418 276.623 401.653 280.343 399.923C282.196 399.069 283.985 397.966 285.593 396.602C287.196 395.231 288.601 393.59 289.687 391.771C290.772 389.953 291.549 387.967 291.96 385.944C292.389 383.925 292.482 381.883 292.319 379.913C292.156 377.943 291.739 376.039 291.163 374.226C291.008 373.778 290.874 373.323 290.704 372.883L290.181 371.568L289.595 370.293C289.402 369.866 289.172 369.461 288.964 369.043C288.09 367.411 287.114 365.847 286.037 364.371C284.952 362.904 283.797 361.501 282.571 360.174C281.328 358.862 280.036 357.612 278.679 356.433C277.311 355.271 275.92 354.146 274.448 353.133C271.539 351.065 268.435 349.311 265.217 347.829C264.647 347.569 263.974 347.816 263.698 348.373C263.456 348.876 263.624 349.46 264.067 349.762L264.088 349.78C265.499 350.74 266.909 351.681 268.238 352.733C268.918 353.235 269.57 353.773 270.224 354.3C270.551 354.566 270.868 354.842 271.187 355.113C271.505 355.384 271.823 355.66 272.131 355.947L273.058 356.795L273.955 357.66L274.406 358.096L274.842 358.541C275.127 358.841 275.42 359.136 275.703 359.442C276.832 360.662 277.91 361.907 278.916 363.202C279.905 364.512 280.843 365.847 281.686 367.226C282.514 368.613 283.264 370.031 283.904 371.477C285.176 374.374 285.97 377.411 286.036 380.342C286.074 381.803 285.918 383.232 285.555 384.577C285.193 385.922 284.639 387.18 283.888 388.324C282.388 390.601 280.122 392.342 277.43 393.489C274.726 394.633 271.659 395.212 268.527 395.36C265.391 395.475 262.181 395.22 259.015 394.6C255.853 393.986 252.722 393.061 249.686 391.883C246.664 390.678 243.694 389.285 240.891 387.615C240.196 387.19 239.489 386.782 238.806 386.336C238.111 385.906 237.447 385.44 236.774 384.978C235.452 384.04 234.155 383.059 232.918 382.019C232.283 381.516 231.693 380.962 231.077 380.433C230.495 379.875 229.895 379.337 229.339 378.754C228.199 377.619 227.12 376.424 226.117 375.186C225.108 373.946 224.178 372.652 223.335 371.317C222.499 369.983 221.739 368.601 221.124 367.18C220.497 365.756 219.994 364.301 219.656 362.82C219.309 361.349 219.129 359.851 219.16 358.371C219.18 356.887 219.409 355.426 219.88 354.034L220.058 353.508L220.27 352.998C220.345 352.822 220.411 352.651 220.49 352.483L220.744 351.983C221.097 351.333 221.491 350.693 221.942 350.08C222.401 349.483 222.912 348.905 223.464 348.362C224.028 347.823 224.637 347.326 225.275 346.863C225.91 346.386 226.601 345.961 227.309 345.565C228.023 345.171 228.763 344.822 229.525 344.484L229.553 344.472C230.27 344.161 230.596 343.334 230.287 342.639C230.01 342.015 229.322 341.699 228.665 341.863Z" fill="#1B1F2C"/>
<path d="M230.815 403.041C231.777 404.36 232.871 405.573 234.061 406.709C235.243 407.849 236.526 408.893 237.873 409.857C240.574 411.788 243.558 413.338 246.678 414.535C249.799 415.745 253.065 416.569 256.386 417.087C259.705 417.567 263.08 417.735 266.451 417.546C269.815 417.36 273.172 416.847 276.45 415.956C277.271 415.732 278.086 415.488 278.896 415.219C279.701 414.943 280.5 414.647 281.292 414.331C282.876 413.698 284.417 412.934 285.913 412.092C288.888 410.378 291.662 408.22 293.875 405.548C296.094 402.902 297.714 399.72 298.254 396.417C298.353 395.801 297.925 395.226 297.301 395.137C296.807 395.064 296.34 395.313 296.11 395.719L296.098 395.741C293.209 400.972 288.412 404.37 283.118 406.562C277.807 408.774 271.994 409.84 266.184 410.085C260.354 410.312 254.506 409.705 248.871 408.241C246.044 407.512 243.287 406.553 240.609 405.354C239.262 404.759 237.948 404.093 236.648 403.377C235.349 402.655 234.073 401.872 232.791 401.046L232.777 401.03C232.118 400.606 231.227 400.794 230.795 401.445C230.452 401.949 230.483 402.586 230.815 403.041Z" fill="#1B1F2C"/>
<path d="M87.1924 344.875C88.6435 346.469 89.9203 348.184 91.0008 349.974C92.0545 351.784 92.9567 353.659 93.6085 355.602C94.9335 359.485 95.3804 363.572 95.0081 367.601C94.634 371.636 93.4938 375.599 91.7078 379.285C89.9332 382.98 87.5276 386.395 84.6542 389.399C81.7855 392.411 78.4518 395.025 74.8054 397.151C72.9617 398.173 71.0878 399.153 69.1232 399.93L67.644 400.527L66.1425 401.027C65.1465 401.402 64.1175 401.643 63.086 401.918C62.5732 402.07 62.0534 402.172 61.5335 402.274L59.9752 402.601L58.3898 402.823L57.5976 402.945C57.333 402.988 57.0642 402.995 56.805 403.018L55.2037 403.147C54.9408 403.183 54.6739 403.184 54.4069 403.184L53.6007 403.205L52.801 403.228C52.5323 403.235 52.2636 403.242 51.9955 403.222C51.4623 403.196 50.9273 403.176 50.3923 403.156C49.8453 403.154 49.3181 403.08 48.7856 403.026C48.2549 402.966 47.7122 402.923 47.1767 402.855L45.5817 402.583C45.3208 402.536 45.0433 402.5 44.7777 402.445L43.9946 402.257L42.407 401.883L40.8502 401.399L40.0583 401.168L39.2993 400.868C38.7916 400.675 38.2707 400.479 37.7481 400.289L37.6599 400.252C37.0801 400.04 36.4222 400.335 36.1973 400.915C36.006 401.4 36.1876 401.932 36.5992 402.218C37.084 402.544 37.5754 402.871 38.0685 403.192L38.818 403.677L39.5886 404.111L41.1648 404.953C41.7058 405.203 42.254 405.428 42.8034 405.673L43.6319 406.025C43.9093 406.138 44.1939 406.225 44.4749 406.325L46.1877 406.905C46.7634 407.081 47.3499 407.218 47.9329 407.368C48.5176 407.512 49.1035 407.677 49.7027 407.768C50.2965 407.88 50.892 407.984 51.4894 408.083C51.7896 408.139 52.0952 408.176 52.396 408.205L53.3032 408.3L54.2104 408.395C54.5178 408.426 54.8186 408.455 55.1201 408.456L56.9509 408.512C57.259 408.515 57.5616 408.537 57.8667 408.526L58.782 408.491L60.6228 408.41L62.4465 408.214C63.0562 408.142 63.6671 408.092 64.2698 407.97C69.1153 407.158 73.8639 405.587 78.2442 403.298C82.6274 401.022 86.6424 398.028 90.1041 394.476C91.8406 392.705 93.4113 390.773 94.825 388.725C96.2303 386.681 97.4363 384.496 98.4596 382.236C100.467 377.706 101.658 372.779 101.701 367.82C101.767 362.873 100.691 357.896 98.4745 353.534C98.2208 352.983 97.8974 352.456 97.5954 351.928C97.3084 351.397 96.9581 350.89 96.6293 350.383C96.3005 349.875 95.9298 349.392 95.5574 348.915C95.2018 348.428 94.8276 347.957 94.4199 347.506C93.628 346.595 92.7768 345.745 91.8749 344.951C90.9694 344.17 90.0316 343.43 89.034 342.778C88.3868 342.355 87.5093 342.531 87.0704 343.173C86.7014 343.716 86.767 344.412 87.1859 344.874L87.1924 344.875Z" fill="#1B1F2C"/>
<path d="M49.8599 395.437C58.7046 397.713 69.5002 394.217 77.1244 385.748C87.2731 374.465 87.9669 358.638 78.6581 350.387C76.3412 348.333 73.6248 346.946 70.6898 346.191C61.8451 343.914 51.0495 347.41 43.4253 355.88C33.27 367.161 32.5846 382.984 41.8934 391.234C44.2103 393.288 46.9249 394.681 49.8599 395.437Z" fill="#C5C5C5"/>
<path d="M47.6758 390.512C54.6197 394.557 64.5318 393.869 72.898 388.01C84.0368 380.207 88.2217 366.181 82.2456 356.679C81.399 355.339 80.3954 354.16 79.261 353.148C72.8948 352.312 65.7091 354.063 59.3172 358.525C48.0024 366.456 43.1986 380.212 47.6758 390.512Z" fill="#E1E1E1"/>
<path d="M47.6085 353.372C49.8275 352.283 52.1235 351.453 54.4543 350.904C56.7815 350.368 59.1435 350.115 61.4577 350.185C66.0879 350.32 70.5366 351.766 73.8456 354.424L74.4542 354.938L74.7612 355.185L75.0526 355.463C75.4267 355.826 75.7822 356.204 76.1208 356.593C76.4576 356.988 76.7756 357.399 77.0702 357.818C77.3713 358.238 77.6267 358.696 77.8941 359.136C78.8896 360.933 79.5313 362.905 79.77 364.949C80.0237 366.989 79.8396 369.099 79.3635 371.161C78.8658 373.225 78.0034 375.223 76.886 377.093C74.6296 380.833 71.2271 383.978 67.2558 386.135L66.51 386.545C66.2557 386.669 65.9983 386.778 65.7439 386.901L64.9711 387.256L64.1828 387.564L63.3927 387.879L62.5889 388.141C62.3171 388.225 62.0549 388.326 61.7802 388.395L60.9561 388.604C58.7638 389.139 56.4992 389.424 54.2434 389.348C51.987 389.3 49.7646 388.875 47.658 388.136C47.3939 388.04 47.1262 387.957 46.8705 387.857L46.108 387.513C45.5938 387.297 45.0971 387.043 44.6143 386.765C43.6451 386.221 42.7334 385.573 41.8785 384.849C40.1734 383.408 38.7318 381.609 37.6754 379.572C36.6173 377.542 35.9632 375.258 35.6995 372.872L35.6983 372.851C35.6349 372.239 35.0694 371.8 34.4449 371.877C33.9022 371.94 33.4905 372.374 33.4399 372.886C33.1574 375.552 33.4099 378.334 34.2871 380.962C35.1474 383.6 36.5946 386.066 38.5051 388.169C39.4585 389.226 40.5345 390.176 41.6895 391.019C42.2737 391.443 42.8615 391.853 43.4892 392.197L44.4318 392.734C44.7475 392.899 45.0753 393.046 45.3994 393.207C47.9984 394.443 50.8221 395.205 53.6932 395.517C59.4361 396.112 65.3526 394.967 70.528 392.384C70.8499 392.222 71.1832 392.069 71.5022 391.892L72.4392 391.356C72.7515 391.177 73.0704 391 73.3798 390.807L74.2898 390.215C75.4834 389.394 76.6435 388.516 77.7242 387.541C78.8098 386.573 79.8372 385.535 80.7798 384.419C81.7111 383.293 82.572 382.114 83.3446 380.87C84.1305 379.63 84.7948 378.316 85.3654 376.957C85.9276 375.603 86.3977 374.197 86.7355 372.758C87.4045 369.876 87.5656 366.857 87.1463 363.885C86.7016 360.927 85.6558 358.038 84.0655 355.5C82.4848 352.978 80.3495 350.741 77.9031 349.109C75.4666 347.418 72.7108 346.26 69.8899 345.59C69.5428 345.487 69.1829 345.429 68.8315 345.367L67.7621 345.183C67.4076 345.105 67.047 345.076 66.6931 345.048L65.6216 344.947C64.1919 344.859 62.7632 344.87 61.345 344.995C55.692 345.501 50.3394 347.702 46.0874 351.069C45.4781 351.549 45.3753 352.426 45.8621 353.021C46.2793 353.534 47.0002 353.671 47.5832 353.387L47.6085 353.372Z" fill="#1B1F2C"/>
<path d="M13.6073 373.005C26.3756 655.108 240.93 603.961 317.405 517.965C316.084 522.841 299.275 553.227 268.782 583.47C238.288 613.713 165.743 634.554 104.206 614.763C42.6686 594.972 17.4254 555.184 -6.17465 496.67C-25.0547 449.859 -0.85339 394.722 13.6073 373.005Z" fill="#C5C5C5"/>
<path d="M140.26 477.465C140.676 478.157 141.157 478.831 141.697 479.475C150.57 490.052 173.104 490.13 192.03 479.652C209.796 469.815 218.069 454.172 211.675 443.545C211.255 442.848 210.777 442.179 210.237 441.534C201.365 430.958 178.831 430.879 159.912 441.36C142.139 451.195 133.866 466.837 140.26 477.465Z" fill="#C5C5C5"/>
<path d="M160.88 442.136C144.18 450.637 135.938 462.635 142.465 468.931C148.992 475.227 167.828 473.436 184.523 464.938C201.223 456.437 209.468 444.444 202.934 438.146C196.407 431.85 177.576 433.638 160.88 442.136Z" fill="#E1E1E1"/>
<path d="M29.0183 562.57C91.971 636.161 204.267 645.243 279.862 582.851C292.963 572.034 304.095 559.786 313.221 546.529C317.2 540.768 320.799 534.816 324.008 528.712C354.9 469.99 350.391 397.142 307.458 342.432C305.937 340.468 304.355 338.539 302.729 336.635C297.999 331.111 292.992 325.948 287.747 321.17C269.532 304.5 248.372 292.268 225.842 284.578C224.384 284.078 222.919 283.605 221.451 283.139C197.249 275.563 171.577 273.181 146.289 276.125C112.702 280.019 79.7962 293.313 51.8874 316.348C36.4879 329.061 23.8067 343.752 13.8964 359.73C-24.831 422.141 -21.1121 503.966 29.0183 562.57" stroke="#1B1F2C" stroke-width="2"/>
<path d="M214.076 459.781C214.862 458.136 215.454 456.368 215.805 454.516C215.967 453.589 216.074 452.644 216.098 451.686C216.116 450.73 216.07 449.763 215.941 448.794C215.803 447.83 215.582 446.878 215.28 445.935L215.036 445.238C214.949 445.01 214.849 444.782 214.753 444.558L214.461 443.877C214.352 443.654 214.234 443.437 214.118 443.213C213.195 441.464 211.966 439.868 210.545 438.49C209.12 437.114 207.522 435.957 205.836 434.989C204.14 434.025 202.366 433.257 200.558 432.633C198.745 432.011 196.892 431.574 195.034 431.234C194.108 431.052 193.17 430.934 192.238 430.818L190.835 430.685C190.365 430.642 189.9 430.627 189.432 430.596C187.557 430.501 185.686 430.485 183.828 430.605C182.895 430.645 181.975 430.746 181.041 430.824C180.122 430.937 179.196 431.029 178.282 431.183C174.611 431.731 171.018 432.65 167.51 433.824C166.635 434.116 165.775 434.443 164.91 434.761C164.059 435.114 163.192 435.439 162.35 435.818C160.648 436.543 158.997 437.374 157.363 438.245C154.124 440.033 150.998 442.06 148.133 444.457C145.261 446.832 142.603 449.531 140.356 452.605C138.129 455.692 136.252 459.16 135.265 463.054C134.776 464.992 134.517 467.038 134.59 469.109C134.664 471.173 135.081 473.26 135.833 475.208C136.588 477.161 137.679 478.98 139.021 480.553C140.363 482.126 141.923 483.461 143.587 484.561C145.263 485.66 147.032 486.524 148.84 487.211C149.291 487.371 149.741 487.55 150.2 487.692L151.573 488.11L152.953 488.456C153.416 488.572 153.88 488.649 154.344 488.745C156.198 489.101 158.05 489.326 159.908 489.425C161.757 489.509 163.602 489.503 165.435 489.392C167.265 489.257 169.074 489.055 170.866 488.75C172.657 488.434 174.427 488.073 176.164 487.583C179.648 486.653 183.011 485.384 186.222 483.854C186.784 483.589 187.018 482.918 186.744 482.369C186.5 481.871 185.931 481.631 185.407 481.781L185.381 481.79C183.724 482.265 182.087 482.752 180.412 483.113C179.584 483.316 178.744 483.476 177.915 483.655C177.493 483.733 177.071 483.799 176.657 483.878C176.237 483.949 175.82 484.024 175.397 484.078L174.138 484.258L172.881 484.4L172.25 484.476L171.616 484.528C171.199 484.56 170.779 484.6 170.362 484.632C168.68 484.729 167.003 484.774 165.341 484.736C163.671 484.677 162.022 484.557 160.393 484.344C158.768 484.117 157.168 483.806 155.615 483.393C152.509 482.569 149.596 481.289 147.224 479.52C146.038 478.646 145.001 477.64 144.158 476.528C143.321 475.425 142.675 474.217 142.245 472.938C141.379 470.392 141.429 467.591 142.22 464.83C143.023 462.069 144.507 459.378 146.366 456.908C148.258 454.451 150.489 452.169 152.989 450.153C155.481 448.123 158.191 446.32 161.045 444.744C163.913 443.191 166.901 441.804 169.999 440.707C170.776 440.441 171.549 440.159 172.335 439.918C173.114 439.657 173.904 439.445 174.695 439.214C176.276 438.79 177.876 438.41 179.491 438.116C180.294 437.946 181.104 437.841 181.909 437.707C182.722 437.606 183.536 437.486 184.347 437.424C185.971 437.261 187.596 437.184 189.22 437.189C190.845 437.186 192.459 437.29 194.047 437.477C195.638 437.668 197.218 437.947 198.74 438.359C200.26 438.759 201.737 439.285 203.127 439.942C204.514 440.593 205.822 441.385 206.976 442.322C208.138 443.261 209.151 444.342 209.965 445.564L210.272 446.02L210.543 446.502C210.628 446.663 210.73 446.821 210.811 446.986L211.05 447.487C211.347 448.159 211.598 448.857 211.8 449.579C211.986 450.297 212.121 451.045 212.202 451.799C212.275 452.559 212.284 453.33 212.253 454.106C212.224 454.888 212.127 455.671 211.994 456.457C211.853 457.242 211.661 458.025 211.447 458.814L211.44 458.844C211.237 459.577 211.682 460.337 212.434 460.533C213.106 460.713 213.792 460.381 214.076 459.781Z" fill="#1B1F2C"/>
<path d="M164.171 423.215C162.523 423.13 160.867 423.212 159.216 423.408C157.561 423.607 155.923 423.927 154.304 424.354C151.074 425.21 147.957 426.516 145.035 428.144C142.107 429.763 139.386 431.734 136.883 433.932C134.403 436.156 132.135 438.616 130.161 441.29C128.177 443.959 126.462 446.831 125.102 449.87C124.761 450.628 124.44 451.4 124.142 452.177C123.855 452.961 123.577 453.751 123.337 454.55C122.834 456.144 122.467 457.783 122.187 459.439C121.672 462.757 121.627 466.2 122.348 469.537C123.046 472.858 124.547 476.059 126.82 478.511C127.249 478.97 127.973 479.003 128.443 478.586C128.808 478.255 128.91 477.741 128.73 477.317L128.716 477.294C126.396 471.864 126.731 466.118 128.335 460.741C129.94 455.345 132.766 450.269 136.243 445.705C139.739 441.142 143.924 437.079 148.643 433.701C151.003 432.014 153.512 430.509 156.155 429.217C157.474 428.567 158.83 427.976 160.223 427.438C161.613 426.896 163.044 426.41 164.507 425.956L164.529 425.95C165.279 425.712 165.691 424.924 165.457 424.189C165.271 423.619 164.745 423.241 164.171 423.215Z" fill="#1B1F2C"/>
<path d="M333.362 482.568C334.664 476.334 335.615 469.997 336.211 463.574C340.389 418.597 326.481 374.874 297.048 340.45C274.208 313.739 244.145 295.115 210.413 286.378C200.689 283.86 190.644 282.157 180.391 281.326C153.78 279.18 127.541 283.015 103.295 292.332C135.282 283.189 169.059 282.877 200.788 291.095C210.026 293.488 219.102 296.61 227.899 300.447L227.88 300.468C221.75 309.032 227.7 323.455 241.169 332.681C245.52 335.659 250.128 337.738 254.58 338.891C263.887 341.301 272.495 339.669 276.646 333.875C276.932 333.476 277.197 333.059 277.43 332.633C282.704 337.461 287.728 342.65 292.475 348.206C325.627 386.988 338.89 435.723 333.362 482.568Z" fill="#FDFDFD"/>
<path d="M289.661 307.027C274.758 304.952 260.252 301.634 260.252 301.634C260.252 301.634 262.889 263.794 268.671 235.084C272.964 213.813 278.98 197.558 286.928 205.426C290.585 209.047 294.291 215.041 297.86 222.35C311.243 249.776 322.616 295.744 321.542 304.395C320.851 309.957 305.049 309.159 289.661 307.027Z" fill="#E1E1E1"/>
<path d="M283.286 205.88C282.829 205.761 282.54 205.868 282.384 205.927C280.533 206.615 274.005 212.186 267.765 255.019C264.938 274.415 263.335 293.569 262.855 299.737C266.955 300.626 276.704 302.656 287.02 304.204C310.965 307.794 317.109 305.731 318.638 304.678C319.063 304.386 319.084 304.205 319.095 304.13C319.677 299.414 315.722 279.747 308.903 257.987C301.005 232.789 292.353 214.253 285.167 207.139C284.35 206.33 283.737 205.996 283.286 205.88ZM257.648 303.533L257.789 301.498C257.805 301.267 259.446 278.019 262.887 254.398C264.915 240.472 267.165 229.125 269.574 220.669C272.864 209.119 276.392 202.998 280.676 201.409C282.557 200.71 285.472 200.543 288.681 203.72C299.252 214.189 308.84 241.301 313.612 256.531C316.795 266.689 319.617 277.23 321.557 286.212C322.921 292.542 324.453 300.882 323.984 304.67C323.847 305.77 323.296 307.35 321.446 308.625C318.77 310.469 314.057 311.232 306.622 311.031C301.168 310.882 294.298 310.191 286.206 308.977C272.504 306.92 259.792 304.024 259.665 303.995L257.648 303.533Z" fill="#1B1F2C"/>
<path d="M213.012 184.388L204.039 205.428L198.935 217.389L188.043 242.93C188.043 242.93 180.341 245.591 168.576 246.235C164.182 246.48 159.212 246.43 153.867 245.855C145.132 244.924 135.389 242.568 125.462 237.733C99.9299 225.284 89.1787 201.329 84.9058 189.575C76.6422 166.892 75.9889 161.167 82.0024 154.074C86.5996 148.636 91.8502 148.783 91.8502 148.783C91.8502 148.783 92.9759 143.779 97.4417 143.051C110.824 140.873 122.284 158.91 122.284 158.91C122.284 158.91 127.049 143.937 134.311 149.559C139.313 153.435 136.034 170.23 136.034 170.23C136.034 170.23 140.98 181.818 152.714 186.225C158.848 188.527 168.091 188.99 177.5 188.619C177.608 188.616 177.72 188.614 177.829 188.605C182.847 188.397 187.895 187.96 192.552 187.438C194.639 187.208 196.649 186.956 198.539 186.704C206.984 185.577 213.012 184.388 213.012 184.388Z" fill="#E1E1E1"/>
<path d="M123.334 233.761C107.175 224.777 94.7313 209.248 87.2234 188.62C81.8434 173.84 79.9862 166.8 80.5764 162.168C81.3001 165.203 82.3548 168.626 83.5967 172.59C84.5464 175.622 85.897 182.721 94.9918 195.797C99.9687 202.951 113.854 218.1 135.66 224.762C133.963 227.209 132.225 229.252 130.46 230.88C128.56 230.7 126.637 231.178 125.027 232.254C124.388 232.683 123.82 233.192 123.334 233.761ZM155.762 237.323L134.32 231.77C135.308 230.732 136.279 229.579 137.234 228.316C137.851 227.498 138.467 226.63 139.073 225.718C145.095 227.249 151.682 228.121 158.801 228.016C159.781 228.002 160.688 227.915 161.533 227.767C161.343 228.039 161.154 228.313 160.966 228.587C160.357 229.483 159.762 230.389 159.185 231.304C158.613 232.222 158.039 233.141 157.525 234.091C156.999 235.037 156.487 235.988 155.969 236.937C155.9 237.065 155.832 237.194 155.762 237.323Z" fill="#C5C5C5"/>
<path d="M91.7708 151.206C91.4408 151.208 87.5071 151.337 83.8939 155.609C79.0286 161.359 78.7207 165.366 87.2318 188.744C95.2331 210.722 108.837 226.911 126.576 235.558C142.738 243.437 158.41 244.387 168.712 243.798C177.445 243.299 183.828 241.656 186.212 240.957L208.982 187.565C204.615 188.302 197.507 189.397 189.65 190.178C172.164 191.915 159.435 191.347 151.815 188.488C139.248 183.772 133.973 171.698 133.756 171.185C133.569 170.748 133.519 170.265 133.609 169.797C133.617 169.758 134.402 165.677 134.583 161.223C134.886 153.712 133.274 151.86 132.773 151.471C131.516 150.5 130.797 150.719 130.525 150.805C128.181 151.525 125.669 156.39 124.634 159.616C124.343 160.522 123.544 161.183 122.585 161.31C121.629 161.435 120.689 161.004 120.181 160.203C120.075 160.039 109.422 143.555 97.8242 145.445C95.1521 145.879 94.3162 149.063 94.2589 149.294C94.0075 150.47 92.9887 151.264 91.7708 151.206ZM140.679 245.92C135.033 244.458 129.565 242.445 124.347 239.902C112.871 234.306 103.058 225.858 95.1851 214.792C90.1177 207.667 85.8767 199.464 82.5797 190.41C78.5568 179.358 76.1325 171.854 75.6446 166.205C75.177 160.793 76.4698 156.831 80.1055 152.534C83.686 148.301 87.695 146.967 90.0104 146.55C91.0321 144.163 93.2268 141.289 97.057 140.666C107.94 138.893 117.287 148.419 121.694 153.93C121.826 153.668 121.964 153.399 122.109 153.129C124.149 149.318 126.495 146.981 129.081 146.184C130.669 145.694 133.132 145.551 135.853 147.66C138.612 149.799 139.81 154.302 139.515 161.43C139.363 165.08 138.853 168.413 138.601 169.883C139.765 172.193 144.502 180.542 153.615 183.961C170.248 190.204 212.119 182.095 212.541 182.012C213.435 181.837 214.348 182.156 214.923 182.845C215.496 183.534 215.633 184.478 215.281 185.304L190.319 243.84C190.046 244.48 189.51 244.975 188.845 245.207C188.522 245.318 180.787 247.957 168.956 248.633C162.025 249.03 155.108 248.669 148.4 247.556C145.795 247.124 143.218 246.577 140.679 245.92Z" fill="#1B1F2C"/>
<path d="M124.024 159.474C123.899 160.144 123.633 160.716 123.357 161.199C123.217 161.449 123.071 161.658 122.922 161.874C122.776 162.073 122.621 162.275 122.473 162.454C121.869 163.186 121.277 163.766 120.708 164.334C120.139 164.896 119.593 165.43 119.074 165.971L118.69 166.379C118.566 166.517 118.438 166.653 118.317 166.793L117.959 167.218L117.611 167.649L117.279 168.096L116.96 168.552C116.852 168.704 116.759 168.864 116.657 169.021C116.554 169.177 116.461 169.34 116.367 169.501C115.994 170.151 115.639 170.832 115.345 171.546C115.043 172.261 114.769 173.002 114.539 173.768C114.412 174.151 114.312 174.541 114.2 174.934C114.138 175.129 114.101 175.33 114.047 175.529C113.996 175.729 113.948 175.929 113.89 176.131L113.886 176.145C113.843 176.301 113.681 176.394 113.524 176.352C113.413 176.323 113.335 176.236 113.312 176.133C113.134 175.309 112.999 174.466 112.951 173.609C112.888 172.751 112.914 171.882 112.999 171.007C113.172 169.256 113.671 167.484 114.468 165.835L114.779 165.223C114.888 165.023 115.003 164.826 115.116 164.625C115.232 164.429 115.353 164.238 115.471 164.043C115.592 163.848 115.722 163.665 115.849 163.475C116.361 162.729 116.93 162.041 117.497 161.405C118.06 160.769 118.638 160.18 119.114 159.662C119.612 159.142 119.934 158.7 120.117 158.461L120.501 157.966C121.166 157.106 122.411 156.933 123.28 157.58C123.893 158.034 124.155 158.777 124.024 159.474Z" fill="#1B1F2C"/>
<path d="M122.567 238.481C121.97 238.326 121.485 237.85 121.356 237.213C121.176 236.316 121.769 235.44 122.683 235.254C130.136 233.739 137.398 224.862 143.682 209.579C148.552 197.736 151.083 186.203 151.109 186.087C151.302 185.191 152.198 184.612 153.108 184.795C154.015 184.978 154.6 185.855 154.406 186.752C154.381 186.87 151.799 198.648 146.824 210.759C143.88 217.924 140.678 223.82 137.309 228.287C132.948 234.066 128.246 237.502 123.338 238.499C123.073 238.554 122.811 238.544 122.567 238.481Z" fill="#1B1F2C"/>
<path d="M283.163 348.916L126.14 308.267C126.14 308.267 134.487 281.873 154.371 246.07C162.346 231.709 172.176 215.84 184.069 199.55C186.926 195.639 189.904 191.705 193.001 187.756C201.651 176.742 211.252 165.654 221.865 154.83L279.673 169.794C282.639 181.784 284.915 193.591 286.624 205.08C287.731 212.511 288.602 219.804 289.268 226.919C292.181 257.941 291.261 285.637 289.36 306.769C287.009 332.837 283.163 348.916 283.163 348.916Z" fill="#E1E1E1"/>
<path d="M288.519 248.188C290.618 252.294 290.927 256.518 291.129 260.732C291.228 262.84 291.323 264.95 291.384 267.062C291.415 268.116 291.456 269.172 291.451 270.228C291.457 271.284 291.454 272.34 291.451 273.396L291.422 276.563C291.408 277.621 291.399 278.675 291.369 279.731L291.156 286.065C291.114 287.12 291.097 288.176 291.052 289.231L290.909 292.397L290.787 295.561C290.751 296.618 290.72 297.672 290.666 298.727L290.368 305.057C290.325 306.112 290.249 307.167 290.186 308.221L289.992 311.383L289.895 312.965L289.845 313.756L289.787 314.546L289.551 317.707C289.471 318.76 289.398 319.815 289.337 320.869C289.265 321.925 289.194 322.98 289.134 324.034C288.935 328.26 288.477 332.473 287.62 336.641C287.516 337.162 287.413 337.682 287.298 338.203L286.938 339.76C286.687 340.797 286.432 341.831 286.132 342.862C285.841 343.892 285.53 344.918 285.177 345.939C284.83 346.959 284.455 347.973 284.008 348.978C283.921 349.171 283.694 349.262 283.497 349.178C283.364 349.121 283.282 349 283.267 348.867L283.266 348.862C283.062 346.714 282.995 344.592 282.962 342.478C282.951 341.423 282.95 340.367 282.958 339.315L282.987 337.739C283.003 337.214 283.017 336.69 283.027 336.164C283.089 334.065 283.211 331.976 283.376 329.89C283.465 328.847 283.575 327.806 283.697 326.766C283.808 325.724 283.933 324.685 284.051 323.644C284.175 322.603 284.289 321.563 284.402 320.52C284.503 319.477 284.585 318.434 284.662 317.389L284.897 314.257L284.956 313.473L285.006 312.69L285.102 311.121L285.295 307.986C285.355 306.94 285.43 305.896 285.473 304.849L285.768 298.572C285.825 297.526 285.846 296.479 285.88 295.433L285.961 292.292L286.02 289.151C286.034 288.627 286.029 288.104 286.034 287.582L286.035 286.01L286.03 279.73C286.007 277.636 285.972 275.544 285.964 273.451C285.96 272.404 285.957 271.36 285.962 270.313L285.966 269.527L285.958 268.742L285.95 267.172C285.939 265.08 285.96 262.985 285.988 260.892L286.02 259.319C286.029 258.795 286.025 258.272 286.027 257.749C286.035 256.701 286.089 255.652 286.2 254.599C286.314 253.546 286.483 252.491 286.727 251.43C286.849 250.9 286.994 250.368 287.162 249.835C287.332 249.3 287.517 248.767 287.768 248.227L287.779 248.206C287.873 248.002 288.117 247.913 288.323 248.005C288.412 248.044 288.479 248.109 288.519 248.188Z" fill="#1B1F2C"/>
<path d="M125.761 307.601C125.666 307.011 125.647 306.444 125.638 305.877C125.628 305.308 125.656 304.757 125.7 304.205C125.781 303.099 125.958 302.026 126.184 300.966C126.3 300.438 126.425 299.911 126.569 299.393C126.714 298.874 126.878 298.363 127.046 297.852L127.562 296.326C127.733 295.817 127.908 295.309 128.093 294.803C128.826 292.784 129.552 290.762 130.365 288.775C130.76 287.775 131.165 286.782 131.572 285.787C131.772 285.29 131.993 284.8 132.206 284.307L132.848 282.83L134.156 279.884C134.597 278.905 135.066 277.939 135.521 276.966C136.443 275.026 137.343 273.074 138.311 271.158C139.269 269.235 140.193 267.297 141.161 265.381C142.133 263.466 143.094 261.546 144.05 259.625C144.291 259.145 144.523 258.661 144.771 258.184L145.518 256.757L147.007 253.9L148.497 251.045C148.622 250.807 148.743 250.568 148.872 250.333L149.259 249.627L150.032 248.213L153.129 242.563C153.384 242.089 153.652 241.623 153.919 241.158C154.182 240.69 154.447 240.222 154.706 239.752C155.222 238.811 155.741 237.868 156.249 236.923C156.762 235.978 157.269 235.031 157.792 234.091C158.302 233.145 158.87 232.23 159.438 231.317C160.011 230.406 160.601 229.505 161.205 228.613C161.811 227.723 162.435 226.843 163.063 225.965L164.02 224.66C164.18 224.442 164.349 224.23 164.517 224.019C164.686 223.806 164.85 223.592 165.023 223.383C165.703 222.539 166.392 221.702 167.103 220.877C167.811 220.052 168.534 219.238 169.281 218.44C170.027 217.642 170.788 216.853 171.6 216.102C171.756 215.957 172 215.962 172.146 216.115C172.246 216.218 172.273 216.365 172.231 216.494L172.23 216.498C170.827 220.667 168.911 224.484 167.006 228.304C166.526 229.255 166.04 230.202 165.537 231.139C165.031 232.076 164.511 233.002 163.975 233.919C162.884 235.743 161.791 237.568 160.674 239.378C160.117 240.284 159.568 241.193 159.018 242.103C158.74 242.56 158.474 243.017 158.203 243.477C157.936 243.936 157.665 244.394 157.414 244.862L154.35 250.454L153.585 251.851L153.201 252.549C153.076 252.784 152.956 253.02 152.831 253.255L151.358 256.081L149.885 258.906L149.147 260.318C148.901 260.789 148.673 261.268 148.432 261.743C144.563 269.309 141.21 277.112 137.895 284.906L136.637 287.824C136.226 288.799 135.816 289.776 135.394 290.749L132.884 296.584C132.456 297.553 132.053 298.53 131.638 299.504C131.427 299.99 131.212 300.475 130.978 300.952C130.745 301.431 130.516 301.908 130.263 302.38C129.759 303.323 129.2 304.25 128.59 305.16C128.286 305.615 127.948 306.064 127.607 306.507C127.262 306.951 126.896 307.392 126.478 307.815L126.473 307.82C126.312 307.984 126.047 307.989 125.882 307.831C125.814 307.766 125.774 307.686 125.761 307.601Z" fill="#1B1F2C"/>
<path d="M180.654 286.01C170.691 287.257 157.011 282.913 147.856 279.333C142.365 277.186 139.808 270.999 142.187 265.649C144.359 260.768 149.927 258.252 155.073 259.842C163.816 262.545 177.045 266.175 185.966 266.519L180.654 286.01Z" fill="white"/>
<path d="M153.955 262.06C150.111 261.065 146.081 262.972 144.462 266.613C143.579 268.598 143.547 270.789 144.375 272.781C145.199 274.767 146.77 276.298 148.8 277.092C161.89 282.208 173.102 284.526 180.374 283.614C182.533 283.343 183.949 280.388 184.459 279.13C186.239 274.729 185.999 270.174 185.402 268.932C176.38 268.486 163.562 265.021 154.325 262.167C154.201 262.127 154.078 262.092 153.955 262.06ZM161.447 286.372C156.256 285.027 151.21 283.269 146.936 281.598C143.662 280.318 141.126 277.848 139.798 274.644C138.464 271.434 138.513 267.905 139.937 264.707C141.231 261.791 143.568 259.455 146.511 258.126C149.458 256.798 152.773 256.588 155.846 257.539C168.724 261.52 179.467 263.852 186.096 264.107C187.427 264.159 190.547 264.955 190.775 271.254C191.005 277.654 188.045 287.536 180.957 288.424C175.113 289.156 168.158 288.11 161.447 286.372Z" fill="#1B1F2C"/>
<path d="M249.57 304.173C257.551 310.069 271.646 312.92 281.424 314.245C287.29 315.039 292.705 310.918 293.413 305.135C294.056 299.858 290.535 294.987 285.255 293.876C276.287 291.99 262.95 288.74 255.049 284.726L249.57 304.173Z" fill="white"/>
<path d="M254.306 287.078C253.145 287.865 250.581 291.694 249.849 296.366C249.638 297.7 249.336 300.945 251.067 302.223C256.891 306.528 267.801 309.941 281.786 311.837C283.953 312.13 286.104 311.564 287.845 310.243C289.592 308.918 290.7 307.006 290.961 304.86C291.457 300.799 288.775 297.095 284.718 296.241C275.242 294.247 262.351 291.053 254.306 287.078ZM266.033 313.761C259.321 312.023 252.756 309.566 248.074 306.107C242.396 301.913 244.943 291.923 248.453 286.493C251.905 281.147 255.023 281.965 256.2 282.564C262.074 285.548 272.583 288.721 285.795 291.498C288.948 292.162 291.71 293.945 293.575 296.52C295.437 299.092 296.25 302.245 295.867 305.396C295.444 308.853 293.663 311.934 290.847 314.07C288.039 316.202 284.565 317.114 281.068 316.641C276.503 316.022 271.223 315.106 266.033 313.761Z" fill="#1B1F2C"/>
<path d="M260.042 278.985L251.399 310.157C249.796 315.94 243.67 319.428 237.79 317.905L179.416 302.789C173.543 301.269 170.042 295.289 171.646 289.505L180.288 258.333C181.892 252.55 188.016 249.07 193.889 250.591L252.263 265.707C255.723 266.603 258.359 269.044 259.619 272.078C260.497 274.196 260.702 276.607 260.042 278.985Z" fill="white"/>
<path d="M193.245 252.938C188.664 251.752 183.923 254.449 182.674 258.953L174.031 290.125C172.782 294.629 175.491 299.259 180.072 300.445L238.443 315.559C243.024 316.745 247.765 314.045 249.014 309.541L257.658 278.369C258.907 273.864 256.196 269.238 251.616 268.052L193.245 252.938ZM237.144 320.243L178.773 305.129C171.567 303.263 167.302 295.979 169.267 288.892L177.91 257.719C179.875 250.633 187.338 246.385 194.544 248.251L252.916 263.365C260.122 265.231 264.387 272.516 262.422 279.602L253.778 310.775C251.813 317.862 244.351 322.109 237.144 320.243Z" fill="#1B1F2C"/>
<path d="M245.792 292.064C244.405 297.063 239.16 300.048 234.075 298.732C228.991 297.416 225.991 292.296 227.377 287.297C228.764 282.298 234.012 279.312 239.096 280.628C244.181 281.944 247.178 287.065 245.792 292.064Z" fill="#22A7F0"/>
<path d="M238.611 282.386C234.518 281.327 230.28 283.737 229.164 287.761C228.047 291.786 230.47 295.92 234.564 296.98C238.655 298.039 242.893 295.629 244.009 291.604C245.125 287.58 242.703 283.446 238.611 282.386ZM233.59 300.489C227.529 298.92 223.943 292.797 225.596 286.838C227.248 280.88 233.523 277.308 239.584 278.877C245.646 280.446 249.231 286.571 247.579 292.528C245.926 298.488 239.652 302.058 233.59 300.489Z" fill="#1B1F2C"/>
<path d="M202.652 310.528C201.673 310.273 201.094 309.285 201.362 308.317L207.241 287.06L198.026 275.444L204.14 253.336C204.407 252.37 205.419 251.793 206.4 252.047C207.377 252.301 207.956 253.292 207.689 254.257L202.057 274.62L211.272 286.235L204.911 309.239C204.643 310.206 203.632 310.782 202.652 310.528Z" fill="#1B1F2C"/>
<path d="M205.356 327.088C215.7 329.771 226.69 328.57 236.32 323.856C249.658 317.327 270.846 310.911 288.866 323.229C296.096 328.171 300.11 334.833 302.235 341.607C317.907 322.167 338.42 326.08 343.701 340.774C343.701 340.774 309.974 405.893 304.771 406.187C297.319 406.608 281.511 400.03 281.511 400.03C281.511 400.03 226.411 377.551 193.74 369.073C161.068 360.595 101.743 353.382 101.743 353.382C101.743 353.382 84.6578 351.426 78.4226 347.453C74.0694 344.679 78.4803 271.953 78.4803 271.953C90.6394 261.784 110.426 268.328 113.963 292.753C119.297 287.915 126.216 284.089 135.028 283.31C156.993 281.368 172.031 297.184 180.211 309.297C186.115 318.042 195.013 324.404 205.356 327.088Z" fill="#E1E1E1"/>
<path d="M296.666 402.469C292.237 401.316 287.473 399.61 284.42 398.416C284.7 397.815 284.933 397.186 285.114 396.53C286.116 392.9 284.407 389.184 281.208 387.478L288.362 371.329C289.059 371.72 289.431 371.931 289.431 371.931C289.431 371.931 294.566 374.075 300.36 375.842C299.407 378.201 298.565 380.527 297.864 382.782C297.853 382.779 297.839 382.775 297.828 382.772C296.82 382.51 295.753 383.047 295.382 384.034C294.987 385.079 295.527 386.233 296.582 386.612L296.783 386.684C295.579 391.681 295.261 396.145 296.266 399.538C296.269 399.546 296.271 399.555 296.274 399.563C296.273 399.564 296.275 399.566 296.275 399.567C296.276 399.573 296.279 399.579 296.282 399.587C296.283 399.59 296.282 399.593 296.284 399.596C296.285 399.602 296.288 399.607 296.289 399.613C296.29 399.617 296.291 399.622 296.293 399.625C296.294 399.629 296.296 399.632 296.297 399.637C296.298 399.643 296.299 399.649 296.302 399.655C296.304 399.657 296.303 399.659 296.304 399.663C296.307 399.67 296.308 399.677 296.31 399.685C296.31 399.685 296.31 399.685 296.312 399.687C296.674 400.855 297.196 401.891 297.899 402.777C297.491 402.679 297.081 402.577 296.666 402.469ZM87.5343 348.026C87.1195 347.918 86.7111 347.807 86.3089 347.694C87.4681 347.23 88.5356 346.506 89.5189 345.558C89.5207 345.557 89.521 345.556 89.5228 345.555C89.5266 345.55 89.5325 345.545 89.5381 345.539C89.5398 345.538 89.5422 345.535 89.544 345.534C89.5478 345.531 89.5534 345.525 89.5558 345.522C89.5596 345.518 89.5631 345.515 89.5669 345.512C89.5705 345.509 89.5708 345.507 89.5746 345.504C89.5799 345.5 89.584 345.496 89.5885 345.49C89.5902 345.489 89.5902 345.489 89.5921 345.486C89.5979 345.481 89.6035 345.476 89.6098 345.469L89.6115 345.468C92.1204 343.002 94.0723 339.071 95.5571 334.299L95.7683 334.335C96.878 334.519 97.937 333.781 98.1351 332.685C98.3222 331.649 97.6733 330.666 96.6639 330.404C96.6522 330.401 96.6402 330.397 96.6285 330.394C97.182 328.102 97.6493 325.678 98.038 323.171C103.967 324.456 109.512 325.093 109.512 325.093C109.512 325.093 110.221 325.088 111.527 325.091L109.388 342.748C105.742 342.673 102.349 345.061 101.348 348.69C101.176 349.316 101.057 349.943 100.987 350.566C97.7877 350.15 92.3251 349.273 87.5343 348.026Z" fill="#C5C5C5"/>
<path d="M86.3343 353.028C82.7465 352.097 79.3145 350.923 77.068 349.492C75.5363 348.516 74.6308 346.313 74.2314 337.482C73.9978 332.312 73.9709 325.193 74.1543 316.317C74.4826 300.34 75.4113 282.567 75.7956 275.667C75.9967 272.055 78.1124 268.815 81.3176 267.21C87.4716 264.13 94.5655 264.17 100.782 267.32C104.699 269.304 108.161 272.5 110.792 276.562C112.97 279.926 114.591 283.842 115.627 288.243C121.382 283.985 127.823 281.518 134.829 280.9C142.767 280.197 150.467 281.648 157.718 285.208C163.572 288.084 169.154 292.346 174.308 297.877C175.226 298.862 175.152 300.4 174.141 301.311C173.131 302.223 171.566 302.162 170.648 301.178C160.04 289.795 148.123 284.602 135.228 285.742C127.957 286.383 121.364 289.344 115.631 294.542C114.955 295.154 113.989 295.352 113.128 295.055C112.266 294.758 111.645 294.016 111.515 293.123C110.038 282.921 105.289 275.091 98.4857 271.645C93.6954 269.218 88.2445 269.179 83.531 271.539C81.9095 272.349 80.838 274.017 80.734 275.892C80.3716 282.402 79.4899 299.22 79.1341 314.701C78.9396 323.211 78.9279 330.171 79.1 335.39C79.3411 342.695 79.8953 344.965 80.1343 345.62C85.1138 348.505 97.5672 350.448 102.053 350.963L102.069 350.966C102.665 351.038 161.932 358.294 194.387 366.714C226.841 375.134 281.916 397.544 282.467 397.769L282.483 397.776C286.633 399.501 298.423 403.847 304.224 403.759C304.761 403.316 306.364 401.669 310.201 395.715C312.966 391.422 316.453 385.575 320.563 378.335C327.895 365.424 335.417 351.261 339.248 343.967C340.503 341.577 340.259 338.73 338.625 336.714C335.504 332.863 330.903 330.762 325.661 330.797C318.155 330.845 310.517 335.216 304.156 343.103C303.584 343.813 302.663 344.156 301.761 343.995C300.861 343.835 300.128 343.197 299.86 342.339C297.58 335.062 293.396 329.306 287.431 325.231C276.761 317.938 263.635 316.707 248.41 321.569C247.109 321.985 245.72 321.287 245.307 320.01C244.896 318.735 245.617 317.362 246.921 316.947C254.299 314.59 261.389 313.555 267.999 313.87C276.21 314.261 283.705 316.737 290.279 321.232C296.028 325.158 300.332 330.413 303.115 336.888C309.866 329.844 317.759 325.986 325.672 325.934C332.352 325.891 338.489 328.708 342.503 333.664C345.342 337.167 345.788 342.076 343.639 346.167C339.579 353.895 331.636 368.844 324.042 382.146C319.734 389.687 316.134 395.652 313.339 399.873C308.572 407.075 306.688 408.494 304.879 408.597C296.982 409.044 281.331 402.59 280.531 402.259C279.669 401.907 225.124 379.727 193.086 371.415C161.043 363.101 102.357 355.904 101.427 355.791C100.859 355.726 93.3044 354.836 86.3343 353.028Z" fill="#1B1F2C"/>
<path d="M300.821 405.152L305.047 406.248C310.005 407.533 315.296 405.835 318.55 401.9C328.736 389.602 348.75 361.966 343.128 340.478C342.966 339.851 342.776 339.239 342.558 338.644C342.558 338.644 334.761 326.675 323.674 337.876C313.318 348.337 284.183 397.002 300.821 405.152Z" fill="#AFAFB2"/>
<path d="M317.287 345.65C319.673 342.284 321.843 339.593 323.52 337.899C321.846 339.591 319.678 342.284 317.294 345.643C317.291 345.645 317.29 345.647 317.287 345.65Z" fill="white"/>
<path d="M344.12 348.075C344.112 347.422 344.084 346.774 344.038 346.128L344.038 346.127C344.085 346.773 344.112 347.422 344.12 348.075Z" fill="#FFE9DE"/>
<path d="M344.018 346.132C343.885 344.257 343.594 342.413 343.124 340.612C343.597 342.413 343.888 344.257 344.018 346.131L344.018 346.132Z" fill="#C3BAC7"/>
<path d="M343.488 355.298C343.24 353.085 342.743 350.905 341.961 348.768C341.728 348.121 341.454 347.487 341.156 346.868C341.156 346.868 337.652 342.536 332.163 341.115C328.284 340.111 323.409 340.562 318.087 345.034C317.836 345.242 317.574 345.47 317.306 345.714C319.702 342.343 321.879 339.64 323.561 337.943C328.174 333.286 332.219 332.621 335.375 333.438C339.838 334.594 342.525 338.713 342.525 338.713C342.743 339.31 342.933 339.924 343.098 340.553C343.57 342.36 343.864 344.211 343.995 346.091C344.042 346.74 344.068 347.389 344.077 348.045C344.107 350.43 343.896 352.856 343.488 355.298Z" fill="#E7E7E8"/>
<path d="M343.094 356.687C342.986 356.659 342.878 356.621 342.775 356.575L317.892 345.518C316.869 345.064 316.422 343.877 316.893 342.867C317.365 341.855 318.575 341.406 319.597 341.86L344.481 352.917C345.503 353.372 345.95 354.56 345.479 355.57C345.058 356.476 344.038 356.932 343.094 356.687Z" fill="#1B1F2C"/>
<path d="M339.161 370.395C339.075 370.373 338.989 370.344 338.901 370.309L309.517 358.34C308.48 357.918 307.995 356.745 308.434 355.72C308.869 354.695 310.066 354.206 311.105 354.629L340.489 366.597C341.529 367.02 342.014 368.193 341.575 369.218C341.173 370.159 340.132 370.648 339.161 370.395Z" fill="#1B1F2C"/>
<path d="M332.773 383.154C332.695 383.133 332.616 383.107 332.536 383.077L302.604 371.293C301.562 370.882 301.062 369.714 301.488 368.684C301.916 367.654 303.105 367.15 304.149 367.562L334.081 379.346C335.123 379.757 335.623 380.925 335.197 381.955C334.801 382.906 333.754 383.409 332.773 383.154Z" fill="#1B1F2C"/>
<path d="M323.836 396.554C323.779 396.539 323.717 396.52 323.661 396.5L296.655 386.839C295.599 386.461 295.059 385.309 295.453 384.266C295.847 383.223 297.022 382.683 298.077 383.061L325.083 392.722C326.138 393.101 326.676 394.252 326.282 395.295C325.912 396.28 324.844 396.816 323.836 396.554Z" fill="#1B1F2C"/>
<path d="M296.407 399.717C296.405 399.715 296.405 399.715 296.405 399.715L296.407 399.717ZM296.4 399.693C296.398 399.69 296.399 399.687 296.397 399.685C296.398 399.689 296.398 399.689 296.4 399.693ZM296.392 399.668C296.391 399.663 296.39 399.66 296.388 399.656C296.39 399.66 296.391 399.665 296.392 399.668ZM296.385 399.644C296.384 399.638 296.38 399.633 296.38 399.627C296.38 399.633 296.384 399.638 296.385 399.644ZM296.377 399.619C296.375 399.611 296.372 399.605 296.371 399.599C296.372 399.605 296.374 399.612 296.377 399.619ZM296.37 399.594C296.367 399.587 296.365 399.578 296.362 399.571C296.364 399.579 296.367 399.586 296.37 399.594ZM296.362 399.571C295.367 396.218 295.68 391.808 296.873 386.872C295.682 391.81 295.367 396.218 296.362 399.571Z" fill="#8C7B94"/>
<path d="M305.077 406.213L300.839 405.116C298.596 404.017 297.182 402.186 296.443 399.814L296.441 399.812C296.44 399.805 296.438 399.796 296.434 399.79C296.433 399.785 296.433 399.785 296.431 399.782C296.43 399.776 296.427 399.77 296.426 399.764C296.427 399.762 296.426 399.757 296.424 399.753C296.423 399.748 296.421 399.745 296.42 399.74C296.419 399.735 296.418 399.73 296.417 399.724C296.415 399.721 296.413 399.718 296.412 399.715C296.411 399.709 296.408 399.701 296.407 399.696C296.407 399.694 296.405 399.693 296.405 399.691C296.403 399.682 296.399 399.676 296.399 399.668C295.397 396.305 295.714 391.885 296.913 386.933L304.73 389.719C305.536 390.45 306.491 391.073 307.607 391.577L312.657 392.884C313.369 393.069 314.085 393.209 314.797 393.307L323.075 396.256C321.473 398.356 319.962 400.238 318.621 401.859C315.357 405.8 310.052 407.501 305.077 406.213ZM325.529 392.954C325.383 392.851 325.219 392.766 325.042 392.702L323.744 392.24C325.312 391.59 326.729 390.692 327.923 389.567C327.118 390.735 326.319 391.867 325.529 392.954ZM301.631 384.36L298.129 383.112C298.082 383.096 298.037 383.082 297.99 383.068C299.127 379.43 300.645 375.599 302.392 371.754C301.134 376.502 300.745 380.849 301.631 384.36Z" fill="#949494"/>
<path d="M323.106 396.301L314.804 393.333C317.956 393.767 321.084 393.377 323.78 392.257L325.081 392.723C325.261 392.788 325.425 392.873 325.571 392.976C324.735 394.135 323.909 395.246 323.106 396.301ZM304.702 389.719L296.858 386.915C297.162 385.648 297.526 384.348 297.939 383.022C297.987 383.036 298.032 383.05 298.078 383.067L301.591 384.323C302.128 386.462 303.137 388.294 304.702 389.719Z" fill="#1B1F2C"/>
<path d="M301.556 403.287L305.57 404.327C309.757 405.412 314.232 403.972 316.975 400.659C322.175 394.378 329.515 384.616 334.949 373.771C341.394 360.894 343.488 349.864 341.163 340.987C341.038 340.503 340.892 340.025 340.732 339.563C340.161 338.783 337.515 335.447 333.744 335.106C330.991 334.856 328.089 336.251 325.116 339.254C321.2 343.211 313.655 353.961 307.39 366.092C300.239 379.936 296.91 391.194 298.016 397.795C298.464 400.473 299.623 402.273 301.556 403.287ZM304.503 408.177L300.276 407.082C300.142 407.047 300.016 407.001 299.891 406.94C296.669 405.362 294.691 402.512 294.014 398.473C292.419 388.951 298.443 374.642 303.778 364.316C310.293 351.695 317.988 340.766 322.22 336.491C326.111 332.561 330.139 330.763 334.189 331.144C340.405 331.731 344.112 337.32 344.267 337.558C344.348 337.683 344.416 337.816 344.466 337.955C344.703 338.606 344.914 339.282 345.092 339.966C347.663 349.788 345.473 361.745 338.584 375.502C332.983 386.687 325.447 396.712 320.111 403.152C316.36 407.69 310.232 409.662 304.503 408.177Z" fill="#1B1F2C"/>
<path d="M82.6999 347.895L78.4444 346.781C73.4468 345.472 69.7001 341.429 68.8865 336.449C66.3284 320.873 63.0921 287.275 79.0842 271.475C79.5501 271.014 80.0318 270.579 80.5289 270.171C80.5289 270.171 93.5131 263.645 97.4229 278.712C101.077 292.785 101.44 348.972 82.6999 347.895Z" fill="#AFAFB2"/>
<path d="M98.8743 288.439C98.8737 288.436 98.8718 288.433 98.8715 288.429C98.5196 284.368 98.0145 280.988 97.4224 278.712C98.0177 280.992 98.5228 284.371 98.8743 288.439Z" fill="white"/>
<path d="M74.3291 277.528C74.6815 276.952 75.0494 276.386 75.4329 275.834C75.4329 275.834 75.433 275.835 75.4331 275.835C75.0498 276.386 74.6817 276.952 74.3291 277.528Z" fill="#FFE9DE"/>
<path d="M75.4319 275.837C75.4318 275.837 75.4316 275.837 75.4316 275.837C76.5198 274.269 77.733 272.808 79.084 271.475C77.7332 272.809 76.5202 274.27 75.4319 275.837Z" fill="#C3BAC7"/>
<path d="M71.1641 283.965C72.0507 281.7 73.0972 279.54 74.326 277.529C74.6784 276.953 75.0463 276.388 75.4294 275.836C76.5177 274.27 77.7307 272.809 79.0815 271.475C79.5474 271.013 80.029 270.578 80.5261 270.17C80.5261 270.17 84.9807 267.932 89.4569 269.104C92.6235 269.933 95.8011 272.469 97.4201 278.711C98.0121 280.988 98.5173 284.367 98.8692 288.429C98.7621 288.09 98.652 287.768 98.5403 287.467C96.2064 281.038 92.1991 278.284 88.3061 277.265C82.8002 275.823 77.5244 277.846 77.5244 277.846C76.9461 278.234 76.3843 278.647 75.8487 279.09C74.0684 280.548 72.5158 282.182 71.1641 283.965Z" fill="#E7E7E8"/>
<path d="M70.8421 285.379C69.8965 285.132 69.2447 284.247 69.3411 283.267C69.4488 282.174 70.4449 281.374 71.5664 281.479L98.8369 284.067C99.9577 284.174 100.78 285.145 100.671 286.239C100.564 287.332 99.5677 288.132 98.4469 288.025L71.1762 285.438C71.0615 285.427 70.9498 285.407 70.8421 285.379Z" fill="#1B1F2C"/>
<path d="M67.2354 299.171C66.264 298.917 65.6103 297.995 65.7421 296.995C65.8854 295.906 66.9071 295.137 68.024 295.279L99.6604 299.273C100.779 299.413 101.567 300.412 101.423 301.501C101.281 302.59 100.259 303.359 99.142 303.217L67.5054 299.223C67.413 299.211 67.3228 299.194 67.2354 299.171Z" fill="#1B1F2C"/>
<path d="M66.2384 313.347C65.257 313.09 64.6035 312.153 64.748 311.147C64.9044 310.06 65.9354 309.304 67.0508 309.457L99.065 313.876C100.18 314.03 100.958 315.036 100.801 316.124C100.645 317.211 99.614 317.968 98.4989 317.814L66.4841 313.396C66.4004 313.383 66.3181 313.367 66.2384 313.347Z" fill="#1B1F2C"/>
<path d="M67.1268 329.32C66.1194 329.056 65.4649 328.08 65.6464 327.059C65.8389 325.977 66.8934 325.253 68.0033 325.44L96.3877 330.26C97.4985 330.449 98.2412 331.478 98.0501 332.561C97.8577 333.642 96.8032 334.367 95.6933 334.179L67.3089 329.359C67.2471 329.349 67.1859 329.335 67.1268 329.32Z" fill="#1B1F2C"/>
<path d="M89.5059 345.239C89.5075 345.238 89.5079 345.237 89.5095 345.236C89.5079 345.237 89.5075 345.238 89.5059 345.239ZM89.525 345.221C89.527 345.218 89.5286 345.218 89.5307 345.215C89.529 345.216 89.5266 345.22 89.525 345.221ZM89.5424 345.203C89.5461 345.2 89.5498 345.197 89.5534 345.194C89.5498 345.197 89.5461 345.2 89.5424 345.203ZM89.5612 345.186C89.5652 345.182 89.5709 345.176 89.5749 345.172C89.5705 345.178 89.5665 345.182 89.5612 345.186ZM89.5786 345.169C89.5843 345.163 89.59 345.158 89.596 345.151C89.59 345.158 89.5843 345.163 89.5786 345.169ZM89.5977 345.151C92.0926 342.726 94.0216 338.853 95.483 334.144C94.0233 338.852 92.0926 342.726 89.5977 345.151Z" fill="#8C7B94"/>
<path d="M82.6996 347.895L78.4441 346.781C73.4465 345.472 69.6998 341.429 68.8862 336.449C68.5509 334.401 68.2042 332.046 67.8901 329.459L76.6169 330.941C77.29 331.203 77.9863 331.43 78.7008 331.617L83.7733 332.946C85.0036 333.054 86.1567 332.981 87.2355 332.743L95.4822 334.144C94.0208 338.853 92.0918 342.725 89.5969 345.15C89.5965 345.152 89.5966 345.152 89.5952 345.151C89.5892 345.158 89.5835 345.163 89.5778 345.169C89.5774 345.17 89.5754 345.172 89.5741 345.172C89.5701 345.176 89.5644 345.182 89.5604 345.186C89.5583 345.188 89.5547 345.192 89.5526 345.194C89.549 345.197 89.5453 345.2 89.5416 345.203C89.5376 345.208 89.5339 345.211 89.5299 345.215C89.5278 345.217 89.5262 345.218 89.5242 345.221C89.5185 345.226 89.5144 345.23 89.5088 345.236C89.5071 345.237 89.5067 345.238 89.5051 345.239C87.5843 347.069 85.3301 348.046 82.6996 347.895ZM67.4487 325.421C67.3219 324.102 67.206 322.738 67.1089 321.341C67.5669 322.89 68.3427 324.353 69.374 325.674L68.0033 325.441C67.8162 325.41 67.6293 325.404 67.4487 325.421ZM92.6966 329.635C95.2745 327.041 97.1735 323.108 98.5217 318.407C98.0663 322.568 97.4155 326.605 96.533 330.291C96.4854 330.28 96.4361 330.27 96.3878 330.261L92.6966 329.635Z" fill="#949494"/>
<path d="M67.8891 329.457C67.7322 328.165 67.5828 326.816 67.4477 325.419C67.6284 325.402 67.8153 325.408 68.0024 325.439L69.3731 325.672C71.1387 327.935 73.6556 329.784 76.616 330.939L67.8891 329.457ZM87.2345 332.741C89.3244 332.281 91.1348 331.203 92.6957 329.633L96.3868 330.259C96.4351 330.267 96.4844 330.278 96.5321 330.289C96.2127 331.623 95.8625 332.91 95.4813 334.142L87.2345 332.741Z" fill="#1B1F2C"/>
<path d="M81.6471 271.853C81.2678 272.174 80.8957 272.514 80.5366 272.869C73.9286 279.397 70.0685 289.932 69.0622 304.182C68.2144 316.185 69.5924 328.182 70.8978 336.134C71.5845 340.33 74.7523 343.753 78.9697 344.857L83.0111 345.916C85.2212 345.982 87.1603 344.994 88.9347 342.902C93.303 337.747 96.201 326.412 97.0917 310.985C97.8741 297.468 96.8273 284.517 95.4456 279.195C94.3965 275.156 92.5816 272.538 90.0495 271.413C86.5819 269.873 82.5573 271.455 81.6471 271.853ZM82.172 349.813L77.9165 348.699C72.1453 347.187 67.8106 342.501 66.8713 336.757C65.5314 328.603 64.119 316.282 64.993 303.904C66.0685 288.679 70.3203 277.297 77.6305 270.075C78.1381 269.573 78.6714 269.091 79.2134 268.647C79.3298 268.551 79.4564 268.469 79.5914 268.401C79.8493 268.271 85.9701 265.256 91.7008 267.777C95.4363 269.423 98.0274 272.936 99.3991 278.223C100.891 283.972 101.977 297.15 101.165 311.213C100.499 322.721 98.3832 338 92.08 345.437C89.406 348.592 86.2103 350.087 82.5808 349.878C82.4421 349.87 82.3059 349.848 82.172 349.813Z" fill="#1B1F2C"/>
<path d="M131.218 358.72C130.938 358.646 130.672 358.508 130.444 358.303C129.689 357.625 129.64 356.481 130.334 355.746C141.638 343.768 146.046 328.123 143.436 309.244C141.467 295.006 136.022 284.19 135.967 284.083C135.512 283.188 135.885 282.103 136.802 281.659C137.719 281.215 138.831 281.58 139.288 282.475C139.522 282.932 145.03 293.85 147.097 308.656C148.316 317.392 148.067 325.656 146.356 333.219C144.205 342.727 139.733 351.131 133.064 358.198C132.582 358.71 131.864 358.889 131.218 358.72Z" fill="#1B1F2C"/>
<path d="M253.977 390.956C253.337 390.79 252.815 390.288 252.663 389.609C250.566 380.238 251.039 370.772 254.065 361.47C256.47 354.072 260.488 346.773 266.006 339.776C275.356 327.917 285.663 321.101 286.097 320.818C286.947 320.262 288.087 320.484 288.644 321.314C289.203 322.143 288.967 323.267 288.119 323.824C288.017 323.891 277.817 330.647 268.839 342.06C256.94 357.194 252.706 372.92 256.257 388.802C256.475 389.776 255.847 390.746 254.855 390.97C254.554 391.037 254.254 391.028 253.977 390.956Z" fill="#1B1F2C"/>
<path d="M289.362 227.287C289.157 225.092 288.929 222.88 288.685 220.651C290.189 220.139 291.679 219.589 293.155 219.002C293.955 220.48 294.762 222.057 295.574 223.726C293.537 224.996 291.464 226.186 289.362 227.287Z" fill="#949494"/>
<path d="M295.571 223.746C294.761 222.078 293.951 220.5 293.151 219.023C293.919 218.719 294.679 218.405 295.44 218.081C296.183 219.462 296.922 220.909 297.657 222.408C296.966 222.864 296.27 223.311 295.571 223.746Z" fill="#1B1F2C"/>
<path d="M183.674 199.465C182.001 196.811 180.454 194.054 179.04 191.205C180.251 191.148 181.495 191.077 182.767 190.989C184.02 192.509 185.32 193.987 186.666 195.42C185.654 196.771 184.656 198.119 183.674 199.465Z" fill="#949494"/>
<path d="M179.003 191.212C178.613 190.426 178.232 189.633 177.864 188.833C178.873 188.791 179.882 188.74 180.889 188.68C181.493 189.463 182.108 190.233 182.736 190.995C181.464 191.084 180.217 191.156 179.003 191.212Z" fill="#1B1F2C"/>
<path d="M230.737 234.648C218.723 231.529 208.09 225.659 199.159 217.73C193.263 212.487 188.113 206.351 183.807 199.515C184.793 198.163 185.792 196.808 186.807 195.448C191.129 200.073 195.922 204.257 201.151 207.965C210.601 214.665 221.105 219.536 232.426 222.476C233.568 222.772 234.721 223.051 235.879 223.307C248.521 226.112 261.364 226.392 274.055 224.14C279.04 223.255 283.916 221.998 288.661 220.373C288.907 222.617 289.133 224.844 289.339 227.052C282.607 230.589 275.563 233.255 268.352 234.944C256.166 237.807 243.5 237.898 231.063 234.732C230.955 234.704 230.845 234.676 230.737 234.648Z" fill="#C5C5C5"/>
<path d="M342.323 173.927C341.291 173.774 340.587 172.826 340.753 171.808L349.401 118.827C349.568 117.809 350.538 117.112 351.573 117.266C362.409 118.881 369.785 128.832 368.047 139.488L365.096 157.554C363.357 168.21 353.161 175.542 342.323 173.927Z" fill="#E1E1E1"/>
<path d="M353.543 118.139C352.878 117.966 352.196 117.826 351.499 117.723C351.124 117.665 350.746 117.758 350.437 117.981C350.127 118.201 349.925 118.528 349.863 118.896L341.216 171.882C341.154 172.25 341.243 172.62 341.467 172.922C341.691 173.223 342.022 173.42 342.397 173.478C347.519 174.239 352.649 172.997 356.85 169.977C361.048 166.958 363.814 162.522 364.637 157.489L367.587 139.423C369.17 129.717 362.977 120.584 353.543 118.139ZM341.998 174.334C341.478 174.2 341.03 173.897 340.711 173.467C340.34 172.969 340.192 172.356 340.291 171.744L348.941 118.759C349.042 118.148 349.376 117.607 349.888 117.241C350.399 116.872 351.025 116.722 351.647 116.816C362.722 118.466 370.286 128.67 368.507 139.56L365.559 157.626C364.697 162.902 361.799 167.552 357.396 170.717C352.994 173.88 347.615 175.185 342.249 174.384L342.324 173.93L342.249 174.384C342.165 174.37 342.08 174.356 341.998 174.334Z" fill="#1B1F2C"/>
<path d="M344.615 171.574C346.479 167.663 348.071 163.62 349.379 159.461C354.683 159.341 359.618 157.138 363.206 153.55L362.617 157.157C361.885 161.642 359.42 165.593 355.677 168.282C352.431 170.613 348.56 171.754 344.615 171.574Z" fill="#C5C5C5"/>
<path d="M351.854 119.906L343.43 171.501C347.754 171.973 352.049 170.846 355.598 168.295C359.34 165.606 361.803 161.659 362.533 157.177L365.483 139.107C366.956 130.087 360.882 121.619 351.854 119.906ZM342.732 171.41L342.73 171.41L342.732 171.41ZM341.429 176.362C340.442 176.107 339.584 175.535 338.977 174.714C338.272 173.765 337.988 172.601 338.18 171.433L346.831 118.442C347.022 117.277 347.662 116.25 348.634 115.549C349.609 114.851 350.797 114.562 351.985 114.74C364.222 116.564 372.584 127.838 370.62 139.874L367.67 157.944C366.719 163.773 363.514 168.908 358.648 172.406C353.781 175.905 347.838 177.344 341.906 176.461C341.743 176.436 341.585 176.403 341.429 176.362Z" fill="#1B1F2C"/>
<path d="M172.373 89.8502C173.407 90.0029 174.109 90.9513 173.944 91.9663L165.296 144.95C165.131 145.965 164.159 146.665 163.126 146.51C152.288 144.895 144.913 134.944 146.652 124.288L149.601 106.223C151.341 95.5646 161.536 88.2332 172.373 89.8502Z" fill="#E1E1E1"/>
<path d="M172.448 90.3353C172.398 90.3225 172.348 90.3118 172.298 90.3034C161.731 88.7276 151.754 95.9009 150.059 106.292L147.109 124.358C145.413 134.748 152.629 144.483 163.197 146.059C163.974 146.175 164.707 145.647 164.832 144.882L173.48 91.8998C173.597 91.1862 173.141 90.515 172.448 90.3353ZM160.906 146.529C151.015 143.968 144.526 134.394 146.188 124.22L149.136 106.154C150.913 95.264 161.37 87.7443 172.446 89.3955L172.372 89.8494L172.446 89.3955C173.731 89.5874 174.608 90.7728 174.404 92.0356L165.754 145.02C165.547 146.284 164.335 147.156 163.048 146.964C162.319 146.858 161.604 146.71 160.906 146.529Z" fill="#1B1F2C"/>
<path d="M161.792 143.603C153.368 141.422 147.841 133.278 149.255 124.624L149.829 121.112C152.261 125.283 156.254 128.536 161.167 130.008C161.054 134.551 161.279 139.093 161.845 143.617C161.828 143.612 161.81 143.607 161.792 143.603Z" fill="#C5C5C5"/>
<path d="M171.265 92.2791C162.118 91.2849 153.633 97.5813 152.161 106.602L149.21 124.674C147.738 133.692 153.812 142.16 162.841 143.874L171.265 92.2791ZM160.343 148.56C149.412 145.728 142.24 135.149 144.075 123.907L147.025 105.837C148.99 93.8037 160.547 85.4948 172.787 87.319C175.234 87.6854 176.908 89.9379 176.514 92.3463L167.863 145.336C167.47 147.745 165.159 149.405 162.711 149.041C161.905 148.92 161.113 148.759 160.343 148.56Z" fill="#1B1F2C"/>
<path d="M348.191 151.986C336.44 201.291 286.244 232.262 236.075 221.165C185.908 210.066 154.769 161.1 166.522 111.796C178.275 62.4945 228.472 31.5201 278.639 42.6185C328.805 53.7167 359.945 102.682 348.191 151.986Z" fill="#E1E1E1"/>
<path d="M281.825 43.8544C280.737 43.5727 279.645 43.3098 278.538 43.0656C228.704 32.041 178.662 62.917 166.985 111.896C161.328 135.622 165.412 160.008 178.483 180.562C190.948 200.163 210.168 214.042 232.862 219.917C233.963 220.202 235.072 220.468 236.188 220.714C260.331 226.056 285.227 221.837 306.297 208.836C327.368 195.837 342.085 175.61 347.741 151.884C359.158 103.994 329.725 56.2541 281.825 43.8544ZM232.608 220.803C221.572 217.947 211.331 213.211 202.12 206.7C192.327 199.775 184.106 191.146 177.686 181.052C171.267 170.956 166.972 159.907 164.92 148.205C162.798 136.09 163.184 123.807 166.072 111.694C168.959 99.5839 174.175 88.3644 181.571 78.3584C188.717 68.6907 197.587 60.5524 207.935 54.1679C218.283 47.7833 229.589 43.4716 241.536 41.3599C253.907 39.169 266.428 39.4426 278.752 42.1675C291.076 44.8953 302.465 49.9111 312.605 57.0803C322.399 64.005 330.622 72.633 337.039 82.7282C343.461 92.8222 347.755 103.874 349.806 115.576C351.93 127.688 351.541 139.974 348.655 152.087C345.766 164.199 340.552 175.414 333.154 185.422C326.008 195.09 317.14 203.229 306.791 209.613C296.444 215.998 285.14 220.307 273.189 222.421C260.821 224.61 248.298 224.337 235.974 221.611C234.845 221.362 233.722 221.092 232.608 220.803Z" fill="#1B1F2C"/>
<path d="M233.739 217.665C214.02 212.541 196.977 201.228 184.85 185.286C187.464 187.548 190.301 189.786 193.28 191.92C202.158 198.272 215.932 206.382 233.112 210.846C235.117 211.367 237.168 211.838 239.262 212.251C260.821 216.504 279.631 214.444 291.614 211.971C294.655 211.341 297.615 210.611 300.442 209.798C280.976 220.183 258.675 223.263 236.999 218.45C235.903 218.207 234.818 217.946 233.739 217.665Z" fill="#949494"/>
<path d="M281.255 45.8847C280.192 45.6094 279.126 45.3534 278.044 45.1131C229.357 34.3434 180.469 64.5075 169.062 112.358C163.536 135.537 167.526 159.36 180.295 179.439C192.474 198.59 211.251 212.148 233.422 217.889C234.497 218.167 235.579 218.426 236.671 218.668C260.255 223.886 284.58 219.763 305.163 207.064C325.747 194.361 340.126 174.602 345.653 151.423C356.807 104.637 328.053 57.9991 281.255 45.8847ZM232.038 222.834C220.75 219.911 210.276 215.067 200.853 208.406C190.836 201.323 182.427 192.499 175.862 182.174C169.297 171.85 164.905 160.547 162.806 148.579C160.633 136.186 161.03 123.623 163.984 111.234C166.936 98.8469 172.271 87.3747 179.837 77.1375C187.145 67.2476 196.217 58.925 206.801 52.3941C217.384 45.863 228.948 41.4561 241.168 39.2941C253.822 37.0544 266.63 37.3344 279.234 40.1211C291.839 42.9107 303.488 48.0406 313.862 55.3743C323.879 62.4567 332.288 71.2827 338.851 81.6064C345.418 91.9308 349.81 103.234 351.91 115.203C354.081 127.595 353.686 140.159 350.732 152.548C347.778 164.934 342.445 176.407 334.877 186.646C327.569 196.533 318.497 204.858 307.913 211.387C297.332 217.918 285.767 222.324 273.546 224.487C260.892 226.727 248.085 226.448 235.48 223.658C234.326 223.404 233.177 223.129 232.038 222.834Z" fill="#1B1F2C"/>
<path d="M347.463 154.194C343.565 171.734 334.151 186.828 321.248 198.263C311.574 206.837 277.104 218.236 239.322 210.814C204.289 203.931 176.547 179.067 171.364 167.438C164.449 151.925 162.274 134.45 166.173 116.907C176.489 70.4893 221.347 59.5926 271.409 69.8886C321.474 80.185 357.777 107.775 347.463 154.194Z" fill="#303441"/>
<path d="M280.202 73.7399C277.224 72.9689 274.166 72.2596 271.026 71.6141C245.033 66.2668 222.038 67.0135 204.529 73.7702C184.978 81.3138 172.663 95.9477 167.924 117.271C164.233 133.882 165.99 150.979 173.007 166.722C175.096 171.406 182.163 180.175 195.211 189.479C204.811 196.326 220.319 205.284 239.688 209.089C260.6 213.195 278.846 211.206 290.472 208.815C306.048 205.611 316.139 200.426 320.048 196.963C333.143 185.359 342.015 170.444 345.708 153.834C350.447 132.513 345.427 114.311 330.793 99.7376C319.269 88.2603 301.896 79.3562 280.202 73.7399ZM232.821 211.141C215.681 206.704 201.94 198.647 193.086 192.333C181.874 184.339 172.702 174.847 169.719 168.156C162.399 151.735 160.567 133.89 164.42 116.55C166.977 105.045 171.737 95.2349 178.568 87.3961C184.998 80.0193 193.299 74.331 203.242 70.495C221.407 63.4856 245.111 62.6832 271.792 68.1689C298.471 73.6565 319.762 83.7158 333.359 97.258C340.803 104.668 345.961 113.123 348.691 122.385C351.595 132.226 351.769 143.05 349.211 154.554C345.356 171.894 336.102 187.459 322.44 199.565C316.764 204.593 304.787 209.46 291.177 212.259C279.223 214.719 260.46 216.763 238.953 212.537C236.866 212.13 234.818 211.658 232.821 211.141Z" fill="#1B1F2C"/>
<path d="M314.278 157.472C313.918 157.378 313.563 157.26 313.213 157.12C307.119 154.686 305.016 146.001 308.515 137.722C311.812 129.918 318.91 125.261 324.816 126.79C325.178 126.884 325.532 127 325.882 127.14C330.807 129.108 333.125 135.157 331.987 141.776C330.441 145.509 328.685 149.126 326.737 152.614C323.145 156.576 318.418 158.543 314.278 157.472Z" fill="#5A5E6A"/>
<path d="M295.874 177.394C295.396 177.27 294.931 177.085 294.49 176.833C291.398 175.071 290.615 170.764 292.739 167.211C294.562 164.166 297.929 162.663 300.802 163.407C301.28 163.531 301.746 163.717 302.186 163.97C305.279 165.732 306.063 170.04 303.938 173.591C302.115 176.638 298.748 178.138 295.874 177.394Z" fill="#5A5E6A"/>
<path d="M233.947 207.759C224.262 205.252 215.687 201.545 208.518 197.675C253.114 204.021 292.56 190.607 304.119 180.362C313.142 172.365 320.82 162.96 326.719 152.4C328.255 150.709 329.581 148.653 330.569 146.319C331.24 144.73 331.706 143.124 331.977 141.552C334.236 136.099 336.045 130.398 337.363 124.478C338.444 119.616 339.118 114.919 339.417 110.379C347.312 122.875 349.466 137.459 345.81 153.9C342.123 170.496 333.255 185.399 320.172 196.994C316.265 200.455 306.182 205.634 290.616 208.837C278.997 211.225 260.765 213.211 239.871 209.108C237.853 208.713 235.877 208.259 233.947 207.759Z" fill="#21242E"/>
<path d="M326.822 152.64C328.759 149.158 330.505 145.55 332.04 141.827C331.772 143.393 331.309 144.994 330.642 146.578C329.661 148.905 328.346 150.954 326.822 152.64Z" fill="#6B6577"/>
<path d="M180.667 81.4013C180.16 81.2695 179.69 80.981 179.343 80.5416C178.524 79.5096 178.679 78.0291 179.67 77.1643C185.095 72.0664 191.411 67.7651 198.445 64.3736C205.294 61.0732 212.878 58.6082 220.987 57.0467C228.928 55.5206 237.42 54.8503 246.232 55.0548C254.963 55.2602 264.052 56.3229 273.243 58.2204C282.284 60.0842 290.938 62.6558 298.962 65.8638C307.061 69.0996 314.536 72.9897 321.18 77.4256C327.974 81.9636 333.925 87.0907 338.859 92.6609C343.935 98.3882 347.973 104.624 350.861 111.195C351.394 112.231 351.119 113.534 350.144 114.277C349.041 115.121 347.463 114.93 346.614 113.852L346.413 113.598L346.288 113.309C335.622 88.8938 308.606 70.5819 272.171 63.064C235.531 55.5094 203.057 61.967 183.076 80.7789L182.985 80.8645L182.874 80.9504C182.223 81.4531 181.404 81.5927 180.667 81.4013Z" fill="#1B1F2C"/>
<path d="M180.241 148.593C180.241 148.593 175.795 99.8577 204.924 86.7919C227.918 76.4781 255.234 78.9745 265.059 81.5179C267.678 82.196 269.053 82.8761 268.769 83.3208C268.769 83.3208 226.712 84.6094 204.187 112.426C186.815 133.88 180.241 148.593 180.241 148.593Z" fill="#5A5E6A"/>
<path d="M304.011 343.056C303.849 343.431 303.66 343.827 303.471 344.208C303.28 344.595 303.08 344.973 302.881 345.355C302.477 346.113 302.058 346.863 301.625 347.609C300.769 349.102 299.847 350.562 298.951 352.04C298.059 353.52 297.168 355.004 296.293 356.505L295.649 357.638C295.426 358.014 295.22 358.397 295.007 358.778L294.689 359.353L294.528 359.641L294.375 359.931C294.172 360.319 293.962 360.707 293.743 361.097L293.734 361.11C293.656 361.25 293.476 361.301 293.334 361.225C293.231 361.169 293.176 361.061 293.185 360.952C293.252 360.063 293.34 359.162 293.504 358.284L293.617 357.619C293.658 357.398 293.708 357.181 293.753 356.96C293.85 356.525 293.946 356.086 294.055 355.651C294.493 353.914 295.037 352.208 295.648 350.529C296.27 348.856 296.945 347.2 297.748 345.61C298.146 344.813 298.572 344.031 299.033 343.267C299.262 342.885 299.5 342.506 299.75 342.133C300.001 341.758 300.256 341.399 300.551 341.026C301.24 340.147 302.52 339.979 303.406 340.649C304.15 341.212 304.385 342.185 304.033 343.003L304.011 343.056Z" fill="#1B1F2C"/>
<path d="M115.925 292.698C115.99 293.164 116.029 293.598 116.055 294.045C116.081 294.489 116.095 294.933 116.099 295.374C116.108 296.259 116.077 297.143 116.015 298.026C115.899 299.792 115.633 301.55 115.316 303.299C114.984 305.047 114.581 306.786 114.07 308.501C113.939 308.929 113.796 309.356 113.655 309.78C113.582 309.991 113.516 310.203 113.437 310.414L113.191 311.043C112.882 311.882 112.495 312.703 112.094 313.503C112.022 313.648 111.845 313.707 111.697 313.637C111.591 313.586 111.529 313.48 111.531 313.371L111.532 313.356C111.54 312.912 111.555 312.475 111.579 312.04L111.595 311.715L111.602 311.387L111.62 310.736C111.63 310.302 111.647 309.872 111.646 309.438L111.666 308.145C111.675 306.421 111.662 304.704 111.643 302.991C111.619 301.276 111.566 299.564 111.586 297.857C111.594 297.003 111.613 296.15 111.65 295.298C111.673 294.871 111.693 294.446 111.725 294.019C111.756 293.598 111.795 293.163 111.848 292.76L111.854 292.705C111.997 291.609 113.026 290.834 114.15 290.976C115.093 291.094 115.805 291.821 115.925 292.698Z" fill="#1B1F2C"/>
<path d="M270.858 402.629L110.615 360.848C105.426 359.495 102.367 354.233 103.781 349.095C104.597 346.135 107.681 344.367 110.67 345.146L278.877 389.004C281.868 389.784 283.628 392.815 282.813 395.775C281.398 400.913 276.045 403.982 270.858 402.629Z" fill="#EC8677"/>
<path d="M106.519 350.184C106.395 349.978 106.277 349.767 106.168 349.553C106.682 347.984 108.356 347.06 109.975 347.484L278.237 391.49C279.854 391.912 280.831 393.527 280.475 395.135C280.321 395.235 280.166 395.331 280.007 395.422C279.953 395.453 279.901 395.483 279.847 395.513C279.201 394.918 278.401 394.468 277.485 394.229L109.226 350.223C108.311 349.984 107.386 349.983 106.519 350.184Z" fill="#FEAF97"/>
<path d="M271.539 400.298L111.258 358.423C107.608 357.469 105.366 353.901 106.016 350.277C106.192 350.218 106.373 350.167 106.555 350.123C107.801 352.178 109.828 353.772 112.357 354.432L272.636 396.307C275.163 396.967 277.736 396.577 279.865 395.401C280.003 395.527 280.132 395.659 280.254 395.797C278.96 399.254 275.188 401.251 271.539 400.298Z" fill="#DC6958"/>
<path d="M105.981 350.286C106.02 350.072 106.067 349.858 106.126 349.644C106.14 349.595 106.154 349.546 106.17 349.498C106.279 349.713 106.397 349.925 106.52 350.131C106.338 350.175 106.158 350.226 105.981 350.286ZM280.251 395.905C280.129 395.766 279.998 395.632 279.862 395.507C279.916 395.476 279.968 395.446 280.022 395.416C280.181 395.324 280.338 395.228 280.49 395.127C280.479 395.177 280.467 395.229 280.453 395.279C280.394 395.492 280.328 395.702 280.251 395.905Z" fill="#4F80BB"/>
<path d="M110.032 347.543C108.364 347.108 106.637 348.098 106.182 349.747C105.129 353.57 107.415 357.498 111.278 358.504L271.503 400.245C275.363 401.251 279.363 398.961 280.417 395.138C280.871 393.489 279.886 391.793 278.218 391.358L110.032 347.543ZM270.201 404.97L109.976 363.229C103.479 361.537 99.6354 354.931 101.407 348.503C102.579 344.248 107.032 341.697 111.334 342.818L279.52 386.633C283.821 387.754 286.366 392.128 285.194 396.383C283.422 402.811 276.696 406.663 270.201 404.97Z" fill="#1B1F2C"/>
<path d="M321.906 289.272L277.491 389.036L111.468 346.033L111.944 342.13L124.6 238.166C125.016 234.75 128.425 232.474 131.797 233.347L318.167 281.62C321.544 282.495 323.313 286.113 321.906 289.272Z" fill="#FF66AC"/>
<path d="M321.906 289.272L277.491 389.036L111.468 346.033L111.944 342.13L124.6 238.166C125.016 234.75 128.425 232.474 131.797 233.347L318.167 281.62C321.544 282.495 323.313 286.113 321.906 289.272Z" fill="url(#paint0_linear_596_11460)"/>
<path d="M221.634 320.404C222.364 316.599 221.038 312.892 218.43 310.38C218.208 310.167 218.211 309.817 218.436 309.603C220.095 308.025 221.29 305.949 221.739 303.56C222.714 298.38 219.882 293.388 215.197 291.356C214.967 291.257 214.841 291.011 214.887 290.768L215.72 286.339C216.012 284.787 215.05 283.24 213.486 282.892C211.817 282.521 210.178 283.598 209.869 285.237L209.083 289.415C209.027 289.711 208.738 289.909 208.437 289.856L204.541 289.178C204.24 289.126 204.041 288.843 204.097 288.547L204.868 284.45C205.16 282.898 204.198 281.351 202.634 281.003C200.964 280.632 199.325 281.709 199.017 283.348L198.231 287.526C198.175 287.822 197.886 288.02 197.585 287.967L193.88 287.323C192.301 287.048 190.717 288.004 190.351 289.542C189.96 291.183 191.045 292.784 192.712 293.074L193.81 293.265C194.111 293.317 194.31 293.6 194.254 293.896L189.41 319.636C189.354 319.932 189.065 320.129 188.764 320.077L187.749 319.9C186.169 319.625 184.586 320.582 184.22 322.119C183.829 323.761 184.914 325.362 186.581 325.652L190.368 326.311C190.669 326.363 190.868 326.646 190.812 326.942L190.041 331.039C189.749 332.591 190.711 334.138 192.275 334.486C193.945 334.857 195.584 333.78 195.892 332.141L196.679 327.962C196.734 327.666 197.024 327.469 197.324 327.522L201.221 328.2C201.522 328.252 201.72 328.534 201.665 328.83L200.894 332.928C200.601 334.48 201.564 336.027 203.128 336.375C204.797 336.746 206.436 335.668 206.744 334.03L207.531 329.851C207.587 329.555 207.876 329.358 208.177 329.41C214.385 330.491 220.464 326.503 221.634 320.404ZM200.072 295.173C200.154 294.735 200.581 294.444 201.026 294.521L211.396 296.326C214.309 296.833 216.353 299.503 215.9 302.38C215.43 305.369 212.535 307.392 209.53 306.869L199.046 305.044C198.601 304.967 198.307 304.55 198.389 304.112L200.072 295.173ZM215.743 319.503C215.118 322.35 212.231 324.161 209.318 323.654L195.98 321.333C195.535 321.255 195.241 320.838 195.324 320.401L197.006 311.461C197.088 311.024 197.516 310.732 197.96 310.81L211.413 313.151C214.418 313.675 216.392 316.545 215.743 319.503Z" fill="#CF654E" stroke="#1B1F2C"/>
<path d="M114.345 342.701L127.04 238.425C127.155 237.486 127.658 236.675 128.456 236.14C129.254 235.605 130.205 235.443 131.134 235.684L299.765 279.366C299.689 280.719 299.552 282.155 299.352 283.653L135.892 241.311C132.52 240.437 129.112 242.715 128.694 246.13L116.869 343.279C115.946 343.068 115.103 342.874 114.345 342.701ZM319.41 288.849L316.578 288.115L316.667 287.915C317.279 286.537 317.29 285.071 316.825 283.785L317.519 283.965C318.448 284.205 319.189 284.805 319.603 285.654C320.018 286.503 320.034 287.449 319.647 288.317L319.41 288.849Z" fill="#FEAF97"/>
<path d="M276.337 386.23L116.729 344.892L116.92 343.286C139.04 348.388 205.71 363.888 250.491 349.168C260.687 345.818 269.159 340.575 276.111 334.316C276.473 335.106 276.899 335.859 277.396 336.566C277.396 336.567 277.396 336.567 277.396 336.567C277.399 336.571 277.403 336.575 277.405 336.578C277.798 337.141 278.235 337.675 278.719 338.18C281.728 341.321 284.734 342.754 287.576 343.49C289.341 343.948 291.045 344.136 292.645 344.296C293.472 344.381 294.269 344.456 295.036 344.559L276.337 386.23ZM318.416 292.446C316.139 291.192 313.132 289.819 309.649 288.917C307.248 288.295 304.62 287.896 301.849 287.913C302.068 286.728 302.252 285.576 302.397 284.459L319.957 289.007L318.416 292.446Z" fill="#DC6958"/>
<path d="M116.716 344.886L114.202 344.234L114.389 342.703C115.147 342.876 115.99 343.07 116.913 343.281L116.716 344.886ZM316.569 288.142L299.348 283.683C299.551 282.186 299.687 280.751 299.763 279.398L316.815 283.815C317.281 285.1 317.272 286.566 316.659 287.944L316.569 288.142Z" fill="#FEAF97"/>
<path d="M114.172 344.221L276.076 386.155L319.639 288.317C320.025 287.449 320.01 286.504 319.594 285.654C319.18 284.806 318.439 284.206 317.511 283.966L131.147 235.696C130.218 235.455 129.268 235.617 128.469 236.151C127.671 236.686 127.168 237.498 127.054 238.436L114.172 344.221ZM278.887 391.908L108.761 347.844L122.149 237.902C122.432 235.575 123.73 233.479 125.71 232.154C127.688 230.83 130.145 230.411 132.446 231.007L318.81 279.277C321.113 279.873 323.022 281.423 324.051 283.526C325.081 285.631 325.12 288.073 324.163 290.225L278.887 391.908Z" fill="#1B1F2C"/>
<path d="M133.026 327.845C132.223 327.635 131.643 326.411 131.362 324.758C128.767 309.534 130.52 285.165 135.294 271.804C137.22 266.412 139.504 264.22 141.394 264.715C144.186 265.446 146.118 272.048 144.761 282.859C140.182 319.349 135.523 328.499 133.026 327.845Z" fill="#FEAF97"/>
<path d="M319.632 295.004C319.632 295.004 308.461 285.694 294.918 287.945C281.949 290.101 263.628 324.611 276.008 337.76C280.763 342.811 285.537 343.389 289.621 343.789C292.101 344.032 294.328 344.209 296.144 345.281C303.278 349.488 329.625 315.891 319.632 295.004Z" fill="#E1E1E1"/>
<path d="M292.087 343.96L292.087 343.958C292.645 344.032 293.185 344.121 293.706 344.238C293.185 344.121 292.645 344.032 292.087 343.96Z" fill="#226CBA"/>
<path d="M284.736 342.914C281.944 342.188 278.994 340.765 276.05 337.628C275.578 337.123 275.149 336.589 274.764 336.025C275.15 336.588 275.577 337.122 276.049 337.624C278.992 340.763 281.945 342.187 284.738 342.913C286.473 343.363 288.145 343.544 289.717 343.699C290.531 343.778 291.316 343.852 292.069 343.95L292.069 343.952C291.316 343.852 290.531 343.78 289.721 343.7C288.146 343.546 286.472 343.365 284.736 342.914ZM274.758 336.016C274.756 336.015 274.756 336.015 274.756 336.014C274.756 336.015 274.756 336.015 274.758 336.016Z" fill="#294F91"/>
<path d="M284.694 342.992C281.905 342.27 278.961 340.854 276.023 337.732C275.55 337.231 275.124 336.7 274.741 336.141C274.739 336.138 274.735 336.134 274.734 336.131C274.732 336.131 274.732 336.131 274.732 336.129C270.293 329.652 271.528 319.442 275.374 310.057C274.521 316.421 275.474 322.309 279.202 326.269C282.888 330.18 286.398 331.962 289.675 332.81C293.205 333.724 296.465 333.555 299.383 333.803C306.335 334.393 313.724 328.661 318.917 320.271C313.382 334.596 301.836 346.827 296.85 345.535C296.619 345.476 296.403 345.388 296.203 345.269C295.532 344.874 294.806 344.601 294.031 344.4C293.897 344.365 293.76 344.332 293.624 344.302C293.104 344.186 292.567 344.098 292.011 344.024C291.258 343.926 290.476 343.854 289.663 343.774C288.094 343.62 286.425 343.441 284.694 342.992Z" fill="#C5C5C5"/>
<path d="M305.877 290.877C302.262 289.941 298.725 289.755 295.307 290.323C292.495 290.791 288.901 293.484 285.45 297.711C281.896 302.063 278.716 307.789 276.724 313.42C273.208 323.364 273.606 331.635 277.82 336.11C282.071 340.624 286.201 341.025 290.195 341.413C292.776 341.664 295.214 341.902 297.424 343.205C297.689 343.324 299.874 343.086 303.981 339.055C313.562 329.658 323.493 309.797 317.628 296.537C316.735 295.864 314.406 294.222 311.172 292.761C309.391 291.958 307.625 291.329 305.877 290.877ZM284.043 345.347C280.929 344.54 277.512 342.938 274.189 339.408C271.211 336.246 269.617 331.965 269.448 326.683C269.304 322.25 270.21 317.127 272.069 311.87C274.272 305.644 277.661 299.549 281.613 294.709C284.635 291.011 289.325 286.421 294.524 285.557C309.031 283.146 320.747 292.743 321.238 293.152L321.64 293.487L321.865 293.957C326.44 303.518 323.834 314.413 320.845 321.872C317.473 330.274 311.823 338.649 306.093 343.729C300.356 348.817 296.816 348.509 294.86 347.354C293.589 346.605 291.772 346.429 289.666 346.224C287.999 346.062 286.086 345.876 284.043 345.347Z" fill="#1B1F2C"/>
</g>
<defs>
<linearGradient id="paint0_linear_596_11460" x1="308.443" y1="338.077" x2="111.938" y2="283.609" gradientUnits="userSpaceOnUse">
<stop stop-color="#F67668"/>
<stop offset="1" stop-color="#F79576"/>
</linearGradient>
<clipPath id="clip0_596_11460">
<rect y="0.998047" width="460" height="420" rx="8" fill="white"/>
</clipPath>
</defs>
</svg>
