<svg width="38" height="38" viewBox="0 0 38 38" fill="none" xmlns="http://www.w3.org/2000/svg">
<path fill-rule="evenodd" clip-rule="evenodd" d="M17.9387 21.3312C17.9387 23.411 17.382 25.3624 16.411 27.0444C16.2262 27.361 15.8872 27.5552 15.5211 27.5552H8.6016C8.26498 27.5552 7.94954 27.3916 7.75651 27.115C7.56349 26.8396 7.51758 26.4865 7.63175 26.171C9.04768 22.2787 13.0306 11.3374 14.0628 8.50081C14.2112 8.09357 14.5984 7.82286 15.0315 7.82286H22.0923C22.5254 7.82286 22.9127 8.09357 23.061 8.50081C24.0932 11.3374 28.0761 22.2787 29.4921 26.171C29.6074 26.4876 29.5603 26.8396 29.3673 27.115C29.1743 27.3904 28.8589 27.5552 28.5222 27.5552H21.6027C21.2366 27.5552 20.8977 27.361 20.7129 27.0444C19.7418 25.3624 19.1851 23.4122 19.1851 21.3312C19.1851 19.6105 20.5834 18.2122 22.3042 18.2122C22.6479 18.2122 22.928 17.9321 22.928 17.5884C22.928 17.2447 22.6479 16.9646 22.3042 16.9646C20.5822 16.9646 19.1851 15.5663 19.1851 13.8455C19.1851 13.5007 18.905 13.2217 18.5613 13.2217C18.2176 13.2217 17.9375 13.5019 17.9375 13.8455C17.9375 15.5675 16.5392 16.9646 14.8185 16.9646C14.4736 16.9646 14.1947 17.2447 14.1947 17.5884C14.1947 17.9321 14.4748 18.2122 14.8185 18.2122C16.5404 18.2122 17.9375 19.6093 17.9375 21.3312H17.9387ZM18.5625 37.4231C28.78 37.4231 37.0625 29.1406 37.0625 18.9231C37.0625 8.70561 28.78 0.423096 18.5625 0.423096C8.34501 0.423096 0.0625 8.70561 0.0625 18.9231C0.0625 29.1406 8.34501 37.4231 18.5625 37.4231Z" fill="white"/>
</svg>
