<svg width="238" height="202" viewBox="0 0 238 202" fill="none" xmlns="http://www.w3.org/2000/svg">
<path d="M152.575 45.6641L214.625 71.7872L161.825 198.158L2.96709 125.516L2.96632 125.533L53.7185 4.0495L123.874 33.5835" stroke="#535B98" stroke-width="3" stroke-miterlimit="10" stroke-linecap="round" stroke-linejoin="round"/>
<path d="M120.55 32.1841L214.625 71.7872L161.825 198.158L2.96707 125.516L2.9663 125.533L53.7185 4.0495L123.874 33.5835" fill="#818BD5"/>
<path d="M120.55 32.1841L214.625 71.7872L161.825 198.158L2.96708 125.516L2.9663 125.533L53.7185 4.0495L123.874 33.5835" stroke="#535B98" stroke-width="3" stroke-miterlimit="10" stroke-linecap="round" stroke-linejoin="round"/>
<path d="M126.298 109.859L161.942 197.162L182.078 194.853L234.756 69.3647L214.619 71.6736L93.6798 123.957L85.3474 98.8325L53.5573 3.53766L78.1333 3.15698" stroke="#535B98" stroke-width="3" stroke-miterlimit="10" stroke-linecap="round" stroke-linejoin="round"/>
<path d="M78.5994 3.17816L233.758 69.2907" stroke="#535B98" stroke-width="3" stroke-miterlimit="10" stroke-linecap="round" stroke-linejoin="round"/>
<path d="M4.04121 123.918L84.3672 96.5363" stroke="#535B98" stroke-width="3" stroke-miterlimit="10" stroke-linecap="round" stroke-linejoin="round"/>
</svg>
