<svg width="38" height="38" viewBox="0 0 38 38" fill="none" xmlns="http://www.w3.org/2000/svg">
<path d="M19.0625 0.423096C8.8468 0.423096 0.5625 8.7074 0.5625 18.9231C0.5625 29.1388 8.8468 37.4231 19.0625 37.4231C29.2782 37.4231 37.5625 29.1388 37.5625 18.9231C37.5625 8.7074 29.2819 0.423096 19.0625 0.423096ZM9.6904 19.5447L9.7681 19.4189L14.5818 11.8894C14.6521 11.7821 14.8186 11.7932 14.8704 11.9116C15.6733 13.7135 16.3689 15.9557 16.0433 17.3506C15.9064 17.9241 15.5253 18.7011 15.0961 19.4189C15.0406 19.5225 14.9814 19.6261 14.9148 19.726C14.8852 19.7704 14.8334 19.7963 14.7779 19.7963H9.831C9.6978 19.7963 9.6201 19.652 9.6904 19.5447ZM31.1393 22.1347C31.1393 22.205 31.0986 22.2642 31.0394 22.2901C30.6657 22.4492 29.3892 23.0375 28.8601 23.7738C27.5059 25.6571 26.4736 28.3507 24.1611 28.3507H14.5189C11.1001 28.3507 8.3325 25.572 8.3325 22.1421V22.0311C8.3325 21.9423 8.4065 21.8683 8.499 21.8683H13.8714C13.9787 21.8683 14.0564 21.9645 14.049 22.0718C14.0083 22.4196 14.0749 22.7785 14.2414 23.1041C14.5596 23.7516 15.2219 24.1549 15.936 24.1549H18.5963V22.0792H15.9656C15.8324 22.0792 15.751 21.9238 15.8287 21.8128C15.8583 21.7684 15.8879 21.724 15.9249 21.6722C16.1728 21.317 16.528 20.7694 16.8832 20.1441C17.1237 19.7223 17.3568 19.2709 17.5455 18.8195C17.5825 18.7381 17.6121 18.653 17.6454 18.5716C17.6972 18.4273 17.749 18.2904 17.786 18.1572C17.823 18.0425 17.8563 17.9241 17.8859 17.8131C17.9747 17.4283 18.0117 17.0213 18.0117 16.5995C18.0117 16.433 18.0043 16.2591 17.9895 16.0963C17.9821 15.915 17.9599 15.7337 17.9377 15.5524C17.9229 15.3933 17.8933 15.2342 17.8637 15.0714C17.823 14.8309 17.7712 14.5904 17.712 14.3499L17.6898 14.2574C17.6454 14.0909 17.6047 13.9355 17.5529 13.769C17.4012 13.251 17.231 12.7441 17.046 12.2705C16.9794 12.0818 16.9054 11.9005 16.8277 11.7229C16.7167 11.4491 16.602 11.2012 16.4984 10.9681C16.4429 10.8608 16.3985 10.7646 16.3541 10.6647C16.3023 10.5537 16.2505 10.4427 16.195 10.3354C16.158 10.254 16.1136 10.1763 16.084 10.1023L15.7584 9.5029C15.714 9.4215 15.788 9.3216 15.8768 9.3475L17.9118 9.8988H17.9192C17.9229 9.8988 17.9229 9.8988 17.9266 9.8988L18.193 9.9765L18.489 10.0579L18.5963 10.0875V8.8813C18.5963 8.2967 19.0625 7.8231 19.6434 7.8231C19.932 7.8231 20.1947 7.9415 20.3797 8.1339C20.5684 8.3263 20.6868 8.589 20.6868 8.8813V10.6758L20.9051 10.735C20.9199 10.7424 20.9384 10.7498 20.9532 10.7609C21.005 10.7979 21.0827 10.8571 21.1789 10.9311C21.2566 10.9903 21.338 11.0643 21.4342 11.142C21.6303 11.3011 21.8671 11.5046 22.1224 11.7377C22.189 11.7969 22.2556 11.8561 22.3185 11.919C22.6478 12.2261 23.0178 12.585 23.373 12.9846C23.4729 13.0993 23.5691 13.2103 23.669 13.3324C23.7652 13.4545 23.8725 13.5729 23.9613 13.6913C24.0834 13.8504 24.2092 14.0169 24.3239 14.1908C24.3757 14.2722 24.4386 14.3573 24.4867 14.4387C24.6347 14.657 24.7605 14.8827 24.8826 15.1084C24.9344 15.212 24.9862 15.3267 25.0306 15.4377C25.1675 15.7411 25.2748 16.0482 25.3414 16.359C25.3636 16.4256 25.3784 16.4959 25.3858 16.5625V16.5773C25.408 16.6661 25.4154 16.7623 25.4228 16.8622C25.4524 17.1767 25.4376 17.4949 25.371 17.8131C25.3414 17.9463 25.3044 18.0721 25.26 18.209C25.2119 18.3385 25.1675 18.4717 25.1083 18.6012C24.9936 18.8639 24.8604 19.1303 24.7013 19.3745C24.6495 19.467 24.5866 19.5632 24.5274 19.6557C24.4608 19.7519 24.3905 19.8444 24.3313 19.9332C24.2462 20.0479 24.1574 20.1663 24.0649 20.2736C23.9835 20.3846 23.9021 20.4956 23.8096 20.5955C23.6838 20.7472 23.5617 20.8878 23.4322 21.0247C23.3582 21.1135 23.2768 21.206 23.1917 21.2874C23.1103 21.3799 23.0252 21.4613 22.9512 21.5353C22.8217 21.6648 22.7181 21.761 22.6293 21.8461L22.4184 22.0348C22.3888 22.0644 22.3481 22.0792 22.3074 22.0792H20.6868V24.1549H22.7255C23.1806 24.1549 23.6135 23.9958 23.965 23.6961C24.0834 23.5925 24.6051 23.1411 25.223 22.4603C25.2452 22.4344 25.2711 22.4196 25.3007 22.4122L30.9284 20.7842C31.0357 20.7546 31.1393 20.8323 31.1393 20.9433V22.1347Z" fill="white"/>
</svg>
