<?xml version="1.0" standalone="no"?>
<!DOCTYPE svg PUBLIC "-//W3C//DTD SVG 20010904//EN"
 "http://www.w3.org/TR/2001/REC-SVG-20010904/DTD/svg10.dtd">
<svg version="1.0" xmlns="http://www.w3.org/2000/svg"
 width="520.000000pt" height="520.000000pt" viewBox="0 0 520.000000 520.000000"
 preserveAspectRatio="xMidYMid meet">
<metadata>
Created by potrace 1.14, written by Peter Selinger 2001-2017
</metadata>
<g transform="translate(0.000000,520.000000) scale(0.100000,-0.100000)"
fill="#000000" stroke="none">
<path d="M2389 5116 c-2 -2 -42 -6 -88 -10 -46 -3 -86 -8 -90 -10 -3 -2 -29
-6 -58 -10 -166 -20 -456 -104 -628 -182 -33 -15 -62 -28 -65 -29 -3 0 -21 -9
-40 -20 -19 -11 -37 -19 -40 -20 -12 -1 -154 -84 -243 -143 -237 -155 -483
-386 -632 -592 -22 -30 -42 -57 -45 -60 -8 -8 -100 -149 -100 -154 0 -3 -12
-22 -26 -43 -34 -50 -123 -237 -162 -338 -39 -104 -45 -118 -48 -130 -1 -5 -9
-30 -17 -55 -14 -42 -44 -159 -53 -205 -2 -11 -6 -31 -9 -45 -3 -14 -7 -38
-10 -55 -3 -16 -7 -43 -10 -60 -27 -158 -27 -587 -1 -706 3 -13 8 -37 10 -54
52 -331 179 -658 365 -940 36 -55 68 -104 70 -110 2 -5 7 -12 10 -15 3 -3 18
-21 32 -40 15 -19 36 -46 48 -60 12 -14 38 -45 59 -69 69 -83 226 -233 327
-312 123 -97 108 -86 180 -133 33 -22 71 -47 85 -56 51 -34 194 -109 295 -155
52 -24 232 -92 260 -99 6 -2 17 -6 25 -9 44 -18 259 -68 357 -83 21 -3 49 -7
63 -10 146 -27 564 -26 725 2 17 3 41 7 55 9 14 2 35 6 46 8 12 3 37 8 55 11
53 8 222 53 304 81 121 41 227 86 340 143 39 20 80 41 92 46 13 6 23 14 23 19
0 4 5 7 12 7 16 0 159 92 253 163 146 110 324 277 414 387 20 25 44 54 54 65
27 28 125 168 173 245 70 110 166 304 208 417 8 21 17 47 22 58 4 11 8 22 9
25 1 3 4 12 8 20 23 60 84 305 92 375 2 11 6 38 9 60 4 22 10 65 14 95 9 79 8
476 -2 535 -5 28 -8 57 -8 65 0 8 -4 35 -9 60 -5 25 -11 56 -13 70 -3 14 -7
34 -10 45 -2 11 -9 43 -16 70 -33 148 -94 319 -171 480 -16 33 -29 65 -29 72
0 7 -4 13 -9 13 -5 0 -14 12 -20 28 -31 77 -251 402 -273 402 -4 0 -8 5 -8 11
0 12 -49 66 -161 178 -238 239 -496 411 -839 559 -107 46 -352 121 -445 136
-11 2 -60 11 -110 19 -49 9 -108 18 -130 22 -45 7 -469 17 -476 11z m706
-1010 c51 -13 81 -53 120 -158 20 -57 41 -112 46 -123 11 -26 170 -457 173
-470 2 -5 7 -21 13 -35 13 -30 66 -173 123 -330 23 -63 45 -124 50 -135 5 -11
27 -72 50 -135 23 -63 46 -124 51 -135 8 -20 57 -150 63 -170 4 -14 9 -28 60
-162 8 -21 31 -83 51 -138 72 -196 77 -210 85 -230 4 -11 13 -36 20 -55 7 -19
16 -44 20 -55 29 -70 70 -189 70 -202 0 -46 -25 -94 -63 -120 l-40 -28 -506 0
c-278 -1 -519 2 -535 7 -48 13 -83 55 -139 172 -71 147 -131 342 -143 467 -11
109 -12 249 -2 286 5 21 12 50 15 66 3 15 9 27 14 27 5 0 9 6 9 13 0 24 89
124 141 159 72 47 112 61 214 73 73 8 103 27 111 71 10 57 -34 104 -99 104
-221 -2 -409 189 -416 422 -2 43 -41 81 -85 81 -56 0 -82 -32 -90 -111 -15
-142 -83 -255 -200 -329 -63 -40 -120 -57 -226 -67 -33 -3 -51 -11 -67 -31
-27 -30 -29 -55 -8 -95 17 -32 33 -39 102 -46 60 -5 143 -25 143 -35 0 -4 11
-10 24 -13 40 -10 120 -81 161 -142 58 -87 74 -159 70 -301 -3 -65 -7 -129
-10 -143 -3 -14 -8 -41 -11 -60 -8 -54 -33 -151 -49 -193 -8 -20 -15 -40 -16
-45 -1 -4 -5 -17 -10 -30 -5 -13 -9 -25 -9 -27 0 -11 -56 -126 -89 -183 -60
-104 -28 -99 -627 -98 l-510 1 -38 25 c-44 29 -67 78 -61 126 5 41 37 137 48
145 5 3 8 10 7 15 -1 9 32 108 50 149 11 26 131 347 134 360 2 6 8 23 14 38 7
16 12 33 12 38 0 5 4 17 10 27 5 9 28 69 51 132 22 63 47 129 55 147 8 17 14
33 14 36 0 3 5 18 12 34 6 15 12 31 12 35 1 3 4 10 9 14 4 4 7 16 7 26 0 10 4
26 9 36 12 23 26 60 41 102 7 19 16 44 20 55 5 11 45 119 90 240 44 121 93
252 107 290 15 39 28 75 29 80 1 6 20 57 42 115 22 58 61 161 87 230 59 159
76 179 165 190 59 7 996 3 1025 -4z"/>
</g>
</svg>
