<svg width="204" height="63" viewBox="0 0 204 63" fill="none" xmlns="http://www.w3.org/2000/svg">
<path fill-rule="evenodd" clip-rule="evenodd" d="M30.9835 35.5992C30.9835 39.1403 30.0186 42.4629 28.3356 45.3267C28.0153 45.8657 27.4278 46.1964 26.7934 46.1964H14.8002C14.2168 46.1964 13.67 45.9178 13.3355 45.4469C13.0009 44.978 12.9214 44.3768 13.1192 43.8397C15.5734 37.2124 22.4767 18.5832 24.2658 13.7535C24.5228 13.0601 25.194 12.5992 25.9447 12.5992H38.1827C38.9334 12.5992 39.6046 13.0601 39.8616 13.7535C41.6507 18.5832 48.554 37.2124 51.0082 43.8397C51.2081 44.3788 51.1265 44.978 50.7919 45.4469C50.4574 45.9158 49.9106 46.1964 49.3272 46.1964H37.334C36.6996 46.1964 36.1121 45.8657 35.7918 45.3267C34.1088 42.4629 33.1439 39.1423 33.1439 35.5992C33.1439 32.6693 35.5674 30.2886 38.5499 30.2886C39.1456 30.2886 39.6311 29.8116 39.6311 29.2265C39.6311 28.6413 39.1456 28.1643 38.5499 28.1643C35.5654 28.1643 33.1439 25.7836 33.1439 22.8537C33.1439 22.2665 32.6584 21.7916 32.0627 21.7916C31.467 21.7916 30.9815 22.2685 30.9815 22.8537C30.9815 25.7856 28.558 28.1643 25.5755 28.1643C24.9778 28.1643 24.4943 28.6413 24.4943 29.2265C24.4943 29.8116 24.9798 30.2886 25.5755 30.2886C28.56 30.2886 30.9815 32.6673 30.9815 35.5992H30.9835ZM32.0647 62.998C49.774 62.998 64.1294 48.8958 64.1294 31.499C64.1294 14.1022 49.774 0 32.0647 0C14.3555 0 0 14.1022 0 31.499C0 48.8958 14.3555 62.998 32.0647 62.998Z" fill="#29BAAC"/>
<path d="M85.4447 12.875L74.8184 39.6405H79.8776L82.2419 33.5223H93.1376L95.4856 39.6405H100.741L90.1918 12.875H85.4427H85.4447ZM83.9147 29.2017L85.7181 24.5363C85.8996 24.0273 86.1016 23.4522 86.3219 22.8149C86.5422 22.1776 86.7687 21.5143 87.0033 20.8269C87.2379 20.1395 87.4582 19.4762 87.6642 18.8389C87.6826 18.7828 87.6989 18.7287 87.7173 18.6746C87.9213 19.3379 88.1498 20.0473 88.4027 20.8089C88.6618 21.5864 88.9025 22.3059 89.1228 22.9692C89.3432 23.6325 89.5186 24.1155 89.6492 24.4221L91.4831 29.2017H83.9147Z" fill="#E9E9E9"/>
<path d="M120.633 26.5824C119.829 25.9331 118.856 25.372 117.714 24.899C116.571 24.4281 115.288 24.0513 113.86 23.7708C113.003 23.5924 112.238 23.388 111.563 23.1596C110.888 22.9311 110.337 22.6626 109.909 22.3559C109.48 22.0493 109.15 21.7006 108.915 21.3038C108.681 20.9091 108.564 20.4561 108.564 19.9471C108.564 19.2838 108.758 18.7167 109.148 18.2457C109.537 17.7748 110.076 17.4101 110.763 17.1555C111.451 16.901 112.263 16.7728 113.197 16.7728C114.027 16.7728 114.819 16.907 115.572 17.1736C116.324 17.4421 117.024 17.8369 117.673 18.36C118.322 18.883 118.905 19.5383 119.425 20.3299L122.773 17.0794C122.175 16.0854 121.416 15.2377 120.496 14.5363C119.574 13.8349 118.511 13.3058 117.304 12.9491C116.098 12.5924 114.729 12.4141 113.197 12.4141C111.847 12.4141 110.59 12.6044 109.421 12.9872C108.254 13.37 107.228 13.905 106.347 14.5924C105.466 15.2798 104.77 16.0974 104.264 17.0393C103.758 17.9832 103.505 19.0153 103.505 20.1375C103.505 21.2598 103.674 22.2598 104.011 23.1395C104.348 24.0193 104.88 24.8089 105.606 25.5103C106.333 26.2117 107.228 26.7968 108.293 27.2698C109.356 27.7407 110.602 28.1175 112.03 28.398C112.783 28.5503 113.47 28.7167 114.093 28.895C114.715 29.0734 115.274 29.2898 115.765 29.5443C116.259 29.7988 116.673 30.0734 117.012 30.366C117.349 30.6586 117.601 30.9912 117.771 31.36C117.94 31.7287 118.024 32.1315 118.024 32.5644C118.024 33.1756 117.816 33.7187 117.402 34.1896C116.985 34.6606 116.416 35.0313 115.688 35.2978C114.962 35.5664 114.156 35.6986 113.275 35.6986C111.743 35.6986 110.368 35.368 109.148 34.7046C107.928 34.0413 106.683 32.8429 105.41 31.1095L102.102 34.7808C102.932 35.903 103.878 36.859 104.943 37.6485C106.008 38.4381 107.202 39.0313 108.523 39.4261C109.847 39.8209 111.3 40.0193 112.883 40.0193C114.933 40.0193 116.724 39.6806 118.254 39.0052C119.784 38.3299 120.972 37.36 121.816 36.0994C122.659 34.8369 123.081 33.3279 123.081 31.5684C123.081 30.5483 122.873 29.6245 122.459 28.7968C122.043 27.9692 121.435 27.2297 120.629 26.5784L120.633 26.5824Z" fill="#E9E9E9"/>
<path d="M133.654 19.8339C134.419 19.0443 135.326 18.431 136.379 17.9982C137.43 17.5653 138.552 17.3489 139.747 17.3489C140.551 17.3489 141.336 17.4691 142.101 17.7116C142.866 17.9541 143.607 18.3108 144.321 18.7818C145.035 19.2527 145.728 19.8339 146.404 20.5212L149.635 17.0423C148.935 16.1505 148.064 15.3669 147.028 14.6916C145.99 14.0162 144.849 13.4872 143.603 13.1044C142.356 12.7216 141.073 12.5312 139.749 12.5312C137.803 12.5312 136 12.8759 134.339 13.5633C132.679 14.2507 131.226 15.2206 129.98 16.4691C128.733 17.7176 127.76 19.1705 127.06 20.8278C126.361 22.4852 126.01 24.2828 126.01 26.2186C126.01 28.1545 126.34 30.0864 127.003 31.7817C127.664 33.4771 128.592 34.9421 129.786 36.1785C130.979 37.415 132.393 38.3649 134.029 39.0262C135.663 39.6896 137.466 40.0202 139.439 40.0202C140.71 40.0202 141.989 39.8619 143.272 39.5413C144.557 39.2226 145.718 38.7838 146.757 38.2226C147.795 37.6615 148.625 37.0383 149.247 36.3489L146.757 32.411C146.185 32.9721 145.557 33.4631 144.87 33.884C144.182 34.3048 143.435 34.6294 142.632 34.8599C141.828 35.0884 140.998 35.2046 140.141 35.2046C138.817 35.2046 137.603 34.9942 136.501 34.5733C135.398 34.1525 134.451 33.5473 133.66 32.7577C132.868 31.9681 132.258 31.0242 131.83 29.928C131.401 28.8319 131.187 27.6074 131.187 26.2567C131.187 24.906 131.408 23.7256 131.848 22.6435C132.289 21.5593 132.893 20.6234 133.658 19.8319L133.654 19.8339Z" fill="#E9E9E9"/>
<path d="M161.308 12.875L150.682 39.6405H155.743L158.107 33.5223H169.003L171.351 39.6405H176.606L166.057 12.875H161.308ZM159.778 29.2017L161.581 24.5363C161.763 24.0273 161.965 23.4522 162.185 22.8149C162.406 22.1776 162.632 21.5143 162.867 20.8269C163.099 20.1395 163.321 19.4762 163.528 18.8389C163.546 18.7828 163.562 18.7287 163.581 18.6746C163.785 19.3379 164.013 20.0473 164.266 20.8089C164.525 21.5864 164.766 22.3059 164.986 22.9692C165.206 23.6325 165.382 24.1155 165.512 24.4221L167.346 29.2017H159.778Z" fill="#E9E9E9"/>
<path d="M198.832 12.875V20.9051C198.832 22.0013 198.844 23.0394 198.87 24.0213C198.897 25.0033 198.929 25.9392 198.968 26.831C199.007 27.7227 199.06 28.5765 199.123 29.3921C199.189 30.2077 199.26 30.9913 199.337 31.7428C199.36 31.9612 199.386 32.1757 199.411 32.3921L184.662 12.873H180.108V39.6406H185.129V29.2779C185.129 28.9211 185.123 28.5444 185.108 28.1496C185.096 27.7548 185.07 27.3139 185.031 26.831C184.992 26.346 184.947 25.7408 184.894 25.0153C184.843 24.2879 184.77 23.4221 184.68 22.4141C184.629 21.859 184.574 21.2378 184.513 20.5544L199.219 39.6406H203.852V12.875H198.832Z" fill="#E9E9E9"/>
<path d="M75.3027 46.1868H78.3383V54.4514H80.5721V46.1868H83.6973V44.2129H75.3027V46.1868Z" fill="#29BAAC"/>
<path d="M98.8338 50.3411C99.3601 50.0486 99.7743 49.6518 100.076 49.1488C100.38 48.6458 100.531 48.0886 100.531 47.4734C100.531 46.8582 100.38 46.2931 100.076 45.8061C99.7743 45.3191 99.3601 44.9303 98.8338 44.6438C98.3075 44.3552 97.722 44.2129 97.0774 44.2129H92.4629V54.4494H94.6212V50.778H96.2675L98.3728 54.4494L100.964 54.4634L98.5992 50.4514C98.6788 50.4153 98.7583 50.3832 98.8358 50.3391L98.8338 50.3411ZM98.1484 48.3011C98.0402 48.5195 97.8832 48.6918 97.6792 48.8121C97.4752 48.9343 97.2406 48.9945 96.9713 48.9945H94.6192V46.1127H96.6877C97.0162 46.1127 97.3038 46.1728 97.5507 46.2951C97.7975 46.4173 97.9872 46.5856 98.1157 46.8001C98.2442 47.0145 98.3095 47.269 98.3095 47.5596C98.3095 47.8321 98.2544 48.0786 98.1463 48.2991L98.1484 48.3011Z" fill="#29BAAC"/>
<path d="M112.645 44.2129L108.551 54.4494H110.768L111.592 52.2991H115.591L116.409 54.4494H118.702L114.638 44.2129H112.643H112.645ZM112.268 50.5456L112.867 48.9804C112.947 48.756 113.031 48.5275 113.12 48.2931C113.21 48.0586 113.294 47.8181 113.373 47.5696C113.453 47.3231 113.528 47.0806 113.602 46.8442C113.675 47.0746 113.753 47.3131 113.834 47.5636C113.924 47.8361 114.01 48.0947 114.095 48.3391C114.179 48.5836 114.253 48.782 114.312 48.9383L114.924 50.5476H112.268V50.5456Z" fill="#29BAAC"/>
<path d="M126.812 46.1007H128.555V52.5636H126.812V54.4514H132.529V52.5636H130.788V46.1007H132.529V44.2129H126.812V46.1007Z" fill="#29BAAC"/>
<path d="M148.931 47.0064C148.931 47.4253 148.937 47.814 148.945 48.1688C148.955 48.5255 148.968 48.8601 148.982 49.1788C148.996 49.4954 149.017 49.802 149.041 50.1006C149.065 50.3972 149.094 50.6898 149.123 50.9784C149.131 51.0525 149.141 51.1327 149.149 51.2068L143.882 44.2148H141.887V54.4513H144.076V50.7659C144.076 50.5716 144.074 50.3852 144.067 50.2108C144.061 50.0345 144.055 49.8501 144.045 49.6557C144.035 49.4613 144.019 49.2309 143.992 48.9684C143.968 48.7058 143.937 48.3952 143.902 48.0405C143.888 47.9002 143.874 47.7459 143.857 47.5816L149.09 54.4533H151.114V44.2168H148.925V47.0104L148.931 47.0064Z" fill="#29BAAC"/>
<path d="M160.479 46.1007H162.221V52.5636H160.479V54.4514H166.195V52.5636H164.452V46.1007H166.195V44.2129H160.479V46.1007Z" fill="#29BAAC"/>
<path d="M182.597 47.0064C182.597 47.4253 182.601 47.814 182.611 48.1688C182.621 48.5255 182.634 48.8601 182.648 49.1788C182.662 49.4954 182.683 49.802 182.707 50.1006C182.731 50.3972 182.76 50.6898 182.789 50.9784C182.797 51.0525 182.807 51.1327 182.815 51.2068L177.548 44.2148H175.553V54.4513H177.742V50.7659C177.742 50.5716 177.74 50.3852 177.733 50.2108C177.729 50.0345 177.721 49.8501 177.711 49.6557C177.701 49.4613 177.685 49.2309 177.658 48.9684C177.634 48.7058 177.603 48.3952 177.568 48.0405C177.554 47.9002 177.54 47.7459 177.523 47.5816L182.756 54.4533H184.782V44.2168H182.593V47.0104L182.597 47.0064Z" fill="#29BAAC"/>
<path d="M203.992 49.72C203.988 49.5697 203.978 49.4154 203.961 49.2591C203.945 49.1028 203.935 48.9705 203.925 48.8643H199.102V50.692H201.778C201.77 50.9425 201.711 51.1829 201.595 51.4094C201.47 51.6539 201.297 51.8643 201.075 52.0447C200.852 52.225 200.593 52.3633 200.301 52.4615C200.008 52.5597 199.694 52.6078 199.357 52.6078C198.89 52.6078 198.453 52.5216 198.047 52.3513C197.641 52.1809 197.286 51.9465 196.982 51.6499C196.68 51.3533 196.442 51.0006 196.268 50.5978C196.095 50.193 196.007 49.7621 196.007 49.3032C196.007 48.8443 196.089 48.4014 196.252 48.0026C196.415 47.6038 196.648 47.2571 196.944 46.9645C197.241 46.6719 197.586 46.4435 197.978 46.2771C198.37 46.1108 198.8 46.0286 199.265 46.0286C199.594 46.0286 199.912 46.0747 200.226 46.1669C200.538 46.2591 200.834 46.3914 201.111 46.5617C201.389 46.732 201.658 46.9385 201.915 47.1829L203.3 45.7501C203.023 45.4194 202.674 45.1268 202.258 44.8723C201.842 44.6198 201.379 44.4194 200.873 44.2731C200.367 44.1268 199.836 44.0547 199.279 44.0547C198.476 44.0547 197.735 44.187 197.062 44.4495C196.387 44.712 195.799 45.0807 195.297 45.5537C194.796 46.0266 194.41 46.5817 194.137 47.221C193.863 47.8603 193.727 48.5537 193.727 49.3052C193.727 50.0567 193.859 50.7521 194.12 51.3974C194.383 52.0407 194.759 52.6018 195.244 53.0787C195.73 53.5557 196.309 53.9284 196.978 54.197C197.647 54.4655 198.386 54.5998 199.19 54.5998C199.875 54.5998 200.51 54.4896 201.095 54.2711C201.681 54.0527 202.188 53.7421 202.621 53.3433C203.053 52.9445 203.39 52.4655 203.633 51.9104C203.876 51.3553 203.998 50.7461 203.998 50.0827C203.998 49.9946 203.996 49.8763 203.99 49.724L203.992 49.72Z" fill="#29BAAC"/>
</svg>
