<svg width="136" height="36" viewBox="0 0 136 36" fill="none" xmlns="http://www.w3.org/2000/svg">
<path fill-rule="evenodd" clip-rule="evenodd" d="M17.6506 20.3303C17.6506 22.3513 17.102 24.2461 16.1446 25.8811C15.9627 26.1891 15.6277 26.3775 15.2664 26.3775H8.44484C8.11385 26.3775 7.80264 26.2177 7.61275 25.95C7.42286 25.6822 7.37671 25.3404 7.49011 25.0324C8.8866 21.2518 12.8123 10.6208 13.8304 7.86424C13.9767 7.46785 14.3578 7.20532 14.7851 7.20532H21.7451C22.1723 7.20532 22.5534 7.46915 22.6998 7.86424C23.7178 10.6195 27.6435 21.2505 29.04 25.0324C29.1534 25.3391 29.1073 25.6822 28.9174 25.95C28.7275 26.2177 28.4163 26.3775 28.0853 26.3775H21.2638C20.9024 26.3775 20.5688 26.1891 20.3855 25.8811C19.4282 24.2474 18.8796 22.3513 18.8796 20.3303C18.8796 18.6577 20.2576 17.2996 21.9548 17.2996C22.2937 17.2996 22.5693 17.0279 22.5693 16.6939C22.5693 16.3599 22.2937 16.0883 21.9548 16.0883C20.2576 16.0883 18.8796 14.7302 18.8796 13.0575C18.8796 12.7236 18.604 12.4519 18.2651 12.4519C17.9262 12.4519 17.6506 12.7236 17.6506 13.0575C17.6506 14.7302 16.2726 16.0883 14.5754 16.0883C14.2365 16.0883 13.9609 16.3599 13.9609 16.6939C13.9609 17.0279 14.2365 17.2996 14.5754 17.2996C16.2726 17.2996 17.6506 18.6577 17.6506 20.3303ZM18.2651 35.965C28.3372 35.965 36.5038 27.9176 36.5038 17.9897C36.5038 8.06177 28.3385 0.0144043 18.2651 0.0144043C8.19164 0.0144043 0.0263672 8.06177 0.0263672 17.9897C0.0263672 27.9176 8.19164 35.965 18.2651 35.965Z" fill="#29BAAC"/>
<path d="M53.9376 8.552L46.582 27.1394H50.0844L51.7209 22.8909H59.2625L60.8871 27.1394H64.524L57.2225 8.552H53.935H53.9376ZM52.8774 19.89L54.1262 16.65C54.2515 16.2965 54.3913 15.8976 54.5442 15.4558C54.6972 15.0126 54.8541 14.5524 55.0163 14.0754C55.1785 13.5972 55.3302 13.1371 55.4739 12.6953C55.4871 12.6563 55.499 12.6199 55.5108 12.5809C55.6519 13.041 55.8102 13.5348 55.9855 14.0626C56.1649 14.6019 56.331 15.1021 56.484 15.5622C56.637 16.0223 56.7583 16.3589 56.848 16.5707L58.1165 19.89H52.8774Z" fill="white"/>
<path d="M78.2929 18.0719C77.7364 17.6209 77.0626 17.231 76.2727 16.9035C75.4828 16.576 74.5927 16.3148 73.605 16.1198C73.0116 15.9964 72.4828 15.8547 72.0147 15.6948C71.5479 15.535 71.1655 15.3491 70.8701 15.1373C70.5734 14.9255 70.3452 14.6811 70.183 14.4069C70.0208 14.1327 69.9404 13.8182 69.9404 13.4647C69.9404 13.0046 70.0749 12.6108 70.3439 12.2833C70.6129 11.9558 70.9861 11.7037 71.4622 11.5269C71.9382 11.3502 72.5 11.2618 73.1461 11.2618C73.7211 11.2618 74.2683 11.3541 74.7892 11.5412C75.3101 11.7271 75.7953 12.0013 76.2437 12.3639C76.6934 12.7265 77.0969 13.1827 77.4556 13.7311L79.7725 11.4736C79.3597 10.7835 78.8336 10.1948 78.1967 9.70745C77.5584 9.22008 76.8226 8.85358 75.9879 8.60535C75.1531 8.35712 74.205 8.23364 73.1461 8.23364C72.2125 8.23364 71.3408 8.36622 70.5325 8.63135C69.7241 8.89647 69.0147 9.26814 68.4041 9.74641C67.7936 10.2247 67.3123 10.7913 66.9628 11.4463C66.612 12.1014 66.438 12.8188 66.438 13.5973C66.438 14.3757 66.5553 15.071 66.7887 15.6818C67.0222 16.2927 67.3901 16.8411 67.8938 17.3285C68.3962 17.8159 69.016 18.2226 69.7531 18.5501C70.489 18.8777 71.3514 19.1389 72.3391 19.3338C72.86 19.4404 73.336 19.5548 73.7672 19.6795C74.1984 19.803 74.5848 19.9538 74.9263 20.1305C75.2679 20.3073 75.5553 20.4983 75.7887 20.7011C76.0222 20.9051 76.1975 21.1351 76.3136 21.3912C76.431 21.6472 76.489 21.9266 76.489 22.2281C76.489 22.6531 76.3452 23.0287 76.0578 23.3562C75.7703 23.6837 75.3747 23.9398 74.8723 24.1269C74.3698 24.3127 73.812 24.4063 73.2015 24.4063C72.1413 24.4063 71.1892 24.1763 70.3452 23.7162C69.5013 23.2561 68.6389 22.4244 67.7593 21.2196L65.4688 23.7682C66.0437 24.5467 66.6991 25.2108 67.4349 25.7592C68.172 26.3077 68.9975 26.7197 69.914 26.9939C70.8305 27.2681 71.8353 27.4059 72.9312 27.4059C74.3501 27.4059 75.5896 27.172 76.6485 26.7028C77.7088 26.2336 78.5303 25.5604 79.1131 24.6844C79.6973 23.8085 79.9888 22.7597 79.9888 21.538C79.9888 20.8297 79.845 20.1877 79.5575 19.6133C79.2701 19.0375 78.8481 18.5242 78.2916 18.0732L78.2929 18.0719Z" fill="white"/>
<path d="M87.3056 13.3854C87.8357 12.837 88.4647 12.412 89.1913 12.1105C89.9192 11.809 90.6959 11.6595 91.5214 11.6595C92.0779 11.6595 92.6212 11.744 93.1513 11.9116C93.6814 12.0793 94.1931 12.3275 94.6863 12.655C95.1808 12.9825 95.6608 13.3854 96.1276 13.8637L98.3641 11.4477C97.8788 10.8277 97.2775 10.2832 96.5588 9.814C95.8401 9.34484 95.0502 8.97704 94.1878 8.71191C93.3254 8.44679 92.4366 8.31421 91.5201 8.31421C90.1737 8.31421 88.9249 8.55334 87.775 9.03161C86.6252 9.50988 85.6203 10.1818 84.7579 11.05C83.8955 11.9168 83.2216 12.9266 82.7377 14.0768C82.2524 15.2269 82.0098 16.4759 82.0098 17.821C82.0098 19.1662 82.2392 20.5074 82.6968 21.6849C83.1544 22.8623 83.7966 23.8799 84.6234 24.739C85.4489 25.5981 86.4287 26.257 87.5601 26.7171C88.6915 27.1771 89.9403 27.4072 91.3051 27.4072C92.1847 27.4072 93.0696 27.2967 93.9583 27.0758C94.8471 26.8548 95.6515 26.5494 96.3702 26.1595C97.0889 25.7696 97.6638 25.3368 98.095 24.8586L96.3702 22.1241C95.9746 22.514 95.5394 22.8545 95.0634 23.1469C94.5873 23.4394 94.0704 23.6642 93.5139 23.8241C92.9575 23.9839 92.3825 24.0632 91.7891 24.0632C90.8726 24.0632 90.0339 23.9176 89.2704 23.6252C88.5069 23.3328 87.8515 22.913 87.3043 22.3646C86.757 21.8161 86.3337 21.1612 86.0383 20.3996C85.7416 19.6381 85.5939 18.7893 85.5939 17.8509C85.5939 16.9126 85.7469 16.0938 86.0515 15.3413C86.3561 14.5888 86.7742 13.9378 87.3043 13.3893L87.3056 13.3854Z" fill="white"/>
<path d="M106.447 8.552L99.0918 27.1394H102.594L104.231 22.8909H111.772L113.397 27.1394H117.034L109.732 8.552H106.445H106.447ZM105.387 19.89L106.636 16.65C106.761 16.2965 106.901 15.8976 107.054 15.4558C107.207 15.0126 107.364 14.5524 107.526 14.0754C107.688 13.5972 107.84 13.1371 107.984 12.6953C107.997 12.6563 108.009 12.6199 108.021 12.5809C108.162 13.041 108.32 13.5348 108.495 14.0626C108.675 14.6019 108.841 15.1021 108.994 15.5622C109.147 16.0223 109.268 16.3589 109.358 16.5707L110.628 19.89H105.388H105.387Z" fill="white"/>
<path d="M132.42 8.552V14.1288C132.42 14.8904 132.429 15.6116 132.446 16.2926C132.464 16.9736 132.487 17.6247 132.513 18.2447C132.54 18.8646 132.577 19.4572 132.621 20.0239C132.666 20.5905 132.715 21.1351 132.769 21.6575C132.785 21.8096 132.803 21.959 132.82 22.1085L122.613 8.5533H119.461V27.1407H122.937V19.9447C122.937 19.6965 122.933 19.4353 122.924 19.161C122.915 18.8868 122.896 18.5813 122.87 18.2447C122.843 17.9081 122.812 17.4884 122.776 16.9841C122.74 16.4799 122.69 15.878 122.628 15.1788C122.594 14.7928 122.555 14.3613 122.512 13.887L132.691 27.1407H135.897V8.5533H132.421L132.42 8.552Z" fill="white"/>
</svg>
