<svg width="40" height="40" viewBox="0 0 40 40" fill="none" xmlns="http://www.w3.org/2000/svg">
<path d="M40.001 20C40.001 31.0457 31.0467 40 20.001 40C8.95528 40 0.000976562 31.0457 0.000976562 20C0.000976562 8.9543 8.95528 0 20.001 0C31.0467 0 40.001 8.9543 40.001 20Z" fill="#E1E1E1"/>
<mask id="mask0_596_7024" style="mask-type:alpha" maskUnits="userSpaceOnUse" x="0" y="0" width="41" height="40">
<path d="M40.001 20C40.001 31.0457 31.0467 40 20.001 40C8.95528 40 0.000976562 31.0457 0.000976562 20C0.000976562 8.9543 8.95528 0 20.001 0C31.0467 0 40.001 8.9543 40.001 20Z" fill="#E1E1E1"/>
</mask>
<g mask="url(#mask0_596_7024)">
<path d="M17.308 44.0353C0.0634755 32.1825 -4.49902 1.88734 35.7029 1.88734C33.5179 -0.00158451 22.6657 -5.09293 15.9395 -2.96571C7.53181 -0.306675 -5.96504 5.58933 -3.66939 25.901C-1.83288 42.1503 11.0807 44.7611 17.308 44.0353Z" fill="#BBBBBB"/>
</g>
<path d="M16.887 4.55181C16.3843 4.52502 15.8793 4.55008 15.3762 4.61099C14.8716 4.67274 14.372 4.77235 13.8785 4.90524C12.8937 5.17159 11.9437 5.57856 11.0531 6.08614C10.1607 6.59085 9.33142 7.20564 8.56907 7.8913C7.81324 8.58474 7.12235 9.35219 6.52122 10.1866C5.91696 11.019 5.3948 11.9151 4.98071 12.8635C4.87697 13.1002 4.7795 13.3409 4.68885 13.5835C4.60133 13.828 4.51693 14.0746 4.44392 14.3241C4.29108 14.8213 4.1795 15.3328 4.09441 15.8499C3.93847 16.8853 3.92545 17.9599 4.14634 19.0019C4.36013 20.0384 4.81866 21.0379 5.51235 21.8039C5.64338 21.9473 5.86398 21.9577 6.00741 21.8275C6.1185 21.7244 6.14946 21.5641 6.09449 21.4316L6.09025 21.4245C5.38125 19.729 5.48202 17.9356 5.96966 16.2575C6.45761 14.5734 7.31795 12.9898 8.37681 11.5658C9.44165 10.1422 10.7167 8.87495 12.1547 7.82154C12.8741 7.29555 13.6386 6.82627 14.4443 6.42369C14.8464 6.22096 15.2595 6.03691 15.6841 5.86927C16.108 5.70019 16.5443 5.54893 16.9902 5.40748L16.9968 5.40552C17.2254 5.33139 17.3509 5.08561 17.2793 4.85625C17.2225 4.67827 17.062 4.5602 16.887 4.55181Z" fill="#232733"/>
<path d="M24.4416 34.5093C24.7533 34.568 25.0707 34.5944 25.39 34.5983C25.7102 34.6018 26.0304 34.5813 26.3497 34.5394C26.9867 34.4552 27.6139 34.2803 28.2123 34.0376C28.8116 33.7968 29.3807 33.482 29.9138 33.1174C30.4436 32.7475 30.939 32.3258 31.3839 31.8549C31.8305 31.3855 32.2313 30.8695 32.5689 30.3119C32.6534 30.1727 32.7343 30.0305 32.8112 29.8866C32.8862 29.7412 32.9594 29.5943 33.0258 29.4446C33.1627 29.1469 33.275 28.8368 33.3713 28.521C33.5549 27.8874 33.6526 27.2176 33.6016 26.5485C33.5545 25.8834 33.3515 25.2212 32.9822 24.685C32.9123 24.5845 32.7754 24.5597 32.675 24.629C32.597 24.6842 32.5644 24.7817 32.5876 24.8689L32.5897 24.8738C32.8911 25.9915 32.6787 27.103 32.2343 28.1101C31.7892 29.1211 31.12 30.0381 30.3402 30.839C29.5566 31.6392 28.6548 32.3242 27.6691 32.8621C27.1761 33.1306 26.6596 33.3599 26.1229 33.5441C25.855 33.6372 25.5817 33.7177 25.3025 33.787C25.0238 33.8572 24.7388 33.9153 24.4485 33.9664L24.4443 33.9671C24.2953 33.9943 24.1965 34.1374 24.2221 34.2865C24.2427 34.4024 24.3331 34.4895 24.4416 34.5093Z" fill="#232733"/>
</svg>
