<svg width="113" height="96" viewBox="0 0 113 96" fill="none" xmlns="http://www.w3.org/2000/svg">
<path d="M22.1343 0.281144L0.331421 54.3308L53.5002 75.7784L75.3031 21.7287L22.1343 0.281144Z" fill="white"/>
<path d="M53.6098 75.5152C53.1497 75.3371 52.6599 75.1293 52.185 74.9512C50.8938 74.4318 49.6175 73.9123 48.3263 73.3929C46.4118 72.6212 44.527 71.8643 42.6125 71.0925C40.2676 70.1575 37.9376 69.2225 35.6075 68.2579C33.0697 67.2338 30.5319 66.195 27.9792 65.1709C25.4266 64.1321 22.8294 63.108 20.2767 62.0692C17.8725 61.1045 15.4682 60.1398 13.0491 59.1455C11.0159 58.3292 9.01235 57.5129 6.97913 56.6967C5.5247 56.103 4.07028 55.5243 2.60101 54.9306C2.14094 54.7525 1.69571 54.5596 1.22079 54.3815C0.983335 54.2776 0.745879 54.1589 0.508422 54.0995C0.47874 54.0847 0.449056 54.0847 0.404533 54.0698C0.449056 54.1885 0.493579 54.3221 0.552944 54.4408C0.745878 53.9659 0.938813 53.4762 1.13175 53.0013C1.66602 51.6804 2.18546 50.3892 2.71974 49.0684C3.50632 47.1094 4.27805 45.18 5.06463 43.221C6.01445 40.8761 6.96428 38.5164 7.91411 36.1567C8.95299 33.5595 10.0215 30.9623 11.0604 28.3651C12.1141 25.7531 13.1678 23.141 14.2216 20.5142C15.2011 18.0802 16.1806 15.6315 17.1601 13.2124C17.9912 11.1495 18.8223 9.1014 19.6534 7.03849C20.247 5.56923 20.8407 4.08512 21.4492 2.60101C21.6273 2.14094 21.8053 1.68087 22.0131 1.22079C22.117 0.983337 22.2357 0.73104 22.2951 0.493583C22.3099 0.463901 22.3248 0.419376 22.3248 0.389693C22.2061 0.434217 22.0725 0.47874 21.9538 0.538104C22.4138 0.716197 22.9036 0.923972 23.3785 1.10206C24.6697 1.6215 25.946 2.14094 27.2372 2.66038C29.1517 3.43211 31.0365 4.18901 32.951 4.96074C35.2959 5.89573 37.6259 6.83071 39.956 7.79538C42.4938 8.81942 45.0316 9.85829 47.5843 10.8823C50.1369 11.9212 52.7341 12.9452 55.2868 13.9841C57.691 14.9488 60.0953 15.9135 62.5144 16.9078C64.5476 17.7241 66.5512 18.5403 68.5844 19.3566C70.0388 19.9502 71.4932 20.529 72.9625 21.1227C73.4226 21.3008 73.8678 21.4937 74.3427 21.6718C74.5802 21.7757 74.8176 21.8944 75.0551 21.9538C75.0848 21.9686 75.1144 21.9686 75.159 21.9834C75.1144 21.8647 75.0699 21.7311 75.0106 21.6124C74.8176 22.0873 74.6247 22.5771 74.4318 23.052C73.8975 24.3729 73.3781 25.664 72.8438 26.9849C72.0572 28.9439 71.2855 30.8732 70.4989 32.8323C69.5491 35.1772 68.5992 37.5369 67.6494 39.8966C66.6105 42.4938 65.542 45.091 64.5031 47.6882C63.4494 50.3002 62.3957 52.9122 61.3419 55.5391C60.3624 57.973 59.3829 60.4218 58.4034 62.8409C57.5723 64.9038 56.7412 66.9519 55.9101 69.0148C55.3165 70.484 54.7228 71.9681 54.1143 73.4523C53.8324 74.1498 53.5355 74.8473 53.2536 75.5597C53.2387 75.5894 53.2239 75.6339 53.2239 75.6636C53.0903 75.9901 53.6098 76.2275 53.7285 75.901C53.9214 75.4261 54.1143 74.9364 54.3073 74.4614C54.8416 73.1406 55.361 71.8494 55.8953 70.5286C56.6819 68.5695 57.4536 66.6402 58.2402 64.6812C59.19 62.3363 60.1398 59.9766 61.0896 57.6168C62.1285 55.0197 63.1971 52.4225 64.236 49.8253C65.2897 47.2133 66.3434 44.6012 67.3971 41.9744C68.3766 39.5404 69.3561 37.0916 70.3356 34.6726C71.1667 32.6096 71.9978 30.5616 72.8289 28.4987C73.4226 27.0294 74.0162 25.5453 74.6247 24.0612C74.9067 23.3637 75.2035 22.6661 75.4855 21.9538C75.5003 21.9241 75.5152 21.8796 75.5152 21.8499C75.5597 21.7163 75.53 21.5382 75.3668 21.4788C74.9067 21.3008 74.4169 21.093 73.942 20.9149C72.6508 20.3955 71.3745 19.876 70.0833 19.3566C68.1688 18.5848 66.284 17.8279 64.3695 17.0562C62.0246 16.1212 59.6946 15.1862 57.3645 14.2216C54.8267 13.1975 52.2889 12.1587 49.7362 11.1346C47.1836 10.0957 44.5864 9.07172 42.0337 8.03284C39.6295 7.06817 37.2252 6.1035 34.8061 5.10915C32.7729 4.29289 30.7694 3.47664 28.7361 2.66038C27.2817 2.06673 25.8273 1.48793 24.358 0.894291C23.6753 0.612311 22.9778 0.330331 22.2803 0.0483507C22.2506 0.0335096 22.2209 0.0335078 22.1764 0.0186667C22.0428 -0.0258565 21.8647 0.00382568 21.8054 0.167077C21.6124 0.641991 21.4195 1.13175 21.2265 1.60666C20.6923 2.92752 20.1728 4.21869 19.6386 5.53954C18.852 7.49857 18.0802 9.4279 17.2937 11.3869C16.3438 13.7318 15.394 16.0915 14.4442 18.4513C13.4053 21.0485 12.3367 23.6456 11.2979 26.2428C10.2442 28.8549 9.19044 31.4669 8.13673 34.0938C7.15722 36.5277 6.17771 38.9765 5.1982 41.3956C4.3671 43.4585 3.536 45.5065 2.7049 47.5694C2.11126 49.0387 1.51761 50.5228 0.909131 52.0069C0.62715 52.7044 0.330329 53.402 0.0483484 54.1143C0.0335074 54.144 0.0186667 54.1885 0.0186667 54.2182C-0.0258565 54.3518 0.00382568 54.5299 0.167077 54.5893C0.62715 54.7673 1.1169 54.9751 1.59182 55.1532C2.88299 55.6727 4.15932 56.1921 5.4505 56.7115C7.36499 57.4833 9.24981 58.2402 11.1643 59.0119C13.5092 59.9469 15.8392 60.8819 18.1693 61.8465C20.7071 62.8706 23.2449 63.9094 25.7976 64.9335C28.3503 65.9724 30.9474 66.9964 33.5001 68.0353C35.9044 68.9999 38.3086 69.9646 40.7277 70.959C42.7609 71.7752 44.7645 72.5915 46.7977 73.4077C48.2521 74.0014 49.7066 74.5802 51.1758 75.1738C51.8585 75.4558 52.556 75.7378 53.2536 76.0198C53.2832 76.0346 53.3129 76.0346 53.3575 76.0494C53.7136 76.1533 53.9511 75.6487 53.6098 75.5152Z" fill="#1B1F2C"/>
<path d="M23.9147 4.98938L4.90448 52.116L52.0311 71.1262L71.0413 23.9996L23.9147 4.98938Z" fill="#3E3E60"/>
<path d="M52.1405 70.8847C51.7101 70.7215 51.3094 70.5434 50.879 70.3801C49.7363 69.9201 48.5935 69.46 47.4507 68.9999C45.7589 68.3321 44.0818 67.6345 42.3899 66.9667C40.3122 66.1356 38.2493 65.2896 36.1715 64.4585C33.9157 63.5532 31.6598 62.6331 29.404 61.7278C27.1185 60.8077 24.8478 59.8875 22.5623 58.9674C20.4252 58.1066 18.3177 57.2458 16.1954 56.3999C14.3997 55.6726 12.6039 54.9454 10.8081 54.2331C9.51697 53.7136 8.22579 53.1942 6.93462 52.6747C6.53391 52.5115 6.1332 52.3482 5.73249 52.185C5.52472 52.096 5.31695 51.9921 5.09433 51.9179C5.06465 51.9179 5.03497 51.903 5.02013 51.8882C5.06465 52.0069 5.10917 52.1405 5.16854 52.2592C5.33179 51.8288 5.50988 51.4281 5.67313 50.9977C6.1332 49.8549 6.59328 48.7122 7.05335 47.5694C7.7212 45.8775 8.41873 44.2005 9.08658 42.5086C9.91768 40.4309 10.7636 38.368 11.5947 36.2902C12.5 34.0344 13.4202 31.7785 14.3255 29.5227C15.2456 27.2372 16.1658 24.9665 17.0859 22.681C17.9467 20.5438 18.8075 18.4364 19.6534 16.3141C20.3806 14.5184 21.1078 12.7226 21.8202 10.9268C22.3396 9.63566 22.8591 8.34449 23.3785 7.05332C23.5418 6.65261 23.705 6.2519 23.8683 5.85119C23.9573 5.64341 24.0612 5.43564 24.1354 5.21302C24.1354 5.18334 24.1503 5.15366 24.1651 5.13882C24.0464 5.18334 23.9128 5.22786 23.7941 5.28723C24.2245 5.45048 24.6252 5.62857 25.0556 5.79183C26.1983 6.2519 27.3411 6.71197 28.4839 7.17205C30.1757 7.83989 31.8528 8.53742 33.5447 9.20527C35.6224 10.0364 37.6853 10.8823 39.7631 11.7134C42.0189 12.6187 44.2747 13.5389 46.5306 14.4442C48.8161 15.3643 51.0868 16.2845 53.3723 17.2046C55.5094 18.0654 57.6169 18.9262 59.7391 19.7721C61.5349 20.4993 63.3307 21.2265 65.1264 21.9389C66.4176 22.4583 67.7088 22.9778 68.9999 23.4972C69.4007 23.6605 69.8014 23.8237 70.2021 23.987C70.4099 24.076 70.6176 24.1799 70.8402 24.2541C70.8699 24.2541 70.8996 24.269 70.9145 24.2838C70.8699 24.1651 70.8254 24.0315 70.766 23.9128C70.6028 24.3432 70.4247 24.7439 70.2614 25.1743C69.8014 26.317 69.3413 27.4598 68.8812 28.6025C68.2134 30.2944 67.5158 31.9715 66.848 33.6633C66.0169 35.7411 65.171 37.804 64.3399 39.8818C63.4346 42.1376 62.5144 44.3934 61.6091 46.6493C60.689 48.9348 59.7688 51.2055 58.8487 53.491C57.9879 55.6281 57.1271 57.7355 56.2812 59.8578C55.554 61.6536 54.8267 63.4494 54.1144 65.2451C53.5949 66.5363 53.0755 67.8275 52.5561 69.1186C52.3038 69.742 52.0515 70.3356 51.814 70.9589C51.814 70.9886 51.7992 71.0183 51.7843 71.0331C51.6507 71.3596 52.1702 71.5971 52.2889 71.2706C52.4522 70.8402 52.6303 70.4395 52.7935 70.0091C53.2536 68.8663 53.7137 67.7236 54.1737 66.5808C54.8416 64.8889 55.5391 63.2119 56.207 61.52C57.0381 59.4423 57.884 57.3794 58.7151 55.3016C59.6204 53.0458 60.5406 50.7899 61.4459 48.5341C62.366 46.2486 63.2861 43.9779 64.2063 41.6924C65.0671 39.5552 65.9278 37.4478 66.7738 35.3255C67.501 33.5298 68.2282 31.734 68.9406 29.9382C69.46 28.6471 69.9795 27.3559 70.4989 26.0647C70.7512 25.4414 71.0035 24.8478 71.241 24.2244C71.241 24.1947 71.2558 24.1651 71.2706 24.1502C71.3152 24.0167 71.2855 23.8386 71.1222 23.7792C70.6918 23.6159 70.2911 23.4379 69.8607 23.2746C68.718 22.8145 67.5752 22.3545 66.4324 21.8944C64.7406 21.2265 63.0635 20.529 61.3716 19.8612C59.2939 19.0301 57.231 18.1841 55.1532 17.353C52.8974 16.4477 50.6416 15.5276 48.3857 14.6223C46.1002 13.7021 43.8295 12.782 41.544 11.8618C39.4069 11.001 37.2994 10.1403 35.1772 9.29432C33.3814 8.5671 31.5856 7.83989 29.7899 7.12752C28.4987 6.60808 27.2075 6.08865 25.9163 5.56921C25.293 5.31691 24.6994 5.06461 24.0761 4.82716C24.0464 4.82716 24.0167 4.81232 24.0018 4.79748C23.8683 4.75295 23.6902 4.78263 23.6308 4.94589C23.4676 5.37628 23.2895 5.77699 23.1262 6.20738C22.6662 7.35014 22.2061 8.4929 21.746 9.63566C21.0782 11.3275 20.3806 13.0046 19.7128 14.6965C18.8817 16.7742 18.0357 18.8371 17.2046 20.9149C16.2993 23.1707 15.3792 25.4266 14.4739 27.6824C13.5537 29.9679 12.6336 32.2386 11.7134 34.5241C10.8527 36.6612 9.99188 38.7687 9.14594 40.8909C8.41873 42.6867 7.69152 44.4825 6.97915 46.2782C6.45971 47.5694 5.94027 48.8606 5.42084 50.1518C5.16854 50.7751 4.91624 51.3687 4.67878 51.9921C4.67878 52.0217 4.66394 52.0514 4.6491 52.0663C4.60458 52.1998 4.63426 52.3779 4.79751 52.4373C5.2279 52.6005 5.62861 52.7786 6.059 52.9419C7.20176 53.402 8.34453 53.862 9.48729 54.3221C11.1792 54.99 12.8562 55.6875 14.5481 56.3553C16.6258 57.1864 18.6887 58.0324 20.7665 58.8635C23.0223 59.7688 25.2782 60.6889 27.534 61.5942C29.8195 62.5144 32.0902 63.4345 34.3757 64.3547C36.5129 65.2155 38.6203 66.0762 40.7426 66.9222C42.5383 67.6494 44.3341 68.3766 46.1299 69.089C47.421 69.6084 48.7122 70.1278 50.0034 70.6473C50.6267 70.8996 51.2204 71.1519 51.8437 71.3893C51.8734 71.3893 51.903 71.4042 51.9179 71.419C52.2444 71.5377 52.4818 71.0331 52.1405 70.8847Z" fill="#161B28"/>
<path d="M50.5673 56.8154C50.2853 55.9101 50.8493 54.9603 51.5468 54.3222C52.5263 53.4465 53.7136 52.8677 54.3073 51.5914C54.6634 50.8197 54.7525 49.9292 54.5744 49.0981C54.3369 47.9256 53.5652 46.8423 52.5263 46.2041C51.3687 45.5214 49.7214 45.2988 48.5044 45.9815C47.3171 46.6196 46.6047 48.0295 46.4267 49.3356C45.9666 52.6748 48.8903 54.4409 50.5673 56.8154Z" fill="url(#paint0_linear_1669_9684)"/>
<path d="M50.879 56.7709C50.5525 55.7171 51.4429 54.797 52.1998 54.1885C53.0161 53.5504 53.9065 52.9567 54.4408 52.0069C55.5836 49.9588 54.7525 47.2726 52.8231 46.0408C51.9327 45.462 50.8196 45.1948 49.7659 45.2987C48.6973 45.3878 47.7475 45.9666 47.1242 46.8125C46.5157 47.6288 46.1447 48.6676 46.0705 49.6917C46.0111 50.6118 46.204 51.5171 46.6196 52.3334C47.4062 53.9362 48.8161 55.1087 49.944 56.4889C50.0776 56.6521 50.1963 56.8451 50.3298 57.0083C50.4337 57.1419 50.6415 57.1716 50.7751 57.0528C50.9235 56.9341 50.9235 56.756 50.8196 56.6076C49.8401 55.2125 48.5044 54.144 47.5694 52.7192C47.1242 52.0662 46.7977 51.3093 46.7086 50.5079C46.6196 49.6175 46.7977 48.6825 47.2132 47.8662C47.6288 47.0351 48.3115 46.3227 49.2168 46.0408C50.1518 45.7588 51.1906 45.922 52.0366 46.3376C53.8917 47.2281 54.9009 49.6026 53.9956 51.4874C53.5949 52.3927 52.7341 52.9715 51.9772 53.5652C51.1461 54.2034 50.315 54.9899 50.1666 56.0882C50.1369 56.3553 50.1666 56.6224 50.226 56.8747C50.2705 57.0232 50.4041 57.1567 50.597 57.127C50.7602 57.1122 50.9235 56.9341 50.879 56.7709Z" fill="#1C202C"/>
<path d="M32.8916 60.6295C32.7877 59.6797 31.8676 59.0564 30.9623 58.7744C29.686 58.3737 28.3799 58.3292 27.3262 57.4239C26.6881 56.8599 26.2428 56.0882 26.0499 55.2571C25.7828 54.0698 26.035 52.7935 26.7326 51.7843C27.4895 50.686 28.8994 49.8104 30.2796 49.9291C31.6301 50.033 32.8619 51.0125 33.5446 52.1256C35.3701 54.9603 33.4259 57.7652 32.8916 60.6295Z" fill="url(#paint1_linear_1669_9684)"/>
<path d="M33.2033 60.5702C33.0697 59.6649 32.3277 58.9971 31.5559 58.6261C30.6506 58.2254 29.6414 58.1363 28.7064 57.795C27.7715 57.4388 27.0591 56.8006 26.6287 55.8953C26.2428 55.0197 26.1835 53.9957 26.4506 53.0903C26.97 51.3985 28.751 49.9144 30.6061 50.2557C31.5262 50.4041 32.3425 51.0274 32.9213 51.725C33.5446 52.467 33.9305 53.3723 34.0047 54.3518C34.0641 55.2571 33.8563 56.1773 33.5892 57.0678C33.2923 58.0027 32.9658 58.908 32.7284 59.843C32.669 60.0805 32.6096 60.3328 32.5651 60.5702C32.5354 60.7335 32.6839 60.8967 32.8471 60.9264C33.0252 60.9561 33.1588 60.8225 33.2033 60.6445C33.5892 58.6706 34.5983 56.8303 34.6429 54.8119C34.6726 53.7582 34.3757 52.7342 33.7969 51.8437C33.233 50.9829 32.4464 50.2557 31.4817 49.855C30.5319 49.4543 29.493 49.4988 28.558 49.8847C27.6379 50.2705 26.8216 50.9681 26.3319 51.8289C25.2485 53.6543 25.4563 56.1624 27.1185 57.6169C27.9644 58.3589 29.0478 58.5815 30.0867 58.8338C30.9326 59.0416 31.8973 59.3088 32.387 60.0953C32.4909 60.2734 32.5503 60.4515 32.58 60.6593C32.6096 61.0897 33.233 60.9858 33.2033 60.5702Z" fill="#1C202C"/>
<path d="M38.2509 45.1729C44.3887 43.8513 48.0217 36.544 46.3654 28.8516C44.709 21.1592 38.3906 15.9947 32.2527 17.3163C26.1148 18.638 22.4818 25.9453 24.1382 33.6376C25.7945 41.33 32.113 46.4945 38.2509 45.1729Z" fill="#F5F2FF"/>
<path d="M41.4549 20.1135C42.5086 24.3432 41.9595 28.8401 38.6648 32.3426C35.2365 35.9341 30.3538 37.997 25.5156 37.7002C28.1573 43.0727 33.2775 46.2635 38.2344 45.1801C44.3786 43.8444 48.0147 36.5426 46.3673 28.8401C45.5956 25.2337 43.785 22.1764 41.4549 20.1135Z" fill="#D4D4F4"/>
<path d="M46.1447 28.8846C46.768 31.7044 46.6789 34.6726 45.7885 37.4033C45.0019 39.8076 43.592 42.0189 41.5142 43.4733C39.5701 44.8387 37.151 45.3878 34.8061 45.0168C32.4315 44.6458 30.2796 43.3398 28.6025 41.6627C26.6732 39.7334 25.3375 37.2698 24.5954 34.6281C23.8089 31.838 23.6901 28.8401 24.4025 26.0054C25.0258 23.5566 26.3022 21.1672 28.2612 19.5199C30.0866 17.9764 32.4464 17.1453 34.8506 17.3382C37.24 17.5015 39.4513 18.6146 41.2323 20.158C43.2506 21.9241 44.7051 24.269 45.5807 26.792C45.8033 27.5044 45.9962 28.187 46.1447 28.8846C46.204 29.1814 46.6789 29.1072 46.6196 28.8104C46.0111 26.0054 44.7496 23.334 42.8796 21.1969C41.2174 19.2973 39.0655 17.7835 36.6018 17.1898C34.2124 16.5962 31.6746 16.9078 29.5227 18.11C27.252 19.3863 25.6046 21.5383 24.6251 23.9425C23.512 26.6733 23.2597 29.686 23.6901 32.58C24.1205 35.4443 25.2484 38.2493 27.0145 40.5497C28.558 42.568 30.6357 44.2302 33.0697 45.0613C35.3997 45.8628 37.9672 45.7886 40.2231 44.7794C42.568 43.7256 44.3786 41.7369 45.5213 39.4366C46.8125 36.8394 47.2281 33.9157 46.9906 31.0365C46.9312 30.2796 46.8125 29.5376 46.6493 28.7807C46.5454 28.4987 46.1001 28.5729 46.1447 28.8846Z" fill="#1C202C"/>
<path d="M24.9071 36.6168C27.7566 36.9433 30.6506 36.8691 33.4556 36.5129C36.7503 36.0825 39.9856 35.2069 43.0429 33.9899C44.3489 33.4853 45.6252 32.9065 46.8422 32.209C47.1093 32.0606 46.9164 31.6302 46.6344 31.7786C45.5659 32.3722 44.4528 32.8768 43.3397 33.3666C41.9298 33.9602 40.4902 34.45 39.021 34.8952C35.8301 35.8302 32.5057 36.3348 29.1813 36.3942C27.7566 36.4387 26.3318 36.3645 24.9219 36.2012C24.6548 36.0974 24.6103 36.5723 24.9071 36.6168Z" fill="#1C202C"/>
<path d="M39.5256 17.264C37.0174 15.5276 34.8209 14.4294 33.3368 13.7616C32.1199 13.2273 30.6803 13.5389 29.8047 14.5184C28.7213 15.7354 27.163 17.6351 25.5898 20.2619C23.5714 23.616 22.1318 29.2853 22.1318 29.2853C22.1318 29.2853 25.3227 29.7454 28.1276 30.6655C28.8103 30.903 29.8195 31.3927 30.9029 31.9864C33.8118 33.5447 37.5517 32.7581 39.5404 30.1164C40.2825 29.1369 40.9948 28.2613 41.5291 27.7864C43.6811 25.7828 46.397 24.0612 46.397 24.0612C46.397 24.0612 42.7461 19.4902 39.5256 17.264Z" fill="#F5F2FF"/>
<path d="M39.7185 16.982C37.8931 15.7205 35.9489 14.5925 33.9453 13.6724C33.5298 13.4646 33.0994 13.2865 32.6393 13.2123C32.1199 13.1381 31.5856 13.1678 31.0959 13.3311C30.6358 13.4795 30.1609 13.7318 29.8047 14.0583C29.493 14.3551 29.211 14.6964 28.9291 15.0378C28.2761 15.7947 27.6527 16.6109 27.0739 17.4272C26.3912 18.3919 25.7086 19.401 25.1149 20.4548C24.1502 22.1318 23.4527 23.9721 22.8294 25.7975C22.4584 26.8809 22.117 28.0089 21.835 29.1219C21.8499 29.1368 21.835 29.1665 21.8202 29.1665C21.7757 29.3594 21.8499 29.5672 22.0725 29.6117C23.5566 29.8343 25.0407 30.1311 26.51 30.517C27.0591 30.6803 27.6082 30.8138 28.1573 31.0216C28.6619 31.1997 29.1517 31.4372 29.6266 31.6598C30.146 31.9269 30.6655 32.2237 31.1997 32.476C31.6598 32.669 32.1199 32.8322 32.5948 32.9361C34.4499 33.3516 36.4238 32.9658 38.0266 31.9417C38.4273 31.6894 38.7835 31.4075 39.1249 31.0661C39.5107 30.6803 39.8372 30.2499 40.1637 29.8343C40.5199 29.3742 40.9058 28.9142 41.2917 28.4689C41.6182 28.0831 42.0189 27.7566 42.3899 27.4449C43.6959 26.3318 45.0761 25.3078 46.5157 24.3876C46.5306 24.358 46.5751 24.3431 46.6048 24.3283C46.7532 24.2541 46.768 24.0018 46.6493 23.8831C46.1892 23.3191 45.7143 22.7403 45.2246 22.1763C44.1857 20.989 43.0726 19.8166 41.8853 18.748C41.1878 18.1099 40.4606 17.5162 39.7185 16.982C39.392 16.7593 38.9913 17.2639 39.3475 17.4866C40.6832 18.4215 41.8853 19.5346 43.0281 20.7071C43.9482 21.6569 44.8535 22.6364 45.6846 23.6604C45.8479 23.8534 46.0111 24.0463 46.1744 24.2689C46.1892 24.1205 46.2041 23.9573 46.2189 23.8237C45.0168 24.5954 43.8443 25.4562 42.7164 26.3615C41.8705 27.0442 41.0691 27.7566 40.3864 28.5877C39.6888 29.4039 39.1249 30.3389 38.2789 31.0216C36.869 32.1644 35.0139 32.669 33.233 32.4463C32.7877 32.387 32.3425 32.2682 31.927 32.1347C31.4372 31.9417 30.9771 31.6746 30.4874 31.4372C29.9828 31.17 29.4485 30.888 28.9142 30.6803C28.4393 30.4725 27.9347 30.3241 27.445 30.1608C25.7531 29.6562 24.0167 29.3 22.2951 29.0329C22.2654 29.0329 22.2506 29.0181 22.2061 29.0329C22.2803 29.1813 22.3842 29.3149 22.4584 29.4781C22.6958 28.5877 22.963 27.6824 23.2301 26.7919C23.7941 25.0258 24.4322 23.2597 25.2633 21.6272C25.7531 20.6625 26.3319 19.7276 26.9255 18.8371C27.534 17.9318 28.1722 17.0562 28.8549 16.2102C29.122 15.8689 29.404 15.5424 29.686 15.201C29.9828 14.8745 30.2351 14.5629 30.5913 14.3254C31.3778 13.7911 32.387 13.7466 33.233 14.1176C35.0733 14.9339 36.8542 15.9282 38.5461 17.0265C38.8132 17.2194 39.0803 17.3678 39.3475 17.5459C39.674 17.7388 40.045 17.2046 39.7185 16.982Z" fill="#1C202C"/>
<path d="M32.3708 21.7493C32.6471 20.8911 32.4346 20.0548 31.8963 19.8816C31.3579 19.7083 30.6975 20.2635 30.4213 21.1218C30.145 21.98 30.3575 22.8163 30.8959 22.9895C31.4342 23.1628 32.0946 22.6076 32.3708 21.7493Z" fill="white"/>
<path d="M33.3072 27.1333C36.0202 27.1333 38.2196 24.9339 38.2196 22.2209C38.2196 19.5078 36.0202 17.3085 33.3072 17.3085C30.5941 17.3085 28.3948 19.5078 28.3948 22.2209C28.3948 24.9339 30.5941 27.1333 33.3072 27.1333Z" fill="#F5F2FF"/>
<path d="M37.8634 21.2265C38.2641 23.1262 37.433 25.1149 35.8005 26.1686C34.1531 27.2223 31.9566 27.1036 30.4132 25.8866C28.8697 24.6845 28.2315 22.5622 28.8697 20.6923C29.5079 18.8668 31.2591 17.5608 33.233 17.5163C35.1772 17.4718 36.9729 18.7036 37.6853 20.4845C37.7447 20.7368 37.8189 20.9743 37.8634 21.2265C37.9227 21.5234 38.3977 21.4492 38.3383 21.1523C37.8634 19.0746 36.1567 17.4272 34.0047 17.1156C31.8528 16.8188 29.7156 17.9318 28.6916 19.8612C27.6824 21.7608 28.0238 24.1948 29.5079 25.7531C30.992 27.3114 33.3665 27.816 35.3256 26.9404C37.2697 26.0796 38.5164 24.0612 38.4125 21.9389C38.3977 21.6718 38.3531 21.4046 38.3086 21.1375C38.2789 20.8407 37.804 20.9149 37.8634 21.2265Z" fill="#1C202C"/>
<path d="M33.3072 25.8273C35.2989 25.8273 36.9136 24.2126 36.9136 22.2209C36.9136 20.2291 35.2989 18.6145 33.3072 18.6145C31.3154 18.6145 29.7008 20.2291 29.7008 22.2209C29.7008 24.2126 31.3154 25.8273 33.3072 25.8273Z" fill="#F5F2FF"/>
<path d="M36.6019 21.4789C36.8839 22.8739 36.3051 24.2987 35.0733 25.0704C33.886 25.8124 32.3128 25.7234 31.1849 24.8626C30.0718 24.0018 29.6266 22.4732 30.057 21.1375C30.5171 19.8167 31.7637 18.8668 33.1736 18.8371C34.821 18.8075 36.2457 19.9354 36.6019 21.4789C36.6613 21.7757 37.1362 21.7015 37.0768 21.4046C36.7355 19.8463 35.4443 18.6145 33.8415 18.3919C32.2386 18.1693 30.6358 19.0004 29.9086 20.4251C29.1665 21.8647 29.404 23.6605 30.5022 24.8181C31.6005 26.0054 33.3666 26.3616 34.8655 25.7234C36.3348 25.0852 37.2549 23.5714 37.1956 21.9834C37.1956 21.7608 37.1659 21.5827 37.1213 21.3898C37.0026 21.1078 36.5574 21.1969 36.6019 21.4789Z" fill="#1C202C"/>
<path d="M33.3072 25.7976C35.2825 25.7976 36.8839 24.1962 36.8839 22.2209C36.8839 20.2455 35.2825 18.6442 33.3072 18.6442C31.3318 18.6442 29.7305 20.2455 29.7305 22.2209C29.7305 24.1962 31.3318 25.7976 33.3072 25.7976Z" fill="#1C202C"/>
<path d="M38.2418 45.6729C39.7722 45.3434 40.5248 42.8092 39.9226 40.0127C39.3205 37.2162 37.5917 35.2163 36.0612 35.5459C34.5307 35.8754 33.7782 38.4096 34.3803 41.2061C34.9825 44.0026 36.7113 46.0024 38.2418 45.6729Z" fill="#F5F2FF"/>
<path d="M39.6295 40.0598C39.8521 41.0542 39.8966 42.0634 39.7482 43.0725C39.6888 43.4584 39.5701 43.8591 39.4068 44.2153C39.2733 44.5121 39.0655 44.8089 38.8726 45.0019C38.65 45.2097 38.4273 45.3284 38.1602 45.3729C38.1008 45.4026 38.0118 45.3877 37.9524 45.3877C38.0118 45.3877 37.9376 45.4026 37.9079 45.3877C37.8634 45.3877 37.8337 45.3729 37.804 45.3729C37.6259 45.3432 37.5814 45.3581 37.433 45.269C36.8097 45.0316 36.3199 44.527 35.934 43.9778C35.4146 43.2358 35.0436 42.375 34.8358 41.4994C34.5835 40.5199 34.4796 39.481 34.5835 38.4718C34.6725 37.7298 34.8803 36.9283 35.3701 36.3495C35.5482 36.1269 35.7856 35.9637 36.0528 35.8746C36.0973 35.8598 36.0528 35.8746 36.0973 35.8598C36.1418 35.8598 36.1567 35.8301 36.216 35.8153C36.2754 35.7856 36.3644 35.8004 36.4238 35.8004C36.3496 35.8153 36.4535 35.8004 36.4683 35.8153C36.5128 35.8153 36.5128 35.8301 36.5722 35.8301C36.6167 35.8301 36.6167 35.8449 36.6761 35.8449C36.7058 35.8449 36.7948 35.8746 36.7503 35.8746C37.0174 35.934 37.2697 36.0676 37.5072 36.2457C37.8189 36.4683 38.0415 36.7057 38.2492 36.9877C38.7984 37.6852 39.1991 38.5163 39.4365 39.3623C39.5107 39.5849 39.5701 39.8224 39.6295 40.0598C39.7037 40.4457 40.3567 40.3418 40.2528 39.9708C40.0302 38.9467 39.6591 37.9524 39.0952 37.0768C38.6648 36.4089 38.0712 35.7559 37.3291 35.4146C36.6613 35.1326 35.934 35.1474 35.3107 35.5481C34.628 36.0082 34.2718 36.8393 34.0641 37.5962C33.7969 38.6499 33.8118 39.763 33.9899 40.8464C34.168 41.9001 34.5241 42.9241 35.0287 43.8443C35.7263 45.0612 37.2104 46.6344 38.7687 45.833C39.4811 45.4768 39.9263 44.7199 40.1786 43.9927C40.4902 42.9687 40.5348 41.9001 40.4012 40.8315C40.3567 40.5496 40.3121 40.2527 40.2825 39.9856C40.1786 39.5404 39.5404 39.6443 39.6295 40.0598Z" fill="#1C202C"/>
<path d="M36.6612 37.4924C36.5573 37.3143 36.3644 37.344 36.3496 37.5666C36.305 38.8281 36.2754 41.9299 37.0174 45.3878C37.7595 48.8458 39.0655 51.6656 39.6146 52.7935C39.7185 52.9716 39.9114 52.9419 39.9263 52.7193C39.9708 51.4578 40.0005 48.3561 39.2584 44.8981C38.5312 41.4401 37.2252 38.6352 36.6612 37.4924Z" fill="#F5F2FF"/>
<path d="M36.9581 37.3736C36.8839 37.2252 36.7355 37.1064 36.5574 37.0916C36.3793 37.0768 36.2309 37.1213 36.127 37.2548C35.9934 37.4033 36.0082 37.6407 35.9934 37.8336C35.9637 38.2344 35.9786 38.6351 35.9786 39.0506C35.9786 40.2231 36.0676 41.4252 36.2012 42.5828C36.5128 45.2542 37.1955 47.8959 38.1899 50.404C38.5015 51.1906 38.8429 51.9772 39.2288 52.7638C39.3326 52.9715 39.4514 53.209 39.7185 53.2535C40.045 53.298 40.2528 53.0161 40.2528 52.7341C40.2676 52.363 40.2676 51.992 40.2676 51.6358C40.2528 49.0832 39.9857 46.5157 39.3772 44.0224C38.8577 41.8853 38.086 39.7778 37.1213 37.804C37.0916 37.6259 37.0323 37.4923 36.9581 37.3736C36.78 37.0025 36.1863 37.2548 36.3793 37.6407C37.2104 39.2732 37.8782 41.0096 38.3977 42.746C39.1249 45.18 39.5256 47.703 39.6295 50.2259C39.6591 51.0422 39.674 51.8288 39.6443 52.6153C39.6591 52.6302 39.6295 52.6896 39.6443 52.7044C39.5849 52.6154 39.9708 52.5411 39.9263 52.6599C39.9263 52.6302 39.8521 52.5115 39.8521 52.4818C39.7779 52.3482 39.7185 52.185 39.6592 52.0662C39.4811 51.71 39.3178 51.339 39.1842 50.9828C38.2492 48.8012 37.5369 46.5157 37.151 44.1856C36.7948 42.1227 36.6464 40.0153 36.6909 37.9227C36.7058 37.8782 36.6909 37.7743 36.6909 37.7149C36.6761 37.7001 36.6909 37.6259 36.6909 37.6259C36.6761 37.611 36.7058 37.5962 36.6464 37.6556C36.5722 37.7298 36.4535 37.7298 36.409 37.6259C36.4832 37.7743 36.6612 37.8633 36.8245 37.7891C36.9581 37.7149 37.0323 37.5071 36.9581 37.3736Z" fill="#1C202C"/>
<path d="M46.1745 35.9889C46.2066 33.3827 45.6413 31.2627 44.9118 31.2537C44.1824 31.2447 43.5651 33.3502 43.5331 35.9564C43.501 38.5626 44.0663 40.6827 44.7958 40.6917C45.5252 40.7006 46.1425 38.5951 46.1745 35.9889Z" fill="#F5F2FF"/>
<path d="M43.2507 35.8302C43.2507 36.7949 43.2952 37.7744 43.4585 38.7094C43.5624 39.3475 43.7405 40.0451 44.1115 40.5942C44.3935 41.0097 44.9129 41.1582 45.3136 40.8168C45.7588 40.4606 45.9666 39.7928 46.1002 39.2437C46.3525 38.3384 46.4415 37.4034 46.4861 36.4832C46.5306 35.4889 46.5009 34.5094 46.3525 33.5298C46.2486 32.8472 46.1002 32.1348 45.7737 31.5411C45.5362 31.1256 45.1058 30.7546 44.6161 31.0217C44.1263 31.2888 43.9037 31.927 43.7405 32.4168C43.4733 33.2627 43.3694 34.1532 43.2952 35.0585C43.2655 35.3108 43.2507 35.5779 43.2507 35.8302C43.2359 35.9935 43.3546 36.1716 43.5327 36.1864C43.7108 36.2161 43.874 36.0974 43.8889 35.9044C43.9037 35.014 43.9779 34.1383 44.156 33.2627C44.2154 32.951 44.3044 32.6394 44.4083 32.3426C44.4974 32.0754 44.5716 31.927 44.72 31.7489C44.7348 31.7192 44.8387 31.6302 44.7645 31.6747C44.7793 31.645 44.8239 31.6154 44.8535 31.6005C44.8684 31.5857 44.8981 31.5857 44.8239 31.6153C44.8239 31.6153 44.8684 31.5857 44.8684 31.6005C44.8535 31.5857 44.9871 31.6005 44.8535 31.6153C44.8832 31.6153 44.9129 31.6154 44.9277 31.6005C44.8684 31.6302 44.8684 31.6005 44.9129 31.6153C44.9574 31.6302 44.9574 31.645 44.8981 31.6302C44.9277 31.645 45.0168 31.6896 44.9277 31.6302C44.9723 31.645 44.9871 31.6747 45.0168 31.7044C45.0762 31.7489 44.9723 31.645 45.0168 31.7044C45.0465 31.7192 45.0613 31.7341 45.0762 31.7638C45.1058 31.7786 45.1207 31.838 45.1504 31.8528C45.1949 31.927 45.1058 31.7934 45.1652 31.8825C45.18 31.9122 45.2097 31.9419 45.2246 31.9715C45.2839 32.0903 45.3285 32.2238 45.3878 32.3277C45.5065 32.6245 45.5659 32.9214 45.6401 33.233C45.8034 34.0493 45.8627 34.8952 45.8776 35.7263C45.8776 36.6316 45.8182 37.5666 45.655 38.4571C45.5956 38.7836 45.5065 39.1101 45.4175 39.4366C45.3878 39.5702 45.3285 39.7186 45.2691 39.8373C45.2542 39.8818 45.2097 39.9412 45.2097 39.9857C45.1949 40.0154 45.18 40.0451 45.1652 40.0748C45.1504 40.1193 45.1504 40.1193 45.18 40.0896C45.1652 40.1044 45.1652 40.1341 45.1504 40.1341C45.1058 40.2232 45.0465 40.2825 44.9871 40.3716C45.0465 40.3122 44.9426 40.3864 44.9277 40.4161C44.9129 40.4309 44.8535 40.4606 44.9277 40.4161C44.9129 40.4309 44.8832 40.4309 44.8684 40.4458C44.809 40.4903 44.9277 40.4161 44.8832 40.4309C44.8684 40.4458 44.8535 40.4458 44.8387 40.4309C44.7645 40.4458 44.9277 40.4309 44.8535 40.4161C44.8387 40.4309 44.809 40.4161 44.809 40.4013C44.8832 40.4161 44.8535 40.4161 44.8239 40.3864C44.7942 40.3716 44.7645 40.3419 44.8387 40.4013C44.7942 40.3864 44.7793 40.3567 44.7497 40.3271C44.6903 40.2825 44.7942 40.3864 44.7497 40.3271C44.72 40.3122 44.7051 40.2974 44.6903 40.2677C44.6754 40.2529 44.6606 40.2232 44.6458 40.2083C44.6309 40.1935 44.5864 40.1044 44.6161 40.1638C44.5567 40.0599 44.4973 39.9263 44.438 39.7928C44.3193 39.496 44.2451 39.1695 44.1708 38.8281C43.9779 37.8783 43.9334 36.8988 43.9334 35.9193C43.9482 35.756 43.8295 35.5779 43.6514 35.5631C43.4436 35.5334 43.2507 35.6521 43.2507 35.8302Z" fill="#1C202C"/>
<path d="M45.1504 38.5015C45.3433 38.5312 45.6253 38.6054 45.9666 38.739C47.7773 39.5107 48.4154 41.5588 48.6084 42.2118C48.7716 42.7164 48.9645 43.5178 48.92 44.5418C49.3504 43.6217 49.8995 42.2415 50.0331 40.4902C50.3151 37.1361 48.9942 34.5686 48.4154 33.5446C48.2373 33.8266 48.0592 33.9453 47.9108 34.0343C47.1985 34.4054 46.1447 34.0789 45.2543 33.2032" fill="#F5F2FF"/>
<path d="M45.1355 38.828C46.1744 39.021 47.0055 39.7037 47.5695 40.5941C47.7773 40.9206 47.9553 41.3213 48.1334 41.7072C48.2522 41.9743 48.3412 42.3008 48.4006 42.5235C48.5787 43.1765 48.6677 43.8592 48.638 44.5419C48.6232 44.898 49.0833 45.0316 49.2465 44.7051C50.0034 43.132 50.419 41.3955 50.4338 39.6295C50.4338 38.0266 50.0925 36.4386 49.484 34.9545C49.2614 34.4499 49.0091 33.9453 48.7271 33.4704C48.6232 33.2775 48.3115 33.2033 48.178 33.4111C48.0444 33.6337 47.8811 33.7821 47.6585 33.8563C47.4656 33.9305 47.243 33.9305 47.0352 33.886C46.4712 33.7969 45.937 33.4407 45.5363 33.04C45.4175 32.9213 45.2246 32.8768 45.091 32.9955C44.9723 33.0994 44.8981 33.322 45.0465 33.4407C45.5956 33.9899 46.2486 34.4202 47.0204 34.539C47.703 34.628 48.3412 34.3609 48.6974 33.7672C48.5193 33.7376 48.3264 33.7376 48.1483 33.7079C48.7122 34.6725 49.1575 35.7114 49.4246 36.7948C49.855 38.5164 49.8995 40.3122 49.4988 42.0486C49.3059 42.8797 49.0239 43.6662 48.6529 44.4231C48.8458 44.4676 49.0536 44.5122 49.2614 44.5864C49.291 43.5327 49.1129 42.5086 48.7419 41.5143C48.4006 40.5793 47.8811 39.7185 47.1094 39.0507C46.5751 38.5906 45.937 38.2938 45.2097 38.1602C45.0465 38.1305 44.8833 38.2789 44.8536 38.4422C44.8239 38.6499 44.9574 38.7835 45.1355 38.828Z" fill="#1C202C"/>
<path d="M30.763 43.7147C31.424 43.4062 31.0663 41.2413 29.9641 38.8793C28.8618 36.5173 27.4323 34.8526 26.7712 35.1611C26.1102 35.4696 26.4679 37.6345 27.5701 39.9965C28.6724 42.3585 30.1019 44.0232 30.763 43.7147Z" fill="#F5F2FF"/>
<path d="M29.6266 38.9319C29.9976 39.7482 30.3241 40.5793 30.5616 41.4401C30.6506 41.7814 30.7248 42.1227 30.7545 42.4938C30.7842 42.7461 30.7842 42.9242 30.7396 43.1913C30.7545 43.2061 30.7248 43.2803 30.7545 43.2061C30.7545 43.2358 30.7396 43.2507 30.7248 43.2803C30.71 43.3249 30.6803 43.3397 30.6951 43.3842C30.7396 43.2952 30.6803 43.4139 30.6654 43.4288C30.71 43.3546 30.6803 43.3991 30.6506 43.4139C30.6358 43.4436 30.6061 43.4288 30.6654 43.3991C30.6506 43.4139 30.6358 43.4139 30.6209 43.4139C30.5616 43.4436 30.6803 43.3842 30.6358 43.3991C30.6209 43.4139 30.5912 43.3991 30.5764 43.3991C30.6654 43.3842 30.6209 43.4139 30.5912 43.3842C30.5616 43.3842 30.4577 43.3546 30.5616 43.3842C30.517 43.3694 30.4577 43.3546 30.428 43.3397C30.3983 43.3249 30.3835 43.3249 30.3686 43.31C30.3835 43.2952 30.428 43.3397 30.3686 43.31C30.3241 43.2803 30.2647 43.2358 30.235 43.221C30.146 43.1468 30.0273 43.0577 29.9382 42.9687C29.7453 42.7906 29.5078 42.5086 29.3297 42.286C28.8548 41.6478 28.4244 40.9355 28.0683 40.2231C27.6675 39.4217 27.2965 38.5609 27.0591 37.6853C26.881 37.0768 26.7326 36.4089 26.7771 35.8005C26.7919 35.7559 26.7919 35.6966 26.8068 35.6224C26.7919 35.6075 26.8068 35.5778 26.8216 35.5778C26.7919 35.652 26.8216 35.5778 26.8068 35.563C26.8216 35.5185 26.8513 35.4739 26.8513 35.4294C26.8068 35.5185 26.8661 35.3997 26.881 35.3849C26.8364 35.4591 26.8661 35.4146 26.8958 35.3997C26.9107 35.3701 26.9403 35.3849 26.881 35.4146C26.8958 35.3997 26.9107 35.3997 26.9255 35.3997C26.9849 35.3701 26.8661 35.4294 26.9107 35.4146C26.9255 35.3997 26.9403 35.3997 26.9552 35.4146C27.0294 35.3997 26.881 35.3849 26.9403 35.4294C26.9552 35.4146 26.9849 35.4294 26.9849 35.4443C27.0739 35.4443 26.9403 35.4294 26.9997 35.4294C27.0442 35.4443 27.0887 35.4739 27.1333 35.4739C27.1629 35.4888 27.1778 35.4888 27.1926 35.5036C27.1333 35.4591 27.2223 35.5185 27.2223 35.5185C27.3114 35.5927 27.4449 35.652 27.534 35.7559C27.7418 35.9489 27.9941 36.216 28.187 36.4831C28.7509 37.2549 29.2259 38.086 29.6266 38.9319C29.8047 39.3029 30.3983 39.0506 30.2054 38.6648C29.8195 37.804 29.3297 37.0026 28.7658 36.2308C28.3948 35.7262 27.9495 35.192 27.3856 34.91C26.9403 34.6725 26.4506 34.7913 26.228 35.2662C26.1241 35.5036 26.0944 35.7856 26.1092 36.0379C26.1092 36.4089 26.1686 36.7503 26.2131 37.1065C26.4061 38.0266 26.7177 38.9468 27.1184 39.8372C27.5191 40.7277 27.9792 41.6033 28.5432 42.4047C28.9142 42.9538 29.3594 43.5178 29.9234 43.874C30.3093 44.1263 30.8584 44.245 31.17 43.7849C31.5114 43.31 31.4075 42.5977 31.3333 42.0485C31.1849 41.1581 30.8881 40.2528 30.5467 39.4217C30.4577 39.1694 30.3241 38.9171 30.2202 38.6648C30.0421 38.3086 29.4782 38.5757 29.6266 38.9319Z" fill="#1C202C"/>
<path d="M29.5375 41.8705C29.3743 41.9892 29.122 42.1525 28.8845 42.4345C27.5637 43.8889 27.816 46.026 27.905 46.6939C27.9792 47.2133 28.1276 48.0296 28.5877 48.9349C27.8011 48.2819 26.7622 47.243 25.9163 45.7144C24.2838 42.7758 24.4322 39.9115 24.5509 38.6945C24.8181 38.8875 25.0407 38.9171 25.2188 38.932C26.0053 38.9914 26.8513 38.2345 27.2965 37.062" fill="#F5F2FF"/>
<path d="M29.3446 41.6181C27.5785 42.8351 27.2965 45.1058 27.6527 47.05C27.7566 47.7475 27.9792 48.4153 28.3057 49.0535C28.4541 48.9348 28.6322 48.7864 28.7806 48.6677C27.5636 47.6585 26.5693 46.3821 25.9014 44.9574C25.2039 43.5178 24.8477 41.9446 24.7884 40.3418C24.7735 39.8224 24.7884 39.2584 24.8477 38.7093C24.6696 38.7835 24.5212 38.8577 24.3431 38.9468C24.9219 39.3326 25.6195 39.3326 26.2428 38.9468C26.881 38.5609 27.3113 37.8782 27.5785 37.1955C27.7269 36.8096 27.1333 36.587 26.9997 36.958C26.7771 37.5072 26.4654 38.0414 25.9757 38.3828C25.5898 38.6648 25.1446 38.6945 24.7587 38.4422C24.5658 38.3234 24.2838 38.4273 24.2541 38.6796C23.9127 41.7814 24.7587 44.9574 26.688 47.4062C27.2075 48.0592 27.7863 48.6528 28.4393 49.2019C28.6916 49.3949 29.0478 49.1129 28.9142 48.8161C28.5135 47.9701 28.2909 47.0945 28.2018 46.1595C28.1721 45.7588 28.1573 45.3729 28.2167 44.9425C28.2612 44.4379 28.3947 43.963 28.5877 43.503C28.84 42.939 29.2407 42.4789 29.7601 42.1227C29.8937 42.0189 29.9234 41.8111 29.8046 41.6775C29.6711 41.5291 29.493 41.5291 29.3446 41.6181Z" fill="#1C202C"/>
<path d="M85.5528 85.9534C92.9075 80.6538 95.7504 72.0289 91.9027 66.6891C88.055 61.3493 78.9737 61.3167 71.619 66.6163C64.2643 71.9159 61.4213 80.5408 65.269 85.8806C69.1167 91.2204 78.1981 91.253 85.5528 85.9534Z" fill="white"/>
<path d="M91.4842 66.9222C92.9089 68.9257 93.3542 71.3151 93.0425 73.7342C92.7012 76.4353 91.41 79.0473 89.7478 81.2438C87.7739 83.841 85.1322 85.9484 82.2382 87.4028C79.4629 88.7979 76.3166 89.5993 73.2148 89.4064C70.6028 89.2283 68.0205 88.2785 66.2395 86.3194C64.607 84.5237 63.9392 82.1491 64.0431 79.7597C64.1766 77.0883 65.26 74.4614 66.7738 72.2353C68.5696 69.5639 71.0629 67.3526 73.8382 65.7646C76.5986 64.1766 79.7449 63.1674 82.9209 63.1377C85.5478 63.1229 88.2934 63.8204 90.2672 65.6013C90.7273 65.9872 91.1428 66.4473 91.4842 66.9222C91.6326 67.1299 91.8997 67.2338 92.1372 67.1003C92.345 66.9815 92.4637 66.655 92.3153 66.4473C90.6383 64.1469 88.0559 62.7667 85.2658 62.3511C82.0601 61.8762 78.7654 62.4698 75.812 63.7017C72.5915 65.0522 69.6827 67.1745 67.412 69.8162C65.4678 72.0869 63.9392 74.8028 63.3604 77.7561C62.8409 80.3236 63.0784 83.0544 64.3844 85.3548C65.7795 87.7739 68.2134 89.3767 70.8996 90C73.9717 90.7272 77.2665 90.3265 80.2198 89.3025C83.5294 88.1449 86.5866 86.1413 89.0057 83.6035C91.0983 81.407 92.7902 78.7208 93.6213 75.7823C94.3188 73.2296 94.3188 70.4692 93.2354 68.0056C92.9831 67.4564 92.6863 66.9222 92.3153 66.4176C92.1669 66.2098 91.8997 66.1059 91.6623 66.2395C91.4545 66.4176 91.3358 66.7144 91.4842 66.9222Z" fill="#1B1F2C"/>
<path d="M90.6086 66.1504C93.6361 70.3652 90.4898 77.8006 83.5739 82.7872C76.658 87.759 68.5993 88.3971 65.5717 84.1971C62.5441 79.9823 65.0374 71.8048 71.9533 66.8331C78.8396 61.8613 87.581 61.9652 90.6086 66.1504Z" fill="#E9E9FF"/>
<path d="M86.5569 46.5751C85.4735 43.9482 84.0933 41.4252 82.5201 39.0655C80.9025 36.6612 79.0473 34.4054 76.9547 32.4019C74.9363 30.4577 72.6953 28.751 70.2169 27.4301C67.4119 25.946 64.3695 25.0852 61.2232 24.7439C60.778 24.6993 60.3624 24.6697 59.932 24.6251C58.997 24.5658 58.0472 24.5509 57.2013 24.9516C56.1476 25.4414 55.5688 26.4951 55.4649 27.6379C55.3461 28.929 55.8656 30.2351 56.4295 31.3778C56.9638 32.4019 57.6613 33.3517 58.4479 34.2125C59.9172 35.845 61.6536 37.2252 63.479 38.4273C63.9985 38.7687 65.631 39.8372 65.9575 39.956C63.8798 39.1991 61.7723 38.5015 59.6204 38.0266C57.0083 37.433 51.161 36.6316 49.4691 39.481C49.009 40.2676 48.6677 41.1432 48.7715 42.0486C48.9942 44.6012 50.7751 46.6938 52.6747 48.2521C54.2924 49.6027 56.103 50.7157 57.9582 51.6952C58.3589 51.903 58.7596 52.1108 59.1603 52.3037C59.3681 52.3928 59.6204 52.5857 59.8281 52.6451C58.7299 52.3928 57.6168 52.0663 56.5186 51.814C54.055 51.2203 51.2945 50.8938 48.8606 51.7546C48.1185 52.0069 47.4062 52.4076 46.9313 53.0309C46.3228 53.8472 46.2337 54.9603 46.3228 55.9843C46.4563 57.4387 46.9313 58.8635 47.8662 59.9914C48.7567 61.0748 49.8846 61.9207 51.1016 62.6183C51.1758 62.6628 51.25 62.7073 51.3242 62.7518C53.209 63.8204 55.3758 64.3102 57.5278 64.3547C57.2013 65.8536 56.9045 68.1985 57.5278 70.8699C58.8041 76.3908 63.5087 81.4071 69.549 82.5498C78.3349 84.212 85.8891 76.8954 87.759 70.4395C88.5011 67.7978 91.1576 57.7059 86.5569 46.5751Z" fill="white"/>
<path d="M87.9223 48.8013C87.6255 47.985 87.3286 47.2281 87.017 46.4564C85.3845 42.5086 83.1731 38.7984 80.4424 35.5037C77.8155 32.298 74.684 29.4337 71.0777 27.3708C69.2374 26.317 67.2635 25.5305 65.2155 24.9962C64.1914 24.7291 63.1377 24.5213 62.0692 24.3877C61.0451 24.2541 59.9766 24.1206 58.9228 24.1354C57.9285 24.1503 56.9787 24.4026 56.2218 25.0556C55.5688 25.6047 55.1532 26.4506 55.0345 27.2817C54.708 29.3595 55.7914 31.5114 56.9787 33.1439C58.4182 35.1623 60.3179 36.8245 62.3511 38.2641C61.06 37.8782 59.7539 37.5517 58.4331 37.3291C56.4889 37.0026 54.4705 36.8394 52.5263 37.1955C51.6507 37.344 50.7603 37.6556 50.0479 38.1899C49.1574 38.8577 48.5638 39.9411 48.356 41.0542C48.1037 42.3751 48.5489 43.7405 49.1574 44.8981C49.7511 46.0408 50.6119 47.0352 51.532 47.9108C52.6896 48.9942 54.0104 49.9292 55.3461 50.79C55.6281 50.9532 55.8953 51.1165 56.1772 51.2797C55.1829 51.0571 54.1885 50.8939 53.1645 50.8196C52.0663 50.7454 50.9235 50.8048 49.8253 51.0274C48.8161 51.2352 47.7624 51.6062 47.0055 52.3038C45.4175 53.7285 45.6846 56.385 46.3525 58.1957C47.0945 60.214 48.6825 61.6833 50.4634 62.7815C52.4521 64.0134 54.6635 64.6515 56.9935 64.8148C56.5483 67.2635 56.6522 69.8014 57.4387 72.1759C58.1808 74.506 59.5016 76.6283 61.1787 78.4092C62.9151 80.2346 65.0819 81.6594 67.4861 82.5053C69.9052 83.3364 72.5321 83.5145 75.0254 82.9951C79.7449 82.0304 83.841 78.7505 86.3788 74.7138C88.2191 71.7604 88.9908 68.3173 89.4064 64.9038C90.0891 59.5165 89.629 53.9659 87.9223 48.8013ZM88.5901 63.0635C88.4566 64.8741 88.1746 66.6699 87.7739 68.4211C87.4474 69.7865 87.0912 71.1667 86.4827 72.4579C84.5534 76.4947 81.0212 79.9378 76.7915 81.4813C74.5208 82.2975 72.0423 82.5647 69.6678 82.1046C67.3229 81.6594 65.1116 80.6057 63.2713 79.0919C61.4458 77.5929 59.9617 75.6784 58.9525 73.5265C57.8543 71.1667 57.4536 68.5399 57.7504 65.9427C57.8098 65.4529 57.8988 64.9483 58.0027 64.4734C58.0621 64.1618 57.8691 63.8798 57.5426 63.8649C55.5242 63.8056 53.491 63.39 51.6952 62.3957C50.0627 61.5052 48.4005 60.3031 47.5397 58.6112C47.1242 57.7801 46.8719 56.8154 46.7977 55.8804C46.7235 55.0048 46.7829 54.055 47.3171 53.3129C47.8663 52.5709 48.8012 52.2295 49.662 52.0218C50.6564 51.7695 51.6656 51.6953 52.6748 51.7398C55.079 51.8288 57.3645 52.5709 59.7094 53.1348C60.3031 53.2684 60.5405 52.4076 59.9766 52.2147C59.9617 52.2147 59.9469 52.1999 59.9172 52.1999C59.6649 52.1257 59.4274 51.9327 59.2048 51.8288C58.8635 51.6507 58.537 51.4875 58.2105 51.3094C57.5872 50.9829 56.9787 50.6415 56.385 50.2854C55.1829 49.5878 54.0253 48.7864 52.9567 47.9108C51.2055 46.4415 49.4542 44.4825 49.2613 42.0783C49.1723 41.0245 49.6472 39.8373 50.4189 39.1397C50.9977 38.6203 51.7694 38.3383 52.5263 38.1899C54.2627 37.804 56.1476 37.9673 57.8988 38.2344C60.6147 38.65 63.2564 39.5108 65.8388 40.4457C65.8536 40.4457 65.8685 40.4606 65.8833 40.4606C66.1356 40.5496 66.4027 40.3715 66.4769 40.1341C66.5511 39.8669 66.3879 39.6443 66.1504 39.5404C66.2395 39.585 66.2098 39.585 66.1504 39.5404C66.1059 39.5256 66.0762 39.4959 66.0317 39.4811C65.913 39.4217 65.8091 39.3475 65.6904 39.2881C65.4232 39.11 65.1561 38.9616 64.889 38.7984C64.3547 38.457 63.8056 38.1009 63.2713 37.7298C61.6536 36.6019 60.125 35.3701 58.819 33.9008C57.5426 32.4761 56.385 30.6952 56.0585 28.7807C55.925 27.9644 56.014 27.0888 56.4592 26.3616C56.9193 25.6344 57.6762 25.2633 58.4925 25.1594C59.4571 25.0407 60.4663 25.1743 61.4458 25.293C62.4402 25.4117 63.4048 25.575 64.3547 25.8125C66.2989 26.2725 68.1688 26.9404 69.9349 27.8457C73.4226 29.6711 76.4501 32.298 79.0176 35.2514C81.6593 38.2938 83.8707 41.7221 85.5477 45.4027C85.7258 45.7885 85.9039 46.1744 86.0671 46.5751C86.0671 46.6196 86.0671 46.679 86.0968 46.7235C88.2339 51.8882 89.0354 57.4981 88.5901 63.0635Z" fill="#1B1F2C"/>
<path d="M112.648 35.4888C112.633 35.4739 112.618 35.4739 112.588 35.4591C112.618 35.4739 112.648 35.4888 112.648 35.4888Z" fill="#1B1F2C"/>
<path d="M87.8777 68.5398C88.2785 66.7886 88.5604 64.9928 88.694 63.1822C89.0353 58.908 88.6346 54.6041 87.4622 50.5079C82.4608 50.0775 76.3611 50.9087 74.684 55.6875C72.1462 62.9448 78.1123 71.2854 77.0141 74.9809C75.3519 80.5463 68.5398 79.4035 63.019 77.6819C62.1879 77.4445 61.4755 77.0883 60.867 76.6431C61.5942 77.5929 62.4402 78.4537 63.3603 79.2254C65.2006 80.7243 67.4119 81.7929 69.7568 82.2381C72.1314 82.6982 74.6098 82.4311 76.8805 81.6148C81.1102 80.0713 84.6572 76.6282 86.5717 72.5914C87.1802 71.2854 87.5512 69.9201 87.8777 68.5398Z" fill="#E9E9FF"/>
<path d="M61.8614 61.4606C61.8614 61.0451 61.9059 60.7779 62.0098 60.3772C62.1582 59.7687 62.455 59.1899 62.8261 58.7002C63.1823 58.2401 63.6275 57.8839 64.1024 57.5723C64.2805 57.4535 64.4586 57.3645 64.6515 57.2903C64.5625 57.3348 64.6664 57.2754 64.696 57.2754C64.7406 57.2606 64.7703 57.2606 64.8148 57.2309C64.8741 57.2161 64.9483 57.1864 65.0077 57.1567C65.5865 56.9638 65.3342 56.0585 64.7554 56.2366C62.5144 56.9638 60.9413 59.0712 60.8819 61.4309C60.9116 62.0691 61.8614 62.0691 61.8614 61.4606Z" fill="#1B1F2C"/>
<path d="M69.549 51.3243C69.549 50.9087 69.5935 50.6416 69.6974 50.2409C69.8458 49.6324 70.1427 49.0536 70.5137 48.5638C70.8699 48.1038 71.3151 47.7476 71.79 47.4359C71.9681 47.3172 72.1462 47.2281 72.3391 47.1539C72.2501 47.1985 72.354 47.1391 72.3837 47.1391C72.4282 47.1243 72.4579 47.1242 72.5024 47.0946C72.5618 47.0797 72.636 47.05 72.6953 47.0204C73.2741 46.8274 73.0218 45.9221 72.443 46.1002C70.202 46.8274 68.6289 48.9349 68.5695 51.2946C68.5844 51.9624 69.549 51.9624 69.549 51.3243Z" fill="#1B1F2C"/>
<path d="M77.7265 42.1822C77.9342 41.826 78.0975 41.6182 78.3943 41.3214C78.8247 40.8613 79.3738 40.5051 79.9378 40.2677C80.472 40.045 81.036 39.956 81.6 39.9263C81.8077 39.9115 82.0155 39.9263 82.2233 39.956C82.1194 39.956 82.2381 39.956 82.2678 39.9708C82.3123 39.9857 82.342 40.0005 82.3865 39.9857C82.4459 40.0005 82.5201 40.0154 82.5943 40.0154C83.188 40.1341 83.4254 39.2288 82.8318 39.0952C80.5314 38.6203 78.1123 39.6592 76.8954 41.6776C76.5688 42.2267 77.3851 42.7016 77.7265 42.1822Z" fill="#1B1F2C"/>
<defs>
<linearGradient id="paint0_linear_1669_9684" x1="49.5004" y1="43.8771" x2="51.6578" y2="56.8466" gradientUnits="userSpaceOnUse">
<stop offset="1.57287e-07" stop-color="#FC5B5B"/>
<stop offset="1" stop-color="#FFE266"/>
</linearGradient>
<linearGradient id="paint1_linear_1669_9684" x1="28.5421" y1="48.5017" x2="31.9157" y2="61.2099" gradientUnits="userSpaceOnUse">
<stop offset="1.57287e-07" stop-color="#FC5B5B"/>
<stop offset="1" stop-color="#FFE266"/>
</linearGradient>
</defs>
</svg>
