<svg width="140" height="68" viewBox="0 0 140 68" fill="none" xmlns="http://www.w3.org/2000/svg">
<g clip-path="url(#clip0_596_6383)">
<rect width="140" height="68" rx="34" fill="#818BD5"/>
<path d="M105.821 48.0285C106.204 47.9627 114.262 44.214 119.667 44.2905C124.173 44.3543 132.759 59.4041 131.248 63.3597C129.847 67.0252 122.05 70.3574 122.05 70.3574L105.821 48.0285Z" fill="#E1E1E1"/>
<path d="M105.822 48.0289L108.459 51.6579L122.051 70.3574C122.051 70.3574 125.831 68.7418 128.6 66.5217C129.808 65.5551 130.822 64.4736 131.248 63.3597C132.759 59.4045 124.173 44.3534 119.667 44.2901C114.262 44.214 106.205 47.9627 105.822 48.0289Z" fill="#E1E1E1"/>
<path d="M129.32 65.0769C129.816 64.5782 130.196 64.0936 130.454 63.6293C130.204 63.6059 129.953 63.5786 129.704 63.5471C128.746 63.4346 127.795 63.2711 126.853 63.0669C126.837 63.1334 126.818 63.2003 126.798 63.2686C126.925 63.5284 127.013 63.7312 127.068 63.8618C127.74 64.3708 128.43 64.7608 129.073 64.9941C129.156 65.0241 129.238 65.0517 129.32 65.0769Z" fill="#C5C5C5"/>
<path d="M119.503 44.8879C119.555 44.8879 119.606 44.8883 119.658 44.8891C121.087 44.9094 123.426 47.0317 125.763 50.4275C127.357 52.7443 128.807 55.4417 129.74 57.8285C130.696 60.2722 131.039 62.2111 130.681 63.148C130.157 64.5191 128.475 66.0984 125.819 67.7151C124.344 68.6122 122.94 69.2907 122.251 69.6088L106.768 48.3045C106.788 48.2962 106.809 48.2875 106.831 48.2788C108.895 47.4352 115.127 44.8879 119.503 44.8879ZM121.842 71.0984L122.29 70.9073C122.371 70.8726 124.303 70.0423 126.44 68.7432C129.377 66.9586 131.185 65.2184 131.814 63.571C132.415 61.9987 131.632 59.3453 130.87 57.396C129.905 54.9283 128.408 52.1425 126.764 49.7532C125.217 47.5049 122.239 43.7274 119.675 43.6909C117.686 43.6623 115.134 44.1281 112.09 45.0737C109.636 45.8355 107.51 46.7044 106.368 47.1714C106.067 47.295 105.78 47.412 105.689 47.4431L104.765 47.6015L121.842 71.0984Z" fill="#1B1F2C"/>
<path d="M119.969 44.0337C119.771 44.2468 119.582 44.4558 119.392 44.6685C119.203 44.8812 119.015 45.0943 118.829 45.3095C118.457 45.7395 118.091 46.1749 117.734 46.6189C117.378 47.0634 117.027 47.5124 116.694 47.9796C116.652 48.038 116.61 48.0951 116.569 48.1539L116.447 48.3318C116.367 48.4514 116.283 48.5669 116.207 48.691C116.13 48.8135 116.051 48.9335 115.976 49.0585L115.758 49.438C115.663 49.6027 115.722 49.8113 115.887 49.9048C116.05 49.9963 116.256 49.9433 116.353 49.7869L116.36 49.7765C116.644 49.3188 116.978 48.8781 117.324 48.4464C117.669 48.0144 118.036 47.5948 118.408 47.1801C118.781 46.7654 119.164 46.3582 119.552 45.9568C119.746 45.7557 119.943 45.5562 120.14 45.3584C120.336 45.1614 120.537 44.9623 120.734 44.7732L120.736 44.7715C120.947 44.5679 120.952 44.2331 120.746 44.0233C120.54 43.8139 120.201 43.8089 119.989 44.013C119.983 44.0192 119.975 44.027 119.969 44.0337Z" fill="#1B1F2C"/>
<path d="M127.899 52.3539L124.09 55.3034C123.75 55.5669 123.632 56.0231 123.804 56.4149C124.435 57.8491 126.066 61.0869 127.99 61.2399C129.587 61.3667 131.218 60.1495 131.649 58.6607C132.132 56.9953 130.263 53.9979 129.266 52.5615C128.956 52.1148 128.33 52.0203 127.899 52.3539Z" fill="#E1E1E1"/>
<path d="M128.484 52.7537C128.504 52.7537 128.522 52.7551 128.536 52.7573C128.591 52.7657 128.694 52.7958 128.767 52.9007C130.499 55.3968 131.359 57.4883 131.067 58.4957C130.718 59.7007 129.443 60.6498 128.221 60.6498C128.16 60.6498 128.099 60.6476 128.038 60.6429C126.729 60.5384 125.279 58.2673 124.359 56.1762C124.298 56.0351 124.341 55.8708 124.464 55.7752L128.272 52.8262C128.348 52.7676 128.426 52.7537 128.484 52.7537ZM128.217 61.8479C129.972 61.8479 131.734 60.5431 132.232 58.8256C132.747 57.0476 131.175 54.2534 129.766 52.2224C129.524 51.8738 129.143 51.6374 128.72 51.5732C128.298 51.509 127.862 51.6216 127.526 51.8826L123.717 54.8319C123.159 55.2638 122.966 56.0131 123.249 56.6539C123.601 57.4567 124.178 58.6288 124.919 59.6556C125.904 61.0223 126.921 61.7559 127.941 61.8372C128.033 61.8446 128.125 61.8479 128.217 61.8479Z" fill="#1B1F2C"/>
<path d="M130.288 59.9578L130.294 59.9575L130.292 59.9582L130.288 59.9592L130.274 59.9613C130.263 59.9628 130.252 59.9645 130.239 59.9656C130.215 59.9684 130.188 59.9702 130.162 59.9713C130.108 59.9741 130.052 59.9737 129.995 59.9723C129.881 59.9681 129.764 59.9557 129.647 59.9366C129.53 59.9178 129.412 59.8902 129.296 59.8569C129.179 59.8244 129.063 59.7837 128.949 59.7377C128.491 59.5533 128.057 59.2743 127.669 58.9317C127.474 58.7604 127.29 58.5743 127.115 58.3775L126.986 58.2277L126.858 58.0713C126.815 58.0196 126.773 57.9665 126.732 57.9138C126.691 57.8607 126.648 57.8083 126.608 57.7545C126.445 57.5407 126.289 57.322 126.146 57.0969C126.075 56.9844 126.006 56.8707 125.943 56.7546C125.912 56.697 125.882 56.6386 125.854 56.5802C125.841 56.5511 125.827 56.5218 125.815 56.4931C125.808 56.4786 125.802 56.4641 125.797 56.4503L125.783 56.4134L125.775 56.3947C125.744 56.3136 125.652 56.2729 125.569 56.3041C125.494 56.3327 125.453 56.4113 125.471 56.4867L125.479 56.52L125.486 56.5479C125.491 56.5667 125.496 56.5844 125.502 56.6021C125.512 56.6378 125.524 56.6718 125.535 56.7062C125.559 56.7745 125.584 56.841 125.61 56.9072C125.663 57.0392 125.723 57.167 125.783 57.2944C125.907 57.5475 126.042 57.7928 126.186 58.0327C126.221 58.0936 126.259 58.152 126.295 58.2118C126.332 58.2713 126.368 58.3311 126.406 58.3891L126.52 58.5654L126.64 58.7417C126.805 58.9753 126.983 59.2021 127.178 59.4177C127.567 59.8481 128.029 60.2332 128.566 60.5238C128.7 60.596 128.838 60.6632 128.982 60.7216C129.124 60.7807 129.271 60.8331 129.423 60.8759C129.574 60.9191 129.73 60.9538 129.89 60.9782C129.971 60.9899 130.052 61.0002 130.137 61.0055C130.179 61.0087 130.221 61.0108 130.266 61.0115C130.288 61.0122 130.312 61.0118 130.335 61.0118L130.372 61.0108L130.394 61.0097L130.405 61.009L130.423 61.0072C130.716 60.9701 130.924 60.7053 130.886 60.4158C130.849 60.1259 130.581 59.921 130.288 59.9578Z" fill="#1B1F2C"/>
<path d="M96.58 60.724C96.58 60.724 94.7232 60.9792 91.8245 60.7665C86.0266 60.3396 76.0529 58.0472 68.3882 48.1186C67.3893 46.8248 62.5523 46.2951 63.8144 43.6006C64.1976 42.783 65.2016 42.6095 65.2016 42.6095C65.2016 42.6095 63.7311 42.014 64.072 40.5006C64.6125 38.1087 69.0084 39.1342 69.0084 39.1342C69.0084 39.1342 67.5373 37.6018 67.2107 36.1604C66.9831 35.1502 67.6965 34.236 68.3304 33.9949C70.1287 33.3114 73.8248 35.9961 76.0722 37.4978C78.1908 38.9115 79.5543 40.7411 80.9608 42.6193C83.1553 45.547 85.458 48.5935 90.9039 50.3642C92.7284 50.9563 94.9048 51.4069 97.5479 51.661L96.8953 57.7732L96.58 60.724Z" fill="#E1E1E1"/>
<path d="M91.0859 60.0995C90.914 59.1301 90.7696 58.1277 90.654 57.0931C88.4448 57.0053 85.7639 57.0789 83.034 56.5445C82.5017 56.977 81.9064 57.309 81.253 57.5369C83.2861 58.4338 85.2071 59.0242 86.8847 59.4124C88.4087 59.765 89.8299 59.9774 91.0859 60.0995ZM79.7052 56.8032C80.413 56.7218 81.0536 56.5243 81.6268 56.2118C78.7196 55.3974 75.8392 53.7455 73.4929 50.3314C71.7352 47.7725 74.7441 45.0962 72.99 41.1832C72.9882 41.1783 72.9857 41.1765 72.9833 41.1765C72.9435 41.1765 72.823 41.6098 72.5287 42.043C72.235 42.4762 71.7676 42.9095 71.0353 42.9095C71.0231 42.9095 71.0114 42.9095 70.9992 42.9095C67.5615 42.8423 65.5132 41.1438 64.6352 40.8098C64.5551 41.6479 65.3266 42.0103 65.4336 42.0563C65.6875 42.1549 65.8429 42.4066 65.8136 42.6753C65.8136 42.6789 65.8129 42.6832 65.8123 42.6874C67.7371 43.5394 70.6046 44.329 70.4217 45.4901C70.3629 45.8623 70.098 46.6265 69.0561 46.6265C68.8261 46.6265 68.5581 46.589 68.2461 46.5018C67.5431 46.3064 65.3198 44.7749 64.2198 44.5523C64.2278 44.6176 64.2431 44.6799 64.2657 44.7404C64.5226 45.4278 65.682 45.9518 66.705 46.4153C67.5982 46.8195 68.4419 47.2007 68.8695 47.755C72.2503 52.1344 76.0949 54.9691 79.7052 56.8032Z" fill="#C5C5C5"/>
<path d="M94.088 61.4528C95.6393 61.4528 96.5813 61.3289 96.6625 61.318C96.9941 61.2723 97.2253 60.9697 97.1794 60.6419C97.1336 60.3142 96.8274 60.0852 96.4964 60.1308C96.4555 60.1365 92.3303 60.6727 86.8837 59.4123C81.8759 58.2531 74.6858 55.29 68.8686 47.7547C68.441 47.2006 67.5974 46.8193 66.7043 46.4148C65.6811 45.952 64.5215 45.4273 64.2649 44.7402C64.1701 44.487 64.2029 44.1971 64.3634 43.8532C64.599 43.3506 65.2652 43.2084 65.3074 43.1998C65.5764 43.1563 65.7834 42.9436 65.8125 42.6751C65.8422 42.4066 65.6867 42.1547 65.4326 42.056C65.3179 42.0069 64.4453 41.5969 64.6634 40.6308C64.7359 40.309 64.9051 40.0749 65.1964 39.8947C66.1906 39.2786 68.185 39.5581 68.8698 39.7175C69.1302 39.7782 69.4004 39.663 69.5342 39.4325C69.6675 39.2032 69.6322 38.9139 69.4475 38.7221C69.4345 38.708 68.0864 37.2896 67.802 36.0299C67.639 35.3084 68.2005 34.6857 68.5469 34.5539C68.9225 34.4111 69.7171 34.4178 71.3706 35.2582C72.6257 35.8957 73.9923 36.8188 75.0899 37.5605C75.3149 37.7125 75.53 37.8578 75.7333 37.9939C77.7482 39.3381 79.0553 41.0832 80.4386 42.9301C81.9341 44.9265 83.4811 46.991 86.0321 48.703C88.9042 50.6296 92.6513 51.7923 97.4881 52.2574C97.8209 52.2889 98.1171 52.0482 98.1494 51.719C98.1822 51.3895 97.9387 51.0968 97.6052 51.0646C87.2977 50.0736 84.3054 46.0795 81.4123 42.2166C80.0289 40.3697 78.5979 38.4603 76.4113 37.0002C76.2093 36.866 75.9961 36.7219 75.7736 36.5712C74.6474 35.8105 73.2467 34.864 71.9241 34.1922C70.2303 33.3316 69.0192 33.0907 68.1125 33.4352C67.1611 33.7969 66.3343 35.0308 66.6201 36.2916C66.7843 37.0192 67.1952 37.7517 67.5981 38.3365C67.5689 38.3347 67.5398 38.3328 67.5101 38.331C66.2476 38.2611 65.2528 38.4456 64.5525 38.8796C63.9854 39.2308 63.6247 39.7322 63.4809 40.3697C63.272 41.2953 63.5844 41.999 64.0151 42.4789C63.7282 42.6781 63.4474 42.9583 63.2646 43.3493C62.9652 43.9881 62.9194 44.5961 63.1282 45.1558C63.5596 46.31 64.9628 46.945 66.2005 47.5046C66.9188 47.8295 67.6613 48.166 67.9055 48.4823C70.5755 51.9406 73.7475 54.7679 77.3323 56.8862C80.2019 58.5816 83.3392 59.8278 86.6581 60.5906C89.6888 61.2871 92.2956 61.4528 94.088 61.4528Z" fill="#1B1F2C"/>
<path d="M147.365 71.8297C144.636 75.0077 140.664 71.21 140.664 71.21C140.664 71.21 137.638 79.5187 131.282 81.2434C125.941 82.6925 119.317 79.2189 119.317 79.2189C119.317 79.2189 96.7034 85.426 91.8255 60.7667C91.4921 59.0756 91.2403 57.2391 91.0857 55.2466C90.9665 53.7141 90.9047 52.0886 90.9047 50.3642C90.9064 49.4628 90.9244 48.5352 90.9598 47.5793L109.708 45.9059L111.869 45.7145L112.408 45.6657C112.438 45.7849 112.469 45.9028 112.501 46.0207C113.43 49.3813 115.258 51.9268 117.217 53.9534C119.702 56.5269 122.397 58.2659 123.727 59.7771C124.461 60.6085 125.033 61.4173 125.465 62.1131C126.237 63.354 126.566 64.235 126.566 64.235C127.39 64.8794 130.004 66.7433 132.162 65.3491C132.91 64.8647 133.418 64.0436 133.863 63.1483C134.654 61.5645 135.255 59.7514 136.678 59.162C138.731 58.3111 141.088 59.0818 143.05 60.5071C144.275 61.3965 145.346 62.543 146.092 63.709C147.381 65.7179 149.36 69.5093 147.365 71.8297Z" fill="#E1E1E1"/>
<path d="M128.453 80.9957C129.351 80.9957 130.256 80.9009 131.121 80.6662C134.216 79.8263 136.482 77.2684 137.838 75.2704C139.336 73.0628 140.088 71.0278 140.095 71.0075L140.412 70.1394L141.085 70.7793C141.104 70.7969 142.916 72.4987 144.758 72.4987C144.807 72.4987 144.856 72.4972 144.904 72.4951C145.533 72.4636 146.084 72.2282 146.579 71.7783C146.18 71.9186 145.81 71.9811 145.468 71.9811C144.042 71.9811 143.092 70.8954 142.433 69.8093C141.773 68.7235 141.404 67.6378 141.142 67.6378C141.135 67.6378 141.127 67.6382 141.119 67.6405C138.377 68.3278 136.808 76.4575 130.451 78.1823C129.529 78.4325 128.57 78.5358 127.612 78.5358C124.646 78.5358 121.704 77.5431 119.992 76.8405C119.299 76.5559 118.56 76.4119 117.816 76.4119C117.502 76.4119 117.186 76.4377 116.873 76.4897C115.79 76.6688 114.228 76.8539 112.394 76.8539C109.592 76.8539 106.157 76.4217 102.829 74.8768C102.736 74.8739 102.643 74.8708 102.552 74.8669C101.377 74.8184 100.376 74.7083 99.5547 74.5374C99.8367 74.788 100.125 75.029 100.422 75.2608C104.568 78.5043 109.425 79.2536 112.769 79.3113C112.919 79.3138 113.068 79.3152 113.216 79.3152C116.644 79.3152 119.13 78.6477 119.155 78.641L119.388 78.5772L119.601 78.6887C119.617 78.6973 121.249 79.5456 123.494 80.2072C124.857 80.6089 126.64 80.9957 128.453 80.9957Z" fill="#C5C5C5"/>
<path d="M128.439 82.196C129.517 82.196 130.523 82.071 131.441 81.8219C132.981 81.4042 134.457 80.5891 135.829 79.3991C136.91 78.4609 137.93 77.2883 138.86 75.9139C139.871 74.4206 140.549 73.0268 140.914 72.1968C141.728 72.8063 143.188 73.6968 144.761 73.6968C144.827 73.6968 144.893 73.6954 144.959 73.6922C146.068 73.6384 147.033 73.1422 147.827 72.218C148.838 71.0419 149.079 69.4534 148.545 67.4961C148.204 66.2469 147.551 64.8651 146.605 63.3879C145.528 61.7072 143.923 60.2008 142.202 59.2556C141.247 58.7317 140.293 58.3995 139.368 58.2696C138.326 58.1235 137.342 58.2373 136.445 58.6088C135.053 59.1852 134.374 60.6432 133.716 62.0527C133.2 63.1616 132.665 64.308 131.83 64.8476C131.076 65.3348 130.148 65.3846 129.073 64.9942C128.43 64.7607 127.74 64.3708 127.068 63.8616C126.834 63.3009 125.968 61.4096 124.184 59.3838C123.526 58.6375 122.586 57.8657 121.498 56.9725C118.512 54.5214 114.422 51.1644 112.996 45.5208C112.915 45.1995 112.586 45.0045 112.261 45.0847C111.937 45.165 111.74 45.4903 111.821 45.8112C113.343 51.8358 117.609 55.3375 120.724 57.8944C121.772 58.7545 122.677 59.4976 123.27 60.1708C125.201 62.3624 125.991 64.4223 125.998 64.4429L126.057 64.5998L126.19 64.7042C127.001 65.3389 127.854 65.8278 128.656 66.1187C130.09 66.6392 131.417 66.5465 132.493 65.8507C133.619 65.1224 134.228 63.8173 134.817 62.5547C135.402 61.2975 135.956 60.1103 136.912 59.7145C139.795 58.521 143.656 61.025 145.582 64.0292C146.463 65.4043 147.066 66.676 147.375 67.8087C147.799 69.3621 147.641 70.5846 146.904 71.4422C146.328 72.1122 145.674 72.4566 144.904 72.4951C143.013 72.5893 141.104 70.7973 141.085 70.7793L140.412 70.1393L140.095 71.0076C140.088 71.0277 139.336 73.0629 137.838 75.2704C136.482 77.2684 134.216 79.8264 131.121 80.6663C128.508 81.3752 125.531 80.8079 123.494 80.2072C121.249 79.5457 119.617 78.6973 119.601 78.6888L119.388 78.5773L119.155 78.641C119.129 78.6481 116.426 79.3737 112.769 79.3114C109.425 79.2537 104.568 78.5044 100.422 75.2609C94.0442 70.2728 91.0641 60.9668 91.5644 47.6018C91.5767 47.271 91.3156 46.9936 90.9817 46.981C90.6477 46.9694 90.3662 47.2271 90.354 47.5574C90.0776 54.9346 90.8643 61.1962 92.6915 66.168C94.2585 70.432 96.61 73.8101 99.6798 76.208C101.636 77.7363 103.897 78.8753 106.4 79.5942C108.394 80.1668 110.544 80.4751 112.791 80.5102C112.939 80.5123 113.085 80.5133 113.229 80.5133C116.249 80.5137 118.53 80.0274 119.246 79.8547C119.773 80.1131 121.224 80.7866 123.123 81.3483C124.511 81.7589 125.851 82.024 127.105 82.1355C127.561 82.1758 128.006 82.196 128.439 82.196Z" fill="#1B1F2C"/>
<path d="M76.8662 38.8896C75.3655 36.5658 72.1731 36.0062 71.5456 36.1248C71.0675 36.2155 69.9341 37.7277 71.1009 38.6409C72.2677 39.5547 73.2378 39.5325 73.2211 39.99C73.2049 40.448 72.4136 42.076 73.6865 43.6743" fill="#E1E1E1"/>
<path d="M77.0357 38.7818C76.7475 38.1563 76.2926 37.6021 75.7605 37.1466C75.2267 36.6904 74.615 36.329 73.9682 36.0553C73.6436 35.9196 73.3115 35.8016 72.9679 35.712C72.7961 35.6664 72.622 35.626 72.4433 35.5935C72.264 35.5615 72.083 35.5359 71.8841 35.5245L71.8086 35.5205C71.7832 35.5193 71.755 35.5199 71.7285 35.5193C71.6772 35.5182 71.6132 35.5216 71.5526 35.5256C71.5152 35.5296 71.4777 35.5342 71.4402 35.5399C71.3947 35.5484 71.3255 35.5667 71.2823 35.5826C71.1912 35.6163 71.1208 35.6545 71.0609 35.6909C70.9398 35.7656 70.8499 35.8409 70.768 35.9184C70.6867 35.9966 70.6135 36.0764 70.5484 36.159C70.4146 36.3232 70.3068 36.5 70.2163 36.6904C70.1258 36.8803 70.0555 37.0861 70.018 37.309C69.9811 37.5308 69.9759 37.7714 70.0289 38.0115C70.0797 38.2509 70.1852 38.483 70.3264 38.6763C70.3599 38.727 70.3991 38.7698 70.4371 38.8148C70.4746 38.861 70.5161 38.8986 70.557 38.9391C70.598 38.9807 70.6412 39.0138 70.6844 39.0497L70.7161 39.076C70.7271 39.0845 70.7392 39.0948 70.7473 39.0999L70.802 39.1404C70.9496 39.2481 71.1012 39.3491 71.258 39.442C71.5694 39.6279 71.9026 39.7795 72.2208 39.9055C72.3782 39.9671 72.5356 40.0247 72.6538 40.0766C72.7114 40.1005 72.7587 40.1273 72.7673 40.1307C72.7685 40.1307 72.7621 40.1233 72.7483 40.0971C72.7333 40.0714 72.7206 40.0298 72.7206 39.9979C72.72 39.9916 72.7201 39.9848 72.7212 39.9785L72.7218 39.974L72.7224 39.9762L72.7229 39.9785C72.7235 39.9797 72.7235 39.9796 72.7235 39.9831L72.7224 39.999C72.7206 40.0224 72.716 40.0549 72.7102 40.0903C72.6993 40.1604 72.6832 40.2396 72.6682 40.3212C72.6376 40.4848 72.6082 40.6581 72.5869 40.8332C72.5448 41.1838 72.5367 41.5493 72.588 41.9096C72.637 42.2694 72.7443 42.6235 72.9068 42.9439C73.0671 43.2654 73.2827 43.5522 73.5272 43.798C73.6061 43.8767 73.7347 43.8778 73.8148 43.7997C73.8823 43.7341 73.8932 43.6326 73.8477 43.5551L73.8448 43.5505C73.6851 43.2814 73.5542 43.006 73.4735 42.7204C73.4326 42.5778 73.4009 42.4347 73.3819 42.2899C73.3634 42.1457 73.3548 42.0003 73.3559 41.8555C73.3577 41.7101 73.3692 41.5653 73.3882 41.4204C73.4078 41.275 73.4378 41.1302 73.4724 40.9848C73.5076 40.8383 73.5496 40.6935 73.5958 40.5401C73.6188 40.4631 73.6424 40.3833 73.6661 40.2949C73.6776 40.2499 73.6897 40.2032 73.7007 40.1456L73.7087 40.1017C73.7099 40.0948 73.7111 40.0851 73.7116 40.0754L73.7151 40.0475L73.718 40.0196C73.7185 40.0144 73.7185 40.011 73.7191 40.0047V39.9842C73.7197 39.9574 73.7191 39.9306 73.7174 39.9038C73.7087 39.7909 73.6701 39.6706 73.6125 39.5743C73.5548 39.4791 73.4903 39.4129 73.4303 39.3588C73.3121 39.2578 73.2141 39.2042 73.1248 39.1552C72.9483 39.0611 72.8002 38.9956 72.6566 38.9254C72.5137 38.857 72.377 38.7897 72.2462 38.7173C72.1147 38.6449 71.9896 38.5674 71.8668 38.487C71.744 38.4066 71.6259 38.3205 71.5117 38.2287L71.469 38.1951C71.461 38.1882 71.4575 38.1848 71.4523 38.1797L71.4379 38.166C71.4189 38.1483 71.397 38.1312 71.382 38.113C71.3474 38.0765 71.3174 38.0406 71.2926 38.0041C71.2442 37.9317 71.2154 37.8587 71.2004 37.7783C71.1958 37.7589 71.1958 37.7372 71.1917 37.7167C71.1929 37.6945 71.19 37.6739 71.1912 37.6511C71.1929 37.6283 71.1912 37.6061 71.1952 37.5816L71.1987 37.5462L71.205 37.5092C71.2384 37.3119 71.352 37.0838 71.4967 36.9025C71.5325 36.8563 71.5711 36.8153 71.6074 36.7794C71.6437 36.7435 71.6806 36.7144 71.6996 36.7018C71.7089 36.695 71.7123 36.6956 71.6979 36.6996L71.6962 36.7001L71.691 36.7024C71.687 36.7035 71.6829 36.7047 71.6789 36.7058C71.6749 36.707 71.6708 36.7081 71.6668 36.7081C71.6633 36.7087 71.6558 36.7098 71.6593 36.7092C71.6627 36.7092 71.6656 36.7087 71.6691 36.707C71.691 36.7064 71.7089 36.7024 71.74 36.7024C71.755 36.7024 71.7677 36.7013 71.7838 36.7013L71.8317 36.7024C71.962 36.7053 72.1084 36.7206 72.2548 36.7412C72.4012 36.76 72.55 36.7856 72.6987 36.817C72.8475 36.8478 72.9962 36.8843 73.1444 36.9219C73.2925 36.9613 73.4401 37.0046 73.586 37.0525C74.1705 37.2412 74.7384 37.4892 75.2641 37.8096C75.7911 38.1289 76.2719 38.5229 76.695 38.9967L76.6967 38.999C76.7717 39.0822 76.9008 39.0902 76.985 39.0167C77.0536 38.9562 77.0715 38.8604 77.0357 38.7818Z" fill="#1B1F2C"/>
<path d="M91.9399 64.2792L98.6607 73.0323L105.446 73.6864L109.034 74.0322C109.034 74.0322 111.799 72.9835 112.467 72.7191C113.374 72.3623 113.006 71.2761 112.584 70.674C111.862 69.6426 111.293 68.6151 110.824 67.6316C110.068 66.0438 109.574 64.5667 109.116 63.3595C108.74 62.3682 107.737 61.7479 106.672 61.861C100.315 62.5364 94.0603 62.5072 94.0603 62.5072L91.9399 64.2792Z" fill="#E1E1E1"/>
<path d="M106.921 62.3784C107.666 62.3784 108.345 62.8379 108.613 63.5454C108.712 63.8075 108.813 64.0815 108.92 64.3714C109.611 66.2499 110.471 68.5878 112.142 70.9759C112.402 71.3461 112.544 71.802 112.472 72.0356C112.453 72.0975 112.415 72.1683 112.268 72.2264C111.689 72.4547 109.495 73.2882 108.959 73.4917L98.9452 72.5269L92.6744 64.3591L94.2561 63.0383C95.3764 63.0357 101.045 62.9925 106.729 62.3885C106.793 62.3819 106.857 62.3784 106.921 62.3784ZM109.033 74.5631C109.099 74.5631 109.164 74.5514 109.226 74.528C109.339 74.4852 112.002 73.4744 112.665 73.2128C113.089 73.0454 113.378 72.7445 113.5 72.3421C113.702 71.6785 113.387 70.8888 113.025 70.3717C111.432 68.0958 110.599 65.8296 109.929 64.008C109.821 63.7159 109.719 63.4397 109.619 63.1727C109.155 61.9506 107.92 61.1938 106.614 61.333C100.362 61.9969 94.1247 61.9771 94.0619 61.9766C93.935 61.9758 93.8107 62.0203 93.7131 62.1018L91.5924 63.8732C91.3742 64.0555 91.3385 64.3749 91.5114 64.6L98.232 73.3537C98.3225 73.4715 98.4583 73.5466 98.6075 73.5611L108.982 74.5606C108.999 74.5624 109.016 74.5631 109.033 74.5631Z" fill="#1B1F2C"/>
<path d="M110.793 72.7944C111.413 72.5576 112.006 72.3301 112.268 72.2267C112.415 72.1687 112.454 72.0979 112.473 72.0359C112.541 71.813 112.415 71.3875 112.178 71.0276C110.41 70.6403 109.209 69.7629 108.837 68.5248C108.68 68.0035 108.691 67.5395 108.786 67.1438C108.119 66.8599 107.635 66.4065 107.202 66.0334C107.895 67.4552 109.026 69.6005 110.484 71.7584C110.7 72.0784 110.804 72.4359 110.793 72.7944Z" fill="#AEAEAE"/>
<path d="M96.1951 69.9777C96.5083 70.8144 96.8017 71.8815 96.8017 71.8815C96.8017 71.8815 98.5762 71.4178 98.7151 71.3669C99.1752 71.1984 99.1845 70.0902 98.7362 68.8911C98.2878 67.692 97.5511 66.8563 97.0909 67.0246C96.7542 67.1478 95.3249 67.5054 95.3249 67.5054C95.3249 67.5054 96.0751 69.6559 96.1951 69.9777Z" fill="#E1E1E1"/>
<path d="M94.978 70.0902C95.4269 71.2894 96.2867 72.0797 96.8991 71.8557C97.5119 71.6316 97.6448 70.4778 97.1963 69.2786C96.7475 68.0794 95.8872 67.2892 95.2748 67.5133C94.6624 67.7374 94.5296 68.891 94.978 70.0902Z" fill="#E1E1E1"/>
<path d="M92.1017 64.7562C92.5847 65.6111 93.347 66.9717 94.1898 68.3723C95.3963 70.3756 96.7658 72.4582 97.7089 73.2433C99.3506 74.6092 105.265 74.5292 109.035 74.0319C110.025 73.9012 110.593 72.8741 110.038 72.0526C109.13 70.7083 108.35 69.3733 107.717 68.2035C107.117 67.0962 106.65 66.1377 106.335 65.4572C106.046 64.8331 105.372 64.4773 104.686 64.5791C98.7209 65.4708 94.4616 64.6355 92.6037 64.1224C92.2263 64.0184 91.9103 64.4165 92.1017 64.7562Z" fill="#E1E1E1"/>
<path d="M104.918 65.0935C105.312 65.0935 105.68 65.3201 105.847 65.6795C106.47 67.0226 107.786 69.6738 109.592 72.3479C109.785 72.6343 109.715 72.8937 109.656 73.0228C109.536 73.2841 109.278 73.4646 108.964 73.506C104.769 74.0596 99.4057 73.9608 98.0552 72.837C96.5798 71.6092 93.8521 66.7714 92.6872 64.7055L92.6809 64.6936C94.7889 65.2479 98.9898 65.9672 104.766 65.105C104.817 65.097 104.868 65.0935 104.918 65.0935ZM103.893 74.8931C105.594 74.8931 107.461 74.7756 109.106 74.5586C109.79 74.4684 110.361 74.0578 110.635 73.4604C110.891 72.899 110.836 72.2789 110.484 71.7582C108.719 69.1451 107.432 66.5506 106.823 65.2369L106.335 65.4582L106.823 65.2369C106.436 64.4037 105.524 63.9176 104.606 64.0548C98.8181 64.9189 94.6929 64.1481 92.749 63.6114C92.3674 63.5063 91.963 63.6369 91.7184 63.9444C91.4733 64.2524 91.4395 64.6725 91.6325 65.0148L91.7499 65.2229C93.0444 67.5187 95.7377 72.2966 97.3635 73.6493C98.206 74.3502 99.9515 74.76 102.552 74.8669C102.981 74.8846 103.431 74.8931 103.893 74.8931Z" fill="#1B1F2C"/>
<path d="M96.1951 69.9777C96.5083 70.8144 96.8017 71.8815 96.8017 71.8815C96.8017 71.8815 98.5762 71.4178 98.7151 71.3669C99.1752 71.1984 99.1845 70.0902 98.7362 68.8911C98.2878 67.692 97.5511 66.8563 97.0909 67.0246C96.7542 67.1478 95.3249 67.5054 95.3249 67.5054C95.3249 67.5054 96.0751 69.6559 96.1951 69.9777Z" fill="url(#paint0_linear_596_6383)"/>
<path d="M96.4675 68.0348C96.848 67.9344 97.2509 67.8241 97.4098 67.7665C97.4493 67.7517 97.4913 67.7447 97.5346 67.7447C97.5541 67.7447 97.5732 67.746 97.5928 67.7488C97.4306 67.5608 97.2954 67.4637 97.2235 67.4473C97.021 67.5184 96.5644 67.6427 96.1614 67.748C96.1914 67.7711 96.2213 67.7957 96.2504 67.8212C96.2504 67.8212 96.2504 67.8208 96.25 67.8204C96.3236 67.8842 96.3964 67.9558 96.4675 68.0348Z" fill="#E1E1E1"/>
<path d="M96.1952 69.9774H96.1948H96.1952ZM98.5398 70.9578C98.3885 71.0035 97.7651 71.1705 97.1119 71.3422C96.9962 70.9486 96.8106 70.3469 96.6152 69.8238C96.5317 69.6012 96.1329 68.4625 95.9061 67.8145C96.3507 67.6997 96.9767 67.5337 97.2242 67.4469C97.3934 67.4859 97.9164 67.9738 98.3165 69.0443C98.7149 70.1098 98.6415 70.8152 98.5398 70.9578ZM96.8013 72.3241C96.839 72.3241 96.8776 72.3191 96.9161 72.3092C97.4557 72.168 98.7267 71.8342 98.8704 71.7815C99.7312 71.4668 99.6214 69.9827 99.1556 68.7371C98.9204 68.1083 98.6004 67.5462 98.255 67.1539C97.6595 66.4782 97.1725 66.5231 96.9356 66.6094C96.6779 66.7037 95.6065 66.9783 95.2153 67.0764C95.0941 67.1065 94.9911 67.1862 94.9313 67.2947C94.8716 67.4037 94.8614 67.5324 94.9021 67.6494C94.933 67.7378 95.6552 69.8082 95.7756 70.131C96.0778 70.9387 96.3668 71.9871 96.3698 71.9974C96.4241 72.1941 96.6042 72.3241 96.8013 72.3241Z" fill="#1B1F2C"/>
<path d="M94.978 70.0902C95.4269 71.2894 96.2867 72.0797 96.8991 71.8557C97.5119 71.6316 97.6448 70.4778 97.1963 69.2786C96.7475 68.0794 95.8872 67.2892 95.2748 67.5133C94.6624 67.7374 94.5296 68.891 94.978 70.0902Z" fill="url(#paint1_linear_596_6383)"/>
<path d="M96.251 67.8213C96.251 67.8213 96.251 67.8213 96.2506 67.8213C96.2211 67.7954 96.1907 67.7703 96.1604 67.7469C96.1907 67.7703 96.2211 67.7954 96.251 67.8213Z" fill="#F6FBFE"/>
<path d="M96.1602 67.7479C95.9744 67.6038 95.7862 67.5124 95.6076 67.4842C95.7862 67.5124 95.9744 67.6038 96.1602 67.7479ZM95.6071 67.4842C95.6059 67.4838 95.6055 67.4838 95.6042 67.4838C95.6055 67.4838 95.6059 67.4838 95.6071 67.4842Z" fill="#D7D1DA"/>
<path d="M95.041 70.2465C95.0333 70.2284 95.0261 70.2104 95.0189 70.192C95.0299 70.2015 95.041 70.2107 95.0521 70.2199C94.8775 69.3078 95.0619 68.5369 95.5491 68.3575C95.6193 68.3318 95.6926 68.3196 95.768 68.3196C95.9971 68.3196 96.2471 68.4338 96.4902 68.6359C96.4464 68.4043 96.3799 68.1629 96.2888 67.9195C96.2773 67.8866 96.2637 67.8542 96.2509 67.8214C96.2211 67.7953 96.1917 67.7708 96.1615 67.7481C95.9758 67.604 95.7876 67.5126 95.6087 67.4848C95.6083 67.4848 95.6083 67.4848 95.6083 67.4848C95.607 67.4844 95.6066 67.4844 95.6053 67.4844C95.5682 67.4785 95.5308 67.4756 95.4946 67.4756C95.4188 67.4756 95.3455 67.4882 95.2752 67.5135C94.6628 67.7375 94.5295 68.8907 94.9784 70.09C94.9989 70.1435 95.0193 70.1955 95.041 70.2465Z" fill="#E1E1E1"/>
<path d="M96.4669 68.0348C96.4674 68.0348 96.4674 68.0348 96.4678 68.0348C96.3967 67.9549 96.324 67.8832 96.2504 67.8194C96.2509 67.8198 96.2508 67.8202 96.2508 67.8206C96.324 67.8841 96.3967 67.9557 96.4669 68.0348Z" fill="#A4ADC5"/>
<path d="M96.4678 68.0348C96.3971 67.9561 96.3244 67.8845 96.2513 67.8206C96.2517 67.8206 96.2517 67.8206 96.2517 67.8206C96.3248 67.8845 96.3967 67.9561 96.4678 68.0348Z" fill="#BCB7C6"/>
<path d="M95.0719 70.3185C95.0647 70.2856 95.058 70.2527 95.0521 70.2201C95.0406 70.2109 95.0296 70.2017 95.0187 70.1922C95.0258 70.2106 95.0335 70.2286 95.0406 70.2467C95.0508 70.2707 95.0614 70.2948 95.0719 70.3185ZM97.377 69.8931C97.3567 69.7993 97.3326 69.7041 97.3051 69.6081C97.2924 69.5649 97.2788 69.5211 97.2649 69.4775C97.2438 69.4116 97.2205 69.3456 97.196 69.2791C97.0086 68.7785 96.7494 68.349 96.4665 68.0349C96.3959 67.9563 96.324 67.8848 96.2509 67.8216C96.2636 67.8542 96.2771 67.8868 96.2889 67.9199C96.3798 68.1629 96.4462 68.4046 96.4902 68.6363C96.8222 68.9119 97.141 69.3522 97.377 69.8931Z" fill="#A4ADC5"/>
<path d="M95.4944 67.9183C95.6214 67.9183 95.8072 68.0172 95.9925 68.1869C96.3002 68.4699 96.5859 68.9242 96.776 69.4328C96.9665 69.9414 97.0484 70.4702 97.0008 70.8833C96.9669 71.1774 96.8661 71.3965 96.7438 71.4411C96.6215 71.486 96.4006 71.3845 96.1813 71.1831C95.8737 70.8999 95.5875 70.4458 95.3974 69.9372C95.2073 69.4286 95.1254 68.8998 95.1726 68.4869C95.2069 68.1929 95.3077 67.9735 95.4296 67.9289C95.4489 67.9217 95.4708 67.9183 95.4944 67.9183ZM96.6777 72.3376C96.806 72.3376 96.9326 72.3157 97.054 72.2711C97.9255 71.9522 98.1666 70.6001 97.6152 69.126C97.3745 68.4823 97.0146 67.9187 96.6009 67.5389C96.1084 67.0857 95.5823 66.9296 95.1194 67.0989C94.2479 67.418 94.0068 68.77 94.5581 70.2444C94.7993 70.8878 95.1593 71.4513 95.5725 71.8311C95.9355 72.1649 96.3169 72.3376 96.6777 72.3376Z" fill="#1B1F2C"/>
<path d="M104.644 74.7976C104.719 74.7976 104.796 74.7788 104.866 74.7389C105.08 74.6171 105.154 74.3467 105.031 74.1347L102.905 70.4726L103.922 69.5725C104.066 69.4454 104.111 69.2421 104.035 69.0674L102.136 64.7233C102.039 64.4991 101.775 64.3956 101.548 64.4926C101.322 64.5897 101.217 64.85 101.316 65.0742L103.085 69.1257L102.038 70.0528C101.881 70.1917 101.843 70.4212 101.949 70.6028L104.255 74.5753C104.338 74.718 104.489 74.7976 104.644 74.7976Z" fill="#1B1F2C"/>
<path d="M132.814 81.2079C132.952 81.2079 133.091 81.1555 133.196 81.05C134.36 79.8848 135.023 78.3098 135.169 76.3698C135.282 74.8624 135.081 73.1302 134.574 71.221C133.719 68.0055 132.303 65.4185 132.243 65.3098C132.101 65.0525 131.775 64.9577 131.515 65.0982C131.254 65.2383 131.158 65.5611 131.3 65.8185C131.318 65.851 132.722 68.4203 133.541 71.5099C134.274 74.2805 134.678 78.055 132.432 80.3039C132.223 80.5127 132.226 80.849 132.437 81.055C132.541 81.1569 132.677 81.2079 132.814 81.2079Z" fill="#1B1F2C"/>
<path d="M79.4492 57.8909C79.4617 57.8909 79.4743 57.8904 79.4868 57.8893C82.448 57.6865 84.5404 55.8194 85.5375 52.4904C86.2644 50.0629 86.1511 47.7314 86.1459 47.6333C86.1308 47.3402 85.8782 47.1157 85.5819 47.1307C85.286 47.1462 85.0585 47.3959 85.0736 47.6885C85.0757 47.7267 85.179 49.9654 84.5007 52.2122C83.6277 55.1047 81.9157 56.6585 79.4127 56.8304C79.1168 56.8505 78.8935 57.1044 78.9144 57.3965C78.9342 57.6767 79.1695 57.8909 79.4492 57.8909Z" fill="#1B1F2C"/>
<path d="M64.9428 43.0744C65.0293 43.137 65.1194 43.1937 65.2108 43.2497C65.2559 43.2786 65.3046 43.3021 65.3521 43.3268C65.3996 43.3521 65.4477 43.375 65.4958 43.3991C65.5914 43.4484 65.6931 43.4846 65.7924 43.5249C65.8923 43.5659 65.994 43.5966 66.0957 43.6285C66.5044 43.7544 66.9191 43.8116 67.3125 43.8598C67.706 43.9068 68.0836 43.9448 68.4605 44.0062C68.8375 44.067 69.2151 44.1526 69.6055 44.2543H69.6067C69.6487 44.2652 69.6926 44.2405 69.7036 44.1989C69.7109 44.17 69.7017 44.1417 69.681 44.1224C69.3832 43.8418 69.0391 43.6038 68.6707 43.4087C68.3022 43.2123 67.9124 43.0612 67.5385 42.9268C67.1645 42.7931 66.8113 42.6642 66.4727 42.5365C66.3893 42.5022 66.3028 42.4745 66.2205 42.439L66.0951 42.3896L66.0318 42.3667C66.011 42.3576 65.9909 42.3486 65.9702 42.3402C65.8874 42.3052 65.8028 42.2751 65.7193 42.2408C65.6353 42.2065 65.5512 42.1733 65.4623 42.1456L65.4239 42.1336C65.1395 42.0444 64.8356 42.201 64.7461 42.4823C64.6748 42.7064 64.7613 42.9425 64.9428 43.0744Z" fill="#1B1F2C"/>
<path d="M68.5871 39.4627L68.6246 39.5246C68.6357 39.5426 68.6468 39.56 68.6585 39.5773C68.6808 39.6098 68.7042 39.6434 68.7276 39.6741C68.7739 39.7366 68.8237 39.7951 68.8735 39.8524C68.9742 39.966 69.0814 40.0719 69.1926 40.171C69.4152 40.3708 69.6605 40.5422 69.9094 40.7049C70.1583 40.8683 70.4159 41.0177 70.6801 41.1567C70.813 41.225 70.9471 41.2916 71.0841 41.3536C71.1532 41.3843 71.2229 41.4138 71.2932 41.4422C71.3635 41.4711 71.4343 41.4984 71.5069 41.5238C71.5491 41.5389 71.5959 41.5169 71.6106 41.4752C71.6188 41.4515 71.6158 41.4271 71.6041 41.4074L71.6036 41.4063C71.5643 41.3408 71.5233 41.2771 71.4817 41.2157C71.4402 41.1532 71.398 41.0918 71.3553 41.031C71.2703 40.9094 71.1831 40.7918 71.0952 40.6754C70.9202 40.4414 70.7398 40.2156 70.5606 39.9938C70.3796 39.7731 70.2022 39.5519 70.0125 39.3503C69.9182 39.2478 69.8221 39.1494 69.7232 39.0561C69.674 39.0092 69.6242 38.9635 69.5744 38.9194C69.5487 38.8974 69.5247 38.8766 69.4989 38.8557C69.4872 38.8459 69.4743 38.836 69.462 38.8262L69.4444 38.8134L69.4356 38.8077L69.431 38.8059L69.1733 38.726C68.9063 38.6426 68.6222 38.7897 68.5379 39.0538C68.4928 39.1957 68.5157 39.3445 68.5871 39.4627Z" fill="#1B1F2C"/>
<path d="M126.205 63.137C123.694 71.1948 110.661 72.4952 109.417 68.3541C108.996 66.9528 110.142 66.0743 110.142 66.0743C110.142 66.0743 121.18 66.1189 124.075 59.2624C124.075 59.2624 127.075 60.3433 126.205 63.137Z" fill="#E1E1E1"/>
<path d="M114.397 70.0502C118.781 70.0502 124.189 67.5744 125.627 62.9601C125.645 62.902 125.661 62.8447 125.676 62.788L125.329 62.6964C125.249 62.6748 125.169 62.655 125.089 62.633L125.034 62.6178C123.39 66.5766 118.165 68.8192 114.129 68.8188C112.386 68.8188 110.865 68.4005 109.95 67.5213C109.919 67.7181 109.925 67.94 109.998 68.1832C110.341 69.3232 112.004 70.0385 114.339 70.0502C114.359 70.0502 114.377 70.0502 114.397 70.0502Z" fill="#AEAEAE"/>
<path d="M124.365 60.0713C124.58 60.1976 124.835 60.3742 125.068 60.6043C125.733 61.2616 125.916 62.0321 125.627 62.9601C124.189 67.5745 118.781 70.0503 114.397 70.0503C114.377 70.0503 114.358 70.0503 114.339 70.0503C112.004 70.0386 110.341 69.3233 109.998 68.1832C109.776 67.4453 110.166 66.9034 110.385 66.6701C111.14 66.6524 113.519 66.5392 116.183 65.8171C118.059 65.3089 119.685 64.6021 121.015 63.7161C122.511 62.7202 123.635 61.4962 124.365 60.0713ZM114.396 71.2487C116.819 71.2487 119.443 70.5589 121.608 69.3523C124.216 67.8976 126.006 65.8093 126.784 63.313C127.324 61.5812 126.596 60.405 125.89 59.7233C125.164 59.0218 124.318 58.7121 124.283 58.6994C123.979 58.5897 123.641 58.7358 123.516 59.0314C122.394 61.6895 119.828 63.5813 115.89 64.6544C112.881 65.4738 110.172 65.4759 110.145 65.4749H110.143C110.008 65.4749 109.877 65.5191 109.771 65.6005C109.711 65.6465 108.304 66.7505 108.837 68.5244C109.345 70.2156 111.399 71.2339 114.333 71.2484C114.354 71.2487 114.375 71.2487 114.396 71.2487Z" fill="#1B1F2C"/>
<path d="M146.482 56.4922C146.482 56.4922 146.634 57.5043 146.052 58.2729C145.76 58.657 145.289 59.0647 144.722 59.467C144.218 59.8242 143.642 60.1765 143.05 60.5073C141.744 61.2337 140.366 61.8477 139.553 62.1438C137.843 62.7677 135.895 63.0852 133.864 63.1485C131.088 63.234 128.158 62.8446 125.465 62.1132C122.934 61.4252 120.613 60.4341 118.832 59.2508L117.565 57.3976L115.835 54.866L109.708 45.9059L108.316 43.8709C108.377 43.9048 109.727 44.6668 111.869 45.7145C112.073 45.8145 112.284 45.9163 112.502 46.0209C114.935 47.1881 118.21 48.6298 121.723 49.8119C127.192 51.6538 133.241 52.8673 137.597 51.4397C142.67 49.7763 145.066 48.5587 146.336 49.8859C147.625 51.2317 146.073 53.0269 146.073 53.0269C146.073 53.0269 147.193 53.8142 147.2 54.9541C147.207 55.8583 146.482 56.4922 146.482 56.4922Z" fill="#E1E1E1"/>
<path d="M139.282 55.93C139.513 55.4824 139.561 55.1941 139.561 55.1941C139.561 55.1941 139.43 55.4859 139.282 55.93Z" fill="#C5C5C5"/>
<path d="M133.018 62.559C133.227 62.559 133.435 62.5547 133.644 62.5537C134.906 62.5208 136.166 62.3983 137.388 62.135C137.464 62.1187 137.541 62.1049 137.617 62.0865L137.844 62.0302L138.071 61.9743L138.184 61.9463L138.296 61.9138L138.743 61.7835C138.891 61.7364 139.037 61.6844 139.184 61.6356C139.331 61.5871 139.474 61.5336 139.619 61.4766C139.764 61.42 139.909 61.3605 140.054 61.2997C140.345 61.1772 140.634 61.0487 140.921 60.9153C141.496 60.6481 142.063 60.3635 142.617 60.0598C142.62 60.058 142.623 60.0566 142.626 60.0549C141.949 60.1809 141.292 60.2516 140.807 60.2516C140.584 60.2516 140.397 60.2368 140.261 60.2053C138.279 59.7515 138.853 57.2088 139.282 55.93C138.695 57.0644 136.924 59.2266 131.739 60.333C131.294 60.4276 130.787 60.4704 130.234 60.4704C127.14 60.47 122.618 59.1381 119.684 58.1475C119.599 58.1191 119.517 58.1057 119.437 58.1057C118.931 58.1057 118.556 58.6338 118.757 59.1127C118.791 59.0882 118.834 59.0744 118.878 59.0744C118.897 59.0744 118.917 59.0769 118.936 59.0826L118.945 59.0851C119.106 59.1314 119.261 59.1842 119.413 59.2401C119.451 59.2535 119.488 59.2691 119.527 59.2822C119.565 59.2953 119.604 59.308 119.641 59.3222C119.717 59.3494 119.793 59.3767 119.867 59.4054L119.979 59.4482C120.017 59.4631 120.053 59.4783 120.091 59.4914C120.167 59.5183 120.241 59.5466 120.315 59.5753C120.464 59.6308 120.609 59.6928 120.758 59.7476C120.906 59.8043 121.052 59.8637 121.198 59.9232C121.346 59.9798 121.492 60.0386 121.637 60.0984L121.747 60.1433L121.857 60.1858L122.077 60.2715L122.296 60.3592C122.369 60.3886 122.444 60.4155 122.517 60.4442C122.665 60.4998 122.811 60.5589 122.957 60.6162C123.105 60.6711 123.253 60.7277 123.4 60.7843C123.546 60.8434 123.695 60.8955 123.843 60.9507L124.066 61.0328L124.177 61.0739L124.289 61.1121C124.885 61.3244 125.494 61.5042 126.109 61.6625C127.34 61.969 128.59 62.2097 129.851 62.358C130.481 62.4376 131.113 62.4875 131.746 62.5232L132.221 62.5441C132.3 62.5484 132.379 62.5494 132.458 62.5505L132.695 62.5547C132.803 62.5579 132.91 62.559 133.018 62.559Z" fill="#C5C5C5"/>
<path d="M108.214 44.0423C108.391 44.1953 108.572 44.338 108.756 44.4761C108.94 44.6146 109.128 44.7478 109.316 44.8776C109.695 45.1368 110.081 45.3827 110.474 45.6167C111.259 46.0853 112.072 46.5034 112.891 46.9078C114.529 47.7178 116.226 48.4071 117.932 49.067C118.787 49.3946 119.643 49.7194 120.506 50.0259C121.37 50.3324 122.24 50.6219 123.118 50.8914C124.874 51.4281 126.66 51.8864 128.481 52.2112C129.392 52.3733 130.311 52.5015 131.239 52.5782C132.167 52.6558 133.103 52.6861 134.043 52.6467L134.396 52.6255L134.572 52.6151C134.631 52.611 134.689 52.6048 134.748 52.5994L135.101 52.567C135.218 52.555 135.336 52.538 135.453 52.5235C135.689 52.4973 135.923 52.4538 136.157 52.4152C136.216 52.4061 136.274 52.3941 136.332 52.382L136.507 52.3456L136.682 52.3091C136.712 52.3028 136.741 52.2974 136.77 52.2904L136.857 52.2684L137.205 52.1805C137.234 52.1726 137.263 52.1664 137.292 52.1577L137.378 52.132L137.55 52.0801C137.785 52.0113 137.996 51.9383 138.214 51.8673C138.647 51.723 139.079 51.5766 139.51 51.429C140.371 51.1345 141.228 50.8317 142.08 50.553C142.506 50.4145 142.931 50.2818 143.352 50.1706C143.457 50.1436 143.562 50.1154 143.667 50.0922C143.771 50.0661 143.875 50.0454 143.978 50.0234C144.184 49.9844 144.389 49.9491 144.585 49.9338C144.78 49.9176 144.968 49.9168 145.138 49.9375C145.309 49.9583 145.457 50.001 145.586 50.0665C145.716 50.1324 145.829 50.2233 145.936 50.3444C146.043 50.4651 146.121 50.5937 146.172 50.7297C146.223 50.8657 146.243 51.013 146.24 51.171C146.236 51.329 146.202 51.4974 146.148 51.6674C146.092 51.8379 146.015 52.0096 145.922 52.1767C145.875 52.2601 145.824 52.3426 145.77 52.4223C145.744 52.4621 145.716 52.5011 145.688 52.5388C145.674 52.5579 145.66 52.5766 145.646 52.594L145.612 52.6371L145.216 53.1303L145.721 53.5147L145.748 53.5359L145.787 53.5662C145.813 53.5873 145.839 53.6093 145.865 53.6325C145.917 53.6786 145.968 53.7275 146.016 53.7777C146.114 53.878 146.203 53.9846 146.281 54.0941C146.436 54.3139 146.541 54.5462 146.578 54.771C146.582 54.7988 146.587 54.827 146.588 54.8548C146.592 54.883 146.592 54.9108 146.593 54.9386C146.595 54.9531 146.594 54.9668 146.593 54.98L146.591 55.0211L146.59 55.0622C146.589 55.0763 146.586 55.0899 146.584 55.1036C146.579 55.1314 146.578 55.1588 146.572 55.187C146.565 55.2144 146.558 55.2422 146.552 55.2699C146.535 55.3259 146.519 55.3819 146.494 55.4379C146.448 55.5495 146.387 55.6606 146.313 55.7668L146.285 55.807L146.255 55.8456C146.236 55.8717 146.215 55.8962 146.194 55.9211C146.173 55.9452 146.152 55.97 146.131 55.9912C146.12 56.0032 146.11 56.0136 146.1 56.0231L146.086 56.0368C146.082 56.0401 146.075 56.0468 146.08 56.0422L145.882 56.5793L145.882 56.5785L145.882 56.5801L145.883 56.5884C145.884 56.5938 145.885 56.6 145.885 56.6079C145.886 56.622 145.888 56.6357 145.889 56.6515C145.891 56.6818 145.892 56.7129 145.893 56.7448C145.894 56.7763 145.893 56.8091 145.893 56.841L145.889 56.9372C145.882 57.0654 145.864 57.1923 145.836 57.3126C145.823 57.374 145.803 57.4308 145.787 57.4889C145.765 57.544 145.747 57.6012 145.72 57.6527C145.698 57.7074 145.667 57.7539 145.641 57.8041C145.626 57.8285 145.609 57.8501 145.594 57.8737L145.571 57.9082C145.563 57.9198 145.551 57.9326 145.542 57.9451C145.382 58.1458 145.174 58.3478 144.947 58.5382C144.719 58.7285 144.474 58.9102 144.22 59.0852C143.711 59.4349 143.169 59.7559 142.616 60.0595C142.063 60.3631 141.495 60.648 140.921 60.9151C140.633 61.0486 140.344 61.1768 140.054 61.2996C139.909 61.3601 139.764 61.4198 139.619 61.4763C139.473 61.5335 139.331 61.587 139.183 61.6355C139.036 61.684 138.891 61.7363 138.743 61.7832L138.296 61.9134L138.184 61.9462L138.07 61.9739L137.843 62.0299L137.616 62.0863C137.541 62.1046 137.464 62.1183 137.387 62.1349C136.165 62.3982 134.906 62.5206 133.643 62.5534C133.327 62.5554 133.011 62.5641 132.695 62.5546L132.457 62.5504C132.378 62.5492 132.299 62.548 132.22 62.5438L131.745 62.5231C131.113 62.4874 130.48 62.4372 129.85 62.3576C128.59 62.2095 127.34 61.9686 126.108 61.6621C125.494 61.504 124.885 61.324 124.289 61.1117L124.176 61.0735L124.065 61.0325L123.843 60.9503C123.695 60.8952 123.546 60.8433 123.399 60.784C123.252 60.7276 123.105 60.6708 122.957 60.6161C122.81 60.5588 122.664 60.4995 122.517 60.4439C122.443 60.4153 122.369 60.3884 122.296 60.3589L122.077 60.2714L121.857 60.1856L121.746 60.1432L121.637 60.098C121.492 60.0383 121.345 59.9794 121.198 59.923C121.052 59.8633 120.906 59.804 120.758 59.7476C120.609 59.6924 120.464 59.6306 120.315 59.575C120.241 59.5464 120.166 59.5182 120.09 59.4913C120.053 59.478 120.016 59.4626 119.979 59.4481L119.867 59.405C119.792 59.3764 119.717 59.3494 119.641 59.322C119.603 59.3079 119.565 59.2951 119.526 59.2818C119.487 59.269 119.451 59.2532 119.412 59.2399C119.261 59.1839 119.105 59.1313 118.944 59.0848L118.936 59.0823C118.825 59.0504 118.709 59.1134 118.677 59.2233C118.656 59.2926 118.675 59.3652 118.719 59.4162C118.83 59.5435 118.947 59.6646 119.068 59.7824C119.127 59.8426 119.19 59.8973 119.253 59.9525C119.316 60.0068 119.38 60.0615 119.445 60.1146C119.573 60.2245 119.706 60.3241 119.841 60.4211C119.977 60.519 120.113 60.6169 120.254 60.704C120.395 60.7927 120.537 60.8807 120.681 60.9644C120.826 61.0453 120.973 61.1237 121.12 61.2009L121.231 61.2593C121.268 61.278 121.305 61.2958 121.343 61.3141L121.567 61.4215L121.793 61.5269C121.869 61.5629 121.946 61.5928 122.022 61.626C122.631 61.8931 123.263 62.0988 123.896 62.2933L124.372 62.4335C124.53 62.4804 124.691 62.5218 124.85 62.5662L125.089 62.633C125.168 62.655 125.249 62.6749 125.328 62.6964L125.808 62.8229C127.09 63.1423 128.39 63.3924 129.704 63.5471C130.36 63.6296 131.02 63.6823 131.682 63.7196L132.178 63.7412C132.261 63.7458 132.344 63.747 132.427 63.7482L132.675 63.7528C133.007 63.7623 133.339 63.7536 133.671 63.7511C134.999 63.7167 136.331 63.5886 137.643 63.3061C137.725 63.2883 137.808 63.2734 137.889 63.2534L138.134 63.1929L138.379 63.1323L138.501 63.1025L138.622 63.0672L139.108 62.9258C139.268 62.8744 139.428 62.8184 139.588 62.7649C139.748 62.7122 139.908 62.6516 140.064 62.5907C140.221 62.5293 140.375 62.4663 140.528 62.402C140.834 62.273 141.136 62.1386 141.436 61.9997C142.034 61.7214 142.623 61.4261 143.204 61.1075C143.783 60.7886 144.355 60.4506 144.911 60.0686C145.189 59.8774 145.463 59.675 145.731 59.4514C145.997 59.2271 146.258 58.9824 146.5 58.6784C146.515 58.6589 146.53 58.6419 146.545 58.6203L146.59 58.5556C146.619 58.512 146.651 58.4693 146.677 58.4245C146.729 58.3341 146.782 58.2441 146.822 58.1504C146.868 58.0575 146.901 57.9625 146.936 57.8675C146.965 57.7725 146.996 57.6767 147.016 57.5809C147.061 57.3889 147.088 57.1969 147.099 57.0053L147.105 56.8618C147.104 56.8136 147.105 56.7659 147.104 56.7174C147.103 56.6689 147.101 56.6204 147.097 56.5706C147.096 56.5465 147.093 56.52 147.091 56.4943C147.09 56.4818 147.089 56.4686 147.087 56.4541L147.085 56.4329L147.081 56.4035L146.882 56.9401C146.903 56.9219 146.912 56.9136 146.924 56.9028L146.955 56.8721C146.976 56.8518 146.995 56.8323 147.013 56.8128C147.051 56.7734 147.085 56.7348 147.119 56.6946C147.153 56.6548 147.187 56.6146 147.218 56.5731L147.265 56.5109L147.31 56.447C147.43 56.2757 147.533 56.0899 147.616 55.89C147.659 55.7909 147.692 55.6855 147.723 55.5798L147.76 55.4168C147.773 55.3624 147.778 55.3056 147.787 55.25C147.79 55.2222 147.795 55.1945 147.797 55.1663L147.801 55.0808L147.804 54.9962C147.806 54.9676 147.806 54.939 147.805 54.9112C147.803 54.8548 147.801 54.7984 147.795 54.7428C147.79 54.6868 147.782 54.6316 147.773 54.5765C147.738 54.3558 147.669 54.1464 147.584 53.951C147.498 53.7557 147.392 53.5757 147.275 53.409C147.157 53.2427 147.028 53.0892 146.889 52.9469C146.82 52.8756 146.748 52.8068 146.674 52.7408C146.636 52.7076 146.598 52.6749 146.558 52.6425L146.497 52.5936L146.464 52.5683L146.423 52.538L146.532 53.4156L146.572 53.3679L146.604 53.3268C146.625 53.2999 146.645 53.2738 146.665 53.2472C146.704 53.1941 146.742 53.1415 146.778 53.0875C146.85 52.9805 146.918 52.8702 146.981 52.7574C147.108 52.5309 147.217 52.2904 147.302 52.0332C147.384 51.7749 147.442 51.4982 147.451 51.2062C147.458 50.9151 147.418 50.609 147.312 50.3224C147.206 50.0358 147.043 49.7749 146.851 49.5576C146.66 49.3399 146.416 49.14 146.141 49.001C145.865 48.8604 145.569 48.7824 145.289 48.7484C145.007 48.7144 144.739 48.7194 144.481 48.7397C143.968 48.7858 143.497 48.8936 143.039 49.0135C142.581 49.1341 142.139 49.2727 141.701 49.4149C140.826 49.7011 139.971 50.0039 139.113 50.2967C138.685 50.4435 138.256 50.5883 137.828 50.7313C137.614 50.8014 137.395 50.8765 137.194 50.9346L137.04 50.981L136.964 51.0043C136.938 51.0117 136.912 51.0179 136.886 51.0246L136.573 51.1038L136.494 51.1237C136.468 51.1295 136.442 51.1349 136.415 51.1403L136.257 51.1731L136.098 51.2062C136.045 51.2178 135.992 51.2286 135.939 51.2369C135.724 51.2714 135.511 51.3116 135.295 51.3356C135.186 51.3485 135.079 51.3647 134.97 51.3755L134.644 51.4057C134.59 51.4107 134.535 51.4161 134.481 51.4207L134.317 51.4302L133.989 51.4497C133.111 51.4866 132.226 51.458 131.342 51.3846C130.458 51.3116 129.574 51.1884 128.695 51.032C126.936 50.7185 125.195 50.2722 123.476 49.7467C122.617 49.4834 121.764 49.1988 120.915 48.8982C120.067 48.5966 119.224 48.2806 118.39 47.9397L117.766 47.6817L117.144 47.4158C116.731 47.2367 116.318 47.0563 115.907 46.8709L113.441 45.7627C112.618 45.3952 111.799 45.0174 110.966 44.6665C110.549 44.491 110.129 44.321 109.705 44.1567C109.493 44.075 109.28 43.9946 109.065 43.9174C108.85 43.8399 108.633 43.7648 108.415 43.6955L108.413 43.6951C108.304 43.6607 108.188 43.72 108.154 43.827C108.128 43.9067 108.154 43.9904 108.214 44.0423Z" fill="#1B1F2C"/>
<path d="M79.0165 40.6309C92.9885 69.2131 133.806 51.4435 123.424 22.6449C109.824 -6.94826 67.649 11.4589 79.0165 40.6309Z" fill="#E1E1E1"/>
<path d="M79.0165 40.6309C92.9885 69.2131 133.806 51.4435 123.424 22.6449C109.824 -6.94826 67.649 11.4589 79.0165 40.6309Z" fill="#E1E1E1"/>
<path d="M103.3 58.5658C107.75 58.5658 112.163 57.324 115.987 55.0894L115.835 54.866L113.905 52.0446C112.815 52.6964 111.67 53.2705 110.479 53.7639C107.306 55.0776 103.979 55.7382 100.694 55.7382C98.0864 55.7382 95.5043 55.3212 93.0501 54.4837C92.5601 54.3165 92.0781 54.1335 91.6037 53.9355C91.6312 54.4416 91.6649 54.9393 91.7049 55.4309C93.4721 56.476 95.3237 57.2459 97.2161 57.7603C99.2167 58.3055 101.262 58.5658 103.3 58.5658Z" fill="#C5C5C5"/>
<path d="M91.7041 55.431C91.6639 54.9395 91.6304 54.4417 91.6028 53.9355C91.4737 53.8817 91.3451 53.8266 91.2174 53.7705C91.2433 54.2533 91.2746 54.7276 91.3108 55.1932C91.4411 55.2739 91.5728 55.3534 91.7041 55.431Z" fill="#1B1F2C"/>
<path d="M115.986 55.0891C116.145 54.9968 116.302 54.9021 116.459 54.806C116.937 54.5118 117.406 54.2019 117.864 53.8784C119.275 52.8775 120.582 51.7312 121.753 50.4549C121.336 50.316 120.92 50.1729 120.506 50.026C119.642 49.7196 118.787 49.3949 117.934 49.0675C116.692 50.1893 115.344 51.1845 113.904 52.0445L115.833 54.8659L115.986 55.0891Z" fill="#C5C5C5"/>
<path d="M121.753 50.4554C121.989 50.1985 122.219 49.937 122.442 49.6701C121.168 49.2414 119.925 48.7795 118.74 48.3079C118.489 48.5554 118.231 48.7992 117.968 49.0379C117.956 49.0479 117.946 49.0579 117.935 49.068C118.788 49.3951 119.643 49.72 120.506 50.0262C120.92 50.173 121.336 50.3163 121.753 50.4554Z" fill="#1B1F2C"/>
<path d="M79.0165 40.6309C92.9885 69.2131 133.806 51.4435 123.424 22.6449C109.824 -6.94826 67.649 11.4589 79.0165 40.6309Z" fill="#E1E1E1"/>
<path d="M79.0169 40.6308H79.0162H79.0169ZM123.017 22.8078C128.319 37.5396 120.025 48.6816 110.072 52.8019C107.107 54.0297 103.865 54.7153 100.589 54.7153C92.608 54.7153 84.4094 50.652 79.4194 40.458C73.6139 25.5353 81.9402 14.186 92.1368 9.95503C102.235 5.76547 116.203 8.00102 123.017 22.8078ZM100.694 55.5637C103.955 55.5637 107.259 54.9075 110.41 53.6029C113.17 52.4603 115.673 50.8811 117.849 48.9089C120.097 46.8723 121.896 44.5038 123.198 41.8702C126.081 36.0341 126.302 29.3352 123.838 22.4991L123.824 22.4655C120.631 15.5187 115.628 10.6825 109.354 8.47933C106.534 7.48906 103.545 7.0593 100.468 7.20169C97.5097 7.33761 94.5922 7.9952 91.7978 9.15505C88.9936 10.3181 86.4551 11.9278 84.2536 13.9381C81.9782 16.0164 80.1687 18.4299 78.8768 21.1108C76.0059 27.068 75.9129 33.8717 78.6072 40.7868L78.6216 40.8198C81.9055 47.5374 86.9145 52.2051 93.1073 54.3185C95.5438 55.1499 98.1059 55.5637 100.694 55.5637Z" fill="#1B1F2C"/>
<path d="M102.105 54.4898C104.836 54.3143 107.517 53.6695 110.003 52.6407C112.914 51.4351 115.683 49.6245 118.005 47.2948C117.332 47.016 116.723 46.6049 116.197 46.0788C115.042 47.5487 113.696 48.8764 112.177 50.0417C110.083 51.6496 107.751 52.8806 105.247 53.7009C104.209 54.0416 103.159 54.3045 102.105 54.4898ZM98.3563 53.5845C100.649 53.5845 102.865 53.1992 104.86 52.5455C108.894 51.2234 112.669 48.6267 115.384 45.0707C115.258 44.8778 115.142 44.676 115.034 44.4649C114.923 44.249 114.823 44.0256 114.732 43.7942C113.346 45.808 111.647 47.4253 109.746 48.6675C106.582 50.8696 102.846 52.1663 98.921 52.385C98.5224 52.407 98.1233 52.4183 97.7242 52.4183C93.9736 52.4183 90.2082 51.4402 86.5956 49.5433C86.9947 49.8723 87.4004 50.1839 87.8109 50.4777C91.1734 52.6872 94.8562 53.5845 98.3563 53.5845Z" fill="#E1E1E1"/>
<path d="M122.853 22.8735C128.111 37.4937 119.88 48.552 110.003 52.6407C99.8945 56.8254 86.5708 54.6575 79.5819 40.3886C73.8243 25.5786 82.087 14.3147 92.2055 10.1166C102.225 5.95866 116.086 8.17978 122.853 22.8735ZM100.694 55.7384C103.979 55.7384 107.305 55.0777 110.479 53.7638C113.257 52.6139 115.777 51.0236 117.968 49.0376C120.232 46.9862 122.045 44.6009 123.356 41.9469C126.261 36.0672 126.485 29.3218 124.004 22.4407L123.995 22.4161L123.985 22.3935C120.772 15.402 115.733 10.534 109.413 8.3148C106.571 7.31666 103.559 6.8838 100.46 7.02658C97.4803 7.16419 94.5434 7.82574 91.7293 8.9938C88.9061 10.1651 86.3506 11.7854 84.1336 13.8101C81.8414 15.9033 80.0195 18.3344 78.717 21.0355C75.8252 27.0373 75.7298 33.8887 78.442 40.8492L78.4511 40.8731L78.4623 40.8958C81.7669 47.6562 86.8111 52.3547 93.0495 54.4837C95.5043 55.3215 98.0859 55.7384 100.694 55.7384Z" fill="#293856"/>
<path d="M122.853 22.8735C128.111 37.4937 119.88 48.552 110.003 52.6407C99.8945 56.8254 86.5708 54.6575 79.5819 40.3886C73.8243 25.5786 82.087 14.3147 92.2055 10.1166C102.225 5.95866 116.086 8.17978 122.853 22.8735ZM100.694 55.7384C103.979 55.7384 107.305 55.0777 110.479 53.7638C113.257 52.6139 115.777 51.0236 117.968 49.0376C120.232 46.9862 122.045 44.6009 123.356 41.9469C126.261 36.0672 126.485 29.3218 124.004 22.4407L123.995 22.4161L123.985 22.3935C120.772 15.402 115.733 10.534 109.413 8.3148C106.571 7.31666 103.559 6.8838 100.46 7.02658C97.4803 7.16419 94.5434 7.82574 91.7293 8.9938C88.9061 10.1651 86.3506 11.7854 84.1336 13.8101C81.8414 15.9033 80.0195 18.3344 78.717 21.0355C75.8252 27.0373 75.7298 33.8887 78.442 40.8492L78.4511 40.8731L78.4623 40.8958C81.7669 47.6562 86.8111 52.3547 93.0495 54.4837C95.5043 55.3215 98.0859 55.7384 100.694 55.7384Z" fill="#1B1F2C"/>
<path d="M82.12 45.8809C104.098 63.3288 128.538 38.5142 112.663 19.8318C93.595 -0.0257721 65.6241 22.6905 82.12 45.8809Z" fill="#303441"/>
<path d="M78.0816 28.626C73.6918 54.2205 110.09 60.7683 117.293 38.5412C103.783 50.3137 83.078 41.656 78.0816 28.626Z" fill="#21242E"/>
<path d="M79.0163 40.6312H79.0156H79.0163ZM119.013 27.7969C121.73 40.1106 113.951 49.5671 104.861 52.5459C96.9499 55.1382 85.5821 53.5086 79.5782 40.3828C75.3851 31.0212 78.3458 17.1725 89.4301 11.446C95.2678 9.61935 101.914 10.3991 107.674 13.5882C113.426 16.7742 117.559 21.9525 119.013 27.7969ZM98.3465 54.8196C100.663 54.8196 102.982 54.4441 105.248 53.7015C107.752 52.8811 110.084 51.6497 112.178 50.0421C114.319 48.3989 116.116 46.4342 117.52 44.2024C118.998 41.8538 119.99 39.2825 120.469 36.5601C120.981 33.6501 120.895 30.6115 120.214 27.529L120.21 27.514C119.427 24.3606 117.942 21.423 115.798 18.7846C113.775 16.2949 111.174 14.1314 108.275 12.5262C105.369 10.9166 102.132 9.85144 98.9141 9.44685C95.4974 9.01715 92.1638 9.30445 89.0058 10.3018L88.9557 10.3175L88.9094 10.3414C83.5823 13.077 79.5991 17.8983 77.6938 23.9184C75.8944 29.6029 76.1716 35.7848 78.4537 40.8777L78.4556 40.8821C79.8617 43.9565 81.6465 46.5904 83.7605 48.7105C85.7394 50.6948 87.9992 52.2256 90.4785 53.2612C92.8132 54.236 95.304 54.7587 97.8828 54.8146C98.037 54.8182 98.1917 54.8196 98.3465 54.8196Z" fill="#1B1F2C"/>
<path d="M82.1194 45.8814H82.1188H82.1194ZM112.203 20.2376C119.995 29.4201 117.611 39.4684 111.79 45.3562C105.38 51.8412 93.8662 54.3789 82.5728 45.4603C74.3052 33.772 77.8488 22.526 84.6536 17.0129C91.496 11.4688 102.667 10.3175 112.203 20.2376ZM97.7247 52.4185C98.1242 52.4185 98.5225 52.4075 98.922 52.3852C104.137 52.0946 109.02 49.9005 112.671 46.2078C116.042 42.7979 118.05 38.3995 118.325 33.8234C118.629 28.7693 116.834 23.7956 113.133 19.4406L113.108 19.4127C108.6 14.7171 103.275 12.038 97.711 11.6652C92.7083 11.3301 87.794 12.8945 83.8734 16.0709C79.8614 19.3217 77.299 23.9182 76.6578 29.0157C75.9415 34.7115 77.656 40.6643 81.616 46.2313L81.6661 46.3019L81.7337 46.3558C86.7482 50.3366 92.2525 52.4185 97.7247 52.4185Z" fill="#1B1F2C"/>
<path d="M127.329 40.0284C124.209 50.7892 113.042 48.6029 114.973 38.0332C117.823 26.6364 129.761 28.9717 127.329 40.0284Z" fill="#E1E1E1"/>
<path d="M119.761 46.4811C119.085 46.0299 118.53 45.3684 118.14 44.5362C117.483 43.1314 117.332 41.3067 117.706 39.2605L117.714 39.2252C117.722 39.1894 117.731 39.1546 117.74 39.1193C117.461 39.2131 117.192 39.2649 116.935 39.2649C116.383 39.2645 115.895 39.025 115.525 38.4555C115.185 40.5889 115.393 42.4712 116.133 43.9149C116.798 45.2138 117.872 46.092 119.156 46.3877C119.353 46.4328 119.555 46.4646 119.761 46.4811Z" fill="#C5C5C5"/>
<path d="M126.732 39.8795C125.184 45.1945 121.721 46.9788 119.156 46.3875C117.871 46.0919 116.798 45.2134 116.133 43.915C115.359 42.4049 115.167 40.4153 115.576 38.1606C116.221 35.5922 117.387 33.5882 118.949 32.3642C120.283 31.319 121.804 30.924 123.233 31.2526C124.57 31.5597 125.671 32.4796 126.335 33.8419C127.111 35.4334 127.248 37.5209 126.732 39.8795ZM120.139 47.7169C121.484 47.7169 122.842 47.2389 124.063 46.3201C125.806 45.0082 127.14 42.8908 127.921 40.1961L127.93 40.1576C128.51 37.5234 128.342 35.1568 127.444 33.313C126.616 31.6121 125.219 30.459 123.511 30.0665C122.634 29.8648 121.728 29.8757 120.818 30.0995C119.888 30.3282 119.002 30.7696 118.184 31.4099C116.403 32.8062 115.086 35.0459 114.376 37.8869L114.367 37.9249C113.906 40.4508 114.137 42.712 115.035 44.4648C115.867 46.0904 117.231 47.194 118.876 47.573C119.293 47.6694 119.716 47.7169 120.139 47.7169Z" fill="#1B1F2C"/>
<path d="M127.683 40.6984C125.146 49.4156 116.752 47.9178 118.312 39.3685C120.604 30.0188 129.725 31.6566 127.683 40.6984Z" fill="#E1E1E1"/>
<path d="M127.085 40.5478C126.51 42.5151 125.588 44.0534 124.42 44.9971C123.44 45.789 122.356 46.0992 121.369 45.8709C119.643 45.4725 118.216 43.3463 118.913 39.4947C119.994 35.1113 122.646 33.2992 124.71 33.7741C125.662 33.9932 126.438 34.6887 126.895 35.7332C127.445 36.987 127.51 38.6518 127.085 40.5478ZM122.02 47.1626C123.103 47.1626 124.204 46.7438 125.199 45.9397C126.565 44.8362 127.629 43.0817 128.273 40.8668L128.282 40.8314C128.769 38.6746 128.68 36.7442 128.025 35.249C127.408 33.842 126.33 32.8974 124.99 32.5886C123.582 32.2644 122.034 32.7055 120.743 33.7984C119.339 34.9877 118.291 36.8644 117.712 39.2252L117.705 39.2606C117.331 41.3073 117.482 43.1316 118.139 44.5366C118.761 45.8661 119.809 46.7613 121.088 47.0564C121.395 47.1277 121.707 47.1626 122.02 47.1626Z" fill="#1B1F2C"/>
<path d="M109.554 34.3864C110.705 34.3859 111.929 33.6693 112.669 31.9687C113.621 29.3172 111.848 27.4234 109.95 27.4234C108.694 27.4234 107.383 28.2526 106.769 30.2402C106.167 32.6767 107.775 34.3864 109.554 34.3864Z" fill="#5A5E6A"/>
<path d="M107.712 39.5203C108.174 39.5203 108.663 39.2602 108.964 38.6666C109.421 37.5064 108.708 36.7396 107.915 36.7396C107.453 36.7396 106.964 36.9997 106.663 37.5937C106.206 38.753 106.919 39.5203 107.712 39.5203Z" fill="#5A5E6A"/>
<path d="M81.4943 30.5094C86.2646 23.2199 92.0813 16.8965 102.966 16.8965C103.494 16.8965 104.034 16.9113 104.587 16.9415C102.887 15.4733 99.691 14.4923 96.2054 14.4923C89.1745 14.4923 80.9663 18.4824 81.4943 30.5094Z" fill="#5A5E6A"/>
<path d="M122.016 45.9437C122.817 45.9437 123.651 45.6188 124.421 44.9967C125.589 44.0532 126.51 42.5148 127.086 40.5476C127.237 39.8738 127.326 39.2294 127.354 38.6219C126.158 40.4229 124.113 41.6328 122.284 41.6328C120.9 41.6328 119.64 40.9394 118.968 39.2833C118.949 39.3533 118.932 39.4237 118.914 39.4945C118.217 43.346 119.644 45.4722 121.369 45.8706C121.581 45.9197 121.797 45.9437 122.016 45.9437Z" fill="#C5C5C5"/>
<path d="M121.733 46.4088C124.628 46.4084 127.943 43.1623 127.812 37.813C127.679 38.0935 127.525 38.3641 127.353 38.622C127.326 39.2291 127.237 39.8737 127.086 40.5477C126.51 42.515 125.589 44.0531 124.421 44.9967C123.651 45.6188 122.817 45.9435 122.015 45.9435C121.797 45.9435 121.581 45.9196 121.369 45.8708C119.643 45.4719 118.217 43.3461 118.914 39.4943C118.931 39.4238 118.949 39.3534 118.967 39.2833C118.777 38.8136 118.633 38.2656 118.548 37.6341C117.95 38.7715 117.599 40.0531 117.602 41.3287C117.914 44.8431 119.722 46.4088 121.733 46.4088Z" fill="#1B1F2C"/>
<path d="M136.735 51.9755C140.484 50.9188 143.4 51.1069 143.765 52.0939C144.033 52.8173 143.806 53.9894 142.272 54.4929C141.224 54.8369 139.719 54.7728 139.719 54.7728C139.719 54.7728 138.939 57.0926 137.683 58.0311" fill="#E1E1E1"/>
<path d="M136.9 52.5513C137.93 52.2783 138.972 52.053 140.017 51.9377C140.538 51.8793 141.06 51.8462 141.568 51.8607C141.822 51.8693 142.072 51.8864 142.31 51.9217C142.548 51.957 142.777 52.0121 142.957 52.0894C143.003 52.108 143.043 52.1288 143.079 52.1489C143.115 52.1697 143.146 52.1906 143.169 52.2099C143.193 52.2292 143.21 52.2463 143.22 52.259L143.227 52.2679L143.232 52.2753L143.236 52.2813L143.238 52.285L143.244 52.3003C143.305 52.4594 143.326 52.6513 143.301 52.8335C143.277 53.0179 143.205 53.1942 143.095 53.3541C142.984 53.5144 142.831 53.6572 142.647 53.7765C142.277 54.0186 141.801 54.1543 141.294 54.2391C141.04 54.2815 140.78 54.3127 140.518 54.3332C140.387 54.344 140.256 54.3518 140.124 54.3574C140.058 54.3603 139.992 54.3626 139.927 54.364L139.829 54.3659L139.736 54.3666L139.415 54.3685L139.328 54.644L139.295 54.75L139.259 54.8601C139.234 54.9337 139.208 55.0073 139.181 55.081C139.129 55.2279 139.075 55.3751 139.017 55.5213C138.904 55.8139 138.781 56.1028 138.649 56.388C138.516 56.6725 138.373 56.9518 138.211 57.221C138.191 57.2556 138.17 57.2887 138.149 57.3221C138.128 57.3549 138.108 57.3891 138.086 57.4214L138.02 57.5203L137.952 57.617C137.859 57.7449 137.76 57.8702 137.651 57.9911L137.651 57.9918C137.632 58.013 137.634 58.0446 137.655 58.0636C137.671 58.0777 137.694 58.0796 137.712 58.0707C138.015 57.919 138.284 57.7014 138.523 57.4623C138.763 57.2225 138.975 56.9577 139.168 56.6822C139.216 56.613 139.262 56.5431 139.309 56.4728C139.353 56.4022 139.398 56.3308 139.441 56.259C139.529 56.1162 139.609 55.9693 139.688 55.8221C139.766 55.6737 139.84 55.5235 139.91 55.3714C139.944 55.2952 139.978 55.2186 140.011 55.1408L140.06 55.0237C140.076 54.9839 140.091 54.9471 140.108 54.901L139.7 55.1784L139.812 55.1847L139.92 55.1896C139.991 55.1922 140.062 55.194 140.133 55.1955C140.276 55.1981 140.418 55.1985 140.56 55.1955C140.845 55.1899 141.132 55.1751 141.421 55.1427C141.71 55.1104 142.001 55.0631 142.299 54.9836C142.448 54.946 142.596 54.895 142.743 54.8385C142.89 54.7794 143.035 54.7095 143.176 54.6281C143.458 54.4644 143.727 54.2465 143.941 53.9699C144.155 53.694 144.309 53.3604 144.372 53.009C144.404 52.8335 144.417 52.6546 144.405 52.475C144.393 52.2954 144.362 52.1162 144.302 51.9396L144.291 51.9061C144.286 51.8935 144.28 51.8771 144.274 51.863C144.262 51.8332 144.249 51.8042 144.235 51.7767C144.221 51.7484 144.207 51.7213 144.191 51.6953C144.175 51.6685 144.159 51.6428 144.141 51.619C144.073 51.5209 143.996 51.4387 143.917 51.3684C143.838 51.2977 143.756 51.2397 143.676 51.1899C143.595 51.1401 143.515 51.0962 143.435 51.0598C143.116 50.9121 142.809 50.8355 142.507 50.7794C142.206 50.724 141.909 50.6942 141.616 50.6805C141.029 50.653 140.455 50.6782 139.887 50.7333C138.753 50.8508 137.645 51.0806 136.568 51.3989C136.247 51.4937 136.065 51.8273 136.161 52.1445C136.255 52.4557 136.582 52.6349 136.897 52.552L136.9 52.5513Z" fill="#1B1F2C"/>
<path d="M128.895 63.3655C129.04 63.3655 129.185 63.3076 129.291 63.1928C129.491 62.9764 129.476 62.6409 129.257 62.443C127.611 60.9537 127.132 58.7653 127.836 55.9382C128.381 53.7482 129.462 51.991 129.473 51.9733C129.628 51.7237 129.55 51.3966 129.297 51.2431C129.045 51.0898 128.714 51.1674 128.559 51.4169C128.511 51.4933 127.388 53.3137 126.8 55.6587C126.448 57.0582 126.362 58.3548 126.544 59.5125C126.777 60.9943 127.446 62.2436 128.533 63.2264C128.636 63.3194 128.766 63.3655 128.895 63.3655Z" fill="#1B1F2C"/>
<path d="M140.799 65.3879C140.879 65.875 140.908 66.3655 140.91 66.8529C140.908 66.975 140.91 67.0961 140.905 67.2178L140.89 67.581L140.86 67.9427C140.857 68.0029 140.849 68.0627 140.842 68.1225L140.82 68.3019L140.798 68.4807L140.768 68.6584C140.748 68.7766 140.731 68.8944 140.707 69.0116C140.655 69.2452 140.612 69.4781 140.544 69.7057C140.429 70.1647 140.26 70.6054 140.086 71.0344L140.078 71.0521C139.952 71.3607 140.104 71.7122 140.416 71.8367C140.728 71.961 141.084 71.8116 141.209 71.5026C141.225 71.4655 141.236 71.4248 141.244 71.3869C141.34 70.8712 141.42 70.3583 141.442 69.8437C141.463 69.5874 141.459 69.3305 141.462 69.0756C141.461 68.9482 141.453 68.8208 141.449 68.6941L141.441 68.504L141.425 68.3143L141.41 68.1253C141.405 68.0623 141.399 67.9997 141.391 67.9367L141.343 67.5618L141.283 67.1898C141.262 67.0663 141.235 66.9435 141.211 66.821C141.107 66.3319 140.976 65.8498 140.799 65.3879Z" fill="#1B1F2C"/>
<path d="M21.6988 32.7705C21.6565 32.443 21.8885 32.1183 22.1872 32.0509C22.4489 31.9917 22.6875 32.1494 22.7256 32.4418L21.6988 32.7705ZM21.6988 32.7705C21.7369 33.0629 21.9754 33.2206 22.2371 33.1615M21.6988 32.7705L22.2371 33.1615M22.2371 33.1615C22.5358 33.0937 22.7677 32.7689 22.7256 32.4419L22.2371 33.1615Z" fill="#E1E1E1" stroke="#1B1F2C"/>
<path d="M40.0295 36.2724L39.9015 36.3719L39.7481 36.3194L23.8596 30.8764L20.5069 41.2342L30.342 44.7084L39.9008 39.9393L49.109 29.2149L40.0295 36.2724Z" fill="#A0A0A0" stroke="#1B1F2C" stroke-width="0.6"/>
<path d="M23.3572 30.4851L19.849 17.1068L16.4386 26.1476L20.1633 40.3524L23.3572 30.4851Z" fill="#B3B3B3" stroke="#1B1F2C" stroke-width="0.6"/>
<path d="M20.3186 16.1657L20.2391 16.2306L23.9189 30.2618L39.7904 35.6994L50.9943 26.9905C51.0202 26.6346 50.992 26.0235 50.9259 25.2668C50.8528 24.4306 50.7368 23.4496 50.6143 22.5115C50.4918 21.5739 50.3632 20.6816 50.2651 20.0236C50.2161 19.6947 50.1747 19.4244 50.1456 19.2365C50.1392 19.1948 50.1334 19.1573 50.1282 19.124L26.6113 11.4169C26.2728 11.6037 25.7448 11.9629 25.1191 12.4184C24.4302 12.92 23.642 13.524 22.8961 14.1074C22.1506 14.6905 21.449 15.2518 20.9337 15.6674C20.6761 15.8752 20.4651 16.0464 20.3186 16.1657Z" fill="#E1E1E1" stroke="#1B1F2C" stroke-width="0.6"/>
<path d="M25.6736 18.1345C25.6074 18.2152 25.5462 18.3026 25.4909 18.3957C24.5839 19.9247 25.5108 22.5916 27.5611 24.3527C29.4858 26.0058 31.7162 26.2733 32.7323 25.035C32.7989 24.9538 32.8597 24.8669 32.915 24.7737C33.822 23.2448 32.895 20.5779 30.8449 18.8177C28.9201 17.1637 26.6897 16.8962 25.6736 18.1345Z" fill="#C5C5C5"/>
<path d="M30.7807 18.9873C29.0505 17.3962 27.2564 16.9588 26.7734 18.0095C26.2904 19.0602 27.3021 21.2025 29.0317 22.7931C30.7618 24.3842 32.5555 24.8222 33.0384 23.7705C33.5215 22.7198 32.5103 20.578 30.7807 18.9873Z" fill="#E1E1E1"/>
<path d="M30.9002 26.0487C31.1316 26.068 31.3697 26.059 31.6077 26.0179C31.7262 25.9957 31.8446 25.9662 31.9611 25.9262C32.077 25.8858 32.1916 25.8373 32.3029 25.7789C32.4132 25.7196 32.5187 25.6511 32.6194 25.5734L32.6932 25.5136C32.717 25.4931 32.7403 25.4712 32.7631 25.4498L32.833 25.385C32.8552 25.3623 32.8763 25.3387 32.8984 25.3149C33.0702 25.1281 33.2106 24.912 33.3166 24.6829C33.4222 24.4534 33.4941 24.2134 33.5396 23.9713C33.5841 23.7283 33.6017 23.4847 33.6006 23.2437C33.5989 23.0021 33.5733 22.7641 33.5358 22.5297C33.5185 22.4124 33.4931 22.2964 33.4677 22.1814L33.4245 22.0099C33.4099 21.9526 33.392 21.8971 33.376 21.8404C33.3083 21.6151 33.2311 21.3937 33.1382 21.1798C33.094 21.0716 33.0429 20.9675 32.994 20.8608C32.9416 20.7574 32.8914 20.6523 32.8342 20.5513C32.6131 20.1428 32.3506 19.76 32.0609 19.3985C31.9888 19.3084 31.913 19.2215 31.8382 19.1336C31.7597 19.049 31.6839 18.9611 31.6027 18.8787C31.4434 18.7102 31.2735 18.5526 31.0996 18.3987C30.7473 18.0964 30.371 17.8179 29.9611 17.5868C29.5535 17.354 29.1161 17.1608 28.6507 17.0328C28.1846 16.9078 27.6874 16.841 27.1766 16.8982C26.9224 16.9269 26.6648 16.9876 26.4183 17.0885C26.1728 17.1892 25.939 17.3315 25.7359 17.5071C25.5325 17.6831 25.3594 17.893 25.2265 18.1214C25.0937 18.3499 24.9987 18.5933 24.9364 18.8387C24.8748 19.0854 24.8454 19.3326 24.839 19.5765C24.8388 19.6368 24.8362 19.6979 24.8385 19.7584L24.8461 19.939L24.8628 20.1172C24.8683 20.1769 24.8786 20.2352 24.8866 20.2941C24.9221 20.5287 24.9732 20.7572 25.0398 20.9808C25.1077 21.2027 25.1864 21.42 25.2772 21.6312C25.3707 21.8412 25.4716 22.0455 25.584 22.2433C25.6977 22.4405 25.816 22.6332 25.9484 22.8162C26.2077 23.1858 26.5027 23.5258 26.8226 23.8364C26.8783 23.8908 26.9691 23.8886 27.0236 23.8318C27.0734 23.7808 27.0783 23.703 27.0381 23.6479L27.0359 23.6452C26.9087 23.4709 26.7807 23.2995 26.6665 23.118C26.6071 23.0294 26.5523 22.9374 26.4957 22.8476C26.4685 22.8013 26.4428 22.7544 26.4157 22.7092C26.3894 22.6628 26.3628 22.617 26.3384 22.5695L26.2635 22.429L26.1933 22.2871L26.1575 22.216L26.1244 22.1436C26.1029 22.0958 26.0805 22.048 26.059 22.0002C25.9761 21.8061 25.8999 21.6104 25.8343 21.4126C25.7708 21.2131 25.7157 21.0132 25.6725 20.8115C25.6313 20.6096 25.6012 20.4071 25.5852 20.2055C25.5534 19.8023 25.5846 19.4017 25.6975 19.043C25.7528 18.8641 25.8301 18.6969 25.9286 18.5479C26.0261 18.4 26.1444 18.2699 26.2803 18.1622C26.5506 17.9465 26.8902 17.8276 27.2563 17.7978C27.6229 17.7694 28.0099 17.8244 28.386 17.9336C28.762 18.0472 29.1313 18.2087 29.4798 18.4137C29.8297 18.6171 30.1615 18.8564 30.472 19.1228C30.7803 19.3919 31.0735 19.6824 31.3367 19.999C31.4015 20.0788 31.4682 20.1573 31.5304 20.2393C31.5948 20.3196 31.6537 20.4033 31.715 20.4864C31.8328 20.6539 31.9462 20.8258 32.0498 21.0031C32.1042 21.0902 32.1511 21.1811 32.2013 21.2702C32.2478 21.3616 32.2966 21.4522 32.3384 21.5451C32.4266 21.7294 32.5046 21.9176 32.5726 22.1094C32.6416 22.301 32.6973 22.496 32.7418 22.6917C32.7859 22.8879 32.8191 23.0867 32.8337 23.2845C32.8497 23.4818 32.8487 23.6793 32.8283 23.8726C32.8084 24.0653 32.7682 24.2548 32.7041 24.4328C32.64 24.6117 32.5526 24.7794 32.4396 24.9299L32.3977 24.9864L32.3511 25.0399C32.3352 25.0572 32.3205 25.0762 32.3041 25.093L32.2538 25.1435C32.1854 25.2086 32.1118 25.2694 32.0334 25.3253C31.9547 25.3793 31.8703 25.4286 31.7829 25.4718C31.6944 25.5142 31.6018 25.5497 31.5069 25.5806C31.4116 25.6121 31.3131 25.6356 31.2127 25.6549C31.1123 25.6732 31.0098 25.6855 30.9056 25.6955L30.9018 25.6959C30.8048 25.7047 30.7321 25.7911 30.7402 25.8885C30.7469 25.9758 30.8159 26.042 30.9002 26.0487Z" fill="#1B1F2C"/>
<path d="M33.1949 18.5327C33.1355 18.3345 33.0557 18.1428 32.9623 17.9568C32.8685 17.7705 32.7606 17.5915 32.6408 17.4195C32.4012 17.0766 32.1122 16.7672 31.7925 16.4951C31.4737 16.2219 31.1212 15.9888 30.7506 15.7916C30.3778 15.5981 29.9856 15.4403 29.5799 15.3267C29.1745 15.2116 28.756 15.1374 28.3322 15.1124C28.2264 15.106 28.1199 15.1026 28.0137 15.1021C27.9071 15.1031 27.8001 15.1056 27.6937 15.1129C27.4804 15.1247 27.2674 15.1544 27.0559 15.1952C26.6344 15.2824 26.2176 15.4305 25.8458 15.6645C25.4752 15.8949 25.1529 16.2146 24.9533 16.5921C24.9161 16.6632 24.9428 16.75 25.013 16.7869C25.0682 16.8152 25.1344 16.8043 25.1779 16.7642L25.1801 16.7615C25.7365 16.2457 26.443 16.0291 27.1588 15.9785C27.8769 15.9273 28.6079 16.0343 29.3048 16.2409C30.0024 16.4499 30.6688 16.7624 31.2753 17.1684C31.5783 17.3717 31.8656 17.6005 32.1329 17.8548C32.267 17.9814 32.3955 18.1149 32.5192 18.2553C32.6433 18.3951 32.7623 18.5423 32.8788 18.6946L32.8805 18.6968C32.9409 18.7747 33.0532 18.7882 33.1318 18.7278C33.1927 18.6805 33.216 18.6016 33.1949 18.5327Z" fill="#1B1F2C"/>
</g>
<defs>
<linearGradient id="paint0_linear_596_6383" x1="95.3249" y1="69.4423" x2="99.0664" y2="69.4423" gradientUnits="userSpaceOnUse">
<stop stop-color="#F67668"/>
<stop offset="1" stop-color="#F79576"/>
</linearGradient>
<linearGradient id="paint1_linear_596_6383" x1="94.7124" y1="69.6845" x2="97.4619" y2="69.6845" gradientUnits="userSpaceOnUse">
<stop stop-color="#F67668"/>
<stop offset="1" stop-color="#F79576"/>
</linearGradient>
<clipPath id="clip0_596_6383">
<rect width="140" height="68" rx="34" fill="white"/>
</clipPath>
</defs>
</svg>
