<svg width="147" height="149" viewBox="0 0 147 149" fill="none" xmlns="http://www.w3.org/2000/svg">
<path d="M65.6865 114.017C62.7126 109.213 56.1587 107.881 51.0741 111.034C55.0041 111.557 56.2316 114.176 56.2316 114.176C56.2316 114.176 55.0252 112.665 52.8743 112.386C50.8077 112.108 48.77 113.067 47.6626 114.826C44.2241 120.222 41.7474 128.674 41.7474 128.674C41.7474 128.674 56.7779 131.599 61.8876 128.432C66.9722 125.279 68.6802 118.826 65.6865 114.017Z" fill="url(#paint0_linear_1669_9778)"/>
<path d="M66.1379 113.756C64.9386 111.824 63.1451 110.368 61.0331 109.548C58.9606 108.738 56.663 108.61 54.4993 109.09C53.1931 109.376 51.9526 109.892 50.8333 110.588C50.5019 110.796 50.4959 111.452 50.9614 111.534C52.1456 111.703 53.2769 112.07 54.2588 112.757C54.5632 112.966 54.8571 113.214 55.1548 113.527C55.272 113.643 55.3642 113.774 55.4617 113.885C55.5104 113.94 55.5104 113.94 55.4617 113.885C55.4762 113.91 55.4906 113.935 55.5051 113.96C55.5341 114.01 55.563 114.06 55.6118 114.116C55.6697 114.216 55.7474 114.322 55.8 114.442C56.0667 114.238 56.3333 114.033 56.6 113.829C56.2642 113.421 55.8082 113.066 55.3759 112.781C54.4375 112.169 53.3207 111.827 52.2181 111.828C51.18 111.826 50.1271 112.116 49.2243 112.637C48.2911 113.193 47.5977 113.961 47.036 114.87C45.918 116.67 45.0016 118.586 44.1841 120.53C43.4394 122.28 42.7487 124.067 42.1372 125.874C41.8341 126.768 41.531 127.662 41.2727 128.547C41.2038 128.804 41.3722 129.125 41.6347 129.174C42.7239 129.381 43.8436 129.554 44.9487 129.702C47.4017 130.041 49.8758 130.301 52.3528 130.392C54.8549 130.469 57.4481 130.443 59.8877 129.804C61.025 129.515 62.0465 129.026 62.997 128.326C64.3951 127.302 65.5548 125.98 66.3902 124.445C67.97 121.476 68.1787 117.928 66.775 114.86C66.538 114.478 66.3604 114.113 66.1379 113.756C65.7996 113.199 64.902 113.701 65.2601 114.263C66.8991 116.928 67.0864 120.264 65.8365 123.109C65.1858 124.588 64.22 125.898 63.0053 126.951C62.4758 127.423 61.8976 127.841 61.2561 128.178C61.1558 128.236 61.0608 128.274 60.9658 128.312C60.9156 128.341 60.8708 128.35 60.8206 128.379C60.7955 128.394 60.7704 128.408 60.7454 128.423C60.8654 128.37 60.7203 128.437 60.7005 128.432C60.4656 128.517 60.2505 128.608 60.0209 128.674C58.9126 129.013 57.8519 129.174 56.7675 129.265C55.5091 129.373 54.2323 129.391 52.966 129.369C51.68 129.343 50.4099 129.257 49.1254 129.146C48.5253 129.091 47.9252 129.036 47.3304 128.962C47.0429 128.927 46.7554 128.892 46.4679 128.858C46.3439 128.846 46.2002 128.829 46.0762 128.816C45.9522 128.804 46.096 128.822 45.972 128.81C45.9127 128.794 45.8283 128.792 45.7689 128.777C44.9117 128.653 44.0545 128.529 43.2026 128.386C42.7766 128.314 42.356 128.222 41.9445 128.176C41.9247 128.17 41.905 128.165 41.8852 128.16C42.001 128.361 42.1313 128.586 42.2472 128.787C42.9266 126.489 43.7444 124.228 44.6558 122.013C45.4179 120.118 46.2788 118.25 47.2873 116.464C47.7632 115.638 48.2298 114.766 48.9363 114.108C49.6124 113.483 50.4636 113.075 51.3805 112.897C52.4716 112.702 53.6255 112.905 54.5798 113.458C55.0965 113.744 55.5235 114.05 55.9028 114.533C56.0635 114.724 56.3813 114.725 56.5675 114.584C56.7787 114.428 56.8081 114.161 56.7028 113.92C56.5252 113.555 56.2381 113.202 55.9799 112.9C55.3265 112.174 54.487 111.588 53.5747 111.196C52.8352 110.87 52.044 110.658 51.2264 110.545C51.2708 110.854 51.3153 111.163 51.3545 111.491C53.1814 110.369 55.2674 109.784 57.412 109.85C59.4274 109.923 61.388 110.597 62.997 111.791C63.8998 112.457 64.6848 113.325 65.2746 114.288C65.5984 114.82 66.496 114.319 66.1379 113.756Z" fill="#1C202C"/>
<path d="M34.8863 64.4051C31.9124 59.6017 25.3585 58.2695 20.2739 61.4225C24.204 61.9456 25.4315 64.5639 25.4315 64.5639C25.4315 64.5639 24.2251 63.0536 22.0741 62.774C20.0075 62.4958 17.9698 63.455 16.8624 65.2145C13.4239 70.6104 10.9472 79.0623 10.9472 79.0623C10.9472 79.0623 25.9778 81.9874 31.0874 78.82C36.172 75.667 37.88 69.2138 34.8863 64.4051Z" fill="url(#paint1_linear_1669_9778)"/>
<path d="M35.3377 64.1445C34.1384 62.2121 32.345 60.7564 30.2329 59.936C28.1604 59.1263 25.8628 58.9983 23.6991 59.4784C22.3929 59.7644 21.1524 60.28 20.0331 60.9764C19.7018 61.1844 19.6957 61.84 20.1612 61.9223C21.3455 62.0912 22.4768 62.4579 23.4586 63.145C23.763 63.3538 24.0569 63.6021 24.3546 63.9151C24.4719 64.0313 24.564 64.162 24.6615 64.2729C24.7102 64.3283 24.7102 64.3283 24.6615 64.2729C24.676 64.2979 24.6905 64.323 24.7049 64.3481C24.7339 64.3983 24.7629 64.4484 24.8116 64.5039C24.8695 64.6042 24.9472 64.7098 24.9998 64.8299C25.2665 64.6258 25.5332 64.4216 25.7999 64.2175C25.464 63.8095 25.0081 63.4542 24.5758 63.1688C23.6374 62.5569 22.5206 62.2153 21.4179 62.2166C20.3798 62.214 19.3269 62.5043 18.4241 63.0255C17.4909 63.581 16.7975 64.3492 16.2358 65.2586C15.1178 67.0577 14.2014 68.9745 13.3839 70.9177C12.6392 72.6685 11.9486 74.4549 11.337 76.2625C11.0339 77.1565 10.7308 78.0504 10.4725 78.9351C10.4036 79.1923 10.5721 79.513 10.8345 79.5621C11.9237 79.7692 13.0434 79.942 14.1485 80.0897C16.6015 80.429 19.0756 80.6892 21.5526 80.7805C24.0547 80.8574 26.6479 80.8314 29.0875 80.192C30.2248 79.9032 31.2463 79.4137 32.1968 78.7145C33.5949 77.69 34.7546 76.3684 35.59 74.8327C37.1698 71.8642 37.3785 68.3163 35.9748 65.248C35.7576 64.8718 35.5602 64.5009 35.3377 64.1445C34.9994 63.5875 34.1019 64.089 34.46 64.6513C36.0989 67.3163 36.2862 70.6523 35.0363 73.4972C34.3856 74.9764 33.4198 76.2863 32.2051 77.3388C31.6756 77.8117 31.0974 78.2291 30.456 78.566C30.3556 78.6239 30.2606 78.662 30.1656 78.7002C30.1154 78.7291 30.0706 78.7383 30.0204 78.7673C29.9954 78.7818 29.9703 78.7962 29.9452 78.8107C30.0653 78.7581 29.9201 78.8252 29.9003 78.8199C29.6655 78.9053 29.4503 78.9961 29.2208 79.0618C28.1124 79.4008 27.0517 79.5617 25.9674 79.6528C24.7089 79.7607 23.4321 79.779 22.1659 79.7577C20.8799 79.7311 19.6098 79.6451 18.3252 79.5341C17.7251 79.4793 17.125 79.4245 16.5302 79.35C16.2427 79.3153 15.9552 79.2807 15.6677 79.246C15.5438 79.234 15.4 79.2167 15.276 79.2047C15.1521 79.1927 15.2958 79.21 15.1718 79.198C15.1125 79.1821 15.0281 79.1806 14.9687 79.1647C14.1115 79.0411 13.2543 78.9174 12.4024 78.7739C11.9765 78.7022 11.5558 78.6106 11.1443 78.564C11.1246 78.5587 11.1048 78.5534 11.085 78.5481C11.2008 78.7487 11.3312 78.9744 11.447 79.175C12.1264 76.8768 12.9442 74.6157 13.8557 72.4009C14.6177 70.5063 15.4786 68.6383 16.4871 66.8523C16.963 66.0258 17.4296 65.1545 18.1361 64.4959C18.8122 63.8715 19.6634 63.4636 20.5804 63.2853C21.6714 63.0901 22.8253 63.2933 23.7796 63.8458C24.2963 64.1326 24.7233 64.4378 25.1026 64.921C25.2633 65.1125 25.5812 65.1129 25.7673 64.972C25.9785 64.8166 26.0079 64.5488 25.9027 64.3087C25.725 63.9431 25.4379 63.5905 25.1797 63.2882C24.5264 62.562 23.6869 61.9766 22.7746 61.5838C22.035 61.2584 21.2438 61.0464 20.4262 60.9333C20.4707 61.242 20.5152 61.5508 20.5543 61.8792C22.3812 60.7576 24.4672 60.1718 26.6119 60.2377C28.6272 60.3114 30.5878 60.9851 32.1969 62.1794C33.0996 62.8453 33.8847 63.7128 34.4744 64.6764C34.7983 65.2083 35.6958 64.7068 35.3377 64.1445Z" fill="#1C202C"/>
<path d="M127.382 65.2559C126.243 65.947 118.544 60.3439 112.948 51.0856C107.352 41.8274 105.951 32.4212 107.115 31.7156C108.254 31.0245 113.725 37.9809 119.321 47.2391C124.917 56.4973 128.521 64.5648 127.382 65.2559Z" fill="#CFCEEE"/>
<path d="M127.121 64.8045C127.021 64.8624 127.281 64.7625 127.121 64.8045C127.052 64.8282 127.271 64.802 127.121 64.8045C127.102 64.7992 127.042 64.7833 127.017 64.7978C127.017 64.7978 127.156 64.8349 127.057 64.8084C127.017 64.7978 126.997 64.7925 126.958 64.7819C126.839 64.7501 126.721 64.7183 126.607 64.6667C126.587 64.6614 126.454 64.6045 126.548 64.6508C126.622 64.6918 126.528 64.6455 126.508 64.6402C126.435 64.5992 126.336 64.5727 126.262 64.5318C125.439 64.1206 124.674 63.5762 123.933 63.0174C123.756 62.8853 123.511 62.6924 123.286 62.5048C123.041 62.312 122.801 62.0993 122.561 61.8867C122.008 61.4204 121.485 60.9199 120.981 60.4246C119.804 59.2823 118.706 58.0767 117.645 56.8171C115.205 53.8952 113.119 50.6862 111.428 47.2653C109.967 44.3301 108.797 41.2607 107.996 38.0783C107.848 37.445 107.694 36.8314 107.571 36.1837C107.516 35.9145 107.466 35.6256 107.431 35.3618C107.381 35.0728 107.368 34.9633 107.343 34.6599C107.291 34.222 107.259 33.7893 107.246 33.3619C107.249 33.1931 107.257 33.0045 107.26 32.8356C107.256 32.771 107.277 32.6919 107.273 32.6273C107.275 32.5428 107.289 32.5679 107.268 32.647C107.279 32.6075 107.289 32.5679 107.28 32.5231C107.292 32.3991 107.338 32.3055 107.37 32.1868C107.402 32.0682 107.299 32.2949 107.375 32.167C107.416 32.0932 107.452 32.0392 107.375 32.167C107.441 32.0787 107.406 32.1328 107.356 32.1617C107.461 32.0841 107.221 32.1893 107.336 32.1564C107.291 32.1656 107.212 32.1444 107.331 32.1762C107.415 32.1776 107.192 32.1391 107.271 32.1603C107.291 32.1656 107.331 32.1762 107.35 32.1815C107.37 32.1868 107.39 32.1921 107.41 32.1974C107.509 32.2239 107.37 32.1868 107.37 32.1868C107.424 32.2225 107.483 32.2384 107.538 32.2741C107.665 32.3507 107.773 32.4221 107.896 32.5185C107.95 32.5542 107.965 32.5793 107.896 32.5185C107.93 32.5489 107.965 32.5793 107.999 32.6097C108.087 32.6757 108.156 32.7365 108.224 32.7972C108.376 32.9438 108.527 33.0904 108.679 33.237C109.519 34.0558 110.269 34.9774 110.998 35.8936C111.981 37.132 112.913 38.3994 113.795 39.6957C116.109 43.0079 118.247 46.4214 120.279 49.9126C122.075 53.0223 123.795 56.1755 125.294 59.4392C125.802 60.5504 126.256 61.626 126.644 62.7898C126.771 63.1843 126.893 63.5987 126.996 64.0077C127.014 64.0974 127.038 64.1673 127.036 64.2517C127.046 64.2966 127.055 64.3414 127.049 64.3612C127.036 64.2517 127.04 64.3164 127.044 64.381C127.052 64.5103 127.06 64.6395 127.053 64.7437C127.048 64.7635 127.037 64.8031 127.052 64.8282C127.048 64.7635 127.083 64.7095 127.062 64.7886C127.052 64.8282 127.014 64.9666 127.046 64.8479C127.098 64.7346 127.046 64.8479 127.016 64.8822C127.041 64.8677 127.112 64.7596 127.052 64.8282C127.036 64.8875 127.197 64.7611 127.121 64.8045C126.559 65.1626 127.066 66.0403 127.628 65.6822C128.216 65.3097 128.13 64.5234 128.01 63.9403C127.843 62.9838 127.495 62.064 127.143 61.1641C125.919 58.059 124.365 55.0775 122.755 52.1447C120.702 48.4147 118.478 44.7663 116.104 41.2048C114.302 38.5171 112.435 35.8334 110.285 33.413C109.666 32.7172 109.022 32.0358 108.251 31.5112C107.804 31.2007 107.099 30.9057 106.648 31.3998C106.234 31.8399 106.201 32.5943 106.196 33.1654C106.185 34.1586 106.342 35.1547 106.504 36.1309C107.058 39.2049 108.061 42.1871 109.284 45.0587C110.833 48.6957 112.811 52.1513 115.181 55.3303C117.212 58.0367 119.479 60.5732 122.05 62.7672C122.946 63.5372 123.877 64.2532 124.855 64.8757C125.435 65.243 126.109 65.6567 126.802 65.7578C127.085 65.8122 127.363 65.802 127.614 65.6572C128.2 65.369 127.698 64.4715 127.121 64.8045Z" fill="#1C202C"/>
<path d="M124.781 63.9654C124.781 63.9654 112.893 64.6595 106.881 53.8694C100.802 42.9341 107.165 34.0609 107.165 34.0609L117.675 31.3866L132.362 55.058L124.781 63.9654Z" fill="url(#paint2_radial_1669_9778)"/>
<path d="M124.77 63.4535C124.382 63.4768 124.005 63.4605 123.628 63.4442C123.211 63.4173 122.774 63.3851 122.363 63.3385C122.239 63.3265 122.095 63.3091 121.971 63.2971C121.867 63.2904 121.971 63.2971 121.991 63.3024C121.951 63.2918 121.932 63.2865 121.887 63.2957C121.808 63.2745 121.743 63.2784 121.664 63.2572C121.376 63.2225 121.074 63.1628 120.792 63.1084C117.747 62.5257 114.901 61.3603 112.409 59.5054C109.02 56.9649 106.62 53.1844 105.476 49.1468C104.529 45.7981 104.552 42.3067 105.522 39.005C105.706 38.3972 105.91 37.7946 106.133 37.1974C106.149 37.1381 106.185 37.084 106.206 37.0049C106.206 37.0049 106.263 36.8718 106.222 36.9456C106.181 37.0194 106.238 36.8862 106.238 36.8862C106.295 36.7531 106.347 36.6397 106.403 36.5066C106.507 36.2798 106.61 36.0531 106.727 35.8514C106.989 35.3492 107.271 34.8522 107.567 34.3804C107.572 34.3606 107.597 34.3461 107.608 34.3066C107.502 34.3843 107.396 34.462 107.311 34.545C108.493 34.247 109.675 33.949 110.857 33.651C112.743 33.181 114.633 32.6913 116.519 32.2213C116.953 32.1045 117.382 32.0074 117.816 31.8905C117.623 31.8177 117.436 31.7252 117.244 31.6524C117.732 32.4404 118.22 33.2285 118.709 34.0165C119.879 35.8988 121.049 37.7811 122.2 39.6581C123.622 41.947 125.029 44.2108 126.451 46.4996C127.684 48.4625 128.893 50.4398 130.127 52.4026C130.523 53.06 130.944 53.7028 131.34 54.3602C131.534 54.6664 131.702 54.9871 131.901 55.2736C131.921 55.2789 131.916 55.2987 131.93 55.3238C131.963 55.1207 131.977 54.9123 132.01 54.7092C131.149 55.708 130.307 56.7121 129.446 57.7108C128.083 59.3171 126.72 60.9233 125.337 62.5243C125.028 62.8866 124.719 63.249 124.404 63.6311C124.222 63.8367 124.202 64.1492 124.402 64.3513C124.588 64.5283 124.94 64.559 125.122 64.3535C125.984 63.3547 126.825 62.3506 127.686 61.3518C129.049 59.7456 130.412 58.1393 131.795 56.5384C132.104 56.1761 132.414 55.8137 132.728 55.4316C132.88 55.2603 132.943 55.0229 132.808 54.817C132.319 54.029 131.831 53.2409 131.343 52.4529C130.172 50.5706 129.002 48.6883 127.851 46.8113C126.43 44.5224 125.022 42.2586 123.6 39.9698C122.367 38.0069 121.158 36.0296 119.925 34.0668C119.335 33.1032 118.765 32.1449 118.15 31.1958C118.136 31.1707 118.136 31.1707 118.121 31.1456C118.005 30.945 117.773 30.8616 117.549 30.9075C116.546 31.1688 115.549 31.4103 114.546 31.6716C112.795 32.114 111.019 32.5709 109.269 33.0133C108.675 33.1722 108.067 33.306 107.473 33.4649C107.179 33.5344 106.895 33.5644 106.711 33.8544C106.172 34.6003 105.77 35.4677 105.399 36.3009C104.602 38.165 104.078 40.1231 103.855 42.141C103.562 44.8182 103.863 47.57 104.699 50.147C105.671 53.1635 107.307 55.9973 109.489 58.299C111.261 60.1517 113.406 61.6381 115.758 62.6711C117.583 63.4567 119.491 64.0104 121.448 64.3016C122.508 64.4585 123.584 64.5561 124.653 64.5244C124.697 64.5152 124.757 64.5311 124.802 64.5219C125.439 64.4383 125.441 63.4002 124.77 63.4535Z" fill="#1C202C"/>
<path d="M88.5945 103.366C103.428 93.1796 117.555 78.6702 127.415 65.3706C122.214 62.4718 117 57.3227 112.921 50.6331C109.029 44.2695 107.29 37.5497 106.925 31.7918C90.6458 34.8707 71.0005 41.4145 55.378 50.3506C52.7752 51.8366 51.5394 55.0245 52.224 58.3242C53.3651 63.7176 55.9307 72.4182 61.586 81.6924C67.7824 91.8746 75.2344 98.8743 79.8991 102.668C82.6097 104.815 86.0718 105.106 88.5945 103.366Z" fill="url(#paint3_linear_1669_9778)"/>
<path d="M88.8407 103.792C94.8207 99.6707 100.466 95.057 105.8 90.1052C111.078 85.2022 116.072 80.0113 120.744 74.5219C123.217 71.623 125.582 68.6528 127.843 65.5915C128.006 65.3806 127.893 65.0112 127.671 64.8882C123.213 62.3794 119.445 58.7199 116.33 54.684C112.923 50.2309 110.3 45.2248 108.807 39.8005C108.091 37.1709 107.625 34.4809 107.442 31.7608C107.428 31.4179 107.123 31.2091 106.789 31.2681C102.634 32.0624 98.4948 33.0309 94.4085 34.1195C90.0478 35.2829 85.7238 36.6257 81.4669 38.1138C77.1203 39.6201 72.8301 41.3113 68.6071 43.1475C64.4738 44.9655 60.4023 46.9483 56.4466 49.1318C55.5491 49.6333 54.6173 50.1044 53.8554 50.8118C53.1489 51.4704 52.594 52.2757 52.2064 53.1682C51.3851 55.0468 51.4262 57.0293 51.8499 59.0083C52.5885 62.3437 53.5712 65.6384 54.7941 68.8279C56.4008 73.1166 58.402 77.2779 60.7345 81.2311C63.1593 85.315 65.9457 89.1567 69.0345 92.7401C71.495 95.5829 74.1218 98.2795 76.931 100.77C78.0958 101.803 79.2789 102.926 80.6061 103.748C82.3025 104.775 84.3213 105.231 86.2898 104.847C87.2014 104.688 88.0816 104.331 88.8407 103.792C89.3832 103.429 88.8817 102.531 88.3339 102.914C86.7815 103.961 84.8897 104.217 83.0899 103.735C81.4337 103.27 80.1503 102.205 78.8774 101.101C76.2579 98.8518 73.7653 96.4456 71.439 93.8932C68.4395 90.6092 65.6976 87.0763 63.2671 83.33C60.7301 79.428 58.535 75.2784 56.7594 70.9869C55.3851 67.6508 54.2311 64.2041 53.3463 60.7024C52.9459 59.1112 52.4717 57.479 52.6187 55.8225C52.774 53.9774 53.6638 52.1596 55.2018 51.0878C56.0612 50.4913 57.0378 50.011 57.9551 49.5148C58.9226 48.9897 59.8847 48.4844 60.8667 47.9843C62.8305 46.9842 64.8036 46.029 66.8109 45.1041C70.8955 43.2307 75.0564 41.5474 79.2843 40.0092C83.4621 38.5 87.6872 37.1306 91.9596 35.9011C96.0024 34.7373 100.112 33.7187 104.225 32.8491C105.192 32.6419 106.154 32.4544 107.115 32.267C106.905 32.1045 106.694 31.942 106.463 31.7742C106.788 36.9701 108.132 42.079 110.343 46.805C112.769 51.9916 116.249 56.8035 120.41 60.7378C122.453 62.6845 124.724 64.4165 127.194 65.7991C127.128 65.5695 127.068 65.3201 127.022 65.0959C122.941 70.5952 118.487 75.825 113.779 80.8171C108.808 86.0779 103.523 91.0852 97.9225 95.6897C94.8448 98.2357 91.6552 100.646 88.3537 102.92C87.7913 103.278 88.2928 104.175 88.8407 103.792Z" fill="#1C202C"/>
<path d="M97.0927 96.8877C89.6579 92.1185 81.9698 84.1016 75.7444 73.8692C69.7942 64.1133 66.2422 54.1096 65.1985 45.5836L68.6844 43.571C69.6794 52.0416 73.1735 61.9449 79.0658 71.6005C85.2332 81.7326 92.8634 89.6492 100.255 94.3432L97.0927 96.8877Z" fill="url(#paint4_linear_1669_9778)"/>
<path d="M97.3386 96.4447C94.302 94.4863 91.5045 92.1892 88.909 89.6919C85.942 86.8406 83.2378 83.7205 80.7699 80.4306C78.1177 76.8793 75.7177 73.0988 73.6331 69.1696C71.6537 65.4806 69.9502 61.6323 68.5911 57.6855C67.3792 54.1386 66.4075 50.4864 65.854 46.7767C65.7911 46.3783 65.7481 45.9852 65.705 45.592C65.6231 45.7397 65.5411 45.8873 65.4592 46.0349C66.6128 45.3689 67.7915 44.6884 68.9451 44.0223C68.6894 43.869 68.4284 43.7355 68.1727 43.5822C68.6022 47.2799 69.4499 50.92 70.5774 54.4656C71.8468 58.4307 73.4461 62.2723 75.3358 65.9796C77.3596 69.9773 79.7042 73.8066 82.3155 77.4317C84.7568 80.8205 87.4345 84.0395 90.3803 86.9699C93.0033 89.6018 95.8534 92.019 98.9427 94.0975C99.3012 94.3419 99.6452 94.5613 100.009 94.786C99.9737 94.5221 99.9384 94.2583 99.9084 93.9747C98.8363 94.8109 97.7841 95.6525 96.712 96.4888C96.4955 96.664 96.5241 97.032 96.7099 97.209C96.9299 97.4163 97.2135 97.3864 97.4301 97.2112C98.5021 96.3749 99.5543 95.5333 100.626 94.697C100.898 94.4731 100.776 94.0588 100.526 93.8857C97.4983 91.9722 94.7153 89.7001 92.1396 87.2081C89.2016 84.4069 86.5316 81.3173 84.0927 78.0775C81.4549 74.5513 79.0892 70.8011 77.0137 66.9168C75.0686 63.2582 73.3743 59.4548 72.035 55.5133C70.8323 52.0112 69.8948 48.3894 69.3703 44.7298C69.3074 44.3314 69.2644 43.9383 69.2213 43.5452C69.173 43.1719 68.8198 42.9076 68.4489 43.105C67.2953 43.7711 66.1166 44.4516 64.963 45.1176C64.8125 45.2045 64.6804 45.3811 64.7171 45.5605C65.1611 49.2833 66.0286 52.9288 67.1706 56.4994C68.4492 60.5094 70.0972 64.4064 72.0014 68.1388C74.045 72.1418 76.379 76.0106 79.0047 79.6608C81.475 83.0998 84.2015 86.3742 87.1907 89.3798C89.8282 92.0368 92.6928 94.4791 95.7966 96.5827C96.155 96.8271 96.499 97.0465 96.8575 97.2909C97.3873 97.6873 97.8988 96.8068 97.3386 96.4447Z" fill="#1C202C"/>
<path d="M133.021 58.3721C141.601 46.7645 146.317 36.2841 143.719 32.1327C141.05 27.8559 129.597 27.4795 115.436 30.1717C115.746 35.0247 117.549 40.638 120.817 46.0076C124.229 51.628 128.626 55.9438 133.021 58.3721Z" fill="url(#paint5_linear_1669_9778)"/>
<path d="M133.459 58.6377C136.483 54.5511 139.321 50.2875 141.598 45.7462C142.502 43.9534 143.313 42.1144 143.946 40.2276C144.428 38.7456 144.816 37.2174 144.917 35.6545C144.976 34.4833 144.858 33.2644 144.32 32.1874C143.791 31.1553 142.875 30.38 141.87 29.8564C140.596 29.1545 139.152 28.7676 137.721 28.4902C135.844 28.1358 133.929 28.0043 132.008 27.9769C127.087 27.909 122.159 28.4967 117.318 29.3192C116.63 29.4318 115.957 29.5695 115.29 29.6874C115.085 29.7386 114.898 29.964 114.924 30.1829C115.211 34.6481 116.588 39.0025 118.573 42.9896C120.706 47.2921 123.568 51.3238 127.074 54.6163C128.806 56.2249 130.703 57.6873 132.77 58.8347C133.341 59.1572 133.872 58.2821 133.282 57.9542C129.537 55.8697 126.369 52.8163 123.759 49.4247C120.896 45.7109 118.623 41.4557 117.238 36.972C116.555 34.775 116.087 32.4873 115.937 30.2C115.81 30.3568 115.678 30.5334 115.571 30.6955C120.459 29.7794 125.432 29.0981 130.416 29.0131C132.308 28.9903 134.284 29.0533 136.133 29.2732C137.65 29.4675 139.155 29.7859 140.57 30.3561C140.477 30.3098 140.684 30.4077 140.704 30.413C140.777 30.4539 140.837 30.4698 140.911 30.5108C141.044 30.5677 141.172 30.6444 141.324 30.7065C141.586 30.8401 141.841 30.9934 142.092 31.1665C142.146 31.2021 142.2 31.2378 142.248 31.2933C142.268 31.2986 142.317 31.354 142.229 31.288C142.243 31.3131 142.283 31.3237 142.297 31.3487C142.4 31.4399 142.503 31.531 142.605 31.6221C142.688 31.708 142.791 31.7991 142.874 31.8849C142.923 31.9404 142.957 31.9708 142.986 32.0209C143.001 32.046 143.02 32.0513 143.035 32.0764C143.132 32.1873 143.02 32.0513 143.069 32.1068C143.21 32.2929 143.326 32.4936 143.436 32.714C143.465 32.7641 143.494 32.8143 143.518 32.8842C143.561 32.9594 143.518 32.8842 143.504 32.8591C143.518 32.8842 143.527 32.9291 143.542 32.9541C143.594 33.0742 143.627 33.189 143.674 33.3289C143.755 33.5836 143.81 33.8527 143.845 34.1165C143.837 33.9873 143.844 34.201 143.858 34.226C143.862 34.2907 143.866 34.3553 143.884 34.445C143.887 34.5941 143.914 34.7286 143.897 34.8724C143.896 35.1903 143.896 35.5082 143.871 35.8405C143.853 35.9843 143.85 36.1531 143.833 36.2969C143.823 36.3364 143.832 36.3813 143.821 36.4208C143.823 36.3364 143.821 36.4208 143.816 36.4406C143.809 36.5448 143.783 36.6437 143.776 36.7479C143.659 37.5009 143.477 38.2578 143.261 38.9843C142.75 40.734 142.061 42.436 141.278 44.0918C139.218 48.4579 136.571 52.5608 133.758 56.492C133.356 57.0416 132.975 57.5964 132.559 58.1209C132.391 58.3515 132.514 58.6814 132.73 58.8241C133.031 58.9682 133.296 58.8485 133.459 58.6377Z" fill="#1C202C"/>
<path d="M102.55 69.2438C110.032 71.2488 117.723 66.8083 119.728 59.3257C121.733 51.8431 117.293 44.1519 109.81 42.1469C102.328 40.1419 94.6364 44.5825 92.6314 52.0651C90.6265 59.5477 95.067 67.2389 102.55 69.2438Z" fill="url(#paint6_linear_1669_9778)"/>
<path d="M110.814 42.9882C113.421 43.941 115.706 45.698 117.277 47.9844C118.833 50.2458 119.682 52.9323 119.696 55.6495C119.698 58.4906 118.796 61.3017 117.133 63.633C115.546 65.8365 113.267 67.5366 110.734 68.4476C108.11 69.377 105.257 69.5029 102.578 68.7426C99.8537 67.9914 97.4221 66.3859 95.6361 64.1903C93.9477 62.1055 92.8943 59.4702 92.701 56.7898C92.4854 53.9549 93.1695 51.0856 94.6457 48.6617C96.081 46.3116 98.2332 44.4505 100.755 43.3455C103.257 42.2353 106.093 41.9353 108.772 42.4621C109.446 42.5579 110.133 42.7632 110.814 42.9882C111.066 43.0769 111.372 42.8834 111.441 42.6262C111.515 42.3493 111.351 42.0933 111.079 41.9993C108.255 40.9882 105.148 40.8763 102.258 41.6919C99.4582 42.4892 96.9027 44.1151 95.0323 46.3486C93.0655 48.7047 91.8735 51.6499 91.668 54.7111C91.4548 57.643 92.1846 60.6156 93.6721 63.134C95.1938 65.6829 97.4838 67.738 100.19 68.9507C102.976 70.1847 106.079 70.5498 109.059 69.9493C111.925 69.3816 114.587 67.9114 116.629 65.8299C118.737 63.66 120.135 60.8126 120.578 57.815C121.005 54.8768 120.519 51.8636 119.198 49.1989C117.892 46.5593 115.754 44.3329 113.165 42.9185C112.501 42.5497 111.795 42.2547 111.085 41.9795C110.833 41.8908 110.527 42.0844 110.458 42.3415C110.373 42.6579 110.543 42.8942 110.814 42.9882Z" fill="#1C202C"/>
<path d="M116.106 60.546C118.751 55.0796 116.465 48.5038 110.998 45.8583C105.532 43.2129 98.9561 45.4997 96.3106 50.9661C93.6652 56.4324 95.952 63.0083 101.418 65.6537C106.885 68.2991 113.461 66.0123 116.106 60.546Z" fill="#232733"/>
<path d="M71.5623 101.028C72.7265 100.322 75.637 102.989 78.0829 106.994C80.5288 110.998 81.5623 114.816 80.3981 115.521C79.2339 116.227 75.7544 114.023 73.3084 110.018C70.8625 106.013 70.3981 101.733 71.5623 101.028Z" fill="#843C36"/>
<path d="M71.8283 101.46C71.8533 101.445 71.9483 101.407 71.8784 101.431C71.8085 101.454 71.8982 101.436 71.9233 101.421C71.9932 101.398 72.013 101.403 71.9233 101.421C71.9681 101.412 72.0077 101.423 72.0525 101.414C72.0921 101.424 72.1172 101.41 72.1567 101.42C72.0525 101.414 72.1172 101.41 72.1765 101.426C72.2556 101.447 72.3545 101.473 72.4336 101.495C72.5523 101.526 72.3994 101.464 72.493 101.51C72.5325 101.521 72.5668 101.551 72.6261 101.567C72.7197 101.614 72.8278 101.685 72.9214 101.731C73.1231 101.849 73.3537 102.017 73.5105 102.143C74.6134 103.011 75.5236 104.124 76.3492 105.236C77.3738 106.634 78.2821 108.149 79.0254 109.726C79.5912 110.938 80.1014 112.198 80.3174 113.528C80.3397 113.682 80.375 113.946 80.3813 114.16C80.3746 114.264 80.3732 114.349 80.3665 114.453C80.3559 114.492 80.3438 114.616 80.3756 114.498C80.3597 114.557 80.3689 114.602 80.353 114.661C80.3318 114.74 80.3106 114.819 80.2947 114.879C80.2894 114.898 80.341 114.785 80.2947 114.879C80.2644 114.913 80.2538 114.953 80.2234 114.987C80.2181 115.007 80.3092 114.904 80.2234 114.987C80.1983 115.001 80.1732 115.016 80.1626 115.055C80.2181 115.007 80.2379 115.012 80.1626 115.055C80.1072 115.104 80.0927 115.079 80.1626 115.055C80.0927 115.079 80.028 115.083 79.9581 115.106C80.028 115.083 80.0425 115.108 79.9581 115.106C79.9133 115.116 79.8737 115.105 79.8288 115.114C79.7893 115.104 79.7642 115.118 79.7247 115.108C79.6402 115.106 79.8236 115.134 79.7049 115.102C79.606 115.076 79.5216 115.074 79.4227 115.048C79.3238 115.021 79.2447 115 79.1511 114.954C79.1313 114.949 78.9981 114.892 79.0377 114.902C79.0575 114.908 78.9243 114.851 78.8848 114.84C78.658 114.737 78.4366 114.614 78.2402 114.477C77.1291 113.797 76.1713 112.862 75.3138 111.869C74.2811 110.66 73.4255 109.265 72.7545 107.813C72.1941 106.582 71.7446 105.253 71.5536 103.909C71.4869 103.446 71.4558 102.928 71.4986 102.452C71.5092 102.413 71.5053 102.348 71.5159 102.309C71.5227 102.204 71.5 102.368 71.5318 102.249C71.5583 102.15 71.5598 102.066 71.5863 101.967C71.6075 101.888 71.6287 101.809 71.6499 101.73C71.6711 101.651 71.6036 101.823 71.6552 101.71C71.6855 101.676 71.6961 101.636 71.7067 101.597C71.712 101.577 71.7424 101.543 71.7477 101.523C71.7477 101.523 71.6672 101.586 71.7477 101.523C71.7728 101.508 71.7979 101.494 71.8283 101.46C71.8389 101.42 71.7226 101.537 71.8283 101.46C72.3906 101.101 71.864 100.218 71.3215 100.582C70.5335 101.07 70.4504 102.171 70.4612 103.001C70.4979 104.368 70.847 105.754 71.3322 107.029C72.4774 110.113 74.4642 113.062 77.1488 114.99C77.9289 115.559 78.9465 116.192 79.9556 116.145C80.9449 116.092 81.3758 115.274 81.4059 114.371C81.4523 113.09 80.9777 111.776 80.5254 110.616C79.8389 108.906 78.9426 107.266 77.9157 105.719C76.9756 104.323 75.9404 102.964 74.6782 101.82C74.2329 101.425 73.7624 101.045 73.2457 100.758C72.8568 100.548 72.398 100.361 71.9654 100.394C71.7517 100.4 71.5419 100.471 71.3466 100.567C70.7447 100.915 71.2515 101.793 71.8283 101.46Z" fill="#1C202C"/>
<path d="M69.4517 119.902C72.7324 118.576 76.6743 116.919 80.3943 115.457C80.3943 115.457 76.281 114.906 73.1729 109.812C70.0648 104.718 71.5874 101.013 71.5874 101.013C68.5783 103.62 65.3236 106.352 62.8281 108.545C62.8281 108.545 61.6254 109.473 64.9651 114.968C68.2904 120.438 69.4517 119.902 69.4517 119.902Z" fill="url(#paint7_linear_1669_9778)"/>
<path d="M69.5976 120.386C73.2385 118.902 76.8702 117.374 80.5401 115.941C80.7552 115.85 80.9269 115.684 80.9061 115.445C80.8997 115.232 80.7549 114.981 80.5268 114.962C80.383 114.945 80.2446 114.908 80.1061 114.87C79.9479 114.828 79.7897 114.786 79.6367 114.724C79.5378 114.697 79.4442 114.651 79.3453 114.624C79.286 114.608 79.2517 114.578 79.1924 114.562C79.1726 114.557 79.1331 114.546 79.1133 114.541C79.054 114.525 79.1871 114.582 79.0935 114.536C77.8213 113.983 76.6972 113.194 75.7051 112.229C74.2836 110.809 73.1263 109.036 72.4229 107.152C71.9193 105.787 71.6599 104.382 71.7289 102.938C71.7462 102.794 71.7437 102.645 71.761 102.501C71.7716 102.462 71.789 102.318 71.7784 102.358C71.7625 102.417 71.7851 102.253 71.7904 102.234C71.8236 102.031 71.8568 101.827 71.9098 101.63C71.9522 101.471 71.9999 101.293 72.0674 101.121C72.1455 100.908 72.0007 100.658 71.8386 100.551C71.6369 100.433 71.3928 100.474 71.2265 100.62C68.8273 102.69 66.4137 104.736 64.0146 106.807C63.4957 107.24 62.9373 107.663 62.4671 108.151C62.4117 108.2 62.376 108.254 62.3403 108.308C62.1923 108.544 62.1326 108.846 62.0979 109.134C62.059 109.674 62.2035 110.243 62.3585 110.772C62.6738 111.811 63.1541 112.787 63.6792 113.755C64.3925 115.048 65.1561 116.313 66.0252 117.5C66.5493 118.234 67.0984 118.953 67.7638 119.555C68.2236 119.975 68.9141 120.563 69.5976 120.386C69.6226 120.371 69.6675 120.362 69.7177 120.333C69.9631 120.208 70.0335 119.867 69.9032 119.641C69.7584 119.39 69.4564 119.331 69.2109 119.456C69.236 119.441 69.3758 119.394 69.3059 119.417C69.2162 119.436 69.4602 119.395 69.3903 119.419C69.3705 119.413 69.3257 119.423 69.3059 119.417C69.2215 119.416 69.4641 119.46 69.3903 119.419C69.3705 119.413 69.3508 119.408 69.331 119.403C69.3112 119.398 69.1925 119.366 69.178 119.341C69.178 119.341 69.3257 119.423 69.1978 119.346C69.1583 119.335 69.124 119.305 69.1042 119.3C69.0304 119.259 68.9566 119.218 68.8683 119.152C68.8341 119.121 68.78 119.086 68.7457 119.055C68.8881 119.157 68.7115 119.025 68.697 119C68.1436 118.534 67.6615 117.959 67.2243 117.376C66.3933 116.284 65.668 115.114 64.9874 113.936C64.4228 112.958 63.8831 111.965 63.523 110.936C63.3994 110.606 63.2956 110.281 63.2366 109.948C63.2129 109.878 63.2091 109.813 63.2052 109.748C63.1907 109.723 63.2013 109.684 63.1868 109.659C63.1738 109.549 63.1999 109.768 63.1815 109.678C63.1685 109.569 63.1554 109.459 63.1621 109.355C63.1635 109.271 63.165 109.186 63.1664 109.102C63.1784 108.978 63.1452 109.181 63.1611 109.122C63.1717 109.082 63.1823 109.043 63.1876 109.023C63.1982 108.983 63.2339 108.929 63.2247 108.884C63.218 108.989 63.1533 108.992 63.2194 108.904C63.296 108.776 63.1138 108.982 63.2141 108.924C63.3144 108.866 63.4306 108.749 63.5218 108.646C63.774 108.417 64.0209 108.207 64.2731 107.978C66.8188 105.756 69.4132 103.589 71.9787 101.373C71.6834 101.209 71.408 101.05 71.118 100.866C70.9103 101.404 70.8357 101.999 70.7664 102.574C70.6381 104.002 70.8368 105.476 71.2757 106.844C71.917 108.882 73.0371 110.793 74.4756 112.387C75.5188 113.557 76.7931 114.576 78.2023 115.251C78.843 115.55 79.5628 115.87 80.2816 115.956C80.2872 115.619 80.2876 115.301 80.2735 114.958C76.6037 116.391 72.9719 117.919 69.331 119.403C69.071 119.503 68.8979 119.753 68.9728 120.028C69.0332 120.277 69.3376 120.486 69.5976 120.386Z" fill="#1C202C"/>
<path d="M83.5358 113.542C100.207 103.382 111.759 91.9142 109.333 87.9147C106.907 83.9152 91.4055 88.9194 74.7342 99.0796C74.7342 99.0796 74.1275 102.372 77.2356 107.466C80.3384 112.58 83.5358 113.542 83.5358 113.542Z" fill="url(#paint8_linear_1669_9778)"/>
<path d="M83.7964 113.994C87.8765 111.505 91.8354 108.834 95.6442 105.933C98.7137 103.576 101.711 101.093 104.419 98.3422C105.501 97.2329 106.548 96.0932 107.493 94.8624C108.204 93.9505 108.891 92.9686 109.405 91.9193C110.105 90.4956 110.673 88.6127 109.503 87.2818C109.001 86.7021 108.256 86.3965 107.539 86.2255C106.579 86.0107 105.561 86.0135 104.566 86.0861C101.641 86.3201 98.761 87.1806 96.0032 88.1375C92.1712 89.4638 88.4377 91.1345 84.8162 92.9411C82.7124 93.9885 80.6323 95.1059 78.6063 96.2589C77.5332 96.8617 76.4746 97.4896 75.4358 98.1228C75.1797 98.2874 74.9091 98.4269 74.653 98.5915C74.4775 98.6928 74.3468 98.785 74.2938 98.9828C74.2673 99.0817 74.2606 99.1859 74.2592 99.2703C74.1697 100.158 74.2834 101.079 74.4723 101.956C74.8433 103.815 75.6181 105.591 76.5592 107.221C77.5873 109.002 78.8304 110.692 80.3667 112.079C81.1546 112.777 82.0178 113.433 83.0039 113.866C83.1568 113.929 83.3242 114.016 83.4825 114.058C84.1101 114.248 84.3751 113.259 83.7474 113.069C83.7277 113.064 83.6881 113.053 83.6683 113.048C83.6288 113.037 83.609 113.032 83.5747 113.002C83.4956 112.981 83.5747 113.002 83.634 113.018C83.5945 113.007 83.5747 113.002 83.5405 112.971C83.2201 112.822 82.9249 112.658 82.6296 112.494C81.5383 111.82 80.6041 110.955 79.7269 109.957C78.4163 108.44 77.3381 106.688 76.5146 104.856C76.1791 104.13 75.9189 103.361 75.7035 102.583C75.6194 102.263 75.5407 101.924 75.4765 101.61C75.4267 101.321 75.3808 101.097 75.3547 100.878C75.3024 100.44 75.27 100.007 75.3022 99.5709C75.3142 99.447 75.3209 99.3428 75.3329 99.2188C75.3343 99.1344 75.3103 99.3823 75.3329 99.2188C75.2615 99.3269 75.1704 99.4297 75.0991 99.5377C78.1654 97.6671 81.3093 95.9021 84.5007 94.2769C87.3013 92.8439 90.1599 91.5111 93.0802 90.3433C95.4807 89.3754 97.939 88.5078 100.463 87.8698C101.466 87.6085 102.478 87.3921 103.494 87.2403C103.668 87.2234 103.827 87.1813 104.066 87.1605C104.285 87.1344 104.504 87.1083 104.718 87.1019C105.106 87.0787 105.513 87.0607 105.915 87.0625C106.084 87.0653 106.273 87.0735 106.442 87.0763C106.526 87.0777 106.611 87.0791 106.69 87.1003C106.729 87.1109 106.754 87.0965 106.794 87.1071C106.938 87.1244 106.754 87.0965 106.833 87.1177C107.141 87.1576 107.443 87.2173 107.734 87.3166C107.793 87.3325 107.853 87.3484 107.907 87.3841C107.946 87.3947 107.966 87.4 108 87.4304C108.114 87.4819 107.946 87.3947 108 87.4304C108.114 87.4819 108.227 87.5335 108.335 87.6049C108.389 87.6405 108.443 87.6762 108.497 87.7119C108.517 87.7172 108.532 87.7423 108.571 87.7529C108.659 87.8189 108.571 87.7529 108.571 87.7529C108.654 87.8387 108.742 87.9048 108.825 87.9906C108.86 88.021 108.889 88.0711 108.923 88.1015C108.825 87.9906 108.923 88.1015 108.966 88.1768C109.024 88.2771 109.062 88.3721 109.12 88.4724C109.033 88.3219 109.115 88.4922 109.144 88.5423C109.173 88.5925 109.177 88.6571 109.186 88.702C109.19 88.7666 109.219 88.8168 109.223 88.8814C109.246 88.9513 109.217 88.9012 109.208 88.8563C109.217 88.9012 109.212 88.921 109.221 88.9658C109.229 89.0951 109.237 89.2244 109.225 89.3483C109.229 89.413 109.213 89.4723 109.217 89.5369C109.206 89.5765 109.201 89.5963 109.21 89.6411C109.217 89.5369 109.226 89.5818 109.205 89.6609C109.145 89.9629 109.09 90.2451 108.991 90.5365C108.929 90.6894 108.887 90.8476 108.819 91.0203C108.803 91.0797 108.83 90.9808 108.83 90.9808C108.824 91.0006 108.819 91.0204 108.789 91.0546C108.778 91.0942 108.748 91.1284 108.737 91.168C108.691 91.2616 108.65 91.3354 108.604 91.429C108.424 91.7836 108.249 92.1184 108.03 92.4624C107.8 92.846 107.55 93.2242 107.286 93.5774C106.986 93.9846 106.747 94.3233 106.458 94.691C104.936 96.5727 103.223 98.2972 101.427 99.9359C99.1772 102.004 96.8205 103.916 94.3755 105.763C91.5582 107.891 88.654 109.869 85.6668 111.76C84.8986 112.254 84.1158 112.723 83.3529 113.197C82.7129 113.449 83.2196 114.327 83.7964 113.994Z" fill="#1C202C"/>
<g opacity="0.5">
<path d="M109.269 87.9186C107.002 84.7463 91.9801 89.3066 75.3339 99.4522C75.3339 99.4522 74.8435 101.441 76.8751 105.568C82.1708 100.203 94.58 89.1765 109.269 87.9186Z" fill="#BFBFEF"/>
</g>
<path d="M106.016 89.93C107.104 91.7264 106.453 94.3927 104.412 97.577C108.522 93.3149 110.464 89.7862 109.314 87.9092C108.163 86.0322 104.148 86.1435 98.4569 87.8409C102.218 87.4919 104.924 88.1533 106.016 89.93Z" fill="url(#paint9_linear_1669_9778)"/>
<path d="M105.565 90.1906C106.091 91.0736 106.103 92.1368 105.867 93.1759C105.529 94.6752 104.781 96.0434 103.97 97.3311C103.648 97.8175 104.369 98.371 104.779 97.9507C106.194 96.4646 107.567 94.9032 108.664 93.1832C109.393 92.0431 110.086 90.7236 110.159 89.344C110.211 88.277 109.736 87.2806 108.802 86.7334C107.691 86.0541 106.261 86.0102 105.013 86.0786C102.756 86.1946 100.512 86.738 98.3453 87.387C97.8162 87.542 97.8903 88.4522 98.4774 88.3975C99.9944 88.274 101.555 88.2258 103.044 88.6035C104.063 88.8342 105.033 89.3273 105.565 90.1906C105.903 90.7476 106.801 90.2462 106.443 89.6838C105.78 88.5949 104.639 87.9498 103.432 87.6265C101.836 87.1775 100.112 87.2031 98.4601 87.3541C98.4993 87.6826 98.5583 88.0164 98.5922 88.3647C100.434 87.8195 102.3 87.3442 104.215 87.1579C105.479 87.0302 106.786 86.9776 107.931 87.4539C107.837 87.4076 107.985 87.4895 108.004 87.4948C108.058 87.5305 108.098 87.5411 108.152 87.5768C108.265 87.6284 108.354 87.6944 108.442 87.7605C108.496 87.7962 108.373 87.6997 108.422 87.7552C108.437 87.7802 108.456 87.7856 108.471 87.8106C108.505 87.841 108.539 87.8714 108.574 87.9018C108.608 87.9321 108.637 87.9823 108.671 88.0127C108.686 88.0377 108.705 88.0431 108.72 88.0681C108.803 88.154 108.657 87.9876 108.734 88.0932C108.798 88.1737 108.836 88.2688 108.899 88.3493C108.913 88.3744 108.98 88.5195 108.928 88.3994C108.957 88.4496 108.961 88.5142 108.99 88.5644C109.028 88.6594 109.046 88.7491 109.059 88.8586C109.087 88.9932 109.065 88.8388 109.063 88.9233C109.067 88.9879 109.071 89.0525 109.069 89.137C109.083 89.2464 109.07 89.3704 109.064 89.4746C109.053 89.5142 109.05 89.683 109.062 89.559C109.046 89.6184 109.05 89.683 109.034 89.7423C108.98 90.0245 108.906 90.3014 108.812 90.573C108.613 91.1558 108.305 91.7516 107.958 92.3369C106.879 94.1466 105.457 95.7369 104.011 97.2573C104.275 97.4555 104.535 97.6734 104.82 97.8769C105.702 96.4811 106.513 94.96 106.863 93.3367C107.127 92.1143 107.074 90.8071 106.432 89.7234C106.11 89.107 105.227 89.6336 105.565 90.1906Z" fill="#1C202C"/>
<path d="M40.6367 51.4884C41.7865 50.7578 44.7524 53.3756 47.2485 57.3514C49.7499 61.3075 50.8533 65.101 49.7036 65.8317C48.5539 66.5623 44.8659 64.3446 42.3645 60.3886C39.8632 56.4325 39.487 52.2191 40.6367 51.4884Z" fill="#843C36"/>
<path d="M40.8974 51.9397C40.9225 51.9253 41.0228 51.8673 40.9476 51.9108C40.8723 51.9542 40.9674 51.9161 40.9924 51.9016C41.0624 51.8779 41.0822 51.8832 40.9924 51.9016C41.0373 51.8924 41.0768 51.903 41.1217 51.8938C41.1613 51.9044 41.1863 51.89 41.2259 51.9006C41.1217 51.8938 41.1863 51.89 41.2457 51.9059C41.3248 51.9271 41.4237 51.9536 41.5028 51.9748C41.5424 51.9854 41.6557 52.0369 41.5621 51.9907C41.6215 52.0066 41.6557 52.0369 41.7151 52.0528C41.8284 52.1044 41.922 52.1507 42.0103 52.2167C42.2318 52.3397 42.4426 52.5022 42.639 52.6396C43.7275 53.4824 44.6969 54.6113 45.5226 55.7229C46.5669 57.1263 47.4858 58.602 48.2542 60.1646C48.845 61.3617 49.3751 62.6273 49.5911 63.9571C49.6042 64.0666 49.6187 64.0917 49.6264 64.2209C49.6342 64.3502 49.6472 64.4597 49.655 64.589C49.6483 64.6932 49.6469 64.7776 49.6401 64.8818C49.6334 64.986 49.6401 64.8818 49.6348 64.9015C49.6242 64.9411 49.6083 65.0004 49.6175 65.0453C49.6016 65.1046 49.5288 65.2971 49.5857 65.164C49.5751 65.2035 49.5447 65.2378 49.5394 65.2576C49.5341 65.2773 49.443 65.3801 49.5038 65.3116C49.5645 65.2431 49.4985 65.3314 49.4787 65.3261C49.4232 65.3748 49.4232 65.3748 49.4787 65.3261C49.4536 65.3406 49.4088 65.3497 49.4035 65.3695C49.348 65.4183 49.4681 65.3656 49.4035 65.3695C49.3586 65.3787 49.1396 65.4048 49.3084 65.4076C49.224 65.4062 49.1594 65.4101 49.075 65.4087C49.0354 65.3981 49.0103 65.4126 48.9708 65.402C49.1145 65.4193 48.9708 65.402 48.9312 65.3914C48.8323 65.3649 48.7281 65.3582 48.6346 65.3119C48.5357 65.2854 48.4368 65.2589 48.3432 65.2126C48.3036 65.202 48.2443 65.1861 48.21 65.1557C48.1362 65.1147 48.2838 65.1967 48.1902 65.1504C48.1507 65.1398 48.1362 65.1147 48.0966 65.1041C47.8501 64.9957 47.6287 64.8728 47.3927 64.7247C46.2565 64.0599 45.2737 63.1394 44.3911 62.161C43.3136 60.9607 42.4275 59.5997 41.7619 58.1282C41.2106 56.9418 40.7756 55.6381 40.6083 54.3637C40.5522 53.8611 40.5158 53.3638 40.5441 52.8626C40.56 52.8033 40.5509 52.7584 40.5668 52.6991C40.5653 52.7835 40.5668 52.6991 40.5774 52.6595C40.6039 52.5606 40.6106 52.4564 40.6371 52.3575C40.6583 52.2784 40.6795 52.1993 40.7205 52.1255C40.6636 52.2587 40.7561 52.0715 40.7918 52.0174C40.8024 51.9779 40.8275 51.9634 40.8578 51.9291C40.8578 51.9291 40.7773 51.9924 40.8578 51.9291C40.867 51.974 40.8921 51.9595 40.8974 51.9397C40.9331 51.8857 40.7971 51.9977 40.8974 51.9397C41.44 51.5763 40.9332 50.6986 40.3907 51.062C39.6171 51.5755 39.4997 52.6464 39.5106 53.476C39.5275 54.8373 39.882 56.2042 40.3474 57.4736C41.5123 60.5628 43.5797 63.4487 46.3197 65.3276C47.1447 65.8878 48.1675 66.5011 49.1911 66.4785C49.5934 66.4803 49.9932 66.3331 50.2469 66.0195C50.5559 65.6571 50.658 65.1969 50.6757 64.7353C50.7168 63.4743 50.2422 62.1601 49.7648 61.0146C49.0585 59.299 48.1372 57.6742 47.0851 56.1416C46.1397 54.7647 45.0795 53.4207 43.812 52.2967C43.3469 51.8965 42.8619 51.491 42.3202 51.2186C41.9313 51.0084 41.4527 50.8166 40.995 50.8635C40.776 50.8897 40.5715 50.9409 40.3709 51.0567C39.8192 51.3752 40.3404 52.2781 40.8974 51.9397Z" fill="#1C202C"/>
<path d="M31.8574 59.3325C34.4995 56.9878 37.7305 54.1861 40.6962 51.5042C40.6962 51.5042 39.2884 55.1759 42.477 60.2065C45.6603 65.2568 49.7341 65.7972 49.7341 65.7972C46.0522 67.3545 42.1841 69.0527 39.0935 70.3021C39.0935 70.3021 37.7262 70.9745 34.2862 65.5374C30.8606 60.1253 31.8574 59.3325 31.8574 59.3325Z" fill="url(#paint10_linear_1669_9778)"/>
<path d="M32.2289 59.6864C35.1734 57.0836 38.1324 54.5058 41.0677 51.8581C40.7724 51.6942 40.497 51.5356 40.207 51.3519C40.0046 51.8701 39.9445 52.4899 39.9056 53.0307C39.8023 54.4445 40.0459 55.9089 40.5099 57.2628C41.196 59.2909 42.3465 61.1679 43.7903 62.7419C44.8586 63.8973 46.1382 64.8973 47.5474 65.5717C48.1881 65.8706 48.9079 66.1906 49.6266 66.2772C49.5822 65.9685 49.5377 65.6598 49.4985 65.3314C46.7021 66.5112 43.9202 67.716 41.1238 68.8958C40.5036 69.1536 39.9031 69.4167 39.2882 69.6547C39.238 69.6837 38.6284 69.9019 38.9781 69.7836C38.9583 69.7783 38.953 69.7981 38.9332 69.7928C38.8382 69.8309 39.102 69.7956 38.9781 69.7836C38.9385 69.773 38.8936 69.7822 38.8739 69.7769C38.7894 69.7755 39.0321 69.8193 38.9332 69.7928C38.9134 69.7875 38.8739 69.7769 38.8541 69.7716C38.7947 69.7557 38.7156 69.7345 38.6563 69.7186C38.5376 69.6868 38.7841 69.7952 38.6563 69.7186C38.6167 69.708 38.5825 69.6776 38.5231 69.6617C38.4295 69.6154 38.3412 69.5494 38.2476 69.5031C38.1936 69.4674 38.1396 69.4317 38.0855 69.3961C38.0513 69.3657 38.0315 69.3604 37.9972 69.33C38.1198 69.4264 38.017 69.3353 37.9972 69.33C37.8747 69.2336 37.7574 69.1174 37.6349 69.0209C36.9208 68.3632 36.3229 67.5882 35.7645 66.8239C34.9297 65.6674 34.1806 64.428 33.4962 63.1846C33.0527 62.3874 32.6974 61.6563 32.4531 60.8276C32.4058 60.6878 32.3637 60.5281 32.3362 60.3935C32.3323 60.3289 32.3034 60.2788 32.2995 60.2141C32.285 60.189 32.2903 60.1693 32.2811 60.1244C32.2536 59.9898 32.2797 60.2088 32.2811 60.1244C32.2825 60.04 32.2642 59.9503 32.2656 59.8659C32.2564 59.821 32.267 59.7814 32.2776 59.7419C32.2699 59.6126 32.2829 59.7221 32.2723 59.7617C32.2829 59.7221 32.2988 59.6628 32.3094 59.6232C32.3465 59.4848 32.2328 59.7511 32.3041 59.643C32.3108 59.5388 32.1484 59.7496 32.2289 59.6864C32.4454 59.5113 32.4168 59.1432 32.2311 58.9663C32.0111 58.7589 31.7274 58.7889 31.5109 58.9641C31.0778 59.3144 31.2127 60.1561 31.3045 60.6047C31.4658 61.3475 31.7815 62.068 32.1078 62.749C32.7078 63.9909 33.4226 65.2 34.1928 66.3603C34.8709 67.39 35.5938 68.4104 36.4329 69.3136C36.8769 69.793 37.3854 70.2684 37.9615 70.5712C38.2567 70.7351 38.6021 70.87 38.9451 70.8559C39.0295 70.8573 39.1192 70.839 39.209 70.8206C39.234 70.8061 39.399 70.7444 39.3291 70.768C39.5389 70.697 39.944 70.53 40.2093 70.4103C43.0954 69.2121 45.9776 67.9493 48.869 66.7314C49.2293 66.5735 49.6093 66.421 49.9696 66.2631C50.355 66.0908 50.2674 65.389 49.8415 65.3173C49.6977 65.2999 49.5593 65.2628 49.4208 65.2257C49.2626 65.1833 49.1044 65.141 48.9514 65.0788C48.8525 65.0523 48.7589 65.006 48.66 64.9795C48.6007 64.9636 48.5664 64.9332 48.5071 64.9173C48.4873 64.912 48.2948 64.8392 48.4135 64.871C47.136 64.3379 45.9921 63.5439 45.0198 62.5838C43.5732 61.1786 42.4106 59.4256 41.6624 57.5504C41.1337 56.2004 40.8241 54.8243 40.8733 53.3748C40.8776 53.1215 40.9069 52.8538 40.9363 52.5861C40.9189 52.7298 40.9469 52.5465 40.9575 52.507C40.9681 52.4674 40.984 52.4081 40.9748 52.3632C40.996 52.2841 41.0027 52.1799 41.0239 52.1008C41.0663 51.9426 41.0942 51.7592 41.1564 51.6063C41.3535 51.108 40.6535 50.7932 40.2957 51.1001C37.3854 53.7333 34.4067 56.3058 31.4569 58.9284C31.0118 59.4027 31.7298 60.1251 32.2289 59.6864Z" fill="#1C202C"/>
<path d="M43.789 49.5348C60.3009 39.0987 75.7027 33.8346 78.2041 37.7906C80.7055 41.7467 69.3586 53.3971 52.8466 63.8331C52.8466 63.8331 49.6188 62.9046 46.4302 57.8741C43.2416 52.8435 43.789 49.5348 43.789 49.5348Z" fill="url(#paint11_linear_1669_9778)"/>
<path d="M44.0496 49.9861C47.0869 48.0653 50.1769 46.2646 53.3445 44.5695C56.1611 43.0771 59.0105 41.6995 61.927 40.4671C64.2931 39.4688 66.6922 38.5853 69.1621 37.9116C70.1451 37.645 71.1624 37.4088 72.1835 37.2372C72.293 37.2242 72.4078 37.1913 72.537 37.1836C72.5819 37.1744 72.6268 37.1652 72.6914 37.1613C72.8009 37.1483 72.7363 37.1522 72.7112 37.1667C72.7363 37.1522 72.7758 37.1628 72.8009 37.1483C73.0199 37.1222 73.2389 37.096 73.4578 37.0699C73.851 37.0269 74.2586 37.0089 74.6609 37.0107C74.9985 37.0164 75.3559 37.0274 75.683 37.0726C75.807 37.0846 75.6039 37.0514 75.7028 37.0779C75.7424 37.0885 75.7621 37.0938 75.807 37.0846C75.8861 37.1058 75.9705 37.1072 76.0496 37.1284C76.1881 37.1655 76.3318 37.1828 76.4848 37.245C76.6034 37.2768 76.7366 37.3337 76.8553 37.3655C76.6825 37.298 76.8948 37.3761 76.9291 37.4065C76.9831 37.4422 77.0425 37.4581 77.0965 37.4937C77.2099 37.5453 77.2929 37.6311 77.4009 37.7025C77.2731 37.6258 77.4009 37.7025 77.4352 37.7329C77.4892 37.7686 77.5182 37.8187 77.5722 37.8544C77.6065 37.8848 77.6354 37.9349 77.6697 37.9653C77.7329 38.0458 77.6065 37.8848 77.6552 37.9402C77.6697 37.9653 77.6842 37.9904 77.7184 38.0208C77.7763 38.1211 77.8343 38.2214 77.8922 38.3217C77.9356 38.3969 77.8593 38.2069 77.8777 38.2966C77.8922 38.3217 77.9067 38.3468 77.9014 38.3666C77.9303 38.4167 77.9342 38.4814 77.9632 38.5315C77.967 38.5961 77.996 38.6463 77.9999 38.7109C78.0143 38.736 78.0091 38.7558 78.0235 38.7809C78.0288 38.7611 78.0105 38.6714 78.0235 38.7809C78.0313 38.9102 78.039 39.0394 78.0468 39.1687C78.0507 39.2333 78.0348 39.2927 78.0387 39.3573C78.0281 39.3969 78.0426 39.4219 78.032 39.4615C78.0252 39.5657 78.0214 39.5011 78.0267 39.4813C77.9722 39.7635 77.9125 40.0655 77.8383 40.3424C77.7959 40.5006 77.7338 40.6535 77.6663 40.8262C77.6557 40.8658 77.6253 40.9 77.6147 40.9396C77.6094 40.9594 77.6557 40.8658 77.6094 40.9594C77.5631 41.053 77.5419 41.1321 77.4956 41.2257C77.3356 41.5856 77.1413 41.9151 76.9417 42.2644C76.4712 43.0711 75.9215 43.8565 75.3429 44.5919C75.084 44.9253 74.7036 45.3957 74.3694 45.7725C73.9943 46.2232 73.5994 46.6685 73.19 47.0888C72.2998 48.0374 71.3952 48.961 70.4365 49.8488C68.2207 51.9474 65.893 53.9099 63.4822 55.7866C60.6992 57.9451 57.8186 59.9927 54.8604 61.9347C54.0922 62.4284 53.3239 62.9221 52.5556 63.4159C52.6849 63.4081 52.8195 63.3806 52.9487 63.3728C52.9092 63.3622 52.8894 63.3569 52.8498 63.3463C52.8103 63.3357 52.7905 63.3304 52.751 63.3198C52.7312 63.3145 52.7114 63.3092 52.6916 63.3039C52.5783 63.2523 52.7457 63.3396 52.7114 63.3092C52.4108 63.1651 52.0905 63.0156 51.8005 62.832C50.6841 62.1724 49.7645 61.3324 48.8621 60.3487C47.5067 58.8408 46.3836 57.0983 45.5206 55.256C45.1851 54.5301 44.8998 53.7753 44.6791 53.0166C44.5951 52.6973 44.5057 52.3978 44.4468 52.064C44.4192 51.9294 44.397 51.7751 44.3748 51.6207C44.3709 51.5561 44.3472 51.4861 44.3433 51.4215C44.3289 51.3964 44.3395 51.3569 44.325 51.3318C44.3289 51.3964 44.3197 51.3516 44.3105 51.3067C44.253 50.8885 44.2205 50.4558 44.2329 50.014C44.2449 49.89 44.2516 49.7858 44.2637 49.6619C44.2665 49.493 44.2372 49.7608 44.2637 49.6619C44.3128 49.3994 44.1786 49.1091 43.9017 49.0349C43.6643 48.9713 43.3291 49.1147 43.2747 49.3969C43.1804 49.9864 43.21 50.5879 43.2898 51.1604C43.4765 52.7579 43.9917 54.3163 44.6626 55.768C45.6072 57.7806 46.8765 59.6894 48.394 61.3044C49.3359 62.2988 50.4085 63.2009 51.6094 63.8619C51.9046 64.0258 52.225 64.1752 52.5361 64.2798C52.5757 64.2904 52.6297 64.3261 52.6746 64.3169C52.9317 64.3858 53.1232 64.2251 53.3238 64.1093C53.605 63.9302 53.8861 63.7512 54.1726 63.5523C56.2212 62.2358 58.2159 60.8835 60.1869 59.4614C63.6813 56.9423 67.0638 54.2872 70.2421 51.3655C72.6282 49.1854 74.9274 46.8548 76.7996 44.219C77.4457 43.311 78.0377 42.3673 78.4623 41.3363C78.7983 40.5572 79.071 39.6975 78.9864 38.8269C78.9292 38.0908 78.628 37.3953 78.0746 36.929C77.4724 36.4073 76.6918 36.1558 75.9137 36.0533C74.8732 35.9017 73.8193 35.9584 72.7639 36.0996C71.3998 36.2853 70.0488 36.5805 68.7214 36.9456C65.2381 37.9201 61.8822 39.2892 58.6185 40.7889C54.4838 42.6913 50.4687 44.8589 46.5551 47.202C45.5216 47.8154 44.5025 48.4539 43.4835 49.0924C42.9858 49.4466 43.4873 50.3442 44.0496 49.9861Z" fill="#1C202C"/>
<g opacity="0.5">
<path d="M77.9625 37.9802C79.92 41.1969 69.3251 52.7309 52.7485 63.1708C52.7485 63.1708 50.2225 62.1547 47.8627 58.9362C55.0449 56.5785 70.3248 50.5821 77.9625 37.9802Z" fill="#BFBFEF"/>
</g>
<path d="M74.9357 39.8615C73.818 38.0993 71.1213 37.4827 67.3643 37.8963C73.0171 36.104 77.0284 35.9281 78.2041 37.7906C79.3797 39.6531 77.4972 43.1977 73.4506 47.5403C75.4316 44.3401 76.0481 41.6435 74.9357 39.8615Z" fill="url(#paint12_linear_1669_9778)"/>
<path d="M75.3621 39.6153C73.7111 37.0743 70.0099 37.1213 67.3478 37.4043C67.3869 37.7328 67.4459 38.0666 67.4798 38.4148C69.3073 37.8446 71.1835 37.3298 73.0845 37.1184C73.8061 37.0361 74.5171 36.9935 75.2464 37.0405C75.7674 37.0741 76.2778 37.1473 76.8157 37.355C76.8355 37.3603 76.9093 37.4013 76.8157 37.355C76.8355 37.3603 76.875 37.3709 76.8895 37.396C76.9435 37.4316 76.9831 37.4422 77.0371 37.4779C77.1505 37.5295 77.2388 37.5955 77.3271 37.6616C77.4351 37.733 77.2981 37.6114 77.3811 37.6973C77.4154 37.7277 77.4496 37.758 77.4839 37.7884C77.5181 37.8188 77.5524 37.8492 77.5813 37.8993C77.6156 37.9297 77.7276 38.0657 77.6499 37.9601C77.7131 38.0406 77.7565 38.1159 77.8144 38.2162C77.8434 38.2663 77.8526 38.3112 77.8815 38.3613C77.8236 38.261 77.8907 38.4062 77.9052 38.4313C77.9433 38.5263 77.9617 38.616 77.98 38.7057C77.9892 38.7506 77.997 38.8798 77.9839 38.7704C77.9878 38.835 77.9917 38.8996 77.9956 38.9643C78.0086 39.0738 77.9966 39.1977 77.9899 39.3019C77.9938 39.3666 77.9779 39.4259 77.9817 39.4905C77.9817 39.4905 77.9803 39.5749 77.9764 39.5103C77.9923 39.451 77.9605 39.5696 77.9552 39.5894C77.9008 39.8716 77.8266 40.1485 77.7524 40.4254C77.5433 41.0478 77.2656 41.6093 76.918 42.1945C75.854 44.0293 74.4856 45.6554 73.0592 47.1811C73.3241 47.3792 73.5837 47.5972 73.8684 47.8006C74.7313 46.3996 75.5219 44.8731 75.8325 43.2392C76.1018 41.997 76.0493 40.6898 75.3621 39.6153C75.0237 39.0583 74.1262 39.5598 74.4843 40.1221C75.0306 41.0105 75.0676 42.0591 74.8514 43.1035C74.533 44.6081 73.8046 45.9817 73.013 47.2747C72.7116 47.7663 73.4074 48.3343 73.8221 47.8942C75.2181 46.4028 76.5561 44.811 77.6385 43.066C78.3535 41.9008 79.0264 40.576 79.0795 39.1911C79.1125 38.1188 78.6124 37.1369 77.6726 36.6094C76.5509 35.9697 75.1211 35.9258 73.868 36.014C71.6004 36.1695 69.3904 36.7433 67.233 37.4372C66.9981 37.5226 66.8303 37.7532 66.8709 37.9973C66.9168 38.2216 67.1262 38.4685 67.3703 38.4279C68.8781 38.2595 70.4439 38.1915 71.9379 38.5494C72.497 38.6781 73.0006 38.8554 73.4869 39.1765C73.8903 39.4118 74.242 39.7604 74.479 40.1419C74.8424 40.6844 75.7255 40.1579 75.3621 39.6153Z" fill="#1C202C"/>
<path d="M106.854 51.9119C108.58 52.3744 110.281 51.6247 110.653 50.2374C111.024 48.8501 109.927 47.3506 108.201 46.8881C106.475 46.4257 104.774 47.1754 104.402 48.5627C104.031 49.95 105.129 51.4495 106.854 51.9119Z" fill="white"/>
<defs>
<linearGradient id="paint0_linear_1669_9778" x1="66.8777" y1="121.778" x2="43.4831" y2="117.981" gradientUnits="userSpaceOnUse">
<stop stop-color="#FFE266"/>
<stop offset="0.7834" stop-color="#FF8661"/>
</linearGradient>
<linearGradient id="paint1_linear_1669_9778" x1="36.0776" y1="72.166" x2="12.6829" y2="68.3688" gradientUnits="userSpaceOnUse">
<stop stop-color="#FFE266"/>
<stop offset="0.7834" stop-color="#FF8661"/>
</linearGradient>
<radialGradient id="paint2_radial_1669_9778" cx="0" cy="0" r="1" gradientUnits="userSpaceOnUse" gradientTransform="translate(105.629 54.6596) rotate(-30.9537) scale(21.8997 93156.9)">
<stop offset="0.0432696" stop-color="#CFCEEE"/>
<stop offset="0.1099" stop-color="#D7D7F1"/>
<stop offset="0.3226" stop-color="#EDEDF9"/>
<stop offset="0.5255" stop-color="#FAFAFD"/>
<stop offset="0.7066" stop-color="white"/>
</radialGradient>
<linearGradient id="paint3_linear_1669_9778" x1="62.3767" y1="82.5729" x2="113.835" y2="52.0141" gradientUnits="userSpaceOnUse">
<stop stop-color="#CFCEEE"/>
<stop offset="0.0463579" stop-color="#D7D6F1"/>
<stop offset="0.1818" stop-color="#E9E8F7"/>
<stop offset="0.3432" stop-color="#F6F5FC"/>
<stop offset="0.5541" stop-color="#FDFDFE"/>
<stop offset="1" stop-color="white"/>
</linearGradient>
<linearGradient id="paint4_linear_1669_9778" x1="79.3645" y1="72.3433" x2="77.1967" y2="73.6915" gradientUnits="userSpaceOnUse">
<stop offset="2.03451e-08" stop-color="#FF9774"/>
<stop offset="0.3508" stop-color="#FF9272"/>
<stop offset="0.7449" stop-color="#FF856C"/>
<stop offset="1" stop-color="#FF7867"/>
</linearGradient>
<linearGradient id="paint5_linear_1669_9778" x1="144.451" y1="31.7542" x2="120.738" y2="46.4327" gradientUnits="userSpaceOnUse">
<stop offset="2.03451e-08" stop-color="#FF9774"/>
<stop offset="0.3508" stop-color="#FF9272"/>
<stop offset="0.7449" stop-color="#FF856C"/>
<stop offset="1" stop-color="#FF7867"/>
</linearGradient>
<linearGradient id="paint6_linear_1669_9778" x1="114.546" y1="66.8832" x2="96.6084" y2="42.8964" gradientUnits="userSpaceOnUse">
<stop offset="2.03451e-08" stop-color="#FF9774"/>
<stop offset="0.3508" stop-color="#FF9272"/>
<stop offset="0.7449" stop-color="#FF856C"/>
<stop offset="1" stop-color="#FF7867"/>
</linearGradient>
<linearGradient id="paint7_linear_1669_9778" x1="66.0738" y1="104.374" x2="74.8777" y2="118.819" gradientUnits="userSpaceOnUse">
<stop offset="2.03451e-08" stop-color="#FF9774"/>
<stop offset="0.3508" stop-color="#FF9272"/>
<stop offset="0.7449" stop-color="#FF856C"/>
<stop offset="1" stop-color="#FF7867"/>
</linearGradient>
<linearGradient id="paint8_linear_1669_9778" x1="88.8774" y1="90.4596" x2="97.6887" y2="104.917" gradientUnits="userSpaceOnUse">
<stop stop-color="#CFCEEE"/>
<stop offset="0.0463579" stop-color="#D7D6F1"/>
<stop offset="0.1818" stop-color="#E9E8F7"/>
<stop offset="0.3432" stop-color="#F6F5FC"/>
<stop offset="0.5541" stop-color="#FDFDFE"/>
<stop offset="1" stop-color="white"/>
</linearGradient>
<linearGradient id="paint9_linear_1669_9778" x1="102.4" y1="85.4377" x2="108.34" y2="95.1835" gradientUnits="userSpaceOnUse">
<stop offset="2.03451e-08" stop-color="#FF9774"/>
<stop offset="0.3508" stop-color="#FF9272"/>
<stop offset="0.7449" stop-color="#FF856C"/>
<stop offset="1" stop-color="#FF7867"/>
</linearGradient>
<linearGradient id="paint10_linear_1669_9778" x1="44.274" y1="69.2487" x2="35.2382" y2="54.9543" gradientUnits="userSpaceOnUse">
<stop offset="2.03451e-08" stop-color="#FF9774"/>
<stop offset="0.3508" stop-color="#FF9272"/>
<stop offset="0.7449" stop-color="#FF856C"/>
<stop offset="1" stop-color="#FF7867"/>
</linearGradient>
<linearGradient id="paint11_linear_1669_9778" x1="66.8401" y1="54.9876" x2="57.7963" y2="40.6805" gradientUnits="userSpaceOnUse">
<stop stop-color="#CFCEEE"/>
<stop offset="0.0463579" stop-color="#D7D6F1"/>
<stop offset="0.1818" stop-color="#E9E8F7"/>
<stop offset="0.3432" stop-color="#F6F5FC"/>
<stop offset="0.5541" stop-color="#FDFDFE"/>
<stop offset="1" stop-color="white"/>
</linearGradient>
<linearGradient id="paint12_linear_1669_9778" x1="77.3505" y1="45.0751" x2="71.2572" y2="35.4356" gradientUnits="userSpaceOnUse">
<stop offset="2.03451e-08" stop-color="#FF9774"/>
<stop offset="0.3508" stop-color="#FF9272"/>
<stop offset="0.7449" stop-color="#FF856C"/>
<stop offset="1" stop-color="#FF7867"/>
</linearGradient>
</defs>
</svg>
