<svg width="200" height="68" viewBox="0 0 200 68" fill="none" xmlns="http://www.w3.org/2000/svg">
<g clip-path="url(#clip0_596_6570)">
<rect width="200" height="68" rx="34" fill="#29BAAC"/>
<path d="M135.165 46.0896C147.827 54.8457 165.265 51.791 174.119 39.2651C175.653 37.0938 176.828 34.7815 177.655 32.3945C178.017 31.3567 178.313 30.3045 178.543 29.2447C180.761 19.0482 177.008 8.09348 168.182 1.43081C167.869 1.1909 167.547 0.958679 167.22 0.731968C166.269 0.0749474 165.291 -0.516045 164.293 -1.0388C160.824 -2.8657 157.095 -3.898 153.349 -4.18194C153.107 -4.20065 152.864 -4.21495 152.622 -4.22816C148.627 -4.42846 144.627 -3.77694 140.91 -2.32643C135.973 -0.402691 131.535 2.93084 128.267 7.55531C126.463 10.1075 125.156 12.8544 124.324 15.6883C121.071 26.7586 125.083 39.1166 135.165 46.0896Z" fill="url(#paint0_linear_596_6570)"/>
<path d="M162.405 11.7762C165.225 11.7762 167.283 10.4222 167.169 8.48772C167.042 6.30945 164.208 4.22011 160.84 3.82137C160.463 3.77738 160.096 3.75539 159.74 3.75539C156.919 3.75539 154.86 5.1094 154.974 7.04383C155.103 9.2221 157.937 11.3114 161.304 11.7092C161.681 11.7542 162.049 11.7762 162.405 11.7762Z" fill="#E06C57"/>
<path d="M161.268 11.5077C164.189 11.9526 166.367 11.174 166.132 9.76958C165.898 8.36513 163.338 6.86642 160.417 6.42152C157.495 5.97757 155.318 6.75614 155.554 8.16059C155.788 9.56504 158.347 11.0638 161.268 11.5077Z" fill="#F78971"/>
<path d="M156.179 4.36907C155.924 4.50766 155.682 4.6797 155.463 4.88328C155.355 4.98746 155.252 5.09833 155.159 5.21875C155.066 5.34014 154.981 5.46821 154.906 5.60298C154.833 5.7387 154.771 5.88207 154.721 6.02926L154.685 6.14108C154.675 6.17835 154.667 6.21659 154.657 6.25482L154.63 6.36856C154.622 6.40679 154.618 6.44597 154.611 6.48421C154.563 6.79388 154.568 7.11024 154.619 7.41704C154.67 7.72289 154.764 8.01822 154.887 8.29635C155.011 8.57448 155.163 8.83637 155.334 9.082C155.506 9.32859 155.7 9.55416 155.903 9.7673C156.004 9.87626 156.111 9.97661 156.22 10.0779L156.385 10.2232C156.44 10.2719 156.498 10.3169 156.555 10.3637C156.783 10.5472 157.019 10.7212 157.267 10.876C157.389 10.9572 157.515 11.028 157.64 11.1035C157.768 11.1732 157.894 11.2468 158.024 11.3109C158.542 11.5775 159.085 11.7897 159.641 11.9618C159.779 12.0038 159.92 12.0411 160.06 12.0793C160.201 12.1128 160.341 12.151 160.484 12.1787C160.768 12.2428 161.056 12.2877 161.345 12.3269C161.925 12.3947 162.512 12.4224 163.102 12.3785C163.691 12.3374 164.283 12.237 164.858 12.0497C165.432 11.8585 165.997 11.5881 166.489 11.179C166.734 10.9764 166.959 10.7384 167.146 10.4679C167.331 10.1964 167.475 9.89154 167.563 9.57231C167.651 9.25309 167.685 8.92048 167.662 8.59647C167.642 8.27246 167.569 7.95801 167.461 7.66459C167.353 7.37117 167.209 7.09782 167.044 6.84454C167.002 6.78241 166.962 6.71837 166.918 6.65816L166.783 6.47848L166.64 6.30739C166.592 6.25004 166.54 6.19747 166.491 6.14204C166.289 5.92795 166.074 5.72819 165.848 5.54563C165.621 5.36499 165.387 5.19678 165.144 5.0429C164.9 4.89188 164.65 4.75234 164.394 4.62617C164.137 4.50288 163.878 4.38628 163.612 4.28975C163.082 4.08903 162.536 3.94375 161.985 3.84435C161.887 3.82715 161.795 3.89119 161.777 3.98676C161.761 4.07278 161.812 4.15498 161.892 4.18365L161.896 4.18556C162.151 4.27636 162.405 4.36429 162.651 4.4723C162.776 4.522 162.898 4.57839 163.019 4.63287C163.08 4.66058 163.14 4.69021 163.2 4.71889C163.26 4.74756 163.32 4.77719 163.379 4.80873L163.556 4.90144L163.729 4.99797L163.816 5.04671L163.901 5.09738C163.957 5.13179 164.014 5.16524 164.07 5.2006C164.293 5.34206 164.509 5.48925 164.717 5.64695C164.923 5.80752 165.122 5.97382 165.308 6.15064C165.493 6.32937 165.667 6.51575 165.825 6.71073C166.141 7.10164 166.39 7.53269 166.525 7.97617C166.592 8.19695 166.629 8.42061 166.631 8.63948C166.633 8.85835 166.602 9.07149 166.536 9.27507C166.405 9.68032 166.134 10.034 165.774 10.314C165.412 10.594 164.97 10.8024 164.501 10.9477C164.029 11.0882 163.531 11.1752 163.023 11.2048C162.517 11.2354 162.002 11.2172 161.491 11.157C160.981 11.092 160.471 10.9964 159.974 10.8521C159.85 10.8148 159.726 10.7804 159.603 10.7393C159.479 10.7011 159.359 10.6562 159.237 10.6122C158.996 10.5214 158.758 10.423 158.526 10.313C158.408 10.2614 158.295 10.2003 158.179 10.1439C158.067 10.0818 157.953 10.0234 157.844 9.95654C157.622 9.82846 157.408 9.68893 157.203 9.53982C156.997 9.39072 156.801 9.23015 156.617 9.06002C156.433 8.88989 156.259 8.70925 156.105 8.51714C155.95 8.32503 155.812 8.12336 155.698 7.91118C155.583 7.70091 155.492 7.48012 155.434 7.25361C155.374 7.02709 155.347 6.79579 155.36 6.56545L155.364 6.47848L155.375 6.39246C155.379 6.36283 155.382 6.33415 155.387 6.30547L155.404 6.21945C155.43 6.10667 155.463 5.99389 155.506 5.88302C155.55 5.77406 155.603 5.66606 155.664 5.56188C155.727 5.4577 155.798 5.3583 155.876 5.26273C155.952 5.16524 156.039 5.07348 156.13 4.98555C156.221 4.89762 156.319 4.81542 156.42 4.73418L156.424 4.73131C156.52 4.6558 156.534 4.51722 156.458 4.42356C156.39 4.33945 156.272 4.31842 156.179 4.36907Z" fill="#1B1F2C"/>
<path d="M159.069 13.6226C159.27 13.7853 159.488 13.9268 159.716 14.0527C159.944 14.1796 160.183 14.288 160.428 14.3818C160.92 14.5692 161.438 14.6878 161.962 14.7475C162.487 14.8091 163.017 14.8064 163.543 14.7549C164.067 14.6979 164.587 14.5913 165.09 14.4305C165.593 14.2705 166.081 14.061 166.541 13.7972C166.656 13.731 166.769 13.6621 166.881 13.5895C166.991 13.516 167.1 13.4397 167.207 13.3606C167.42 13.2026 167.622 13.0261 167.813 12.8395C168.193 12.4627 168.522 12.0261 168.745 11.5335C168.97 11.0445 169.082 10.4977 169.024 9.97468C169.013 9.87726 168.924 9.80649 168.825 9.81752C168.747 9.82579 168.687 9.88186 168.669 9.95263L168.668 9.9563C168.451 10.8644 167.866 11.5684 167.156 12.1088C166.443 12.6529 165.606 13.0426 164.734 13.3073C163.859 13.5702 162.946 13.7071 162.029 13.7053C161.569 13.7053 161.11 13.6676 160.653 13.5904C160.423 13.5527 160.196 13.5031 159.968 13.4452C159.741 13.3864 159.514 13.3174 159.284 13.2421L159.282 13.2402C159.164 13.2016 159.036 13.2651 158.998 13.3809C158.968 13.4709 158.999 13.5665 159.069 13.6226Z" fill="#1B1F2C"/>
<path d="M134.937 10.5379C135.226 10.7242 135.493 10.9359 135.734 11.1667C135.972 11.4017 136.189 11.6526 136.371 11.9236C136.738 12.4646 136.98 13.0712 137.094 13.701C137.209 14.332 137.203 14.982 137.088 15.615C136.974 16.2491 136.753 16.8653 136.442 17.4369C136.133 18.0096 135.736 18.54 135.271 19.0079C135.033 19.2366 134.789 19.4599 134.523 19.6558L134.322 19.805L134.115 19.9405C133.979 20.0369 133.832 20.1142 133.687 20.1967C133.615 20.2401 133.54 20.2761 133.465 20.3121L133.242 20.4233L133.009 20.5196L132.894 20.5694C132.855 20.5863 132.815 20.5979 132.776 20.6117L132.538 20.6943C132.499 20.7102 132.458 20.7207 132.418 20.7313L132.296 20.7663L132.175 20.8012C132.134 20.8128 132.093 20.8245 132.052 20.8319C131.969 20.8488 131.887 20.8668 131.804 20.8848C131.721 20.906 131.638 20.9155 131.554 20.9282C131.471 20.9399 131.386 20.9547 131.302 20.9653L131.047 20.9865C131.005 20.9896 130.961 20.9949 130.918 20.997L130.791 20.9992L130.533 21.0045L130.275 20.9918L130.145 20.9875L130.016 20.9716C129.931 20.9621 129.843 20.9526 129.755 20.9441L129.74 20.942C129.643 20.9325 129.555 21.0034 129.545 21.1008C129.537 21.1823 129.587 21.2564 129.662 21.2839C129.75 21.3146 129.839 21.3453 129.927 21.375L130.062 21.4194L130.198 21.4554L130.474 21.5221C130.567 21.5391 130.66 21.5518 130.755 21.5676L130.896 21.5888C130.943 21.5952 130.99 21.5973 131.037 21.6015L131.323 21.6227C131.418 21.6269 131.513 21.6248 131.609 21.6248C131.704 21.6237 131.8 21.6259 131.895 21.6163C131.991 21.61 132.086 21.6026 132.181 21.5941C132.229 21.5909 132.277 21.5846 132.325 21.5772L132.467 21.556L132.609 21.5348C132.657 21.5274 132.704 21.52 132.75 21.5084L133.032 21.4448C133.079 21.4332 133.126 21.4247 133.172 21.411L133.31 21.3697L133.587 21.285L133.857 21.1834C133.947 21.1484 134.038 21.1167 134.125 21.0743C134.829 20.7599 135.486 20.3333 136.056 19.8114C136.628 19.2916 137.112 18.6765 137.489 17.998C137.678 17.6592 137.836 17.3025 137.964 16.9341C138.092 16.5667 138.182 16.1856 138.242 15.8003C138.356 15.0296 138.328 14.2304 138.124 13.4713C137.924 12.7134 137.548 11.9956 137.025 11.4165C136.963 11.3424 136.891 11.2747 136.822 11.2059C136.756 11.136 136.681 11.0725 136.609 11.0079C136.538 10.9433 136.461 10.8841 136.384 10.8258C136.309 10.7655 136.232 10.7083 136.15 10.6554C135.991 10.5474 135.825 10.4511 135.654 10.3653C135.483 10.2817 135.308 10.2055 135.128 10.1451C135.012 10.106 134.885 10.1674 134.846 10.2828C134.813 10.3802 134.852 10.4839 134.936 10.5379H134.937Z" fill="#1B1F2C"/>
<path d="M131.414 19.7293C132.858 19.7293 134.354 18.7718 135.155 17.1799C136.221 15.0595 135.655 12.617 133.886 11.7237C133.446 11.5012 132.974 11.3963 132.495 11.3963C131.051 11.3963 129.555 12.3538 128.754 13.9457C127.686 16.0662 128.254 18.5076 130.022 19.4009C130.463 19.6234 130.935 19.7293 131.414 19.7293Z" fill="#D5624D"/>
<path d="M130.864 19.0635C132.094 19.4082 133.576 18.9133 134.602 17.69C135.968 16.0606 136.01 13.7545 134.695 12.5385C134.509 12.3672 134.306 12.2266 134.09 12.1166C133.084 12.2393 132.063 12.7891 131.279 13.7217C129.891 15.3775 129.744 17.6667 130.864 19.0635Z" fill="#F77A6A"/>
<path d="M129.286 13.3987C129.578 13.1455 129.892 12.9286 130.224 12.7534C130.555 12.5804 130.904 12.449 131.259 12.3689C131.97 12.2075 132.709 12.2535 133.325 12.5291L133.44 12.5836L133.497 12.6092L133.553 12.6402C133.625 12.6808 133.696 12.7246 133.764 12.7705C133.832 12.8175 133.898 12.8677 133.96 12.9201C134.024 12.9724 134.082 13.0323 134.142 13.0889C134.369 13.3239 134.551 13.5995 134.674 13.9019C134.799 14.2031 134.861 14.5322 134.876 14.8655C134.888 15.1998 134.841 15.5385 134.751 15.8675C134.566 16.5266 134.182 17.1398 133.669 17.6249L133.572 17.7167C133.539 17.7456 133.504 17.7723 133.471 17.8011L133.368 17.8855L133.261 17.9635L133.155 18.0425L133.043 18.1141C133.006 18.1376 132.97 18.1633 132.931 18.1846L132.814 18.2487C132.503 18.4165 132.171 18.5489 131.824 18.6258C131.479 18.707 131.122 18.7295 130.77 18.6995C130.726 18.6953 130.682 18.6931 130.638 18.6878L130.508 18.6654C130.42 18.6526 130.334 18.6333 130.249 18.6098C130.078 18.5649 129.912 18.5019 129.751 18.425C129.43 18.2722 129.134 18.0543 128.887 17.7851C128.639 17.517 128.443 17.1943 128.301 16.8407L128.3 16.8375C128.265 16.7467 128.16 16.7018 128.068 16.7382C127.988 16.7692 127.944 16.8514 127.958 16.9315C128.028 17.3492 128.185 17.7637 128.43 18.1302C128.673 18.4987 128.998 18.8181 129.378 19.0638C129.568 19.1878 129.772 19.2903 129.984 19.3736C130.091 19.4153 130.198 19.4548 130.308 19.4826L130.474 19.5275C130.529 19.5403 130.585 19.5499 130.642 19.5617C131.09 19.6482 131.552 19.6535 132.002 19.5884C132.902 19.4538 133.754 19.0467 134.432 18.4496C134.474 18.4122 134.518 18.3759 134.56 18.3363L134.679 18.2178C134.719 18.1782 134.76 18.1387 134.799 18.097L134.913 17.971C135.06 17.799 135.199 17.6195 135.322 17.4283C135.446 17.2381 135.558 17.0394 135.655 16.8322C135.749 16.6239 135.829 16.4102 135.894 16.1901C135.961 15.9701 136.007 15.7436 136.036 15.5139C136.064 15.2853 136.076 15.0524 136.066 14.8195C136.045 14.3537 135.942 13.8869 135.752 13.45C135.558 13.0162 135.277 12.6167 134.927 12.2919C134.579 11.9693 134.159 11.7119 133.717 11.5591C133.274 11.3967 132.806 11.3283 132.348 11.3369C132.291 11.3348 132.233 11.3401 132.177 11.3444L132.007 11.3583C131.949 11.3604 131.893 11.37 131.838 11.3796L131.671 11.4063C131.449 11.4491 131.232 11.5067 131.022 11.5815C130.183 11.8806 129.461 12.4265 128.957 13.107C128.885 13.2043 128.906 13.3421 129.006 13.4136C129.091 13.4756 129.206 13.4681 129.283 13.4019L129.286 13.3987Z" fill="#1B1F2C"/>
<path d="M124.76 17.8397C138.604 60.3582 169.752 43.8823 178.005 27.6721C178.005 28.4693 176.674 33.7841 173.213 39.6304C169.752 45.4767 159.369 51.5888 148.986 51.0573C138.604 50.5258 133.013 45.4767 126.89 37.5045C121.991 31.1267 123.429 21.7372 124.76 17.8397Z" fill="#DD6954"/>
<path d="M141.923 42.507C141.616 42.6636 141.299 42.789 140.978 42.8817C140.656 42.9696 140.329 43.0319 140.003 43.0537C139.35 43.1005 138.703 43.0063 138.099 42.7904C137.495 42.5739 136.934 42.2443 136.442 41.8278C135.949 41.4127 135.525 40.9132 135.184 40.3591C134.842 39.8053 134.58 39.197 134.407 38.5606C134.327 38.2409 134.256 37.9183 134.219 37.59L134.19 37.3424L134.176 37.0952C134.16 36.9295 134.166 36.7641 134.168 36.597C134.166 36.5134 134.172 36.4306 134.178 36.3479L134.194 36.0989L134.226 35.85L134.241 35.7252C134.245 35.6835 134.256 35.6425 134.263 35.6023L134.311 35.3547C134.316 35.3135 134.327 35.273 134.338 35.2326L134.369 35.1097L134.399 34.9877C134.409 34.9467 134.42 34.9057 134.434 34.8659C134.461 34.7862 134.486 34.706 134.512 34.6258C134.535 34.543 134.569 34.4661 134.599 34.3876C134.631 34.3096 134.66 34.2291 134.693 34.1507L134.802 33.92C134.82 33.8823 134.838 33.8417 134.857 33.8037L134.919 33.6925L135.044 33.4669L135.184 33.2504L135.253 33.1396L135.33 33.0365C135.382 32.9673 135.434 32.8962 135.485 32.8246L135.494 32.8127C135.551 32.7333 135.534 32.6219 135.454 32.5649C135.387 32.5168 135.298 32.5232 135.237 32.5742C135.166 32.6347 135.095 32.6961 135.025 32.7581L134.919 32.8524L134.82 32.9519L134.624 33.1572C134.563 33.2292 134.505 33.3034 134.444 33.3769L134.355 33.4884C134.326 33.5259 134.301 33.5656 134.274 33.6041L134.112 33.8406C134.061 33.9208 134.015 34.0042 133.968 34.0865C133.921 34.1693 133.871 34.2516 133.832 34.3386C133.789 34.4242 133.748 34.5102 133.708 34.5968C133.687 34.64 133.668 34.6848 133.651 34.7292L133.598 34.8628L133.545 34.9964C133.528 35.0418 133.511 35.0862 133.498 35.1318L133.412 35.4068C133.399 35.4534 133.382 35.4983 133.371 35.545L133.338 35.6849L133.273 35.9669L133.226 36.2508C133.212 36.346 133.194 36.4405 133.187 36.5366C133.108 37.3025 133.15 38.0838 133.317 38.8379C133.482 39.5917 133.774 40.3183 134.174 40.9832C134.373 41.3164 134.604 41.6307 134.86 41.9259C135.115 42.2197 135.4 42.4889 135.704 42.7334C136.316 43.2168 137.023 43.5923 137.784 43.7952C138.542 44.0012 139.352 44.0353 140.116 43.8725C140.212 43.8559 140.306 43.8278 140.4 43.803C140.494 43.7805 140.587 43.7476 140.678 43.7179C140.77 43.6882 140.86 43.6512 140.949 43.6137C141.039 43.5791 141.127 43.5411 141.214 43.4973C141.387 43.4134 141.554 43.3182 141.714 43.213C141.872 43.1068 142.025 42.9942 142.168 42.8689C142.26 42.7877 142.27 42.6478 142.189 42.5559C142.121 42.4785 142.012 42.4609 141.923 42.506L141.923 42.507Z" fill="#1B1F2C"/>
<path d="M135.709 34.8664C134.987 36.1145 135.07 37.8862 136.05 39.3749C137.357 41.3569 139.759 42.0883 141.418 41.0064C141.832 40.7371 142.159 40.381 142.398 39.9669C143.12 38.7188 143.037 36.9471 142.057 35.4583C140.751 33.4754 138.349 32.7455 136.69 33.8274C136.277 34.0966 135.948 34.4522 135.709 34.8664Z" fill="#E06C57"/>
<path d="M136.562 34.7232C135.648 35.6143 135.337 37.1424 135.885 38.6411C136.616 40.6367 138.596 41.8258 140.308 41.2972C140.55 41.2221 140.773 41.1169 140.976 40.9852C141.373 40.0544 141.406 38.8971 140.989 37.7526C140.247 35.7253 138.334 34.4532 136.562 34.7232Z" fill="#F7816D"/>
<path d="M142.266 36.1918C142.34 36.5705 142.371 36.9506 142.357 37.3248C142.341 37.6979 142.281 38.0651 142.173 38.4123C141.957 39.1072 141.548 39.7228 141.001 40.1181L140.896 40.1898L140.845 40.2264L140.79 40.2595C140.719 40.3017 140.646 40.3405 140.572 40.3764C140.497 40.4117 140.421 40.4435 140.344 40.4715C140.267 40.5004 140.186 40.5209 140.107 40.5439C139.789 40.6234 139.459 40.6424 139.135 40.5977C138.811 40.5553 138.495 40.444 138.198 40.2904C137.902 40.1335 137.632 39.924 137.392 39.6811C136.912 39.1919 136.572 38.553 136.408 37.867L136.376 37.738C136.368 37.6947 136.362 37.6514 136.354 37.6081L136.332 37.4772L136.318 37.3458L136.303 37.2138L136.296 37.0819C136.295 37.0375 136.29 36.9938 136.291 36.9495L136.294 36.8167C136.304 36.464 136.355 36.1102 136.462 35.7721C136.564 35.4327 136.723 35.1135 136.925 34.8241C136.951 34.7879 136.975 34.7507 137.001 34.7161L137.086 34.6143C137.141 34.5451 137.2 34.48 137.264 34.4181C137.388 34.293 137.526 34.1807 137.673 34.0801C137.966 33.8792 138.303 33.7324 138.66 33.6532C139.016 33.5735 139.394 33.5649 139.772 33.6194L139.775 33.6201C139.872 33.6347 139.963 33.5666 139.978 33.4691C139.991 33.3845 139.941 33.3051 139.865 33.2772C139.467 33.129 139.029 33.0571 138.589 33.0858C138.148 33.1116 137.708 33.2329 137.305 33.4386C137.102 33.5409 136.911 33.6661 136.733 33.8074C136.644 33.879 136.556 33.9517 136.477 34.033L136.355 34.1543C136.316 34.1955 136.279 34.2393 136.241 34.2819C135.942 34.6261 135.706 35.023 135.538 35.4448C135.205 36.2898 135.132 37.2298 135.311 38.1147C135.322 38.1698 135.332 38.2262 135.345 38.2815L135.388 38.4444C135.403 38.4987 135.416 38.5539 135.433 38.6084L135.486 38.7694C135.562 38.9824 135.648 39.1925 135.752 39.3946C135.855 39.597 135.971 39.7934 136.103 39.9802C136.237 40.1655 136.381 40.3424 136.54 40.5084C136.697 40.6763 136.871 40.8288 137.056 40.9688C137.24 41.1074 137.436 41.2341 137.643 41.3422C138.058 41.5573 138.514 41.7011 138.989 41.7553C139.462 41.805 139.949 41.7612 140.406 41.6211C140.86 41.4818 141.293 41.2474 141.646 40.9419C142.009 40.6404 142.302 40.2694 142.524 39.8693C142.554 39.8209 142.578 39.7688 142.603 39.7181L142.676 39.5636C142.703 39.5131 142.722 39.4597 142.742 39.4073L142.802 39.2493C142.876 39.0365 142.934 38.82 142.975 38.6006C143.135 37.7257 143.022 36.8291 142.684 36.0529C142.635 35.9418 142.505 35.8915 142.393 35.9416C142.297 35.9844 142.246 36.088 142.265 36.1874L142.266 36.1918Z" fill="#1B1F2C"/>
<path d="M166.539 38.1653C166.657 38.2185 166.782 38.2635 166.912 38.2996C169.041 38.8905 171.948 36.9121 173.405 33.8808C174.773 31.0352 174.377 28.2733 172.562 27.457C172.443 27.4035 172.319 27.3589 172.189 27.3228C170.06 26.7319 167.153 28.7102 165.697 31.7411C164.328 34.5871 164.724 37.3491 166.539 38.1653Z" fill="#E06C57"/>
<path d="M165.92 31.7664C164.564 34.3585 164.616 36.6525 166.034 36.8903C167.452 37.1282 169.701 35.2186 171.056 32.6273C172.412 30.0352 172.362 27.7416 170.942 27.5042C169.524 27.2663 167.275 29.1751 165.92 31.7664Z" fill="#F78D73"/>
<path d="M174.37 29.326C174.319 29.0421 174.232 28.7595 174.106 28.4875C174.041 28.3525 173.968 28.2201 173.882 28.0934C173.796 27.9675 173.701 27.8458 173.595 27.7313C173.488 27.6183 173.372 27.514 173.246 27.4184L173.151 27.3495C173.118 27.3275 173.085 27.3067 173.051 27.2863L172.951 27.2236C172.917 27.2043 172.882 27.1867 172.846 27.1678C172.566 27.0225 172.261 26.9244 171.952 26.8716C171.642 26.8196 171.331 26.8113 171.025 26.8354C170.719 26.8611 170.42 26.9191 170.131 26.9988C169.841 27.0793 169.563 27.1874 169.294 27.3085C169.158 27.3673 169.027 27.4355 168.897 27.5033L168.705 27.6109C168.641 27.6471 168.58 27.6865 168.517 27.7241C168.268 27.8786 168.026 28.043 167.799 28.2241C167.683 28.3122 167.575 28.4073 167.462 28.5006C167.355 28.5971 167.245 28.6915 167.142 28.7928C166.722 29.1908 166.346 29.63 166.005 30.0949C165.92 30.2107 165.84 30.3298 165.758 30.4482C165.682 30.5698 165.601 30.6892 165.528 30.8134C165.376 31.0592 165.242 31.3142 165.113 31.5728C164.863 32.0936 164.649 32.6354 164.503 33.2021C164.354 33.7665 164.263 34.354 164.259 34.9538C164.258 35.5534 164.338 36.1714 164.571 36.7655C164.687 37.061 164.843 37.3502 165.043 37.6131C165.244 37.8748 165.49 38.109 165.766 38.2955C166.043 38.4823 166.351 38.6216 166.668 38.7068C166.986 38.7919 167.309 38.8267 167.623 38.8216C167.94 38.8153 168.246 38.7703 168.541 38.6987C168.614 38.6794 168.688 38.6626 168.76 38.6402L168.975 38.5724L169.184 38.4945C169.254 38.4684 169.32 38.4371 169.389 38.4084C169.659 38.2896 169.917 38.1541 170.165 38.0016C170.409 37.848 170.645 37.683 170.87 37.5055C171.092 37.325 171.305 37.1377 171.507 36.9386C171.707 36.7381 171.901 36.5336 172.078 36.3154C172.439 35.8843 172.753 35.42 173.023 34.9353C173.071 34.8508 173.039 34.7427 172.953 34.6958C172.876 34.6527 172.78 34.6721 172.727 34.7382L172.725 34.7417C172.556 34.9509 172.391 35.16 172.21 35.3561C172.123 35.456 172.03 35.5517 171.94 35.6487C171.893 35.6963 171.845 35.7425 171.799 35.7897C171.752 35.8362 171.705 35.8831 171.656 35.9278L171.511 36.0633L171.364 36.1936L171.29 36.2597L171.213 36.3228C171.163 36.3642 171.113 36.4066 171.062 36.4479C170.855 36.6103 170.645 36.7653 170.428 36.9084C170.209 37.0493 169.986 37.1804 169.758 37.2977C169.528 37.4128 169.295 37.5147 169.057 37.5993C168.583 37.7685 168.092 37.8613 167.624 37.8424C167.391 37.8343 167.166 37.7959 166.955 37.7262C166.746 37.6572 166.551 37.5577 166.378 37.4297C166.032 37.1756 165.78 36.8069 165.626 36.3776C165.474 35.9471 165.416 35.465 165.426 34.9785C165.442 34.4906 165.517 33.9952 165.652 33.5106C165.783 33.0249 165.964 32.5492 166.185 32.0902C166.409 31.633 166.664 31.1869 166.96 30.7684C167.035 30.6647 167.108 30.5592 167.186 30.458C167.262 30.3546 167.344 30.2568 167.424 30.1563C167.587 29.9605 167.757 29.7687 167.937 29.5868C168.024 29.4933 168.118 29.4074 168.209 29.3183C168.304 29.2329 168.397 29.1448 168.495 29.0646C168.689 28.8988 168.89 28.7442 169.098 28.6003C169.306 28.4553 169.523 28.3251 169.744 28.2081C169.965 28.0914 170.194 27.987 170.427 27.9052C170.658 27.822 170.896 27.759 171.135 27.7206C171.373 27.6819 171.614 27.6685 171.848 27.6876C172.084 27.7063 172.314 27.7567 172.531 27.8432L172.612 27.8751L172.691 27.9136C172.717 27.927 172.745 27.9385 172.77 27.9528L172.847 27.9967C172.947 28.0575 173.044 28.1261 173.137 28.202C173.227 28.2787 173.313 28.364 173.393 28.4548C173.473 28.5471 173.545 28.6466 173.613 28.7504C173.681 28.8545 173.741 28.965 173.797 29.0791C173.851 29.1936 173.899 29.3126 173.944 29.4342L173.946 29.4387C173.988 29.5522 174.115 29.6113 174.229 29.5699C174.332 29.5335 174.389 29.4293 174.37 29.326Z" fill="#1B1F2C"/>
<path d="M164.598 29.0153C164.378 29.151 164.174 29.309 163.98 29.4814C163.787 29.6546 163.606 29.8421 163.438 30.0417C163.103 30.4404 162.824 30.8877 162.6 31.3595C162.374 31.8306 162.207 32.3292 162.089 32.8377C161.977 33.3477 161.913 33.8694 161.907 34.3929C161.899 34.9165 161.945 35.4426 162.051 35.9589C162.077 36.0879 162.107 36.2167 162.141 36.3443C162.176 36.4718 162.214 36.5993 162.257 36.7246C162.34 36.9766 162.444 37.2224 162.561 37.4628C162.801 37.94 163.113 38.3917 163.514 38.7616C163.91 39.1312 164.398 39.4139 164.916 39.5305C165.013 39.552 165.109 39.4919 165.131 39.3957C165.147 39.3203 165.113 39.2444 165.05 39.2053L165.047 39.2035C164.248 38.7039 163.76 37.9268 163.469 37.0848C163.177 36.2402 163.07 35.3287 163.094 34.4257C163.121 33.5211 163.282 32.6203 163.575 31.761C163.722 31.3316 163.905 30.9126 164.124 30.5093C164.233 30.3074 164.353 30.1099 164.481 29.916C164.61 29.7217 164.748 29.5311 164.894 29.3419L164.896 29.3391C164.97 29.2414 164.95 29.1023 164.852 29.0276C164.776 28.97 164.674 28.9677 164.598 29.0153Z" fill="#1B1F2C"/>
<path d="M178 21.711C177.935 20.7089 177.813 19.7047 177.634 18.7016C176.376 11.6765 172.429 5.55716 166.518 1.46945C161.931 -1.70243 156.589 -3.35538 151.106 -3.35538C149.525 -3.35538 147.93 -3.21831 146.341 -2.94011C142.215 -2.21618 138.396 -0.594706 135.111 1.7842C139.578 -0.873919 144.687 -2.25578 149.845 -2.25578C151.346 -2.25578 152.854 -2.138 154.349 -1.90042L154.347 -1.89635C153.778 -0.34798 155.286 1.61668 157.717 2.49189C158.502 2.77415 159.288 2.90919 160.012 2.90919C161.525 2.90919 162.761 2.32029 163.147 1.27248C163.174 1.20039 163.197 1.12627 163.214 1.05215C164.217 1.58012 165.197 2.17307 166.151 2.83303C172.809 7.43856 176.869 14.3479 178 21.711Z" fill="#FDA594"/>
<path d="M151.106 -3.35525C156.589 -3.35525 161.931 -1.70206 166.519 1.47068C172.428 5.55821 176.376 11.678 177.633 18.7027C178.891 25.7274 177.309 32.8157 173.177 38.6627C169.045 44.5097 162.858 48.4142 155.757 49.6588C154.167 49.9372 152.573 50.075 150.992 50.075C145.51 50.075 140.167 48.4219 135.58 45.2492C129.67 41.1617 125.721 35.0419 124.464 28.0171C123.206 20.9924 124.79 13.9042 128.922 8.05717C133.054 2.21017 139.239 -1.69439 146.34 -2.93894C147.931 -3.21721 149.525 -3.35525 151.106 -3.35525ZM151.019 52C152.712 52 154.407 51.8521 156.096 51.5559C159.798 50.9074 163.282 49.5808 166.452 47.6123C169.735 45.5746 172.534 42.9343 174.773 39.767C177.011 36.5986 178.557 33.0918 179.364 29.3417C180.144 25.7209 180.207 22.0277 179.551 18.3664C178.896 14.705 177.554 11.2584 175.564 8.1229C173.504 4.87567 170.837 2.1061 167.634 -0.108025C164.432 -2.32324 160.886 -3.85154 157.096 -4.6502C153.435 -5.42148 149.703 -5.48392 146.001 -4.83645C142.3 -4.18788 138.815 -2.86116 135.646 -0.892441C132.363 1.1453 129.563 3.78559 127.325 6.95285C125.087 10.1212 123.542 13.6281 122.735 17.3782C121.954 20.999 121.891 24.6921 122.546 28.3535C123.202 32.0148 124.543 35.4615 126.533 38.5969C128.593 41.8442 131.261 44.6137 134.464 46.829C137.666 49.0431 141.212 50.5712 145.003 51.3704C146.992 51.79 149.004 51.9995 151.019 52Z" fill="#1B1F2C"/>
<path d="M159.332 24.9897C158.918 23.4247 157.754 22.2542 156.328 21.7587C156.207 21.7165 156.145 21.5837 156.19 21.4638C156.524 20.579 156.595 19.5863 156.332 18.6054C155.761 16.4782 153.804 15.0839 151.69 15.1311C151.586 15.1334 151.495 15.0627 151.468 14.9625L150.98 13.1439C150.809 12.5064 150.171 12.0891 149.525 12.2297C148.835 12.3799 148.418 13.0721 148.599 13.7449L149.059 15.461C149.092 15.5825 149.02 15.7074 148.898 15.7399L147.322 16.1613C147.201 16.1939 147.076 16.1218 147.043 16.0003L146.591 14.3177C146.42 13.6801 145.782 13.2629 145.136 13.4035C144.446 13.5536 144.029 14.2458 144.21 14.9187L144.671 16.6348C144.703 16.7563 144.631 16.8812 144.509 16.9137L143.011 17.3144C142.373 17.4852 141.955 18.1222 142.095 18.7669C142.246 19.4554 142.939 19.8715 143.613 19.6913L144.057 19.5725C144.179 19.54 144.304 19.612 144.337 19.7336L147.174 30.3045C147.207 30.426 147.135 30.5509 147.013 30.5835L146.603 30.6933C145.964 30.8641 145.546 31.5009 145.687 32.1458C145.837 32.8343 146.531 33.2504 147.205 33.0701L148.736 32.6604C148.858 32.6279 148.983 32.7 149.016 32.8215L149.468 34.5041C149.639 35.1417 150.277 35.5589 150.923 35.4183C151.612 35.2682 152.029 34.576 151.849 33.9031L151.388 32.187C151.355 32.0654 151.428 31.9406 151.549 31.908L153.125 31.4866C153.247 31.454 153.372 31.5261 153.404 31.6477L153.856 33.3303C154.027 33.9678 154.665 34.3851 155.311 34.2445C156.001 34.0943 156.418 33.4021 156.237 32.7293L155.777 31.0131C155.744 30.8916 155.816 30.7667 155.938 30.7342C158.448 30.0628 159.996 27.4982 159.332 24.9897ZM146.737 19.2043C146.689 19.0247 146.796 18.8402 146.975 18.7921L151.169 17.6705C152.347 17.3554 153.591 18.0089 153.941 19.1748C154.305 20.3862 153.59 21.6546 152.375 21.9796L148.136 23.1136C147.956 23.1617 147.771 23.0551 147.723 22.8756L146.737 19.2043ZM156.972 25.674C157.253 26.8585 156.503 28.0452 155.325 28.3603L149.931 29.8029C149.751 29.851 149.566 29.7445 149.518 29.565L148.533 25.8935C148.485 25.7141 148.591 25.5295 148.771 25.4814L154.211 24.0264C155.426 23.7014 156.681 24.4431 156.972 25.674Z" fill="#CF654E" stroke="#1B1F2C"/>
<path d="M71.1486 14.949L71.2512 14.6117C71.472 14.6791 71.6904 14.7434 71.9084 14.8059L71.7911 14.828L71.1658 14.9458C71.1602 14.9465 71.1546 14.9479 71.1486 14.949Z" fill="#B2B2D4"/>
<path d="M71.1485 14.9484L71.2513 14.6112L71.1485 14.9484Z" fill="#7C7CB6"/>
<path d="M36.7951 32.583L31.9703 34.8798C31.9703 34.8798 30.0472 39.6666 34.0078 47.9681C37.9681 56.2693 42.9016 57.793 42.9016 57.793L47.7266 55.4965L36.7951 32.583Z" fill="white"/>
<path d="M39.1242 54.4649C38.7653 54.106 38.3942 53.704 38.0156 53.2541C39.0909 52.7303 40.1037 52.2169 41.0578 51.7135L41.3048 52.0153L41.7276 52.4966C42.0453 52.8595 42.3748 53.2119 42.7164 53.5535C42.9799 53.8171 43.2507 54.0741 43.5283 54.325C44.1644 54.8965 44.8445 55.4288 45.5887 55.8787L42.8764 57.1698C42.3619 56.9538 40.8961 56.2368 39.1242 54.4649ZM32.4226 41.53C31.7611 38.1016 32.2524 35.9344 32.4397 35.2936L35.0671 34.0434C34.9733 34.7712 34.9559 35.4994 34.9823 36.2198C35.0151 37.0824 35.1091 37.9359 35.2409 38.7806C35.3149 39.2418 35.4005 39.7009 35.4974 40.1575C34.8185 40.4471 34.1193 40.7551 33.398 41.0824C33.0771 41.2275 32.7521 41.3769 32.4226 41.53Z" fill="#C5C5C5"/>
<path d="M32.4404 35.2935C32.1574 36.2604 31.1814 40.7084 34.5273 47.7219C37.8717 54.7321 41.9429 56.7779 42.8769 57.1694L46.962 55.2253L36.5253 33.3496L32.4404 35.2935ZM38.3219 55.3057C36.7914 53.7753 35.0655 51.5169 33.4905 48.2154C29.4677 39.7835 31.3558 34.8706 31.4384 34.6654C31.4917 34.5318 31.5939 34.4234 31.7238 34.3613L36.5489 32.0648C36.8352 31.9287 37.1781 32.0502 37.3149 32.3371L48.2467 55.2509C48.3833 55.5372 48.262 55.8801 47.9755 56.0163L43.1506 58.3126C43.0207 58.3747 42.8718 58.3852 42.7341 58.3429C42.6056 58.3032 40.7001 57.6835 38.3219 55.3057Z" fill="#1B1F2C"/>
<path d="M64.2736 50.9929C64.2736 50.9929 50.145 57.7896 46.4138 55.9272C44.944 55.1962 43.5107 53.9148 42.2413 52.5175C41.9368 52.182 41.641 51.8403 41.3559 51.4888C39.9148 49.728 38.7112 47.795 37.7687 45.7394C36.7469 43.5188 36.0336 41.1546 35.6583 38.7161C35.3702 36.8522 35.2771 34.9321 35.6343 33.332C36.3909 29.9226 46.4845 24.6762 49.7255 23.0683C50.3509 22.7588 50.7214 22.5848 50.7214 22.5848C62.1493 17.145 71.4643 14.997 78.6988 14.4663C89.0262 13.7122 95.1131 16.2601 97.0544 17.2559C97.4774 17.4729 97.7017 17.9437 97.604 18.4083C97.1561 20.5412 95.3029 26.8669 88.21 34.4029C83.2403 39.6821 75.703 45.5546 64.2736 50.9929Z" fill="#E1E1E1"/>
<path d="M88.2096 34.4027C88.2096 34.4027 83.8027 32.9748 80.4175 25.8804C77.0328 18.7856 78.6989 14.4675 78.6989 14.4675C88.8745 13.7232 94.9333 16.185 96.9662 17.21C97.4428 17.4502 97.6966 17.9835 97.5838 18.5046C97.1001 20.7273 95.1976 26.9776 88.2096 34.4027Z" fill="#29BAAC"/>
<path d="M78.9982 15.7063C79.0429 15.4198 79.0918 15.1903 79.1336 15.0217C79.65 14.9889 80.1669 14.9633 80.6833 14.9431C82.345 14.8835 84.0101 14.8994 85.6656 15.0248C87.3211 15.1469 88.9687 15.3624 90.5879 15.7039C91.3994 15.8681 92.2004 16.0747 92.9939 16.2997C93.7845 16.5352 94.5654 16.7988 95.3266 17.1048C95.7085 17.2544 96.0807 17.4229 96.4496 17.5956L96.7216 17.7309L96.7891 17.7641L96.8223 17.783C96.8429 17.796 96.863 17.8086 96.8806 17.8246C96.8916 17.8338 96.902 17.8434 96.9121 17.8535C96.9692 17.9106 97.0112 17.9828 97.0356 18.06C97.0495 18.1058 97.0554 18.1536 97.0546 18.2014C97.0538 18.2257 97.0529 18.2492 97.0484 18.2731L97.0454 18.2937L97.0371 18.3306L97.0216 18.4049C97.0107 18.456 96.9994 18.5076 96.9881 18.5584C96.9449 18.5286 96.8992 18.5013 96.8517 18.4773C94.8461 17.466 88.924 15.0578 78.9982 15.7063Z" fill="#1B9286"/>
<path d="M43.3351 53.1284C42.9733 52.7666 42.6234 52.3904 42.2876 52.0017L41.8794 51.5314L41.7354 51.3528C45.0313 49.5797 47.5952 47.9385 49.5887 46.4481C49.5891 46.4485 49.5891 46.4485 49.5891 46.4485C49.6966 46.3682 49.8029 46.2884 49.9072 46.2089C50.2209 46.6598 50.5375 47.0902 50.8552 47.501C50.5524 47.8142 50.2337 48.1233 49.8993 48.4272C49.4746 48.8126 49.5489 49.3898 49.8786 49.7195C50.0844 49.9253 50.3897 50.0348 50.7356 49.9409C51.3808 49.8604 52.0284 49.7632 52.6787 49.6505C52.9392 49.9308 53.1973 50.1981 53.4521 50.4528C54.4914 51.4922 55.4698 52.3191 56.2983 52.9532C55.9335 53.0853 55.5557 53.2256 55.1657 53.3749C55.1661 53.3753 55.1657 53.3749 55.1661 53.3753C53.5086 54.0099 51.6323 54.8055 49.5587 55.8008C49.0943 55.8624 48.6303 55.9004 48.1716 55.8994C47.772 55.8954 47.3721 55.8685 47.0099 55.7693C46.918 55.7474 46.832 55.7162 46.7462 55.6857C46.6612 55.6495 46.5888 55.6208 46.4953 55.5692C46.3164 55.4769 46.1402 55.3771 45.9673 55.2716C45.2748 54.848 44.6278 54.3373 44.0182 53.782C43.786 53.5697 43.5585 53.3519 43.3351 53.1284ZM51.6422 46.6425C51.3637 46.2769 51.0859 45.896 50.8109 45.4986C52.7223 43.9499 53.9968 42.5879 54.8462 41.4409C55.0239 41.2014 55.1826 40.9705 55.3247 40.7497C54.5835 42.4617 53.4184 44.5936 51.6422 46.6425Z" fill="#C5C5C5"/>
<path d="M84.7741 32.5535C71.2388 44.8645 58.5835 48.9549 53.9478 49.4612C53.5405 50.16 55.9158 52.0841 57.1544 52.9588C58.0402 52.7532 60.6709 52.0803 64.1071 51.0342C67.5434 49.9882 77.209 43.5921 81.6123 40.5248C83.8198 38.706 88.1837 34.959 87.9795 34.522C87.7753 34.0849 85.7575 33.0275 84.7741 32.5535Z" fill="#C5C5C5"/>
<path d="M36.283 39.8262C36.2053 39.4367 36.1365 39.0456 36.0761 38.6527C35.9536 37.8342 35.8685 37.0115 35.8431 36.192C35.8177 35.3732 35.8542 34.5554 35.995 33.7677C36.0114 33.669 36.0341 33.5725 36.0532 33.4746C36.0626 33.4223 36.0753 33.3866 36.086 33.3444C36.097 33.3038 36.1078 33.2627 36.1244 33.2213C36.1787 33.0563 36.2651 32.8906 36.3563 32.7274C36.5477 32.4022 36.7897 32.0882 37.0553 31.79C37.3592 31.4503 37.6898 31.1283 38.037 30.8186C39.9814 29.8914 41.6746 28.9904 43.1326 28.1497C43.1326 28.1503 43.1326 28.1503 43.1326 28.1503C43.4941 27.9419 43.8411 27.7372 44.1738 27.5375C44.1576 28.1299 44.159 28.799 44.1916 29.535C43.5392 30.1166 42.8542 30.6963 42.1477 31.2534C41.3919 31.8494 41.4543 32.8775 42.0298 33.453C42.2798 33.703 42.6255 33.8674 43.0434 33.875C43.5771 33.8841 44.1365 33.9033 44.7149 33.9361C44.8749 34.7644 45.0772 35.632 45.3306 36.5278C45.2233 36.554 45.1148 36.5809 45.0056 36.6089C45.0056 36.6089 45.0009 36.6899 45.0022 36.8399C42.5982 37.4459 39.7198 38.3956 36.283 39.8262ZM46.451 36.2722C46.23 35.4965 46.049 34.7438 45.9015 34.0204C48.5664 34.2506 51.5028 34.7849 54.0511 35.9077C52.5145 35.5821 50.1085 35.496 46.451 36.2722ZM45.3127 28.506C45.3077 27.8683 45.326 27.2992 45.3556 26.8079C45.4139 26.7707 45.4716 26.7336 45.5287 26.6971C47.4231 25.4865 48.7301 24.4882 49.5106 23.8468C49.6409 23.7402 49.7563 23.6429 49.8579 23.5565C49.9383 23.5167 50.0183 23.4771 50.0994 23.4379C49.4142 24.2556 47.6366 26.3116 45.3127 28.506Z" fill="#C5C5C5"/>
<path d="M35.2402 38.7806C35.1085 37.936 35.0143 37.0823 34.9816 36.2198C34.9498 35.3577 34.981 34.4849 35.1306 33.6144C35.1481 33.5057 35.1726 33.3972 35.1933 33.2884C35.2172 33.181 35.2496 33.0458 35.2905 32.9348C35.3675 32.6995 35.4755 32.4897 35.5882 32.2861C35.8206 31.8848 36.0948 31.5299 36.3852 31.1981C36.9691 30.5386 37.6155 29.9655 38.2805 29.4259C39.6142 28.3505 41.0302 27.4104 42.4688 26.5165C43.9095 25.6256 45.3804 24.7911 46.8687 23.9909C47.6132 23.5914 48.3622 23.2007 49.1167 22.8195C49.4939 22.6289 49.8721 22.4408 50.2533 22.2551C50.6369 22.0685 51.0189 21.8972 51.4021 21.717C52.9282 20.9943 54.477 20.3181 56.0371 19.6675C59.1607 18.3751 62.3537 17.2378 65.6119 16.3107L66.835 15.9672C67.2434 15.8546 67.656 15.7589 68.067 15.6539C68.4787 15.554 68.8871 15.4414 69.3019 15.3521L70.5437 15.0791C70.7509 15.0351 70.9572 14.986 71.1656 14.9458L71.7906 14.8282L73.0413 14.5931L74.2993 14.394C74.509 14.3619 74.7179 14.3255 74.9285 14.2968L75.5598 14.2162C77.2428 13.9856 78.9398 13.8497 80.6403 13.7885C82.3404 13.7277 84.0469 13.7447 85.7476 13.8738C87.4491 14.0003 89.146 14.2223 90.8209 14.576C91.6596 14.7469 92.4903 14.9606 93.3155 15.1952C94.1381 15.4408 94.9532 15.7161 95.7542 16.0385C96.1556 16.1964 96.551 16.3746 96.9448 16.5596L97.2387 16.705L97.3118 16.7416L97.4163 16.8002C97.4851 16.8427 97.5522 16.8895 97.6147 16.9418C97.8649 17.1504 98.0511 17.4351 98.1384 17.7489C98.1826 17.9052 98.2019 18.0687 98.1973 18.2313C98.194 18.312 98.1868 18.3931 98.172 18.4725L98.1614 18.5306L98.1517 18.5701L98.1339 18.6499C98.087 18.8635 98.0328 19.0732 97.9781 19.2833C97.9235 19.4935 97.8617 19.6998 97.8024 19.9078L97.6075 20.5242C97.055 22.156 96.3275 23.7104 95.4981 25.1993C94.6648 26.6869 93.7305 28.1099 92.7196 29.4709C91.7041 30.8289 90.6397 32.1465 89.5065 33.4021C87.2499 35.9205 84.7812 38.243 82.1404 40.3467C79.506 42.4593 76.7254 44.3833 73.8487 46.145C70.9753 47.9119 68.0026 49.5155 64.9686 50.985C63.4552 51.736 61.9104 52.4132 60.3568 53.0711C58.8014 53.7239 57.2306 54.3429 55.6333 54.8991C54.0356 55.4515 52.4155 55.9558 50.7414 56.2974C49.9034 56.464 49.052 56.5947 48.1717 56.5997C47.7316 56.597 47.2839 56.573 46.831 56.454C46.718 56.4276 46.6053 56.3891 46.4927 56.3487C46.3837 56.3047 46.2616 56.2526 46.1704 56.2028C45.9743 56.103 45.7835 55.9965 45.5964 55.8835C44.8488 55.4329 44.1659 54.8988 43.5273 54.3247C42.8897 53.7488 42.2885 53.1389 41.7267 52.4965L41.3038 52.0151L40.8986 51.5195L40.6962 51.2716L40.5024 51.0166L40.1154 50.5061C39.6196 49.8104 39.1352 49.1059 38.7057 48.3669C36.952 45.4329 35.7798 42.157 35.2402 38.7806ZM36.0747 38.6531C36.5767 41.927 37.6922 45.1116 39.3775 47.9713C39.7895 48.6913 40.2562 49.3787 40.7333 50.0574L41.106 50.5558L41.2924 50.8045L41.488 51.0465L41.8787 51.5312L42.287 52.0016C42.8294 52.6302 43.4091 53.2251 44.0175 53.7819C44.6267 54.3368 45.2741 54.8478 45.9665 55.2713C46.1395 55.377 46.3154 55.4765 46.4942 55.5687C46.5878 55.6204 46.6603 55.6491 46.7454 55.6855C46.8313 55.7161 46.9173 55.7473 47.0093 55.7693C47.371 55.8681 47.7713 55.8953 48.1709 55.8993C48.9751 55.9008 49.796 55.7827 50.6074 55.6266C52.2334 55.3059 53.8369 54.8191 55.4203 54.2827C57.0037 53.7421 58.5681 53.1388 60.1173 52.4981C61.6642 51.852 63.2049 51.185 64.7075 50.4472C67.7341 48.9988 70.6968 47.4188 73.5613 45.6752C76.4219 43.9262 79.1804 42.0107 81.7924 39.9146C84.4068 37.8219 86.8649 35.5304 89.077 33.0218C91.2861 30.511 93.1757 27.724 94.6736 24.7626C95.0387 24.0177 95.3922 23.2672 95.6978 22.4993C96.0127 21.7357 96.3043 20.9631 96.544 20.1778L96.7228 19.5894C96.7762 19.3924 96.8329 19.1954 96.8816 18.998C96.9307 18.8002 96.9794 18.6028 97.0204 18.4045L97.0365 18.3307L97.0446 18.2937L97.0479 18.2734C97.0522 18.2496 97.053 18.2258 97.0543 18.2016C97.0546 18.1536 97.0487 18.1061 97.035 18.0602C97.0065 17.9689 96.953 17.8848 96.8799 17.8244C96.8616 17.8087 96.8421 17.7959 96.8221 17.7828L96.789 17.7641L96.7206 17.7305L96.4483 17.5957C96.0796 17.423 95.7076 17.2546 95.3257 17.1044C94.565 16.7986 93.7835 16.5347 92.9932 16.2993C92.199 16.0746 91.3985 15.868 90.5873 15.7036C88.9681 15.3623 87.32 15.1466 85.6648 15.0248C84.0091 14.8992 82.3447 14.8835 80.6824 14.943C79.0209 15.0076 77.3591 15.1321 75.7067 15.3491L75.0864 15.4255C74.8801 15.4526 74.6746 15.4872 74.4682 15.5176L73.2328 15.707L72.002 15.9324L71.3868 16.0453C71.1822 16.0834 70.9788 16.1312 70.7746 16.1739L69.5511 16.4363C69.1427 16.5226 68.7398 16.6314 68.3335 16.7275C67.9285 16.8291 67.5214 16.9218 67.1185 17.0306L65.9112 17.3635C62.6938 18.2643 59.5312 19.3668 56.4308 20.6264C54.8825 21.2607 53.3445 21.9206 51.8255 22.6283C51.4465 22.8035 51.0603 22.9739 50.6868 23.1528C50.3106 23.3328 49.9349 23.5167 49.5604 23.703C48.8116 24.0756 48.0668 24.4577 47.327 24.849C45.8479 25.632 44.3871 26.449 42.9617 27.3178C41.5391 28.1887 40.142 29.1053 38.8502 30.1337C38.207 30.6483 37.5885 31.193 37.0536 31.7901C36.7884 32.0885 36.5462 32.4022 36.3547 32.7279C36.2633 32.8908 36.1771 33.0564 36.123 33.2216C36.1063 33.2628 36.0954 33.304 36.0847 33.3448C36.0736 33.3868 36.0609 33.4225 36.0518 33.475C36.0325 33.5727 36.0097 33.6692 35.9935 33.7681C35.8526 34.5556 35.8163 35.3736 35.8415 36.1923C35.867 37.0118 35.952 37.8345 36.0747 38.6531Z" fill="#1B1F2C"/>
<path d="M84.0551 32.1991C82.7194 30.8634 81.2311 28.921 79.8984 26.1276C76.4468 18.893 78.0902 14.4458 78.1615 14.2598L79.2346 14.6747C79.2193 14.7134 77.7157 18.8851 80.9353 25.6335C84.1553 32.3824 88.3461 33.8437 88.3877 33.8578L88.0325 34.9497C87.9158 34.9121 86.1779 34.3219 84.0551 32.1991Z" fill="#1B1F2C"/>
<path d="M53.4521 50.4533C51.398 48.3991 49.1072 45.517 47.2664 41.6591C43.7758 34.3425 44.0345 27.9743 44.3078 25.5762L45.4491 25.7076C45.1874 28.0075 44.9409 34.1177 48.3033 41.1657C51.666 48.214 56.5724 51.8714 58.5259 53.1171L57.9091 54.0855C56.9461 53.4715 55.2941 52.2953 53.4521 50.4533Z" fill="#1B1F2C"/>
<path d="M72.7587 39.7118C68.1776 41.8922 62.6898 39.943 60.5031 35.3583C58.3156 30.7737 60.2567 25.2895 64.8382 23.1087C69.4196 20.9279 74.9066 22.8771 77.0941 27.4618C79.2809 32.0464 77.3405 37.5306 72.7587 39.7118Z" fill="#29BAAC"/>
<path d="M62.3024 37.9074C62.3024 37.9074 62.3024 37.9074 62.302 37.907C62.3024 37.9074 62.3024 37.9074 62.3024 37.9074ZM62.3035 37.9085C64.9615 40.565 69.0913 41.4171 72.6818 39.7484C69.091 41.4167 64.9615 40.5657 62.3035 37.9085ZM60.5039 35.3585C60.502 35.3544 60.5002 35.3511 60.4983 35.347C60.4998 35.3507 60.5017 35.3548 60.5039 35.3585ZM60.4968 35.344C60.495 35.3399 60.4931 35.3359 60.4909 35.3321C60.4931 35.3359 60.495 35.3399 60.4968 35.344ZM60.4909 35.3307C60.489 35.3273 60.4871 35.3232 60.4853 35.3199C60.4871 35.3232 60.489 35.3273 60.4909 35.3307ZM60.4841 35.3173C60.4823 35.3132 60.4804 35.3091 60.4789 35.3054C60.4804 35.3091 60.4823 35.3132 60.4841 35.3173ZM60.4778 35.3035C60.476 35.3002 60.4745 35.2964 60.4726 35.2931C60.4745 35.2964 60.476 35.3002 60.4778 35.3035ZM60.4715 35.2905C60.4696 35.2864 60.4681 35.2827 60.4663 35.2786C60.4681 35.2827 60.47 35.2868 60.4715 35.2905ZM60.4652 35.276C60.4637 35.273 60.4622 35.2693 60.4603 35.2659C60.4618 35.2697 60.4637 35.273 60.4652 35.276ZM60.4588 35.2637C60.457 35.2596 60.4555 35.2559 60.4536 35.2518C60.4555 35.2559 60.457 35.2596 60.4588 35.2637ZM60.4525 35.2492C60.451 35.2462 60.4495 35.2425 60.448 35.2395C60.4495 35.2425 60.451 35.2462 60.4525 35.2492ZM60.4469 35.2369C60.4451 35.2329 60.4432 35.2288 60.4413 35.2254C60.4436 35.2291 60.4451 35.2329 60.4469 35.2369ZM60.4402 35.2221C60.4384 35.2187 60.4372 35.2154 60.4354 35.212C60.4372 35.2154 60.4387 35.2191 60.4402 35.2221ZM60.4343 35.2102C60.4331 35.2061 60.4309 35.2024 60.4294 35.1986C60.4309 35.2016 60.4331 35.2061 60.4343 35.2102ZM60.4279 35.1949C60.4264 35.1919 60.425 35.1882 60.4235 35.1853C60.425 35.1882 60.4264 35.1919 60.4279 35.1949ZM60.4223 35.1834C60.4205 35.1793 60.419 35.1756 60.4171 35.1722C60.419 35.1756 60.4205 35.1793 60.4223 35.1834ZM60.4153 35.1681C60.4142 35.1648 60.4123 35.1615 60.4115 35.1585C60.4127 35.1618 60.4142 35.1648 60.4153 35.1681ZM60.4097 35.1551C60.4082 35.1522 60.4067 35.1484 60.4052 35.1455C60.4067 35.1484 60.4082 35.1522 60.4097 35.1551ZM60.4034 35.1406C60.4019 35.1377 60.4004 35.1347 60.3993 35.1313C60.4004 35.1347 60.4019 35.1377 60.4034 35.1406ZM60.397 35.1269C60.3959 35.1243 60.3948 35.1217 60.3933 35.1187C60.3948 35.1217 60.3959 35.1243 60.397 35.1269ZM60.3914 35.1139C60.39 35.1109 60.3885 35.1072 60.387 35.1042C60.3885 35.1072 60.39 35.1109 60.3914 35.1139ZM60.3847 35.099C60.3844 35.0971 60.3829 35.0941 60.3818 35.0923C60.3829 35.0941 60.384 35.0968 60.3847 35.099ZM60.3795 35.0871C60.378 35.0834 60.3765 35.0804 60.3754 35.077C60.3765 35.0804 60.378 35.0834 60.3795 35.0871ZM60.3728 35.0715C60.3717 35.0696 60.371 35.0674 60.3702 35.0659C60.371 35.0674 60.3717 35.0696 60.3728 35.0715ZM60.3676 35.0596C60.3665 35.057 60.3654 35.0544 60.3643 35.0518C60.3654 35.0544 60.3665 35.057 60.3676 35.0596ZM60.3609 35.0439C60.3602 35.0425 60.3594 35.041 60.3587 35.0395C60.3598 35.0413 60.3602 35.0425 60.3609 35.0439ZM60.349 35.0164C60.3486 35.0153 60.3479 35.0146 60.3479 35.0131C60.3479 35.0146 60.3486 35.0153 60.349 35.0164ZM60.3374 34.9893C60.3371 34.9889 60.3367 34.9878 60.3363 34.9874C60.3367 34.9878 60.3371 34.9889 60.3374 34.9893ZM72.6892 39.7454C72.693 39.7432 72.6967 39.7417 72.7008 39.7398C72.6967 39.7417 72.693 39.7432 72.6892 39.7454ZM72.7461 39.7183C72.7509 39.7157 72.7554 39.7142 72.7598 39.712C72.7636 39.7098 72.768 39.7083 72.7717 39.7061C72.768 39.7083 72.7636 39.7098 72.7598 39.712C72.7554 39.7142 72.7509 39.7157 72.7461 39.7183ZM72.7743 39.705C72.7781 39.7027 72.7818 39.7012 72.7855 39.6998C72.7821 39.7009 72.7777 39.7031 72.7743 39.705ZM72.7881 39.6986C72.7918 39.6964 72.7959 39.6946 72.8 39.6927C72.7959 39.6946 72.7918 39.6964 72.7881 39.6986ZM72.8004 39.6923C72.8044 39.6905 72.8078 39.6886 72.8115 39.6871C72.8078 39.6886 72.8044 39.6905 72.8004 39.6923ZM72.8145 39.6857C72.8186 39.6838 72.8219 39.6819 72.826 39.6801C72.8223 39.6816 72.8178 39.6838 72.8145 39.6857ZM72.8282 39.6793C72.8319 39.6771 72.8357 39.6756 72.8394 39.6734C72.8357 39.6756 72.8319 39.6771 72.8282 39.6793ZM72.8409 39.6727C72.8446 39.6712 72.8479 39.6693 72.8516 39.6678C72.8479 39.6693 72.8446 39.6712 72.8409 39.6727ZM72.855 39.666C72.8579 39.6645 72.862 39.6626 72.8654 39.6608C72.862 39.6626 72.8579 39.6645 72.855 39.666ZM72.8691 39.6593C72.8717 39.6574 72.8754 39.656 72.8784 39.6545C72.8754 39.656 72.8717 39.6574 72.8691 39.6593ZM72.8814 39.653C72.8847 39.6511 72.8884 39.6496 72.891 39.6478C72.8884 39.6496 72.8847 39.6511 72.8814 39.653ZM72.8947 39.6463C72.8981 39.6445 72.9018 39.643 72.9051 39.6411C72.9018 39.643 72.8981 39.6445 72.8947 39.6463ZM72.9092 39.6393C72.9115 39.6378 72.9141 39.6367 72.917 39.6352C72.9141 39.6367 72.9118 39.6381 72.9092 39.6393ZM72.923 39.6322C72.9252 39.6307 72.9278 39.6296 72.9297 39.6285C72.9274 39.63 72.9252 39.6307 72.923 39.6322ZM72.9352 39.6259C72.9382 39.6244 72.9412 39.6229 72.9438 39.6218C72.9412 39.6229 72.9382 39.6244 72.9352 39.6259ZM72.9501 39.6185C72.9512 39.6181 72.9531 39.617 72.9546 39.6162C72.9527 39.6174 72.9516 39.6177 72.9501 39.6185ZM72.9657 39.611C72.9665 39.6103 72.9672 39.6096 72.9687 39.6096C72.9676 39.6099 72.9665 39.6103 72.9657 39.611ZM72.991 39.5977C72.991 39.5977 72.9914 39.5973 72.9921 39.5973C72.9914 39.5973 72.991 39.5977 72.991 39.5977Z" fill="#7C7CB6"/>
<path d="M62.3024 37.9072C62.3024 37.9072 62.3024 37.9072 62.302 37.9069C61.581 37.1858 60.968 36.3311 60.5041 35.3589C60.5022 35.3547 60.5003 35.3506 60.4984 35.3465C60.4981 35.3453 60.4977 35.345 60.4973 35.3438C60.4951 35.3401 60.4932 35.336 60.4913 35.3318C60.4909 35.3314 60.4909 35.3314 60.4909 35.3307C60.489 35.3273 60.4872 35.3232 60.4857 35.3202C60.4853 35.319 60.4849 35.3179 60.4841 35.3172C60.4826 35.3134 60.4808 35.3093 60.4789 35.3051C60.4785 35.3048 60.4781 35.3044 60.4781 35.3036C60.4762 35.3003 60.4747 35.2965 60.4729 35.2931C60.4729 35.2924 60.4725 35.2912 60.4717 35.2905C60.4698 35.2863 60.4683 35.2826 60.4665 35.2785C60.4657 35.2777 60.4657 35.277 60.4653 35.2758C60.4635 35.2732 60.4619 35.2694 60.4604 35.2664C60.4601 35.2653 60.4601 35.2645 60.4593 35.2638C60.4574 35.2597 60.4555 35.2555 60.454 35.2518C60.4533 35.251 60.4529 35.2499 60.4529 35.2491C60.451 35.2458 60.4495 35.2427 60.448 35.239C60.448 35.2382 60.4473 35.2375 60.4473 35.2367C60.445 35.233 60.4435 35.2292 60.4416 35.2251C60.4409 35.2243 60.4409 35.2228 60.4401 35.2221C60.439 35.2187 60.4371 35.2153 60.436 35.2119C60.4352 35.2112 60.4349 35.2108 60.4345 35.2097C60.4333 35.2063 60.4311 35.2018 60.4292 35.1984C60.4288 35.1973 60.4285 35.1962 60.4281 35.195C60.4262 35.1916 60.4251 35.1883 60.4236 35.1853C60.4228 35.1845 60.4228 35.1838 60.4224 35.1834C60.4209 35.1796 60.4191 35.1755 60.4172 35.1721C60.4168 35.1702 60.4164 35.1691 60.4153 35.168C60.4142 35.1646 60.4127 35.1616 60.4115 35.1582C60.4108 35.1574 60.4104 35.1563 60.41 35.1552C60.4085 35.1522 60.407 35.1484 60.4051 35.145C60.4048 35.1439 60.404 35.1424 60.4036 35.1405C60.4021 35.1375 60.4006 35.1345 60.3991 35.1315C60.3987 35.1296 60.398 35.1281 60.3972 35.1266C60.3961 35.124 60.395 35.1214 60.3935 35.1184C60.3927 35.1169 60.3923 35.1157 60.3912 35.1139C60.3905 35.1108 60.3886 35.1075 60.3874 35.1041C60.3867 35.1026 60.3859 35.1011 60.3848 35.0992C60.3841 35.0969 60.3829 35.0943 60.3818 35.0917C60.381 35.0902 60.3803 35.0887 60.3799 35.0868C60.3784 35.0838 60.3765 35.0804 60.3754 35.077C60.3746 35.0755 60.3735 35.0736 60.3728 35.0714C60.372 35.0699 60.3713 35.0676 60.3705 35.0654C60.3694 35.0635 60.3686 35.0612 60.3679 35.0597C60.3667 35.0571 60.3656 35.0545 60.3645 35.0518C60.3634 35.0492 60.3622 35.0466 60.3607 35.0436C60.36 35.0421 60.36 35.0413 60.3588 35.0394C60.3558 35.0319 60.3524 35.024 60.3491 35.0161C60.3487 35.015 60.3479 35.0143 60.3476 35.0131C60.3445 35.0049 60.3408 34.9974 60.3378 34.9891C60.3374 34.9887 60.3366 34.988 60.3366 34.9872C59.5483 33.1312 59.4172 31.1487 59.8475 29.3108C59.7887 29.5629 59.74 29.8175 59.7027 30.0737C59.9845 29.1791 60.402 28.3277 60.9435 27.5539C60.8545 29.0542 61.1317 30.5973 61.8252 32.0513C62.1593 32.7511 62.5696 33.3896 63.0426 33.9617C63.1137 34.162 63.1954 34.3601 63.2883 34.5544C63.5875 35.1808 63.9838 35.7401 64.4605 36.2168C65.0816 36.8379 65.8386 37.3185 66.6908 37.6212C68.1961 38.1558 69.8197 38.0728 71.261 37.3864C71.4045 37.3181 71.5446 37.245 71.6801 37.1665C72.493 37.0274 73.3001 36.7759 74.0809 36.4042C75.5639 35.6986 76.7686 34.6465 77.6479 33.3913C77.6319 33.6561 77.6051 33.9191 77.567 34.1798C77.6771 33.8312 77.7659 33.4755 77.8337 33.1153C77.3247 35.8198 75.6135 38.2596 72.9922 39.5973C72.9915 39.5973 72.9915 39.5973 72.9911 39.5977C72.9836 39.6015 72.9765 39.6056 72.969 39.6093C72.9671 39.6097 72.9667 39.6101 72.966 39.6108C72.9622 39.6123 72.9585 39.6146 72.9547 39.6161C72.9532 39.6168 72.9513 39.618 72.9502 39.6184C72.9483 39.6195 72.9457 39.6206 72.9442 39.6213C72.9412 39.6228 72.9382 39.6244 72.9355 39.6262C72.9337 39.6266 72.9318 39.6277 72.9299 39.6289C72.928 39.63 72.9258 39.6307 72.9235 39.6322C72.9213 39.633 72.9186 39.6341 72.9171 39.6349C72.9141 39.6364 72.9119 39.6379 72.9093 39.639C72.9078 39.6397 72.907 39.6405 72.9051 39.6409C72.9021 39.6424 72.8984 39.6446 72.895 39.6465C72.8939 39.6469 72.8927 39.6472 72.8916 39.6476C72.8882 39.6495 72.8849 39.6514 72.8815 39.6525C72.8807 39.6532 72.8796 39.6536 72.8785 39.654C72.8758 39.6559 72.8721 39.6574 72.8691 39.6589C72.8676 39.6596 72.8668 39.6604 72.8657 39.6607C72.8619 39.6622 72.8582 39.6645 72.8552 39.666C72.8537 39.6667 72.8526 39.6671 72.8522 39.6675C72.848 39.6694 72.8447 39.6712 72.8409 39.6727C72.8405 39.6731 72.8398 39.6731 72.8394 39.6735C72.836 39.6754 72.8319 39.6772 72.8285 39.6791C72.8278 39.6791 72.8274 39.6795 72.8263 39.6799C72.8221 39.6817 72.8188 39.6836 72.8146 39.6855C72.8135 39.6859 72.8127 39.6866 72.8116 39.687C72.8082 39.6889 72.8045 39.6904 72.8004 39.6922L72.8 39.6926C72.7958 39.6945 72.7925 39.6964 72.7883 39.6982C72.7876 39.699 72.7868 39.699 72.7857 39.6994C72.782 39.7009 72.7782 39.7031 72.7744 39.7046C72.7737 39.7054 72.7726 39.7057 72.7722 39.7061C72.7681 39.708 72.7639 39.7099 72.7602 39.7121C72.7553 39.714 72.7512 39.7159 72.7467 39.7181C72.7313 39.7253 72.7159 39.7324 72.7012 39.7395C72.6971 39.7414 72.6929 39.7433 72.6896 39.7451C72.6869 39.7463 72.6843 39.7474 72.6817 39.7485C69.0915 41.4169 64.9615 40.5648 62.3035 37.9084C62.3032 37.908 62.3028 37.9076 62.3024 37.9072Z" fill="#1B9286"/>
<path d="M64.4238 23.3198C64.4244 23.3192 64.4254 23.3189 64.4263 23.3186C64.4254 23.3189 64.4244 23.3192 64.4238 23.3198ZM64.4333 23.3146C64.4336 23.3143 64.4342 23.3143 64.4348 23.3137C64.4342 23.3143 64.4339 23.3146 64.4333 23.3146ZM64.4482 23.3064C64.4491 23.3061 64.4504 23.3055 64.4513 23.3052C64.4501 23.3058 64.4494 23.3058 64.4482 23.3064ZM64.4632 23.2988C64.4644 23.2982 64.465 23.2976 64.4662 23.297C64.4653 23.2973 64.4641 23.2979 64.4632 23.2988ZM64.4729 23.2933C64.4741 23.2927 64.4754 23.2921 64.4769 23.2912C64.4754 23.2921 64.4741 23.2927 64.4729 23.2933ZM64.4866 23.2863C64.4885 23.2851 64.4903 23.2845 64.4918 23.2835C64.4903 23.2845 64.4885 23.2851 64.4866 23.2863ZM64.4979 23.2805C64.4997 23.2793 64.5013 23.2784 64.5034 23.2775C64.5013 23.2784 64.4997 23.2793 64.4979 23.2805ZM64.5119 23.2726C64.5138 23.272 64.5159 23.2705 64.5177 23.2698C64.5159 23.2705 64.5138 23.272 64.5119 23.2726ZM64.5229 23.2671C64.526 23.2653 64.529 23.2641 64.5321 23.2622C64.529 23.2641 64.5263 23.2656 64.5229 23.2671ZM64.5372 23.2595C64.5397 23.2583 64.5418 23.2574 64.5439 23.2558C64.5421 23.2571 64.5394 23.2586 64.5372 23.2595ZM64.5497 23.2531C64.5522 23.2519 64.5549 23.2504 64.558 23.2491C64.5549 23.2504 64.5522 23.2519 64.5497 23.2531ZM64.5625 23.2464C64.5659 23.2449 64.5686 23.2433 64.5717 23.2415C64.5686 23.2433 64.5659 23.2449 64.5625 23.2464ZM64.5763 23.2394C64.579 23.2379 64.5815 23.2366 64.5839 23.2354C64.5811 23.237 64.579 23.2379 64.5763 23.2394ZM64.5879 23.2333C64.5915 23.2315 64.5949 23.2299 64.5982 23.2278C64.5952 23.2296 64.5915 23.2315 64.5879 23.2333ZM64.6016 23.2263C64.6052 23.2245 64.6083 23.2232 64.6113 23.2214C64.6083 23.2232 64.6049 23.2248 64.6016 23.2263ZM64.6132 23.2202C64.6168 23.2184 64.6208 23.2168 64.6244 23.215C64.6211 23.2165 64.6168 23.2184 64.6132 23.2202ZM64.6275 23.2132C64.6311 23.2114 64.6351 23.2092 64.6388 23.2074C64.6351 23.2092 64.6311 23.2114 64.6275 23.2132ZM64.6409 23.2065C64.6439 23.2047 64.6473 23.2031 64.6507 23.2016C64.6473 23.2031 64.6439 23.2047 64.6409 23.2065ZM64.6534 23.2001C64.6571 23.1983 64.661 23.1961 64.6644 23.1946C64.6607 23.1964 64.6574 23.198 64.6534 23.2001ZM64.6671 23.1931C64.6708 23.1913 64.6744 23.1894 64.6781 23.1876C64.6744 23.1894 64.6708 23.1913 64.6671 23.1931ZM64.6793 23.187C64.683 23.1852 64.6869 23.183 64.6909 23.1815C64.6869 23.183 64.683 23.1852 64.6793 23.187ZM64.6936 23.18C64.6973 23.1782 64.7013 23.176 64.7049 23.1742C64.7013 23.176 64.6973 23.1782 64.6936 23.18ZM64.7065 23.1739C64.7101 23.1721 64.7138 23.1703 64.7174 23.1684C64.7138 23.1703 64.7098 23.1718 64.7065 23.1739ZM64.7196 23.1669C64.7232 23.1651 64.7275 23.1633 64.7315 23.1611C64.7275 23.1633 64.7232 23.1651 64.7196 23.1669ZM64.733 23.1608C64.7366 23.159 64.7406 23.1569 64.7449 23.155C64.7406 23.1569 64.7369 23.1587 64.733 23.1608ZM64.7455 23.1544C64.7494 23.1523 64.7537 23.1505 64.7577 23.1483C64.7534 23.1502 64.7497 23.152 64.7455 23.1544ZM64.7598 23.1474C64.7638 23.1453 64.7674 23.1435 64.7717 23.1416C64.7674 23.1435 64.7638 23.1453 64.7598 23.1474ZM64.7723 23.141C64.7766 23.1392 64.7799 23.1377 64.7842 23.1358C64.7802 23.1374 64.7763 23.1395 64.7723 23.141ZM64.786 23.1346C64.79 23.1325 64.7943 23.1307 64.7982 23.1285C64.7943 23.1307 64.79 23.1325 64.786 23.1346ZM64.8 23.1279C64.8037 23.1261 64.8071 23.1246 64.811 23.1224C64.8071 23.1246 64.8034 23.1264 64.8 23.1279ZM64.8125 23.1221C64.8162 23.1203 64.8208 23.1182 64.8244 23.1163C64.8202 23.1182 64.8165 23.12 64.8125 23.1221ZM64.8269 23.1151C64.8308 23.113 64.8351 23.1112 64.8391 23.109C64.8351 23.1112 64.8308 23.113 64.8269 23.1151ZM64.8391 23.109C64.8433 23.1072 64.8479 23.1051 64.8525 23.103C64.8479 23.1051 64.8433 23.1072 64.8391 23.109Z" fill="#D9D9EA"/>
<path d="M66.7852 22.4354C69.8697 21.7454 73.0898 22.7071 75.2955 24.9129C75.552 25.1693 75.7949 25.4427 76.0219 25.732C75.7949 25.4427 75.552 25.1693 75.2955 24.9129C73.0901 22.7075 69.8696 21.7454 66.7858 22.4354L66.7852 22.4354Z" fill="white"/>
<path d="M64.9062 23.0774C65.5207 22.7909 66.1501 22.5783 66.786 22.4362L66.787 22.4358C66.1505 22.5786 65.521 22.7906 64.9062 23.0774ZM77.3242 27.9828C77.3235 27.9807 77.3224 27.979 77.3217 27.9769C77.3224 27.979 77.3235 27.9807 77.3242 27.9828ZM77.3203 27.9734C77.3189 27.9692 77.3172 27.966 77.3158 27.9625C77.3172 27.966 77.3189 27.9699 77.3203 27.9734Z" fill="#D9D9EA"/>
<path d="M76.8713 27.0252L76.871 27.0249C76.7643 26.8284 76.651 26.6364 76.5318 26.4502C76.651 26.6364 76.7642 26.8284 76.8713 27.0252Z" fill="white"/>
<path d="M77.3161 27.9617C77.2475 27.794 77.174 27.6277 77.0949 27.462C77.0246 27.3135 76.9501 27.1685 76.8724 27.0252L76.8728 27.0256C76.9501 27.1685 77.0246 27.3135 77.0949 27.462C77.174 27.6277 77.2478 27.7944 77.3161 27.9617Z" fill="#D9D9EA"/>
<path d="M59.848 29.3114C60.4272 26.8336 62.0256 24.6175 64.4101 23.3274C64.4156 23.3248 64.4203 23.3223 64.4251 23.3197C64.4255 23.3193 64.4262 23.3186 64.4269 23.3186C64.4291 23.3171 64.4317 23.316 64.4343 23.3149C64.435 23.3142 64.435 23.3142 64.4357 23.3135C64.4401 23.3113 64.4445 23.3091 64.4493 23.3065C64.4504 23.3062 64.4511 23.3054 64.4522 23.3051C64.4559 23.3029 64.4603 23.3007 64.464 23.2985C64.4654 23.2977 64.4665 23.2974 64.4673 23.2966C64.4691 23.2955 64.4717 23.2944 64.4739 23.2937C64.475 23.2926 64.4768 23.2922 64.4779 23.2911C64.4816 23.2897 64.4845 23.2882 64.4875 23.286C64.4897 23.2853 64.4915 23.2842 64.493 23.2834C64.4948 23.2823 64.4974 23.2812 64.4988 23.2805C64.5007 23.2794 64.5025 23.2783 64.5043 23.2772C64.5073 23.2757 64.5102 23.2743 64.5131 23.2728C64.515 23.2717 64.5168 23.2706 64.5186 23.2695C64.5208 23.2688 64.5223 23.268 64.5241 23.2669C64.5271 23.2655 64.53 23.264 64.5333 23.2622C64.5348 23.2614 64.5366 23.2603 64.5381 23.2596C64.5403 23.2581 64.5428 23.257 64.545 23.2556C64.5469 23.2552 64.5487 23.2541 64.5506 23.253C64.5535 23.2515 64.5561 23.2504 64.559 23.249C64.5605 23.2475 64.5623 23.2471 64.5638 23.2464C64.5667 23.2449 64.5696 23.2435 64.5729 23.2417C64.5744 23.2409 64.5759 23.2402 64.5773 23.2395C64.5803 23.238 64.5821 23.2369 64.585 23.2354C64.5865 23.2347 64.5876 23.2343 64.5891 23.2329C64.5924 23.2318 64.596 23.2296 64.5993 23.2277C64.6004 23.2274 64.6019 23.2266 64.603 23.2263C64.6059 23.2248 64.6092 23.223 64.6122 23.2215C64.6133 23.2211 64.6136 23.2208 64.6144 23.22C64.6181 23.2186 64.6217 23.2164 64.6254 23.2149C64.6265 23.2138 64.6276 23.2134 64.6287 23.2131C64.632 23.2112 64.636 23.2094 64.6397 23.2072C64.6404 23.2072 64.6412 23.2072 64.6419 23.2065C64.6452 23.2046 64.6485 23.2035 64.6514 23.2013C64.6525 23.201 64.6536 23.2006 64.6544 23.1999C64.6584 23.198 64.6617 23.1962 64.6657 23.1944C64.6665 23.1936 64.6672 23.1936 64.6683 23.1933C64.672 23.1911 64.6756 23.1896 64.6789 23.1878C64.6793 23.1874 64.6793 23.1874 64.6804 23.187C64.6841 23.1848 64.6878 23.1834 64.6918 23.1816C64.6925 23.1808 64.6936 23.1805 64.6947 23.1801C64.6984 23.1779 64.7024 23.1761 64.7057 23.1742C64.7068 23.1739 64.7068 23.1739 64.7076 23.1739C64.7109 23.172 64.7149 23.1702 64.7186 23.168C64.7189 23.1676 64.72 23.1673 64.7204 23.1669C64.7244 23.1651 64.7285 23.1632 64.7325 23.1614C64.7332 23.1607 64.7332 23.1607 64.734 23.1607C64.7376 23.1585 64.7417 23.1566 64.7457 23.1548C64.7457 23.1548 64.7461 23.1544 64.7468 23.1544C64.7505 23.1522 64.7545 23.1504 64.7586 23.1486C64.7589 23.1482 64.76 23.1478 64.7608 23.1471C64.7648 23.1453 64.7688 23.1434 64.7729 23.1416C64.7732 23.1412 64.7732 23.1412 64.7732 23.1412C64.7773 23.1394 64.7813 23.1376 64.7853 23.1358C64.7857 23.1354 64.7864 23.1346 64.7872 23.1346C64.7908 23.1324 64.7952 23.131 64.7989 23.1288C64.8 23.1284 64.8004 23.1281 64.8007 23.1277C64.8048 23.1266 64.8084 23.1244 64.8121 23.1229C64.8125 23.1226 64.8129 23.1222 64.8136 23.1222C64.8173 23.12 64.8213 23.1182 64.8253 23.1163C64.8264 23.116 64.8268 23.1156 64.8279 23.1152C64.8316 23.113 64.8363 23.1112 64.84 23.109C64.844 23.1072 64.8492 23.105 64.8536 23.1028C64.8712 23.0947 64.8895 23.0859 64.9075 23.0775C65.522 22.7906 66.1516 22.5789 66.7878 22.4363C69.8715 21.7457 73.0918 22.7084 75.2971 24.9138C75.5535 25.1701 75.7966 25.4434 76.0236 25.7327C76.204 25.9622 76.3744 26.2016 76.5339 26.4513C76.6533 26.6374 76.7665 26.8291 76.8738 27.0259C76.9509 27.169 77.0256 27.3141 77.0961 27.4624C77.1752 27.6279 77.2487 27.7946 77.3167 27.9624L77.3171 27.9627C77.3185 27.9664 77.3196 27.9697 77.3215 27.9737C77.3215 27.9745 77.3226 27.9763 77.3226 27.9771C77.3233 27.9793 77.3244 27.9811 77.3251 27.9833C78.0046 29.6631 78.1505 31.4402 77.8346 33.1156C77.7741 33.2091 77.7125 33.3008 77.6488 33.3918C77.7372 31.8924 77.4594 30.3486 76.7658 28.8959C76.3019 27.9224 75.6892 27.0683 74.9679 26.347C72.2906 23.6697 68.1192 22.8252 64.51 24.5429C63.0276 25.2483 61.8228 26.2996 60.944 27.5544C60.968 27.1654 61.0154 26.7794 61.0867 26.3981C60.5086 27.2913 60.0899 28.2786 59.848 29.3114Z" fill="#48D7C9"/>
<path d="M59.703 30.0739C59.7404 29.8177 59.789 29.563 59.8479 29.3113C60.0893 28.2786 60.5083 27.2914 61.0864 26.3977C61.0151 26.7787 60.9674 27.1648 60.9437 27.5542C60.402 28.3279 59.9851 29.1793 59.703 30.0739ZM77.5671 34.1802C77.6053 33.9188 77.6325 33.656 77.6482 33.3913C77.7123 33.3006 77.7735 33.2083 77.834 33.1154C77.7663 33.4756 77.6773 33.8314 77.5671 34.1802Z" fill="#D980A2"/>
<path d="M74.8945 25.3265C72.3837 22.8157 68.4664 22.0193 65.086 23.628C60.798 25.6687 58.9746 30.8207 61.022 35.1122C63.0694 39.4036 68.2237 41.2341 72.5121 39.1931C76.8002 37.1523 78.6235 32.0003 76.5761 27.7089C76.1424 26.8002 75.5692 26.0012 74.8945 25.3265ZM61.8908 38.3058C61.126 37.5411 60.4764 36.636 59.985 35.6055C57.6647 30.7423 59.731 24.903 64.5912 22.5903C69.4509 20.2772 75.2926 22.352 77.6132 27.2156C79.933 32.0791 77.8667 37.9177 73.007 40.2308C69.1766 42.0536 64.736 41.1511 61.8908 38.3058Z" fill="#1B1F2C"/>
<path d="M71.149 36.337C68.4299 37.6312 65.1734 36.4747 63.8751 33.7537C62.5773 31.033 63.7291 27.7782 66.4478 26.4836C69.1673 25.1897 72.4238 26.3463 73.7217 29.0669C75.0199 31.7879 73.8681 35.0428 71.149 36.337Z" fill="#313131"/>
<path d="M71.502 33.0281C71.4596 33.0325 71.4167 33.0341 71.3735 33.033C70.6207 33.0154 70.0306 32.1608 70.0557 31.1242C70.0792 30.1473 70.6409 29.3574 71.3356 29.2847C71.3782 29.2803 71.4208 29.2785 71.464 29.2796C72.0726 29.2938 72.5747 29.8547 72.7317 30.6165C72.7237 31.0826 72.6886 31.5446 72.6274 32.0004C72.4107 32.5738 71.989 32.9771 71.502 33.0281Z" fill="#4D4D4D"/>
<path d="M68.8008 35.0553C68.7766 35.0043 68.7587 34.9496 68.7485 34.8922C68.6764 34.4893 68.998 34.0954 69.4666 34.0121C69.8684 33.9409 70.2478 34.1211 70.3934 34.4279C70.4176 34.479 70.4354 34.5336 70.4455 34.5911C70.5175 34.9941 70.1961 35.3882 69.7276 35.4711C69.3256 35.5424 68.9463 35.3622 68.8008 35.0553Z" fill="#4D4D4D"/>
<path d="M72.2826 27.9223C71.7702 27.4099 71.1465 27.0139 70.4436 26.7643C69.2015 26.3235 67.8632 26.3917 66.6745 26.9576C65.4858 27.5236 64.5891 28.5184 64.1502 29.7598C63.7105 31.0005 63.7818 32.3393 64.3491 33.5285C64.9164 34.7184 65.9125 35.6165 67.1546 36.0573C68.3963 36.4985 69.735 36.4299 70.9237 35.8639C72.1124 35.298 73.0087 34.3028 73.448 33.0618C73.8874 31.8207 73.8164 30.4823 73.2491 29.2931C73.0029 28.7766 72.6755 28.3152 72.2826 27.9223ZM64.5745 35.6411C64.0982 35.1649 63.7009 34.6054 63.4026 33.9792C62.7143 32.5365 62.6287 30.9132 63.1616 29.4083C63.6941 27.903 64.7811 26.697 66.2228 26.0109C67.6641 25.3243 69.2873 25.2412 70.793 25.7762C72.2991 26.311 73.507 27.4 74.1956 28.8424C74.8835 30.2847 74.9691 31.908 74.4366 33.4133C73.9041 34.9179 72.8168 36.1249 71.3754 36.8107C69.9337 37.4969 68.3106 37.5801 66.8045 37.0453C65.9527 36.7426 65.1959 36.2625 64.5745 35.6411Z" fill="#1B1F2C"/>
<path d="M13.9777 57.5026C13.9777 57.5026 13.9789 57.4969 13.9819 57.487C18.1915 40.5988 31.4619 41.9826 31.4619 41.9826L31.4628 41.9817L32.4208 42.8623L36.6223 46.7244L37.0608 53.7135C37.0608 53.7135 29.7714 64.8875 13.9777 57.5026Z" fill="#ED6F78"/>
<path d="M39.2337 48.4706L39.8498 45.1892L36.9101 43.5998C22.8241 42.9764 19.8515 54.7075 19.8515 54.7075C19.8515 54.7075 30.8456 59.7908 39.2337 48.4706Z" fill="#FEBF10"/>
<path d="M15.75 57.6482C21.2191 57.9622 25.9208 56.9902 29.1787 55.9818C29.8267 55.7811 30.3873 55.4381 30.8381 54.9988C32.3711 54.4626 33.9577 53.6286 35.5241 52.3766C35.5452 52.3981 35.5662 52.4192 35.5872 52.4402C35.9169 52.7698 36.215 53.0371 36.4557 53.24L36.4753 53.5488C36.048 54.1346 34.3089 56.3252 31.1882 57.8629C26.7734 60.0372 21.4641 59.9576 15.75 57.6482ZM30.5585 44.26C30.6476 43.7164 30.7891 43.2708 30.9341 42.9229C31.1058 42.9091 31.2804 42.8977 31.4552 42.8887C31.4648 43.2008 31.4883 43.5831 31.5364 44.0176C31.2009 44.0905 30.8758 44.1712 30.5585 44.26Z" fill="#C7515A"/>
<path d="M30.8374 54.9983C32.0443 53.8234 32.4696 51.9635 31.6963 50.3198C30.4424 47.6545 30.3309 45.64 30.5576 44.2595C30.8751 44.1708 31.1997 44.0897 31.5355 44.017C31.6712 45.2382 32.0062 46.8741 32.8017 48.5424C33.5979 50.2112 34.6591 51.5013 35.5231 52.3759C33.9565 53.6278 32.3703 54.4621 30.8374 54.9983Z" fill="#D9A30F"/>
<path d="M16.1481 52.874C18.034 48.6405 20.826 45.6473 24.4858 43.9489C27.5138 42.5439 30.2394 42.5058 31.1134 42.5366C31.055 42.6482 30.9939 42.7767 30.9332 42.9224C23.151 43.5407 18.5509 48.841 16.1481 52.874Z" fill="#F79BA2"/>
<path d="M30.933 42.9225C30.9936 42.7768 31.0549 42.6483 31.1131 42.5366C31.1538 42.5382 31.1909 42.5398 31.2234 42.5415L31.4509 42.7505C31.4519 42.7948 31.4527 42.8408 31.4542 42.8883C31.2793 42.8972 31.1047 42.9087 30.933 42.9225Z" fill="#D9A194"/>
<path d="M31.2238 42.541C30.4941 42.5048 27.6556 42.4778 24.4863 43.9488C19.6888 46.1753 16.3823 50.6254 14.6543 57.1799C20.7843 59.9375 26.4922 60.1749 31.1878 57.8621C34.3086 56.3247 36.0476 54.1341 36.4747 53.548L36.064 46.9897L31.2238 42.541ZM13.5723 57.9078C13.4329 57.7683 13.3711 57.5624 13.4209 57.3622C15.648 48.4091 20.4343 44.5453 24.0574 42.8807C28.0006 41.0687 31.3805 41.3953 31.5223 41.4101C31.6454 41.423 31.7613 41.4754 31.8523 41.559L37.0622 46.3481L37.1747 46.3412L37.1817 46.4578L37.2681 46.5373L37.1923 46.6199L37.6342 53.6787C37.6422 53.8023 37.6096 53.9244 37.542 54.0281C37.4642 54.1474 35.5892 56.9753 31.6966 58.8932C28.1199 60.6549 22.1006 61.934 13.7353 58.0219C13.6736 57.9929 13.6186 57.9541 13.5723 57.9078Z" fill="#1B1F2C"/>
<path d="M49.5898 46.4473C46.7379 48.5789 42.7199 51.0189 37.061 53.7134C37.061 53.7134 34.3985 51.8886 32.8025 48.5426C31.2061 45.1962 31.4641 41.9805 31.4641 41.9805C32.1256 41.6657 32.7695 41.3659 33.3981 41.0822C38.1452 38.9284 41.9558 37.6077 45.0045 36.8391C54.2759 34.5012 56.4912 37.2679 56.4912 37.2679L56.4898 37.2692L56.4908 37.2702C56.5085 37.3558 57.1508 40.8019 49.5898 46.4473Z" fill="#E1E1E1"/>
<path d="M49.5884 46.4481C44.6982 42.1069 45.0042 36.8389 45.0042 36.8389C54.2747 34.5002 56.4892 37.2681 56.4892 37.2681C56.4892 37.2681 57.2467 40.7294 49.5884 46.4481Z" fill="#29BAAC"/>
<path d="M54.0508 35.9081C55.5886 36.2339 56.2559 36.7993 56.4369 36.9803C56.474 37.0175 56.4904 37.0382 56.4904 37.0382C56.4904 37.0382 56.5198 37.1713 56.5083 37.4289C56.5035 37.3336 56.4934 37.2801 56.4912 37.2704C56.4909 37.2694 56.4909 37.2688 56.4909 37.2688L56.4912 37.2685C56.4912 37.2685 56.4745 37.2474 56.438 37.2109C56.3127 37.0856 55.953 36.7749 55.2305 36.4875C54.8488 36.2786 54.4545 36.0861 54.0508 35.9081Z" fill="white"/>
<path d="M45.0007 36.84C44.9996 36.6901 45.0042 36.6085 45.0042 36.6085C45.1134 36.5812 45.2217 36.5542 45.3291 36.5281C45.3495 36.6002 45.3699 36.6716 45.3908 36.7436C45.2631 36.7746 45.1345 36.8065 45.0041 36.839C45.0028 36.8397 45.0022 36.8397 45.0007 36.84ZM46.5127 36.4896C46.4918 36.417 46.4705 36.3446 46.4498 36.2723C50.107 35.496 52.5134 35.5818 54.0497 35.9076C54.4536 36.0852 54.848 36.2785 55.2294 36.4871C55.0983 36.4347 54.9552 36.3832 54.7994 36.3338C53.4037 35.8915 50.9885 35.6112 47.0011 36.3906C46.8411 36.4218 46.678 36.455 46.5127 36.4896Z" fill="#D9D9EA"/>
<path d="M45.3916 36.7437C45.3705 36.6714 45.3502 36.6 45.3299 36.5281C45.716 36.4339 46.0889 36.349 46.4502 36.2723C46.4711 36.3443 46.4922 36.4171 46.5131 36.4896C46.1523 36.5652 45.7774 36.6504 45.3916 36.7437Z" fill="#8080B9"/>
<path d="M45.0022 36.9172C45.0012 36.8899 45.0009 36.8638 45.0009 36.8399C45.0024 36.8396 45.0027 36.8393 45.004 36.8393C45.1346 36.8061 45.2633 36.7748 45.3911 36.7438C45.777 36.6502 46.1518 36.5651 46.5126 36.4897C46.6784 36.4546 46.841 36.4221 47.0011 36.3902C46.3751 36.5128 45.7101 36.6611 45.0046 36.8393C45.0046 36.8393 45.0031 36.866 45.0022 36.9172ZM54.7995 36.3337C54.9552 36.3834 55.0982 36.4347 55.2295 36.4869C55.9522 36.7742 56.312 37.085 56.4374 37.2104C56.4738 37.2468 56.4905 37.2679 56.4905 37.2679L56.4902 37.2682C56.4899 37.2679 56.4899 37.2679 56.4899 37.2679C56.4899 37.2679 56.4735 37.2472 56.4368 37.2104C56.2881 37.0617 55.813 36.6551 54.7995 36.3337Z" fill="white"/>
<path d="M45.286 39.0928C45.0598 38.0984 45.0109 37.3227 45.0033 36.9179C45.0042 36.8668 45.0058 36.8401 45.0058 36.8401C45.7113 36.6619 46.3763 36.5135 47.0027 36.3912C50.9899 35.6119 53.4053 35.8922 54.8005 36.3348C55.8141 36.6561 56.2895 37.0625 56.4382 37.2111C56.4749 37.2479 56.491 37.269 56.491 37.269C56.491 37.269 56.491 37.269 56.4913 37.2693C56.4913 37.2693 56.4919 37.2699 56.4916 37.2709L56.4907 37.2699C56.4907 37.2699 56.2559 37.4651 55.8294 37.8023C54.499 37.1523 51.4553 36.4237 45.2371 37.9921C45.2371 37.9921 45.2136 38.4047 45.286 39.0928Z" fill="#48D7C9"/>
<path d="M35.5864 52.4392C35.5655 52.4183 35.5445 52.3973 35.5232 52.3755C34.6594 51.5012 33.5979 50.2107 32.8019 48.5421C32.0063 46.8738 31.6714 45.2379 31.5357 44.0167C31.4801 43.5159 31.4579 43.0847 31.4512 42.7501C31.441 42.2637 31.4641 41.9805 31.4641 41.9805C32.1255 41.6656 32.7692 41.3657 33.3977 41.0818C33.4975 41.7703 33.6543 42.4037 33.8471 42.9824C34.1351 43.8465 34.6115 44.5956 35.2147 45.1987C36.722 46.706 39.0218 47.3056 41.1629 46.5375C43.1789 45.8134 45.2401 44.7909 47.1711 43.6875C47.647 44.4011 48.2274 45.1242 48.9339 45.8307C49.1409 46.0377 49.3593 46.2437 49.5884 46.4474C47.5949 47.9379 45.031 49.579 41.7352 51.3523C41.5126 51.4718 41.2867 51.5922 41.0576 51.7131C39.9868 52.2776 38.843 52.8553 37.6195 53.4458C37.435 53.5344 37.2484 53.6237 37.0609 53.7133C37.0609 53.7133 36.8263 53.5525 36.455 53.2392C36.2143 53.0362 35.9161 52.7689 35.5864 52.4392ZM54.8461 41.4403C56.4427 39.2827 56.5321 37.8847 56.5079 37.4297C56.5079 37.4297 56.5083 37.4287 56.5079 37.4284C56.5324 37.8811 56.4449 39.2798 54.8461 41.4403Z" fill="#C5C5C5"/>
<path d="M48.9336 45.8308C48.227 45.1241 47.6467 44.401 47.1707 43.6874C51.0788 41.4538 54.4516 38.8892 55.8275 37.8009C56.0763 37.9226 56.2648 38.0413 56.4034 38.1412C56.4723 37.8466 56.4996 37.6086 56.5075 37.43C56.5315 37.8845 56.4427 39.2825 54.8456 41.4401C53.8268 42.8164 52.1955 44.5008 49.5887 46.4468C49.5885 46.447 49.5883 46.4472 49.588 46.4474C49.3591 46.2438 49.1405 46.0377 48.9336 45.8308Z" fill="#1B9286"/>
<path d="M56.508 37.4308C56.503 37.3341 56.4929 37.2798 56.4907 37.27C56.4932 37.2795 56.5033 37.3332 56.508 37.4289C56.5083 37.4298 56.508 37.4302 56.508 37.4308Z" fill="#B2B2D4"/>
<path d="M55.8291 37.8015C56.2554 37.4645 56.4904 37.2695 56.4904 37.2695L56.4913 37.2704C56.4935 37.2802 56.5037 37.334 56.5088 37.4302C56.5007 37.6087 56.4737 37.8473 56.4046 38.1418C56.266 38.0417 56.0776 37.9229 55.8291 37.8015Z" fill="#B2598D"/>
<path d="M33.32 48.2963C34.5413 50.8558 36.4393 52.5043 37.1261 53.0455C47.577 48.0342 52.1482 43.9598 54.1433 41.4142C55.8038 39.2961 55.9438 37.9576 55.9383 37.5351C55.1889 36.9301 50.0817 33.821 32.0244 42.3522C32.0125 43.2249 32.0986 45.7361 33.32 48.2963ZM35.1762 52.8451C34.266 51.9349 33.1339 50.573 32.2829 48.7894C30.6392 45.3437 30.8796 42.0726 30.8906 41.9353C30.9066 41.7308 31.0308 41.551 31.2157 41.4629C39.9458 37.3083 46.873 35.244 51.8063 35.3287C55.6159 35.3936 56.8135 36.756 56.9382 36.9101C56.9936 36.9792 57.0322 37.0603 57.0509 37.1464C57.0936 37.3407 57.3977 39.1272 55.0481 42.1242C52.0064 46.0038 46.0379 50.078 37.3079 54.2331C37.1232 54.3209 36.9053 54.3038 36.7361 54.1877C36.6812 54.1502 36.0249 53.6938 35.1762 52.8451Z" fill="#1B1F2C"/>
<path d="M48.5195 46.2301C44.1898 41.9004 44.418 37.0211 44.4307 36.8053L45.5779 36.8736L45.0043 36.8398L45.5782 36.8726C45.5754 36.9224 45.3639 41.9296 49.97 46.0196L49.2077 46.8783C48.9666 46.6643 48.7368 46.4474 48.5195 46.2301Z" fill="#1B1F2C"/>
<path d="M37.842 51.7574C32.829 46.7443 33.3574 41.0307 33.3846 40.771L34.5273 40.8923L33.9559 40.8317L34.5273 40.891C34.5212 40.9534 33.965 47.2186 39.8885 52.0607L39.1618 52.9501C38.6842 52.5595 38.2449 52.1602 37.842 51.7574Z" fill="#1B1F2C"/>
<path d="M11.6302 37.4687L11.6279 37.4687L11.6279 37.4664L11.6272 37.4657C15.5223 24.0787 26.7214 25.0995 26.7214 25.0995L26.7225 25.1007L26.7216 25.1016L27.3257 26.3669L30.7531 33.5503C30.7531 33.5503 24.4945 42.8812 11.6302 37.4687Z" fill="#ED6F78"/>
<path d="M16.6307 35.0871C16.6307 35.0871 18.5839 27.3744 27.4737 26.6792L29.9992 31.9729C23.8586 38.43 16.6307 35.0871 16.6307 35.0871Z" fill="#FEBF10"/>
<path d="M13.5068 37.5691C18.8163 37.7156 22.6559 36.6252 25.0441 35.6083C25.4656 35.4288 25.823 35.165 26.1062 34.8449C27.1272 34.3613 28.165 33.6883 29.1838 32.7678C29.2119 32.7968 29.2402 32.8256 29.2682 32.8535C29.5541 33.1395 29.8227 33.3639 30.0461 33.5325C29.5152 34.2004 28.061 35.834 25.6989 37.0552C22.0958 38.9181 18.0011 39.0893 13.5068 37.5691ZM25.7354 26.9169C25.7772 26.721 25.8292 26.5423 25.8878 26.3803C26.1489 26.3637 26.4139 26.3546 26.6821 26.3539L26.6922 26.3756C26.6958 26.5049 26.7012 26.6318 26.7084 26.7574C26.3736 26.8007 26.0495 26.8542 25.7354 26.9169Z" fill="#C7515A"/>
<path d="M26.1065 34.8455C26.8865 33.9654 27.1072 32.6609 26.5688 31.5196C25.591 29.4471 25.5177 27.9448 25.7356 26.9175C26.0497 26.8548 26.3739 26.8014 26.7086 26.7581C26.883 29.7817 28.134 31.6862 29.184 32.7684C28.1652 33.6889 27.1274 34.3619 26.1065 34.8455Z" fill="#D9A30F"/>
<path d="M13.24 34.7002C14.9148 30.9247 17.4531 28.278 20.8131 26.8126C23.2077 25.7679 25.3599 25.6543 26.244 25.6589C26.1218 25.8475 25.9948 26.0871 25.8888 26.3808C19.5978 26.7767 15.369 31.5469 13.24 34.7002Z" fill="#F79BA2"/>
<path d="M25.8884 26.3811C25.9944 26.0874 26.1214 25.8478 26.2437 25.6592C26.2819 25.6592 26.3179 25.6597 26.3513 25.6604L26.6827 26.3547C26.4145 26.3554 26.1495 26.3645 25.8884 26.3811Z" fill="#D9A194"/>
<path d="M26.351 25.6601C25.5454 25.6462 23.3109 25.7226 20.8125 26.8126C16.7713 28.5754 13.9186 32.0466 12.3275 37.1355C17.2867 39.1068 21.7831 39.0803 25.6991 37.0557C28.1201 35.8043 29.5871 34.1196 30.0842 33.4851L26.351 25.6601ZM11.2208 37.8755C11.0762 37.7309 11.0147 37.5147 11.0747 37.3081C13.1491 30.1761 17.2937 27.0785 20.4059 25.7359C23.7876 24.2766 26.6518 24.5181 26.7718 24.529C26.9737 24.5476 27.1517 24.6708 27.2389 24.8543L31.2703 33.3039C31.3576 33.487 31.3418 33.7029 31.2288 33.8712C31.1618 33.9714 29.5455 36.3451 26.2803 38.0495C23.2762 39.6179 18.2565 40.882 11.4043 37.9987C11.3338 37.9691 11.272 37.9267 11.2208 37.8755Z" fill="#1B1F2C"/>
<path d="M50.4057 23.0648L50.4046 23.0659C50.3397 23.1287 48.1113 25.282 43.1318 28.1493C40.066 29.9171 35.9561 31.9519 30.6685 33.94C30.6685 33.94 26.2699 31.7078 26.7204 25.0988C26.7204 25.0988 27.6608 24.5759 29.2217 23.8975C32.0926 22.6508 37.0609 20.886 42.122 20.9082C44.9649 20.9213 47.8371 21.4994 50.3824 23.0525C50.3905 23.0559 50.3978 23.0617 50.4057 23.0648Z" fill="#E1E1E1"/>
<path d="M43.1322 28.1507C41.3591 24.0305 42.1224 20.9097 42.1224 20.9097C44.966 20.9225 47.8374 21.5004 50.3833 23.0535C50.3906 23.0572 50.3984 23.0624 50.406 23.0663C50.406 23.0663 48.1857 25.2397 43.1322 28.1507Z" fill="#29BAAC"/>
<path d="M50.3828 23.0529C50.3845 23.0539 50.3865 23.0552 50.3889 23.0562C50.3889 23.0562 50.3886 23.0559 50.3882 23.0562C50.3865 23.0552 50.3845 23.0539 50.3828 23.0529Z" fill="#8080B9"/>
<path d="M42.1221 20.9098C43.5437 20.916 44.9724 21.0639 46.3641 21.4039C44.9724 21.0639 43.5437 20.916 42.1221 20.9098ZM50.3876 23.0564C50.3879 23.0561 50.3879 23.0561 50.3879 23.0561C50.3918 23.0584 50.3959 23.0611 50.4001 23.0637C50.3959 23.0611 50.3918 23.0584 50.3876 23.0564Z" fill="white"/>
<path d="M41.9741 22.1106C42.0148 21.3482 42.1216 20.911 42.1219 20.9091C43.5435 20.9154 44.9721 21.063 46.364 21.4033C47.7554 21.7435 49.1099 22.2762 50.3827 23.0529C50.3846 23.0537 50.3859 23.0545 50.3872 23.0552C50.3916 23.0576 50.3958 23.0602 50.3997 23.0626C50.4015 23.0639 50.4033 23.0646 50.4052 23.0654C50.4052 23.0654 50.4049 23.0657 50.4044 23.0662C50.3947 23.0675 49.819 23.1516 48.8429 23.336C46.6745 22.3459 44.3321 21.9561 42.0074 21.9458C42.0074 21.9458 41.9933 22.0037 41.9741 22.1106Z" fill="#48D7C9"/>
<path d="M29.2683 32.8535C29.2403 32.8256 29.2122 32.7969 29.184 32.7677C28.1342 31.6856 26.883 29.7809 26.7087 26.7576C26.6785 26.2381 26.6805 25.6861 26.7205 25.0992C26.7205 25.0992 27.6609 24.5763 29.2221 23.8976C29.2182 23.9745 29.2164 24.0509 29.2165 24.1266C29.2155 25.2105 29.6511 26.149 30.334 26.8319C31.4584 27.9569 33.253 28.3887 34.8722 27.6389C37.3105 26.5101 39.8548 25.6248 42.1622 24.9467C42.333 25.9028 42.631 26.9867 43.1317 28.1503C41.6737 28.9904 39.9802 29.8911 38.0362 30.8185C37.3561 31.1432 36.6456 31.4707 35.9037 31.8003C34.4872 32.4292 32.956 33.0654 31.3072 33.6975C31.0963 33.7785 30.8839 33.8594 30.6685 33.9401C30.6685 33.9401 30.4194 33.814 30.0463 33.5326C29.823 33.364 29.5543 33.1395 29.2683 32.8535ZM45.5278 26.6973C47.4221 25.4862 48.7293 24.4879 49.5098 23.8468C48.729 24.4882 47.4221 25.4867 45.5278 26.6973ZM50.3851 23.0853C50.396 23.0748 50.4028 23.0681 50.4046 23.0662C50.4049 23.0665 50.4049 23.0665 50.4049 23.0665C50.402 23.0688 50.3955 23.0754 50.3851 23.0853Z" fill="#C5C5C5"/>
<path d="M43.1334 28.1507C42.6327 26.9871 42.3346 25.9032 42.1639 24.9471C44.9289 24.1341 47.3535 23.618 48.8446 23.3367C49.1143 23.4599 49.3822 23.5929 49.6469 23.7352C50.1452 23.3199 50.3925 23.0804 50.4063 23.0666C50.4045 23.0685 50.3977 23.0752 50.3867 23.0857C50.3099 23.1589 50.0238 23.4267 49.5114 23.8472C48.7309 24.4883 47.4237 25.4866 45.5295 26.6977C44.8156 27.1538 44.0178 27.6405 43.1337 28.1499C43.1334 28.1502 43.1334 28.1502 43.1334 28.1502" fill="#1B9286"/>
<path d="M48.8438 23.3373C49.8199 23.1529 50.3958 23.0686 50.4055 23.0673C50.3917 23.0811 50.1444 23.3205 49.6461 23.7358C49.3814 23.5935 49.1135 23.4606 48.8438 23.3373Z" fill="#B2598D"/>
<path d="M27.2763 25.4574C27.0447 30.6076 29.9033 32.7904 30.7211 33.3072C41.8563 29.0889 47.675 24.647 49.4258 23.1677C41.0262 18.714 29.2216 24.4499 27.2763 25.4574ZM28.8399 33.2476C27.5063 31.914 25.8547 29.365 26.1483 25.061C26.1614 24.8672 26.2718 24.6935 26.4411 24.599C26.5883 24.5172 30.0946 22.5801 34.8388 21.3371C41.1799 19.6752 46.6669 20.1035 50.7061 22.5763C50.8576 22.6683 50.9575 22.8256 50.9774 23.0018C50.9976 23.1778 50.9355 23.3531 50.809 23.4771C50.5713 23.7095 44.8319 29.2333 30.8721 34.4788C30.7215 34.5355 30.5537 34.5267 30.4099 34.4534C30.3369 34.4162 29.6466 34.0544 28.8399 33.2476Z" fill="#1B1F2C"/>
<path d="M31.2767 32.7149C27.7709 29.2091 28.2127 24.2526 28.2353 24.0252L29.3788 24.1389C29.3738 24.1933 28.9037 29.6185 33.0146 32.7056L32.3254 33.6241C31.9415 33.336 31.5931 33.0313 31.2767 32.7149Z" fill="#1B1F2C"/>
<path d="M42.6045 28.3769C40.777 24.1281 41.5314 20.9073 41.5646 20.7723L42.6811 21.045C42.6742 21.0745 41.9934 24.0497 43.66 27.9242L42.6045 28.3769Z" fill="#1B1F2C"/>
<path d="M28.0749 71.9449L28.076 71.9438L28.0773 71.9386L28.0796 71.9363C31.5909 59.8718 41.0362 59.5157 42.8606 59.5634C43.0604 59.5669 43.1695 59.577 43.1695 59.577L46.5854 66.7398L47.1997 68.0264C47.1997 68.0264 40.9402 77.3585 28.0749 71.9449Z" fill="#ED6F78"/>
<path d="M33.08 69.5642C33.08 69.5642 40.308 72.9072 46.448 66.4486L43.9227 61.1551C35.0336 61.8514 33.08 69.5642 33.08 69.5642Z" fill="#FEBF10"/>
<path d="M29.3159 70.0695C30.9765 65.816 33.642 62.8672 37.2611 61.2888C39.699 60.2253 41.8857 60.1264 42.7387 60.1352C42.7278 60.4422 42.7354 60.8333 42.7902 61.2865C41.1783 61.536 39.8199 62.0266 38.6794 62.65C38.6746 62.6511 38.6695 62.6525 38.6644 62.6538C34.4486 63.7273 31.0454 67.6791 29.3159 70.0695ZM45.4644 67.3939C45.6115 67.2656 45.7583 67.1315 45.9042 66.9923C45.9947 67.075 46.0875 67.1567 46.1828 67.2383C46.0765 67.3641 45.97 67.4864 45.8611 67.6065C45.7277 67.5412 45.5952 67.4699 45.4644 67.3939Z" fill="#C7515A"/>
<path d="M38.6797 62.6496C39.82 62.0262 41.1783 61.5354 42.79 61.2857C42.9591 62.689 43.5794 64.6853 45.5049 66.6109C45.6321 66.738 45.7653 66.8652 45.9043 66.9918C45.7584 67.1309 45.6112 67.2647 45.4645 67.3935C44.7783 66.9936 44.1291 66.4494 43.5462 65.8665C42.8435 65.1639 42.2371 64.4045 41.7782 63.7744C41.6871 63.6492 41.5873 63.5327 41.4799 63.4253C40.7552 62.7007 39.6933 62.3968 38.6797 62.6496Z" fill="#D9A30F"/>
<path d="M31.5332 72.5138C35.3342 72.841 41.481 72.4511 45.8607 67.606C46.0665 67.7064 46.2745 67.7924 46.485 67.8615L46.5326 67.9611C46.0354 68.5954 44.5682 70.2801 42.1474 71.5315C38.9707 73.1742 35.4114 73.5012 31.5332 72.5138Z" fill="#F79BA2"/>
<path d="M45.8619 67.6064C45.9706 67.4863 46.0772 67.3639 46.1838 67.2384C46.1863 67.2405 46.1895 67.2432 46.1918 67.2455L46.486 67.8616C46.2757 67.7927 46.0675 67.7065 45.8619 67.6064Z" fill="#D9A194"/>
<path d="M42.7994 60.1359C41.994 60.1221 39.7592 60.1987 37.2609 61.2888C33.2193 63.0513 30.3669 66.5228 28.7759 71.6117C33.7349 73.5829 38.2315 73.5566 42.1474 71.5317C44.5683 70.2804 46.0352 68.5955 46.5325 67.9612L42.7994 60.1359ZM27.6688 72.3514C27.5245 72.2071 27.4633 71.9911 27.523 71.7842C29.5974 64.6521 33.7421 61.5546 36.8541 60.2119C40.2358 58.7527 43.1 58.9937 43.2204 59.005C43.4222 59.0234 43.5999 59.1468 43.6872 59.3304L47.7185 67.7799C47.8058 67.963 47.79 68.1789 47.6771 68.3473C47.61 68.4474 45.9938 70.8213 42.7287 72.5257C39.7245 74.094 34.705 75.3584 27.8526 72.4749C27.7821 72.4453 27.72 72.4026 27.6688 72.3514Z" fill="#1B1F2C"/>
<path d="M48.4533 67.468C47.6716 67.8391 47.201 68.0275 47.201 68.0275C41.7789 64.214 42.8142 59.3956 42.8142 59.3956C47.6912 56.5449 51.8629 54.64 55.1672 53.3754C60.6134 51.2883 63.7023 50.9343 63.7023 50.9343C63.7002 50.9434 63.6991 50.9533 63.6979 50.9608C63.3019 53.9151 61.9431 56.5058 60.1614 58.7202C56.4502 63.3338 50.9107 66.3039 48.4533 67.468Z" fill="#E1E1E1"/>
<path d="M55.1665 53.3745C57.2538 57.3454 60.1613 58.7188 60.1613 58.7188C61.9424 56.5049 63.3019 53.9136 63.6979 50.9601C63.6996 50.9521 63.7003 50.9428 63.702 50.9348C63.702 50.9348 60.6134 51.2881 55.1665 53.3745Z" fill="#29BAAC"/>
<path d="M45.5035 66.611C42.9567 64.0642 42.6933 61.3936 42.7373 60.1348C42.7536 59.6675 42.8121 59.395 42.8121 59.395C47.6892 56.5444 51.8609 54.6394 55.1651 53.3748C55.6422 54.2821 56.162 55.0542 56.6801 55.705C54.7454 56.9639 52.6585 58.2688 50.7691 59.3402C47.9638 60.93 46.9028 64.438 48.3714 67.313C48.3976 67.3641 48.4241 67.4155 48.4515 67.4677C48.1657 67.6029 47.9218 67.7145 47.7268 67.8009C47.3887 67.951 47.1989 68.0269 47.1989 68.0269C46.8344 67.7706 46.4985 67.5088 46.19 67.2454C46.1873 67.2428 46.1844 67.2403 46.1815 67.2379C45.9389 67.0302 45.7133 66.8208 45.5035 66.611ZM59.5239 51.8941C62.2279 51.1028 63.7003 50.9338 63.7003 50.9338C63.7003 50.9338 63.7001 50.934 63.6994 50.9347C63.6558 50.9401 62.1873 51.1151 59.5239 51.8941Z" fill="#C5C5C5"/>
<path d="M56.6803 55.705C56.1621 55.0542 55.6426 54.2823 55.1654 53.375C56.8512 52.7287 58.3116 52.2488 59.5241 51.8942C62.1876 51.1153 63.656 50.94 63.6997 50.9349C63.6298 50.9843 60.4407 53.258 56.6803 55.705Z" fill="#1B9286"/>
<path d="M43.338 59.7553C43.2245 60.7116 43.1196 64.306 47.2727 67.3719C49.2809 66.4976 61.1766 60.9542 63.0048 51.6325C60.7471 52.062 53.6128 53.7855 43.338 59.7553ZM45.0776 67.0004C41.4324 63.3552 42.2107 59.4606 42.2507 59.2744C42.2844 59.1171 42.3832 58.9815 42.5217 58.8999C55.3943 51.3748 63.3051 50.4021 63.6358 50.3643C63.8098 50.3444 63.9836 50.4049 64.1076 50.5289L64.111 50.5328C64.235 50.6592 64.2943 50.8358 64.271 51.0116C63.6494 55.7021 60.5266 60.2286 55.2398 64.1013C51.2849 66.9985 47.5697 68.4978 47.4138 68.5606C47.2334 68.6327 47.0288 68.6085 46.8694 68.4966C46.1777 68.0102 45.5848 67.5076 45.0776 67.0004Z" fill="#1B1F2C"/>
<path d="M47.4221 66.2076C45.9396 64.725 43.9645 62.0344 44.1023 58.3102L45.2505 58.3541C45.061 63.4873 49.5764 66.5405 49.622 66.5709L48.9903 67.5299C48.9158 67.4807 48.2447 67.0302 47.4221 66.2076Z" fill="#1B1F2C"/>
<path d="M57.2952 57.2568C56.4332 56.3949 55.4848 55.2139 54.658 53.6415L55.6749 53.1078C57.6377 56.8414 60.3801 58.1874 60.4079 58.2005L59.9165 59.2385C59.839 59.2015 58.6783 58.6399 57.2952 57.2568Z" fill="#1B1F2C"/>
</g>
<defs>
<linearGradient id="paint0_linear_596_6570" x1="123.218" y1="23.4104" x2="179.167" y2="23.4104" gradientUnits="userSpaceOnUse">
<stop stop-color="#F67668"/>
<stop offset="1" stop-color="#F79576"/>
</linearGradient>
<clipPath id="clip0_596_6570">
<rect width="200" height="68" rx="34" fill="white"/>
</clipPath>
</defs>
</svg>
