<svg width="120" height="68" viewBox="0 0 120 68" fill="none" xmlns="http://www.w3.org/2000/svg">
<g clip-path="url(#clip0_596_6159)">
<rect width="120" height="68" rx="34" fill="#818BD5"/>
<path d="M3.00436 171.906C22.8244 195.436 57.9844 198.501 81.5437 178.751C85.6266 175.327 89.091 171.445 91.9261 167.238C93.162 165.409 94.2789 163.519 95.2736 161.581C104.848 142.931 103.32 119.728 89.7959 102.241C89.3168 101.613 88.8186 100.997 88.3069 100.388C86.8175 98.6218 85.2423 96.9701 83.5932 95.4405C77.8656 90.1046 71.2237 86.177 64.1603 83.6936C63.7031 83.5322 63.2436 83.3793 62.7836 83.2285C55.197 80.779 47.1587 79.9807 39.2487 80.8793C28.7432 82.0671 18.4659 86.2493 9.76811 93.5408C4.96885 97.5651 1.02349 102.223 -2.05261 107.296C-14.0734 127.109 -12.7787 153.169 3.00436 171.906Z" fill="#E1E1E1"/>
<path d="M3.00534 171.907C22.8253 195.437 57.9854 198.502 81.5447 178.752C85.6275 175.328 89.0919 171.445 91.9271 167.238C93.163 165.41 94.2799 163.52 95.2745 161.582C104.849 142.931 103.321 119.729 89.7969 102.242C89.3178 101.614 88.8196 100.998 88.3079 100.389C86.8185 98.6227 85.2433 96.971 83.5941 95.4414C77.8666 90.1055 71.2246 86.1779 64.1612 83.6945C63.7041 83.5331 63.2446 83.3802 62.7846 83.2295C55.1979 80.7799 47.1596 79.9816 39.2497 80.8802C28.7442 82.068 18.4669 86.2502 9.76908 93.5417C4.96983 97.566 1.02447 102.224 -2.05163 107.297C-14.0724 127.109 -12.7777 153.169 3.00534 171.907" stroke="#1B1F2C" stroke-width="2"/>
<path d="M84.3563 90.5855C79.6822 89.901 75.1307 88.8208 75.1307 88.8208C75.1307 88.8208 75.8965 76.7626 77.6627 67.6196C78.9742 60.8459 80.8337 55.6735 83.3371 58.1941C84.4889 59.3539 85.6601 61.2704 86.7903 63.6057C91.0287 72.3689 94.6665 87.0398 94.3438 89.7956C94.1362 91.5674 89.1822 91.2887 84.3563 90.5855Z" fill="#E1E1E1"/>
<path d="M82.1964 58.3328C82.0529 58.2944 81.9625 58.3281 81.9138 58.3466C81.3348 58.563 79.298 60.3285 77.4111 73.972C76.5563 80.1503 76.0844 86.2533 75.9439 88.2183C77.2301 88.5082 80.2887 89.1704 83.5239 89.6797C91.0335 90.861 92.9556 90.213 93.4333 89.8795C93.5658 89.7871 93.5722 89.7296 93.5756 89.7056C93.7505 88.2033 92.4793 81.9282 90.3077 74.9817C87.7923 66.9376 85.0514 61.0157 82.7878 58.7372C82.5307 58.4781 82.3378 58.3707 82.1964 58.3328ZM74.3182 89.4204L74.3593 88.7718C74.3639 88.6982 74.8408 81.2906 75.8813 73.7666C76.4945 69.3309 77.1815 65.7175 77.9231 63.0258C78.9354 59.3491 80.0312 57.4037 81.3715 56.9039C81.9597 56.6839 82.873 56.6353 83.8835 57.6529C87.2133 61.0061 90.2611 69.6629 91.7812 74.5251C92.795 77.7676 93.6962 81.132 94.3185 83.9982C94.756 86.0177 95.2494 88.6785 95.1085 89.8853C95.0674 90.2358 94.8972 90.7385 94.3194 91.142C93.4837 91.7257 92.0083 91.9618 89.6777 91.886C87.9683 91.8303 85.8143 91.5993 83.2765 91.1998C78.9793 90.523 74.9909 89.58 74.9512 89.5707L74.3182 89.4204Z" fill="#1B1F2C"/>
<path d="M60.3912 51.5934L57.6197 58.269L56.0434 62.0642L52.6795 70.1678C52.6795 70.1678 50.2762 71.0021 46.5993 71.1887C45.2262 71.2598 43.6724 71.2361 42.0007 71.0452C39.2688 70.7356 36.2191 69.9717 33.1084 68.4192C25.1072 64.4216 21.7082 56.7887 20.3537 53.0449C17.7343 45.8204 17.5209 43.9994 19.3894 41.7533C20.8178 40.0316 22.4594 40.0862 22.4594 40.0862C22.4594 40.0862 22.8033 38.4969 24.1981 38.2724C28.3779 37.6007 31.9891 43.3532 31.9891 43.3532C31.9891 43.3532 33.4547 38.5999 35.7337 40.3985C37.3036 41.6385 36.3056 46.9734 36.3056 46.9734C36.3056 46.9734 37.87 50.6651 41.5452 52.0847C43.4662 52.8261 46.3563 52.9873 49.2969 52.8841C49.3307 52.8832 49.3656 52.8826 49.3998 52.8801C50.9682 52.8216 52.5455 52.6905 54.0004 52.5316C54.6524 52.4617 55.2802 52.3847 55.8708 52.3076C58.5088 51.9622 60.3912 51.5934 60.3912 51.5934Z" fill="#E1E1E1"/>
<path d="M32.4384 67.1886C27.3737 64.308 23.4599 59.353 21.0804 52.7849C19.3754 48.079 18.7837 45.8385 18.9608 44.3669C19.1918 45.3328 19.5269 46.4224 19.9214 47.6842C20.2231 48.6495 20.6565 50.9081 23.5199 55.078C25.0868 57.3597 29.4508 62.1961 36.2767 64.3472C35.75 65.1224 35.2101 65.7692 34.6612 66.2836C34.0671 66.2236 33.4667 66.3724 32.9654 66.712C32.7661 66.8473 32.5895 67.0084 32.4384 67.1886ZM42.5793 68.3705L35.869 66.5725C36.176 66.2442 36.4776 65.8792 36.774 65.4791C36.9658 65.2202 37.1568 64.9454 37.3448 64.6564C39.2294 65.1524 41.2895 65.4394 43.5144 65.4172C43.8207 65.4141 44.1039 65.3881 44.3677 65.3423C44.3087 65.4284 44.2501 65.5152 44.192 65.6021C44.0031 65.8859 43.8183 66.173 43.6396 66.4629C43.4623 66.7537 43.2843 67.0449 43.125 67.3461C42.9622 67.6458 42.8039 67.9473 42.6435 68.2483C42.6219 68.289 42.6009 68.3298 42.5793 68.3705Z" fill="#C5C5C5"/>
<path d="M22.4377 40.8557C22.3345 40.856 21.105 40.8908 19.9823 42.2435C18.4705 44.0643 18.3806 45.3381 21.0786 52.7846C23.615 59.7852 27.8938 64.9535 33.4527 67.7304C38.5178 70.2603 43.4188 70.5867 46.6381 70.4153C49.3674 70.27 51.3603 69.7576 52.1045 69.5389L59.1374 52.5975C57.7735 52.8249 55.553 53.1623 53.0981 53.3985C47.6346 53.9238 43.6543 53.7234 41.2679 52.8027C37.3316 51.2839 35.6634 47.4364 35.5948 47.2731C35.5354 47.1339 35.519 46.9802 35.5466 46.8315C35.549 46.8191 35.7879 45.5226 35.8374 44.1067C35.9201 41.7189 35.413 41.1277 35.2557 41.0032C34.8615 40.6925 34.637 40.7612 34.5521 40.788C33.8205 41.0132 33.0429 42.5562 32.7245 43.5805C32.6351 43.8682 32.3862 44.0771 32.0868 44.1159C31.7879 44.1541 31.4934 44.0157 31.3333 43.7603C31.2999 43.708 27.9435 38.4504 24.3208 39.0334C23.4862 39.1673 23.23 40.1784 23.2124 40.2518C23.1357 40.6252 22.8185 40.876 22.4377 40.8557ZM37.8783 71.0467C36.1109 70.5732 34.3983 69.9247 32.7629 69.108C29.1664 67.3111 26.0855 64.6096 23.6065 61.0789C22.011 58.8058 20.6721 56.1908 19.627 53.307C18.3517 49.7865 17.5819 47.3971 17.4204 45.5999C17.2655 43.8783 17.6634 42.6208 18.7931 41.2601C19.9056 39.9196 21.1567 39.5015 21.8799 39.3725C22.1955 38.6151 22.877 37.7049 24.0734 37.5125C27.4726 36.9656 30.41 40.009 31.7964 41.7682C31.8372 41.6849 31.8798 41.5997 31.9248 41.5139C32.5565 40.3053 33.2862 39.566 34.0933 39.3164C34.5891 39.163 35.3588 39.1215 36.2126 39.7963C37.0787 40.4806 37.4603 41.9142 37.3793 44.1804C37.3377 45.3407 37.1835 46.3997 37.1071 46.8667C37.4749 47.6028 38.969 50.265 41.8233 51.3661C47.0328 53.3766 60.1095 50.8631 60.2413 50.8371C60.5203 50.783 60.8064 50.8857 60.9872 51.1058C61.1673 51.3256 61.2116 51.6262 61.1029 51.8882L53.3929 70.4621C53.3087 70.6651 53.1419 70.8217 52.9343 70.8943C52.8337 70.9293 50.4198 71.7563 46.7223 71.9532C44.5563 72.0685 42.3933 71.9431 40.2943 71.5789C39.4796 71.4374 38.673 71.2597 37.8783 71.0467Z" fill="#1B1F2C"/>
<path d="M32.6028 43.5175C32.5645 43.731 32.4819 43.9131 32.3959 44.067C32.3522 44.1465 32.3066 44.213 32.2602 44.2816C32.2145 44.3452 32.1662 44.4092 32.1202 44.4661C31.9313 44.699 31.7462 44.8832 31.5683 45.0634C31.3905 45.2419 31.2198 45.4116 31.0573 45.5835L30.9374 45.713C30.8988 45.7571 30.8587 45.8002 30.8209 45.8445L30.7091 45.9797L30.6003 46.1169L30.4968 46.259L30.3973 46.404C30.3636 46.4524 30.3347 46.5033 30.3028 46.5533C30.2707 46.6027 30.2418 46.6548 30.2123 46.706C30.0962 46.9129 29.9859 47.1296 29.8945 47.3572C29.8006 47.5848 29.7159 47.8208 29.6447 48.0651C29.6054 48.1872 29.5747 48.3115 29.5399 48.4366C29.521 48.499 29.5096 48.5628 29.493 48.6264C29.4772 48.6903 29.4624 48.7538 29.4446 48.8183L29.4434 48.8227C29.4301 48.8724 29.3792 48.9019 29.3297 48.8881C29.2949 48.8788 29.2703 48.8509 29.2628 48.8181C29.2056 48.5547 29.1617 48.2855 29.1454 48.0118C29.1243 47.738 29.1311 47.4605 29.1562 47.1813C29.2079 46.6228 29.3619 46.0579 29.6097 45.533L29.7063 45.3381C29.7405 45.2745 29.7762 45.2118 29.8114 45.1479C29.8475 45.0853 29.8853 45.0244 29.922 44.9627C29.9598 44.9005 30.0004 44.8422 30.0399 44.7818C30.1997 44.5446 30.3773 44.3258 30.5545 44.1235C30.7304 43.9214 30.911 43.7343 31.06 43.57C31.2155 43.4045 31.316 43.2639 31.3732 43.1881L31.4931 43.0308C31.7008 42.7573 32.0916 42.704 32.3658 42.9118C32.5591 43.0578 32.6427 43.295 32.6028 43.5175Z" fill="#1B1F2C"/>
<path d="M32.1514 68.7105C31.9633 68.6601 31.81 68.5073 31.7684 68.3037C31.7103 68.0172 31.8953 67.7382 32.1827 67.6803C34.5245 67.2083 36.7945 64.3853 38.7468 59.516C40.2596 55.7424 41.0373 52.0644 41.045 52.0272C41.1043 51.7416 41.3853 51.5581 41.672 51.6178C41.9575 51.6777 42.1428 51.9585 42.0834 52.2446C42.0755 52.2823 41.2824 56.0386 39.7368 59.8974C38.8223 62.1804 37.8247 64.0579 36.772 65.4787C35.4096 67.3171 33.9362 68.4067 32.3938 68.7174C32.3106 68.7344 32.228 68.7311 32.1514 68.7105Z" fill="#1B1F2C"/>
<path d="M82.483 104L33.2617 90.811C33.2617 90.811 35.8327 82.4176 42.0002 71.0454C44.4736 66.4839 47.5257 61.4448 51.2228 56.275C52.1107 55.0338 53.0369 53.7855 54 52.5324C56.6903 49.0379 59.6783 45.5213 62.9832 42.0904L81.1038 46.9458C82.0516 50.769 82.7831 54.5329 83.3364 58.1947C83.6949 60.563 83.9792 62.8871 84.1991 65.1542C85.1607 75.039 84.9167 83.8584 84.3554 90.586C83.6613 98.8845 82.483 104 82.483 104Z" fill="#E1E1E1"/>
<path d="M33.1481 90.7757C33.1172 90.5869 33.1104 90.4059 33.1067 90.2248C33.1026 90.0431 33.1106 89.8669 33.1236 89.6907C33.1473 89.3377 33.2013 88.9951 33.2708 88.6571C33.3064 88.4886 33.3449 88.3204 33.3897 88.1553C33.4345 87.9898 33.4852 87.8268 33.5375 87.6638L33.6976 87.177C33.7506 87.0147 33.8051 86.8527 33.8623 86.6915C34.0901 86.0478 34.3157 85.4031 34.5688 84.7697C34.6914 84.451 34.8176 84.1342 34.9443 83.8171C35.0063 83.6586 35.0753 83.5026 35.1416 83.3453L35.3416 82.8747L35.7491 81.9357C35.8864 81.6239 36.0327 81.316 36.1746 81.006C36.462 80.3878 36.7423 79.7657 37.0442 79.155C37.3431 78.5424 37.6312 77.9249 37.9331 77.3142C38.2363 76.7043 38.536 76.0924 38.8343 75.4802C38.9095 75.3273 38.9819 75.1732 39.0593 75.0214L39.2923 74.5667L39.7569 73.6564L40.2218 72.7468C40.2608 72.671 40.2987 72.5949 40.339 72.5199L40.4596 72.2949L40.7009 71.8445L41.6679 70.0447C41.7475 69.894 41.831 69.7453 41.9145 69.5971C41.9967 69.4481 42.0793 69.2992 42.1602 69.1494C42.3215 68.8495 42.4833 68.5493 42.6419 68.2483C42.8021 67.9471 42.9603 67.6454 43.1235 67.3461C43.2827 67.0447 43.4604 66.7532 43.6378 66.4627C43.817 66.1727 44.0016 65.8856 44.1903 65.6016C44.3798 65.3183 44.575 65.0381 44.7716 64.7588L45.0709 64.3434C45.1211 64.2741 45.174 64.2065 45.2266 64.1394C45.2794 64.0718 45.3308 64.0038 45.3849 63.937C45.5981 63.6686 45.8138 63.4024 46.0364 63.1401C46.2581 62.8775 46.4848 62.6187 46.7187 62.3649C46.9527 62.1111 47.1912 61.8606 47.4458 61.6218C47.4948 61.5758 47.5717 61.5778 47.6179 61.6268C47.6497 61.6599 47.6583 61.7068 47.6453 61.748L47.6449 61.7494C47.2097 63.0788 46.6119 64.2949 46.0178 65.512C45.8682 65.815 45.7164 66.1169 45.5595 66.4154C45.4017 66.7136 45.2391 67.0087 45.0719 67.3009C44.7307 67.8816 44.3895 68.4627 44.0404 69.0393C43.8661 69.3276 43.6945 69.6172 43.5228 69.9072C43.4361 70.0525 43.3528 70.1982 43.2683 70.3446C43.1849 70.4908 43.1001 70.6366 43.0219 70.7857L42.0654 72.5672L41.8265 73.0123L41.7066 73.2344C41.6675 73.3092 41.6302 73.3845 41.5911 73.4593L41.1316 74.3598L40.6717 75.2598L40.4415 75.7097C40.3647 75.8597 40.2936 76.0122 40.2184 76.1635C39.0114 78.5741 37.9673 81.0615 36.9352 83.5455L36.5436 84.4758C36.4156 84.7866 36.2879 85.0979 36.1566 85.4078L35.3751 87.2679C35.2416 87.5767 35.1164 87.8882 34.987 88.1986C34.9213 88.3536 34.8543 88.5081 34.7814 88.6601C34.7088 88.8127 34.6374 88.9646 34.5584 89.115C34.401 89.4154 34.2264 89.7105 34.0356 90.0003C33.9405 90.1453 33.8349 90.288 33.7282 90.429C33.6199 90.5704 33.5054 90.7107 33.3743 90.8451L33.373 90.8465C33.3223 90.8986 33.239 90.9 33.1867 90.8492C33.1651 90.8285 33.1524 90.8027 33.1481 90.7757Z" fill="#1B1F2C"/>
<path d="M84.2003 65.1547C84.1325 64.4552 84.0577 63.7499 83.9778 63.0393C84.448 62.8786 84.9136 62.7056 85.3751 62.5209C85.6278 62.9931 85.8832 63.4968 86.14 64.0297C85.5042 64.4313 84.857 64.8071 84.2003 65.1547Z" fill="#949494"/>
<path d="M86.1396 64.0287C85.8833 63.4963 85.6274 62.9923 85.3746 62.5207C85.6145 62.4251 85.852 62.3263 86.0897 62.2242C86.3243 62.6653 86.5579 63.1271 86.7903 63.6058C86.575 63.75 86.3578 63.8912 86.1396 64.0287Z" fill="#1B1F2C"/>
<path d="M51.2247 56.2749C50.697 55.4272 50.2086 54.5471 49.7614 53.6381C50.1404 53.6217 50.5296 53.6009 50.9273 53.5751C51.3218 54.0607 51.7309 54.5335 52.1545 54.9918C51.8401 55.4203 51.5299 55.8478 51.2247 56.2749Z" fill="#949494"/>
<path d="M49.7595 53.6375C49.6363 53.3873 49.516 53.1345 49.3996 52.88C49.7148 52.8681 50.0301 52.8536 50.3446 52.8359C50.5347 53.0856 50.7281 53.3311 50.9256 53.5743C50.528 53.6005 50.1386 53.6215 49.7595 53.6375Z" fill="#1B1F2C"/>
<path d="M65.9238 67.4681C62.1698 66.4622 58.8423 64.5878 56.0428 62.0641C54.1945 60.3953 52.5774 58.4449 51.2229 56.2742C51.5284 55.8476 51.8381 55.4201 52.1526 54.9914C53.5087 56.462 55.0111 57.7939 56.6487 58.9758C59.6084 61.1113 62.894 62.6696 66.4316 63.6175C66.7885 63.7131 67.1487 63.8032 67.5103 63.8859C71.46 64.7934 75.468 64.902 79.4248 64.2086C80.9791 63.9361 82.4987 63.5454 83.977 63.0386C84.0573 63.7491 84.1312 64.4546 84.199 65.154C82.1038 66.263 79.9101 67.0963 77.6624 67.6199C73.8643 68.5073 69.9119 68.5168 66.0257 67.4954C65.9919 67.4864 65.9575 67.4772 65.9238 67.4681Z" fill="#C5C5C5"/>
<path d="M100.742 48.0974C100.418 48.0468 100.195 47.7432 100.246 47.4188L102.877 30.5268C102.927 30.2025 103.231 29.9815 103.556 30.0323C106.961 30.5642 109.294 33.7509 108.765 37.1483L107.867 42.9084C107.338 46.3059 104.148 48.6295 100.742 48.0974Z" fill="#E1E1E1"/>
<path d="M104.176 30.3136C103.967 30.2576 103.752 30.212 103.533 30.1778C103.415 30.1589 103.297 30.1879 103.2 30.2585C103.103 30.3281 103.04 30.4322 103.022 30.5497L100.391 47.4422C100.372 47.5597 100.401 47.678 100.472 47.7745C100.543 47.8709 100.647 47.9344 100.765 47.9533C102.374 48.2043 103.983 47.8157 105.297 46.8589C106.61 45.9019 107.472 44.491 107.722 42.8862L108.619 37.1266C109.101 34.0322 107.142 31.1083 104.176 30.3136ZM100.641 48.226C100.477 48.1822 100.336 48.0851 100.235 47.9474C100.118 47.7879 100.071 47.5919 100.101 47.3968L102.732 30.5045C102.763 30.3096 102.867 30.1375 103.027 30.0215C103.186 29.9046 103.383 29.8577 103.578 29.8887C107.058 30.4323 109.45 33.6997 108.908 37.1716L108.012 42.9315C107.75 44.6136 106.847 46.0925 105.47 47.0957C104.093 48.0981 102.406 48.506 100.72 48.2424L100.743 48.0976L100.72 48.2424C100.693 48.2377 100.667 48.233 100.641 48.226Z" fill="#1B1F2C"/>
<path d="M101.439 47.3524C102.018 46.108 102.51 44.8212 102.914 43.4971C104.577 43.4673 106.121 42.7722 107.24 41.6339L107.061 42.7831C106.839 44.2119 106.072 45.4679 104.903 46.3196C103.888 47.0577 102.677 47.4158 101.439 47.3524Z" fill="#C5C5C5"/>
<path d="M103.648 30.876L101.087 47.3228C102.445 47.48 103.791 47.127 104.901 46.3187C106.071 45.4669 106.838 44.2113 107.06 42.7827L107.957 37.0224C108.405 34.1472 106.485 31.4365 103.648 30.876ZM100.868 47.2928L100.867 47.2926L100.868 47.2928ZM100.467 48.8704C100.157 48.7874 99.8863 48.6036 99.6945 48.3408C99.4715 48.037 99.3807 47.6653 99.439 47.293L102.069 30.4013C102.128 30.0298 102.327 29.7032 102.631 29.481C102.936 29.2598 103.308 29.1696 103.681 29.2282C107.525 29.829 110.167 33.4384 109.57 37.2752L108.673 43.0354C108.384 44.8935 107.386 46.5267 105.865 47.6349C104.343 48.7437 102.48 49.1936 100.617 48.9026C100.565 48.8945 100.516 48.8836 100.467 48.8704Z" fill="#1B1F2C"/>
<path d="M47.6713 21.3004C47.996 21.3507 48.2182 21.6545 48.168 21.9781L45.5372 38.8706C45.487 39.1942 45.1828 39.4161 44.8582 39.3651C41.4526 38.8331 39.1206 35.6465 39.6496 32.2489L40.5468 26.4894C41.0759 23.0912 44.2658 20.7677 47.6713 21.3004Z" fill="#E1E1E1"/>
<path d="M47.6959 21.4557C47.6803 21.4515 47.6645 21.448 47.6486 21.4453C44.3283 20.9261 41.2072 23.1994 40.6916 26.5121L39.7945 32.272C39.2785 35.5846 41.5597 38.7017 44.8804 39.221C45.1245 39.2594 45.3538 39.0921 45.392 38.848L48.0225 21.9565C48.058 21.729 47.9139 21.5141 47.6959 21.4557ZM44.162 39.3675C41.0521 38.5349 38.9995 35.4701 39.5048 32.2266L40.4015 26.4667C40.9422 22.9949 44.2134 20.6118 47.6936 21.1558L47.6711 21.3005L47.6936 21.1558C48.0975 21.219 48.3749 21.5986 48.3128 22.0012L45.6816 38.8934C45.6188 39.2966 45.2395 39.5729 44.8351 39.5096C44.606 39.4745 44.3813 39.4262 44.162 39.3675Z" fill="#1B1F2C"/>
<path d="M44.4109 38.4392C41.7705 37.7317 40.0271 35.1292 40.4558 32.3751L40.6301 31.2574C41.3981 32.5897 42.6533 33.632 44.1937 34.1083C44.1654 35.5551 44.2433 37.002 44.4277 38.4437C44.4223 38.4422 44.4166 38.4407 44.4109 38.4392Z" fill="#C5C5C5"/>
<path d="M47.325 22.0747C44.4525 21.7434 41.7995 23.7389 41.3519 26.6143L40.4545 32.375C40.0071 35.2497 41.9271 37.9605 44.7636 38.5214L47.325 22.0747ZM43.9871 40.0125C40.5516 39.0919 38.2836 35.7061 38.8415 32.1224L39.7387 26.3623C40.3359 22.5266 43.95 19.8938 47.7949 20.4947C48.5634 20.6153 49.0924 21.3365 48.9727 22.1042L46.3423 38.9957C46.2227 39.7634 45.5001 40.2896 44.731 40.1695C44.4781 40.1297 44.229 40.0773 43.9871 40.0125Z" fill="#1B1F2C"/>
<path d="M102.67 41.2384C99.0711 56.9196 83.4107 66.7038 67.6916 63.0927C51.9731 59.4813 42.1492 43.8417 45.7487 28.1606C49.3484 12.4805 65.009 2.69535 80.7276 6.30671C96.4459 9.91798 106.27 25.5574 102.67 41.2384Z" fill="#E1E1E1"/>
<path d="M81.7256 6.70528C81.3846 6.61391 81.0424 6.5285 80.6956 6.44902C65.0813 2.86169 49.4689 12.6157 45.8927 28.1935C44.1603 35.7394 45.4773 43.5104 49.6009 50.0753C53.5337 56.3357 59.5711 60.7849 66.6831 62.6905C67.0282 62.783 67.3754 62.8694 67.7251 62.9495C75.2898 64.6876 83.0747 63.3826 89.6485 59.2757C96.2221 55.169 100.796 48.7513 102.528 41.2054C106.025 25.9741 96.7367 10.7275 81.7256 6.70528ZM66.6049 62.9723C63.1465 62.0456 59.9337 60.5218 57.0405 58.4344C53.9646 56.2145 51.3779 53.4541 49.3524 50.2302C47.3272 47.0056 45.9654 43.4806 45.3046 39.7515C44.621 35.8906 44.7222 31.98 45.6068 28.1276C46.4908 24.276 48.1052 20.7117 50.4043 17.537C52.6253 14.4697 55.3881 11.8921 58.6166 9.87511C61.8451 7.85817 65.3765 6.50272 69.1123 5.84878C72.9807 5.17028 76.8996 5.27673 80.7611 6.16341C84.6226 7.05099 88.1949 8.66567 91.3799 10.9641C94.4563 13.1842 97.0438 15.9441 99.068 19.1685C101.094 22.3925 102.456 25.9183 103.116 29.6474C103.8 33.5075 103.698 37.4188 102.814 41.2713C101.93 45.1236 100.316 48.6864 98.0164 51.8618C95.7955 54.9291 93.033 57.5069 89.8041 59.5237C86.576 61.5408 83.0452 62.8955 79.3082 63.55C75.4408 64.2281 71.521 64.1217 67.6596 63.2348C67.3058 63.1536 66.9542 63.0659 66.6049 62.9723Z" fill="#1B1F2C"/>
<path d="M66.857 62.0452C60.6968 60.3945 55.3619 56.791 51.5532 51.7317C52.3722 52.4508 53.2608 53.163 54.1938 53.8424C56.9734 55.8643 61.2836 58.45 66.6504 59.888C67.2768 60.0558 67.9174 60.2078 68.5713 60.3416C75.3042 61.7196 81.1691 61.0973 84.9037 60.3337C85.8516 60.1392 86.7739 59.9129 87.6544 59.6604C81.5978 62.9141 74.6455 63.8537 67.8752 62.2983C67.5329 62.2197 67.1942 62.1355 66.857 62.0452Z" fill="#949494"/>
<path d="M81.5517 7.35069C81.2185 7.26141 80.8844 7.17822 80.5456 7.10005C65.2908 3.59564 50.0383 13.1248 46.5447 28.3436C44.8523 35.7156 46.1392 43.3074 50.1677 49.7204C54.0098 55.8371 59.9083 60.1832 66.8563 62.0454C67.1932 62.1356 67.5322 62.2199 67.8744 62.2984C75.264 63.9963 82.8702 62.7213 89.2918 58.7094C95.7137 54.6964 100.183 48.427 101.875 41.0549C105.291 26.175 96.2174 11.2804 81.5517 7.35069ZM66.4311 63.6177C62.8935 62.6698 59.6078 61.1111 56.6481 58.9757C53.5018 56.7049 50.8559 53.882 48.7848 50.5845C46.7136 47.2871 45.3207 43.6811 44.6449 39.867C43.945 35.9177 44.0489 31.9179 44.9537 27.9776C45.8577 24.0381 47.5091 20.3934 49.8606 17.1454C52.1322 14.0076 54.9581 11.3716 58.2601 9.30838C61.5621 7.24515 65.1739 5.8598 68.9951 5.19024C72.9519 4.49664 76.9608 4.60557 80.91 5.51235C84.8594 6.42008 88.5135 8.07151 91.7719 10.4227C94.9182 12.6933 97.5641 15.5166 99.6349 18.8139C101.706 22.1115 103.099 25.7174 103.776 29.5316C104.475 33.4807 104.371 37.4808 103.466 41.421C102.562 45.3604 100.911 49.0052 98.559 52.2539C96.2874 55.3909 93.4614 58.0277 90.1596 60.0901C86.8584 62.1535 83.2457 63.5385 79.4245 64.2083C75.4676 64.9019 71.4593 64.7933 67.5097 63.8857C67.1481 63.8028 66.7881 63.7134 66.4311 63.6177Z" fill="#1B1F2C"/>
<path d="M102.413 41.9468C101.222 47.5214 98.3015 52.3089 94.2845 55.9272C91.2726 58.64 80.5107 62.2135 68.6825 59.7938C57.7152 57.5501 48.9992 49.5966 47.3596 45.8886C45.1722 40.9427 44.4642 35.3795 45.6555 29.804C48.8078 15.0519 62.8194 11.6543 78.4927 15.0073C94.1665 18.3604 105.564 27.1944 102.413 41.9468Z" fill="#303441"/>
<path d="M81.2493 16.2454C80.3165 15.9955 79.3591 15.7652 78.376 15.5549C70.2382 13.8135 63.0477 14.0156 57.5824 16.1383C51.4799 18.5082 47.6518 23.1451 46.2037 29.922C45.0758 35.2014 45.6528 40.6437 47.8724 45.6632C48.5331 47.1567 50.7575 49.9575 54.8531 52.938C57.8664 55.1311 62.7307 58.0051 68.7946 59.2457C75.3414 60.5844 81.0445 59.9796 84.6768 59.237C89.5433 58.2416 92.6907 56.6074 93.9079 55.5116C97.9848 51.8398 100.736 47.1084 101.864 41.8292C103.312 35.0532 101.713 29.2541 97.1131 24.595C93.4906 20.9256 88.0429 18.0658 81.2493 16.2454ZM66.6502 59.8879C61.2827 58.4497 56.9722 55.8651 54.1929 53.8428C50.6737 51.2819 47.79 48.2479 46.8465 46.1145C44.5308 40.8785 43.9293 35.1982 45.1068 29.6872C45.888 26.0308 47.3611 22.9169 49.485 20.4334C51.484 18.0964 54.0711 16.2994 57.1747 15.0943C62.8448 12.8922 70.2568 12.6735 78.6101 14.46C86.9625 16.2471 93.6374 19.4804 97.9117 23.81C100.251 26.179 101.878 28.8771 102.747 31.828C103.671 34.9634 103.742 38.4076 102.961 42.0639C101.783 47.5748 98.9134 52.5125 94.6602 56.3431C92.8931 57.9342 89.1548 59.4641 84.9027 60.3336C81.1681 61.0978 75.3031 61.7192 68.5703 60.3416C67.9169 60.2087 67.2757 60.0555 66.6502 59.8879Z" fill="#1B1F2C"/>
<path d="M91.9905 42.8509C91.8775 42.8206 91.766 42.7824 91.6563 42.7372C89.743 41.9521 89.0701 39.1808 90.1532 36.5473C91.1738 34.0654 93.3904 32.5921 95.2433 33.0886C95.3569 33.1191 95.468 33.1564 95.5777 33.2016C97.1242 33.8364 97.8602 35.7679 97.514 37.8759C97.0355 39.0631 96.4914 40.2131 95.8863 41.322C94.7672 42.5791 93.2893 43.1989 91.9905 42.8509Z" fill="#5A5E6A"/>
<path d="M86.2379 49.2209C86.088 49.1807 85.942 49.1208 85.8036 49.0401C84.8324 48.474 84.5805 47.1006 85.2399 45.9721C85.8057 45.0049 86.8577 44.5316 87.7585 44.773C87.9084 44.8131 88.0544 44.873 88.1926 44.9544C89.1638 45.5204 89.4163 46.894 88.7565 48.0217C88.1906 48.9895 87.1387 49.4623 86.2379 49.2209Z" fill="#5A5E6A"/>
<path d="M66.9397 58.8064C63.9045 57.9932 61.2147 56.7994 58.9649 55.5561C72.9328 57.6456 85.2572 53.4353 88.8586 50.1908C91.67 47.6584 94.0581 44.6753 95.8875 41.3219C96.3654 40.7857 96.7772 40.1333 97.0826 39.3914C97.2903 38.8867 97.4335 38.3759 97.5158 37.8757C98.214 36.1429 98.7713 34.3304 99.1741 32.4471C99.5049 30.9008 99.7081 29.406 99.7946 27.961C102.285 31.9521 102.983 36.5994 101.865 41.8291C100.738 47.1079 97.986 51.8397 93.9097 55.5117C92.6923 56.6077 89.5448 58.2413 84.6779 59.2372C81.0453 59.9797 75.3421 60.584 68.796 59.2451C68.1639 59.1162 67.5447 58.9685 66.9397 58.8064Z" fill="#21242E"/>
<path d="M95.8867 41.3218C96.4917 40.2124 97.0365 39.0628 97.5146 37.8757C97.4326 38.3757 97.2892 38.8863 97.0815 39.3913C96.776 40.1333 96.3644 40.7856 95.8867 41.3218Z" fill="#6B6577"/>
<path d="M50.2793 18.4389C50.1207 18.3964 49.9736 18.3044 49.8648 18.1647C49.6073 17.8368 49.6533 17.3683 49.9613 17.0961C51.6461 15.4906 53.6105 14.1386 55.8001 13.0758C57.932 12.0415 60.2948 11.2728 62.823 10.791C65.2985 10.3201 67.9476 10.121 70.6977 10.1992C73.4228 10.2777 76.2607 10.6281 79.132 11.243C81.9562 11.8469 84.6609 12.6744 87.17 13.7023C89.7026 14.7392 92.0416 15.9822 94.1217 17.3967C96.2493 18.8438 98.1145 20.4761 99.663 22.247C101.256 24.068 102.526 26.0483 103.438 28.1329C103.606 28.4619 103.522 28.8737 103.219 29.1075C102.876 29.373 102.383 29.31 102.117 28.9675L102.054 28.8868L102.014 28.795C98.647 21.0495 90.1871 15.2108 78.805 12.7747C67.3592 10.3267 57.2355 12.321 51.03 18.2456L51.0017 18.2726L50.9673 18.2996C50.765 18.4577 50.5096 18.5007 50.2793 18.4389Z" fill="#1B1F2C"/>
<path d="M50.1535 39.9439C50.1535 39.9439 48.6834 24.411 57.7845 20.2935C64.9686 17.0432 73.5268 17.8807 76.6075 18.7062C77.4288 18.9263 77.8604 19.1451 77.772 19.2863C77.772 19.2863 64.604 19.6319 57.5944 28.4591C52.1887 35.2669 50.1535 39.9439 50.1535 39.9439Z" fill="#5A5E6A"/>
<path d="M94.3619 85.1644L80.6426 116.793L28.6964 102.874L28.8386 101.635L32.6275 68.6227C32.752 67.5382 33.8138 66.8201 34.8688 67.1028L93.1813 82.7275C94.2382 83.0107 94.7965 84.1629 94.3619 85.1644Z" fill="#FF66AC"/>
<path d="M94.3619 85.1644L80.6426 116.793L28.6964 102.874L28.8386 101.635L32.6275 68.6227C32.752 67.5382 33.8138 66.8201 34.8688 67.1028L93.1813 82.7275C94.2382 83.0107 94.7965 84.1629 94.3619 85.1644Z" fill="url(#paint0_linear_596_6159)"/>
<path d="M29.5934 101.817L33.3939 68.7105C33.428 68.4125 33.5839 68.1554 33.8325 67.9867C34.0812 67.818 34.3778 67.7682 34.6684 67.8461L87.427 81.9827C87.4054 82.4125 87.365 82.8683 87.3046 83.3439L36.1643 69.6409C35.1093 69.3582 34.0479 70.0765 33.923 71.1609L30.3831 102.005C30.0944 101.936 29.8305 101.873 29.5934 101.817ZM93.5802 85.0254L92.6942 84.788L92.7215 84.7248C92.9108 84.2877 92.9118 83.8221 92.7643 83.4128L92.9816 83.471C93.2723 83.5489 93.5046 83.7405 93.6355 84.0108C93.7664 84.2812 93.7728 84.5818 93.6534 84.857L93.5802 85.0254Z" fill="#FEAF97"/>
<path d="M29.5375 102.303L80.1969 115.877L93.6537 84.857C93.773 84.5818 93.7669 84.2813 93.6355 84.0108C93.5048 83.7404 93.2723 83.5489 92.9818 83.471L34.6686 67.846C34.378 67.7682 34.0813 67.8179 33.8327 67.9867C33.5841 68.1554 33.4282 68.4124 33.3941 68.7105L29.5375 102.303ZM81.0846 117.71L27.8523 103.446L31.8605 68.5332C31.9452 67.7942 32.3476 67.1303 32.9639 66.7122C33.5802 66.2945 34.3471 66.1652 35.0672 66.3581L93.3804 81.9831C94.1009 82.1762 94.7001 82.6715 95.0247 83.3413C95.3499 84.0118 95.366 84.7878 95.0704 85.4702L81.0846 117.71Z" fill="#1B1F2C"/>
</g>
<defs>
<linearGradient id="paint0_linear_596_6159" x1="90.2329" y1="100.65" x2="28.4604" y2="84.0984" gradientUnits="userSpaceOnUse">
<stop stop-color="#F67668"/>
<stop offset="1" stop-color="#F79576"/>
</linearGradient>
<clipPath id="clip0_596_6159">
<rect width="120" height="68" rx="34" fill="white"/>
</clipPath>
</defs>
</svg>
