<svg width="81" height="122" viewBox="0 0 81 122" fill="none" xmlns="http://www.w3.org/2000/svg">
<path d="M40.4622 121.969C62.5837 121.969 80.5168 104.036 80.5168 81.9145C80.5168 59.7929 62.5837 41.8599 40.4622 41.8599C18.3406 41.8599 0.407532 59.7929 0.407532 81.9145C0.407532 104.036 18.3406 121.969 40.4622 121.969Z" fill="#F18C6F"/>
<path d="M18.5198 82.5443C12.2214 81.4208 5.46334 82.2719 0.71398 77.7098C0.577798 79.0546 0.509705 80.3994 0.509705 81.7783C0.509705 81.8294 0.509705 81.8804 0.509705 81.9315C4.05044 85.1148 10.3148 85.6084 15.1153 85.6084C17.4984 85.6084 19.8816 87.1405 21.0732 89.1832C22.4351 91.9068 20.7328 95.4816 18.1794 96.3328C13.8045 97.5414 9.0892 99.0224 6.05914 102.121C7.94867 105.321 10.2808 108.249 12.9704 110.802C15.1834 105.508 20.6306 100.844 24.1373 96.3328C27.5419 92.0771 24.4778 83.5657 18.5198 82.5443Z" fill="#FCA692"/>
<path d="M69.7244 54.3204C68.1072 55.461 65.7751 55.0354 63.8005 54.6098C58.8638 53.7587 57.1616 48.9923 53.4165 46.0984C50.6929 44.0557 47.2883 44.3962 44.2242 45.2473C39.6281 46.7794 37.2449 52.9076 31.9678 52.3969C28.0185 51.9713 25.8226 48.0391 26.1631 44.3792C25.6694 44.5664 25.1928 44.7536 24.7161 44.9579C24.4097 46.7283 24.3927 48.5668 24.648 50.3371C25.6694 55.9546 30.9465 59.8699 36.564 58.6783C43.2029 57.3165 49.5013 50.6776 56.1402 55.2737C60.2257 57.9974 63.6302 62.0829 68.5668 60.8913C70.3712 60.5168 71.8012 59.5805 73.1289 58.423C72.0906 57.0101 70.95 55.6312 69.7244 54.3204Z" fill="#FCA692"/>
<path d="M80.0572 75.0543C77.7251 76.1948 75.2228 76.7225 72.6523 75.3947C69.0775 73.6924 68.7371 69.0963 65.8432 66.3726C63.1195 63.8192 59.0341 63.649 55.6295 65.3513C48.3097 69.2665 47.1181 77.9481 46.6074 85.4382C46.6074 86.9702 46.0968 89.013 44.3945 89.5236C42.522 90.0343 41.1602 88.1618 40.9899 86.6298C40.309 78.7993 37.5854 67.394 27.8824 68.7558C21.7542 69.607 14.6046 70.4581 11.3703 64.3299C10.0425 61.8446 9.61692 59.0869 9.66799 56.2952C8.06785 58.2358 6.63793 60.3466 5.41229 62.5766C5.65061 67.4451 7.57419 71.9391 12.3916 73.8627C16.3069 75.3947 20.5626 75.0543 24.4778 76.2459C31.1167 78.4588 37.4151 84.7573 35.5426 91.3962C33.1594 100.929 23.4564 108.078 26.5206 118.803C26.5716 118.99 26.6397 119.177 26.6908 119.365C27.3376 119.603 28.0015 119.824 28.6824 120.046C27.7462 117.05 27.9675 113.662 29.074 110.632C30.7762 105.866 37.2449 100.588 40.6495 104.844C42.8624 107.908 44.7349 112.504 49.1609 111.823C53.2463 111.313 56.4807 107.057 55.4593 103.142C54.4379 98.2053 49.5013 94.8007 50.5227 89.013C51.3738 84.4168 54.0975 80.6718 58.3532 78.7993C62.6089 77.097 66.8646 78.7993 71.2905 79.4802C74.7291 80.0249 77.9634 78.8333 80.2955 76.6714C80.2275 76.1267 80.1423 75.582 80.0572 75.0543Z" fill="#FCA692"/>
<path d="M67.7157 99.3969C67.7157 97.6946 68.737 95.6518 70.4393 94.9709C73.3843 93.9836 75.7164 95.3965 77.4187 97.4733C78.8316 94.1709 79.8019 90.6301 80.2785 86.9362C77.7251 87.8214 74.4056 87.1575 71.6139 86.6298C65.8262 85.7786 60.7193 91.0557 61.23 96.6732C61.5705 100.418 64.975 102.972 66.1666 106.546C66.7113 108.402 66.8305 110.343 66.5411 112.249C67.4093 111.517 68.2264 110.734 69.0264 109.934C69.1286 106.444 67.954 102.887 67.7157 99.3969Z" fill="#FCA692"/>
<g opacity="0.35">
<path d="M72.9757 58.6103C60.0724 40.6513 35.0489 36.5488 17.0729 49.4691C5.27609 57.9464 -0.545698 71.6668 0.526738 85.1829C7.60822 75.3607 33.4488 57.1464 59.6639 60.1594C65.9283 60.8914 72.5502 62.9511 77.5719 66.9004C76.3803 64.0236 74.8653 61.2659 72.9757 58.6103Z" fill="#EF725E"/>
</g>
<path d="M80.9424 81.4207C80.9254 77.2331 80.2615 73.0455 78.9677 69.0622C77.708 65.181 75.8526 61.487 73.4864 58.1506C71.1202 54.8311 68.2774 51.8862 65.0601 49.4009C61.8258 46.9156 58.217 44.9409 54.3868 43.528C50.4376 42.0811 46.2499 41.264 42.0453 41.0938C37.7896 40.9235 33.4999 41.4342 29.4144 42.5918C25.4651 43.7153 21.7031 45.4346 18.2815 47.6816C14.894 49.9115 11.8299 52.6522 9.24239 55.7844C6.65492 58.9336 4.54411 62.4573 2.99503 66.2194C1.41191 70.1006 0.44161 74.2201 0.118177 78.3907C-0.205256 82.6464 0.1352 86.9702 1.13954 91.1237C2.10984 95.1241 3.69296 98.9712 5.83783 102.478C7.94866 105.951 10.5702 109.117 13.6172 111.806C16.6643 114.496 20.1029 116.743 23.7969 118.411C27.593 120.131 31.6444 121.254 35.7979 121.731C40.0536 122.224 44.3945 122.037 48.5991 121.186C52.6505 120.369 56.5657 118.922 60.1576 116.913C63.7153 114.939 66.9667 112.419 69.7754 109.474C72.5672 106.546 74.9333 103.176 76.7378 99.55C78.5932 95.8391 79.8529 91.8387 80.4828 87.7362C80.8062 85.6764 80.9594 83.5997 80.9594 81.5229C80.9594 81.4888 80.9594 81.4548 80.9424 81.4207ZM78.1507 93.8304C76.908 97.6264 75.0866 101.235 72.7715 104.504C70.4734 107.738 67.6816 110.632 64.5324 113.049C61.3662 115.466 57.8425 117.424 54.0974 118.786C50.2162 120.199 46.1138 121.016 41.9772 121.169C37.8066 121.322 33.636 120.829 29.6187 119.705C25.7375 118.599 22.0435 116.913 18.69 114.7C15.3876 112.521 12.4086 109.849 9.88926 106.802C7.35287 103.721 5.25906 100.248 3.76106 96.554C2.21198 92.7579 1.25871 88.7405 0.952298 84.6551C0.628865 80.4675 0.969315 76.2288 1.95664 72.1433C2.90991 68.2281 4.45899 64.4831 6.55279 61.0445C8.61255 57.6399 11.183 54.5588 14.162 51.9202C17.1239 49.2817 20.4945 47.1028 24.1203 45.4516C27.8313 43.7663 31.8316 42.6598 35.9001 42.2002C40.0707 41.7236 44.3093 41.8938 48.4118 42.7279C52.3781 43.545 56.2253 44.9579 59.766 46.9326C63.2217 48.8732 66.3879 51.3074 69.1286 54.1843C71.8863 57.0611 74.2014 60.3635 75.9717 63.9213C77.7761 67.5472 79.0188 71.4624 79.6486 75.4628C79.938 77.4715 80.0913 79.5142 80.0913 81.5569C80.0913 85.7275 79.4444 89.8641 78.1507 93.8304Z" fill="#1C202C"/>
<path d="M18.7752 49.7074C23.0998 49.7074 26.6057 46.2015 26.6057 41.8769C26.6057 37.5522 23.0998 34.0464 18.7752 34.0464C14.4505 34.0464 10.9447 37.5522 10.9447 41.8769C10.9447 46.2015 14.4505 49.7074 18.7752 49.7074Z" fill="#F4755E"/>
<path d="M12.3746 45.5878C10.8426 42.9323 11.0979 39.4937 13.0726 37.1445C14.0769 35.9529 15.4387 35.0848 16.9538 34.6932C18.4177 34.3187 19.9498 34.4209 21.3627 34.9316C24.2906 36.004 26.2482 38.9149 26.1801 42.0301C26.112 45.1112 24.0693 47.92 21.1414 48.8903C18.2305 49.8605 14.9621 48.9073 13.0045 46.5241C12.7832 46.2347 12.5619 45.9283 12.3746 45.5878C12.1023 45.1112 11.3703 45.5368 11.6426 46.0134C12.5108 47.4774 13.8045 48.686 15.3706 49.3839C16.9027 50.0648 18.605 50.2861 20.2562 49.9797C23.6267 49.3839 26.3503 46.6092 26.9121 43.2387C27.1845 41.5364 26.9461 39.8001 26.1971 38.234C25.4652 36.7019 24.2225 35.4252 22.7415 34.6081C21.2946 33.8251 19.6093 33.4676 17.9751 33.6378C16.2388 33.808 14.6046 34.523 13.2939 35.6805C10.7575 37.9276 9.83824 41.6726 11.0809 44.8388C11.2341 45.2474 11.4214 45.6389 11.6426 46.0134C11.915 46.5071 12.647 46.0645 12.3746 45.5878Z" fill="#1B1F2C"/>
<path d="M24.4778 67.0026C24.7502 70.7306 21.4477 73.7776 17.7027 73.7776C13.9577 73.7776 11.7448 70.6625 10.9277 67.0026C10.2808 64.1087 9.66797 61.7596 9.66797 55.7335C9.66797 50.3373 10.3148 47.2391 10.9277 44.4644C11.8639 40.1236 13.9577 37.6893 17.7027 37.6893C21.4477 37.6893 24.7502 40.7364 24.4778 44.4644C24.2735 47.2902 23.2181 52.9077 23.2181 55.7335C23.2351 58.5593 24.2735 64.1598 24.4778 67.0026Z" fill="white"/>
<path d="M24.0522 67.0024C24.1544 68.3983 23.7288 69.7771 22.8436 70.8836C21.9755 71.9731 20.7498 72.7561 19.405 73.1306C18.0602 73.4881 16.5622 73.437 15.3195 72.8242C14.1279 72.2454 13.2087 71.2411 12.5448 70.0836C11.8469 68.8749 11.5064 67.5642 11.2 66.2024C10.9617 65.181 10.7574 64.1596 10.5872 63.1212C10.3829 61.8275 10.2638 60.4486 10.1957 59.0868C10.0935 57.1803 10.0935 55.2737 10.1616 53.3672C10.2297 51.784 10.3489 50.1839 10.5872 48.6178C10.7574 47.4092 10.9958 46.2006 11.2681 45.009C11.5745 43.6301 11.932 42.2343 12.647 41.0086C13.2428 39.9873 14.0428 39.1531 15.0982 38.6425C15.5579 38.4212 16.2218 38.2339 16.7495 38.1658C17.4304 38.0807 18.1453 38.0807 18.8433 38.1999C20.2221 38.4552 21.5158 39.1191 22.4861 40.1405C23.4394 41.1448 24.0352 42.4556 24.0693 43.8514C24.0863 44.4813 24.0012 45.1111 23.9331 45.741C23.848 46.4219 23.7628 47.1198 23.6607 47.8007C23.4394 49.3838 23.2181 50.967 23.0309 52.5501C22.8947 53.8098 22.7585 55.0865 22.8096 56.3462C22.8777 57.7931 23.0649 59.24 23.2522 60.67C23.4564 62.185 23.6777 63.683 23.865 65.198C23.9501 65.7938 24.0182 66.3896 24.0522 67.0024C24.0693 67.2237 24.2395 67.428 24.4778 67.428C24.6991 67.428 24.9204 67.2407 24.9034 67.0024C24.6821 64.0064 24.0863 61.0274 23.7969 58.0314C23.6777 56.7547 23.6267 55.478 23.7288 54.2013C23.848 52.6522 24.0693 51.1202 24.2735 49.5881C24.4778 48.1071 24.6991 46.6091 24.8523 45.1111C24.9204 44.3962 24.9544 43.6982 24.8353 42.9833C24.7161 42.2513 24.4608 41.5363 24.0863 40.9065C22.5372 38.1999 19.3029 36.8551 16.2898 37.3998C15.0302 37.6211 13.8726 38.2339 12.9874 39.1531C12.0001 40.1745 11.3703 41.4853 10.9447 42.8301C10.5361 44.1068 10.2978 45.4345 10.0595 46.7453C9.78714 48.1922 9.58287 49.6562 9.46371 51.1372C9.29348 53.0778 9.25943 55.0184 9.29348 56.959C9.3105 58.5932 9.39561 60.2444 9.58286 61.8615C9.71904 63.0361 9.92332 64.2107 10.1616 65.3682C10.434 66.6109 10.6723 67.8706 11.149 69.0622C11.6937 70.424 12.4767 71.7348 13.6173 72.688C14.7748 73.6583 16.2047 74.186 17.7198 74.2031C20.7839 74.2201 23.7969 72.2114 24.6991 69.2324C24.9204 68.5175 25.0055 67.7514 24.9544 67.0024C24.9374 66.7811 24.7672 66.5768 24.5289 66.5768C24.2565 66.5768 24.0352 66.7641 24.0522 67.0024Z" fill="#1B1F2C"/>
<path d="M19.4901 73.0286C23.5609 73.0286 26.861 69.7286 26.861 65.6577C26.861 61.5869 23.5609 58.2869 19.4901 58.2869C15.4193 58.2869 12.1193 61.5869 12.1193 65.6577C12.1193 69.7286 15.4193 73.0286 19.4901 73.0286Z" fill="white"/>
<path d="M12.7491 61.9979C12.8172 61.8957 12.8682 61.7936 12.9363 61.6915C13.0555 61.5212 13.1747 61.351 13.2938 61.1808L26.844 42.4046C28.359 39.8512 31.6614 39.0001 34.2148 40.5151C36.7682 42.0301 37.6194 45.3326 36.1044 47.886L26.2311 68.7389C26.129 68.9602 26.0269 69.1815 25.9077 69.4028L25.8907 69.4198C25.8396 69.5049 25.7885 69.59 25.7545 69.6751C24.4608 71.8541 22.2478 73.1478 19.9157 73.3691" fill="white"/>
<path d="M13.1236 62.2191C13.1917 62.1169 13.2428 62.0148 13.3108 61.9127C13.43 61.7254 13.3449 61.436 13.1576 61.3339C13.2087 61.5211 13.2598 61.7254 13.3108 61.9127C13.9918 60.9594 14.6727 60.0231 15.3706 59.0699C16.7324 57.1633 18.1113 55.2738 19.4731 53.3672C20.9881 51.2734 22.4861 49.1796 24.0012 47.0858C24.9885 45.724 25.9588 44.3622 26.9461 43.0174C27.3206 42.5067 27.644 41.962 28.1037 41.5194C29.3463 40.3448 31.1848 39.9022 32.819 40.3618C34.5383 40.8384 35.8831 42.2343 36.3086 43.9707C36.5129 44.7877 36.4959 45.6559 36.2746 46.473C36.1554 46.9156 35.9512 47.3071 35.7469 47.7157C35.1851 48.8732 34.6404 50.0308 34.0957 51.2053C33.0403 53.4353 31.9848 55.6653 30.9294 57.8953C29.857 60.1593 28.7846 62.4234 27.7121 64.6704C27.1163 65.913 26.5376 67.1557 25.9418 68.3984C25.8226 68.6707 25.6864 68.9261 25.5673 69.1984C25.7545 69.1473 25.9588 69.0963 26.146 69.0452C25.9588 68.926 25.6694 68.9941 25.5673 69.1984C24.4438 71.2922 22.3159 72.7051 19.9497 72.9264C19.7284 72.9434 19.5242 73.1137 19.5242 73.352C19.5242 73.5733 19.7114 73.7946 19.9497 73.7776C22.6223 73.5222 25.0225 71.9902 26.2992 69.624C26.112 69.6751 25.9077 69.7261 25.7205 69.7772C25.9077 69.8793 26.1971 69.8283 26.2992 69.624C26.4184 69.3857 26.5376 69.1474 26.6397 68.892C26.6056 68.9601 26.6227 68.9261 26.6397 68.909C26.6567 68.875 26.6737 68.841 26.6908 68.8069C26.7759 68.6367 26.844 68.4664 26.9291 68.3132C27.2355 67.6494 27.5589 66.9855 27.8653 66.3216C28.8867 64.1767 29.891 62.0318 30.9124 59.887C32.0189 57.5378 33.1424 55.1887 34.2489 52.8395C34.9468 51.3585 35.6447 49.8776 36.3427 48.3966C36.3937 48.2944 36.4448 48.1923 36.4959 48.0902C36.8193 47.4603 37.1087 46.8305 37.2279 46.1155C37.5343 44.243 36.9385 42.2854 35.5767 40.9576C34.1808 39.5958 32.1721 39.034 30.2655 39.4256C29.3633 39.6128 28.5122 40.0384 27.7972 40.6342C27.2525 41.0768 26.878 41.6045 26.4865 42.1662C25.8056 43.1706 25.0566 44.1409 24.3416 45.1282C22.8947 47.1369 21.4477 49.1456 20.0008 51.1372C18.5198 53.197 17.0218 55.2568 15.5408 57.3165C14.7067 58.4741 13.8556 59.6486 13.0215 60.8062C13.0044 60.8402 12.9704 60.8743 12.9534 60.9083C12.9534 60.9083 12.9534 60.9253 12.9363 60.9253C12.9874 60.8573 12.8172 61.0785 12.8002 61.1126C12.715 61.2147 12.647 61.3339 12.5789 61.436C12.4427 61.6233 12.5448 61.9127 12.7321 62.0148C12.681 61.8276 12.6299 61.6233 12.5789 61.436C12.5108 61.5382 12.4427 61.6403 12.3916 61.7424C12.1022 62.2531 12.8512 62.6787 13.1236 62.2191Z" fill="#1B1F2C"/>
<path d="M39.8494 40.7703C39.543 40.0043 40.0196 39.1531 40.8367 39.0169C41.2453 38.9489 41.6879 38.9148 42.1645 38.9148C45.0073 38.9148 47.033 40.3277 47.782 40.9235C47.0671 40.7533 46.284 40.6171 45.3988 40.532C43.1859 40.3277 41.2963 40.583 39.8664 40.9065C39.8835 40.8554 39.8664 40.8043 39.8494 40.7703Z" fill="#E4B790"/>
<path d="M40.258 40.6512C40.0878 40.1916 40.241 39.6639 40.7346 39.4766C41.0581 39.3574 41.4496 39.3574 41.79 39.3404C42.1816 39.3234 42.5731 39.3234 42.9476 39.3575C44.1902 39.4596 45.3818 39.8852 46.4543 40.515C46.6756 40.6512 46.8969 40.7874 47.1012 40.9235C47.1863 40.9746 47.2714 41.0427 47.3395 41.0938C47.3735 41.1278 47.4076 41.1448 47.4586 41.1789C47.5608 41.247 47.4076 41.1448 47.5097 41.2129C47.6459 40.9746 47.7821 40.7363 47.9183 40.498C45.2457 39.8681 42.471 39.8681 39.7814 40.481C39.9516 40.5831 40.1388 40.6852 40.3091 40.7703C40.292 40.7363 40.275 40.7023 40.258 40.6512C40.1729 40.4299 39.9686 40.2937 39.7303 40.3618C39.526 40.4129 39.3388 40.6682 39.4409 40.8895C39.4579 40.9406 39.4749 40.9746 39.492 41.0257C39.5771 41.247 39.7643 41.3832 40.0197 41.3151C42.539 40.7363 45.1776 40.7363 47.6969 41.3321C47.8842 41.3832 48.0885 41.2981 48.1736 41.1449C48.2587 40.9916 48.2587 40.7363 48.1055 40.6342C47.2203 39.9362 46.25 39.3915 45.1946 39.017C44.4456 38.7446 43.6455 38.5914 42.8455 38.5233C42.3858 38.4893 41.9432 38.4893 41.4836 38.5233C41.0751 38.5574 40.6495 38.5914 40.275 38.7787C39.509 39.1532 39.1345 40.1065 39.4409 40.9065C39.526 41.1278 39.7303 41.264 39.9686 41.1959C40.1729 41.1278 40.3431 40.8725 40.258 40.6512Z" fill="#1B1F2C"/>
<path d="M39.4239 42.5407C39.2707 41.7236 39.9005 40.9746 40.7346 41.0087C41.1432 41.0257 41.6028 41.0598 42.0624 41.1449C44.8541 41.6726 46.5905 43.46 47.2033 44.1749C46.5394 43.8685 45.7904 43.5791 44.9393 43.3408C42.8114 42.728 40.8878 42.6088 39.4409 42.6769C39.4409 42.6259 39.4239 42.5918 39.4239 42.5407Z" fill="#E4B790"/>
<path d="M39.8324 42.4217C39.7473 41.945 40.1218 41.4684 40.6155 41.4173C40.99 41.3833 41.4155 41.4514 41.79 41.5194C42.1816 41.5875 42.5731 41.6726 42.9476 41.7918C44.0881 42.1493 45.1435 42.7791 46.0117 43.5452C46.3351 43.8345 46.6415 44.141 46.9139 44.4644C47.0841 44.2431 47.2543 44.0218 47.4246 43.8005C44.9222 42.677 42.1986 42.1323 39.4579 42.2344C39.5941 42.3365 39.7303 42.4387 39.8665 42.5408C39.8494 42.5238 39.8324 42.4727 39.8324 42.4217C39.7813 42.2004 39.526 42.0642 39.3047 42.1323C39.0664 42.2004 38.9642 42.4216 39.0153 42.66C39.0323 42.711 39.0323 42.7451 39.0494 42.7962C39.0834 42.9664 39.2877 43.1196 39.4579 43.1026C42.0454 43.0175 44.6328 43.4771 46.999 44.5495C47.4416 44.7368 47.8501 44.2601 47.5097 43.8856C46.8118 43.0855 45.9947 42.3876 45.0754 41.8599C44.4115 41.4684 43.6796 41.1449 42.9306 40.9236C42.488 40.7875 42.0283 40.7024 41.5687 40.6513C41.1432 40.6002 40.6835 40.5321 40.258 40.6343C39.3387 40.8556 38.8451 41.7578 38.9983 42.66C39.0323 42.8813 39.3217 43.0175 39.526 42.9494C39.7643 42.8813 39.8665 42.66 39.8324 42.4217Z" fill="#1B1F2C"/>
<path d="M38.777 44.1408C38.777 43.3067 39.56 42.7109 40.3601 42.8981C40.7687 43.0002 41.1942 43.1194 41.6368 43.3067C44.2753 44.3791 45.6031 46.4729 46.0798 47.307C45.484 46.8814 44.803 46.4388 44.037 46.0473C42.0794 45.0089 40.2239 44.5323 38.777 44.294C38.777 44.2259 38.777 44.1918 38.777 44.1408Z" fill="#E4B790"/>
<path d="M39.2026 44.1408C39.2196 43.6302 39.6792 43.2216 40.1899 43.2897C40.5814 43.3408 40.99 43.511 41.3645 43.6472C41.7049 43.7834 42.0283 43.9366 42.3518 44.1238C42.9306 44.4473 43.4583 44.8217 43.9349 45.2814C44.1562 45.4856 44.3605 45.6899 44.5647 45.9112C44.7179 46.0814 44.9052 46.3027 45.0073 46.4559C45.2627 46.7964 45.501 47.1539 45.7053 47.5284C45.8925 47.3411 46.0968 47.1369 46.284 46.9496C44.0881 45.3835 41.5347 44.3281 38.8791 43.8855C38.9813 44.0217 39.0834 44.1579 39.1855 44.294C39.2026 44.226 39.2026 44.1919 39.2026 44.1408C39.2026 43.5961 38.3514 43.5961 38.3514 44.1408C38.3514 44.1919 38.3514 44.2259 38.3514 44.277C38.3514 44.4472 38.4876 44.6515 38.6578 44.6856C41.2623 45.1111 43.7136 46.1155 45.8585 47.6645C46.2159 47.9199 46.6415 47.4262 46.4372 47.0858C45.9095 46.1665 45.2457 45.3154 44.4626 44.6175C43.8838 44.0898 43.254 43.6472 42.5561 43.2727C42.1475 43.0684 41.739 42.8811 41.2964 42.7279C40.8878 42.5918 40.4282 42.4215 39.9856 42.4386C39.0664 42.4726 38.3514 43.2216 38.3174 44.1408C38.3344 44.6856 39.1855 44.6856 39.2026 44.1408Z" fill="#1B1F2C"/>
<path d="M27.5079 43.9025C27.3207 43.6301 27.2185 43.3578 27.1675 43.0514C26.844 40.9576 29.9081 38.7276 34.0106 38.0807C38.1131 37.4339 41.7219 38.6254 42.0454 40.7192C42.3688 42.8131 39.3047 45.043 35.2022 45.6899" fill="white"/>
<path d="M27.8824 43.6813C27.7292 43.443 27.627 43.2047 27.576 42.9323C27.593 43.0344 27.576 42.8982 27.576 42.8982C27.576 42.8642 27.576 42.8302 27.576 42.7791C27.576 42.694 27.576 42.6259 27.576 42.5408C27.593 42.4216 27.559 42.6259 27.576 42.5067C27.576 42.4727 27.593 42.4216 27.593 42.3876C27.61 42.3024 27.627 42.2344 27.6611 42.1663C27.7122 42.0131 27.7292 41.945 27.8313 41.7747C28.0186 41.4343 28.2058 41.213 28.4782 40.9406C28.7506 40.6683 29.074 40.4129 29.3974 40.2087C31.1678 39.0171 33.3808 38.4553 35.4916 38.3532C36.547 38.3021 37.6024 38.3532 38.6238 38.5915C39.0323 38.6936 39.4579 38.8128 39.8324 38.983C40.0026 39.0681 40.1899 39.1532 40.3601 39.2383C40.4963 39.3235 40.7006 39.4596 40.7857 39.5107C41.0751 39.732 41.2623 39.9363 41.4155 40.2087C41.4496 40.2767 41.4836 40.3448 41.5177 40.4129C41.4836 40.3448 41.5517 40.498 41.5517 40.5321C41.5687 40.6002 41.5857 40.6853 41.6028 40.7534C41.6028 40.7704 41.6198 40.8895 41.6198 40.7874C41.6198 40.8385 41.6368 40.8896 41.6368 40.9406C41.6538 41.5024 41.3815 42.0641 40.9899 42.5237C40.3601 43.2557 39.526 43.7834 38.6578 44.209C37.5343 44.7537 36.3087 45.0772 35.083 45.2644C34.8617 45.2985 34.7256 45.5878 34.7936 45.7921C34.8617 46.0304 35.083 46.1326 35.3214 46.0815C36.53 45.8943 37.6875 45.5538 38.811 45.0601C39.7303 44.6516 40.6154 44.1239 41.3304 43.4089C41.8751 42.8642 42.3518 42.1833 42.4709 41.4002C42.5901 40.6172 42.3347 39.8682 41.807 39.2724C41.2283 38.6255 40.4112 38.217 39.5941 37.9446C38.5557 37.6042 37.4322 37.468 36.3257 37.4509C33.9425 37.4339 31.4402 37.9787 29.3634 39.1873C27.9845 40.0044 26.4355 41.4173 26.7759 43.1876C26.844 43.5111 26.9802 43.8005 27.1504 44.0728C27.4398 44.5665 28.1888 44.1409 27.8824 43.6813Z" fill="#1B1F2C"/>
<path d="M51.6462 42.8981C55.9709 42.8981 59.4767 39.3923 59.4767 35.0677C59.4767 30.743 55.9709 27.2372 51.6462 27.2372C47.3216 27.2372 43.8157 30.743 43.8157 35.0677C43.8157 39.3923 47.3216 42.8981 51.6462 42.8981Z" fill="#F4755E"/>
<path d="M59.715 36.77C60.0555 35.0847 59.8852 33.3314 59.1873 31.7483C58.5234 30.2332 57.3829 28.9225 55.97 28.0373C54.506 27.1351 52.7527 26.6925 51.0504 26.8287C49.3651 26.9478 47.748 27.5947 46.4372 28.6501C43.7646 30.795 42.6922 34.574 43.8498 37.7914C44.4115 39.3745 45.4329 40.7363 46.7947 41.7407C48.1735 42.762 49.8929 43.3067 51.6122 43.3238C55.0337 43.3408 58.1659 41.1619 59.3745 37.9786C59.5107 37.5871 59.6129 37.1785 59.715 36.77C59.7661 36.5487 59.6469 36.3104 59.4256 36.2423C59.2213 36.1912 58.949 36.3104 58.8979 36.5317C58.5745 38.0467 57.8084 39.4426 56.6679 40.498C55.5785 41.5193 54.1826 42.1662 52.7186 42.3875C49.6545 42.8471 46.5394 41.23 45.0924 38.5063C43.6455 35.7657 44.1051 32.293 46.2159 30.0119C48.3268 27.7479 51.6973 27.0159 54.5571 28.2416C57.3659 29.4502 59.1873 32.3441 59.0511 35.3911C59.0341 35.7827 58.983 36.1572 58.9149 36.5317C58.8639 36.753 58.983 36.9913 59.2043 37.0594C59.3916 37.1275 59.6639 36.9913 59.715 36.77Z" fill="#1B1F2C"/>
<path d="M54.1655 60.7041C55.0848 64.3299 59.1873 66.1684 62.728 64.9768C66.2688 63.7852 67.3923 60.1253 67.0007 56.4143C66.6943 53.4524 66.5241 51.0522 64.6175 45.3325C62.9153 40.2086 61.3151 37.468 59.8682 35.0337C57.6041 31.2206 54.8464 29.5694 51.3057 30.761C47.765 31.9526 45.5861 35.8849 47.033 39.3235C48.1224 41.945 50.8972 46.9326 51.7824 49.6222C52.6675 52.3118 53.4676 57.9464 54.1655 60.7041Z" fill="white"/>
<path d="M53.757 60.8062C54.523 63.7511 57.2977 65.6406 60.2597 65.7428C61.7577 65.7938 63.3238 65.4023 64.5494 64.5171C65.7581 63.666 66.5751 62.4063 67.0348 61.0104C67.5114 59.5465 67.5965 57.9633 67.4433 56.4483C67.3412 55.3589 67.222 54.2694 67.0688 53.1799C66.6092 50.0307 65.69 46.9326 64.6175 43.9366C63.5791 41.0427 62.2854 38.268 60.7363 35.6124C59.2894 33.1441 57.4339 30.4205 54.3698 29.9779C51.3568 29.5523 48.2586 31.3056 46.8968 33.9782C46.2159 35.323 45.9776 36.8721 46.284 38.3531C46.4202 39.034 46.7096 39.6639 46.9989 40.2937C47.2883 40.9406 47.5947 41.5704 47.9011 42.2002C48.5991 43.6302 49.3311 45.0601 50.012 46.507C50.5737 47.6986 51.1185 48.8732 51.51 50.1329C51.9185 51.5287 52.2079 52.9586 52.4803 54.3715C52.7697 55.9036 53.042 57.4527 53.3655 58.9847C53.4846 59.6146 53.6208 60.2104 53.757 60.8062C53.8932 61.3339 54.7103 61.1126 54.5741 60.5849C53.8591 57.7931 53.4846 54.9163 52.8718 52.0905C52.5994 50.8819 52.3101 49.6903 51.8334 48.5498C51.2717 47.1709 50.6248 45.8431 49.9779 44.5153C49.314 43.1705 48.6502 41.8428 48.0033 40.498C47.8671 40.2256 47.7479 39.9362 47.6118 39.6468C47.4756 39.3234 47.3905 39.1532 47.2713 38.8297C47.05 38.1658 46.9479 37.4849 46.9819 36.804C47.05 35.4592 47.6288 34.1314 48.514 33.1271C49.4673 32.0376 50.7099 31.3057 52.1058 30.9822C53.3314 30.6928 54.6081 30.795 55.7316 31.3567C57.0254 32.0036 58.0297 33.0931 58.8298 34.2676C59.5618 35.323 60.1916 36.4806 60.8214 37.6041C61.5024 38.8468 62.1152 40.1235 62.6769 41.4342C63.4089 43.1705 64.0388 44.9579 64.6175 46.7624C65.0942 48.2604 65.5197 49.7754 65.8432 51.3245C65.9623 51.9032 66.0645 52.482 66.1666 53.0608C66.2517 53.6055 66.3028 53.997 66.3709 54.5418C66.507 55.7504 66.6773 56.976 66.6262 58.1846C66.5751 59.5635 66.2858 60.9764 65.5708 62.168C64.8899 63.3255 63.8175 64.1767 62.5237 64.6022C59.9873 65.4193 56.9062 64.6363 55.3401 62.3722C54.9656 61.8275 54.6932 61.2317 54.523 60.6019C54.4379 60.0571 53.6208 60.2785 53.757 60.8062Z" fill="#1B1F2C"/>
<path d="M58.5064 65.2151C62.5773 65.2151 65.8773 61.9151 65.8773 57.8443C65.8773 53.7734 62.5773 50.4734 58.5064 50.4734C54.4356 50.4734 51.1356 53.7734 51.1356 57.8443C51.1356 61.9151 54.4356 65.2151 58.5064 65.2151Z" fill="white"/>
<path d="M63.7154 52.2438C63.6303 52.1587 63.5281 52.0906 63.443 52.0225C63.2728 51.8863 63.1026 51.7672 62.9323 51.665L44.1392 38.1489C41.8922 36.1913 38.4876 36.4297 36.547 38.6767C34.5894 40.9237 34.8277 44.3282 37.0747 46.2688L53.0421 62.9171C53.1953 63.1043 53.3826 63.2746 53.5528 63.4448L53.5698 63.4618C53.6379 63.5299 53.706 63.598 53.7911 63.6661C55.6977 65.3343 58.217 65.8621 60.4981 65.3173" fill="white"/>
<path d="M64.0218 51.9374C63.9367 51.8522 63.8345 51.7842 63.7494 51.7161C63.7494 51.9203 63.7494 52.1246 63.7494 52.3119C63.9367 52.0906 63.9026 51.8182 63.6643 51.648C63.3409 51.4097 62.9323 51.1203 62.5578 50.8479C61.962 50.4223 61.3662 49.9968 60.7704 49.5542C58.8469 48.1753 56.9233 46.7965 55.0167 45.4176C52.9059 43.9026 50.7951 42.3876 48.6843 40.8555C47.3565 39.9022 46.0287 38.9319 44.6839 37.9787C44.5817 37.9106 44.4796 37.8425 44.3775 37.7574L44.3605 37.7404C44.3434 37.7233 44.4966 37.8595 44.3434 37.7233C44.2243 37.6212 44.0881 37.5191 43.9689 37.4339C43.5774 37.1616 43.1689 36.9403 42.7263 36.753C40.9559 36.0381 38.8281 36.2934 37.262 37.4169C35.6618 38.5574 34.7085 40.464 34.7937 42.4386C34.8447 43.3749 35.1171 44.3111 35.5937 45.1282C35.9172 45.69 36.3427 46.1326 36.8023 46.5752C37.6875 47.4433 38.5216 48.3796 39.3898 49.2648C41.1091 51.0522 42.8114 52.8396 44.5307 54.627C46.284 56.4484 48.0203 58.2698 49.7737 60.0913C50.744 61.0956 51.7143 62.117 52.6846 63.1213C52.8889 63.3426 53.0932 63.5469 53.2974 63.7682C53.4506 63.9214 53.757 63.9384 53.8932 63.7682C53.6889 63.7682 53.4847 63.7682 53.2974 63.7682C55.255 65.6067 58.0298 66.3386 60.6342 65.7258C61.1619 65.6067 60.9406 64.7725 60.4129 64.9087C58.0978 65.4535 55.6295 64.7896 53.8932 63.1724C53.74 63.0192 53.4506 62.9851 53.2974 63.1724C53.5017 63.1724 53.706 63.1724 53.8932 63.1724C53.0761 62.3213 52.242 61.4531 51.4249 60.602C49.8248 58.9337 48.2076 57.2485 46.6075 55.5802C44.8201 53.7247 43.0497 51.8693 41.2623 50.0138C40.0877 48.7881 38.9132 47.5625 37.7386 46.3369C37.33 45.9113 36.8704 45.5198 36.53 45.0261C35.5427 43.5792 35.3724 41.6386 36.1555 40.0384C36.9555 38.4213 38.6068 37.3148 40.4112 37.2467C41.2793 37.2126 42.1645 37.3999 42.9305 37.8255C43.3221 38.0297 43.6285 38.3021 43.986 38.5574C45.0414 39.3235 46.0968 40.0725 47.1522 40.8385C49.1609 42.2854 51.1696 43.7324 53.1783 45.1793C55.204 46.6262 57.2127 48.0902 59.2384 49.5371C60.3619 50.3542 61.4854 51.1543 62.6089 51.9714C62.8132 52.1246 63.0174 52.2778 63.2387 52.414C63.2047 52.1927 63.1877 51.9714 63.1536 51.7501C63.0174 51.9033 62.9664 52.1927 63.1536 52.3459C63.2387 52.414 63.3409 52.4991 63.426 52.5672C63.5962 52.7204 63.8516 52.7374 64.0218 52.5672C64.175 52.397 64.192 52.0906 64.0218 51.9374Z" fill="#1B1F2C"/>
<path d="M31.3039 40.6852C31.355 39.8511 30.623 39.2043 29.8059 39.3404C29.3974 39.4085 28.9548 39.5107 28.5122 39.6639C25.8226 40.5491 24.3416 42.5577 23.8139 43.3408C24.4267 42.9493 25.1417 42.5748 25.9418 42.2173C27.9675 41.3151 29.857 40.9576 31.3039 40.8214C31.2869 40.7704 31.2869 40.7363 31.3039 40.6852Z" fill="#E4B790"/>
<path d="M31.7295 40.6853C31.7636 39.9022 31.2358 39.1702 30.4698 38.949C30.0613 38.8298 29.6527 38.9149 29.2442 39C28.7846 39.1021 28.3249 39.2383 27.8823 39.4086C26.5375 39.9533 25.3289 40.8044 24.3757 41.8769C24.0352 42.2684 23.7118 42.6769 23.4394 43.1025C23.2011 43.46 23.6607 43.9026 24.0182 43.6813C26.2141 42.3195 28.7165 41.4683 31.3039 41.23C31.5423 41.213 31.7125 41.0598 31.7295 40.8044C31.7125 40.7704 31.7125 40.7363 31.7295 40.6853C31.7636 40.1405 30.9124 40.1405 30.8784 40.6853C30.8784 40.7363 30.8784 40.7704 30.8784 40.8215C31.0145 40.6853 31.1678 40.5321 31.3039 40.3959C28.5803 40.6512 25.9247 41.5194 23.5926 42.9663C23.7799 43.1536 23.9841 43.3579 24.1714 43.5451C24.2565 43.4089 24.3586 43.2727 24.4438 43.1536C24.4778 43.1195 24.4948 43.0855 24.5289 43.0344C24.5459 43.0174 24.5629 43.0004 24.5799 42.9833C24.614 42.9323 24.5459 43.0344 24.5799 42.9833C24.648 42.8982 24.7161 42.7961 24.8012 42.711C25.1417 42.3024 25.5162 41.9279 25.9247 41.5705C27.0312 40.6342 28.359 40.0214 29.7719 39.766C30.3847 39.6639 30.9124 40.0384 30.8784 40.6853C30.8443 41.23 31.6955 41.23 31.7295 40.6853Z" fill="#1B1F2C"/>
<path d="M32.2572 42.2174C32.1551 41.4003 31.3039 40.8896 30.5209 41.179C30.1294 41.3152 29.7208 41.5024 29.2952 41.7408C26.8099 43.1196 25.7375 45.3666 25.38 46.2518C25.9077 45.7581 26.5376 45.2474 27.2525 44.7538C29.074 43.4941 30.8613 42.7791 32.2572 42.3706C32.2742 42.3195 32.2742 42.2684 32.2572 42.2174Z" fill="#E4B790"/>
<path d="M32.6658 42.1151C32.5466 41.332 31.8827 40.7533 31.1167 40.6852C30.6741 40.6511 30.2826 40.8214 29.8911 40.9746C29.4655 41.1618 29.0569 41.3661 28.6654 41.6214C27.4398 42.4045 26.4184 43.4939 25.6694 44.7536C25.397 45.1962 25.1757 45.6558 24.9885 46.1325C24.9204 46.3027 25.0396 46.524 25.1758 46.6091C25.346 46.7113 25.5503 46.6772 25.6864 46.541C27.593 44.7877 29.8911 43.494 32.3764 42.762C32.5296 42.7109 32.7168 42.5407 32.6828 42.3534C32.6828 42.3024 32.6658 42.2683 32.6658 42.2172C32.6317 41.9959 32.4956 41.7917 32.2402 41.7917C32.0359 41.7917 31.7806 41.9959 31.8146 42.2172C31.8146 42.2683 31.8317 42.3024 31.8317 42.3534C31.9338 42.2172 32.0359 42.0811 32.1381 41.9449C29.5166 42.7109 27.0823 44.0727 25.0736 45.9282C25.3119 46.0644 25.5502 46.2006 25.7886 46.3368C25.8056 46.2857 25.7545 46.4219 25.7886 46.3197C25.8056 46.2857 25.8226 46.2516 25.8396 46.2176C25.8737 46.1325 25.9077 46.0474 25.9588 45.9622C26.0439 45.775 26.146 45.5878 26.2482 45.4005C26.5035 44.9409 26.7929 44.5153 27.1163 44.1068C28.0186 42.9833 29.2101 42.0981 30.5549 41.5874C31.1507 41.3661 31.7295 41.6555 31.8317 42.3023C31.8657 42.5236 32.1551 42.6598 32.3594 42.5917C32.6147 42.5747 32.7168 42.3364 32.6658 42.1151Z" fill="#1B1F2C"/>
<path d="M33.3807 43.5451C33.1083 42.7621 32.1891 42.4216 31.4741 42.8642C31.1166 43.0855 30.7591 43.3408 30.3846 43.6473C28.2227 45.5027 27.6269 47.9029 27.4397 48.8392C27.8653 48.2434 28.3759 47.6136 28.9888 46.9837C30.5208 45.3836 32.138 44.3452 33.4147 43.6643C33.4147 43.6302 33.3977 43.5792 33.3807 43.5451Z" fill="#E4B790"/>
<path d="M33.7892 43.4259C33.5339 42.7109 32.87 42.2002 32.104 42.2343C31.6954 42.2513 31.355 42.4215 31.0145 42.6428C30.606 42.9152 30.2315 43.2046 29.874 43.528C28.7675 44.5494 27.9504 45.8431 27.4397 47.239C27.2695 47.7156 27.1333 48.2093 27.0312 48.7029C26.929 49.1796 27.5248 49.4179 27.8142 49.0264C29.3293 46.9155 31.3379 45.2133 33.636 44.0046C33.7892 43.9195 33.8914 43.6982 33.8233 43.528C33.8233 43.511 33.8062 43.4769 33.7892 43.4259C33.619 42.9152 32.7849 43.1365 32.9721 43.6472C32.9892 43.6982 33.0062 43.7323 33.0232 43.7834C33.0913 43.6302 33.1594 43.4599 33.2105 43.3067C30.7932 44.5834 28.6824 46.4049 27.0822 48.6349C27.3376 48.737 27.5929 48.8561 27.8653 48.9583C28.3249 46.6432 29.6186 44.4983 31.6614 43.2556C32.121 42.9663 32.7679 43.1024 32.9721 43.6642C33.0572 43.8855 33.2615 44.0217 33.4998 43.9536C33.7041 43.9025 33.8743 43.6472 33.7892 43.4259Z" fill="#1B1F2C"/>
<path d="M43.9859 39.7491C44.071 39.4427 44.088 39.1363 44.037 38.8299C43.6795 36.7361 40.0706 35.5956 35.9681 36.2935C31.8657 36.9914 28.8356 39.2384 29.1761 41.3322C29.5335 43.426 33.1424 44.5666 37.2449 43.8686" fill="white"/>
<path d="M44.3944 39.8681C44.6327 38.9319 44.3604 38.0126 43.6965 37.3147C43.0837 36.6849 42.2325 36.3104 41.3984 36.055C39.1344 35.3911 36.581 35.5784 34.334 36.2082C33.2615 36.5146 32.1891 36.9402 31.2528 37.536C30.4868 38.0126 29.7548 38.6084 29.2612 39.3745C28.8526 40.0213 28.6483 40.7873 28.8186 41.5363C28.9888 42.3024 29.5506 42.9152 30.1974 43.3408C30.9805 43.8685 31.9167 44.1579 32.853 44.3111C34.0105 44.5153 35.2021 44.5324 36.3767 44.4132C36.7171 44.3792 37.0576 44.3281 37.381 44.277C37.6023 44.243 37.7385 43.9536 37.6704 43.7493C37.6023 43.511 37.381 43.4089 37.1427 43.4599C36.0362 43.6472 34.8957 43.6982 33.7722 43.5961C32.904 43.511 31.9848 43.3237 31.2188 42.9492C30.5889 42.6428 30.0612 42.2683 29.7718 41.6896C29.7548 41.6555 29.7378 41.6215 29.7208 41.5874C29.7548 41.6725 29.7038 41.5534 29.7038 41.5363C29.6867 41.4683 29.6697 41.4172 29.6527 41.3491C29.6357 41.3151 29.6357 41.281 29.6357 41.2299C29.6357 41.2129 29.6186 41.0938 29.6357 41.1959C29.6186 41.1108 29.6186 41.0257 29.6186 40.9235C29.6186 40.8554 29.6186 40.8044 29.6357 40.7363C29.6186 40.8384 29.6357 40.7022 29.6357 40.7022C29.6357 40.6682 29.6527 40.6341 29.6527 40.5831C29.6697 40.498 29.6867 40.4299 29.7208 40.3618C29.7378 40.3447 29.7378 40.3107 29.7548 40.2937C29.7718 40.2426 29.7718 40.2426 29.7548 40.2767C29.7718 40.2596 29.7718 40.2256 29.7889 40.2086C30.0953 39.5617 30.5889 39.051 31.2018 38.6084C31.9848 38.0297 32.87 37.6041 33.7892 37.2806C35.832 36.5657 38.13 36.2763 40.2749 36.6508C41.1941 36.821 42.1134 37.0934 42.8453 37.6552C43.0837 37.8424 43.322 38.0977 43.4752 38.3701C43.4922 38.4042 43.5092 38.4382 43.5263 38.4722C43.5433 38.4893 43.5433 38.5233 43.5603 38.5403C43.5433 38.5063 43.5433 38.5063 43.5603 38.5403C43.5944 38.6084 43.6114 38.6936 43.6284 38.7616C43.6965 39.051 43.6795 39.3234 43.6114 39.6128C43.4411 40.1575 44.2582 40.3958 44.3944 39.8681Z" fill="#1B1F2C"/>
<path opacity="0.29" d="M34.4361 9.63574C34.6064 9.90811 34.7596 10.2826 34.6915 10.6912C34.5383 11.7125 33.0913 12.2232 32.2232 12.5126C31.4231 12.785 30.0272 13.1254 28.1547 12.8531C29.3463 13.568 30.4017 13.7553 30.9975 13.8063C31.6784 13.8744 33.2616 14.0276 34.5723 13.0403C34.9809 12.7339 35.866 12.07 35.7809 11.1338C35.7128 10.3337 34.5893 9.72086 34.4361 9.63574Z" fill="#836038"/>
<path d="M49.9439 26.7095C49.8928 27.9011 49.6545 29.0246 49.1779 30.08C49.1608 30.1311 49.1438 30.1821 49.1098 30.2332C49.1098 30.2502 49.0927 30.2672 49.0927 30.2843C49.0927 30.3013 49.0757 30.3183 49.0757 30.3353C49.0587 30.3694 49.0417 30.4034 49.0247 30.4375C48.9566 30.5737 48.8885 30.7098 48.8034 30.829C48.7863 30.863 48.7693 30.9141 48.7353 30.9482C48.1905 31.8163 46.9479 33.3654 44.2583 35.34C40.2579 38.2679 39.8834 38.8297 39.2536 39.7659C39.1685 39.8851 39.0834 40.0043 38.9642 40.1915C38.1982 41.281 37.7726 41.8598 36.2405 42.3704C35.0149 42.762 34.317 42.3364 33.1254 41.6044L33.0573 41.5704C32.8871 41.4682 32.7339 41.3661 32.5466 41.264C31.0656 40.3958 28.8867 40.1915 26.112 39.9362L25.1076 39.8511C22.0946 39.5787 17.9751 36.5827 16.5622 34.7442C16.0685 34.0974 15.677 33.5526 15.3876 33.1271C14.5705 31.7312 14.1279 30.1821 13.9237 28.599V28.565C13.7534 26.6073 13.7705 22.2665 16.3239 16.9895C19.0646 11.3719 23.7288 9.14195 25.6183 8.44401C25.7715 8.39295 25.9247 8.34188 26.0779 8.27379C26.2311 8.23974 26.3673 8.18868 26.4865 8.15464C26.5376 8.13761 26.5886 8.12059 26.6397 8.08654C26.6397 8.08654 26.6397 8.08654 26.6567 8.06952C27.5249 7.79716 28.393 7.55883 29.2953 7.42265C30.572 7.21837 31.8657 7.18435 33.1594 7.26946C35.5086 7.54182 38.8791 8.40997 42.3007 10.8102C47.6118 14.5552 49.1609 19.9344 49.6205 22.4878V22.5219C49.7907 23.9177 49.9779 25.3136 49.9439 26.7095Z" fill="#A77B4A"/>
<path d="M49.5183 26.7095C49.4843 27.3904 49.3992 28.0543 49.2119 28.7011C49.1268 29.0246 49.0247 29.331 48.8885 29.6374C48.8374 29.7565 48.7863 29.8927 48.7353 30.0119C48.6842 30.1311 48.565 30.3183 48.5821 30.4375C48.5991 30.3694 48.6161 30.3013 48.6331 30.2162C48.497 30.4885 48.3438 30.7439 48.1735 30.9992C48.1225 31.0843 48.0544 31.1524 48.0033 31.2375C47.9693 31.2886 47.9352 31.3397 47.9011 31.3737C47.8501 31.4418 47.8841 31.3907 47.9011 31.3737C47.8841 31.4078 47.8501 31.4418 47.8331 31.4588C47.4586 31.9355 47.033 32.3781 46.6074 32.8036C45.3137 34.0633 43.8157 35.1017 42.3688 36.1912C41.5006 36.8551 40.6154 37.5189 39.8494 38.302C39.4408 38.7276 39.1004 39.1872 38.7769 39.6808C38.4024 40.2256 38.062 40.7703 37.5683 41.1959C37.0917 41.6044 36.3086 41.9619 35.6447 42.047C34.8617 42.1491 34.1808 41.7236 33.5509 41.3321C32.9041 40.9405 32.2913 40.566 31.5933 40.3277C29.9932 39.783 28.2398 39.6809 26.5716 39.5276C26.095 39.4766 25.6183 39.4425 25.1417 39.3915C24.5629 39.3404 23.9331 39.1702 23.3373 38.9489C21.8903 38.4212 20.5455 37.6041 19.3029 36.6848C18.7581 36.2763 18.2304 35.8337 17.7368 35.3571C17.2091 34.8464 16.8686 34.4038 16.4601 33.842C16.2217 33.5186 15.9834 33.1952 15.7451 32.8547C15.7621 32.9228 15.7791 32.9909 15.7962 33.076C15.7621 32.7696 15.5238 32.4632 15.3876 32.1908C15.2514 31.9014 15.1153 31.595 15.0131 31.2886C14.7918 30.6758 14.6046 30.0289 14.4854 29.382C14.3322 28.633 14.2811 27.9011 14.2811 27.1521C14.2641 25.2285 14.5535 23.3049 15.0642 21.4494C15.7451 18.9811 16.7835 16.5469 18.2985 14.4701C19.439 12.904 20.869 11.5422 22.4691 10.4867C23.0819 10.0782 23.7288 9.7037 24.3927 9.38027C24.665 9.24409 24.9204 9.12493 25.1928 9.00577C25.2438 8.98875 25.1587 9.02279 25.1587 9.02279C25.1757 9.02279 25.1928 9.00577 25.2098 9.00577C25.2438 8.98875 25.2608 8.98876 25.2949 8.97174C25.346 8.95471 25.4141 8.92066 25.4651 8.90364C25.6013 8.85257 25.7375 8.8015 25.8737 8.75043C27.1333 8.30784 28.4101 7.91631 29.7719 7.74608C31.0486 7.57586 32.4445 7.55883 33.6701 7.74608C35.9171 8.08654 38.1131 8.83555 40.1047 9.92501C42.2666 11.1166 44.2072 12.6997 45.7222 14.6573C46.8798 16.1553 47.782 17.8576 48.3948 19.611C48.6331 20.2919 48.8374 20.9728 48.9906 21.6707C49.0587 21.9431 49.0927 22.2325 49.1608 22.5219C49.1779 22.5729 49.1608 22.4708 49.1608 22.4708C49.1608 22.5219 49.1779 22.5559 49.1779 22.607C49.1949 22.6921 49.1949 22.7772 49.2119 22.8623C49.246 23.0496 49.263 23.2368 49.28 23.4071C49.3311 23.7645 49.3651 24.122 49.3992 24.4965C49.5013 25.2625 49.5353 25.9775 49.5183 26.7095C49.5013 27.2542 50.3524 27.2542 50.3695 26.7095C50.4205 25.2625 50.2333 23.7475 50.012 22.3516C49.9098 21.7218 49.7396 21.092 49.5694 20.4621C49.0587 18.7088 48.3097 17.0235 47.3224 15.4915C46.0287 13.4657 44.3434 11.7294 42.3688 10.3506C40.2409 8.8696 37.8407 7.79716 35.3213 7.21838C34.2319 6.96304 33.1254 6.80983 32.0019 6.79281C30.5039 6.77579 29.0229 6.96305 27.5759 7.35457C26.9461 7.5248 26.3163 7.72907 25.7034 7.95037C25.414 8.05251 25.1417 8.15463 24.8693 8.27379C24.2565 8.52913 23.6607 8.81853 23.0819 9.15898C21.4477 10.0952 19.9668 11.2868 18.7071 12.6827C16.9707 14.6063 15.7621 16.8873 14.8769 19.3046C14.0939 21.4494 13.6002 23.6964 13.4641 25.9775C13.43 26.7095 13.413 27.4415 13.4641 28.1734C13.5321 29.2969 13.7875 30.4375 14.179 31.4929C14.4003 32.1227 14.6897 32.7355 15.0301 33.3313C15.0131 33.2633 14.9961 33.1952 14.9791 33.11C15.0131 33.3313 15.1493 33.4846 15.2685 33.6548C15.4046 33.842 15.5238 34.0123 15.66 34.1995C15.9153 34.54 16.1707 34.8974 16.443 35.2209C16.8516 35.7145 17.3112 36.1571 17.8049 36.5657C19.0135 37.6041 20.3583 38.5233 21.8052 39.2212C22.5202 39.5617 23.2522 39.8681 24.0182 40.0724C24.5629 40.2085 25.1076 40.2596 25.6694 40.3107C27.2355 40.4469 28.8186 40.549 30.3677 40.8895C31.0486 41.0427 31.7295 41.2299 32.3253 41.5874C33.0743 42.013 33.7722 42.5577 34.5893 42.813C35.4575 43.0854 36.3257 42.8471 37.1257 42.4896C37.7386 42.2172 38.2833 41.8087 38.7089 41.281C39.1004 40.8043 39.4238 40.2937 39.7643 39.8C39.8324 39.6979 39.9004 39.5957 39.9685 39.5106C39.9856 39.4766 40.0707 39.3914 39.9685 39.5106C39.9856 39.4936 40.0026 39.4596 40.0196 39.4425C40.0707 39.3915 40.1047 39.3234 40.1558 39.2723C40.7346 38.6084 41.4325 38.0296 42.1304 37.4849C44.5306 35.5954 47.2543 33.9442 48.9906 31.3567C49.0417 31.2716 49.0928 31.1865 49.1438 31.1184C49.246 30.9482 49.4843 30.6417 49.4502 30.4375C49.4332 30.5056 49.4162 30.5736 49.3992 30.6588C49.5524 30.3864 49.6545 30.08 49.7737 29.7736C49.8928 29.4672 49.995 29.1437 50.0801 28.8203C50.2503 28.1394 50.3524 27.4244 50.3865 26.7095C50.3865 26.1647 49.5353 26.1647 49.5183 26.7095Z" fill="#1C202C"/>
<path d="M48.6332 22.5389C48.6332 22.5559 48.6332 22.5559 48.6332 22.5729C48.7013 24.156 48.1395 25.7732 47.4756 27.1861C46.9649 28.2415 46.3521 29.2459 45.6542 30.1821C45.3648 30.5566 45.0754 30.9311 44.752 31.2886L44.735 31.3056C44.3775 31.7482 43.986 32.1568 43.5264 32.5653C43.5093 32.5823 43.4923 32.5994 43.4753 32.6164C43.4753 32.6164 43.4753 32.6164 43.4583 32.6334C42.8454 33.1441 42.1645 33.6207 41.4155 34.0463C41.3815 34.0463 41.3645 34.0633 41.3304 34.0804C40.9219 34.2846 40.5133 34.4889 40.1048 34.6932C39.8324 34.8293 39.5771 34.9655 39.3387 35.1187C38.743 35.4932 38.2833 35.9358 37.8407 36.4806C37.7897 36.5487 37.7216 36.6338 37.6535 36.7018C36.7513 37.7913 35.6788 39.1531 34.1468 39.1021C33.4318 39.068 32.785 38.6595 32.1551 38.3701C31.9168 38.2679 31.6785 38.1658 31.4572 38.0637C30.9805 37.8764 30.5039 37.7402 30.0103 37.6041C29.108 37.3828 28.1888 37.2976 27.2696 37.2125C27.2526 37.2125 27.2355 37.2125 27.2185 37.2125C23.3373 36.9402 19.9498 35.4422 17.6517 33.0079L17.5836 32.9228C17.5666 32.9058 17.5496 32.8887 17.5325 32.8717C17.5325 32.8717 17.5155 32.8547 17.5155 32.8377C17.4985 32.8207 17.4985 32.8207 17.4815 32.8036C16.7325 31.8333 16.1197 30.812 15.66 29.6374C15.0983 28.1904 14.9962 26.7946 15.3026 25.3136C15.9324 23.4071 17.4645 21.7729 19.4902 20.9558C20.8009 20.411 22.2649 20.1727 23.848 20.2408C24.8013 20.2749 25.7716 20.4962 26.7078 20.6834C27.2526 20.8026 27.8313 20.9217 28.3931 21.0239C29.84 21.2452 31.287 21.126 32.6828 20.6323C33.9595 20.1898 35.1511 19.5429 36.2917 18.913L36.4789 18.8109C38.6578 17.6193 41.3645 16.1213 44.1732 16.9214C46.6415 17.6704 48.463 19.9174 48.6332 22.5389Z" fill="#DFBA96"/>
<path d="M48.2076 22.5389C48.1735 22.9815 48.2076 23.4071 48.1395 23.8497C48.0714 24.2923 47.9522 24.7349 47.816 25.1775C47.5437 26.0286 47.1862 26.8457 46.7606 27.6458C46.3351 28.4629 45.8244 29.2459 45.2796 29.9779C44.7519 30.6758 44.1902 31.3567 43.5603 31.9525C42.8965 32.5994 42.0453 33.1952 41.1942 33.6718C41.2623 33.6548 41.3304 33.6378 41.4155 33.6208C41.1091 33.6548 40.8197 33.8591 40.5303 33.9953C40.2239 34.1485 39.9004 34.3017 39.594 34.4719C39.0323 34.7783 38.5046 35.1528 38.045 35.6124C37.2619 36.3955 36.6661 37.3488 35.815 38.0467C35.4405 38.3531 34.9979 38.5914 34.5212 38.6595C33.9765 38.7446 33.4488 38.5233 32.9722 38.285C31.7465 37.6892 30.5039 37.2126 29.1591 36.9913C27.8824 36.787 26.5886 36.787 25.3289 36.5487C24.2054 36.3444 23.099 36.021 22.0435 35.5614C21.0392 35.1188 20.0859 34.574 19.2178 33.8931C18.8092 33.5697 18.4007 33.2122 18.0432 32.8207C17.6687 32.4292 17.3623 31.9866 17.0729 31.527C16.3749 30.4375 15.8132 29.2289 15.6089 27.9522C15.5068 27.3223 15.5068 26.6925 15.5749 26.0626C15.643 25.5009 15.8132 25.0072 16.0856 24.5136C17.158 22.5219 19.1497 21.2792 21.3286 20.8537C22.6223 20.5983 23.9671 20.6154 25.2779 20.8537C26.6737 21.109 28.0356 21.5176 29.4655 21.5686C30.8614 21.6197 32.2232 21.3133 33.5169 20.7856C34.6404 20.326 35.6958 19.7302 36.7512 19.1514C38.811 18.0109 41.1772 16.7342 43.6114 17.2448C45.6031 17.6704 47.2713 19.1684 47.9182 21.109C48.0714 21.5856 48.1735 22.0623 48.2076 22.5389C48.2246 22.7602 48.3948 22.9645 48.6331 22.9645C48.8544 22.9645 49.0757 22.7772 49.0587 22.5389C48.8715 19.9174 47.1692 17.5853 44.6838 16.6661C41.7219 15.5596 38.7769 17.0576 36.2065 18.4705C34.8787 19.2025 33.5339 19.9685 32.07 20.3941C31.2699 20.6324 30.4358 20.7345 29.6017 20.7175C28.7505 20.7005 27.9334 20.5302 27.0993 20.36C26.2482 20.1728 25.4141 19.9855 24.5459 19.8834C23.7288 19.7812 22.8947 19.7812 22.0776 19.8664C20.6136 20.0196 19.1497 20.4621 17.907 21.2792C16.8005 22.0112 15.8473 23.0326 15.2515 24.2242C15.0982 24.5306 14.9621 24.837 14.8599 25.1604C14.7408 25.552 14.7067 25.9775 14.6897 26.3861C14.6386 27.1861 14.7067 27.9862 14.894 28.7522C15.2855 30.3013 16.1026 31.7483 17.0729 32.9909C17.4304 33.4676 17.907 33.8761 18.3666 34.2506C18.8943 34.6932 19.4391 35.0847 20.0178 35.4422C21.2094 36.1572 22.5032 36.7019 23.8309 37.0594C24.5459 37.2466 25.2608 37.3998 25.9928 37.4849C26.7759 37.5871 27.5759 37.6211 28.376 37.7232C29.1931 37.8084 29.9932 37.9956 30.7762 38.251C31.5252 38.4893 32.1891 38.8638 32.9041 39.1702C33.585 39.4596 34.2999 39.5787 35.0319 39.3745C35.6788 39.1872 36.2235 38.7957 36.7002 38.3361C37.7045 37.3828 38.4024 36.1401 39.6111 35.4082C39.9685 35.1869 40.343 34.9996 40.7005 34.8124C40.8878 34.7102 41.092 34.6251 41.2793 34.523C41.3133 34.506 41.3474 34.4889 41.3814 34.4719C41.4155 34.4549 41.5517 34.3527 41.4325 34.4379C41.4155 34.4379 41.3984 34.4379 41.3644 34.4549C41.4155 34.4549 41.4836 34.4379 41.5346 34.4208C41.6027 34.3868 41.6538 34.3527 41.7219 34.3187C42.4028 33.9272 43.0497 33.4676 43.6625 32.9569C44.1902 32.5143 44.7519 31.8674 45.2456 31.3057C45.7903 30.6758 46.284 29.9949 46.7266 29.297C47.5948 27.9351 48.3437 26.4201 48.7353 24.854C48.8374 24.4625 48.9055 24.071 48.9566 23.6794C49.0076 23.2879 48.9906 22.9134 49.0076 22.5219C49.0927 21.9942 48.2416 21.9942 48.2076 22.5389Z" fill="#1C202C"/>
<path d="M38.1301 26.0283C39.0663 26.6241 40.2239 27.1007 41.5006 27.4241C42.1985 27.5944 42.9305 27.7306 43.6965 27.8157C43.7476 27.8157 43.7986 27.8327 43.8497 27.8327C46.0627 28.037 48.1735 27.7816 49.8077 27.1177C51.3908 26.4709 52.3271 25.5176 52.4122 24.4452C52.5654 22.8791 50.9482 21.347 48.4629 20.4108C48.4118 20.4108 48.3778 20.3937 48.3437 20.3597C47.2373 19.9511 45.9776 19.6788 44.6328 19.5426C44.3434 19.5086 44.054 19.4915 43.7646 19.4915C43.2369 19.4745 42.7262 19.4745 42.2326 19.5085C40.326 19.6277 38.6748 20.1044 37.5513 20.8193C36.6831 21.3811 36.1384 22.096 36.0703 22.9131C35.9511 24.0026 36.6831 25.1091 38.1301 26.0283Z" fill="#A77B4A"/>
<path d="M41.5005 27.4244C42.1985 27.5946 42.9305 27.7308 43.6965 27.8159C43.7476 27.8159 43.7986 27.8329 43.8497 27.8329C46.0627 28.0372 48.1735 27.7819 49.8077 27.118C51.3908 26.4711 52.327 25.5178 52.4122 24.4454C52.5654 22.8793 50.9482 21.3473 48.4629 20.411C48.4118 20.411 48.3778 20.394 48.3437 20.3599C47.2372 19.9514 45.9775 19.679 44.6327 19.5429C44.3434 19.5088 44.054 19.4918 43.7646 19.4918C43.2369 19.4748 42.7262 19.4747 42.2325 19.5088C43.6114 19.8663 47.4245 21.6196 46.8627 24.1901C46.2159 27.152 43.1518 27.2371 41.5005 27.4244Z" fill="#836038"/>
<path d="M43.6965 27.799C43.7476 27.799 43.7987 27.816 43.8497 27.816C46.0627 28.0203 48.1735 27.765 49.8077 27.1011C51.3908 26.4542 52.3271 25.5009 52.4122 24.4285C52.5654 22.8624 50.9482 21.3303 48.4629 20.3941C48.4118 20.3941 48.3778 20.3771 48.3438 20.343C47.2373 19.9345 45.9776 19.6621 44.6328 19.5259C44.3434 19.4919 44.054 19.4749 43.7646 19.4749C45.8414 20.1387 49.5353 21.7559 49.6545 23.6795C49.7737 25.6882 47.2032 26.9649 44.3434 27.6458C44.1051 27.7139 43.9008 27.765 43.6965 27.799Z" fill="#62482A"/>
<path d="M53.0591 24.4455C53.1442 23.4582 52.6165 22.556 51.9356 21.8921C51.527 21.4835 51.0674 21.1431 50.5737 20.8537C50.3014 20.6835 50.012 20.5303 49.7056 20.3941C49.5354 20.309 49.3651 20.2409 49.1949 20.1728C49.0587 20.1217 48.8715 20.0706 48.7523 20.0025C48.8034 20.0536 48.8544 20.1047 48.9055 20.1558C48.7523 19.9174 48.3437 19.8493 48.0714 19.7642C47.782 19.6791 47.4756 19.594 47.1862 19.5259C46.5393 19.3727 45.8925 19.2536 45.2286 19.1855C43.9008 19.0323 42.556 19.0493 41.2282 19.2195C40.1217 19.3727 38.9982 19.6621 38.0109 20.1898C37.0747 20.6664 36.1725 21.4325 35.9001 22.4879C35.6448 23.4922 36.0533 24.4796 36.7172 25.2286C37.5173 26.1478 38.6408 26.7606 39.7472 27.2202C42.1304 28.2075 44.8881 28.5139 47.4415 28.1905C48.6161 28.0373 49.7907 27.7479 50.8631 27.1862C51.7483 26.7266 52.5824 26.0456 52.9229 25.0753C53.008 24.8881 53.042 24.6668 53.0591 24.4455C53.0761 24.2242 52.8548 24.0199 52.6335 24.0199C52.3782 24.0199 52.225 24.2242 52.2079 24.4455C52.1909 24.5476 52.1569 24.7519 52.0888 24.8881C52.0377 25.0243 51.9356 25.2115 51.8164 25.3647C51.5781 25.6882 51.2547 25.9605 50.9142 26.1818C50.046 26.7436 49.0247 27.067 48.0033 27.2543C45.7052 27.6968 43.2199 27.4926 40.9899 26.7946C39.9515 26.4712 38.9302 26.0116 38.062 25.3477C37.3981 24.837 36.7172 24.088 36.6661 23.2539C36.6151 22.3517 37.2789 21.6538 37.9939 21.1941C38.794 20.6835 39.7302 20.377 40.6665 20.1898C43.2199 19.6621 45.9946 19.9174 48.4289 20.8026C48.3438 20.7345 48.2586 20.6664 48.1735 20.6154C48.2927 20.7856 48.4459 20.8197 48.6331 20.8877C48.7693 20.9388 48.8885 20.9899 49.0247 21.0409C49.3141 21.1601 49.5864 21.2963 49.8588 21.4495C50.3354 21.7048 50.795 22.0112 51.2036 22.3857C51.527 22.6921 51.8164 23.0156 52.0207 23.4241C52.1909 23.7476 52.259 24.088 52.2249 24.4796C52.2079 24.7008 52.4292 24.9051 52.6505 24.9051C52.8888 24.8711 53.042 24.6668 53.0591 24.4455Z" fill="#1C202C"/>
<path d="M38.0279 22.9304C37.9088 23.5602 37.9428 24.173 38.079 24.6667C38.2322 25.1604 38.4875 25.4838 38.828 25.5859C38.862 25.6029 38.8961 25.6029 38.9131 25.6029C39.3046 25.671 39.6962 25.4668 40.0366 25.0071C40.343 24.5986 40.5813 24.0198 40.6835 23.39C40.8026 22.7601 40.7686 22.1473 40.6324 21.6537C40.4622 21.1089 40.1728 20.7685 39.7813 20.7174C39.0493 20.5983 38.2662 21.5686 38.0279 22.9304Z" fill="#1C202C"/>
<path d="M39.4919 22.7943C39.8116 22.7943 40.0707 22.5351 40.0707 22.2155C40.0707 21.8958 39.8116 21.6367 39.4919 21.6367C39.1723 21.6367 38.9131 21.8958 38.9131 22.2155C38.9131 22.5351 39.1723 22.7943 39.4919 22.7943Z" fill="white"/>
<path d="M39.7983 23.5433C39.9487 23.5433 40.0707 23.4213 40.0707 23.2709C40.0707 23.1205 39.9487 22.9985 39.7983 22.9985C39.6479 22.9985 39.5259 23.1205 39.5259 23.2709C39.5259 23.4213 39.6479 23.5433 39.7983 23.5433Z" fill="white"/>
<path d="M26.6908 24.752C26.5035 23.9519 25.8737 23.3221 24.9204 22.8795C23.7118 22.3177 22.0095 22.0794 20.1029 22.2326C19.6093 22.2667 19.0986 22.3348 18.5709 22.4199C18.2815 22.471 18.0091 22.522 17.7198 22.5901C16.392 22.8965 15.1834 23.3561 14.145 23.9179C14.1109 23.9519 14.0769 23.969 14.0258 23.986C11.6937 25.2627 10.2978 26.999 10.6723 28.5311C10.9277 29.5865 11.9661 30.4036 13.6343 30.8121C15.3366 31.2377 17.4644 31.1866 19.6263 30.6759C19.6774 30.6589 19.7284 30.6589 19.7795 30.6419C20.5285 30.4546 21.2265 30.2333 21.8903 29.961C23.116 29.4673 24.1884 28.8375 25.0396 28.1055C26.3503 26.999 26.9291 25.8074 26.6908 24.752Z" fill="#A77B4A"/>
<path d="M21.9073 29.9609C21.2435 30.2333 20.5285 30.4546 19.7965 30.6418C19.7454 30.6588 19.6944 30.6588 19.6433 30.6759C17.4814 31.1865 15.3536 31.2376 13.6513 30.812C11.9831 30.3865 10.9447 29.5864 10.6893 28.531C10.3318 26.9989 11.7107 25.2626 14.0428 23.9859C14.0939 23.9859 14.1279 23.9689 14.162 23.9178C15.2004 23.3731 16.409 22.9135 17.7368 22.59C18.0262 22.5219 18.3155 22.4539 18.5879 22.4198C19.0986 22.3177 19.6263 22.2496 20.12 22.2325C18.7922 22.7943 15.2855 25.0413 16.1877 27.5096C17.2091 30.3524 20.2561 30.012 21.9073 29.9609Z" fill="#836038"/>
<path d="M19.7965 30.6419C19.7454 30.6589 19.6944 30.659 19.6433 30.676C17.4814 31.1867 15.3536 31.2377 13.6513 30.8121C11.9831 30.3866 10.9447 29.5865 10.6893 28.5311C10.3318 26.999 11.7107 25.2627 14.0428 23.986C14.0939 23.986 14.1279 23.969 14.162 23.9179C15.2004 23.3732 16.409 22.9136 17.7368 22.5901C18.0262 22.5221 18.3155 22.454 18.5879 22.4199C16.6303 23.3732 13.1917 25.484 13.3449 27.4076C13.5151 29.4163 16.2388 30.3185 19.1497 30.5909C19.3709 30.6079 19.5922 30.6249 19.7965 30.6419Z" fill="#62482A"/>
<path d="M10.8766 28.4459C10.7915 28.1055 10.8255 27.765 10.9447 27.3905C11.0639 27.016 11.3192 26.6075 11.5916 26.284C11.9491 25.8585 12.3406 25.501 12.7832 25.1776C13.0385 24.9903 13.2938 24.8201 13.5662 24.6499C13.7024 24.5647 13.8216 24.4966 13.9577 24.4285C14.0769 24.3605 14.2301 24.3094 14.2982 24.1732C14.2471 24.2243 14.1961 24.2753 14.145 24.3264C16.2047 23.237 18.5709 22.6582 20.903 22.6412C21.9414 22.6412 22.9968 22.7433 23.9842 23.0837C24.7672 23.3561 25.6354 23.8157 25.9588 24.6328C26.2652 25.3989 25.9418 26.2159 25.4481 26.8798C24.8183 27.731 23.9331 28.3608 23.0139 28.8715C20.9371 30.0461 18.4858 30.6759 16.1196 30.6929C14.928 30.71 13.7024 30.5738 12.5959 30.1312C12.1703 29.961 11.7448 29.7226 11.4213 29.3992C11.149 29.1268 10.9788 28.8374 10.8766 28.4459C10.7404 27.9182 9.92334 28.1395 10.0595 28.6672C10.3489 29.8248 11.3703 30.5397 12.4257 30.9653C13.7875 31.51 15.3196 31.6122 16.7665 31.5271C18.4007 31.4249 20.0349 31.0845 21.5669 30.4887C22.9458 29.9609 24.3076 29.246 25.3971 28.2246C26.3333 27.3565 27.1504 26.1308 26.9121 24.786C26.6738 23.4753 25.4481 22.6752 24.2906 22.2667C22.9458 21.79 21.4478 21.7049 20.0179 21.807C18.4177 21.9262 16.8346 22.2667 15.3366 22.8454C14.9791 22.9816 14.6386 23.1348 14.2982 23.288C14.145 23.3561 13.9748 23.4412 13.8216 23.5264C13.7875 23.5434 13.7535 23.5604 13.7364 23.5774C13.7535 23.5604 13.5662 23.7306 13.5832 23.7306C13.5662 23.7306 13.9067 23.5093 13.6173 23.6455C13.5662 23.6625 13.5322 23.6966 13.4811 23.7136C12.8342 24.0711 12.2214 24.4966 11.6767 24.9903C10.8255 25.7393 10.0595 26.7436 9.99143 27.9182C9.9744 28.1736 10.0085 28.4289 10.0595 28.6672C10.1787 29.212 10.9958 28.9907 10.8766 28.4459Z" fill="#1C202C"/>
<path d="M24.7332 25.0413C24.9374 25.6541 25.0055 26.2669 24.9204 26.7606C24.8523 27.2713 24.631 27.6287 24.3076 27.7819C24.2735 27.799 24.2395 27.816 24.2225 27.816C23.848 27.9351 23.4224 27.7819 23.0309 27.3904C22.6734 27.0329 22.367 26.4882 22.1627 25.8754C21.9584 25.2626 21.8904 24.6497 21.9755 24.1391C22.0606 23.5773 22.3159 23.2028 22.6904 23.0836C23.4054 22.8623 24.3076 23.7135 24.7332 25.0413Z" fill="#1C202C"/>
<path d="M23.167 25.1094C23.4867 25.1094 23.7458 24.8503 23.7458 24.5307C23.7458 24.211 23.4867 23.9519 23.167 23.9519C22.8474 23.9519 22.5883 24.211 22.5883 24.5307C22.5883 24.8503 22.8474 25.1094 23.167 25.1094Z" fill="white"/>
<path d="M24.1033 25.6031C24.2537 25.6031 24.3757 25.4811 24.3757 25.3307C24.3757 25.1803 24.2537 25.0583 24.1033 25.0583C23.9529 25.0583 23.8309 25.1803 23.8309 25.3307C23.8309 25.4811 23.9529 25.6031 24.1033 25.6031Z" fill="white"/>
<path d="M28.5292 25.7052C28.9378 25.7222 29.3123 25.8924 29.6527 26.1307C29.9251 26.318 30.1464 26.5563 30.3677 26.7946C30.606 27.033 30.8273 27.2372 31.2018 27.1351C31.8146 26.9478 32.1721 26.284 32.5977 25.8414C32.9722 25.4498 33.4148 25.1434 33.8914 24.9221C33.8063 24.8711 33.7212 24.837 33.6361 24.7859C33.602 24.803 33.551 24.803 33.4999 24.7859C32.0019 24.2242 30.2315 24.4455 28.9378 25.3817C28.7846 25.4839 28.6484 25.586 28.5292 25.7052Z" fill="#352B35"/>
<path d="M27.6951 30.1992C28.342 30.8971 29.3123 31.1014 30.2315 31.1184C31.2699 31.1354 32.3934 31.0333 33.3978 30.7439C34.2829 30.4885 35.1341 29.9949 35.6448 29.2118C36.1214 28.4798 36.1725 27.5606 35.9171 26.7265C35.4065 25.0583 33.7212 24.0029 32.0189 24.0029C31.9679 24.0029 29.4825 23.9348 28.0696 25.5349C26.9291 26.8457 26.4014 28.8544 27.6951 30.1992ZM32.7509 28.2415C32.6658 28.0032 32.7169 27.7479 32.8871 27.5436C32.9722 27.4244 33.0743 27.3393 33.2105 27.3053C33.3297 27.2712 33.4318 27.2883 33.5339 27.3393C33.585 27.3563 33.6191 27.3904 33.6701 27.4585C33.6871 27.4755 33.7382 27.5436 33.7723 27.5947C33.8233 27.7138 33.8404 27.833 33.8404 27.9522C33.7382 28.1905 33.5339 28.3948 33.2786 28.4628C33.1594 28.4969 33.0403 28.4969 32.9381 28.4458C32.9041 28.4288 32.836 28.3777 32.819 28.3437C32.819 28.3437 32.7849 28.2926 32.7679 28.2756C32.7679 28.2756 32.7679 28.2586 32.7509 28.2415ZM28.5293 25.7051C28.6484 25.586 28.7846 25.4838 28.9378 25.3817C30.2485 24.4454 32.0019 24.2242 33.4999 24.7859C33.551 24.8029 33.585 24.8029 33.6361 24.7859C33.7212 24.8199 33.8063 24.871 33.8914 24.9221C33.3978 25.1434 32.9552 25.4498 32.5977 25.8413C32.1721 26.2839 31.8146 26.9478 31.2018 27.1351C30.8443 27.2542 30.606 27.0329 30.3677 26.7946C30.1464 26.5563 29.9251 26.335 29.6528 26.1307C29.3123 25.8924 28.9208 25.7222 28.5293 25.7051ZM28.4952 28.2926C28.5122 28.1905 28.5803 28.1224 28.6654 28.0543C28.8357 27.9351 29.091 27.9351 29.2953 28.0032C29.4144 28.0543 29.4995 28.0883 29.5847 28.1734C29.6357 28.2245 29.6527 28.2415 29.7038 28.3096C29.7208 28.3267 29.7379 28.3437 29.7379 28.3607C29.6187 28.6331 29.4144 28.9395 29.074 28.9565C28.8527 28.9735 28.6484 28.8033 28.5463 28.616C28.5122 28.5479 28.4782 28.4118 28.4952 28.2926Z" fill="#151115"/>
<path d="M33.2786 28.6161C33.6641 28.6161 33.9766 28.3036 33.9766 27.9181C33.9766 27.5327 33.6641 27.2202 33.2786 27.2202C32.8932 27.2202 32.5807 27.5327 32.5807 27.9181C32.5807 28.3036 32.8932 28.6161 33.2786 28.6161Z" fill="black"/>
<path d="M29.0399 29.1778C29.4254 29.1778 29.7379 28.8654 29.7379 28.4799C29.7379 28.0945 29.4254 27.782 29.0399 27.782C28.6545 27.782 28.342 28.0945 28.342 28.4799C28.342 28.8654 28.6545 29.1778 29.0399 29.1778Z" fill="black"/>
<path d="M41.3985 34.0464C40.9899 34.2677 40.5473 34.489 40.0877 34.6933C40.4792 34.489 40.9048 34.2847 41.3134 34.0804C41.3474 34.0804 41.3814 34.0464 41.3985 34.0464Z" fill="black"/>
<path d="M26.9972 12.5125C27.8313 13.0572 28.9378 13.4828 30.1975 13.67C33.0233 14.0956 35.4916 13.1934 35.7129 11.6614C35.8831 10.5719 34.8788 9.46542 33.2786 8.75046C34.2319 7.8823 34.6915 6.87795 34.4192 6.04383C34.0106 4.83521 32.1381 4.32454 29.9762 4.71607C30.1294 3.74577 29.9422 2.92867 29.3804 2.45203C28.1888 1.46471 25.7375 2.45203 23.9331 4.64797C22.1117 6.84391 21.618 9.43138 22.8096 10.4187" fill="#A77B4A"/>
<path d="M26.7929 12.8872C27.7292 13.5 28.8357 13.8745 29.9422 14.0617C31.0486 14.249 32.1721 14.266 33.2616 14.0447C34.0957 13.8745 34.9809 13.534 35.5767 12.8872C36.1214 12.2914 36.3257 11.4743 36.0363 10.7253C35.6278 9.61878 34.5383 8.8868 33.4999 8.41016C33.534 8.63146 33.551 8.85276 33.585 9.07406C34.4872 8.23994 35.2873 6.98024 34.7426 5.72055C34.3 4.73323 33.1424 4.34173 32.1381 4.20554C31.3891 4.10341 30.6231 4.17149 29.8741 4.30768C30.0443 4.4779 30.2316 4.66515 30.4018 4.83538C30.572 3.7289 30.3848 2.40111 29.2613 1.87341C28.359 1.46486 27.3547 1.68617 26.4865 2.07769C25.3801 2.57136 24.4098 3.42248 23.6437 4.34171C22.8266 5.32903 22.1627 6.46957 21.8734 7.72925C21.6521 8.7336 21.6691 9.99328 22.5202 10.7082C22.6904 10.8614 22.9458 10.8785 23.116 10.7082C23.2692 10.555 23.2862 10.2486 23.116 10.1124C22.9628 9.99328 22.9118 9.92519 22.8266 9.78901C22.7245 9.61878 22.6904 9.55069 22.6394 9.3294C22.5543 9.00597 22.5543 8.59742 22.6224 8.22292C22.7926 7.1675 23.3033 6.18018 23.9331 5.32904C24.58 4.44386 25.3801 3.66081 26.3333 3.09906C26.7078 2.87777 27.0994 2.69051 27.5079 2.58838C27.6952 2.53731 27.8484 2.50325 28.0186 2.48622C28.1037 2.48622 28.2058 2.4692 28.2909 2.48622C28.342 2.48622 28.3761 2.48622 28.4271 2.48622C28.4782 2.48622 28.4782 2.48622 28.4442 2.48622C28.4782 2.48622 28.4952 2.50326 28.5293 2.50326C28.6144 2.52029 28.6825 2.53729 28.7676 2.57134C28.7676 2.57134 28.9038 2.62242 28.8187 2.58838C28.8697 2.6054 28.9208 2.63943 28.9548 2.65645C29.1251 2.75859 29.2272 2.82669 29.3634 3.03097C29.6528 3.49058 29.6698 4.06935 29.5847 4.59705C29.5336 4.93751 29.7719 5.17583 30.1124 5.12476C30.7933 5.0056 31.5083 4.95455 32.1892 5.05668C32.6999 5.1418 33.2616 5.31201 33.6191 5.61842C33.9595 5.90781 34.1468 6.26528 34.0787 6.74192C33.9936 7.42283 33.4829 8.00163 32.9892 8.46124C32.802 8.63147 32.836 9.02298 33.0743 9.12511C33.8574 9.48259 34.7085 9.97627 35.1341 10.7593C35.2873 11.0147 35.3554 11.3381 35.3214 11.5764C35.3043 11.6445 35.2873 11.7296 35.2703 11.7977C35.2703 11.8317 35.2533 11.8488 35.2362 11.8658C35.1852 11.985 35.2703 11.7977 35.2192 11.9169C35.1852 11.9849 35.1511 12.036 35.1171 12.1041C35.1001 12.1381 35.083 12.1552 35.066 12.1892C35.049 12.2062 35.049 12.2062 35.066 12.1892C35.049 12.2062 35.032 12.2403 35.015 12.2573C34.5553 12.768 33.8574 13.0404 33.1595 13.2106C32.2573 13.4149 31.287 13.4149 30.3677 13.2957C29.2613 13.1425 28.1718 12.785 27.2355 12.1722C26.7589 11.8488 26.3333 12.5808 26.7929 12.8872Z" fill="#1C202C"/>
<path d="M29.4144 2.99683C29.4995 3.16705 29.6017 3.45645 29.6017 3.81393C29.6017 4.64805 29.0399 5.26086 28.6824 5.63536C28.4782 5.85666 28.1377 6.16308 27.644 6.43544C28.376 6.26521 28.8697 5.48217 29.9762 5.15873C30.623 4.97148 31.2188 4.90339 31.6614 4.90339C31.1507 4.81828 30.6571 4.73316 30.1464 4.64805C29.9081 4.10332 29.6697 3.54156 29.4144 2.99683Z" fill="#1C202C"/>
<path d="M34.2659 7.20142C34.2149 7.38867 34.1127 7.67806 33.8744 7.95042C33.3297 8.59729 32.5126 8.6824 31.9849 8.73347C31.6785 8.76751 31.2359 8.78453 30.6741 8.66537C31.338 9.02285 32.2232 8.75048 33.2786 9.21009C33.8914 9.48246 34.3851 9.82292 34.7256 10.1123C34.4021 9.72078 34.0787 9.32926 33.7553 8.93773C33.9255 8.35896 34.0957 7.78019 34.2659 7.20142Z" fill="#1C202C"/>
<path d="M39.9175 18.13C39.0323 18.2151 38.079 18.2321 37.296 17.8236C37.1598 17.7555 37.0236 17.6533 36.9215 17.5172C36.6661 17.1767 36.8023 16.683 37.0406 16.3256C37.33 15.866 37.7726 15.5085 38.2493 15.2361C38.9812 14.8105 39.7983 14.5552 40.6324 14.4871C41.3644 14.436 42.2326 14.6063 42.556 15.2702C42.7943 15.7638 42.6411 16.3766 42.3007 16.8022C41.7559 17.5001 40.7686 18.0449 39.9175 18.13Z" fill="#836038"/>
<path d="M39.9175 17.7045C39.4408 17.7555 38.9472 17.7896 38.4705 17.7215C38.2492 17.7045 38.0279 17.6534 37.8237 17.5683C37.6534 17.5002 37.3981 17.4151 37.296 17.2619C37.1087 16.9895 37.3981 16.5469 37.5683 16.3426C37.8577 16.0022 38.2152 15.7298 38.6067 15.5256C39.3727 15.1 40.343 14.8106 41.2282 14.9298C41.5346 14.9638 41.8751 15.0659 42.0794 15.3042C42.3177 15.5766 42.2836 15.9511 42.1475 16.2575C41.9602 16.6661 41.5857 16.9725 41.2282 17.1938C40.8197 17.4661 40.3771 17.6534 39.9175 17.7045C39.6962 17.7215 39.4919 17.8747 39.4919 18.13C39.4919 18.3343 39.6792 18.5726 39.9175 18.5556C41.0069 18.4364 42.1815 17.8236 42.7773 16.8703C43.0837 16.3937 43.2029 15.7639 42.9986 15.2191C42.7943 14.6914 42.3517 14.368 41.841 14.1978C40.7686 13.8403 39.4749 14.1637 38.4876 14.6233C37.9599 14.8787 37.4321 15.2021 37.0236 15.6447C36.6491 16.0532 36.3086 16.598 36.3597 17.1768C36.4278 17.9428 37.1598 18.3173 37.8407 18.4875C38.5216 18.6577 39.2195 18.6237 39.9005 18.5556C40.1217 18.5386 40.326 18.3683 40.326 18.13C40.343 17.9258 40.1388 17.6874 39.9175 17.7045Z" fill="#1C202C"/>
<path d="M21.9414 20.7346C22.8096 20.5303 23.7118 20.2579 24.3246 19.594C24.4267 19.4749 24.5289 19.3387 24.5799 19.1855C24.6991 18.7769 24.4267 18.3514 24.0863 18.079C23.6607 17.7386 23.133 17.5513 22.6053 17.4321C21.7882 17.2619 20.92 17.2789 20.1029 17.5002C19.388 17.6875 18.622 18.1301 18.5368 18.8621C18.4688 19.4068 18.8262 19.9345 19.2858 20.2409C20.0008 20.7346 21.1073 20.9388 21.9414 20.7346Z" fill="#836038"/>
<path d="M22.0606 21.1601C22.6223 21.0239 23.1671 20.8707 23.6948 20.5984C24.2054 20.343 24.7672 19.9345 24.9715 19.3897C25.1757 18.828 24.8693 18.2152 24.4438 17.8577C23.9841 17.4491 23.3884 17.2108 22.7926 17.0746C21.635 16.8193 20.2391 16.8533 19.1667 17.4491C18.7071 17.7045 18.2985 18.096 18.1624 18.6237C18.0091 19.1855 18.1964 19.7472 18.5539 20.1898C18.9454 20.6664 19.5752 20.9558 20.171 21.109C20.7839 21.2622 21.4307 21.2963 22.0606 21.1601C22.5883 21.041 22.367 20.2239 21.8393 20.343C21.0732 20.5132 20.154 20.343 19.4901 19.9004C19.2007 19.7132 18.9454 19.3727 18.9454 19.0152C18.9454 18.6918 19.1837 18.4365 19.4391 18.2662C20.2051 17.7726 21.2605 17.7045 22.1287 17.8066C22.5883 17.8577 23.0479 17.9768 23.4564 18.1981C23.7288 18.3513 24.2054 18.6407 24.1714 19.0152C24.1544 19.2025 23.9501 19.3727 23.8139 19.4919C23.6437 19.6451 23.4394 19.7642 23.2351 19.8664C22.7925 20.0877 22.2989 20.2239 21.8052 20.343C21.2945 20.4622 21.5329 21.2793 22.0606 21.1601Z" fill="#1C202C"/>
<path d="M30.4528 35.5443C31.7806 35.7997 33.1935 35.7146 34.4872 35.306C36.564 34.6762 38.3003 33.1611 39.2366 31.2035C39.543 30.5567 39.7813 29.8928 39.9005 29.1948C39.9515 28.9735 39.8324 28.7352 39.6111 28.6671C39.4068 28.6161 39.1344 28.7352 39.0834 28.9565C38.811 30.3864 38.1471 31.7142 37.1258 32.7526C35.798 34.0804 33.9936 34.7783 32.1381 34.8123C31.7976 34.8123 31.4572 34.8124 31.1337 34.7783C31.0827 34.7783 31.0146 34.7613 30.9635 34.7613C30.9295 34.7613 30.8443 34.7443 30.9805 34.7613C30.9465 34.7613 30.9124 34.7613 30.8954 34.7443C30.8273 34.7272 30.7592 34.7272 30.6911 34.7102C30.4698 34.6762 30.2315 34.7783 30.1634 34.9996C30.0953 35.2209 30.2315 35.4933 30.4528 35.5443Z" fill="#1C202C"/>
<path d="M38.9472 28.3096L38.9982 28.2756C38.9982 28.2756 38.9131 28.3096 38.9812 28.2756C39.0323 28.2586 39.0663 28.2415 39.1174 28.2245C39.1514 28.2075 39.2025 28.2075 39.2365 28.1905C39.2536 28.1905 39.2876 28.1734 39.3046 28.1734C39.3557 28.1564 39.3046 28.1734 39.2876 28.1734C39.3727 28.1734 39.4578 28.1564 39.5259 28.1564C39.543 28.1564 39.56 28.1564 39.577 28.1564C39.594 28.1564 39.6621 28.1734 39.594 28.1564C39.5259 28.1394 39.594 28.1564 39.6111 28.1564C39.6281 28.1564 39.6621 28.1734 39.6791 28.1734C39.7132 28.1734 39.7472 28.1905 39.7813 28.2075C39.7983 28.2075 39.8153 28.2245 39.8323 28.2245C39.8153 28.2245 39.7472 28.1905 39.7983 28.2075C39.8323 28.2245 39.8664 28.2415 39.9004 28.2586C39.9175 28.2756 39.9345 28.2756 39.9515 28.2926C40.0026 28.3267 39.8834 28.2415 39.9345 28.2756C39.9685 28.3096 40.0026 28.3437 40.0366 28.3777C40.0536 28.3948 40.0536 28.4118 40.0707 28.4288C40.0536 28.4118 40.0196 28.3607 40.0536 28.4118C40.0707 28.4458 40.1047 28.4799 40.1217 28.5139C40.1388 28.5479 40.1898 28.6671 40.1388 28.5309C40.1898 28.6331 40.2239 28.7182 40.326 28.7863C40.4111 28.8373 40.5473 28.8544 40.6494 28.8373C40.8537 28.7692 41.041 28.5309 40.9388 28.3096C40.8537 28.0883 40.7346 27.867 40.5473 27.7138C40.3771 27.5606 40.1558 27.4415 39.9345 27.3734C39.4578 27.2372 38.9642 27.3393 38.5216 27.5606C38.3173 27.6628 38.2492 27.9692 38.3684 28.1394C38.5046 28.3607 38.7429 28.4118 38.9472 28.3096Z" fill="#1C202C"/>
<g opacity="0.5">
<path d="M20.3583 6.146C20.9371 6.55454 21.4307 6.99715 21.9414 7.43974C20.171 8.08661 16.0345 11.7635 12.0682 15.9171C14.0428 12.2912 17.141 8.30789 20.3583 6.146Z" fill="white"/>
<path d="M21.1583 5.65242C21.1583 5.65242 21.4647 5.38005 22.1286 5.00555C22.7925 4.64807 22.9457 4.61401 22.9457 4.61401L24.7842 6.11203C24.7842 6.11203 24.0352 6.29928 23.5585 6.60569C23.0819 6.9121 22.6734 7.08232 22.6734 7.08232L21.1583 5.65242Z" fill="white"/>
</g>
<path d="M54.2847 24.5306C54.9826 11.7125 45.1094 0.732774 32.3083 0.0348396C19.5071 -0.663095 8.51042 9.21012 7.81249 22.0113C7.11455 34.8294 16.9878 45.8091 29.7889 46.507C42.6071 47.188 53.6038 37.3318 54.2847 24.5306ZM53.1101 24.4625C52.4462 36.6338 42.0283 45.9964 29.857 45.3325C17.6857 44.6686 8.32317 34.2506 8.98705 22.0794C9.65094 9.90806 20.0859 0.545507 32.2402 1.2094C44.4115 1.87328 53.774 12.2912 53.1101 24.4625Z" fill="white"/>
</svg>
