<svg width="152" height="139" viewBox="0 0 152 139" fill="none" xmlns="http://www.w3.org/2000/svg">
<path d="M12.6993 30.7699C12.657 30.4424 12.889 30.1177 13.1877 30.0502C13.4494 29.9911 13.688 30.1488 13.7261 30.4412L12.6993 30.7699ZM12.6993 30.7699C12.7373 31.0623 12.9759 31.2199 13.2376 31.1609M12.6993 30.7699L13.2376 31.1609M13.2376 31.1609C13.5363 31.093 13.7682 30.7683 13.7261 30.4413L13.2376 31.1609Z" fill="#E1E1E1" stroke="#1B1F2C"/>
<path d="M31.0295 34.2721L30.9015 34.3716L30.7481 34.319L14.8596 28.8761L11.5069 39.2339L21.342 42.7081L30.9008 37.939L40.109 27.2146L31.0295 34.2721Z" fill="#A0A0A0" stroke="#1B1F2C" stroke-width="0.6"/>
<path d="M14.3567 28.4847L10.8485 15.1063L7.43808 24.1471L11.1628 38.3519L14.3567 28.4847Z" fill="#B3B3B3" stroke="#1B1F2C" stroke-width="0.6"/>
<path d="M11.3181 14.1653L11.2387 14.2301L14.9185 28.2613L30.7899 33.699L41.9939 24.9901C42.0198 24.6342 41.9916 24.0231 41.9254 23.2664C41.8523 22.4302 41.7363 21.4492 41.6138 20.5111C41.4913 19.5735 41.3627 18.6812 41.2646 18.0232C41.2156 17.6943 41.1742 17.424 41.1452 17.236C41.1387 17.1944 41.1329 17.1568 41.1277 17.1235L17.6108 9.4165C17.2723 9.60331 16.7443 9.96251 16.1186 10.418C15.4297 10.9195 14.6415 11.5236 13.8956 12.107C13.1501 12.6901 12.4485 13.2514 11.9332 13.667C11.6756 13.8747 11.4647 14.046 11.3181 14.1653Z" fill="#E1E1E1" stroke="#1B1F2C" stroke-width="0.6"/>
<path d="M16.6736 16.1339C16.6074 16.2146 16.5462 16.302 16.4909 16.3951C15.5839 17.924 16.5108 20.591 18.5611 22.3521C20.4858 24.0052 22.7162 24.2727 23.7323 23.0343C23.7989 22.9531 23.8597 22.8662 23.915 22.7731C24.822 21.2442 23.895 18.5772 21.8449 16.8171C19.9201 15.163 17.6897 14.8956 16.6736 16.1339Z" fill="#C5C5C5"/>
<path d="M21.7797 16.9868C20.0495 15.3957 18.2554 14.9583 17.7724 16.009C17.2894 17.0597 18.3011 19.2019 20.0307 20.7926C21.7609 22.3837 23.5546 22.8217 24.0375 21.77C24.5205 20.7193 23.5093 18.5775 21.7797 16.9868Z" fill="#E1E1E1"/>
<path d="M21.8999 24.0483C22.1314 24.0677 22.3694 24.0587 22.6074 24.0176C22.726 23.9954 22.8444 23.9659 22.9608 23.9259C23.0767 23.8855 23.1914 23.837 23.3027 23.7785C23.413 23.7193 23.5185 23.6508 23.6192 23.5731L23.6929 23.5133C23.7168 23.4927 23.74 23.4708 23.7629 23.4495L23.8327 23.3847C23.8549 23.362 23.8761 23.3384 23.8982 23.3146C24.07 23.1278 24.2103 22.9117 24.3164 22.6826C24.4219 22.4531 24.4939 22.2131 24.5394 21.971C24.5838 21.728 24.6014 21.4844 24.6003 21.2433C24.5987 21.0018 24.573 20.7638 24.5356 20.5294C24.5183 20.4121 24.4928 20.2961 24.4675 20.1811L24.4242 20.0096C24.4096 19.9523 24.3918 19.8968 24.3758 19.8401C24.308 19.6148 24.2309 19.3934 24.1379 19.1795C24.0938 19.0713 24.0427 18.9672 23.9938 18.8605C23.9413 18.7571 23.8911 18.652 23.834 18.551C23.6129 18.1425 23.3504 17.7597 23.0607 17.3982C22.9885 17.308 22.9128 17.2212 22.8379 17.1333C22.7595 17.0486 22.6836 16.9608 22.6025 16.8784C22.4432 16.7099 22.2733 16.5523 22.0993 16.3984C21.747 16.0961 21.3707 15.8176 20.9609 15.5865C20.5533 15.3537 20.1158 15.1605 19.6504 15.0325C19.1843 14.9075 18.6872 14.8407 18.1763 14.8979C17.9221 14.9266 17.6646 14.9873 17.4181 15.0881C17.1726 15.1889 16.9387 15.3312 16.7357 15.5068C16.5322 15.6828 16.3592 15.8927 16.2263 16.1211C16.0934 16.3496 15.9984 16.593 15.9362 16.8384C15.8746 17.0851 15.8452 17.3323 15.8387 17.5762C15.8385 17.6365 15.836 17.6976 15.8382 17.7581L15.8459 17.9387L15.8625 18.1169C15.8681 18.1766 15.8784 18.2349 15.8863 18.2938C15.9219 18.5284 15.9729 18.7569 16.0395 18.9804C16.1075 19.2023 16.1862 19.4197 16.2769 19.6309C16.3705 19.8409 16.4713 20.0452 16.5837 20.243C16.6975 20.4401 16.8157 20.6329 16.9481 20.8159C17.2074 21.1855 17.5024 21.5255 17.8224 21.8361C17.8781 21.8905 17.9689 21.8883 18.0234 21.8314C18.0731 21.7805 18.078 21.7027 18.0378 21.6476L18.0356 21.6449C17.9084 21.4705 17.7805 21.2992 17.6662 21.1177C17.6069 21.0291 17.5521 20.9371 17.4955 20.8473C17.4683 20.801 17.4425 20.7541 17.4154 20.7089C17.3892 20.6625 17.3625 20.6167 17.3381 20.5692L17.2632 20.4287L17.193 20.2868L17.1572 20.2157L17.1242 20.1433C17.1027 20.0955 17.0802 20.0477 17.0587 19.9999C16.9759 19.8058 16.8997 19.6101 16.834 19.4123C16.7706 19.2128 16.7154 19.0128 16.6723 18.8112C16.631 18.6093 16.6009 18.4068 16.585 18.2052C16.5531 17.802 16.5843 17.4014 16.6972 17.0427C16.7525 16.8638 16.8298 16.6966 16.9283 16.5476C17.0259 16.3997 17.1441 16.2696 17.28 16.1619C17.5503 15.9462 17.89 15.8273 18.256 15.7975C18.6226 15.7691 19.0097 15.8241 19.3858 15.9333C19.7618 16.0469 20.1311 16.2084 20.4796 16.4134C20.8294 16.6168 21.1612 16.8561 21.4717 17.1225C21.78 17.3916 22.0733 17.6821 22.3364 17.9987C22.4013 18.0785 22.468 18.157 22.5301 18.239C22.5946 18.3193 22.6535 18.403 22.7147 18.4861C22.8326 18.6536 22.9459 18.8255 23.0496 19.0028C23.104 19.0899 23.1509 19.1808 23.201 19.2699C23.2475 19.3613 23.2964 19.4519 23.3382 19.5448C23.4264 19.729 23.5043 19.9173 23.5724 20.1091C23.6413 20.3007 23.697 20.4957 23.7416 20.6914C23.7857 20.8876 23.8189 21.0864 23.8335 21.2842C23.8495 21.4814 23.8485 21.679 23.8281 21.8723C23.8082 22.065 23.768 22.2545 23.7038 22.4325C23.6398 22.6114 23.5523 22.7791 23.4394 22.9296L23.3975 22.9861L23.3509 23.0396C23.335 23.0568 23.3202 23.0759 23.3038 23.0927L23.2535 23.1432C23.1852 23.2083 23.1116 23.2691 23.0331 23.325C22.9545 23.379 22.87 23.4282 22.7826 23.4715C22.6941 23.5139 22.6016 23.5494 22.5067 23.5803C22.4114 23.6118 22.3128 23.6353 22.2125 23.6546C22.112 23.6729 22.0095 23.6852 21.9054 23.6952L21.9015 23.6956C21.8046 23.7044 21.7319 23.7908 21.74 23.8882C21.7467 23.9755 21.8156 24.0417 21.8999 24.0483Z" fill="#1B1F2C"/>
<path d="M24.1944 16.5323C24.135 16.3341 24.0552 16.1424 23.9619 15.9564C23.868 15.7701 23.7601 15.5911 23.6403 15.4191C23.4008 15.0762 23.1117 14.7668 22.792 14.4947C22.4733 14.2215 22.1207 13.9884 21.7501 13.7912C21.3774 13.5977 20.9851 13.4399 20.5794 13.3263C20.174 13.2112 19.7555 13.137 19.3318 13.112C19.2259 13.1056 19.1194 13.1022 19.0132 13.1017C18.9066 13.1027 18.7997 13.1052 18.6932 13.1125C18.4799 13.1243 18.2669 13.154 18.0554 13.1948C17.6339 13.282 17.2171 13.4301 16.8453 13.6641C16.4747 13.8945 16.1524 14.2142 15.9529 14.5917C15.9157 14.6628 15.9423 14.7496 16.0125 14.7865C16.0677 14.8148 16.1339 14.8039 16.1774 14.7638L16.1796 14.7611C16.736 14.2453 17.4425 14.0287 18.1583 13.9781C18.8764 13.9269 19.6074 14.0339 20.3043 14.2405C21.002 14.4495 21.6683 14.762 22.2748 15.168C22.5778 15.3713 22.8651 15.6001 23.1325 15.8544C23.2666 15.981 23.395 16.1145 23.5187 16.2549C23.6428 16.3947 23.7618 16.5419 23.8783 16.6942L23.88 16.6964C23.9404 16.7743 24.0527 16.7878 24.1313 16.7274C24.1922 16.6801 24.2155 16.6012 24.1944 16.5323Z" fill="#1B1F2C"/>
<path d="M112.652 128.294C134.019 122.569 146.7 100.606 140.975 79.2377C135.249 57.87 113.286 45.1894 91.9178 50.9148C70.55 56.6403 57.8694 78.6038 63.5949 99.9715C69.3204 121.339 91.2838 134.02 112.652 128.294Z" fill="#F18C6F"/>
<path d="M81.2529 95.8924C74.8783 96.4374 68.5708 99.0086 62.8025 95.8312C63.0191 97.1654 63.3013 98.482 63.6582 99.8139C63.6714 99.8632 63.6847 99.9125 63.6979 99.9618C67.9419 102.12 74.1205 100.976 78.7574 99.7333C81.0594 99.1165 83.7579 99.9795 85.4376 101.644C87.4579 103.923 86.7389 107.816 84.4928 109.299C80.5798 111.599 76.4085 114.25 74.2835 118.027C76.937 120.629 79.9474 122.853 83.2062 124.624C83.9736 118.937 88.0281 113.022 90.2477 107.757C92.4348 102.765 87.2722 95.3369 81.2529 95.8924Z" fill="#FCA692"/>
<path d="M123.408 55.3775C122.141 56.8977 119.778 57.0902 117.761 57.1902C112.772 57.6458 109.894 53.4824 105.528 51.6564C102.368 50.3882 99.1676 51.5982 96.4282 53.2134C92.3852 55.8828 91.6693 62.419 86.4398 63.2916C82.515 63.9026 79.3761 60.6727 78.7577 57.0494C78.3294 57.358 77.9174 57.6623 77.5099 57.9829C77.6721 59.7723 78.1315 61.5525 78.8364 63.1965C81.2768 68.3582 87.3874 70.7743 92.5051 68.1694C98.5653 65.1357 102.931 57.0928 110.533 59.8141C115.184 61.3876 119.53 64.4527 123.99 62.024C125.636 61.1952 126.775 59.9208 127.758 58.459C126.389 57.363 124.931 56.3263 123.408 55.3775Z" fill="#FCA692"/>
<path d="M138.755 72.7305C136.797 74.4358 134.517 75.5932 131.69 74.9759C127.797 74.2569 126.278 69.9055 122.778 68.0236C119.486 66.2621 115.496 67.1551 112.648 69.6805C106.591 75.3569 107.687 84.0511 109.132 91.4181C109.529 92.8979 109.564 95.0032 108.052 95.9371C106.376 96.915 104.576 95.4588 104.015 94.023C101.33 86.6356 95.7475 76.3238 86.7276 80.1506C81.0285 82.5588 74.3428 85.2314 69.6326 80.1491C67.7068 78.0921 66.582 75.5385 65.9088 72.8287C64.8654 75.1173 64.0306 77.5263 63.4238 79.9975C64.9141 84.6385 67.9353 88.4815 73.0864 89.0927C77.2648 89.5592 81.2874 88.1289 85.3776 88.2666C92.363 88.6858 100.077 93.1395 99.9866 100.037C100.152 109.862 92.6299 119.279 98.3653 128.845C98.4631 129.012 98.5773 129.176 98.6751 129.343C99.3616 129.406 100.06 129.448 100.775 129.486C99.0954 126.834 98.4324 123.505 98.7169 120.291C99.1275 115.247 104.01 108.475 108.4 111.705C111.331 114.092 114.329 118.047 118.428 116.243C122.242 114.693 124.265 109.745 122.265 106.228C120 101.723 114.351 99.7126 113.839 93.8577C113.472 89.1979 115.134 84.8755 118.76 81.9654C122.43 79.2196 126.981 79.7625 131.432 79.2747C134.895 78.9109 137.71 76.9228 139.404 74.2309C139.197 73.7224 138.974 73.2182 138.755 72.7305Z" fill="#FCA692"/>
<path d="M133.134 99.4377C132.694 97.7935 133.151 95.556 134.62 94.4577C137.209 92.7418 139.827 93.5029 142.009 95.0684C142.519 91.5128 142.54 87.8416 142.044 84.1501C139.807 85.666 136.428 85.8839 133.595 86.0967C127.784 86.7726 124.217 93.1916 126.165 98.4855C127.463 102.015 131.412 103.6 133.488 106.745C134.495 108.396 135.112 110.24 135.326 112.156C135.975 111.224 136.562 110.256 137.127 109.277C136.323 105.879 134.268 102.747 133.134 99.4377Z" fill="#FCA692"/>
<g opacity="0.35">
<path d="M127.659 58.6796C110.547 44.6721 85.3143 47.1859 71.2948 64.3185C62.0941 75.5603 60.0217 90.3199 64.5559 103.098C68.8539 91.7776 89.0997 67.4958 115.201 63.6212C121.442 62.7069 128.371 62.9826 134.244 65.4976C132.348 63.0272 130.171 60.7556 127.659 58.6796Z" fill="#EF725E"/>
</g>
<path d="M141.258 78.6508C140.157 74.6103 138.432 70.7372 136.152 67.2244C133.93 63.8015 131.182 60.7137 128.033 58.1033C124.888 55.5094 121.38 53.4006 117.629 51.8326C113.862 50.2691 109.865 49.2958 105.8 48.9223C101.61 48.5468 97.354 48.8414 93.2486 49.7652C89.0939 50.7023 85.0825 52.3058 81.4358 54.4813C77.9119 56.5887 74.723 59.2231 71.9996 62.2791C69.3046 65.3098 67.0543 68.7502 65.3657 72.4453C63.6814 76.1569 62.5545 80.1069 62.0319 84.1417C61.5073 88.3004 61.6363 92.5306 62.4033 96.6428C63.1923 100.837 64.6402 104.926 66.6854 108.678C68.658 112.291 71.1829 115.597 74.1623 118.429C77.1 121.237 80.4516 123.617 84.091 125.426C87.7304 127.235 91.6334 128.516 95.6332 129.171C99.7449 129.849 103.949 129.886 108.084 129.271C112.323 128.647 116.467 127.343 120.308 125.432C124.01 123.594 127.418 121.183 130.367 118.313C133.293 115.485 135.781 112.21 137.732 108.639C139.671 105.088 141.084 101.22 141.889 97.2506C142.72 93.1858 142.902 88.9957 142.448 84.87C142.228 82.7967 141.838 80.7511 141.301 78.7451C141.292 78.7122 141.283 78.6793 141.258 78.6508ZM141.773 91.3601C141.555 95.3485 140.73 99.3058 139.339 103.062C137.957 106.781 136.009 110.299 133.593 113.449C131.16 116.603 128.263 119.406 124.998 121.691C121.615 124.06 117.864 125.911 113.908 127.13C109.919 128.357 105.763 128.96 101.591 128.914C97.5562 128.85 93.5519 128.178 89.7399 126.908C85.9861 125.659 82.4169 123.848 79.1947 121.557C75.9473 119.237 73.0261 116.425 70.623 113.244C68.1443 109.979 66.1837 106.345 64.8303 102.478C63.4341 98.5167 62.6659 94.3343 62.5622 90.1325C62.4696 86.104 62.9966 82.0856 64.1291 78.2223C65.2375 74.4006 66.9229 70.7592 69.1175 67.4395C71.2956 64.1243 73.9873 61.1473 77.0623 58.6139C80.2106 56.0256 83.7883 53.9214 87.5992 52.4245C91.5043 50.8847 95.6426 49.9521 99.8212 49.6959C103.864 49.4586 107.946 49.8277 111.877 50.8186C115.717 51.7987 119.405 53.3305 122.797 55.4C126.205 57.4651 129.296 60.0558 131.927 63.0341C134.609 66.0694 136.822 69.5297 138.466 73.2307C139.265 75.096 139.942 77.0295 140.471 79.0026C141.55 83.0311 141.996 87.1941 141.773 91.3601Z" fill="#1C202C"/>
<path d="M73.0006 64.1082C77.1779 62.9889 79.6569 58.6952 78.5376 54.5179C77.4182 50.3406 73.1245 47.8616 68.9472 48.9809C64.7699 50.1002 62.2909 54.3939 63.4102 58.5712C64.5295 62.7485 68.8233 65.2275 73.0006 64.1082Z" fill="#F4755E"/>
<path d="M65.7519 61.7857C63.5848 59.6171 62.9414 56.2296 64.2408 53.4494C64.9025 52.0385 65.9932 50.8475 67.3553 50.0771C68.6724 49.3365 70.1787 49.0386 71.6756 49.1662C74.7814 49.4443 77.4257 51.7494 78.1662 54.776C78.8978 57.7698 77.6517 61.0115 75.0747 62.7066C72.5141 64.3972 69.1103 64.3223 66.6026 62.527C66.314 62.3048 66.0209 62.0661 65.7519 61.7857C65.3655 61.3958 64.7686 61.9963 65.155 62.3862C66.3725 63.5756 67.935 64.4082 69.6283 64.677C71.2844 64.9382 72.986 64.7113 74.5016 63.988C77.6031 62.5402 79.5158 59.1551 79.186 55.754C79.0085 54.0392 78.3289 52.4237 77.2001 51.1049C76.0965 49.8145 74.5658 48.9029 72.9238 48.497C71.3235 48.1151 69.6031 48.206 68.0687 48.7933C66.4356 49.4072 65.0421 50.5207 64.0756 51.9781C62.2072 54.805 62.2886 58.6603 64.3084 61.397C64.5621 61.752 64.8443 62.0817 65.155 62.3862C65.5459 62.7925 66.1384 62.1756 65.7519 61.7857Z" fill="#1B1F2C"/>
<path d="M82.9853 79.338C84.2132 82.8685 81.812 86.6665 78.1946 87.6358C74.5772 88.6051 71.6334 86.1688 69.8969 82.8451C68.523 80.2172 67.3231 78.1067 65.7634 72.286C64.3668 67.0737 64.1898 63.9137 64.0635 61.0749C63.8444 56.6397 65.2368 53.7464 68.8542 52.7771C72.4716 51.8079 76.4502 53.8964 77.152 57.5678C77.686 60.3502 78.1205 66.0495 78.8519 68.779C79.5997 71.5041 82.0522 76.645 82.9853 79.338Z" fill="white"/>
<path d="M82.5742 79.4481C83.0341 80.77 82.9799 82.212 82.4113 83.5099C81.8547 84.7869 80.8735 85.8605 79.6714 86.5703C78.465 87.2637 77.0048 87.6021 75.6459 87.3317C74.3451 87.0811 73.1972 86.3489 72.2564 85.4026C71.2694 84.4158 70.6013 83.2378 69.9529 82.0017C69.4583 81.0768 68.9966 80.1431 68.5635 79.1842C68.0313 77.9874 67.5593 76.6864 67.1411 75.3886C66.549 73.5734 66.0555 71.7318 65.6279 69.8726C65.2839 68.3258 64.9848 66.7494 64.8097 65.175C64.6613 63.9635 64.5787 62.7344 64.5334 61.5129C64.4725 60.1017 64.4565 58.6609 64.8299 57.2919C65.141 56.1512 65.6979 55.1384 66.5852 54.372C66.9719 54.0392 67.5647 53.6866 68.0568 53.4842C68.6925 53.2258 69.3831 53.0407 70.0881 52.9752C71.486 52.8649 72.9075 53.1714 74.1091 53.9068C75.2898 54.6302 76.2046 55.7421 76.5987 57.0816C76.7782 57.6855 76.859 58.316 76.9562 58.942C77.0503 59.6217 77.1487 60.3179 77.2263 61.002C77.4222 62.5885 77.6182 64.1749 77.8471 65.7526C78.0416 67.0046 78.2405 68.273 78.6158 69.4766C79.0561 70.8566 79.6115 72.2058 80.1624 73.5385C80.7519 74.949 81.3533 76.3387 81.9263 77.7537C82.1627 78.3071 82.3827 78.865 82.5742 79.4481C82.6479 79.6575 82.8652 79.8107 83.0954 79.749C83.3092 79.6918 83.4745 79.4536 83.3963 79.2278C82.4072 76.3912 81.0606 73.6679 80.0057 70.8489C79.5602 69.6465 79.1804 68.4265 78.9486 67.1669C78.6628 65.6398 78.48 64.1026 78.2808 62.5699C78.0948 61.0865 77.9209 59.5823 77.6811 58.0957C77.5619 57.3875 77.4141 56.7045 77.114 56.0447C76.8094 55.3685 76.3777 54.744 75.853 54.2326C73.6562 52.0191 70.184 51.5572 67.4146 52.8632C66.2551 53.403 65.2956 54.2946 64.6785 55.4116C63.9892 56.6537 63.72 58.0828 63.657 59.4919C63.5928 60.8308 63.7063 62.1751 63.8153 63.5028C63.9267 64.971 64.1083 66.4379 64.3765 67.8993C64.7144 69.8178 65.1838 71.7011 65.7189 73.5667C66.1583 75.1408 66.6679 76.7138 67.2673 78.2274C67.7028 79.3267 68.2042 80.4083 68.734 81.4648C69.3187 82.5946 69.8749 83.7497 70.6437 84.7773C71.5223 85.9518 72.618 87.0152 73.9663 87.6408C75.3356 88.2784 76.8534 88.4181 78.3212 88.0424C81.2853 87.2658 83.6758 84.5457 83.7762 81.4347C83.8049 80.6868 83.6889 79.9249 83.4457 79.2146C83.372 79.0053 83.1547 78.852 82.9245 78.9137C82.6614 78.9842 82.4961 79.2223 82.5742 79.4481Z" fill="#1B1F2C"/>
<path d="M79.7274 86.4496C83.6595 85.396 85.993 81.3543 84.9394 77.4222C83.8858 73.4901 79.8441 71.1566 75.9119 72.2102C71.9798 73.2638 69.6464 77.3055 70.7 81.2376C71.7536 85.1697 75.7953 87.5032 79.7274 86.4496Z" fill="white"/>
<path d="M70.361 77.5396C70.4003 77.4233 70.4232 77.3114 70.4625 77.1952C70.5336 76.9999 70.6046 76.8046 70.6756 76.6093L78.9044 54.966C79.707 52.1074 82.6766 50.4306 85.5351 51.2331C88.3936 52.0356 90.0705 55.0052 89.268 57.8638L85.1283 80.5615C85.0869 80.8017 85.0456 81.0419 84.9877 81.2865L84.9757 81.3073C84.9484 81.4028 84.9211 81.4982 84.9102 81.5892C84.2245 84.0287 82.4218 85.8511 80.2264 86.6685" fill="white"/>
<path d="M70.78 77.6563C70.8194 77.54 70.8422 77.4282 70.8816 77.3119C70.9482 77.1002 70.7911 76.8427 70.5838 76.7925C70.6816 76.9601 70.7838 77.1442 70.8816 77.3119C71.2926 76.2149 71.7079 75.1343 72.1354 74.0328C72.9573 71.8388 73.8002 69.6568 74.6221 67.4627C75.5436 65.0481 76.4487 62.638 77.3702 60.2234C77.9714 58.6524 78.5561 57.0859 79.1618 55.5314C79.3913 54.9412 79.5628 54.3313 79.8922 53.7848C80.7885 52.3286 82.4497 51.4253 84.1472 51.4463C85.9313 51.4617 87.5915 52.4619 88.452 54.029C88.8608 54.7653 89.0691 55.6083 89.0668 56.4548C89.0662 56.9132 88.9702 57.3443 88.8787 57.7918C88.6357 59.0553 88.4091 60.3144 88.1869 61.5899C87.7446 64.017 87.3023 66.4442 86.8601 68.8714C86.4101 71.3358 85.9602 73.8003 85.5059 76.2483C85.252 77.6028 85.0146 78.9529 84.7607 80.3075C84.7161 80.6014 84.6507 80.8833 84.6061 81.1772C84.7737 81.0794 84.9578 80.9772 85.1255 80.8794C84.9137 80.8128 84.6518 80.9534 84.6061 81.1772C84.0627 83.4904 82.3731 85.4059 80.1448 86.2321C79.9355 86.3058 79.7822 86.5231 79.8439 86.7533C79.9012 86.967 80.1393 87.1323 80.3651 87.0542C82.8805 86.1159 84.8024 84.0148 85.4232 81.3988C85.2556 81.4966 85.0715 81.5988 84.9038 81.6966C85.1111 81.7468 85.3774 81.6226 85.4232 81.3988C85.4767 81.1378 85.5301 80.8767 85.5626 80.6037C85.5474 80.6782 85.555 80.6409 85.567 80.6201C85.5747 80.5828 85.5823 80.5455 85.5899 80.5082C85.6281 80.3218 85.6498 80.1397 85.6924 79.9697C85.8165 79.2491 85.9571 78.5241 86.0812 77.8036C86.5127 75.4674 86.9277 73.1357 87.3591 70.7996C87.8199 68.2441 88.2971 65.6842 88.7579 63.1287C89.0487 61.5176 89.3396 59.9064 89.6304 58.2953C89.6533 58.1834 89.6762 58.0715 89.6991 57.9596C89.8485 57.2675 89.965 56.5843 89.895 55.8628C89.7064 53.9748 88.6242 52.2381 86.9651 51.308C85.2644 50.3539 83.1787 50.3312 81.4385 51.2028C80.6155 51.6172 79.9035 52.2486 79.3671 53.0091C78.9555 53.5776 78.7303 54.1842 78.4975 54.8282C78.0998 55.9745 77.6274 57.1056 77.1923 58.2443C76.3146 60.5591 75.4368 62.8738 74.5547 65.1721C73.6573 67.545 72.7434 69.9223 71.846 72.2952C71.3399 73.6292 70.8218 74.984 70.3157 76.318C70.308 76.3553 70.284 76.397 70.2763 76.4343C70.2763 76.4343 70.2807 76.4507 70.2643 76.4551C70.296 76.3761 70.1889 76.634 70.1812 76.6712C70.1254 76.7919 70.0905 76.9247 70.0512 77.0409C69.9681 77.2571 70.1417 77.5102 70.349 77.5603C70.2512 77.3927 70.149 77.2086 70.0512 77.0409C70.0118 77.1572 69.9725 77.2735 69.9496 77.3854C69.8023 77.9536 70.6359 78.1708 70.78 77.6563Z" fill="#1B1F2C"/>
<path d="M91.044 50.021C90.5498 49.3604 90.7899 48.4149 91.5439 48.0719C91.9209 47.9003 92.3396 47.7529 92.8 47.6295C95.5459 46.8938 97.8683 47.7342 98.746 48.1159C98.0113 48.1365 97.2197 48.2076 96.3426 48.3545C94.1522 48.7299 92.3932 49.4656 91.0957 50.1481C91.0989 50.0944 91.0692 50.0495 91.044 50.021Z" fill="#E4B790"/>
<path d="M91.4077 49.8001C91.1243 49.4002 91.1357 48.8508 91.5641 48.5422C91.8456 48.3433 92.2238 48.242 92.5483 48.1374C92.922 48.0197 93.3002 47.9183 93.6708 47.8543C94.8975 47.6313 96.1587 47.734 97.3576 48.0648C97.6066 48.1391 97.8556 48.2133 98.0882 48.292C98.1836 48.3193 98.2834 48.3631 98.3624 48.3948C98.4041 48.4188 98.4414 48.4265 98.4995 48.4461C98.6158 48.4855 98.4414 48.4265 98.5577 48.4658C98.6275 48.2003 98.6974 47.9349 98.7673 47.6695C96.0227 47.7528 93.3426 48.4709 90.9032 49.759C91.0941 49.8136 91.3014 49.8638 91.4878 49.9019C91.4626 49.8735 91.4373 49.845 91.4077 49.8001C91.2682 49.6083 91.0356 49.5297 90.8231 49.6571C90.639 49.7593 90.5242 50.0544 90.6801 50.2418C90.7098 50.2867 90.735 50.3151 90.7647 50.3601C90.9042 50.5518 91.1203 50.6349 91.3493 50.503C93.633 49.2919 96.1817 48.609 98.7694 48.5324C98.9635 48.5333 99.1388 48.3982 99.1813 48.2282C99.2239 48.0582 99.1578 47.8116 98.9834 47.7525C97.9477 47.3075 96.8695 47.0325 95.7531 46.9439C94.9591 46.8747 94.1467 46.9337 93.3562 47.075C92.9035 47.1611 92.476 47.2757 92.0408 47.4275C91.655 47.5661 91.2528 47.7092 90.9395 47.987C90.2965 48.547 90.1815 49.5647 90.6845 50.2582C90.824 50.4499 91.0566 50.5286 91.2691 50.4011C91.4488 50.2825 91.5472 49.9918 91.4077 49.8001Z" fill="#1B1F2C"/>
<path d="M91.0912 51.8412C90.7317 51.0916 91.1463 50.2051 91.9608 50.0221C92.3598 49.9328 92.8126 49.8467 93.2786 49.81C96.1117 49.5971 98.2515 50.8742 99.0285 51.4062C98.3079 51.2821 97.5095 51.1964 96.6257 51.1865C94.4118 51.1453 92.5229 51.5281 91.1429 51.9683C91.1297 51.919 91.1044 51.8905 91.0912 51.8412Z" fill="#E4B790"/>
<path d="M91.4549 51.6205C91.2493 51.1822 91.4877 50.6248 91.9513 50.4478C92.3043 50.3179 92.7329 50.2736 93.1123 50.2424C93.5081 50.2068 93.9083 50.1877 94.3009 50.2059C95.4951 50.256 96.6776 50.5912 97.7144 51.1065C98.1017 51.3023 98.477 51.5189 98.8238 51.7609C98.9309 51.503 99.0381 51.2452 99.1452 50.9874C96.4374 50.5498 93.6655 50.7286 91.0447 51.5366C91.2027 51.6 91.3607 51.6634 91.5186 51.7268C91.4978 51.7148 91.4681 51.6699 91.4549 51.6205C91.3483 51.42 91.0664 51.3545 90.8703 51.4776C90.6577 51.605 90.6163 51.8452 90.7273 52.0622C90.757 52.1071 90.7658 52.14 90.7955 52.1849C90.8724 52.3406 91.1094 52.4357 91.2694 52.3752C93.7467 51.6233 96.3649 51.3976 98.928 51.821C99.404 51.8874 99.6753 51.3212 99.2495 51.0476C98.3683 50.4554 97.3984 49.9927 96.3739 49.7209C95.6313 49.5146 94.8405 49.3916 94.0598 49.3717C93.597 49.3547 93.131 49.3915 92.6739 49.4611C92.2496 49.5219 91.788 49.5751 91.4034 49.7839C90.5727 50.2356 90.3294 51.2348 90.7109 52.0666C90.8011 52.2716 91.1158 52.3282 91.2955 52.2096C91.5081 52.0821 91.5495 51.8419 91.4549 51.6205Z" fill="#1B1F2C"/>
<path d="M90.8801 53.5543C90.6643 52.7486 91.2664 51.9704 92.0877 51.9442C92.5088 51.9371 92.9507 51.9421 93.4266 52.0084C96.2528 52.3614 98.0773 54.0402 98.7536 54.7225C98.0679 54.4657 97.2957 54.2144 96.4544 54.0345C94.2947 53.5381 92.3791 53.558 90.9198 53.7023C90.9022 53.6365 90.8934 53.6036 90.8801 53.5543Z" fill="#E4B790"/>
<path d="M91.2913 53.4441C91.1755 52.9465 91.5138 52.4329 92.0247 52.3665C92.4161 52.3145 92.8547 52.3732 93.2517 52.4078C93.6158 52.4512 93.9679 52.5155 94.3288 52.6126C94.9715 52.7752 95.5782 53.0004 96.1575 53.321C96.4242 53.461 96.6743 53.6055 96.9289 53.7664C97.121 53.8911 97.3591 54.0564 97.4974 54.178C97.8322 54.4407 98.1549 54.7244 98.4492 55.0332C98.5816 54.8039 98.726 54.5537 98.8584 54.3244C96.332 53.38 93.5924 53.0214 90.9128 53.2812C91.0467 53.3863 91.1806 53.4914 91.3145 53.5965C91.3133 53.5264 91.3045 53.4935 91.2913 53.4441C91.1503 52.918 90.3281 53.1383 90.4691 53.6644C90.4823 53.7138 90.4912 53.7466 90.5044 53.796C90.5484 53.9604 90.7328 54.1225 90.9061 54.1113C93.532 53.8483 96.1597 54.184 98.6324 55.1251C99.0438 55.2792 99.3271 54.6922 99.0416 54.4163C98.294 53.6649 97.4324 53.0146 96.4954 52.5431C95.7998 52.1832 95.0769 51.9187 94.3058 51.7376C93.8583 51.6461 93.4152 51.5709 92.948 51.5375C92.5182 51.5117 92.0302 51.4662 91.6071 51.5972C90.728 51.868 90.2312 52.7765 90.4362 53.6732C90.5937 54.195 91.4158 53.9747 91.2913 53.4441Z" fill="#1B1F2C"/>
<path d="M79.9334 56.2407C79.682 56.026 79.5129 55.7894 79.3843 55.5066C78.5299 53.5679 80.9125 50.6209 84.7077 48.9342C88.503 47.2476 92.2973 47.4646 93.1516 49.4033C94.006 51.3421 91.6234 54.2891 87.8281 55.9757" fill="white"/>
<path d="M80.2379 55.9302C80.0283 55.7396 79.8679 55.5359 79.7481 55.286C79.791 55.3802 79.7393 55.2531 79.7393 55.2531C79.7305 55.2202 79.7217 55.1873 79.7084 55.138C79.6864 55.0558 79.6688 54.99 79.6468 54.9078C79.6324 54.7883 79.6524 54.9944 79.638 54.8749C79.6291 54.842 79.6324 54.7883 79.6236 54.7554C79.618 54.6688 79.6168 54.5986 79.6321 54.524C79.6417 54.3628 79.6405 54.2927 79.6951 54.1018C79.7879 53.7245 79.9115 53.4623 80.1041 53.1287C80.2967 52.7951 80.543 52.4648 80.8025 52.1837C82.2042 50.5745 84.1963 49.4592 86.2088 48.8142C87.215 48.4917 88.2477 48.2679 89.296 48.2337C89.717 48.2266 90.1589 48.2316 90.5647 48.2991C90.7512 48.3372 90.9541 48.371 91.1405 48.4091C91.2941 48.4561 91.5267 48.5348 91.6221 48.5621C91.9589 48.7009 92.1926 48.8498 92.4111 49.0732C92.4616 49.1302 92.5121 49.1871 92.5627 49.2441C92.5121 49.1871 92.6176 49.3175 92.6264 49.3504C92.6604 49.4117 92.6989 49.4896 92.733 49.5509C92.7374 49.5674 92.7847 49.678 92.7582 49.5794C92.7715 49.6287 92.8011 49.6736 92.8143 49.723C92.9762 50.2612 92.8585 50.8743 92.5992 51.4196C92.1803 52.2896 91.5112 53.0152 90.7828 53.651C89.8385 54.468 88.7384 55.0976 87.603 55.5957C87.398 55.6858 87.3414 56.0006 87.46 56.1803C87.5875 56.3929 87.8276 56.4343 88.0446 56.3233C89.1636 55.8296 90.1936 55.2011 91.151 54.4335C91.9332 53.801 92.6517 53.0621 93.1572 52.1865C93.5424 51.5193 93.8266 50.7383 93.739 49.9511C93.6514 49.1638 93.2109 48.5065 92.547 48.0675C91.8205 47.5925 90.9255 47.4094 90.0658 47.3578C88.9747 47.2977 87.8542 47.4569 86.781 47.7268C84.4746 48.3272 82.1985 49.501 80.5053 51.206C79.3849 52.3521 78.2543 54.1178 79.0414 55.7397C79.1909 56.0345 79.3973 56.2788 79.6322 56.4978C80.0395 56.8997 80.6528 56.2948 80.2379 55.9302Z" fill="#1B1F2C"/>
<path d="M102.989 49.0233C107.166 47.904 109.645 43.6102 108.526 39.4329C107.407 35.2556 103.113 32.7766 98.9357 33.8959C94.7584 35.0152 92.2794 39.309 93.3987 43.4863C94.5181 47.6636 98.8118 50.1426 102.989 49.0233Z" fill="#F4755E"/>
<path d="M109.197 41.0156C109.09 39.2996 108.471 37.6501 107.387 36.3015C106.354 35.01 104.913 34.0391 103.319 33.5497C101.672 33.0572 99.8636 33.0834 98.2545 33.6556C96.6576 34.2068 95.2629 35.2502 94.27 36.6089C92.2436 39.3724 92.1858 43.3003 94.1366 46.1084C95.089 47.4921 96.428 48.5432 98.0034 49.1609C99.5996 49.7906 101.401 49.8717 103.066 49.4432C106.376 48.5741 108.837 45.6587 109.181 42.2711C109.211 41.8577 109.204 41.4366 109.197 41.0156C109.189 40.7886 109.012 40.5892 108.781 40.5807C108.57 40.5843 108.338 40.7699 108.346 40.9968C108.426 42.544 108.047 44.0905 107.219 45.4052C106.431 46.6737 105.25 47.6598 103.893 48.2525C101.052 49.4895 97.6246 48.7337 95.522 46.4773C93.415 44.2046 92.9602 40.7313 94.4087 37.9816C95.8616 35.2484 98.9278 33.669 102.007 34.1127C105.033 34.5532 107.542 36.877 108.199 39.8555C108.284 40.2381 108.331 40.6131 108.362 40.9924C108.37 41.2194 108.547 41.4188 108.779 41.4273C108.977 41.4446 109.205 41.2425 109.197 41.0156Z" fill="#1B1F2C"/>
<path d="M110.031 65.5703C111.858 68.8347 116.296 69.5487 119.408 67.4813C122.52 65.4139 122.657 61.5879 121.319 58.1048C120.256 55.323 119.471 53.0487 116.149 48.0173C113.178 43.5087 110.923 41.2755 108.896 39.2987C105.722 36.2015 102.631 35.3203 99.519 37.3877C96.4073 39.4551 95.3204 43.8173 97.608 46.7643C99.3389 49.0145 103.31 53.1141 104.861 55.4829C106.412 57.8518 108.643 63.0872 110.031 65.5703Z" fill="white"/>
<path d="M109.663 65.7748C111.165 68.4212 114.334 69.5281 117.222 68.8602C118.682 68.5218 120.093 67.7383 121.048 66.566C121.995 65.4311 122.458 64.0029 122.541 62.5356C122.623 60.9981 122.295 59.4469 121.755 58.0232C121.374 56.9973 120.977 55.9758 120.547 54.9631C119.288 52.0402 117.599 49.2855 115.787 46.6691C114.035 44.1426 112.067 41.7973 109.884 39.6332C107.847 37.6235 105.35 35.4728 102.276 35.8384C99.2554 36.2071 96.7166 38.7026 96.0929 41.6366C95.7833 43.1118 95.954 44.6698 96.6333 46.021C96.9411 46.6434 97.3836 47.1769 97.8262 47.7104C98.2731 48.2603 98.7321 48.7894 99.1911 49.3185C100.235 50.519 101.312 51.7108 102.345 52.9322C103.196 53.9378 104.026 54.9313 104.73 56.0468C105.486 57.2893 106.136 58.5956 106.764 59.8899C107.44 61.2948 108.104 62.7206 108.813 64.1168C109.091 64.6943 109.377 65.2346 109.663 65.7748C109.931 66.2493 110.663 65.8241 110.395 65.3496C108.982 62.838 107.875 60.1561 106.552 57.5852C105.976 56.4883 105.388 55.4122 104.633 54.4339C103.733 53.2474 102.765 52.1323 101.796 51.0172C100.807 49.89 99.822 48.7793 98.8492 47.6478C98.6471 47.4199 98.4571 47.1713 98.2507 46.927C98.0354 46.6498 97.9091 46.5074 97.7103 46.2258C97.3248 45.6418 97.0499 45.0106 96.9065 44.3441C96.6242 43.0275 96.8396 41.5951 97.4347 40.3959C98.0735 39.0968 99.0844 38.0682 100.349 37.3945C101.458 36.7977 102.718 36.566 103.948 36.8178C105.365 37.1078 106.617 37.9002 107.694 38.8276C108.674 39.6576 109.582 40.6127 110.482 41.5349C111.461 42.559 112.383 43.6336 113.265 44.7543C114.422 46.242 115.493 47.8055 116.519 49.3986C117.367 50.7222 118.17 52.0755 118.883 53.4881C119.148 54.0163 119.397 54.5489 119.645 55.0815C119.868 55.5857 120.019 55.9506 120.226 56.4592C120.67 57.5914 121.152 58.7312 121.415 59.9118C121.723 61.2569 121.809 62.6966 121.427 64.0326C121.069 65.3269 120.253 66.4266 119.113 67.1725C116.875 68.6183 113.696 68.6594 111.597 66.8778C111.095 66.4486 110.677 65.9436 110.35 65.3792C110.127 64.8751 109.395 65.3003 109.663 65.7748Z" fill="#1B1F2C"/>
<path d="M115.392 68.8044C119.324 67.7507 121.657 63.709 120.604 59.7769C119.55 55.8448 115.508 53.5113 111.576 54.5649C107.644 55.6185 105.311 59.6603 106.364 63.5924C107.418 67.5245 111.46 69.858 115.392 68.8044Z" fill="white"/>
<path d="M117.066 54.9267C116.962 54.8666 116.845 54.8272 116.746 54.7835C116.546 54.696 116.351 54.625 116.16 54.5704L94.5087 46.3788C91.8316 45.0695 88.6047 46.1809 87.3118 48.8536C86.0025 51.5307 87.1138 54.7576 89.7865 56.0505L109.519 67.9988C109.715 68.14 109.94 68.256 110.149 68.3764L110.169 68.3884C110.253 68.4365 110.336 68.4847 110.436 68.5284C112.709 69.6464 115.28 69.504 117.342 68.3875" fill="white"/>
<path d="M117.283 54.5515C117.178 54.4913 117.062 54.452 116.962 54.4082C117.015 54.6055 117.068 54.8028 117.116 54.9837C117.24 54.7215 117.137 54.4672 116.862 54.3645C116.488 54.218 116.019 54.0442 115.587 53.878C114.901 53.6212 114.215 53.3643 113.525 53.091C111.31 52.257 109.095 51.423 106.897 50.5846C104.466 49.6675 102.035 48.7504 99.5995 47.8169C98.0703 47.2397 96.5366 46.6462 94.9909 46.0734C94.8746 46.0341 94.7583 45.9948 94.6376 45.939L94.6168 45.9269C94.5959 45.9149 94.7792 46.0068 94.5959 45.9149C94.4544 45.8471 94.2964 45.7837 94.1593 45.7323C93.7106 45.5706 93.2587 45.4625 92.7827 45.3962C90.8876 45.1638 88.8984 45.9612 87.6764 47.4518C86.426 48.9676 85.9987 51.0559 86.592 52.9412C86.8836 53.8323 87.389 54.6662 88.0609 55.3321C88.5187 55.791 89.0443 56.1083 89.6028 56.4169C90.6825 57.0264 91.7306 57.7149 92.7982 58.3452C94.9216 59.6267 97.0285 60.9126 99.1518 62.1941C101.317 63.4997 103.465 64.8096 105.63 66.1152C106.828 66.8342 108.029 67.5696 109.226 68.2886C109.481 68.4495 109.731 68.594 109.986 68.7548C110.173 68.8632 110.474 68.8003 110.561 68.6006C110.364 68.6535 110.167 68.7064 109.986 68.7548C112.352 70.024 115.222 70.0129 117.579 68.7469C118.058 68.4952 117.628 67.7468 117.154 68.0149C115.059 69.1402 112.503 69.1378 110.407 68.0251C110.219 67.9168 109.931 67.9588 109.832 68.1793C110.029 68.1265 110.226 68.0736 110.407 68.0251C109.397 67.4145 108.367 66.7918 107.358 66.1811C105.38 64.9839 103.382 63.7746 101.405 62.5774C99.1978 61.2477 97.0075 59.9137 94.8008 58.584C93.349 57.7041 91.8973 56.8243 90.4455 55.9444C89.9407 55.6391 89.3954 55.3798 88.9388 54.9911C87.6106 53.849 86.9439 52.0186 87.2862 50.2703C87.6404 48.5012 88.949 47.005 90.6743 46.4723C91.5041 46.2147 92.4076 46.1664 93.2576 46.3792C93.6887 46.4752 94.0551 46.659 94.4665 46.8131C95.6842 47.2799 96.8976 47.7302 98.1153 48.197C100.43 49.0747 102.745 49.9525 105.059 50.8302C107.391 51.7035 109.71 52.5977 112.041 53.4711C113.338 53.9695 114.63 54.4516 115.927 54.95C116.164 55.0452 116.401 55.1403 116.65 55.2145C116.559 55.0096 116.486 54.8002 116.396 54.5953C116.304 54.7785 116.329 55.0713 116.55 55.1708C116.65 55.2145 116.77 55.2703 116.87 55.3141C117.074 55.418 117.325 55.3683 117.446 55.1599C117.55 54.9558 117.487 54.6554 117.283 54.5515Z" fill="#1B1F2C"/>
<path d="M82.7673 52.1507C82.6007 51.3318 81.7262 50.8964 80.9722 51.2394C80.5952 51.4109 80.1942 51.6241 79.8063 51.8867C77.4374 53.4378 76.5268 55.7614 76.2198 56.6543C76.7104 56.1175 77.304 55.5707 77.9843 55.0184C79.7075 53.6226 81.4401 52.7883 82.8025 52.2822C82.7729 52.2373 82.764 52.2044 82.7673 52.1507Z" fill="#E4B790"/>
<path d="M83.1783 52.0406C83.0085 51.2754 82.3094 50.7049 81.5122 50.6894C81.0867 50.6801 80.7141 50.868 80.3415 51.056C79.924 51.2736 79.5153 51.5241 79.1318 51.8031C77.9738 52.6773 77.0267 53.8122 76.3835 55.0949C76.1559 55.5612 75.9493 56.0395 75.7963 56.5211C75.6587 56.928 76.2172 57.2366 76.5052 56.9303C78.2738 55.0465 80.4706 53.5768 82.9082 52.6769C83.134 52.5988 83.2588 52.4067 83.2092 52.1557C83.1839 52.1272 83.1751 52.0943 83.1783 52.0406C83.0702 51.5056 82.2481 51.7259 82.3562 52.2608C82.3694 52.3102 82.3782 52.3431 82.3914 52.3924C82.4877 52.2256 82.5961 52.038 82.6924 51.8712C80.1276 52.8228 77.7872 54.3486 75.9091 56.3499C76.1384 56.4823 76.3886 56.6267 76.6179 56.7591C76.6649 56.6056 76.7283 56.4476 76.7797 56.3104C76.8037 56.2687 76.8114 56.2315 76.831 56.1733C76.8431 56.1525 76.8551 56.1316 76.8672 56.1108C76.8868 56.0526 76.8475 56.1689 76.8672 56.1108C76.9109 56.0109 76.9502 55.8947 77.0104 55.7904C77.2335 55.3077 77.4983 54.849 77.8004 54.398C78.6269 53.2072 79.7508 52.2716 81.0495 51.6593C81.615 51.402 82.2216 51.6272 82.3562 52.2608C82.4643 52.7958 83.2864 52.5755 83.1783 52.0406Z" fill="#1B1F2C"/>
<path d="M84.0846 53.384C83.7745 52.6212 82.8202 52.3482 82.1387 52.8304C81.7958 53.0633 81.4496 53.3499 81.1002 53.6902C79.0565 55.6653 78.6021 58.1134 78.4859 59.0609C78.8679 58.4475 79.3441 57.7912 79.9069 57.1293C81.3403 55.4411 82.8817 54.2879 84.1243 53.532C84.1275 53.4783 84.1143 53.4289 84.0846 53.384Z" fill="#E4B790"/>
<path d="M84.4527 53.1794C84.1349 52.4539 83.3439 52.0667 82.5863 52.1992C82.15 52.2808 81.8159 52.5466 81.4774 52.7959C81.1148 53.0869 80.773 53.39 80.4609 53.738C79.4797 54.8115 78.7751 56.1282 78.3776 57.5389C78.2291 58.0369 78.1343 58.5381 78.0768 59.0469C78.0551 59.229 78.2275 59.4119 78.381 59.4589C78.5719 59.5135 78.7604 59.4277 78.8567 59.2609C80.2445 57.0739 82.1294 55.2295 84.3406 53.8792C84.4754 53.7902 84.6122 53.5773 84.5308 53.4052C84.5176 53.3559 84.4924 53.3274 84.4791 53.2781C84.389 53.0731 84.2046 52.9111 83.9579 52.9772C83.7606 53.03 83.5669 53.2934 83.657 53.4984C83.6702 53.5477 83.6955 53.5762 83.7087 53.6255C83.7721 53.4675 83.8355 53.3096 83.8989 53.1516C81.565 54.57 79.5662 56.5155 78.1061 58.8276C78.3716 58.8975 78.637 58.9673 78.9025 59.0372C78.9057 58.9835 78.8916 59.1282 78.8981 59.0207C78.9057 58.9834 78.9133 58.9462 78.921 58.9089C78.9318 58.8178 78.9427 58.7268 78.97 58.6314C79.0037 58.4285 79.0539 58.2212 79.1041 58.0139C79.2318 57.5038 79.4012 57.0179 79.6079 56.5395C80.1885 55.2208 81.1104 54.0574 82.2772 53.216C82.7955 52.8481 83.4294 52.9778 83.6955 53.5762C83.7856 53.7811 84.1004 53.8378 84.2801 53.7191C84.5223 53.6366 84.5593 53.38 84.4527 53.1794Z" fill="#1B1F2C"/>
<path d="M85.5134 54.3754C85.0476 53.6896 84.0716 53.5986 83.4955 54.2112C83.2075 54.5174 82.9283 54.8566 82.6459 55.2495C81.0379 57.6013 81.0836 60.0739 81.1451 61.0268C81.4019 60.3411 81.7322 59.6006 82.1611 58.8336C83.2268 56.8914 84.5201 55.4699 85.5771 54.4817C85.5683 54.4488 85.5386 54.4039 85.5134 54.3754Z" fill="#E4B790"/>
<path d="M85.8771 54.1546C85.4455 53.5301 84.672 53.2086 83.9409 53.4398C83.5507 53.5619 83.2659 53.8145 82.9943 54.1164C82.6702 54.4852 82.3833 54.8616 82.1217 55.2666C81.3173 56.5395 80.8629 58.0006 80.7309 59.4811C80.6898 59.9856 80.6861 60.4977 80.7152 61.0009C80.7399 61.4878 81.3771 61.5638 81.5553 61.1107C82.4723 58.6797 83.972 56.5155 85.879 54.7533C86.0049 54.6314 86.0463 54.3912 85.9365 54.2444C85.9321 54.228 85.9068 54.1995 85.8771 54.1546C85.5805 53.7053 84.8321 54.135 85.1452 54.5798C85.1748 54.6247 85.2001 54.6532 85.2297 54.6981C85.2559 54.5325 85.2776 54.3505 85.2873 54.1893C83.2828 56.0481 81.7153 58.3538 80.7469 60.922C81.02 60.9545 81.2974 61.0035 81.587 61.0317C81.4317 58.6765 82.1262 56.2699 83.7777 54.5409C84.1468 54.1424 84.8069 54.1065 85.1496 54.5963C85.2891 54.788 85.5216 54.8667 85.7342 54.7392C85.9183 54.637 86.0166 54.3463 85.8771 54.1546Z" fill="#1B1F2C"/>
<path d="M94.7747 47.9644C94.7776 47.6464 94.7148 47.346 94.5861 47.0632C93.6989 45.1333 89.9179 44.9657 86.1358 46.7016C82.3537 48.4376 80.0085 51.3923 80.8793 53.3266C81.7665 55.2565 85.5475 55.4242 89.3296 53.6882" fill="white"/>
<path d="M95.2003 47.9735C95.1881 47.0074 94.6871 46.19 93.8652 45.6877C93.1103 45.2379 92.1912 45.0965 91.3194 45.0657C88.9607 45.0104 86.5428 45.8522 84.5353 47.0421C83.5788 47.6157 82.653 48.3043 81.9029 49.1221C81.2863 49.7808 80.7335 50.5457 80.4549 51.4134C80.2277 52.144 80.2286 52.9368 80.5869 53.6162C80.9496 54.312 81.6508 54.7586 82.3858 55.0022C83.2787 55.3093 84.258 55.3465 85.202 55.2522C86.373 55.1499 87.5284 54.8579 88.6321 54.4388C88.9521 54.3178 89.2678 54.1804 89.567 54.0473C89.7719 53.9572 89.8285 53.6424 89.7099 53.4627C89.5824 53.2501 89.3423 53.2088 89.1253 53.3198C88.105 53.787 87.0165 54.1315 85.9049 54.3236C85.0442 54.4661 84.1079 54.5232 83.271 54.3597C82.5833 54.2268 81.9767 54.0016 81.5474 53.5174C81.5221 53.489 81.4969 53.4605 81.4716 53.432C81.5265 53.5054 81.4463 53.4035 81.4419 53.3871C81.4079 53.3257 81.3782 53.2808 81.3441 53.2194C81.3189 53.1909 81.3101 53.1581 81.2969 53.1087C81.2925 53.0923 81.2452 52.9816 81.288 53.0758C81.2496 52.998 81.2275 52.9158 81.2011 52.8172C81.1835 52.7514 81.1703 52.7021 81.1691 52.6319C81.1791 52.735 81.1603 52.599 81.1603 52.599C81.1515 52.5661 81.1591 52.5288 81.1459 52.4795C81.1403 52.3929 81.1391 52.3227 81.1544 52.2481C81.1664 52.2273 81.1576 52.1944 81.1696 52.1735C81.1729 52.1198 81.1729 52.1198 81.1652 52.1571C81.1773 52.1362 81.1685 52.1034 81.1805 52.0825C81.309 51.3784 81.6537 50.7573 82.1311 50.1712C82.7377 49.4095 83.4825 48.7693 84.2867 48.219C86.0748 46.9997 88.2197 46.1254 90.3884 45.932C91.3204 45.8585 92.2788 45.8837 93.1312 46.2368C93.4099 46.356 93.7062 46.541 93.9246 46.7644C93.9499 46.7929 93.9751 46.8214 94.0004 46.8498C94.0212 46.8619 94.0301 46.8948 94.0509 46.9068C94.0257 46.8783 94.0257 46.8783 94.0509 46.9068C94.1014 46.9638 94.1399 47.0416 94.174 47.103C94.3146 47.3649 94.3687 47.6323 94.3778 47.9295C94.3544 48.4997 95.2053 48.5184 95.2003 47.9735Z" fill="#1B1F2C"/>
<path opacity="0.29" d="M77.7568 21.3486C77.9917 21.5676 78.2367 21.8897 78.2766 22.302C78.393 23.3282 77.1275 24.196 76.3638 24.7002C75.6615 25.1704 74.4014 25.8605 72.5222 26.082C73.8582 26.4642 74.9261 26.3719 75.5148 26.2671C76.1902 26.1566 77.759 25.8948 78.7695 24.6019C79.0849 24.2002 79.7681 23.3298 79.4435 22.4475C79.1707 21.6923 77.9268 21.3912 77.7568 21.3486Z" fill="#836038"/>
<path d="M97.1551 33.8269C97.4142 34.9911 97.4748 36.138 97.2875 37.2808C97.2843 37.3345 97.2811 37.3883 97.2614 37.4464C97.2658 37.4628 97.2538 37.4837 97.2582 37.5001C97.2626 37.5166 97.2506 37.5374 97.255 37.5539C97.2473 37.5912 97.2397 37.6285 97.2321 37.6657C97.2016 37.8149 97.171 37.9641 97.1197 38.1012C97.112 38.1385 97.1088 38.1922 97.0847 38.2339C96.7833 39.2135 95.9839 41.0314 93.897 43.6349C90.7907 47.4984 90.5744 48.1379 90.2083 49.2053C90.157 49.3424 90.1056 49.4796 90.039 49.6913C89.581 50.9419 89.3197 51.6111 87.9721 52.5009C86.8895 53.1963 86.1052 52.9659 84.7648 52.5672L84.6902 52.552C84.4993 52.4974 84.3249 52.4384 84.1176 52.3882C82.4624 51.9329 80.3048 52.2995 77.5586 52.771L76.5664 52.9488C73.5856 53.4655 68.831 51.6378 66.9904 50.2277C66.3462 49.7306 65.827 49.3058 65.4373 48.9696C64.2868 47.8328 63.4583 46.451 62.8513 44.9747L62.8425 44.9418C62.1714 43.095 61.0644 38.8977 62.165 33.1396C63.3583 27.0041 67.2865 23.6429 68.931 22.4797C69.0657 22.3907 69.2005 22.3017 69.3309 22.1963C69.47 22.1238 69.5884 22.0392 69.6947 21.9755C69.7396 21.9458 69.7845 21.9162 69.825 21.8701C69.825 21.8701 69.825 21.8701 69.8371 21.8492C70.6051 21.3614 71.382 20.9065 72.2183 20.5415C73.3986 20.0137 74.6394 19.646 75.9111 19.3934C78.2507 19.0485 81.7311 19.0147 85.6573 20.4475C91.7567 22.6903 94.6452 27.4853 95.7501 29.8328L95.7589 29.8657C96.2846 31.1699 96.8267 32.4698 97.1551 33.8269Z" fill="#A77B4A"/>
<path d="M96.7441 33.937C96.8875 34.6035 96.9771 35.2668 96.9637 35.9401C96.9652 36.2746 96.9458 36.597 96.8936 36.9282C96.8751 37.0565 96.861 37.2013 96.8425 37.3296C96.824 37.4579 96.7574 37.6696 96.8047 37.7803C96.8035 37.7101 96.8023 37.6399 96.7967 37.5533C96.7357 37.8517 96.6538 38.1379 96.5554 38.4286C96.5281 38.5241 96.48 38.6075 96.4527 38.7029C96.433 38.761 96.4133 38.8192 96.3893 38.8609C96.3576 38.9399 96.3772 38.8817 96.3893 38.8609C96.3816 38.8982 96.3576 38.9399 96.3455 38.9607C96.1072 39.518 95.8106 40.0557 95.5097 40.5769C94.5861 42.1285 93.4079 43.5192 92.2922 44.9461C91.6255 45.812 90.9423 46.6824 90.405 47.637C90.1205 48.1538 89.9106 48.6859 89.726 49.2465C89.5052 49.8696 89.3174 50.4838 88.9507 51.0227C88.596 51.5407 87.9322 52.0886 87.3129 52.3427C86.583 52.644 85.8152 52.4092 85.1054 52.194C84.3793 51.9832 83.6904 51.7801 82.9546 51.7305C81.268 51.6185 79.5479 51.9737 77.8969 52.2575C77.4233 52.3315 76.9541 52.422 76.4805 52.496C75.9082 52.5965 75.2558 52.5951 74.623 52.5355C73.0888 52.4003 71.5783 51.9591 70.1401 51.3928C69.5082 51.1392 68.8839 50.8482 68.2837 50.5156C67.6418 50.1589 67.1984 49.8195 66.6584 49.3826C66.3444 49.1319 66.0305 48.8812 65.7122 48.614C65.7463 48.6754 65.7804 48.7367 65.8188 48.8145C65.7066 48.5274 65.3971 48.2931 65.1951 48.0652C64.9887 47.821 64.7778 47.5603 64.5999 47.2907C64.2275 46.7561 63.8792 46.1797 63.5967 45.5857C63.2548 44.9019 63.0161 44.2081 62.8222 43.4846C62.3079 41.631 62.0896 39.698 62.1026 37.7736C62.1215 35.2132 62.4945 32.5931 63.4203 30.195C64.1167 28.387 65.1454 26.7015 66.4179 25.2679C66.9041 24.7147 67.432 24.1855 67.9895 23.7013C68.2173 23.4992 68.4331 23.3181 68.6654 23.1325C68.7103 23.1028 68.6369 23.1577 68.6369 23.1577C68.6534 23.1533 68.6654 23.1325 68.6818 23.1281C68.7103 23.1028 68.7268 23.0984 68.7552 23.0732C68.8002 23.0435 68.8571 22.993 68.902 22.9633C69.0204 22.8788 69.1387 22.7942 69.257 22.7096C70.3592 21.9561 71.4911 21.2474 72.7625 20.7305C73.9516 20.2357 75.2955 19.858 76.5278 19.7216C78.7864 19.4689 81.1014 19.624 83.3072 20.1609C85.7038 20.7523 87.988 21.7792 89.9581 23.278C91.4639 24.4254 92.776 25.8362 93.8217 27.3712C94.2281 27.9672 94.6017 28.572 94.9303 29.2065C95.0666 29.452 95.1743 29.7227 95.315 29.9846C95.3447 30.0295 95.3018 29.9353 95.3018 29.9353C95.315 29.9846 95.3403 30.0131 95.3535 30.0624C95.3919 30.1402 95.414 30.2225 95.4525 30.3003C95.5338 30.4723 95.5987 30.6488 95.6592 30.8088C95.8011 31.1409 95.9265 31.4774 96.0563 31.8303C96.3532 32.5438 96.5711 33.2256 96.7441 33.937C96.8687 34.4676 97.6908 34.2473 97.5663 33.7167C97.2411 32.3059 96.6681 30.8909 96.0931 29.5999C95.8314 29.018 95.504 28.4536 95.1765 27.8893C94.2295 26.3279 93.0698 24.8939 91.7196 23.6696C89.9457 22.0477 87.8684 20.8068 85.6042 19.986C83.1655 19.1062 80.5695 18.6915 77.9862 18.7845C76.8678 18.8199 75.7594 18.9582 74.6697 19.2326C73.2184 19.6039 71.8363 20.168 70.54 20.9207C69.9757 21.2482 69.4202 21.6085 68.8855 21.9809C68.6324 22.1544 68.3958 22.3235 68.1635 22.5091C67.6377 22.9144 67.1371 23.3481 66.6662 23.8268C65.33 25.1541 64.2079 26.6884 63.3524 28.3627C62.1731 30.6701 61.596 33.1863 61.3666 35.7503C61.1654 38.0247 61.2701 40.3229 61.7289 42.5615C61.8855 43.2774 62.0585 43.9888 62.2973 44.6826C62.6539 45.7502 63.1957 46.7858 63.847 47.7039C64.2238 48.255 64.6619 48.7721 65.145 49.2594C65.1109 49.1981 65.0769 49.1367 65.0384 49.0589C65.1285 49.2638 65.2997 49.3766 65.4589 49.5102C65.6389 49.6558 65.7981 49.7894 65.9781 49.935C66.3128 50.1978 66.652 50.477 66.9988 50.7189C67.5212 51.09 68.0797 51.3986 68.6623 51.6654C70.0985 52.3556 71.6354 52.8955 73.2136 53.1951C73.9923 53.3389 74.7787 53.4454 75.5715 53.4445C76.1329 53.4351 76.6723 53.3434 77.2281 53.2473C78.7761 52.9735 80.3317 52.6625 81.9161 52.5904C82.6135 52.5621 83.3196 52.5668 83.9877 52.7579C84.8213 52.9751 85.6364 53.3206 86.4918 53.3558C87.4008 53.3941 88.1777 52.9392 88.858 52.3869C89.3795 51.9652 89.7999 51.4296 90.0744 50.8097C90.3292 50.248 90.5094 49.671 90.7105 49.106C90.7499 48.9898 90.7892 48.8735 90.8329 48.7736C90.8406 48.7363 90.9007 48.6321 90.8329 48.7736C90.845 48.7528 90.8526 48.7155 90.8646 48.6947C90.9008 48.6321 90.916 48.5575 90.9521 48.495C91.3394 47.7039 91.8637 46.9642 92.3969 46.2574C94.2263 43.811 96.4297 41.5112 97.4372 38.5625C97.4645 38.467 97.4918 38.3716 97.5235 38.2926C97.5781 38.1018 97.729 37.7441 97.6433 37.5556C97.6444 37.6258 97.6456 37.696 97.6512 37.7826C97.7287 37.4798 97.748 37.1574 97.7838 36.8306C97.8196 36.5038 97.8346 36.165 97.8331 35.8305C97.8213 35.1288 97.7349 34.4117 97.5827 33.7123C97.4417 33.1862 96.6196 33.4064 96.7441 33.937Z" fill="#1C202C"/>
<path d="M94.8096 30.1379C94.814 30.1543 94.814 30.1543 94.8184 30.1708C95.2939 31.6823 95.1698 33.3898 94.8942 34.9264C94.6741 36.078 94.3421 37.2067 93.9103 38.2917C93.7277 38.7284 93.5451 39.165 93.3252 39.594L93.3132 39.6148C93.0824 40.1349 92.81 40.6308 92.4718 41.1444C92.4597 41.1653 92.4477 41.1861 92.4357 41.207C92.4357 41.207 92.4357 41.207 92.4236 41.2278C91.9639 41.8797 91.4295 42.5163 90.8162 43.1213C90.7833 43.1301 90.7712 43.1509 90.7428 43.1762C90.401 43.4792 90.0593 43.7823 89.7175 44.0853C89.4897 44.2874 89.2783 44.485 89.0877 44.6947C88.6092 45.2106 88.2797 45.7571 87.9932 46.3978C87.9615 46.4768 87.9178 46.5766 87.8696 46.66C87.2801 47.9459 86.5967 49.5389 85.1037 49.8861C84.4042 50.0382 83.6737 49.811 82.9904 49.6945C82.7338 49.6575 82.4771 49.6205 82.2369 49.5792C81.7281 49.5216 81.2324 49.5135 80.7203 49.5097C79.7916 49.5295 78.8817 49.6851 77.9717 49.8408C77.9553 49.8453 77.9388 49.8497 77.9224 49.8541C74.103 50.5955 70.4431 50.0253 67.5933 48.2688L67.5055 48.2042C67.4847 48.1922 67.4638 48.1801 67.443 48.1681C67.443 48.1681 67.4221 48.156 67.4177 48.1396C67.3969 48.1276 67.3969 48.1276 67.376 48.1155C66.4014 47.3722 65.5451 46.5442 64.7972 45.5286C63.8801 44.2764 63.4201 42.9545 63.3328 41.4447C63.4477 39.4401 64.5046 37.465 66.2498 36.1515C67.3749 35.2861 68.7273 34.677 70.2741 34.333C71.2037 34.1192 72.1982 34.0818 73.1511 34.0203C73.7081 33.9944 74.298 33.9597 74.867 33.913C76.3219 33.7523 77.6887 33.2627 78.9093 32.4246C80.0279 31.6666 81.0115 30.7334 81.9501 29.8298L82.1046 29.6827C83.9008 27.9678 86.1275 25.8203 89.0476 25.8661C91.6257 25.9508 93.9666 27.6498 94.8096 30.1379Z" fill="#DFBA96"/>
<path d="M94.3984 30.248C94.4801 30.6843 94.6231 31.0866 94.6719 31.5317C94.7207 31.9768 94.7201 32.4352 94.7032 32.898C94.6604 33.7906 94.5265 34.6724 94.3226 35.5553C94.123 36.4547 93.8323 37.3432 93.4956 38.1913C93.1665 39.002 92.8002 39.8051 92.346 40.5436C91.8721 41.3403 91.2042 42.1361 90.5054 42.8167C90.5668 42.7827 90.6282 42.7486 90.706 42.7101C90.4188 42.8223 90.1922 43.0946 89.9479 43.301C89.6916 43.5283 89.4188 43.76 89.1669 44.0037C88.7036 44.4451 88.2908 44.9434 87.9658 45.5063C87.4121 46.4653 87.0833 47.5403 86.4418 48.4348C86.1594 48.8277 85.7936 49.1724 85.3508 49.3615C84.8466 49.5847 84.2796 49.5076 83.7576 49.4007C82.4195 49.1425 81.0958 49.0037 79.7395 49.138C78.4535 49.2711 77.2038 49.606 75.9254 49.7018C74.7873 49.7953 73.6348 49.7692 72.4964 49.5984C71.4117 49.4309 70.3499 49.1514 69.3351 48.7184C68.8568 48.5117 68.3696 48.2722 67.923 47.9865C67.4599 47.7053 67.0494 47.3571 66.6509 46.988C65.6948 46.1163 64.8394 45.0943 64.3116 43.9139C64.05 43.332 63.8869 42.7236 63.7897 42.0976C63.7101 41.5374 63.7467 41.0165 63.882 40.4691C64.4025 38.2678 66.0046 36.552 67.9992 35.5769C69.1827 34.9955 70.4861 34.6638 71.8139 34.5548C73.2283 34.4402 74.6494 34.4823 76.0438 34.1616C77.4054 33.8496 78.6415 33.2012 79.7545 32.3566C80.7208 31.6219 81.5861 30.7732 82.4557 29.941C84.1501 28.3062 86.1052 26.4606 88.5887 26.3239C90.6226 26.2195 92.6217 27.2346 93.7488 28.9417C94.0202 29.3624 94.2422 29.7964 94.3984 30.248C94.4722 30.4573 94.6895 30.6106 94.9197 30.5489C95.1334 30.4916 95.2987 30.2535 95.2206 30.0277C94.3612 27.544 92.1133 25.7319 89.4748 25.4872C86.3274 25.1851 83.8705 27.3942 81.7533 29.4243C80.6602 30.475 79.5595 31.563 78.2556 32.3529C77.5445 32.7902 76.7652 33.1047 75.9551 33.3042C75.1286 33.508 74.2952 33.5551 73.4455 33.6065C72.5749 33.6459 71.7207 33.681 70.8557 33.807C70.04 33.9198 69.2343 34.1357 68.4671 34.4294C67.0927 34.9563 65.7932 35.7627 64.8043 36.8736C63.925 37.867 63.2685 39.1003 63.0015 40.4055C62.9328 40.7411 62.8805 41.0723 62.8656 41.4112C62.8518 41.8202 62.9291 42.2401 63.0184 42.6391C63.1761 43.4251 63.449 44.1803 63.8281 44.8718C64.6072 46.2667 65.771 47.4529 67.0298 48.4021C67.4985 48.77 68.0646 49.0412 68.6055 49.284C69.2298 49.5749 69.8573 49.8121 70.5089 50.0076C71.8449 50.3898 73.2355 50.5812 74.6106 50.5828C75.3496 50.5786 76.0799 50.5416 76.809 50.4343C77.5918 50.3303 78.3734 50.1561 79.1726 50.0477C79.9839 49.9184 80.8052 49.8922 81.6276 49.9362C82.4128 49.9726 83.151 50.1625 83.9209 50.2734C84.6535 50.3767 85.3749 50.3067 86.0291 49.92C86.6055 49.5717 87.0303 49.0525 87.3717 48.4852C88.0951 47.3045 88.4477 45.9235 89.4257 44.9036C89.7137 44.5974 90.027 44.3196 90.3238 44.0462C90.4782 43.8991 90.6535 43.764 90.8079 43.6169C90.8364 43.5916 90.8649 43.5663 90.8934 43.5411C90.9219 43.5158 91.027 43.3819 90.9339 43.495C90.9175 43.4994 90.901 43.5038 90.8725 43.5291C90.9219 43.5158 90.9832 43.4818 91.0281 43.4521C91.0851 43.4016 91.1256 43.3555 91.1826 43.305C91.739 42.7506 92.2448 42.1392 92.7046 41.4873C93.0998 40.9232 93.4749 40.153 93.8064 39.4826C94.1695 38.7333 94.4702 37.9478 94.717 37.1591C95.2032 35.6189 95.5345 33.9617 95.5074 32.3476C95.5047 31.943 95.4691 31.5472 95.4171 31.1558C95.3651 30.7644 95.2517 30.4071 95.1668 30.0245C95.1125 29.4927 94.2903 29.713 94.3984 30.248Z" fill="#1C202C"/>
<path d="M85.5675 36.2267C86.6261 36.5599 87.8675 36.7207 89.1845 36.7026C89.9027 36.6864 90.645 36.6285 91.4069 36.5125C91.4562 36.4993 91.51 36.5025 91.5593 36.4893C93.7497 36.1138 95.7226 35.3209 97.1292 34.2566C98.491 33.2221 99.1486 32.059 98.9532 31.001C98.6959 29.4486 96.7373 28.3874 94.0944 28.1263C94.045 28.1395 94.0077 28.1318 93.966 28.1078C92.7915 27.9995 91.5043 28.0625 90.17 28.279C89.8817 28.321 89.5978 28.3795 89.3182 28.4544C88.8041 28.5745 88.3108 28.7067 87.8428 28.8673C86.0321 29.4759 84.5605 30.3636 83.6603 31.345C82.9671 32.1123 82.626 32.9439 82.7717 33.7508C82.9386 34.834 83.932 35.7133 85.5675 36.2267Z" fill="#A77B4A"/>
<path d="M89.1844 36.7029C89.9026 36.6867 90.6449 36.6288 91.4069 36.5127C91.4562 36.4995 91.5099 36.5027 91.5593 36.4895C93.7497 36.1141 95.7225 35.3211 97.1292 34.2569C98.4909 33.2223 99.1486 32.0592 98.9532 31.0013C98.6959 29.4489 96.7373 28.3876 94.0943 28.1265C94.045 28.1397 94.0077 28.1321 93.966 28.108C92.7915 27.9998 91.5042 28.0627 90.17 28.2793C89.8817 28.3213 89.5977 28.3797 89.3182 28.4546C88.8041 28.5747 88.3108 28.7069 87.8428 28.8676C89.2671 28.856 93.4041 29.5627 93.5268 32.1909C93.6686 35.2194 90.7309 36.0947 89.1844 36.7029Z" fill="#836038"/>
<path d="M91.4025 36.4963C91.4518 36.4831 91.5056 36.4863 91.5549 36.4731C93.7453 36.0977 95.7181 35.3047 97.1248 34.2405C98.4866 33.2059 99.1442 32.0428 98.9488 30.9849C98.6915 29.4325 96.7329 28.3712 94.0899 28.1101C94.0406 28.1233 94.0033 28.1157 93.9616 28.0916C92.7871 27.9833 91.4998 28.0463 90.1656 28.2628C89.8773 28.3048 89.5933 28.3633 89.3138 28.4382C91.4917 28.5419 95.4783 29.1479 96.0912 30.9751C96.7262 32.8845 94.5738 34.783 91.9877 36.1809C91.7751 36.3084 91.591 36.4106 91.4025 36.4963Z" fill="#62482A"/>
<path d="M99.5781 30.8338C99.4048 29.8581 98.6616 29.1232 97.832 28.6582C97.3317 28.3693 96.7996 28.1594 96.2479 28.0077C95.9407 27.9137 95.6215 27.8406 95.2903 27.7884C95.1039 27.7503 94.9218 27.7285 94.7398 27.7068C94.595 27.6927 94.4009 27.6919 94.2682 27.6569C94.3307 27.6931 94.3933 27.7292 94.4558 27.7653C94.2462 27.5747 93.8339 27.6147 93.5488 27.603C93.2472 27.5957 92.9292 27.5928 92.6321 27.6019C91.9676 27.6213 91.312 27.6737 90.6531 27.7797C89.3309 27.9754 88.0363 28.3399 86.7978 28.848C85.7687 29.2823 84.7584 29.8526 83.9413 30.6179C83.1603 31.3206 82.4871 32.294 82.4972 33.384C82.5105 34.4202 83.1606 35.2681 83.9958 35.8198C85.0065 36.5006 86.2503 36.8018 87.438 36.9594C89.9956 37.2962 92.7386 36.8784 95.1213 35.9052C96.2162 35.4532 97.2758 34.8697 98.1663 34.0495C98.9024 33.3764 99.5319 32.5028 99.6096 31.4775C99.6433 31.2746 99.619 31.052 99.5781 30.8338C99.5373 30.6157 99.2707 30.4756 99.0569 30.5329C98.8103 30.599 98.7152 30.836 98.756 31.0541C98.766 31.1572 98.786 31.3633 98.7554 31.5125C98.7414 31.6572 98.6912 31.8645 98.6157 32.0434C98.4692 32.4175 98.2273 32.7643 97.9557 33.0661C97.2625 33.8334 96.3597 34.4102 95.4216 34.8554C93.3164 35.8777 90.8629 36.3237 88.5282 36.2267C87.4415 36.183 86.336 36.0034 85.3256 35.5868C84.5521 35.2654 83.7006 34.7181 83.4353 33.9256C83.1525 33.0674 83.6131 32.2214 84.1848 31.5924C84.8254 30.8921 85.6505 30.3538 86.5063 29.9306C88.8362 28.76 91.5824 28.2885 94.1629 28.5135C94.063 28.4697 93.9632 28.426 93.8677 28.3987C94.0269 28.5323 94.1837 28.5255 94.3822 28.5428C94.527 28.5569 94.6553 28.5754 94.8 28.5895C95.1104 28.6297 95.4087 28.6907 95.7115 28.7682C96.2379 28.8915 96.7612 29.0685 97.2528 29.3245C97.6445 29.5368 98.0077 29.7743 98.3108 30.116C98.5589 30.3844 98.7128 30.6956 98.7812 31.0826C98.8221 31.3008 99.0887 31.4408 99.3025 31.3835C99.5238 31.289 99.619 31.052 99.5781 30.8338Z" fill="#1C202C"/>
<path d="M84.6669 33.2608C84.7148 33.9 84.9063 34.4832 85.1656 34.9248C85.4414 35.3619 85.7718 35.6083 86.127 35.6188C86.1643 35.6264 86.1972 35.6176 86.2137 35.6132C86.6095 35.5777 86.9348 35.279 87.1447 34.7469C87.3349 34.273 87.4153 33.6523 87.3509 33.0175C87.303 32.3782 87.1115 31.7951 86.8522 31.3535C86.5468 30.8714 86.1792 30.6175 85.7878 30.6695C85.0499 30.7438 84.5447 31.8837 84.6669 33.2608Z" fill="#1C202C"/>
<path d="M86.0459 32.7505C86.3547 32.6678 86.5379 32.3504 86.4552 32.0417C86.3724 31.7329 86.0551 31.5497 85.7463 31.6324C85.4375 31.7152 85.2543 32.0325 85.3371 32.3413C85.4198 32.65 85.7371 32.8333 86.0459 32.7505Z" fill="white"/>
<path d="M86.5357 33.3947C86.681 33.3557 86.7672 33.2064 86.7283 33.0611C86.6893 32.9158 86.54 32.8295 86.3947 32.8685C86.2494 32.9074 86.1632 33.0568 86.2021 33.2021C86.241 33.3474 86.3904 33.4336 86.5357 33.3947Z" fill="white"/>
<path d="M74.1878 37.9544C73.7998 37.23 73.0284 36.7847 71.9931 36.6039C70.6803 36.3741 68.9743 36.5845 67.1724 37.2259C66.7043 37.3865 66.2287 37.5845 65.741 37.8033C65.4747 37.9275 65.2248 38.0474 64.9629 38.188C63.7597 38.8276 62.7112 39.5844 61.8536 40.3958C61.8295 40.4375 61.801 40.4627 61.7561 40.4924C59.8339 42.3292 58.935 44.3676 59.6932 45.7505C60.213 46.7039 61.4275 47.2244 63.1447 47.1873C64.8991 47.1577 66.9412 46.5577 68.8973 45.5049C68.9422 45.4752 68.9915 45.462 69.0364 45.4323C69.7114 45.0576 70.3283 44.6632 70.8991 44.2283C71.9552 43.4342 72.8281 42.5483 73.4608 41.621C74.4405 40.2129 74.6911 38.9121 74.1878 37.9544Z" fill="#A77B4A"/>
<path d="M70.9156 44.2238C70.3448 44.6587 69.7115 45.0575 69.0529 45.4279C69.008 45.4575 68.9587 45.4707 68.9137 45.5004C66.9577 46.5532 64.9156 47.1533 63.1611 47.1828C61.4396 47.2035 60.2295 46.6994 59.7097 45.7461C58.9679 44.3587 59.8504 42.3247 61.7726 40.4879C61.8219 40.4747 61.8504 40.4494 61.8701 40.3913C62.7321 39.5964 63.7806 38.8396 64.9794 38.1835C65.2413 38.0429 65.5032 37.9022 65.7575 37.7988C66.2243 37.568 66.7164 37.3656 67.1889 37.2214C66.0517 38.1077 63.2461 41.1857 64.7564 43.3364C66.4787 45.818 69.3339 44.7005 70.9156 44.2238Z" fill="#836038"/>
<path d="M69.0528 45.4279C69.0079 45.4575 68.9585 45.4708 68.9136 45.5004C66.9576 46.5532 64.9154 47.1533 63.161 47.1828C61.4395 47.2035 60.2294 46.6994 59.7096 45.7461C58.9678 44.3588 59.8502 42.3247 61.7725 40.4879C61.8218 40.4747 61.8503 40.4495 61.8699 40.3913C62.732 39.5964 63.7804 38.8396 64.9793 38.1836C65.2412 38.0429 65.5031 37.9022 65.7573 37.7988C64.1132 39.2263 61.338 42.1552 61.9839 43.9736C62.6682 45.8697 65.5325 46.0363 68.4147 45.546C68.6329 45.5051 68.8511 45.4643 69.0528 45.4279Z" fill="#62482A"/>
<path d="M59.8685 45.6155C59.6982 45.3086 59.6429 44.971 59.6611 44.5784C59.6793 44.1858 59.8202 43.7251 59.9996 43.3422C60.2347 42.8386 60.5204 42.392 60.8642 41.965C61.0624 41.7181 61.2649 41.4875 61.484 41.2526C61.5935 41.1352 61.6909 41.0385 61.8049 40.9375C61.9023 40.8409 62.0371 40.7519 62.0676 40.6028C62.0315 40.6653 61.9954 40.7279 61.9593 40.7904C63.6669 39.205 65.8026 38.0335 68.0509 37.4135C69.0539 37.1447 70.0998 36.9702 71.1416 37.0435C71.9685 37.1039 72.926 37.3232 73.4499 38.0288C73.9441 38.6894 73.8432 39.5623 73.5382 40.3314C73.1501 41.3165 72.4581 42.154 71.7023 42.8852C70.0003 44.5572 67.7956 45.8001 65.5144 46.4289C64.3679 46.7538 63.1487 46.9395 61.9654 46.7983C61.5103 46.744 61.0375 46.624 60.6414 46.3953C60.3078 46.2027 60.0685 45.9672 59.8685 45.6155C59.6004 45.141 58.8684 45.5662 59.1365 46.0407C59.7157 47.0839 60.8873 47.5102 62.0169 47.6481C63.4733 47.8218 64.9795 47.5239 66.3552 47.0672C67.9072 46.5456 69.3976 45.7938 70.7233 44.8217C71.9185 43.9551 73.0489 42.9121 73.8369 41.6436C74.5166 40.5627 74.9886 39.1673 74.4103 37.93C73.8409 36.7256 72.4499 36.27 71.2261 36.175C69.8037 36.0626 68.3348 36.3681 66.98 36.8369C65.4652 37.3661 64.0242 38.1047 62.727 39.0515C62.4169 39.2756 62.1277 39.5117 61.8385 39.7478C61.7082 39.8532 61.5658 39.9795 61.4398 40.1013C61.4113 40.1266 61.3829 40.1518 61.3708 40.1727C61.3829 40.1518 61.246 40.3647 61.2625 40.3603C61.246 40.3647 61.5176 40.0628 61.2733 40.2693C61.2284 40.2989 61.2044 40.3406 61.1594 40.3703C60.6271 40.883 60.1453 41.4527 59.7469 42.0705C59.1187 43.0143 58.6387 44.1827 58.8769 45.3349C58.9265 45.5859 59.0255 45.8237 59.1365 46.0407C59.3926 46.536 60.1246 46.1108 59.8685 45.6155Z" fill="#1C202C"/>
<path d="M72.3718 38.7405C72.7277 39.2795 72.9521 39.8539 72.9976 40.3527C73.064 40.8636 72.9428 41.2662 72.67 41.4979C72.6416 41.5232 72.6131 41.5484 72.5966 41.5528C72.2657 41.7648 71.815 41.727 71.3355 41.4502C70.8977 41.1974 70.4607 40.7505 70.1048 40.2114C69.7489 39.6724 69.5245 39.0981 69.4745 38.5827C69.4114 38.0181 69.5611 37.5903 69.892 37.3782C70.5253 36.9794 71.617 37.5681 72.3718 38.7405Z" fill="#1C202C"/>
<path d="M70.8767 39.2117C71.1855 39.129 71.3687 38.8116 71.286 38.5029C71.2032 38.1941 70.8859 38.0109 70.5771 38.0936C70.2684 38.1763 70.0851 38.4937 70.1679 38.8024C70.2506 39.1112 70.568 39.2944 70.8767 39.2117Z" fill="white"/>
<path d="M71.9087 39.4461C72.054 39.4072 72.1402 39.2579 72.1013 39.1126C72.0624 38.9673 71.913 38.8811 71.7677 38.92C71.6224 38.9589 71.5362 39.1083 71.5751 39.2536C71.6141 39.3989 71.7634 39.4851 71.9087 39.4461Z" fill="white"/>
<path d="M76.2103 38.3995C76.6093 38.3102 77.0151 38.3777 77.4056 38.5198C77.7172 38.6302 77.9926 38.8031 78.2681 38.976C78.56 39.1446 78.8266 39.2846 79.1619 39.089C79.7054 38.7495 79.8788 38.0157 80.1753 37.4781C80.4358 37.003 80.784 36.5924 81.1871 36.2553C81.0917 36.228 81.0006 36.2172 80.9052 36.1899C80.8767 36.2151 80.8274 36.2283 80.7736 36.2251C79.1813 36.0702 77.5285 36.7422 76.5212 37.9814C76.3996 38.1197 76.2945 38.2536 76.2103 38.3995Z" fill="#352B35"/>
<path d="M76.5678 42.9562C77.3732 43.4629 78.3633 43.4091 79.2556 43.1876C80.2631 42.9353 81.3218 42.5458 82.2171 42.0064C83.006 41.5306 83.7004 40.8335 83.991 39.9449C84.2619 39.1145 84.0733 38.2134 83.6108 37.4738C82.6858 35.9946 80.7848 35.4113 79.1405 35.8519C79.0912 35.8651 76.6729 36.4426 75.7223 38.3539C74.9599 39.9152 74.97 41.992 76.5678 42.9562ZM80.9446 39.7567C80.8007 39.5485 80.7839 39.2887 80.8955 39.0473C80.9469 38.9102 81.0235 38.8015 81.1462 38.7334C81.2525 38.6697 81.3556 38.6597 81.4674 38.6826C81.5212 38.6858 81.5629 38.7099 81.6298 38.7624C81.6507 38.7745 81.7176 38.827 81.7637 38.8675C81.8439 38.9694 81.8912 39.0801 81.922 39.1952C81.885 39.4518 81.7406 39.702 81.5116 39.8339C81.4053 39.8976 81.2902 39.9284 81.1783 39.9055C81.141 39.8979 81.062 39.8662 81.0368 39.8377C81.0368 39.8377 80.9907 39.7972 80.9698 39.7852C80.9698 39.7852 80.9654 39.7687 80.9446 39.7567ZM76.2103 38.3994C76.2946 38.2534 76.3997 38.1195 76.5212 37.9812C77.545 36.7376 79.1813 36.0701 80.7737 36.225C80.8274 36.2282 80.8603 36.2194 80.9052 36.1897C80.9962 36.2006 81.0917 36.2279 81.1871 36.2552C80.7675 36.5967 80.4193 37.0072 80.1754 37.4779C79.8789 38.0156 79.7054 38.7494 79.1619 39.0889C78.8475 39.2965 78.56 39.1444 78.2681 38.9759C77.9927 38.803 77.7216 38.6465 77.4057 38.5197C77.0151 38.3776 76.5929 38.3145 76.2103 38.3994ZM76.8471 40.9075C76.8371 40.8044 76.8853 40.721 76.9499 40.6332C77.0834 40.4741 77.3301 40.408 77.545 40.4209C77.6733 40.4394 77.7644 40.4502 77.8686 40.5104C77.9311 40.5465 77.952 40.5586 78.019 40.6111C78.0398 40.6232 78.0606 40.6352 78.0651 40.6516C78.0204 40.9456 77.9024 41.2944 77.578 41.399C77.3686 41.4727 77.1273 41.3611 76.9801 41.2067C76.9296 41.1497 76.8615 41.027 76.8471 40.9075Z" fill="#151115"/>
<path d="M81.5513 39.9819C81.9236 39.8821 82.1446 39.4994 82.0448 39.1271C81.9451 38.7548 81.5623 38.5338 81.19 38.6336C80.8177 38.7333 80.5967 39.116 80.6965 39.4884C80.7963 39.8607 81.179 40.0816 81.5513 39.9819Z" fill="black"/>
<path d="M77.6023 41.6215C77.9747 41.5218 78.1956 41.1391 78.0958 40.7667C77.9961 40.3944 77.6134 40.1735 77.2411 40.2732C76.8687 40.373 76.6478 40.7557 76.7475 41.128C76.8473 41.5003 77.23 41.7213 77.6023 41.6215Z" fill="black"/>
<path d="M90.7998 43.1256C90.4624 43.4451 90.0922 43.7734 89.7011 44.0897C90.0264 43.791 90.3846 43.4836 90.7264 43.1805C90.7593 43.1717 90.7833 43.13 90.7998 43.1256Z" fill="black"/>
<path d="M71.3157 26.0529C72.2623 26.3631 73.4413 26.4878 74.7065 26.3427C77.5461 26.0224 79.6968 24.5121 79.514 22.9749C79.3965 21.8786 78.14 21.0697 76.4093 20.7933C77.1054 19.708 77.2895 18.6189 76.8105 17.8837C76.103 16.822 74.1622 16.8134 72.1753 17.7511C72.0721 16.7742 71.6798 16.0334 71.0138 15.7184C69.6073 15.0731 67.4951 16.6612 66.3205 19.2494C65.1295 21.8419 65.3223 24.469 66.7288 25.1142" fill="#A77B4A"/>
<path d="M71.2154 26.4675C72.2784 26.8171 73.4441 26.8925 74.5613 26.7869C75.6785 26.6814 76.7682 26.4071 77.7632 25.9114C78.5249 25.5311 79.2918 24.9731 79.6999 24.1941C80.0718 23.4776 80.0576 22.6355 79.5843 21.9869C78.9033 21.0238 77.6615 20.5988 76.5351 20.4071C76.6253 20.6121 76.699 20.8214 76.7891 21.0264C77.4447 19.9872 77.8915 18.5633 77.0393 17.4876C76.3563 16.6484 75.1368 16.5699 74.1314 16.6983C73.3815 16.7935 72.6592 17.0575 71.971 17.3829C72.1795 17.5033 72.4088 17.6357 72.6173 17.756C72.4954 16.6432 71.9708 15.4091 70.749 15.1902C69.7718 15.0291 68.859 15.5028 68.1217 16.1056C67.1807 16.8689 66.4638 17.9421 65.9618 19.0283C65.428 20.1935 65.082 21.4669 65.1285 22.7586C65.1747 23.786 65.5171 24.9984 66.5243 25.4687C66.7284 25.5726 66.9794 25.523 67.0998 25.3145C67.2081 25.1268 67.1453 24.8265 66.9456 24.739C66.7668 24.6635 66.6998 24.611 66.5824 24.5015C66.4397 24.3635 66.3891 24.3065 66.2825 24.106C66.1166 23.8156 66.0109 23.421 65.9797 23.0416C65.871 21.9781 66.1087 20.8922 66.4968 19.9071C66.8925 18.8846 67.4627 17.9212 68.2381 17.1319C68.5426 16.8212 68.8723 16.539 69.2405 16.3346C69.4081 16.2368 69.5473 16.1642 69.7073 16.1037C69.7895 16.0817 69.8838 16.0388 69.9704 16.0332C70.0197 16.02 70.0526 16.0112 70.1019 15.998C70.1513 15.9848 70.1513 15.9848 70.1184 15.9936C70.1513 15.9848 70.1721 15.9968 70.205 15.988C70.2916 15.9824 70.3618 15.9812 70.4528 15.9921C70.4528 15.9921 70.5976 16.0062 70.5066 15.9953C70.5603 15.9986 70.6184 16.0182 70.6557 16.0258C70.8466 16.0804 70.9629 16.1198 71.1473 16.2819C71.5458 16.6509 71.712 17.2055 71.7664 17.7373C71.8051 18.0794 72.097 18.2479 72.4127 18.1104C73.0395 17.8191 73.7169 17.5848 74.4011 17.5072C74.9164 17.4572 75.503 17.4762 75.9276 17.6797C76.3314 17.8711 76.6048 18.1679 76.6624 18.6459C76.7564 19.3257 76.4129 20.0169 76.055 20.5887C75.9182 20.8015 76.0524 21.1709 76.3091 21.2079C77.158 21.3505 78.1079 21.6071 78.7216 22.2533C78.9357 22.4603 79.0852 22.7551 79.114 22.9941C79.1151 23.0642 79.1207 23.1509 79.1219 23.221C79.1307 23.2539 79.1187 23.2748 79.1066 23.2956C79.0882 23.424 79.1219 23.221 79.1034 23.3494C79.0882 23.4239 79.0685 23.4821 79.0532 23.5567C79.0456 23.594 79.0336 23.6148 79.0259 23.6521C79.0139 23.6729 79.0139 23.6729 79.0259 23.6521C79.0139 23.6729 79.0063 23.7102 78.9942 23.7311C78.6824 24.3433 78.0788 24.787 77.4487 25.1321C76.6301 25.5629 75.6929 25.8141 74.7741 25.9369C73.6657 26.0753 72.5208 26.0119 71.4579 25.6623C70.9137 25.4733 70.6921 26.2905 71.2154 26.4675Z" fill="#1C202C"/>
<path d="M71.1878 16.2356C71.3141 16.378 71.4877 16.6311 71.5802 16.9764C71.7961 17.7821 71.4121 18.5195 71.1637 18.9737C71.0237 19.2403 70.7741 19.6244 70.3678 20.0153C71.0307 19.6614 71.3049 18.7773 72.29 18.1785C72.8663 17.8302 73.4242 17.6102 73.8517 17.4957C73.3364 17.5456 72.8375 17.5912 72.3222 17.6412C71.9511 17.1767 71.5755 16.6957 71.1878 16.2356Z" fill="#1C202C"/>
<path d="M76.9621 19.0413C76.9612 19.2354 76.9375 19.5414 76.7778 19.8661C76.419 20.6319 75.6518 20.9256 75.1553 21.1115C74.8681 21.2237 74.445 21.3547 73.8716 21.385C74.6054 21.5585 75.3899 21.0663 76.5283 21.2371C77.1907 21.3416 77.7557 21.5427 78.1594 21.7341C77.7457 21.4396 77.3319 21.1451 76.9182 20.8506C76.9328 20.2475 76.9475 19.6444 76.9621 19.0413Z" fill="#1C202C"/>
<path d="M85.25 28.1349C84.417 28.4462 83.5006 28.7094 82.6385 28.5174C82.4893 28.4869 82.3313 28.4235 82.1974 28.3184C81.8627 28.0556 81.8664 27.5435 82.0041 27.1365C82.1647 26.6177 82.4997 26.1578 82.8896 25.7714C83.4865 25.1709 84.2096 24.7128 84.9977 24.4311C85.6915 24.1923 86.5742 24.1321 87.0584 24.6896C87.4164 25.1048 87.427 25.7364 87.2083 26.2356C86.8628 27.0507 86.0501 27.8324 85.25 28.1349Z" fill="#836038"/>
<path d="M85.1398 27.7238C84.6926 27.8965 84.2246 28.0571 83.7465 28.1147C83.5284 28.1556 83.3014 28.1635 83.0821 28.1342C82.9 28.1125 82.6314 28.0963 82.493 27.9748C82.2417 27.7602 82.4066 27.2577 82.5182 27.0164C82.7096 26.6126 82.9844 26.257 83.3097 25.9584C83.9395 25.3491 84.8019 24.8184 85.6877 24.7044C85.9925 24.658 86.3478 24.6685 86.6068 24.8458C86.9075 25.0472 86.9715 25.4178 86.9193 25.749C86.8442 26.1921 86.5617 26.585 86.2737 26.8913C85.9496 27.2601 85.5705 27.5555 85.1398 27.7238C84.9304 27.7975 84.7728 27.9984 84.8388 28.245C84.8917 28.4423 85.1343 28.6241 85.3601 28.5459C86.3816 28.1489 87.3575 27.2529 87.6863 26.1779C87.8589 25.6382 87.811 24.999 87.4727 24.5257C87.1388 24.0688 86.6275 23.871 86.0902 23.8387C84.9618 23.771 83.7959 24.4183 82.9611 25.1177C82.5175 25.501 82.0915 25.95 81.8114 26.4832C81.5554 26.9748 81.3675 27.5891 81.5667 28.1349C81.8307 28.8572 82.6347 29.0295 83.3364 29.0177C84.0382 29.0059 84.7035 28.7923 85.3436 28.5503C85.553 28.4766 85.7062 28.2593 85.6445 28.0291C85.6081 27.8274 85.3491 27.6501 85.1398 27.7238Z" fill="#1C202C"/>
<path d="M68.5604 35.3032C69.3461 34.8812 70.1471 34.3846 70.5672 33.5847C70.635 33.4431 70.6984 33.2852 70.7081 33.124C70.7174 32.6985 70.3442 32.3579 69.9448 32.183C69.4457 31.9643 68.8875 31.92 68.3469 31.9414C67.5136 31.9885 66.6794 32.2296 65.9475 32.6549C65.3053 33.0208 64.6799 33.6466 64.7872 34.3756C64.8624 34.9194 65.3443 35.3366 65.8675 35.5136C66.6859 35.8054 67.8075 35.7164 68.5604 35.3032Z" fill="#836038"/>
<path d="M68.7856 35.6833C69.293 35.4064 69.7795 35.1174 70.2188 34.7178C70.6459 34.3389 71.0828 33.7989 71.1391 33.2199C71.1911 32.6244 70.7365 32.1118 70.2329 31.8766C69.6832 31.6009 69.046 31.525 68.4353 31.5476C67.2511 31.6006 65.9116 31.9947 65.0299 32.8478C64.652 33.2134 64.3587 33.6973 64.3638 34.2423C64.3612 34.8246 64.6875 35.3187 65.1473 35.6537C65.6488 36.0127 66.3321 36.1293 66.9473 36.123C67.5789 36.1124 68.2125 35.9779 68.7856 35.6833C69.2645 35.4316 68.8393 34.6997 68.3604 34.9513C67.6645 35.314 66.7326 35.3875 65.9768 35.1318C65.6488 35.0259 65.314 34.7631 65.2215 34.4178C65.1378 34.1054 65.3019 33.7971 65.5045 33.5666C66.1166 32.8915 67.1184 32.5525 67.9835 32.4265C68.4406 32.3568 68.9154 32.353 69.3673 32.461C69.6701 32.5385 70.2054 32.6947 70.2694 33.0652C70.3014 33.2505 70.1482 33.4678 70.0475 33.6181C69.9227 33.8102 69.7562 33.9782 69.5854 34.1297C69.2151 34.458 68.7735 34.7173 68.3275 34.9602C67.8651 35.2074 68.3068 35.935 68.7856 35.6833Z" fill="#1C202C"/>
<path d="M80.6147 47.4053C81.9633 47.3083 83.306 46.8604 84.4499 46.1309C86.2929 44.985 87.578 43.0722 87.9757 40.939C88.1042 40.2349 88.1626 39.5319 88.097 38.8269C88.0891 38.6 87.9123 38.4006 87.6809 38.3921C87.4704 38.3956 87.2382 38.5812 87.2461 38.8082C87.3531 40.2599 87.0555 41.7143 86.3377 42.9816C85.3988 44.6078 83.8365 45.749 82.0531 46.2621C81.7242 46.3502 81.3954 46.4383 81.0741 46.4892C81.0248 46.5024 80.9546 46.5036 80.9053 46.5168C80.8724 46.5256 80.7858 46.5312 80.9217 46.5124C80.8889 46.5212 80.856 46.53 80.8351 46.5179C80.7649 46.5191 80.6992 46.5368 80.629 46.5379C80.4064 46.5623 80.2027 46.7227 80.1942 46.954C80.1857 47.1854 80.3877 47.4133 80.6147 47.4053Z" fill="#1C202C"/>
<path d="M86.9472 38.2187L86.9877 38.1726C86.9877 38.1726 86.9143 38.2275 86.9712 38.177C87.0162 38.1473 87.0446 38.1221 87.0896 38.0924C87.118 38.0672 87.1674 38.0539 87.1958 38.0287C87.2123 38.0243 87.2408 37.999 87.2572 37.9946C87.3021 37.965 87.2572 37.9946 87.2408 37.999C87.323 37.977 87.4008 37.9385 87.4666 37.9209C87.483 37.9165 87.4995 37.9121 87.5159 37.9077C87.5323 37.9033 87.6025 37.9021 87.5323 37.9033C87.4622 37.9045 87.5323 37.9033 87.5488 37.8989C87.5652 37.8945 87.6025 37.9021 87.619 37.8977C87.6518 37.8889 87.6891 37.8965 87.7264 37.9042C87.7429 37.8998 87.7637 37.9118 87.7802 37.9074C87.7637 37.9118 87.6891 37.8965 87.7429 37.8998C87.7802 37.9074 87.8175 37.915 87.8547 37.9226C87.8756 37.9347 87.892 37.9303 87.9129 37.9423C87.971 37.962 87.8339 37.9106 87.892 37.9303C87.9337 37.9543 87.9754 37.9784 88.0171 38.0025C88.038 38.0145 88.0424 38.031 88.0632 38.043C88.0424 38.031 87.9963 37.9905 88.0424 38.031C88.0676 38.0595 88.1093 38.0835 88.1346 38.112C88.1598 38.1405 88.24 38.2424 88.1554 38.124C88.2312 38.2095 88.2861 38.2829 88.4024 38.3222C88.4978 38.3495 88.6338 38.3307 88.728 38.2878C88.9077 38.1692 89.0269 37.8905 88.871 37.7032C88.7315 37.5115 88.5591 37.3286 88.3386 37.2291C88.1345 37.1251 87.8899 37.0673 87.6585 37.0588C87.1629 37.0506 86.7125 37.2771 86.3422 37.6054C86.1714 37.7569 86.1849 38.0705 86.3441 38.2041C86.5329 38.3826 86.7763 38.3702 86.9472 38.2187Z" fill="#1C202C"/>
<g opacity="0.5">
<path d="M63.2554 21.6212C63.9202 21.866 64.5116 22.1658 65.1194 22.4611C63.5768 23.5442 60.5329 28.1664 57.7767 33.205C58.7457 29.1916 60.7073 24.5421 63.2554 21.6212Z" fill="white"/>
<path d="M63.9006 20.9374C63.9006 20.9374 64.1261 20.595 64.6704 20.0614C65.2192 19.5443 65.3583 19.4717 65.3583 19.4717L67.5219 20.4429C67.5219 20.4429 66.8468 20.8176 66.4658 21.2369C66.0847 21.6563 65.7341 21.9264 65.7341 21.9264L63.9006 20.9374Z" fill="white"/>
</g>
<path d="M100.784 30.5988C98.1406 18.0367 85.7621 9.98655 73.2165 12.6256C60.6709 15.2646 52.6043 27.6476 55.2433 40.1931C57.8867 52.7552 70.2653 60.8054 82.8108 58.1663C95.3685 55.5065 103.44 43.1399 100.784 30.5988ZM99.6319 30.837C102.141 42.7654 94.501 54.5053 82.5726 57.0142C70.6442 59.5231 58.9043 51.8833 56.3954 39.9549C53.8866 28.0265 61.5428 16.2822 73.4547 13.7777C85.3831 11.2688 97.123 18.9086 99.6319 30.837Z" fill="white"/>
</svg>
